<svg xmlns="http://www.w3.org/2000/svg" fill-rule="evenodd" clip-rule="evenodd" image-rendering="optimizeQuality" shape-rendering="geometricPrecision" text-rendering="geometricPrecision" viewBox="0 0 5393 3827">
  <path fill="#fc0" d="M2697 0l1498 2742-678-5-820-1501-154 281-338-618z"/>
  <path fill="#1a1a1a" d="M2124 1048l337 618 588 1076-678-5-247-453-248 453-678 5 588-1076z"/>
  <g fill-rule="nonzero">
    <path fill="#1a1a1a" d="M361 3814h106l-178-709H178L0 3814h107l33-143h187l34 143zm-199-238l44-191c11-46 21-114 26-152h3c5 38 16 106 26 152l45 191H162zm384 238h101v-274c0-66-5-173-12-244l3-2c17 46 47 120 68 172l158 348h102v-709H865v276c0 63 6 170 14 239l-3 2c-17-42-43-108-65-156l-163-361H546v709zm883 0h118l-232-400 202-309h-119l-142 225-46 83v-308h-102v709h102v-240l46-70 173 310zm185 0h102v-709h-102v709zm588-709h-399v97h147v612h104v-612h148v-97zm347 709h106l-178-709h-111l-178 709h107l33-143h187l34 143zm-199-238l44-191c11-46 21-114 26-152h3c5 38 16 106 26 152l45 191h-144z"/>
    <path fill="#fc0" d="M3249 3814h106l-178-709h-111l-178 709h107l33-143h187l34 143zm-199-238l44-191c11-46 21-114 26-152h3c5 38 16 106 26 152l45 191h-144zm693 238h114l-154-272c81-29 127-105 127-215 0-141-77-222-213-222h-183v709h102v-257h64l143 257zm-207-612h80c71 0 109 43 109 127s-38 130-110 130h-79v-257zm605 625c136 0 217-90 217-238v-259c0-148-81-238-217-238s-217 90-217 238v259c0 148 81 238 217 238zm0-100c-74 0-111-49-111-138v-259c0-89 37-138 111-138 73 0 112 49 112 138v259c0 89-39 138-112 138zm648 87h113l-154-272c81-29 128-105 128-215 0-141-77-222-213-222h-183v709h102v-257h64l143 257zm-207-612h80c71 0 108 43 108 127s-37 130-109 130h-79v-257zm705 612h106l-178-709h-110l-179 709h108l32-143h187l34 143zm-199-238l44-191c11-46 21-114 26-152h3c5 38 17 106 27 152l44 191h-144z"/>
  </g>
</svg>
