<svg xmlns="http://www.w3.org/2000/svg" fill-rule="evenodd" clip-rule="evenodd" image-rendering="optimizeQuality" shape-rendering="geometricPrecision" text-rendering="geometricPrecision" viewBox="0 0 2736 1743">
  <g fill-rule="nonzero">
    <path fill="#1a1a1a" d="M154 1738h66l-76-316H76L0 1738h66l11-53h66l11 53zm-65-114l8-36c4-22 9-60 12-86h2c3 26 9 64 13 86l7 36H89zm160 114h64v-64c0-36-4-95-9-134l2-2 28 77 53 123h64v-316h-64v73c0 29 4 83 9 123l-1 2c-8-20-15-41-22-61l-60-137h-64v316zm396 0h72l-94-178 80-138h-73l-44 86-16 35v-121h-63v316h63v-91l17-29 58 120zm96 0h64v-316h-64v316zm288-316H839v61h62v255h66v-255h62v-61zm144 316h66l-76-316h-68l-76 316h66l11-53h66l11 53zm-65-114l7-36c5-22 10-60 13-86h2c3 26 8 64 12 86l8 36h-42z"/>
    <path fill="#fc0" d="M1486 1738h66l-76-316h-68l-76 316h66l11-53h66l11 53zm-65-114l7-36c5-22 10-60 13-86h2c3 26 8 64 13 86l7 36h-42zm254 119c62 0 99-40 99-106v-215h-65v215c0 29-11 44-34 44-22 0-34-15-34-44v-215h-65v215c0 66 37 106 99 106zm287-5h70l-60-120c28-17 44-48 44-91 0-66-37-105-100-105h-91v316h64v-106h23l50 106zm-73-255h27c22 0 34 15 34 44 0 28-12 44-34 44h-27v-88zm267 260c64 0 102-40 102-108v-111c0-67-38-107-102-107-65 0-103 40-103 107v111c0 68 38 108 103 108zm0-62c-24 0-37-16-37-46v-111c0-29 13-45 37-45 23 0 36 16 36 45v111c0 30-13 46-36 46zm286 57h70l-60-120c28-17 44-48 44-91 0-66-37-105-100-105h-91v316h64v-106h22l51 106zm-73-255h26c23 0 35 15 35 44 0 28-12 44-35 44h-26v-88zm300 255h67l-76-316h-69l-76 316h67l10-53h67l10 53zm-64-114l7-36c5-22 9-60 13-86h1c4 26 9 64 13 86l7 36h-41z"/>
  </g>
  <path fill="#fc0" d="M882 1275c-67-47-122-131-165-252-32-90 34-166 198-227-129 5-213-8-254-39-56-38-123-255-204-668-7-65 22-94 86-88 265 50 509 234 733 554l-394 720zm577-720c224-320 469-504 733-554 65-6 93 23 86 88-80 413-148 630-203 668-41 31-126 44-254 39 163 61 229 137 197 227-43 121-98 205-165 252l-394-720z"/>
  <path fill="#1a1a1a" d="M1204 825l96 177 169 308-194-1-71-130-71 130-194 1 168-308 97-177zm164-300l29 54c14-41 30-79 48-114 34-65 74-118 121-157v-1c0-7 6-12 14-12 7 0 14 5 14 12s-7 13-14 13c-46 37-85 89-118 152-19 37-36 78-51 123l-3 4 389 711-194-1-235-430-44 81-97-177 99-182c-15-47-33-90-53-129-33-63-72-115-117-152-8 0-14-6-14-13s6-12 14-12c7 0 14 5 14 12v1c46 39 87 92 121 157 17 35 34 73 48 114l29-54z"/>
</svg>
