<svg xmlns="http://www.w3.org/2000/svg" fill-rule="evenodd" clip-rule="evenodd" image-rendering="optimizeQuality" shape-rendering="geometricPrecision" text-rendering="geometricPrecision" viewBox="0 0 4575 1833">
  <defs>
    <style>
      .fil0{fill:#1a1a1a}.fil4,.fil5{fill:#fc0}.fil2,.fil6{fill:#000;fill-rule:nonzero}.fil6{fill:#1a1a1a}
    </style>
  </defs>
  <g id="Layer_x0020_1">
    <g id="_1892589633872">
      <path d="M2128 120v114c0 1-1 2-3 2h-1c-3 0-6 0-9-1s-6-2-8-3c-4-2-8-7-10-11-3-5-5-9-7-13v-1c-2-10-5-21-9-32-4-10-10-20-17-29-9-11-20-19-33-24-13-6-27-9-42-11-7-2-17-4-26-8-6-2-11-5-15-9l-1-1-1-2c0-1 0-3 2-4h1c24-6 48-7 71-5 24 2 47 8 71 17l18 9 18 9c1 1 1 2 1 3zm170 175l-3-3c-8-9-20-24-34-39-7 3-13 7-19 12-8 7-14 16-20 26v104c0 5-5 9-11 9s-11-4-11-9V290 186c0-3 1-6 4-8 5-3 12-3 16 1 15 15 32 34 49 51 13 15 26 30 35 41 10-11 22-26 36-41 16-17 34-36 49-51 4-4 11-4 15-1 3 2 4 5 4 8v209c0 5-5 10-11 10s-11-5-11-10V291c-6-10-12-19-20-26-5-5-12-9-18-12-14 15-27 30-35 40-3 4-10 5-15 2zm88-39v-45c-8 9-16 18-24 26 7 4 14 9 21 15 1 1 2 2 3 4zm-139-19c-8-8-17-17-25-26v44c1-1 2-2 4-3 6-6 13-11 21-15zm51-3c-1-1-2-1-3-2-39-46-78-84-117-111v207c0 33-1 66-14 94-13 29-38 53-86 66-3 1-6 0-9-1-5-3-7-8-4-13 8-12 12-29 13-48 1-21-1-45-6-70-7-22-9-40 5-56 6-8 16-16 31-22-11-2-21-6-29-10-19-11-28-28-36-48l-1-1c-5-22-10-37-18-48-8-9-21-15-44-18h-1c-34-7-57-18-70-33-14-16-17-35-12-58 1-3 4-6 7-7 71-25 140-23 208 5 20 9 41 19 61 33 0 0 1 0 2 1 43 28 86 67 129 116 44-49 87-88 130-116 0-1 1-1 1-1 21-13 41-24 61-33 69-28 137-30 208-5 4 1 6 4 7 7 5 23 2 43-11 58-14 15-37 26-71 33-24 3-36 9-44 19-9 10-13 25-19 47l-1 2c-8 19-17 36-36 47-8 4-17 8-29 10 15 7 25 14 32 22 13 16 12 34 4 56-5 25-7 49-6 70 1 20 6 36 13 48 3 5 1 11-4 13-3 1-6 2-8 1-48-13-74-37-87-66-13-28-14-61-14-94V121c-39 28-77 65-117 111-4 4-10 5-15 2zm-142-128c-18-12-36-21-53-28-61-26-122-28-185-7-3 15 0 28 8 38 10 11 29 20 57 25 30 4 47 12 59 26 10 13 15 30 22 54 6 17 14 30 28 38 13 7 32 11 64 8V106zm0 175c-34 10-53 19-61 30-9 10-7 23-2 40 0 0 0 1 1 1 5 27 8 53 6 75-1 13-3 24-6 35 26-12 41-28 49-47 12-25 13-56 13-87v-47zm296-175c18-12 36-21 54-28 60-25 121-28 184-7 3 15 1 28-8 38-10 11-29 20-57 25-30 5-47 12-58 26-11 13-16 30-23 55-6 16-14 29-27 37-13 7-33 11-65 8V106zm0 175c34 10 53 19 62 30 8 10 7 23 1 40v2c-6 26-8 52-7 75 1 12 3 23 6 34-26-12-41-28-49-47-12-25-13-56-13-87v-47zm66-182c23-9 46-15 70-17s47 0 71 5h1c2 1 3 3 2 4l-1 2-1 1c-3 4-9 7-15 10-9 3-18 5-25 7h-1c-15 2-29 5-42 11-12 6-24 13-33 24-7 9-12 19-16 29-4 11-7 22-10 32v1c-2 4-4 8-6 13-3 4-6 9-11 11-2 1-5 2-8 3s-6 1-9 1l-1 1c-2 0-3-2-3-3V120c0-1 1-2 1-3l18-9c6-3 12-6 19-9zm-22 251c-2 9-4 18-5 28s-2 19-3 29c0 1-1 3-3 3-1 0-2-1-3-2-5-12-8-26-9-40s-1-28-1-40v-18c0-2 1-3 3-3h1c5 2 9 4 13 6 4 3 7 5 9 8 5 6 1 19-1 25-1 1-1 2-1 4zm-361 18c-1 14-4 28-9 40 0 1-1 2-3 2s-3-2-3-3c-1-10-1-19-3-29-1-10-3-19-5-28v-4c-2-6-7-19-2-26 2-2 6-5 9-7 4-2 8-4 13-6h1c2 0 4 1 4 3v18c0 12 0 26-2 40z" class="fil0"/>
      <path fill-rule="nonzero" d="M1749 627h27l-13-38-14 38zm-39 39l53-125h1l52 125h-26l-6-18h-42l-7 18h-25zm114 0V540h2l64 71v-67h23v127h-2l-65-71v66h-22zm113 0V544h24v53l34-53h29l-39 58 42 64h-29l-37-56v56h-24zm99 0V544h25v122h-25zm70 0v-96h-33v-26h90v26h-33v96h-24zm81-39h27l-13-38-14 38zm-39 39l53-125h1l52 125h-26l-6-18h-42l-7 18h-25zm178-39h27l-13-38-14 38zm-38 39l52-125h2l51 125h-26l-6-18h-42l-7 18h-24zm134-122v67c0 11 1 19 5 24 3 6 8 8 15 8 6 0 11-2 15-7 3-5 5-12 5-22v-70h22v70c0 18-4 31-11 41-8 10-19 15-32 15-14 0-25-5-32-15-8-9-12-23-12-41v-70h25zm113 23h-4v33h5c6 0 11-1 14-4s5-7 5-13-2-10-5-13c-3-2-8-3-15-3zm-28 99V544h26c9 0 15 1 20 2 5 2 9 4 12 7 4 3 7 7 9 12s4 10 4 15c0 8-2 14-5 20-4 6-8 10-15 14l32 52h-28l-28-48h-3v48h-24zm112-61c0 11 2 20 7 27 6 7 12 11 20 11 7 0 14-4 19-11s8-16 8-27c0-10-3-19-8-27-5-7-12-10-19-10-8 0-14 3-20 10-5 8-7 17-7 27zm-26 0c0-9 1-17 4-25s7-15 12-21 10-11 17-14c6-3 13-5 20-5s14 2 20 5 12 8 17 14 9 13 12 21c2 8 3 16 3 25 0 8-1 15-2 22-2 6-5 13-8 18-5 8-12 14-19 18-7 5-15 7-23 7-7 0-14-2-20-5-7-3-12-8-17-14s-9-13-12-21c-3-7-4-16-4-25zm151-38h-5v33h6c6 0 11-1 14-4s5-7 5-13-2-10-5-13c-3-2-8-3-15-3zm-28 99V544h26c9 0 15 1 20 2 5 2 9 4 12 7 4 3 7 7 9 12s3 10 3 15c0 8-1 14-5 20-3 6-8 10-14 14l32 52h-28l-28-48h-4v48h-23zm115-39h27l-13-38-14 38zm-39 39l53-125h1l52 125h-26l-6-18h-42l-7 18h-25z"/>
    </g>
    <g id="_1892589635216">
      <path d="M3705 1831h23l-26-105h-23l-25 105h22l4-17h22l3 17zm-21-37l2-12c2-8 4-21 5-29 1 8 3 21 4 29l3 12h-14zm53 37h22v-21c0-12-2-32-3-45l10 26 18 40h21v-105h-21v24c0 10 1 28 3 41l-1 1c-2-7-5-14-7-20l-20-46h-22v105zm132 0h25l-32-59 27-46h-24l-15 29-6 11v-40h-21v105h21v-30l6-10 19 40zm33 0h21v-105h-21v105zm96-105h-63v20h20v85h22v-85h21v-20zm48 105h22l-25-105h-23l-25 105h22l3-17h22l4 17zm-22-37l3-12c1-8 3-21 4-29h1c1 8 2 21 4 29l2 12h-14zm127 37h22l-26-105h-23l-25 105h22l4-17h22l4 17zm-22-37l2-12c2-8 4-21 5-29 1 8 3 21 4 29l3 12h-14zm85 39c21 0 33-13 33-35v-72h-22v72c0 9-4 14-11 14-8 0-11-5-11-14v-72h-22v72c0 22 12 35 33 35zm96-2h23l-20-40c9-5 15-16 15-30 0-22-13-35-34-35h-30v105h21v-35h8l17 35zm-25-85h9c8 0 12 5 12 15s-4 15-12 15h-9v-30zm89 87c22 0 35-13 35-36v-37c0-22-13-36-35-36-21 0-34 14-34 36v37c0 23 13 36 34 36zm0-21c-8 0-12-5-12-15v-37c0-10 4-15 12-15s12 5 12 15v37c0 10-4 15-12 15zm96 19h23l-20-40c10-5 15-16 15-30 0-22-12-35-33-35h-31v105h22v-35h7l17 35zm-24-85h8c8 0 12 5 12 15s-4 15-12 15h-8v-30zm100 85h22l-25-105h-23l-25 105h22l3-17h22l4 17zm-22-37l3-12c1-8 3-21 4-29h1c1 8 3 21 4 29l2 12h-14z" class="fil2"/>
      <path d="M4142 1436c75-107 156-168 245-185 21-2 31 8 28 29-26 139-49 211-68 224-13 10-42 14-85 13 55 20 77 45 66 76-14 40-32 68-55 84l-131-241zm-86 91l33 59 56 103-65-1-24-43-23 43-65 1 56-103 32-59zm55-101l10 18c5-14 10-26 16-38 11-21 25-39 40-52v-1c0-2 2-4 5-4 2 0 5 2 5 4 0 3-3 5-5 5-15 12-28 29-39 51-7 12-12 26-17 41l-1 1 129 238-64-1-79-143-15 26-32-59 33-60c-5-16-11-30-17-43-11-22-25-39-40-51-2 0-4-2-4-5 0-2 2-4 4-4 3 0 5 2 5 4v1c16 13 29 30 40 52 6 12 12 24 16 38l10-18zm-162 251c-23-16-41-44-55-84-11-31 11-56 66-76-43 1-71-3-85-13-19-13-41-85-68-224-2-21 7-31 29-29 88 17 170 78 245 185l-132 241z" class="fil0"/>
    </g>
    <g id="_1892589635472">
      <path d="M418 412c14-20 24-46 31-70l-22 9c-4 2-16 8-18 13-1 3 1 9 2 12v1l1 2c3 11 5 22 6 33zM274 251c7 15 15 29 29 40 18 16 41 26 65 32-4 5-7 9-10 14-9 19-8 39-1 58 3 9 5 20 4 30 0 3-1 8-3 10-6 5-11 12-14 19-4 9-3 18 2 27 5 8 16 10 23 5 8-5 10-14 7-21l4-4 1-1c9-9 13-21 14-33 1-13-2-28-5-41 0-1-1-1-1-2-4-10-6-21-1-31 6-11 19-19 30-23 6-3 10-8 11-14 1-9-6-18-15-19-30-3-66-11-89-31-7-7-12-14-17-22-5-10-12-13-22-13-18 3-14 13-12 20zm453 0c-7 15-15 29-29 40-18 16-41 26-65 32 4 5 7 9 10 14 9 19 8 39 1 58-3 9-5 20-4 30 0 3 0 8 3 10 6 5 11 12 14 19 4 9 3 18-2 27-5 8-16 10-24 5-7-5-9-14-6-21l-4-4-1-1c-10-9-13-21-14-33-1-13 2-28 5-41 0-1 1-1 1-2 4-10 6-21 1-31-6-11-19-19-30-23-6-3-10-8-11-14-1-9 6-18 15-19 30-3 66-11 89-31 7-7 12-14 16-22 6-10 13-13 23-13 18 3 14 13 12 20zm-224-77c18-35 47-62 82-82 42-24 90-36 137-43 7-1 14-2 20-1 7 2 13 5 17 11s5 12 4 19-4 15-8 21c-8 14-13 29-16 44-3 13-6 27-5 40 0 14-8 20-19 20-16-2-14-11-15-20-1-16 2-31 5-47 4-19 11-37 21-53-43 6-86 17-124 39-46 26-76 64-85 117-1 7-7 13-14 14-7-1-13-7-14-14-8-53-38-91-84-117-38-22-82-33-124-39 9 16 16 34 20 53 3 16 7 31 6 47-1 9 0 18-16 20-11 0-19-6-18-20 0-13-2-27-5-40-3-15-9-30-17-44-3-6-6-14-7-21s0-13 4-19 10-9 16-11c7-1 14 0 20 1 48 7 95 19 137 43 36 20 64 47 82 82zm-61 82l-1-10c-10-56-51-86-100-103 3 20 4 40 4 59v2c0 8 0 17 4 23 11 18 51 25 69 27l24 2zm40 158c7 4 13 6 19 6s11-2 17-5c-6-14-13-29-18-45-5 16-11 31-18 44zm53 30c-11 6-22 10-34 10s-23-4-35-11c-10 16-22 30-35 40-7 6-18 5-24-2s-5-18 3-24c16-13 30-32 42-57 13-26 23-58 31-97 2-9 11-14 20-12 7 1 12 6 13 13 17 75 42 126 75 153 8 6 9 17 3 24s-17 8-24 2c-13-10-24-23-35-39zm24-188l24-2c18-2 58-9 69-27 4-6 4-15 4-23v-2c0-19 1-39 4-59-49 17-90 47-100 103l-1 10zm-9 85c8 25 19 51 33 72 1-12 3-23 6-34l1-2v-1c1-3 3-9 2-12-2-5-14-11-18-13l-24-10z"/>
      <path d="M15 660c3 0 6-1 7-5l5-18h31l5 18c1 4 4 5 8 5 6 0 15-4 15-10l-1-1-27-90c-2-5-9-8-15-8-7 0-14 3-15 8L0 649v1c0 6 8 10 15 10zm17-41l11-39 10 39H32zm126 41c6 0 11-3 11-7v-94c0-5-5-7-11-7s-12 2-12 7v50l-23-45c-6-11-9-12-17-12-6 0-12 2-12 7v94c0 4 6 7 12 7 5 0 11-3 11-7v-50l28 51c3 5 8 6 13 6zm27-7c0 4 6 7 12 7s11-3 11-7v-27l6-8 26 38c2 3 4 5 8 5 6 0 13-6 13-12 0-1 0-3-1-4l-30-46 24-31c1-1 1-3 1-4 0-6-7-12-13-12-3 0-5 1-6 3l-28 39v-35c0-5-5-7-11-7s-12 2-12 7v94zm84 0c0 4 5 7 11 7s12-3 12-7v-94c0-5-6-7-12-7s-11 2-11 7v94zm39-101c-5 0-7 5-7 10 0 6 2 11 7 11h20v80c0 4 6 7 11 7 6 0 12-3 12-7v-80h20c5 0 7-5 7-11 0-5-2-10-7-10h-63zm77 108c4 0 7-1 8-5l5-18h31l5 18c1 4 4 5 8 5 6 0 14-4 14-10v-1l-28-90c-1-5-8-8-15-8-6 0-13 3-15 8l-27 90v1c0 6 8 10 14 10zm18-41l10-39 11 39h-21zm99 41c3 0 6-1 7-5l5-18h31l5 18c1 4 4 5 8 5 6 0 15-4 15-10l-1-1-27-90c-2-5-9-8-15-8-7 0-14 3-15 8l-28 90v1c0 6 8 10 15 10zm17-41l11-39 10 39h-21zm113 7c0 10-5 15-14 15s-14-5-14-15v-67c0-5-6-7-12-7s-11 2-11 7v67c0 25 16 35 37 35 20 0 37-10 37-35v-67c0-5-6-7-12-7s-11 2-11 7v67zm38 27c0 4 6 7 12 7s11-3 11-7v-36h10l20 39c2 3 5 5 8 5 6 0 14-7 14-12 0-1 0-2-1-3l-18-33c11-4 18-13 18-29 0-24-16-32-36-32h-31c-4 0-7 3-7 7v94zm38-81c8 0 13 3 13 14 0 10-5 13-13 13h-15v-27h15zm83 89c21 0 36-10 36-35v-39c0-26-15-35-36-35-20 0-36 9-36 35v39c0 25 16 35 36 35zm13-35c0 10-5 15-13 15s-13-5-13-15v-39c0-10 5-15 13-15s13 5 13 15v39zm38 27c0 4 6 7 12 7 5 0 11-3 11-7v-36h10l20 39c2 3 4 5 7 5 7 0 15-7 15-12 0-1 0-2-1-3l-18-33c10-4 18-13 18-29 0-24-16-32-36-32h-31c-4 0-7 3-7 7v94zm38-81c8 0 13 3 13 14 0 10-5 13-13 13h-15v-27h15zm56 88c3 0 6-1 7-5l5-18h31l5 18c1 4 4 5 8 5 6 0 14-4 14-10v-1l-27-90c-2-5-9-8-15-8-7 0-14 3-15 8l-28 90v1c0 6 8 10 15 10zm17-41l11-39 10 39h-21z" class="fil2"/>
    </g>
    <g id="_1892589637584">
      <path d="M2236 1288c32 18 46 53 44 103-15-53-37-81-58-85-12-3-1-26 14-18z" class="fil0"/>
      <path d="M2304 1351c-24 118-42 191-56 230-36 80-102 99-136 51-23-38 14-84 66-90 47 0 44-37 0-57-38-24-51-47-45-69 12-48 0-91-36-128 127 5 179 181 115 271-4 4-18 2-38 6-31 7-67 25-44 58 20 28 48 20 65-6 14-20 18-43 23-48 94-94 9-337-154-294 42 41 58 84 47 127-22 55-7 85 75 110 13 3 12 13-1 13-70 8-125 56-82 128 42 56 150 21 180-113 6 2 13 9 21 20 8-11 15-18 21-20 31 134 138 169 180 113 43-72-12-120-82-128-13 0-14-10-1-13 82-25 98-55 75-110-11-43 5-86 47-127-162-43-248 200-154 294 5 5 10 28 23 48 18 26 45 34 65 6 23-33-13-51-43-58-20-4-35-2-38-6-65-90-13-266 114-271-35 37-47 80-36 128 7 22-6 45-45 69-44 20-47 57 0 57 52 6 90 52 66 90-34 48-100 29-136-51-13-39-32-112-56-230z" class="fil0"/>
      <path d="M2466 1320c-52 32-77 86-74 160 95-43 52-85 74-160zM2142 1320c52 32 77 86 74 160-95-43-52-85-74-160z" class="fil0"/>
      <path d="M2160 1351c7 48-11 77 43 106 0-42-12-79-43-106z" class="fil4"/>
      <path d="M2304 1533l16-22-16-76-15 76 15 22zM2147 1619c17 16 38-1 52-43-50 5-67 20-52 43z" class="fil5"/>
      <path d="M2448 1351c-7 48 11 77-43 106 0-42 12-79 43-106z" class="fil4"/>
      <path d="M2372 1288c-32 18-46 53-43 103 14-53 36-81 57-85 12-3 1-26-14-18z" class="fil0"/>
      <path d="M2461 1619c-16 16-38-1-51-43 49 5 66 20 51 43z" class="fil5"/>
      <path d="M1808 1719h-19l-21 58h47l-16-46-13 34h6l7-19 9 26h-32l17-48h11l31 84h-8l-9-24h-52l-11 29h19l6-16h-5l-4 11h-8l6-18h45l9 23h19l-34-94zm106 62l-36-62h-6l48 81v-76h7v84h-12l-52-89h-5v94h18v-46l-5-9v50h-8v-78l49 83h21v-94h-19v62zm77-17l39-45h-24l-35 41v48h-8v-84h8v25l5-6v-24h-18v94h18v-51l33-38h10l-35 40 38 44h-10l-28-32v8l25 29h24l-42-49zm78-27v-18h-18v5h13v8h-13v81h18v-69h-5v64h-8v-71h13zm57-18v89h-8v-89h-30v18h16v-5h-11v-8h19v89h19v-89h19v8h-11v5h16v-18h-29zm85 0h-18l-22 58h48l-17-46-12 34h5l7-19 9 26h-32l17-48h11l31 84h-8l-9-24h-52l-11 29h20l6-16h-6l-4 11h-8l7-18h45l8 23h19l-34-94zm143 0h-18l-21 58h47l-17-46-12 34h5l7-19 9 26h-32l18-48h11l30 84h-8l-8-24h-53l-10 29h19l6-16h-6l-4 11h-8l7-18h45l8 23h20l-35-94zm103 0v58c0 8-2 14-6 17v6c6-3 12-9 12-23v-53h8v53c0 11-4 31-28 32v-12h-3c-12 0-17-7-17-20v-58h-19v58c0 18 8 32 26 36v-5c-17-5-20-20-20-31v-53h7v53c0 19 12 24 20 25v12h3c25 0 36-16 36-37v-58h-19zm76 0h-32v94h18v-42l31 42h23l-34-46c9-1 15-8 15-18 0-11-8-17-20-17h-20v23h5v-18h15c9 0 15 4 15 12 0 7-4 13-15 13h-5l33 46h-9l-33-46h-6v46h-8v-84h27c18 0 29 10 29 25 0 9-4 17-12 21l3 5c9-5 14-15 14-26 0-17-12-30-34-30zm103 0v5c18 6 26 24 26 42 0 21-11 43-36 43s-36-22-36-43 10-41 33-43v13c1-1 2-1 3-1 16 0 23 18 23 31s-7 31-23 31c-17 0-23-18-23-31 0-10 3-22 12-28v-6c-12 6-17 20-17 34 0 17 8 36 28 36 19 0 28-19 28-36 0-16-8-34-26-36v-12h-2c-27 0-42 22-42 48s15 48 42 48c26 0 41-22 41-48 0-23-11-42-31-47zm84 0h-33v94h19v-42l31 42h22l-34-46c10-1 15-8 15-18 0-11-7-17-19-17h-20v23h5v-18h15c8 0 14 4 14 12 0 7-3 13-15 13h-5l34 46h-9l-34-46h-5v46h-8v-84h27c17 0 28 10 28 25 0 9-3 17-11 21l3 5c9-5 14-15 14-26 0-17-13-30-34-30zm99 0h-19l-21 58h47l-16-46-13 34h6l7-19 9 26h-32l17-48h11l30 84h-8l-8-24h-52l-11 29h19l6-16h-5l-4 11h-8l6-18h45l9 23h19l-34-94z" class="fil6"/>
    </g>
    <g id="_1892589643120">
      <path d="M284 1540l-8 18c0 1-1 3-2 3-3 1-6 0-7-2l-2-5c0-1-1-2-1-2 0-2 1-4 2-6s3-4 3-5l3-3 4-3c1-2 3-2 5-2 3 2 4 4 3 7zm120 28h46c3 0 5-2 5-5v-2l-23-56c-1-4-4-5-7-4-2 1-4 4-3 7l21 50h-39c-3 0-5 2-5 5s2 5 5 5zm152 0h46c3 0 6-2 6-5 0-1 0-1-1-2l-23-56c-1-4-4-5-7-4-2 1-3 4-2 7l20 50h-39c-2 0-5 2-5 5s3 5 5 5zm-33 88l11-25h91l10 25c2 4 4 4 7 4 2-1 4-5 3-7l-12-29c0-1-2-3-5-3h-97c-3 0-5 1-5 3l-12 29c-1 2 0 6 3 7 3 0 5 0 6-4zm-1-162l57-142 125 304c1 4 4 4 6 4 3-1 4-5 3-7l-129-316c-1-4-8-5-9 0l-60 147c-4 10-8 18-4 21 6 3 8-4 11-11zm-151 162l10-25h91l11 25c1 4 4 4 6 4 3-1 4-5 4-7l-12-29c-1-1-3-3-5-3h-98c-2 0-4 1-4 3l-12 29c-2 2 0 6 3 7 2 0 5 0 6-4zm-68 0l124-304 104 254c1 4 3 6 7 5 5-1 4-4 3-7l-109-267c-2-4-8-5-10 0l-128 316c-2 2 0 6 2 7 3 0 6 0 7-4zm424-44c5-5 11-11 16-18 6-9 12-19 17-32 4-11 2-22-8-34-10-13-28-27-54-42-2-1-3-4-2-6s3-3 5-2c21 5 38 8 51 9s23 0 29-3c8-3 17-20 28-50 10-30 22-74 35-132 1-8 0-14-4-18-4-5-10-8-20-9-35-1-70 5-104 19-33 13-65 33-95 61l106 257zm3-54l-7-18c-1-3 0-5 2-7 2 0 4 0 6 2l3 3 3 3c1 1 2 3 3 5s2 4 2 6v2l-3 5c-1 2-4 3-6 2-1 0-2-2-3-3zm-43-186l20 50h2c1 1 2 1 4 1 6 2 12 3 19 5 5 1 11 2 16 2 2-5 4-10 5-14h1c5-15 9-29 13-44 4-13 7-25 10-38-6 1-12 2-18 4-8 2-16 4-24 8-9 3-18 8-27 13-7 4-14 8-21 13zm12 57l-23-57c-1-2 0-4 2-6 8-6 17-11 26-16 8-5 18-10 27-14 9-3 17-6 26-8s17-4 26-5h2c2 1 4 3 4 6-4 15-8 30-12 46-4 15-9 30-14 44-2 5-4 12-7 19-1 2-3 3-5 3l-21-3c-7-2-13-3-20-5l-3-1h-4c-1 0-3-1-4-3zm51 171c-7 9-14 17-22 23-1 0-1 1-1 1-3 1-5 0-6-3l-110-266c-1-1 0-4 1-5 32-29 66-51 101-65s71-20 108-19c12 2 20 5 26 12 5 6 8 15 6 25v1c-13 58-25 103-36 133-11 33-22 51-33 56-7 3-18 4-32 3-8 0-16-1-26-3 15 10 26 20 34 29 11 15 14 30 9 44-6 13-12 24-19 34zm-471 23c-8-6-16-14-23-23-7-10-13-21-18-34-6-14-3-29 9-44 7-9 18-19 33-29-9 2-18 3-25 3-15 1-26 0-33-3v-1c-11-4-21-22-33-55-11-30-23-75-36-133v-1c-1-10 1-19 6-25 6-7 14-10 26-12 38-1 74 5 109 19s68 36 100 65c2 1 2 4 1 5l-109 266c-1 3-4 4-6 3-1 0-1-1-1-1zm-15-29c5 7 10 13 16 18l106-257c-31-28-63-48-96-61-33-14-68-20-104-19-9 1-16 4-19 9-4 4-6 10-5 18 13 58 25 102 36 132 10 30 20 47 27 50h1c6 3 15 4 28 3s30-4 51-9c2-1 4 0 5 2s1 5-2 6c-26 15-44 29-54 42-10 12-12 23-8 34 6 13 11 23 18 32zm66-222l-23 57c-1 2-2 3-4 3h-3l-4 1c-6 2-13 3-20 5-7 1-13 2-20 3-3 0-5-1-5-3-3-7-6-14-7-19h-1c-5-14-9-29-14-44-4-16-8-31-11-46-1-3 1-5 4-6h1c9 1 18 3 27 5 8 2 17 5 25 8 10 4 19 9 28 14s17 10 26 16c2 2 2 4 1 6zm-31 50l21-50c-7-5-15-9-22-13-9-5-18-10-27-13-8-4-16-6-24-8-6-2-12-3-18-4 3 13 7 25 10 38 4 15 9 29 14 44 1 4 3 9 5 14 6 0 11-1 16-2 7-2 13-3 20-5l5-1z" class="fil6"/>
      <path d="M0 1816h1006v2H0zM0 1696h1006v3H0zM33 1777h13c1 0 2-1 2-2h-1l-6-17c-1-1-1-1-2-1-1 1-1 1-1 2l6 15H33c-1 0-2 0-2 1s1 2 2 2zm-10 26l3-8h27l3 8s1 1 2 0c0 0 1-1 0-2l-3-8-1-1H25l-1 1-4 8c0 1 0 2 1 2 1 1 2 0 2 0zm-20 0l36-89 37 89s1 1 2 0c0 0 1-1 0-2l-37-92c-1-1-3-1-3 0l-38 92c0 1 0 2 1 2 1 1 2 0 2 0zm166 0v-91c0-2-3-2-3 0v91c0 2 3 2 3 0zm-75 0v-91c0-2-3-2-3 0v91c0 2 3 2 3 0zm14-90l40 57c1 1 3 0 3-1v-57c0-2-3-2-3 0v52l-38-53c-1-2-3 0-2 2zm44 90l-40-57c-1-2-2-1-2 0v57c0 2 3 2 3 0v-52l37 53c1 2 3 0 2-1zm40 0v-91c0-1 0-2-1-2s-2 1-2 2v91c0 1 1 2 2 2s1-1 1-2zm37-92l-18 25v-24c0-1-1-2-2-2s-1 1-1 2v29c1 1 2 1 2 0l21-28c1-1 1-2 0-2-1-1-1-1-2 0zm4 92l-23-33h-2v33c0 1 0 2 1 2s2-1 2-2v-27l20 28c0 1 1 1 2 1 1-1 1-2 0-2zm18-92l-32 44v2l34 47c1 1 2 1 2 1 1-1 1-2 1-2l-33-47 31-43v-2c-1-1-2-1-3 0zm38 92v-91c0-1 0-2-1-2s-2 1-2 2v91c0 1 1 2 2 2s1-1 1-2zm-18 0v-91c0-1-1-2-1-2-1 0-2 1-2 2v91c0 1 1 2 2 2 0 0 1-1 1-2zm97-74h-23c-1 0-2 0-2 1v73c0 1 1 2 2 2s1-1 1-2v-71h22c1 0 1-1 1-2s0-1-1-1zm-64-16h64c1 0 1 0 1-1s0-1-1-1h-64c-1 0-2 0-2 1s1 1 2 1zm0 19h21v71c0 1 1 2 2 2 0 0 1-1 1-2v-73c0-1-1-1-1-1h-23c-1 0-2 0-2 1s1 2 2 2zm95 45h14s1-1 1-2l-7-17c0-1-1-1-2-1 0 1-1 1 0 2l6 15h-12c-1 0-1 0-1 1s0 2 1 2zm-9 26l3-8h26l3 8c1 0 1 1 2 0 1 0 1-1 1-2l-3-8c-1 0-1-1-2-1h-28c-1 0-2 1-2 1l-3 8c-1 1 0 2 1 2 1 1 1 0 2 0zm-20 0l36-89 36 89s1 1 2 0c1 0 1-1 1-2l-38-92c0-1-2-1-2 0l-38 92c0 1 0 2 1 2 1 1 1 0 2 0zm148-26h14c1 0 1-1 1-2l-6-17c-1-1-2-1-2-1-1 1-2 1-1 2l6 15h-12s-1 0-1 1 1 2 1 2zm-9 26l3-8h26l3 8c1 0 2 1 2 0 1 0 1-1 1-2l-3-8s-1-1-2-1h-28c-1 0-1 1-1 1l-4 8c0 1 0 2 1 2 1 1 2 0 2 0zm-20 0l36-89 36 89c1 0 2 1 2 0 1 0 1-1 1-2l-37-92c-1-1-3-1-3 0l-38 92c0 1 0 2 1 2 1 1 2 0 2 0zm106-33c0 10 7 17 16 17 10 0 17-7 17-17v-58c0-1-1-1-2-1 0 0-1 0-1 1v58c0 8-5 14-14 14-7 0-13-6-13-14v-58c0-1-1-1-2-1 0 0-1 0-1 1v58zm49-58v59c0 19-15 32-33 32s-32-13-32-32v-59c0-1 0-1-1-1s-1 0-1 1v59c0 20 14 34 34 34s35-13 35-34v-59c0-1 0-1-1-1s-1 0-1 1zm59 38c6 0 10-5 10-11s-4-10-10-10h-17c-2 0-2 3 0 3h17c4 0 7 3 7 7 0 5-3 8-7 8h-6l-1 1c0 1 1 2 1 2h6zm8 53l-23-32c-1-1-2-1-2-1-1 1-1 1-1 2v31c0 1 1 2 1 2 1 0 2-1 2-2v-27l21 28c0 1 1 1 2 1 1-1 1-2 0-2zm-41 0v-90h34c14 0 26 12 26 26s-12 26-26 26c-1 0-1 1-1 2v1l28 36c1 1 2 1 2 0 1 0 1-1 1-1l-27-35c15-1 26-14 26-29 0-16-13-29-29-29h-36c-1 0-1 1-1 2v91c0 1 0 2 1 2s2-1 2-2zm169-60c-6-21-26-34-47-34-29 0-49 20-49 48 0 29 20 49 49 49 21 0 41-13 47-34 1-1 0-2-1-2s-1 0-2 1c-6 20-24 32-44 32-27 0-46-19-46-46 0-26 19-45 46-45 20 0 38 12 44 32 1 0 1 1 2 1 1-1 2-2 1-2zm-73 29c6 10 15 16 26 16 16 0 30-14 30-31 0-16-14-30-30-30-11 0-20 6-26 15 0 1 0 2 1 3 1 0 2 0 2-1 5-8 13-14 23-14 15 0 26 13 26 27 0 15-11 27-26 27-10 0-18-5-23-13 0-1-1-1-2-1-1 1-1 2-1 2zm126-22c7 0 11-5 11-11s-4-10-11-10h-16c-2 0-2 3 0 3h16c5 0 8 3 8 7 0 5-3 8-8 8h-5c-1 0-1 1-1 1 0 1 0 2 1 2h5zm9 53l-24-32c0-1-1-1-2-1v33c0 1 1 2 1 2 1 0 2-1 2-2v-27l21 28c0 1 1 1 2 1 1-1 1-2 0-2zm-41 0v-90h34c14 0 26 12 26 26s-12 26-26 26c-1 0-1 1-1 2v1l28 36c1 1 2 1 2 0 1 0 1-1 1-1l-27-35c15-1 26-14 26-29 0-16-13-29-29-29h-36c-1 0-1 1-1 2v91c0 1 0 2 1 2s2-1 2-2zm100-26h14c1 0 1-1 1-2l-6-17c-1-1-2-1-2-1-1 1-2 1-1 2l6 15h-12s-1 0-1 1 1 2 1 2zm-9 26l3-8h26l3 8c1 0 2 1 2 0 1 0 1-1 1-2l-3-8s-1-1-2-1h-28c-1 0-1 1-1 1l-4 8c0 1 0 2 1 2 1 1 2 0 2 0zm-20 0l36-89 36 89c1 0 2 1 2 0 1 0 1-1 1-2l-37-92c-1-1-3-1-3 0l-38 92c0 1 0 2 1 2 1 1 2 0 2 0z" class="fil2"/>
    </g>
    <g id="_1892589643600">
      <path d="M4043 416c13 6 28 6 43 6h21c-11-16-19-35-23-56-12 22-26 38-41 50zm135-308c-13-5-27-5-42-5-6 0-12 0-18-1 11 17 19 35 23 57 11-20 23-36 37-51zm-88-37c16 5 31 5 46 5 22 0 42 0 62 12 48-41 112-61 208-65-22 54-40 132-67 179-22 38-46 64-73 83 31 31 49 101 49 211-47-39-85-50-116-77-32-28-64-83-86-126-65-149-117-206-231-214 19 95 56 155 116 202-32 29-48 77-46 146 59-27 103-70 132-129 50 171 167 196 231 227-32-2-120-20-178-70-17-6-35-6-51-6-24 0-46 0-68-17-33 19-71 31-110 65-1-111 17-177 48-213-27-20-62-59-85-113-25-58-38-124-55-150 162 11 222 52 297 204 28 49 61 166 157 201 6-58-9-107-45-144 71-57 108-124 112-203-93 13-158 64-196 147-49-170-167-196-231-226 33 1 122 20 180 71zM3772 543c-3 4-4 3-7 4-18 29-35 57-56 82-1-1-3-1-4-2h-1c-11-6-24-12-38-12-7 0-12 2-15 7l-1 2c-1 2-3 7-3 9 0 1 1 0 1 1s-1 1-1 2c1 1 2 3 4 3 1 0 4-2 9-2 14 0 23 4 34 7-7 7-22 16-22 19 0 5 7 5 12 9h2c2 1 4 1 5 1 11-1 19-11 27-20 8 4 19 9 26 15 2 15 8 30 22 30 7 0 18-6 18-13 0-2-2-3-5-3-10 0-14-12-14-30 0-32 13-79 25-95 1-1 1-2 1-3 0-6-7-14-14-14-2 0-4 1-5 3zm-119 80c2-4 7-7 14-7 5 0 11 2 18 4-6-1-12-2-17-2-6 0-12 2-15 5zm66 12l-1-1c4-6 22-32 22-32-4 4-16 27-20 31l-1 2zm4 2h-1c7-9 15-21 24-35-7 12-18 28-23 35zm24-26c-1 9-4 24-4 40-5-4-12-8-17-12 8-11 16-21 22-32l-1 4zm14 53v-16c0-20 4-42 12-64-8 28-12 54-12 80zm99-30c-9 8-17 29-29 36 0-16 20-52 20-59 0-6-6-11-13-11-9 0-21 13-31 28 2-5 9-15 9-18 0-1 0-3-2-4 0 0-12 21-13 28v-2c0-6 10-22 12-25l1-2c-3-3-8-7-12-7-2 0-3 1-4 2-15 31-20 51-20 63 0 13 5 17 9 17 2 0 3-1 3-2 11-27 35-59 39-62-2 5-15 31-15 49 0 11 7 17 13 17 18 0 41-49 41-52 0-1 0-1-1-1s-5 2-7 5zm-39 38c-2 0-2-8-2-8 0-6 6-23 6-23s-5 19-5 25c0 3 1 6 1 6zm5-21c0 3-1 18-2 18v-6c0-5 2-14 2-14v2zm86 36c-15 0-27-19-34-42 21-3 37-22 37-33 0-8-5-14-13-14-7 0-18 12-27 22 6-15 13-31 20-48 0-1 1-2 1-3 0-6-6-16-10-16-6 0-35 67-35 105 0 11 2 19 8 21 2 2 3 3 5 3 1 0 2-1 2-3 0-3-1-8-1-12 0-6 0-12 2-19 4 20 13 53 30 53 10 0 20-11 20-11 0-2-2-3-5-3zm-57-45c2-17 9-40 19-62-9 25-15 45-19 62zm46-31c0 4-16 23-26 24 7-11 21-25 25-25 0 0 0 1 1 1zm-7 71c-3-3-11-11-11-19 0 0 7 13 9 16 1 1 4 3 4 4-1 0-1-1-2-1zm57-48c-9 8-17 29-29 37 0-14 8-36 19-56 1-1 1-3 1-4 0-7-8-11-14-11-1 0-3 0-4 2-10 22-18 44-18 60 0 10 4 20 15 20 14 0 38-48 38-52 0-1 0-1-1-1s-4 2-7 5zm-31 27c0 2 0 3-1 3v-2c0-8 10-36 13-36 0 0-11 28-12 35zm25-66c6-9 9-14 14-20 0-4-10-10-14-10-5 0-11 19-11 23 0 3 6 7 10 7h1zm-8-12c0-1 7-13 8-13 0 1-5 11-6 11 0 0 0 3-2 3v-1zm63 13c1 0 1-5 1-5 0-7-2-9-8-9-2 0-4 1-6 1h-2v-2c1-2 2-5 2-7 0-7-5-15-10-15-2 0-7 7-15 26-6 0-12-2-13-5-1-1-1-1-2-1s-3 2-3 4c0 7 7 10 15 11-8 20-15 45-15 63 0 16 7 24 14 24 10 0 19-12 24-20 8-13 18-30 18-32 0-1-1-1-1-1-12 0-21 34-39 42 0-2-1-4-1-6 0-18 11-47 20-69h13c4 0 6 0 8 1zm-50 45c2-14 6-29 12-46h1c-6 17-10 32-13 46zm110-7c-7 7-15 28-25 36 0-11 5-26 11-39 0 0 1-1 1-2 0-5-7-10-11-11-2-13-12-19-20-19-19 0-38 35-38 62 0 7 5 22 17 22 8-1 16-9 22-16 1 7 5 13 11 15h1c1 1 3 1 4 1 2 0 4 0 7-2 10-8 29-49 29-51 0-1 0-1-1-1s-5 2-8 5zm-51-22c-6 8-13 15-12 15-1 0 4-8 4-8 3-3 8-8 9-8 0 0-1 0-1 1zm-15 13c-1 2-2 6-2 6 0-9 9-18 14-23-1 0-9 13-12 17zm25 13v1c0 2 1 3 2 4 0 4-22 27-25 27 0 0-1 0-1-1 0-10 19-55 26-55 1 0 2 1 2 3 0 6-2 16-4 21zm14 6c-2 7-5 16-6 20 0-1 8-31 8-31 0-3 1-4 1-4v1c0 2-1 8-3 14zm185-101c-3 4-3 3-6 4h-1c-17 29-35 57-56 82-1-1-2-1-3-2h-2c-11-6-23-12-38-12-6 0-11 2-14 7l-1 2c-2 2-3 7-3 9 0 1 1 0 1 1s-1 1-1 2c1 1 1 3 3 3s5-2 9-2c14 0 24 4 35 7-7 7-22 16-22 19 0 5 7 5 11 9h3c1 1 3 1 5 1 11-1 19-11 26-20 8 4 20 9 27 15 2 15 8 30 22 30 7 0 17-6 17-13 0-2-2-3-4-3-11 0-15-12-15-30 0-32 13-79 26-95 1-1 1-2 1-3 0-6-8-14-14-14-2 0-4 1-6 3zm-119 80c3-4 8-7 14-7 5 0 11 2 18 4-6-1-11-2-16-2-7 0-12 2-16 5zm66 12l-1-1c5-6 23-32 23-32-4 4-17 27-20 31l-2 2zm4 2h-1c7-9 16-21 25-35-7 12-19 28-24 35zm25-26c-1 9-4 24-4 40-5-4-12-8-17-12 7-11 15-21 22-32l-1 4zm14 53c-1-5-1-10-1-16 0-20 4-42 12-64-8 28-11 54-11 80zm101-31c-8 7-17 28-29 36 2-15 8-38 18-55 1-1 1-1 1-2 0-4-9-10-14-10-1 0-3 0-3 2h-1c0 2-1 3-2 4-7 18-23 55-34 55-1 0-2 0-2-2 0-8 10-35 16-45v-2-2c-1-4-4-5-4-6 1 0-1 0-2-1-2 5-11 27-12 27 0-2 7-25 12-28 0-1-2-1-3-2 0 0-3-1-4-1-2 0-3 0-4 1-2 8-17 41-17 61 0 6 7 16 16 16 8 0 16-9 22-19 0 14 7 21 13 21 21 0 41-52 41-52v-1c-2 0-5 2-8 5zm-34 27v-4c0-10 9-31 10-35 1-2 2-3 2-3s-12 29-12 42zm87-57c-2-2-5-2-7-2-15 0-34 38-37 49 2-14 10-30 14-41v-2c0-5-7-8-13-8-2 0-3 0-4 1-3 4-17 39-17 62 0 12 4 20 13 20 2 0 4-1 4-3 4-17 14-36 25-54-1 2-1 3-1 5 0 14 4 22 11 22 2 0 3-1 3-3v-6c0-19 11-28 11-35 0-2-1-3-2-5zm-54 33c0-11 4-21 11-31-6 10-10 20-11 31zm35-12c0 6 0 12 1 16-1-3-2-6-2-9 0-2 0-5 1-7zm91 9c-8 7-11 15-17 19 4-8 6-18 6-26 0-14-7-31-25-31-14 0-26 13-26 29v3c-3-2-6-3-8-3-5 0-8 22-8 26 0 15 8 30 26 30 11 0 20-6 28-16 13-3 21-14 31-30 1-3 2-4 2-5s-1-1-2-1-4 2-7 5zm-70 0c-2 3-3 11-3 18 0 4 0 9 1 12-2-4-2-9-2-14 0-9 3-19 4-19v3zm17 34c-5-2-7-6-7-12 0-3 0-6 1-9 4 8 11 14 18 17-3 3-7 5-10 5-1 0-2 0-2-1zm17-12c-11-3-15-14-15-24 0-12 6-24 15-24 7 0 10 6 10 14 0 11-6 27-10 34zm8-53c7 1 12 11 12 16l-1-1c0-5-6-13-11-15zm84 1c-2-2-4-2-6-2-16 0-35 38-38 49 3-14 10-30 15-41v-2c0-5-8-8-13-8-2 0-4 0-5 1-3 4-16 39-16 62 0 12 3 20 13 20 2 0 3-1 4-3 3-17 13-36 24-54v5c0 14 3 22 10 22 2 0 4-1 4-3-1-2-1-4-1-6 0-19 11-28 11-35 0-2 0-3-2-5zm-54 33c0-11 4-21 11-31-5 10-9 20-11 31zm35-12c0 6 0 12 1 16-1-3-2-6-2-9 0-2 0-5 1-7zm95 10c-8 7-15 28-25 36 0-11 5-26 11-39 0 0 1-1 1-2 0-5-7-10-11-11-2-13-12-19-20-19-19 0-38 35-38 62 0 7 4 22 17 22 8-1 16-9 22-16 1 7 4 13 11 15h1c1 1 3 1 4 1 2 0 4 0 6-2 11-8 30-49 30-51 0-1 0-1-1-1-2 0-5 2-8 5zm-52-22c-5 8-12 15-11 15-1 0 4-8 4-8l8-8-1 1zm-14 13c-1 2-2 6-3 6 1-9 10-18 15-23-1 0-10 13-12 17zm25 13l-1 1c0 2 2 3 3 4 0 4-22 27-25 27-1 0-1 0-1-1 0-10 19-55 26-55 1 0 1 1 1 3 0 6-1 16-3 21zm14 6c-2 7-5 16-6 20 0-1 7-31 7-31 1-3 2-4 2-4v1c0 2-2 8-3 14z" class="fil2"/>
    </g>
  </g>
</svg>
