<svg xmlns="http://www.w3.org/2000/svg" fill-rule="evenodd" clip-rule="evenodd" image-rendering="optimizeQuality" shape-rendering="geometricPrecision" text-rendering="geometricPrecision" viewBox="0 0 4357 2776">
  <g fill-rule="nonzero">
    <path fill="#0c9889" d="M245 2768h106l-121-503H121L0 2768h106l16-84h106l17 84zm-103-181l12-57c7-36 15-97 20-138h3c5 41 13 102 20 138l11 57h-66zm255 181h101v-102c0-56-5-150-13-214l2-2 45 123 85 195h101v-503H617v116c0 47 6 133 14 196l-2 3c-12-32-23-65-36-97l-95-218H397v503zm630 0h115l-150-283 128-220h-116l-71 136-26 56v-192H807v503h100v-145l28-46 92 191zm153 0h102v-503h-102v503zm459-503h-302v97h98v406h105v-406h99v-97zm229 503h105l-120-503h-109l-121 503h105l17-84h106l17 84zm-103-181l12-57c7-36 15-97 20-138h3c5 41 13 102 20 138l11 57h-66z"/>
    <path fill="#931b1d" d="M2366 2768h106l-121-503h-109l-121 503h106l17-84h106l16 84zm-102-181l11-57c7-36 15-97 20-138h3c5 41 14 102 20 138l12 57h-66zm404 189c99 0 158-63 158-168v-343h-104v343c0 45-18 69-54 69s-54-24-54-69v-343h-104v343c0 105 59 168 158 168zm457-8h111l-94-191c44-26 69-77 69-145 0-105-59-167-159-167h-145v503h102v-169h36l80 169zm-116-406h42c36 0 55 24 55 70 0 45-19 70-55 70h-42v-140zm424 414c102 0 163-64 163-171v-177c0-108-61-172-163-172s-163 64-163 172v177c0 107 61 171 163 171zm0-99c-38 0-57-25-57-72v-177c0-47 19-73 57-73s58 26 58 73v177c0 47-20 72-58 72zm456 91h112l-95-191c44-26 70-77 70-145 0-105-59-167-159-167h-146v503h102v-169h36l80 169zm-116-406h42c36 0 56 24 56 70 0 45-20 70-56 70h-42v-140zm478 406h106l-121-503h-109l-121 503h106l17-84h106l16 84zm-102-181l11-57c7-36 15-97 20-138h3c5 41 14 102 20 138l12 57h-66z"/>
  </g>
  <path fill="#931b1d" d="M1405 2031c-107-76-194-209-262-401-51-144 54-265 314-362-205 7-340-13-404-62-89-61-197-406-325-1065C717 38 763-8 865 1c422 80 811 374 1168 883l-628 1147zm919-1147C2681 375 3070 81 3492 1c102-9 148 37 137 140-128 659-236 1004-325 1065-64 49-199 69-404 62 261 97 365 218 314 362-68 192-155 325-262 401L2324 884z"/>
  <path fill="#0c9889" d="M1917 1315l154 281 268 491-309-2-113-207-113 207-309 2 268-491 154-281zm262-478l46 85c23-66 48-126 76-181 54-104 118-188 193-251v-1c0-10 10-19 22-19s22 9 22 19c0 11-10 20-22 20-72 60-135 142-187 243-30 59-57 124-81 195l-5 7 619 1133-309-2-374-685-71 128-154-281 158-289c-24-75-52-144-84-206-52-101-115-183-187-243-13 0-23-9-23-20s10-19 23-19c12 0 22 8 22 19v1c74 62 139 147 193 251 28 55 54 115 76 181l47-85z"/>
</svg>
