<svg xmlns="http://www.w3.org/2000/svg" fill-rule="evenodd" clip-rule="evenodd" image-rendering="optimizeQuality" shape-rendering="geometricPrecision" text-rendering="geometricPrecision" viewBox="0 0 3231 3197">
  <defs>
    <style>
      .fil3,.fil4{fill:#000}.fil2{fill:#1a1a1a}.fil0,.fil1{fill:#000;fill-rule:nonzero}.fil0{fill:#1a1a1a}
    </style>
  </defs>
  <g id="Layer_x0020_1">
    <g id="_1892589636656">
      <path d="M2831 193l103 190 30 61h-49l-84-156-84 156h-49l30-61 103-190zm-35 251h70l-35-65-35 65zm35-444l-239 444h51l39-72 149-277 149 277 39 72h51L2831 0zM2495 576l-29-67-29 67-6 15h14l6-15 15-35 16 35 6 15h14l-7-15zm70-67v52l-45-41-12-11v82h12v-52l45 41 12 11v-82h-12zm92 0h-18l-20 21-9 10-10 11v-42h-13v82h13v-21l17-18 24 39h16l-30-49 30-33zm22 82v-82h-12v82h12zm10-82v14h29v68h12v-68h29v-14h-70zm121 67l-29-67-29 67-7 15h14l7-15 15-35 15 35 6 15h14l-6-15zm122 0l-30-67-29 67-6 15h14l6-15 15-35 16 35 6 15h14l-6-15zm58-23c2 0 4-1 6-2 6-3 10-11 10-20 0-6-2-12-5-16s-8-6-13-6h-44v82h12v-38h13c4 0 8 3 10 7l1 1 6 15 7 15h13l-6-15-10-23zm-34-14v-16h32c2 0 3 2 4 2 1 1 2 3 2 6s-1 6-4 7h-2l-32 1zm93-30c-19 0-35 18-35 41 0 22 16 41 35 41s35-19 35-41c0-23-16-41-35-41zm0 67c-12 0-23-12-23-26 0-15 11-27 23-27s22 12 22 27c0 14-10 26-22 26zm88-23c2 0 4-1 6-2 6-3 11-11 11-20 0-6-2-12-6-16-3-4-8-6-13-6h-44v82h12v-38h13c4 0 8 3 10 7l1 1 6 15 7 15h14l-7-15-10-23zm-34-14v-16h32c2 0 4 2 4 2 1 1 2 3 2 6s-1 6-3 7h-3l-32 1zm122 37l-30-67-29 67-6 15h14l6-15 15-35 16 35 6 15h14l-6-15z" class="fil0"/>
    </g>
    <g id="_1892589636880">
      <path d="M1330 375c-3 4-3 3-6 4h-1c-16 27-32 53-52 77-1-1-2-1-3-2h-2c-10-6-22-12-35-12-7 0-11 3-14 7l-1 2c-1 2-3 7-3 8s1 1 1 2c0 0 0 1-1 1 1 1 2 3 4 3 1 0 4-1 8-1 13 0 22 3 33 6-7 6-21 15-21 18 0 5 6 4 10 8l3 1h5c10-1 17-10 24-19 8 4 19 9 25 14 2 15 8 29 21 29 6 0 16-6 16-13 0-2-2-2-4-2-10 0-13-12-13-29 0-30 11-73 23-88 1-1 1-2 1-4 0-5-7-12-13-12-2 0-4 0-5 2zm-112 75c3-4 8-6 14-6 4 0 10 1 17 4-6-1-11-2-16-2-6 0-11 1-15 4zm62 11c4-6 20-30 21-30-4 4-16 25-19 29l-2 1zm4 3l-1-1c7-8 15-19 23-32-6 11-17 26-22 33zm23-25c-1 8-4 23-4 37-4-3-11-7-15-10 6-11 14-20 20-31l-1 4zm13 49v-14c0-19 3-40 11-61-8 27-11 51-11 75zm92-27c-7 7-15 26-27 34 1-16 19-50 19-56 0-5-5-10-12-10-8 0-19 12-29 26 2-4 9-14 9-17 0-1-1-3-2-4-1 0-11 20-12 26-1 0-1 0-1-1 0-6 10-21 12-24l1-1c-3-4-8-7-12-7-1 0-2 1-3 2-15 29-19 47-19 59s5 16 9 16c1 0 2-1 2-2 10-26 33-55 36-58-1 4-13 29-13 46 0 10 6 16 12 16 17 0 38-46 38-49 0-1 0-1-1-1s-4 2-7 5zm-36 35c-1 0-2-7-2-8 0-5 6-21 6-21s-5 18-5 24c0 3 1 5 1 5zm5-20c-1 3-1 18-2 18v-7c0-4 2-12 2-12v1zm81 34c-14 0-26-17-32-39 20-2 34-21 34-31 0-8-5-13-12-13s-17 11-25 20c5-14 12-29 19-45v-2c0-6-5-15-9-15-6 0-33 62-33 98 0 10 2 17 8 19 1 3 3 4 4 4s2-1 2-3c0-3-1-8-1-12 0-5 1-11 2-17 4 18 12 50 29 50 9 0 18-11 18-11 0-2-1-3-4-3zm-54-41c2-17 9-38 18-59-8 23-14 42-18 59zm43-30c0 4-15 22-24 23 6-10 20-24 23-24l1 1zm-6 66c-3-2-11-10-11-17 0 0 7 12 9 15l3 3s-1 0-1-1zm53-44c-8 7-16 27-27 34 0-13 7-33 18-52 0-2 1-3 1-4 0-6-8-11-13-11-2 0-4 1-4 2-9 21-17 42-17 57 0 9 4 18 13 18 14 0 37-44 37-48 0-1-1-1-1-1-2 0-4 2-7 5zm-29 25c0 2 0 3-1 3v-2c0-8 9-34 12-34 0 0-10 27-11 33zm24-62c5-9 8-13 13-18v-1c0-3-10-9-14-9s-10 17-10 21 6 7 9 7h2zm-8-11c0-1 6-13 7-13 0 1-4 11-5 11 0 0-1 3-2 3v-1zm59 12c1 0 1-5 1-5 0-7-2-8-8-8-1 0-3 0-6 1-1 0-1-1-1-1v-1c1-2 1-4 1-6 0-8-4-14-9-14-2 0-6 6-13 23-7 0-12-1-13-4-1-1-1-1-2-1s-2 2-2 4c0 6 6 9 13 10-7 19-13 42-13 59 0 15 6 22 13 22 9 0 17-11 22-18 7-12 17-28 17-30 0-1-1-1-1-1-11 0-20 32-36 39-1-1-1-4-1-6 0-17 10-44 18-64h13c3 0 5 0 7 1zm-47 42c2-13 6-27 12-43h1c-6 16-10 30-13 43zm103-6c-7 7-13 25-23 34 0-11 4-25 10-37 0-1 1-1 1-2 0-5-6-9-10-11-2-12-11-17-19-17-18 0-35 32-35 58 0 6 4 20 15 20 8-1 16-8 21-14 1 6 4 12 10 14h1c1 0 3 1 4 1 2 0 4-1 6-2 9-8 28-46 28-48 0-1-1-1-1-1-2 0-5 2-8 5zm-48-21c-6 8-12 14-11 14-1 0 4-7 4-8 2-3 7-7 8-7l-1 1zm-14 13c0 1-2 5-2 5 1-9 9-17 13-22-1 0-8 13-11 17zm24 11l-1 1c0 2 2 4 3 4 0 4-21 26-24 26v-2c0-9 17-51 24-51 1 0 1 0 1 3 0 5-2 15-3 19zm13 6c-2 6-5 15-6 19 0-1 7-30 7-30 1-2 2-3 2-3v1c0 2-2 8-3 13zm173-95c-3 4-3 3-6 4-17 27-33 53-53 77-1-1-2-1-3-2h-1c-11-6-22-12-36-12-6 0-11 3-14 7v2c-2 2-3 7-3 8s1 1 1 2l-1 1c1 1 1 3 3 3s4-1 9-1c13 0 22 3 32 6-7 6-21 15-21 18 0 5 7 4 11 8l2 1h5c10-1 18-10 25-19 7 4 18 9 25 14 1 15 7 29 20 29 7 0 17-6 17-13 0-2-2-2-4-2-10 0-14-12-14-29 0-30 12-73 24-88 0-1 1-2 1-4 0-5-7-12-13-12-2 0-4 0-6 2zm-111 75c2-4 7-6 13-6 5 0 10 1 17 4-6-1-11-2-15-2-7 0-12 1-15 4zm62 11h-1c4-6 21-30 21-30-4 4-15 25-19 29l-1 1zm3 3v-1c6-8 14-19 22-32-6 11-17 26-22 33zm24-25c-2 8-4 23-4 37-5-3-11-7-16-10 7-11 14-20 20-31v4zm13 49c-1-4-1-9-1-14 0-19 4-40 11-61-7 27-10 51-10 75zm75-56c-2-2-4-3-6-3-15 0-33 37-35 46 2-13 9-28 13-38v-1c0-5-7-8-12-8-2 0-4 0-4 1-3 3-16 37-16 58 0 11 3 18 12 18 2 0 4-1 4-3 3-15 13-33 23-50v5c0 13 3 21 10 21 1 0 3-1 3-4-1-2-1-3-1-5 0-18 11-26 11-33 0-1-1-3-2-4zm-51 30c0-10 4-20 10-29-5 10-8 20-10 29zm33-11c0 6 0 11 1 15-1-2-2-5-2-8 0-2 0-5 1-7zm85 8c-7 7-10 15-16 19 4-8 6-17 6-25 0-13-7-29-23-29-14 0-25 13-25 27v3c-2-2-5-3-7-3-5 0-8 21-8 25 0 14 7 28 25 28 10 0 19-6 26-16 12-2 20-12 29-28 1-2 1-3 1-4s0-1-1-1-4 2-7 4zm-65 0c-2 4-3 11-3 17 0 5 0 9 1 11-1-3-2-8-2-13 0-8 3-17 4-17v2zm15 33c-4-2-6-6-6-12 0-3 0-5 1-8 4 7 10 13 17 16-3 2-6 4-10 4h-2zm17-12c-10-2-14-12-14-22 0-11 5-23 14-23 6 0 9 6 9 13 0 11-5 26-9 32zm7-49c6 1 11 10 11 14 0 1 0 0-1-1 0-4-5-11-10-13zm79 1c-2-2-4-3-6-3-15 0-32 37-35 46 2-13 9-28 13-38v-1c0-5-7-8-12-8-2 0-3 0-4 1-3 3-15 37-15 58 0 11 3 18 12 18 2 0 3-1 3-3 4-15 13-33 23-50v5c0 13 3 21 10 21 2 0 3-1 3-4v-5c0-18 10-26 10-33 0-1 0-3-2-4zm-51 30c0-10 4-20 11-29-5 10-9 20-11 29zm33-11c0 6 0 11 1 15-1-2-2-5-2-8 0-2 1-5 1-7zm89 10c-7 7-14 25-23 34 0-11 4-25 10-37v-2c0-5-6-9-10-11-1-12-10-17-18-17-18 0-36 32-36 58 0 6 4 20 16 20 8-1 15-8 21-14 1 6 4 12 10 14h1c1 0 3 1 4 1 2 0 4-1 6-2 9-8 28-46 28-48 0-1-1-1-2-1s-4 2-7 5zm-48-21c-6 8-12 14-11 14-1 0 4-7 4-8 2-3 7-7 8-7 0 0-1 0-1 1zm-14 13c0 1-2 5-2 5 0-9 8-17 13-22-1 0-9 13-11 17zm24 11l-1 1c0 2 2 4 3 4 0 4-21 26-24 26 0 0-1-1-1-2 0-9 18-51 25-51 1 0 1 0 1 3 0 5-2 15-3 19zm12 6c-1 6-4 15-5 19 0-1 7-30 7-30 1-2 2-3 2-3v1c0 2-2 8-4 13z" class="fil1"/>
      <path d="M1339 201c1-6 8-10 14-9 6 2 10 9 9 15-13 47-40 47-68 40-6-2-11-4-16-5-11-4-22-8-27-5-6 2-10 6-12 11-2 4-2 7-2 11 1 4 3 8 7 11 7 7 21 13 43 15h1c25 3 61-12 110-46 20-15 41-32 65-52-28-16-56-25-86-28-4 0-9 0-13-1-6 0-11-6-11-12 0-7 6-12 13-12l1 1h10c29 2 53-2 73-9 21-9 38-22 50-42 3-5 10-7 16-4 6 4 8 11 4 17-14 24-35 41-62 51-4 2-8 3-12 4 12 5 24 11 36 18 31-28 65-61 102-99 5-5 13-5 17-1 3 3 4 6 4 10v217c0 6-6 11-12 11-4 0-8-2-10-5-31-44-64-79-99-103-26 23-51 42-73 58-53 38-95 55-126 51-28-3-47-11-58-22-7-7-11-15-13-24-2-8 0-16 3-24 4-11 13-20 24-24 14-6 29-1 45 4 5 2 10 3 14 5 16 4 31 4 39-23zm549-26c-1 7-8 10-14 9-7-2-10-8-9-15 13-46 40-47 68-39 5 1 10 3 15 4 12 4 23 8 28 6 6-3 10-7 12-12 2-4 2-7 1-11 0-4-2-7-6-11-7-7-21-13-43-15h-1c-25-3-61 12-110 47-20 14-41 31-65 51 28 16 56 25 86 28 4 0 8 1 13 1 6 1 11 6 11 12-1 7-6 12-13 12h-1c-3 0-7-1-10-1-29-1-53 2-73 9-22 9-38 23-50 42-3 5-11 7-16 4-6-4-8-11-4-16 14-24 35-41 61-52 4-1 9-3 13-4-12-5-24-11-36-18-31 28-65 61-103 100-4 4-12 4-16 0-3-3-4-6-4-9V80c0-7 6-12 12-12 4 0 8 2 10 5 31 45 64 79 99 103 26-23 50-42 73-58 53-38 95-54 126-50 28 2 47 10 58 21 7 7 11 15 13 24 1 8 0 17-3 24-4 11-13 20-25 25-13 5-28 0-44-5-5-2-10-3-14-4-16-5-32-4-39 22zm-242 93c28-28 54-53 79-76-28-19-54-45-79-76v152zm-65-160c-28 28-54 54-79 76 27 20 54 45 79 77V108z" class="fil0"/>
    </g>
    <g id="_1892589638896">
      <path d="M2700 1117v120h-35V938h37l98 197 99-197h36v299h-34v-120h-53l-33 65h-29l-33-65h-53zm165-34h36v-72l-36 72zm-129 0l-36-72v72h36z" class="fil2"/>
      <path d="M2484 1397h16l-26-105h-17l-26 105h16l5-21h27l5 21zm-29-35l6-28c2-7 3-17 4-23h1c0 6 2 16 4 23l6 28h-21zm57 35h15v-40c0-10-1-26-2-36v-1c3 7 7 18 11 26l23 51h15v-105h-15v41c0 10 1 25 2 36-3-6-7-16-10-23l-24-54h-15v105zm131 0h17l-34-59 30-46h-18l-21 34-7 12v-46h-15v105h15v-35l7-11 26 46zm27 0h15v-105h-15v105zm88-105h-60v15h22v90h16v-90h22v-15zm51 105h16l-27-105h-16l-27 105h16l5-21h28l5 21zm-30-35l7-28c2-7 3-17 4-23 1 6 3 16 4 23l7 28h-22zm134 35h16l-27-105h-16l-27 105h16l5-21h28l5 21zm-30-35l7-28c1-7 3-17 4-23 1 6 3 16 4 23l7 28h-22zm103 35h17l-23-40c12-4 19-15 19-32 0-21-11-33-32-33h-27v105h15v-38h10l21 38zm-31-90h12c11 0 16 6 16 18 0 13-5 20-16 20h-12v-38zm90 92c20 0 32-13 32-35v-38c0-22-12-36-32-36s-32 14-32 36v38c0 22 12 35 32 35zm0-15c-11 0-16-7-16-20v-38c0-14 5-21 16-21s17 7 17 21v38c0 13-6 20-17 20zm96 13h17l-23-40c12-4 19-15 19-32 0-21-11-33-31-33h-28v105h16v-38h9l21 38zm-30-90h11c11 0 17 6 17 18 0 13-6 20-17 20h-11v-38zm104 90h16l-26-105h-17l-26 105h16l4-21h28l5 21zm-29-35l6-28c2-7 3-17 4-23h1c0 6 2 16 3 23l7 28h-21z" class="fil0"/>
    </g>
    <g id="_1892589638928">
      <path d="M1203 1366h20l-10-28-10 28zm-29 29l39-93h1l38 93h-19l-4-13h-31l-5 13h-19zm84 0v-93h2l47 53v-50h17v93h-1l-48-52v49h-17zm84 0v-90h18v39l25-39h22l-29 43 31 47h-22l-27-41v41h-18zm73 0v-90h19v90h-19zm52 0v-71h-24v-19h66v19h-24v71h-18zm60-29h20l-10-28-10 28zm-29 29l39-93h1l38 93h-19l-5-13h-31l-5 13h-18zm132-29h20l-10-28-10 28zm-29 29l39-93h1l38 93h-19l-5-13h-31l-4 13h-19zm99-90v49c0 8 2 14 4 18 3 4 6 6 11 6s9-2 11-5c3-4 4-9 4-16v-52h17v52c0 13-3 23-9 30s-13 11-23 11c-11 0-19-4-24-11-6-7-9-17-9-30v-52h18zm84 16h-3v25h4c4 0 8-1 10-3 3-2 4-5 4-9 0-5-1-8-4-10-2-2-6-3-11-3zm-21 74v-90h20c6 0 11 1 15 1 3 1 6 3 9 5 3 3 5 6 6 9 2 4 3 8 3 11 0 6-2 11-4 15-2 5-6 8-11 10l24 39h-21l-20-35h-3v35h-18zm83-45c0 8 2 14 6 20 4 5 8 8 14 8s11-3 14-8c4-6 6-12 6-20s-2-14-6-20c-3-5-8-8-14-8s-10 3-14 8c-4 6-6 12-6 20zm-19 0c0-7 1-13 3-19 2-5 5-11 9-15 3-5 7-8 12-10 5-3 10-4 15-4s10 1 15 4c5 2 9 5 13 10 3 4 6 9 8 15s3 12 3 19c0 6-1 11-2 16s-3 9-6 14c-4 5-8 10-14 13-5 3-11 5-17 5-5 0-10-1-15-4-4-2-9-5-12-10-4-4-7-10-9-15-2-6-3-12-3-19zm111-29h-3v25h4c5 0 8-1 11-3 2-2 3-5 3-9 0-5-1-8-3-10s-6-3-12-3zm-20 74v-90h19c7 0 11 1 15 1 3 1 6 3 9 5 3 3 5 6 7 9 1 4 2 8 2 11 0 6-1 11-4 15-2 5-6 8-10 10l23 39h-21l-20-35h-3v35h-17zm85-29h20l-10-28-10 28zm-29 29l39-93h2l38 93h-19l-5-13h-31l-5 13h-19z" class="fil0"/>
      <path d="M1588 1238l8-79h-33l-25 79h-62l137-255 137 255h-61l-25-79h-33l8 79h-51zm-147 23h345l-173-322-4 9-164 304-4 9zm177-245l10 110h25l-35-110zm-19 110l10-110-35 110h25z" class="fil2"/>
    </g>
    <g id="_1892589641104">
      <path d="M362 244h-48l-68 137c-3 5-8 8-14 8h-49c-5 0-10-2-13-7-3-4-3-9-1-14L315 75c4-7 13-10 20-6h2c7 4 9 13 6 20L208 358h14L363 76c3-7 10-10 17-9h1v1c7 1 12 7 12 14v292c0 9-7 15-16 15s-15-6-15-15V244zm76 0h48l69 137c2 5 8 8 14 8h48c5 0 10-2 13-7 3-4 3-9 1-14L485 75c-4-7-12-10-20-7l-1 1c-8 4-10 13-6 20l134 269h-14L437 76c-3-7-10-10-17-9h-1c-7 2-12 8-12 15v292c0 9 7 15 16 15s15-6 15-15V244zm0-31v-65l33 65h-33zm-76 0v-65l-32 65h32z" class="fil3"/>
      <path d="M38 482h10v-19l-10 19zm11-36h3l1 1c1 1 1 1 1 2v72s0 1-1 2c-1 0-1 1-2 1s-2-1-2-1c-1-1-1-2-1-2v-33H35l-17 34c0 1-1 1-1 1-1 1-1 1-2 1H3s-1 0-1-1c-1 0-1 0-2-1v-1-2c12-24 25-47 36-71 0-1 1-2 2-2h3c0 1 1 1 1 2v3L8 517h5l35-69c0-1 1-1 1-2zm72 1c1-1 1-1 2-1s2 0 3 1c0 0 1 1 1 2v72l-1 1v1c-1 0-1 0-2 1h-1s-1 0-1-1c-1 0-1 0-2-1l-35-72c-1 0-1-1-1-2h1c0-1 0-1 1-2h3l1 1 1 1 29 59v-58c0-1 0-2 1-2zm-44-1c1 0 1 1 2 2l35 71c1 1 1 2 1 3h-1s0 1-1 1c0 0 0 1-1 1h-1l-1-1c-1 0-1 0-1-1l-30-59v58s0 1-1 2c-1 0-1 1-2 1s-2-1-2-1h-1v-74-2c1 0 1-1 2-1h2zm122 5l-17 34 17 34v3l-1 1c-1 0-1 1-1 1h-1c-1 0-1 0-2-1l-1-1-24-48v-1-2c4-8 8-16 12-23 0-1 1-1 2-2h2c1 1 2 1 2 2v2l-11 23 2 5 15-30c0-1 1-2 2-2h2c1 1 2 1 2 2v3zm-41-4c1-1 1-1 2-1s2 0 2 1c1 0 1 1 1 2v72s0 1-1 2c0 0-1 1-2 1h-12c-1 0-1-1-2-1-1-1-1-2-1-2v-72c0-1 0-2 1-2 1-1 1-1 2-1s2 0 2 1h1s1 1 1 2v68h5v-68c0-1 0-2 1-2zm77 76c-1 0-1 1-2 1h-12c-1 0-2-1-2-1-1-1-1-2-1-2v-72c0-1 0-2 1-2 0-1 1-1 2-1s1 0 2 1c1 0 1 1 1 2v68h6v-68-2c1-1 2-1 3-1s1 0 2 1c1 0 1 1 1 2v72s0 1-1 2zm38-2v-69h-15c-1 0-1 0-2-1-1 0-1-1-1-2s0-2 1-2c1-1 1-1 2-1h18c1 0 2 0 2 1 1 0 1 1 1 2v68h6v-68c0-1 0-2 1-2 0-1 1-1 2-1h18c1 0 1 0 2 1 1 0 1 1 1 2s0 2-1 2c0 1-1 1-2 1h-15v71h-1s-1 1-2 1h-12c-1 0-2-1-2-1-1-1-1-2-1-2zm221-39h10v-19l-10 19zm11-36h3l1 1c1 1 1 1 1 2v72s0 1-1 2c-1 0-1 1-2 1s-2-1-3-1v-35h-13l-17 34c0 1-1 1-1 1-1 1-1 1-2 1h-12s-1 0-1-1c-1 0-1 0-2-1v-1-2c12-23 25-47 36-71 0-1 1-2 2-2h2c1 1 2 1 2 2v3l-34 66h5l35-69c0-1 1-1 1-2zm29 77c-1 0-1 1-2 1s-2-1-3-1c0-1-1-2-1-2v-72c0-1 1-2 1-2 1-1 2-1 3-1h37c0 1 1 1 1 1v1c1 0 1 1 1 1 0 1 0 1-1 1l-17 35 16 32h5l-15-31c-1 0-1-1-1-1 0-1 0-1 1-2l17-35 2-2h3c1 1 1 1 1 2 1 1 1 2 0 3l-17 34 17 34c0 1 1 1 1 2 0 0-1 0-1 1s0 1-1 1c-1 1-1 1-2 1h-12s-1 0-1-1c-1 0-1 0-1-1l-18-36c-1 0-1-1-1-1 0-1 0-1 1-1v-1l15-31h-27v69s0 1-1 2zm80-26l8 16 20-40-8-17-20 41zm22 26c-1 1-1 1-2 1h-1s0-1-1-1l-1-1v-3l17-34-2-5-21 42-1 1c-1 1-1 1-2 1 0 0-1 0-1-1h-1s-1 0-1-1l-18-36v-1-2c1-1 16-31 18-35 1-1 1-2 2-2h3c0 1 1 1 1 2v2c-5 11-12 24-17 35l2 5 21-42c1-1 2-2 3-2h2c0 1 1 1 1 2l18 35v3l-18 36c0 1-1 1-1 1zm43 0s-1 1-2 1-2-1-3-1v-74c0-1 0-2 1-2 0-1 1-1 2-1h37l1 1v1c1 0 1 1 1 1 0 1 0 1-1 1l-17 35 16 32h5l-15-31c-1 0-1-1-1-1 0-1 0-1 1-2l17-35 2-2h3c1 1 1 1 1 2 1 1 1 2 0 2l-17 35 17 34c0 1 1 1 1 2l-1 1c0 1-1 1-1 1-1 1-1 1-2 1h-11c-1 0-1 0-2-1-1 0-1 0-1-1l-18-36c-1 0-1-1-1-1 0-1 0-1 1-1v-1l15-31h-27v69s0 1-1 2zm105-41h10v-19l-10 19zm12-36h2s1 0 1 1h1v74s0 1-1 2c0 0-1 1-2 1s-2-1-2-1c-1-1-1-2-1-2v-33h-13l-17 34c0 1-1 1-1 1-1 1-1 1-2 1h-12s-1 0-1-1c-1 0-1 0-1-1-1 0-1-1-1-1v-2c12-24 25-47 36-71 1-1 1-2 2-2h3c0 1 1 1 1 2v3l-33 66h4l35-69c0-1 1-1 2-2zM366 482h9v-19l-9 19zm11-36h2c1 0 2 1 2 1 0 1 1 1 1 2v72s-1 1-1 2c-1 0-2 1-3 1 0 0-1-1-2-1-1-1-1-2-1-2v-33h-12l-17 34c-1 1-2 2-3 2h-12c-1 0-1 0-2-1 0 0-1 0-1-1v-1-2c12-23 24-47 36-71 0-1 0-2 1-2h3l2 2c0 1 0 2-1 3l-33 66h5l35-69c0-1 0-1 1-2z" class="fil1"/>
    </g>
    <g id="_1892589642640">
      <path d="M28 1362h12c1 0 1-1 1-1v-1l-5-14c-1-1-1-1-2-1s-1 1-1 2l5 12H28s-1 1-1 2l1 1zm-8 22l3-6h23l3 6c0 1 1 1 1 1 1 0 1-1 1-1l-3-8-1-1H22c-1 0-1 1-1 1l-3 8c-1 0 0 1 0 1 1 0 2 0 2-1zm-17 0l31-77 32 77c0 1 1 1 2 1 0 0 1-1 0-1l-32-81c-1-1-2-1-3 0l-33 81s0 1 1 1 1 0 2-1zm144 1v-80c0-1-2-1-2 0v80c0 2 2 2 2 0zm-65 0v-80c0-1-2-1-2 0v80c0 2 2 2 2 0zm12-79l35 50c1 1 2 0 2-1v-50c0-1-2-1-2 0v46l-33-46c-1-2-3 0-2 1zm39 78l-35-49c-1-1-2-1-2 0v50c0 2 2 2 2 0v-45l32 46c2 1 4 0 3-2zm35 1v-80l-1-1c-1 0-2 1-2 1v80c0 1 1 1 2 1 0 0 1 0 1-1zm32-81l-16 22v-21l-1-1c-1 0-2 1-2 1v25s0 1 1 1h2l18-25v-2h-2zm4 80l-20-28h-2l-1 1v28c0 1 1 1 2 1 0 0 1 0 1-1v-24l18 25s1 1 1 0c1 0 1-1 1-2zm15-80l-27 39c-1 0-1 1 0 1l29 42s1 1 2 0c0 0 1-1 0-2l-29-41 27-37c1-1 1-1 0-2h-2zm34 81v-80c0-1-1-1-2-1 0 0-1 0-1 1v80c0 1 1 1 1 1 1 0 2 0 2-1zm-16 0v-80c0-1-1-1-2-1 0 0-1 0-1 1v80c0 1 1 1 1 1 1 0 2 0 2-1zm84-65h-20c-1 0-1 1-1 1v64c0 1 0 1 1 1s1 0 1-1v-62h19c1 0 1-1 1-2 0 0 0-1-1-1zm-56-13h56c1 0 1-1 1-2 0 0 0-1-1-1h-56c-1 0-1 1-1 1 0 1 0 2 1 2zm0 16h19v62c0 1 0 1 1 1s1 0 1-1v-64s0-1-1-1h-20c-1 0-1 1-1 1 0 1 0 2 1 2zm83 39h12c1 0 1-1 1-1v-1l-5-14c-1-1-1-1-2-1s-1 1-1 2l5 12h-10s-1 1-1 2l1 1zm-8 22l3-6h23l3 6c0 1 1 1 1 1 1 0 1-1 1-1l-3-8-1-1h-25c-1 0-1 1-1 1l-3 8c-1 0 0 1 0 1 1 0 2 0 2-1zm-17 0l31-77 32 77c0 1 1 1 2 1 0 0 1-1 0-1l-32-81c-1-1-2-1-3 0l-33 81s0 1 1 1 1 0 2-1zm129-22h12c1 0 2-1 2-1 0-1 0-1-1-1l-5-14c-1-1-1-1-2-1s-1 1-1 2l5 12h-10s-1 1-1 2l1 1zm-8 22l3-6h23l3 6c0 1 1 1 1 1 1 0 1-1 1-1l-3-8-1-1h-25c-1 0-1 1-1 1l-3 8c-1 0 0 1 1 1 0 0 1 0 1-1zm-17 0l31-77 32 77c0 1 1 1 2 1 0 0 1-1 0-1l-32-81c-1-1-2-1-3 0l-33 81s0 1 1 1 2 0 2-1zm108-46c5 0 10-3 10-9 0-5-5-9-10-9h-14c-2 0-2 3 0 3h14c4 0 7 2 7 6s-3 7-7 7h-4c-1 0-2 1-2 1 0 1 1 1 2 1h4zm8 46l-21-27c-1-1-1-1-2-1v29c0 1 0 2 1 2s1-1 1-2v-24l19 25c0 1 1 1 1 0 1 0 1-1 1-2zm-37 1v-78h30c13 0 23 10 23 22 0 13-10 23-23 23 0 0-1 0-1 1v1l25 32c1 1 1 1 2 0 1 0 1-1 0-2l-23-30c13-1 22-12 22-25 0-14-11-25-25-25h-31c-1 0-1 1-1 1v80c0 1 0 2 1 2s1-1 1-2zm148-53c-5-18-22-30-41-30-25 0-43 18-43 43s18 43 43 43c19 0 36-12 41-30 1-1 0-2 0-2-1 0-2 0-2 1-6 17-21 28-39 28-24 0-40-17-40-40s16-40 40-40c18 0 33 11 39 28 0 1 1 1 2 1 0 0 1-1 0-2zm-63 26c4 8 13 13 22 13 14 0 26-12 26-26s-12-26-26-26c-9 0-18 5-22 13-1 1 0 1 0 2 1 0 2 0 2-1 4-7 12-12 20-12 13 0 23 11 23 24s-10 24-23 24c-8 0-16-5-20-12 0-1-1-1-2-1 0 1-1 2 0 2zm110-20c5 0 9-3 9-9 0-5-4-9-9-9h-14c-2 0-2 3 0 3h14c4 0 7 2 7 6s-3 7-7 7h-5l-1 1c0 1 1 1 1 1h5zm8 46l-21-27c-1-1-1-1-2-1 0 1-1 1-1 1v28c0 1 1 2 2 2 0 0 1-1 1-2v-24l18 25c1 1 2 1 2 0 1 0 1-1 1-2zm-37 1v-78h30c13 0 23 10 23 22 0 13-10 23-23 23-1 0-1 0-1 1v1l25 32c0 1 1 1 2 0v-2l-23-30c13-1 22-12 22-25 0-14-11-25-25-25h-31c-1 0-1 1-1 1v80c0 1 0 2 1 2s1-1 1-2zm88-23h12c1 0 1-1 1-1v-1l-6-14c0-1-1-1-2-1v2l5 12h-10c-1 0-1 1-1 2 0 0 0 1 1 1zm-8 22l2-6h24l2 6c1 1 1 1 2 1s1-1 1-1l-3-8s-1-1-2-1h-24c-1 0-2 1-2 1l-3 8s0 1 1 1 1 0 2-1zm-18 0l32-77 32 77c0 1 1 1 1 1 1 0 1-1 1-1l-33-81c0-1-2-1-2 0l-33 81s0 1 1 1c0 0 1 0 1-1zM0 1396h800v2H0zM0 1292h800v2H0z" class="fil1"/>
      <path d="M308 1156h43c3 0 5-2 5-4 0-1 0-2-1-2l-21-52c-1-3-4-4-6-3s-4 3-3 6l19 46h-36c-2 0-5 2-5 5 0 2 3 4 5 4zm141 0h43c3 0 5-2 5-4 0-1 0-2-1-2l-21-52c-1-3-3-4-6-3-2 1-4 3-3 6l19 46h-36c-2 0-5 2-5 5 0 2 3 4 5 4zm-30 82l9-23h85l9 23c2 3 4 4 6 3 3-1 4-4 3-6l-11-26c0-2-2-3-4-3h-91c-2 0-3 1-4 3l-11 26c-1 2 0 5 3 6 2 1 5 0 6-3zm-2-150l54-131 115 281c1 3 3 4 6 3 2-1 3-4 2-6L475 943c-1-4-7-5-9 0l-55 136c-4 9-8 16-3 19s6-4 9-10zm-139 150l9-23h85l9 23c2 3 4 4 6 3 3-1 4-4 3-6l-11-26c0-2-2-3-4-3h-90c-2 0-4 1-5 3l-11 26c-1 2 0 5 3 6 2 1 5 0 6-3zm-63 0l115-281 96 234c1 4 2 6 6 5 5-1 4-3 3-6L334 943c-1-4-7-5-9 0l-119 292c-1 2 0 5 3 6 2 1 5 0 6-3z" class="fil0"/>
    </g>
    <g id="_1892589642384">
      <path d="M339 2030c-1 3-4 4-7 3s-5-4-3-7l71-174c1-5 8-5 10 0l71 174c1 3 0 6-3 7s-6 0-7-3l-66-162-66 162zm70-58l-9-24c-1-3 0-6 3-7 3-2 6 0 7 3l13 31v2c0 3-2 6-5 6h-26c-3 0-6-3-6-6s3-5 6-5h17zm14 134l-13 31c-1 3-4 4-7 3s-4-5-3-8l9-23h-17c-3 0-6-3-6-6s3-5 6-5h26c3 0 5 2 5 5v3zm-47-55l6 12h46l5-13c1-2 4-4 7-3s5 5 4 8l-7 15c-1 2-3 4-5 4h-54c-2 0-5-1-5-4l-7-15c-1-3 0-7 4-8 3-1 6 1 6 4zm-37 0l66 161 66-161c1-3 4-5 7-4s4 5 3 8l-71 174c-2 5-9 5-10 0l-71-174c-2-3 0-7 3-8s6 1 7 4zm37-21c0 3-3 4-6 3-4-1-5-4-4-7l7-16c0-2 3-3 5-3h54c2 0 4 1 5 3l7 16c1 3-1 6-4 7s-6 0-7-3l-5-12h-46l-6 12z" class="fil3"/>
      <path d="M22 2054h10s1 0 1-1l-5-12s-1-1-1 0c-1 0-1 0-1 1l4 10h-8l-1 1c0 1 1 1 1 1zm-6 18l2-5h18l2 5c0 1 1 1 2 1v-2l-2-6H17h-1l-2 6v2c1 0 1 0 2-1zm-14 0l25-61 25 61c0 1 1 1 1 1 1-1 1-1 1-2l-26-63c0-1-2-1-2 0l-26 63c0 1 0 1 1 2 0 0 1 0 1-1zm114 1v-64c0-1-2-1-2 0v64c0 1 2 1 2 0zm-51 0v-64c0-1-2-1-2 0v64c0 1 2 1 2 0zm9-63l28 39c0 1 2 1 2 0v-40c0-1-2-1-2 0v36l-26-36c-1-1-2 0-2 1zm31 62l-28-39c0-1-2-1-2 0v40c0 1 3 1 3 0v-37l25 37c1 1 3 0 2-1zm28 1v-64l-1-1c-1 0-1 1-1 1v64s0 1 1 1l1-1zm25-64l-13 17v-17s0-1-1-1l-1 1v20l1 1s1 0 1-1l15-19c0-1 0-1-1-1 0-1-1-1-1 0zm3 63l-16-22c0-1-1-1-1 0h-1v23l1 1c1 0 1-1 1-1v-19l14 19c1 1 1 1 2 0v-1zm12-63l-22 30v1l24 33c0 1 1 1 1 0 1 0 1-1 0-1l-23-32 22-30v-1c-1-1-1-1-2 0zm27 64v-64l-1-1c-1 0-1 1-1 1v64s0 1 1 1l1-1zm-13 0v-64l-1-1c-1 0-1 1-1 1v64s0 1 1 1l1-1zm67-52h-16c-1 0-1 0-1 1v51s0 1 1 1l1-1v-50h15s1 0 1-1-1-1-1-1zm-45-11h45s1 0 1-1l-1-1h-45v2zm0 13h15v50l1 1c1 0 1-1 1-1v-51c0-1 0-1-1-1h-16v2zm66 31h10s1 0 1-1l-5-12s-1-1-1 0c-1 0-1 0-1 1l4 10h-8l-1 1c0 1 1 1 1 1zm-6 18l2-5h18l2 5c1 1 1 1 2 1v-2l-2-6h-21-1l-2 6v2c1 0 2 0 2-1zm-14 0l25-61 25 61c0 1 1 1 1 1 1-1 1-1 1-2l-26-63c0-1-2-1-2 0l-26 63c0 1 0 1 1 2 0 0 1 0 1-1zM525 2054h10l1-1v-1l-5-11c0-1-1-1-1-1-1 0-1 1-1 1l4 11h-8s-1 0-1 1l1 1zm-6 17l2-5h18l2 5c1 1 1 1 2 1v-1l-2-6-1-1h-20s-1 0-1 1l-2 6v1c1 0 2 0 2-1zm-14 0l25-61 25 61c0 1 1 1 1 1 1 0 1-1 1-1l-26-64c0-1-2-1-2 0l-26 64s0 1 1 1c0 0 1 0 1-1zm86-36c4 0 7-3 7-7s-3-8-7-8h-12c-1 0-1 2 0 2h12c3 0 5 3 5 6s-2 5-5 5h-4c-1 0-1 1-1 1 0 1 0 1 1 1h4zm6 36l-17-22h-1l-1 1v22c0 1 1 1 1 1 1 0 1 0 1-1v-19l15 20h2v-2zm-29 1v-62h24c10 0 17 8 17 18s-7 18-17 18c-1 0-1 0-1 1l19 26h2v-2l-18-23c10-1 17-10 17-20 0-11-8-20-19-20h-25c-1 0-1 0-1 1v63c0 1 0 1 1 1 0 0 1 0 1-1zm117-42c-4-14-18-24-33-24-20 0-33 15-33 34 0 20 13 34 33 34 15 0 29-9 33-24 0 0 0-1-1-1 0 0-1 0-1 1-4 13-17 22-31 22-18 0-31-13-31-32 0-18 13-31 31-31 14 0 27 8 31 22 0 0 1 1 1 0 1 0 1 0 1-1zm-50 21c3 6 10 10 17 10 12 0 21-9 21-21 0-11-9-20-21-20-7 0-14 4-17 10-1 0 0 1 0 1 0 1 1 0 1 0 4-6 10-9 16-9 11 0 19 8 19 18s-8 19-19 19c-6 0-12-4-16-9 0-1-1-1-1-1s-1 1 0 2zm87-16c4 0 7-3 7-7s-3-8-7-8h-11c-2 0-2 2 0 2h11c3 0 5 3 5 6s-2 5-5 5h-4l-1 1c0 1 1 1 1 1h4zm6 36l-17-22h-1v23c0 1 0 1 1 1 0 0 1 0 1-1v-19l14 20h2v-2zm-29 1v-62h24c10 0 17 8 17 18s-7 18-17 18c-1 0-1 0-1 1l20 26h1c0-1 1-1 0-2l-18-23c10-1 18-10 18-20 0-11-9-20-20-20h-25c-1 0-1 0-1 1v63c0 1 0 1 1 1s1 0 1-1zm70-18h9l1-1v-1l-5-11c0-1-1-1-1-1-1 0-1 1-1 1l4 11h-7c-1 0-1 0-1 1 0 0 0 1 1 1zm-7 17l2-5h18l2 5c1 1 1 1 2 1 0 0 1-1 0-1l-2-6s0-1-1-1h-20l-1 1-2 6s0 1 1 1c0 0 1 0 1-1zm-14 0l25-61 25 61c0 1 1 1 2 1v-1l-26-64c0-1-1-1-2 0l-26 64s0 1 1 1c0 0 1 0 1-1z" class="fil1"/>
    </g>
    <g id="_1892589644880">
      <path d="M2473 2165h-15l-17 47h38l-14-37-9 27h4l5-15 8 21h-26l14-38h9l24 66h-6l-7-18h-42l-8 23h15l5-13h-5l-3 8h-6l5-14h36l7 19h15l-27-76zm85 50l-29-50h-5l38 65v-60h6v66h-9l-42-71h-4v76h15v-37l-5-7v39h-6v-62l39 67h17v-76h-15v50zm61-14l31-36h-19l-28 33v38h-6v-66h6v19l5-5v-19h-15v76h15v-41l25-30h8l-27 31 30 35h-8l-22-25v6l20 24h19l-34-40zm63-21v-15h-15v5h10v5h-10v66h15v-56h-5v51h-6v-56h11zm45-15v71h-7v-71h-23v15h13v-5h-9v-5h15v71h15v-71h15v5h-9v5h14v-15h-24zm68 0h-15l-17 47h38l-13-37-10 27h4l6-15 7 21h-26l14-38h9l24 66h-6l-7-18h-42l-8 23h15l5-13h-4l-4 8h-6l5-14h36l7 19h15l-27-76zm115 0h-15l-17 47h38l-14-37-10 27h5l5-15 8 21h-26l14-38h9l24 66h-6l-7-18h-42l-8 23h15l5-13h-5l-3 8h-6l5-14h36l7 19h15l-27-76zm65 0h-25v76h14v-34l25 34h18l-27-37c7-1 12-7 12-15s-6-14-16-14h-16v19h4v-14h12c7 0 12 3 12 9s-3 11-12 11h-4l27 36h-8l-27-36h-4v36h-6v-66h21c14 0 23 7 23 19 0 8-3 14-9 17l2 4c7-4 11-12 11-21 0-13-9-24-27-24zm83 0v5c14 4 20 18 20 33 0 17-9 34-29 34s-28-17-28-34 8-33 26-34v10c1-1 2-1 2-1 14 0 19 14 19 25 0 10-5 24-19 24-13 0-18-14-18-24 0-8 3-18 10-22v-5c-10 4-14 16-14 27 0 14 7 29 22 29 16 0 23-15 23-29 0-13-7-27-21-29v-10h-2c-21 0-33 18-33 39s12 39 33 39 33-18 33-39c0-18-8-34-24-38zm67 0h-26v76h14v-34l25 34h18l-27-37c7-1 12-7 12-15s-6-14-16-14h-16v19h4v-14h12c7 0 12 3 12 9s-3 11-12 11h-4l27 36h-8l-27-36h-4v36h-6v-66h22c13 0 22 7 22 19 0 8-3 14-9 17l2 4c8-4 11-12 11-21 0-13-9-24-26-24zm79 0h-15l-17 47h38l-14-37-10 27h5l5-15 8 21h-26l14-38h9l24 66h-6l-7-18h-42l-8 23h15l5-13h-5l-3 8h-6l5-14h36l7 19h15l-27-76zM2951 1839h-52l-61 165h135l-48-131-35 96h16l19-52 26 72h-91l49-135h31l87 237h-23l-24-66h-149l-6 15h144l24 66h55z" class="fil1"/>
      <path d="M2711 1839h52l60 165h-134l48-131 35 96h-16l-19-52-26 72h91l-49-135h-32l-86 237h23l24-66h149l5 15h-144l-24 66h-55z" class="fil1"/>
    </g>
    <g id="_1892589646032">
      <path d="M1267 2246h2v-36h-2v36zm-5 0h3v-36h-3v36zm-4 0h2v-36h-2v36zm-4 0h2v-36h-2v36zm-20-41v3h35v-2h-18c-8 0-14 0-17-1zm35-2v-2h-35v2h35zm0-4v-2h-35v2h35zm0-5v-2h-35v2h35zm-23-21h-4c-3 0-6 1-8 5v12h17v-5-7c-1-2-3-4-5-5zm0-5h-4c-2 0-5 1-7 3-3 1-4 4-5 6l-1 2v67h2v-33-34c1-2 2-5 4-6 2-2 5-3 7-3s3 0 4 1c4 1 6 4 7 8 1 1 1 3 1 6v5h2v-5-6c-1-2-2-5-4-7s-4-3-6-4zm-21 78h2v-33-32c0-3 1-5 2-7s3-4 5-6c2-1 5-2 8-2 4 0 7 1 9 3 2 1 4 3 5 5s1 3 2 4v12h1c1 0 1 0 1-1v-1-11c-1-3-3-5-5-8-2-2-5-4-8-5h-5c-4 0-8 1-11 4-3 2-5 6-6 9v69zm-5 0h2v-33c0-22 0-34 1-36 1-4 3-8 7-11 3-3 8-5 12-5 9 0 15 4 18 12 2 2 2 6 2 11l1 6h2v-5c0-5-1-9-2-12s-3-6-6-8c-3-3-6-4-9-5-2-1-4-1-6-1s-3 0-5 1c-4 1-8 3-11 6s-4 7-5 11c-1 1-1 13-1 35v34zm-4 0h2v-34-34l1-2c1-4 2-8 5-11s6-5 9-6 6-2 9-2 5 0 6 1c8 2 13 6 17 13 1 2 1 4 1 5 1 2 1 4 1 8v6h2v-6c0-4 0-7-1-9-1-5-3-9-7-13-4-3-8-6-13-7h-11c-5 1-9 3-12 6-4 4-6 7-8 12-1 2-1 4-1 6v67zm18 1c-1 1-2 1-2 1h-18c-1-1-1-12-1-34s0-33 1-35c0-7 3-13 7-18 5-4 10-7 17-8 1 0 3-1 4-1 5 0 10 1 14 4 8 4 13 10 15 19v52c0 5 1 9 1 10 0 7-1 10-1 11h-18s-1 0-2-1v-37h-17v37zm65-2h2v-32c0-21 0-33 1-34 0-2 1-5 3-6 2-2 5-3 7-3h2c2 0 4 1 6 3s3 3 3 6c1 0 1 12 1 33v33h2v-33c0-22-1-34-1-35-1-4-4-7-9-9h-7c-1 1-3 1-4 3-2 1-3 2-4 3-1 2-1 4-1 7-1 3-1 13-1 31v33zm29 0h2v-68l-1-1c-1-4-3-7-6-9s-7-4-11-4c-3 0-7 2-10 4s-5 5-6 9c-1 1-1 13-1 35v34h2v-34c0-22 0-34 1-35 1-3 3-6 6-8 2-2 5-3 8-3 2 0 3 1 4 1 2 0 5 2 7 4s4 4 4 7c1 1 1 13 1 35v33zm4 0h3c0-8 0-19-1-34v-35c-3-9-8-14-16-16-2-1-4-1-6-1h-4c-4 1-9 4-12 7-3 4-5 8-5 13 0 3-1 10-1 22 0 10 0 19 1 26v18h2v-34-32c0-2 1-5 2-7 3-5 7-9 13-10 1-1 2-1 4-1s4 0 5 1c4 1 8 3 10 6 3 3 5 6 5 10v67zm5 0h2v-69l-1-2c-1-4-4-8-7-12-4-3-8-6-12-7h-11c-6 1-10 3-14 7s-6 9-7 15c-1 1-1 13-1 35v33h2v-34-34l1-2c1-5 4-10 9-13 4-4 9-5 14-5 3 0 6 0 8 1 4 1 7 3 10 6s5 7 6 11l1 2v68zm-40-88c4-3 10-5 15-5s9 1 13 3c5 3 8 6 11 10 3 3 4 8 5 13v69h-14c-3 0-5 0-6-1v-68l-1-1c-1-3-4-5-8-5-3 0-6 2-7 5l-1 2v33c0 23 0 34-1 35h-19v-35-36c2-8 6-14 13-19zm96 88h2v-14-13c0-2 0-4-1-5-1-2-2-3-4-5-1-1-3-2-5-2-1 0-3-1-6-1h-6v3h13c1 1 2 1 4 3 1 1 2 3 3 5v29zm-7-43c0-1-3-1-7-1h-4c-1 0-2 0-2 1v1h7c4 0 6 1 7 1 5 2 8 5 10 10v16l1 15h2v-18c0-7-1-11-1-13-1-3-2-5-4-8-3-2-5-4-9-4zm16 43h2v-15-14c0-2-1-4-2-6-1-3-3-6-6-8-3-3-6-4-10-5h-13v2h13c1 1 3 1 5 2 4 2 7 5 9 9 1 2 1 4 2 5v30zm5 0h1v-16-17c-2-5-5-10-9-13-4-4-9-6-14-6-2-1-5-1-8-1h-4v2l6 1h8c5 1 9 3 12 6 3 4 6 8 7 13v16l1 15zm-6-48c0 1 1 1 1 1s1 0 2-2c1-1 1-2 2-3 0-1 1-4 2-7v-31h-2v30c0 2-1 4-2 6 0 1-1 2-2 4l-1 2zm-4-3c1 1 2 1 2 2 2-2 3-4 4-7 0-2 1-6 1-11v-23h-2v25c0 3 0 5-1 6 0 3-2 5-3 7l-1 1zm-4-2l1 1h1l1-1c1-1 1-2 2-3 1-2 2-5 2-7 0-5 0-10-1-15v-12h-1-1v30c0 2-1 4-3 6l-1 1zm2-34v-3h-1-1v30c-1 2-2 3-4 5l-1 1h2s1 0 2-1 2-2 2-3c1-1 1-3 1-4v-11-14zm-26 87h2v-90h-2v90zm-4 0h2v-90h-2v30c0 9-1 15-1 21 0 1 0 3 1 6v33zm-5 0h2v-90h-2v90zm-4 0h2v-90h-2v90zm-2-92h19v37h12c1-1 2-1 3-3 2-1 2-2 3-4v-15-15h19v15c0 12 0 19-1 21v2c0 2-2 4-4 7l-1 2 1 2c2 3 4 6 5 10 1 2 1 9 1 21 0 9 0 14-1 14h-19v-15c0-11 0-16-1-16 0-1 0-2-1-3s-2-2-3-2c-1-1-4-1-7-1h-6v37h-19v-47-47zm72 90v2h52v-1-1h-52zm0-4v2h52v-1-1h-52zm0-4v2h52v-1-1h-52zm52-3v-2h-52v2h52zm-18-59h-2-1v55h2v-17c0-15 0-24 1-27v-4-3-2-2zm-7 55h2v-55h-2v55zm-2 0v-55h-2v55h2zm-7 0h2v-55h-2v55zm34-58v-1-1h-45c-5 0-8 0-8 1 0 0 0 1 1 1h52zm0-4v-2h-45c-5 0-8 0-8 1v1h53zm0-5v-1h-2-3c-3 0-6-1-9-1h-22c-4 0-7 1-10 1h-6-1v1h53zm0-4v-2h-52l-1 1c0 1 2 1 6 1h47zm-54-4h56v19s-3 1-9 1h-9v55h18v19h-56c-1 0-1-5-1-12 0-4 0-7 1-7h18v-55h-9c-6 0-9-1-9-1-1 0-1-3-1-9 0-7 0-10 1-10zm104 93h2v-74h-2v74zm-2-73l-1-1c-1 0-1 0-1 1v73h2v-22-36-6-4-2-3zm-7 73h2v-74h-2v74zm-4 0h2v-74h-2v74zm34-76v-2h-53v2h53zm0-4v-2h-53v2h53zm0-5v-2h-53v2h53zm0-5v-1h-53v2h53v-1zm-56 6c0-6 1-9 1-9s10-1 28-1c19 0 29 1 29 1v19h-18v38c0 24-1 37-1 38h-19c-1-1-1-13-1-38v-38h-18s-1-3-1-10zm125 84h2v-36h-2v36zm-5 0h2v-36h-2v36zm-4 0h2v-36h-2v36zm-5 0h3v-36h-3v36zm-20-41v3h36v-2h-18c-8 0-14 0-18-1zm36-2v-2h-36v2h36zm0-4v-2h-36v2h36zm0-5v-2h-36v2h36zm-23-21h-4c-4 0-6 1-8 5 0 1-1 3-1 7v5h18v-5c0-3 0-6-1-7 0-2-2-4-4-5zm-1-5h-3c-3 0-5 1-7 3-3 1-5 4-6 6v69h2v-33-34c1-2 2-5 4-6 2-2 5-3 7-3 1 0 3 0 4 1 4 1 6 4 7 8v11h2l1-5c0-2-1-4-1-6s-1-5-3-7-4-3-7-4zm-21 78h3v-33-32c0-3 0-5 1-7 2-2 3-4 5-6 3-1 6-2 9-2s6 1 9 3c2 1 4 3 5 5s1 3 1 4 1 3 1 6v6h1c1 0 1 0 1-1v-1c0-4 0-8-1-11 0-3-2-5-4-8-2-2-5-4-8-5h-5c-4 0-8 1-11 4-3 2-5 6-6 9 0 1-1 11-1 29v40zm-4 0h2v-33-36c1-4 4-8 7-11 4-3 8-5 13-5 9 0 15 4 18 12 1 2 2 6 2 11v6h2v-5c0-5 0-9-1-12-2-3-4-6-6-8-3-3-6-4-10-5-1-1-3-1-5-1s-4 0-5 1c-4 1-8 3-11 6s-5 7-6 11v69zm-5 0h3v-34-36c1-4 3-8 6-11 2-3 5-5 9-6 2-1 6-2 9-2s5 0 6 1c8 2 13 6 16 13 1 2 2 4 2 5 0 2 1 4 1 8v6h2v-6c0-4 0-7-1-9-1-5-4-9-7-13-4-3-9-6-14-7h-10c-5 1-9 3-13 6-3 4-6 7-7 12-1 2-1 4-1 6-1 3-1 9-1 20v47zm18 1c0 1-1 1-2 1h-17c-1-1-1-12-1-34v-35c1-7 4-13 8-18 5-4 10-7 16-8 2 0 3-1 5-1 5 0 9 1 13 4 8 4 13 10 15 19 1 2 1 14 1 37v36h-18c-1 0-1 0-2-1v-37h-18v37zM1720 2246h2v-36h-2v36zm-5 0h2v-36h-2v36zm-5 0h3v-36h-3v36zm-4 0h2v-36h-2v36zm-20-41v3h36l-1-1v-1h-17c-8 0-14 0-18-1zm36-2v-2h-36v2h36zm0-4v-2h-36v2h36zm0-5v-2h-36v2h36zm-23-21h-4c-4 0-7 1-8 5-1 1-1 3-1 7v5h18v-5c0-3 0-6-1-7-1-2-2-4-4-5zm-1-5h-3c-3 0-5 1-8 3-2 1-4 4-5 6v69h2v-33-34c0-2 2-5 4-6 2-2 4-3 7-3 1 0 2 0 3 1 4 1 7 4 8 8v11h2v-5-6c0-2-1-5-3-7s-4-3-7-4zm-21 78h2v-33c0-19 0-29 1-32 0-3 0-5 1-7s3-4 5-6c3-1 6-2 9-2s6 1 9 3c2 1 4 3 5 5 0 2 1 3 1 4v6l1 6h1s1 0 1-1v-1c0-4 0-8-1-11s-2-5-4-8c-3-2-5-4-8-5h-5c-4 0-8 1-11 4-3 2-5 6-6 9-1 1-1 11-1 29v40zm-4 0h2v-33-36c1-4 4-8 7-11 4-3 8-5 13-5 8 0 14 4 18 12 1 2 2 6 2 11v6h2v-5c0-5 0-9-2-12-1-3-3-6-6-8-2-3-5-4-9-5-1-1-3-1-5-1s-4 0-6 1c-4 1-7 3-10 6s-5 7-6 11v69zm-5 0h2v-34c1-15 1-27 1-34v-2c1-4 3-8 5-11 3-3 6-5 9-6s6-2 10-2c3 0 4 0 6 1 7 2 13 6 16 13 1 2 2 4 2 5v8l1 6h1v-6-9c-1-5-4-9-8-13-3-3-8-6-13-7h-11c-4 1-8 3-12 6-3 4-6 7-7 12-1 2-2 4-2 6v67zm18 1c-1 1-1 1-2 1h-18v-34-35c1-7 3-13 8-18 4-4 10-7 16-8 2 0 3-1 5-1 5 0 9 1 13 4 8 4 13 10 15 19 1 2 1 14 1 37v25c0 7 0 10-1 11h-17c-1 0-2 0-2-1v-37h-18v37zm91-1h2v-14c-1-8-1-13-1-14 0-2 0-4-1-5-2-3-4-5-8-6-1-1-3-1-7-1h-6v2h11l6 3c1 2 3 4 3 6v11c0 8 0 12 1 14v4zm4 0h2v-14-15c-1-4-2-7-5-9-2-3-5-5-9-6-1 0-4-1-7-1h-6v3h14c3 1 5 3 7 5 1 2 3 4 3 6 1 2 1 10 1 24v7zm4 0h2v-15-15c0-2-1-4-1-5-2-4-4-7-7-9s-6-4-10-4c-1-1-4-1-7-1h-6v2h6c4 0 6 0 8 1 1 0 2 0 4 1 5 3 8 6 10 11 0 1 1 3 1 5v29zm5 0h2v-15c0-10 0-15-1-16-1-5-3-10-6-14-4-4-8-6-13-8h-16v2h10c6 0 12 2 16 7 3 3 6 7 7 11 0 1 0 7 1 17v16zm-21-73c-1 0-4-1-7-1h-6v18h12c1-1 2-1 3-2 2-2 3-4 3-7 0-2 0-3-1-4-1-2-2-3-4-4zm-15-1h-2v74h2v-8-66zm-4 0h-3l1 37v37h2v-16-58zm-5 8v-8h-1-1v73l1 1h1v-10-30-26zm-4-8h-2v74h2v-74zm-2-4v2h14c9 0 15 0 16 1 2 0 4 2 5 4 2 2 2 4 2 6 0 4-1 6-3 9-1 1-2 1-2 1h4v-1l1-1c2-3 2-5 2-8s-1-6-3-9c-2-2-4-3-7-4h-29zm37 24l1 1h1l1-1c3-3 4-6 4-11 0-1 0-2-1-4 0-3-2-6-4-8-3-3-6-4-9-5h-30v2h28c2 0 3 1 5 1 2 1 4 3 5 5 2 2 3 4 3 6 1 1 1 2 1 3 0 5-2 8-5 11zm4 3h1l1 1s1-1 1-2c1-1 2-2 2-3 2-3 2-6 2-10 0-2 0-4-1-6-2-8-7-13-16-15-1-1-6-1-16-1h-15v2h28c8 1 13 5 16 12 2 3 2 5 2 8 0 5-1 9-4 12l-1 2zm4 2c0 1 1 1 2 1l2-2c1-2 1-4 2-5 1-3 2-6 2-10 0-7-3-13-8-18-3-4-7-6-12-7-2-1-6-1-12-1h-21v2h31l2 1c5 2 10 5 13 9s5 9 5 14-2 10-5 15l-1 1zm-47-44s5-1 16-1l17 1h2c4 1 8 3 12 6 3 3 6 6 7 10 2 4 3 8 3 12 0 7-2 12-6 17l-1 2 1 2c3 3 4 7 5 10s1 10 1 21v15h-19c-1-1-1-6-1-16v-15l-1-1c-1-3-2-4-5-5-1 0-3-1-6-1h-6v38h-19c0-1-1-23-1-69 0-17 0-26 1-26zm111 20l-2-1h-8c-3 0-5 1-6 1s-2 1-3 3c-1 1-2 2-2 3v42c1 3 2 4 5 5l1 1h13l2-1c2-1 3-2 4-4l1-1v-42l-1-1c-1-2-2-4-4-5zm-16-2c1-1 3-1 8-1h7l2 1c3 2 5 5 6 9v40c-1 4-3 7-6 8l-2 1h-16c-2-2-4-3-5-5-1-1-1-3-2-5v-19c0-14 0-21 1-22 1-4 3-6 7-7zm15-3h-15c-4 1-6 4-8 7-1 1-2 3-2 5v41c1 2 2 5 4 6 2 2 4 3 6 4 1 0 4 1 8 1s6-1 7-1c5-1 8-4 10-9v-22-23c-1-2-2-4-4-5-2-2-4-3-6-4zm-14-2h15c3 1 5 3 7 5s4 4 4 7c0 2 1 9 1 22 0 12-1 20-1 22-1 2-2 5-4 7s-5 4-7 5h-9c-4 0-6 0-8-1-2 0-5-2-7-4s-3-5-4-7v-23-20c0-2 1-4 2-6 3-4 6-6 11-7zm13-2h-13c-4 0-7 2-9 4-3 2-4 5-5 8-1 1-1 8-1 23v23c0 1 1 3 2 4 2 5 6 8 11 10h10c5 0 9-1 12-3 4-2 7-5 8-10l1-2v-43l-1-2c-1-3-3-6-6-8-2-2-5-4-9-4zm-15-2c2 0 4-1 9-1 4 0 7 1 8 1 6 1 11 5 14 10 1 2 1 4 1 5 1 2 1 6 1 12v33l-1 3c-1 3-3 6-6 9-3 2-6 3-10 4h-9c-4 0-7 0-8-1-6-1-10-5-13-10 0-2-1-4-1-6v-36-8c1-3 2-7 5-10 3-2 6-4 10-5zm17-2c-1-1-3-1-7-1-5 0-8 0-10 1-5 1-8 3-12 6-3 4-5 8-5 12-1 1-1 8-1 22s0 21 1 22c0 4 2 8 5 11s7 6 11 7h20c4-1 7-3 10-6s4-7 5-10c1-2 1-10 1-24 0-15 0-23-1-24-1-4-3-8-6-11s-7-5-11-5zm-16-3h9c5 0 8 0 9 1 4 1 8 3 11 6s6 7 7 12v48c-1 4-3 8-6 11s-6 5-10 6c-3 1-6 2-11 2h-3c-6 0-10-1-13-3-6-3-10-7-13-14l-1-3v-35c0-8 1-13 1-15 2-4 4-8 8-11 4-2 8-4 12-5zm15-2h-15c-6 1-11 3-15 8-4 3-6 7-7 12-1 1-1 9-1 24v23c1 2 1 4 2 5 1 4 3 7 5 9 5 5 10 8 17 9h5c6 0 10 0 11-1 5-1 10-3 13-7 4-3 6-7 8-12v-50c-2-6-5-10-9-14-4-3-8-5-14-6zm-17-2h20c5 1 9 3 13 7 4 3 6 7 8 11 1 3 1 5 1 7 1 3 1 10 1 22s0 19-1 21c0 3 0 5-1 7-3 9-10 15-20 18-2 1-5 1-11 1h-9l-3-1c-5-1-9-4-13-8-4-3-6-8-8-13v-48l1-3c1-5 4-10 8-14s9-6 14-7zm96 93h1v-14-14c0-2-1-4-1-5-2-3-4-5-8-6-1-1-3-1-7-1h-6v2h11l6 3 3 6v25l1 4zm4 0h2v-14-15c-1-4-2-7-5-9-2-3-5-5-9-6-1 0-4-1-7-1h-6v3h14c2 1 5 3 6 5 2 2 3 4 4 6 0 2 1 10 1 24v7zm4 0h2v-15-15c0-2-1-4-2-5-1-4-3-7-6-9s-6-4-10-4c-1-1-4-1-8-1h-5v2h6c4 0 6 0 7 1 1 0 3 0 5 1 4 3 8 6 10 11 0 1 1 3 1 5v29zm4 0h3v-15c0-10-1-15-1-16-1-5-3-10-7-14-3-4-7-6-13-8h-15v2h9c7 0 13 2 17 7 3 3 5 7 7 11v33zm-21-73c-1 0-3-1-7-1h-5v18h11c2-1 3-1 4-2 2-2 3-4 3-7 0-2-1-3-1-4-1-2-3-3-5-4zm-14-1h-2v74h2v-8-66zm-5 0h-2v37c0 24 0 36 1 37h1l1-16c0-16-1-29-1-36v-22zm-4 8v-8h-2v73c0 1 1 1 1 1h1v-10-30-26zm-5-8h-1v74h2v-68l-1-6zm-2-4v2h15c9 0 14 0 15 1 3 0 5 2 6 4s2 4 2 6c0 4-1 6-4 9l-1 1h3l1-1v-1h1c1-3 2-5 2-8s-1-6-4-9c-2-2-4-3-6-4h-30zm38 24s0 1 1 1h1l1-1c2-3 4-6 4-11 0-1 0-2-1-4-1-3-2-6-5-8-2-3-5-4-8-5h-31v2h29c1 0 3 1 5 1 2 1 3 3 5 5s3 4 3 6v3c0 5-1 8-4 11zm4 3h1v1h1s0-1 1-2 2-2 2-3c1-3 2-6 2-10 0-2 0-4-1-6-2-8-8-13-16-15-1-1-7-1-16-1h-15c-1 0-1 1-1 1v1h29c8 1 13 5 16 12 1 3 2 5 2 8 0 5-1 9-4 12l-1 2zm4 2c0 1 1 1 1 1 1 0 1-1 2-2 1-2 2-4 3-5 1-3 2-6 2-10 0-7-3-13-8-18-3-4-8-6-12-7-2-1-6-1-13-1h-21v2h31l3 1c5 2 9 5 13 9 3 4 4 9 4 14s-1 10-4 15l-1 1zm-48-44s6-1 17-1l16 1h3c4 1 8 3 11 6 4 3 6 6 8 10s3 8 3 12c0 7-2 12-6 17l-1 2 1 2c3 3 4 7 5 10s1 10 1 21v15h-20v-31l-1-1c-1-3-3-4-5-5-1 0-3-1-7-1h-5v38h-19c-1-1-1-23-1-69v-26zM2009 2246h2v-36h-2v36zm-5 0h3v-36h-3v36zm-4 0h2v-36h-2v36zm-4 0h2v-36h-2v36zm-20-41v3h35v-2h-18c-8 0-14 0-17-1zm35-2v-2h-35v2h35zm0-4v-2h-35v2h35zm0-5v-2h-35v2h35zm-23-21h-4c-3 0-6 1-8 5v12h17v-5-7c-1-2-3-4-5-5zm0-5h-4c-2 0-5 1-7 3-3 1-4 4-5 6l-1 2v67h2v-33-34c1-2 2-5 4-6 2-2 5-3 7-3s3 0 4 1c4 1 6 4 7 8 1 1 1 3 1 6v5h2v-5-6c-1-2-2-5-4-7s-4-3-6-4zm-21 78h2v-33-32c0-3 1-5 2-7s3-4 5-6c2-1 5-2 8-2 4 0 7 1 9 3 2 1 4 3 5 5s1 3 2 4v12h1c1 0 1 0 1-1v-1-11c-1-3-3-5-5-8-2-2-5-4-8-5h-5c-4 0-8 1-11 4-3 2-5 6-6 9v69zm-5 0h2v-33c0-22 0-34 1-36 1-4 3-8 7-11 3-3 8-5 12-5 9 0 15 4 18 12 2 2 2 6 2 11l1 6h2v-5c0-5-1-9-2-12s-3-6-6-8c-3-3-6-4-9-5-2-1-4-1-6-1s-3 0-5 1c-4 1-8 3-11 6s-4 7-5 11c-1 1-1 13-1 35v34zm-4 0h2v-34-34l1-2c1-4 2-8 5-11s6-5 9-6 6-2 9-2 5 0 6 1c8 2 13 6 17 13 1 2 1 4 1 5 1 2 1 4 1 8v6h2v-6c0-4 0-7-1-9-1-5-3-9-7-13-4-3-8-6-13-7h-11c-5 1-9 3-12 6-4 4-6 7-8 12-1 2-1 4-1 6v67zm18 1c-1 1-2 1-2 1h-18c0-1-1-12-1-34s0-33 1-35c0-7 3-13 7-18 5-4 10-7 17-8 1 0 3-1 4-1 5 0 10 1 14 4 8 4 13 10 15 19v52c0 5 1 9 1 10 0 7-1 10-1 11h-18s-1 0-2-1v-37h-17v37z" class="fil1"/>
      <path d="M1596 2113h6v-108h-6v108zm35 0h-6v-108h6v108zm-13-108v81c0 20 0 31 1 32s11 2 29 2h24c2-1 4-1 6-3v-112h54v112c2 2 4 2 5 3h25c18 0 27-1 29-2 1-1 1-35 1-101 0-65 0-100-1-106-2-20-9-37-23-52-14-14-30-22-49-26-4 0-9-1-14-1-14 0-28 3-40 10-24 12-39 32-45 59-1 2-1 17-1 44h-11c0-27 0-42-1-44-7-27-22-47-45-59-13-7-26-10-40-10-5 0-10 1-14 1-19 4-35 12-49 26-14 15-22 32-24 52v106c0 66 0 100 1 101s11 2 29 2h24c2-1 4-1 6-3v-112h54v112c2 2 4 2 6 3h24c18 0 27-1 29-2 1-1 1-12 1-32v-30-51h9zm19-53h95v6h-237v-6h142zm0 13h95v7h-237v-7h142zm0 14h95v6h-237v-6h142zm-6 13h48c23 0 41 0 53-1v7h-237v-7c12 1 30 1 53 1h83zm14 121h-7v-108h7v108zm13 0h-6v-108h6v108zm13 0h-6v-108h6v108zm22-218c3-1 7-2 12-2 11 0 20 5 24 15 2 3 2 10 3 21v16h-54v-15c0-10 1-17 2-20 3-7 7-12 13-15zm2-15c3 0 7-1 10-1 8 0 16 3 23 8s12 12 15 20l2 5v200h-3c-1 1-2 1-3 1v-98c0-66 0-100-1-102-2-8-6-15-12-20s-13-7-21-7c-4 0-7 0-10 1-13 4-20 12-23 26-1 3-1 9-1 18v14h-6v-14c0-8 0-14 1-18 1-8 4-15 10-21 5-6 12-10 19-12zm63 233h-6v-100c0-55-1-86-1-95 0-8-2-15-5-20-3-8-9-13-15-18-8-5-16-7-26-7s-19 2-26 8c-7 4-12 10-15 17-3 4-4 7-4 10-1 3-1 9-2 19v18h-3c-2 0-3-1-4-3v-1-3c0-12 1-22 2-31 2-9 7-17 14-24 7-8 14-12 23-15 5-1 11-2 16-2 12 0 23 4 32 12 10 8 16 18 19 29 1 3 1 32 1 86v120zm14 0h-7v-100c0-66 0-101-1-106-3-14-10-25-21-34s-23-14-38-14c-26 0-44 12-54 34-4 8-6 19-6 34l-1 18h-6v-16c0-15 2-27 5-35 4-10 11-18 19-25s17-12 27-14c5-2 10-2 16-2s11 0 16 2c13 3 23 9 32 18 9 10 15 20 17 33 1 4 2 40 2 106v101zm13 0h-6c0-23 0-57-1-102v-103l-1-6c-4-12-9-22-17-31-7-9-16-16-27-20-8-3-17-5-28-5-8 0-14 1-17 1-24 7-40 20-50 41-2 6-4 11-5 16-1 4-1 11-1 22l-1 19h-6v-19c0-12 1-20 2-25 4-15 11-28 22-39 12-11 25-18 40-21 6-1 11-2 16-2s10 1 16 2c14 3 26 9 37 18 11 10 18 21 23 35 2 6 3 12 4 19v200zm-203 0h7v-108h-7v108zm-14 0h7v-108h-7v108zm-12 0h6v-108h-6v108zm40-168h6v-19c0-12-1-20-2-25-4-15-11-28-22-39-12-11-25-18-40-21-6-1-12-2-16-2-5 0-10 1-16 2-14 3-27 9-37 18-11 10-18 21-23 35-2 6-3 12-4 19v200h6v-102c1-46 1-80 1-103l1-6c4-12 9-22 17-31 7-9 16-16 27-20 8-3 17-5 28-5 8 0 14 1 17 1 23 7 40 20 50 41 2 6 4 11 5 16 1 4 1 11 1 22l1 19zm-62-50c-3-1-7-2-12-2-12 0-20 5-25 15-1 3-2 10-2 21v16h54v-15c0-10-1-17-2-20-3-7-7-12-13-15zm-3-15c-3 0-6-1-9-1-8 0-16 3-23 8s-12 12-15 20l-2 5v200h3c1 1 2 1 3 1v-98c0-66 0-100 1-102 2-8 6-15 12-20s13-7 21-7c4 0 7 0 10 1 12 4 20 12 23 26 0 3 1 9 1 18v14h6v-14c0-8 0-14-1-18-1-8-4-15-10-21-5-6-12-10-20-12zm-62 233h6v-100c0-55 1-86 1-95 0-8 2-15 5-20 3-8 8-13 15-18 8-5 16-7 26-7s19 2 26 8c7 5 12 10 15 17 2 4 4 7 4 10 1 3 1 9 1 19l1 18h3c2 0 3-1 4-3v-1-3c0-12-1-22-2-31-3-9-7-17-14-24-7-8-15-12-23-15-5-1-11-2-16-2-12 0-23 4-33 12-9 8-15 18-18 29-1 3-1 32-1 86v120zm-14 0h7v-100c0-66 0-101 1-106 3-14 10-25 21-34s23-14 38-14c25 0 43 12 54 34 4 8 6 19 6 34l1 18h6v-16c0-15-2-27-6-35-4-10-10-18-18-25s-17-12-27-14c-5-2-11-2-16-2-6 0-11 0-16 2-13 3-23 9-32 18-9 10-15 20-17 33-1 4-2 40-2 106v101z" class="fil2"/>
    </g>
    <g id="_1892589648080">
      <path d="M400 2726l184 337h-83l-101-185-19 34-41-76zM330 2855l41 76 72 132h-83l-30-56-31 56h-83l72-132z" class="fil2"/>
      <path d="M113 3195h13l-22-87H90l-22 87h14l4-18h23l4 18zm-25-29l6-24c1-5 2-14 3-18 1 4 2 13 4 18l5 24H88zm48 29h12v-34c0-8-1-21-1-30 2 6 6 15 8 21l20 43h12v-87h-12v34c0 8 1 21 2 29h-1c-2-5-5-13-8-19l-20-44h-12v87zm108 0h15l-29-49 25-38h-15l-17 27-6 11v-38h-12v87h12v-30l6-8 21 38zm23 0h12v-87h-12v87zm72-87h-49v12h18v75h13v-75h18v-12zm43 87h13l-22-87h-14l-21 87h13l4-18h23l4 18zm-25-29l6-24c1-5 2-14 3-18 1 4 2 13 4 18l5 24h-18zm111 29h13l-22-87h-13l-22 87h13l4-18h23l4 18zm-24-29l5-24c1-5 3-14 3-18h1c0 4 2 13 3 18l5 24h-17zm85 29h14l-19-33c10-4 16-13 16-27 0-17-10-27-27-27h-22v87h12v-32h8l18 32zm-26-75h10c9 0 14 5 14 15 0 11-5 16-14 16h-10v-31zm75 77c16 0 26-11 26-30v-32c0-18-10-29-26-29-17 0-27 11-27 29v32c0 19 10 30 27 30zm0-13c-9 0-14-6-14-17v-32c0-11 5-16 14-16s13 5 13 16v32c0 11-4 17-13 17zm79 11h14l-19-33c10-4 16-13 16-27 0-17-9-27-26-27h-23v87h13v-32h8l17 32zm-25-75h10c9 0 13 5 13 15 0 11-4 16-13 16h-10v-31zm87 75h13l-22-87h-14l-22 87h14l4-18h23l4 18zm-25-29l6-24c1-5 2-14 3-18 1 4 2 13 4 18l5 24h-18z" class="fil1"/>
    </g>
    <g id="_1892589648432">
      <path d="M1608 2756l-181 268h52l31-43 17-23 33-45v68h-36l-31 43h115zM1619 2756l181 268h-52l-31-43-17-23-33-45v68h35l31 43h-114z" class="fil4"/>
      <path fill-rule="nonzero" d="M1242 3135h20l-10-29-10 29zm-29 28l39-93h1l39 93h-20l-4-13h-31l-5 13h-19zm84 0v-93h2l47 53v-50h17v94h-1l-48-53v49h-17zm84 0v-90h18v39l25-39h22l-29 43 31 47h-22l-27-41v41h-18zm73 0v-90h19v90h-19zm52 0v-71h-24v-19h66v19h-24v71h-18zm60-28h20l-10-29-10 29zm-29 28l39-93h1l38 93h-19l-5-13h-30l-5 13h-19zm132-28h20l-10-29-10 29zm-29 28l39-93h1l38 93h-19l-4-13h-31l-5 13h-19zm105-73h-3v25h4c4 0 8-2 10-4 3-2 4-5 4-9s-1-8-4-9c-2-2-6-3-11-3zm-21 73v-90h20c6 0 11 1 14 2 4 1 7 2 10 5 2 2 5 5 6 8 2 4 3 8 3 12 0 5-2 10-4 15-3 4-6 7-11 10l24 38h-21l-21-35h-2v35h-18zm83-45c0 8 2 15 6 20s8 8 14 8 11-3 14-8c4-5 6-12 6-20s-2-14-6-20c-3-5-8-7-14-7s-10 2-14 7c-4 6-6 12-6 20zm-19 0c0-6 1-13 3-18 2-6 5-11 9-16 3-4 7-8 12-10 5-3 10-4 15-4s10 2 15 4 9 6 13 10c3 4 6 10 8 15 2 6 3 13 3 19s-1 11-2 16-3 10-6 14c-4 6-8 10-14 13-5 4-11 5-17 5-5 0-10-1-15-3-5-3-9-6-12-11-4-4-7-9-9-15s-3-12-3-19zm111-28h-3v25h4c5 0 8-2 11-4 2-2 3-5 3-9s-1-8-3-9c-3-2-6-3-12-3zm-20 73v-90h19c7 0 11 1 15 2 3 1 6 2 9 5 3 2 5 5 7 8 1 4 2 8 2 12 0 5-1 10-4 15-2 4-6 7-10 10l23 38h-21l-20-35h-3v35h-17zm85-28h20l-10-29-10 29zm-29 28l39-93h1l38 93h-19l-4-13h-31l-5 13h-19z"/>
    </g>
    <g id="_1892589651312">
      <path d="M2431 3066c0-7 3-13 9-18s13-7 21-7c9 0 16 2 22 7s9 11 9 18v95h-21v-52h-20v52h-20v-95zm40 26v-26c0-2-1-4-3-6-2-1-4-2-7-2s-5 1-7 2c-2 2-3 4-3 6v26h20zm94-26c0-7-3-13-9-18s-13-7-21-7c-9 0-16 2-22 7s-9 11-9 18v95h20v-95c0-2 1-4 3-6 2-1 5-2 8-2 2 0 5 1 7 2 2 2 3 4 3 6v95h20v-95zm67 78l-6-18-6-17-2-4-2-4-3-9-2-5 7-12 10-17 11-17h-21l-10 17-4 7-6 10v-34h-20v120h20v-52l7 17 6 18 7 17h21l-7-17zm39-103h-20v120h20v-120zm74 0h-61v17h20v103h21v-103h20v-17zm12 25c0-7 3-13 9-18s13-7 22-7c8 0 16 2 21 7 6 5 9 11 9 18v95h-20v-52h-20v52h-21v-95zm41 26v-26c0-2-1-4-3-6-2-1-4-2-7-2s-5 1-7 2c-2 2-3 4-3 6v26h20zm78-26c0-7 3-13 9-18s13-7 22-7c8 0 15 2 21 7s9 11 9 18v95h-20v-52h-21v52h-20v-95zm41 26v-26c0-2-1-4-3-6-2-1-5-2-7-2-3 0-6 1-8 2-2 2-3 4-3 6v26h21zm92 0c-3 6-8 11-14 14v3l5 17 6 18 5 17h-21l-5-17-5-18-5-17h-5v52h-20v-120h30c4 0 7 0 10 1 6 2 11 5 15 9 4 5 6 10 6 15v17c0 3-1 6-2 9zm-39 0h8c3 0 6-1 9-3 2-2 3-4 3-7v-14c0-3-1-5-3-7-3-2-6-3-9-3h-8v34zm94-50c6 2 11 5 14 9 4 5 6 10 6 15v69c0 7-3 13-9 18-3 3-7 5-11 6-3 1-7 2-10 2-4 0-7-1-11-2-6-2-10-5-14-9s-6-9-6-15v-69c0-7 3-13 9-18 3-3 7-5 11-6s7-1 11-1c3 0 7 0 10 1zm0 93v-69c0-2-1-4-3-6-2-1-5-2-7-2-3 0-6 1-8 2-2 2-3 4-3 6v69c0 2 1 4 3 6s5 3 8 3c2 0 5-1 7-3s3-4 3-6zm92-43c-3 6-8 11-15 14l1 3 5 17 5 18 6 17h-21l-5-17-5-18-5-17h-5v52h-20v-120h30c4 0 7 0 10 1 6 2 11 5 15 9 4 5 6 10 6 15v17c0 3-1 6-2 9zm-39 0h8c3 0 6-1 8-3 3-2 4-4 4-7v-14c0-3-1-5-4-7-2-2-5-3-8-3h-8v34zm53-26c0-7 3-13 9-18s13-7 21-7c9 0 16 2 22 7s9 11 9 18v95h-20v-52h-21v52h-20v-95zm41 26v-26c0-2-1-4-3-6-2-1-5-2-8-2-2 0-5 1-7 2-2 2-3 4-3 6v26h21z" class="fil1"/>
      <path d="M2806 3001v-36c-30-17-62-49-63-50-10-11-17-21-23-32h50v37c11 10 24 20 36 28v-161c-82-82-193 53-79 154 1 1 49 44 79 60zm15 0v-36c31-17 62-49 63-50 10-11 18-21 23-32h-50v37c-11 10-24 20-36 28v-161c82-82 193 53 80 154-2 1-49 44-80 60zm95-154c0-32-24-55-59-48v48h59zm-205 0c0-32 24-55 59-48v48h-59z" class="fil2"/>
    </g>
  </g>
</svg>
