<svg xmlns="http://www.w3.org/2000/svg" fill-rule="evenodd" clip-rule="evenodd" image-rendering="optimizeQuality" shape-rendering="geometricPrecision" text-rendering="geometricPrecision" version="1" viewBox="0 0 1028 824">
  <defs>
    <style>
      .fil5{fill:#fb5b5d}.fil3{fill:#fff}
    </style>
  </defs>
  <g id="Layer_x0020_1">
    <g id="_2099611512320">
      <g fill-rule="nonzero">
        <path fill="none" stroke="#000" stroke-linecap="round" stroke-linejoin="round" stroke-width="9" d="M297 100c15 11 24 26 28 46 4 19 2 42-4 70l-2 13-5 25c-2 12-2 22 1 30l8 13c3 3 8 4 13 5s11 0 18-2c6-2 13-8 20-14l10-8c10-9 23-12 36-14l9-3h1c11-1 22-9 39-20l18-13 16-9 20-11 1-1c78-27 99-24 152-16l5 1c17 2 47 8 73 13l35 7a169 169 0 0 0 75 0c26-5 47-15 61-28 10-9 16-20 19-32 2-11 0-23-6-35-8-14-22-28-44-41-13-7-31-13-50-17a640 640 0 0 0-267 15c-58 17-111 43-157 79-2 1-5 1-6-1s-1-4 1-6a407 407 0 0 1 135-93c52-22 105-37 156-44 50-7 98-6 145 2 52 8 99 26 131 58 27 27 44 66 42 117 0 18-4 35-12 52a256 256 0 0 1-84 96c-19 13-40 26-64 39-37 19-71 50-108 83l-5 4c0 11 3 23 8 35 5 11 12 20 21 27 9 6 20 9 32 13 11 3 23 6 35 12l19 13c6 5 10 10 13 15l8 12 8 13 8 16c7 12 13 24 22 26l18 1c6 0 9 0 12 5 2 2 4 5 5 9l2 13-1 13c-1 11-2 24 1 37l7 17c4 8 8 16 9 25a54 54 0 0 1-11 34c-8 11-19 18-32 21-12 2-26 2-41-2-6-1-10 0-14 2-5 1-9 2-16 1l-7-1-9 2h-11c-4-1-7-3-9-9h-4l-7-2-9-2-4 1h-7l-7-2-3-4c-1-2-1-4 1-6 1-2 3-5 7-7l7-4 8-4 12-3 8-2h1c18-1 34 1 47 2l15 1 5-1-1-3c-3-5-8-11-13-13-7-3-6-11-6-19l-1-8v-1c-1-2-3-4-16 4-15 10-11-9-11-9l1-1c4-7 10-14 18-18 6-3 13-4 21-1l1 1c12 8 12 16 13 30v3l4 15 1 2c2 5 12 4 16 3h1c2-1 3-4 4-7l-1-17-1-5c-9-33-32-63-64-88s-75-46-123-59c-2 0-3 2-5 3l-2 2c-18 14-31 28-39 42-7 11-10 22-10 32s4 20 11 29c5 6 13 13 22 18l2 3 4 12c1 3 3 5 6 7 21 14-6 13-6 13l-10-1c1 2 1 5-2 7l-2 1v2l1 3 8 6c2 1 3 4 1 6-1 2-2 2-4 2h-5c-8-1-17-2-23-7-8-7-14-16-21-26-5-7-10-15-16-21l-1-4-2-1c-5-3-9-4-13-4s-8 2-11 6l-2 1c-14 3-21-2-21-14-4 2-6 3-7 5-2 3-2 6-1 9l1 4c5 16-11 11-11 10h-1c-7-6-10-13-10-21l2-11 6-10c7-8 17-13 28-13h1l13 5c10 4 13 5 17 3-7-27-2-33 7-43 14-18 24-32 30-43 5-9 7-15 6-18-24-12-47-19-67-26l-16-6-79-26-35-12v2c-5 20-13 29-22 38-4 5-9 10-13 17-10 17-3 29 0 36l2 3 1 3c-2 9-3 17-2 25 1 6 2 11 5 16h8c-8-8 7-12 7-12 7-1 12 0 16 4s6 10 6 18v2l-9 16-6 6v3l-4 7c-3 3-6 4-10 4-3 0-7-1-10-3l1 8 3 1c5-3 10-4 13-2 4 2 6 6 7 11l3 1 9-4 4-1c3-1 4 0 5 2v1l1 3-1 4c-3 8-7 13-14 16-5 2-13 2-21 1l-10-2c-3-2-5-4-7-8v-1c0-3-2-7-5-10-3-4-8-8-14-11l-2-3c-1-8-3-15-6-21-2-6-6-12-10-17l-1-3c2-41 0-60-1-71-2-11-2-14 3-22l9-17 4-6c3-9 6-18 10-25 6-15 11-27 6-32a137 137 0 0 0-42-16v2l-2 7v2c-1 11-3 23-15 22a465 465 0 0 1-124-19v1c0 6 0 13-3 19s-7 11-12 16c-6 6-12 13-16 22l-1 1-12 15-2 8c3-1 7-3 10-7 3-2 4-10 6-14l2-7c2-2 4-2 6 0l2 3 4 18c0 6 0 11-2 15-3 7-9 11-14 14l1 4v5c0 2 0 4 2 6 1 2 3 3 6 4h9c4 0 7-1 9 2v3l-1 3-8 5c-7 4-15 4-22 1s-14-8-20-16l-1-2c-1-3 0-7 1-10l1-3h-2l-11-4 7 5 2 3c1 5 0 9-2 12-1 2-3 4-6 5 1 5 3 8 5 11 2 4 5 7 9 8 18 9-3 14-3 14h-3c-9 1-16-1-22-8-5-5-9-14-11-26l-1-9c-1-5 1-8 2-12 1-3 2-5 1-8-2-9 0-16 2-22s6-10 9-13c2-9 4-17 9-26 6-9 14-19 27-30 5-4 10-10 15-17s10-15 17-21c1-1 3-2 4-1l27 2c36 4 63 7 79-3a53 53 0 0 0-27-36l-21-5c-41-11-71-31-89-58-19-26-25-58-19-94l-7 7-27 28-6 7c-23 25-44 49-59 39l-2-1-4-3c-3-2-5-5-3-9l-2-2c-3-2-4-5-3-7l1-3c3-2 6-3 10-2v-4l1-1c0-2 2-3 4-2l7 1-1-1c-2-3-2-6 1-9l3-1 6 1-4-6c-2-3-2-7 0-9h1c1-2 3-2 5-1l2 1c-4-4-4-8-2-11 1-2 4-2 5-2l10 6c-2-3-3-6-3-10 0-2 2-4 4-4l7 1-3-4c-2-2-2-4 0-7l4-2 3 1v-7c1-2 2-2 4-2h5c-2-2-2-4-2-6s2-4 3-4l8-1-1-2-9 3c-12 6-24 11-34 21-9 8-15 19-22 30l-8 15c-2 2-4 3-6 1-2-1-3-3-2-4 14-68 49-86 74-99l6-3 8-4 11-6-5-5-6-8-4-1-8 1 2 5c1 2-1 5-3 5-3 1-6 1-9-1l-6-7-1-1c0-1 0 0 0 0v1l4 9c1 2 0 4-2 5l-2 1c-3 0-6-1-9-4l-2-3 2 10c1 2 0 4-3 5h-2l-7-4 2 4c1 2 1 4-2 5l-3 1-8-5c1 2 1 4-1 6l-3 1c-4 0-8-2-12-5l1 2c2 2 2 5 0 6-1 1-3 2-4 1-4-1-7-3-11-6l1 2c0 2-1 4-3 5h-3l-5-2c1 2 1 4-1 6l-3 1-6-2c0 2 0 3-2 4l-2 1-7-1c0 2-1 5-4 5h-1c-4 0-7-1-10-3 0 2-2 3-3 3-3 1-6 0-8-1l-4-4h-3l-4-2c-9-16-11-28-6-39 6-10 18-17 38-21l17-10 19-11 15-7 15-8c37-22 71-32 101-35 35-3 64 5 84 20h1zm169 590l-5-1 3 1h2zM209 576l-5-1c1 3 2 6 5 9s2 8 0 12l-1 6c5 6 10 10 16 12l6 1c-4-1-7-3-9-5-3-4-4-7-4-12v-4l-3-2c-2-2-3-4-1-6 1-2 3-2 5-3 4-2 11-6 14-11v-14l-5 8c-4 5-10 8-14 9l-4 1zm35 39c0-1 0-1 0 0 0 0 1 0 0 0zm-51-36l-1-4v2l1 2zm-52-301v-1 1z"/>
        <path id="1" fill="#101c01" d="M297 100c15 11 24 26 28 46 4 19 2 42-4 70l-2 13-5 25c-2 12-2 22 1 30l8 13c3 3 8 4 13 5s11 0 18-2c6-2 13-8 20-14l10-8c10-9 23-12 36-14l9-3h1c11-1 22-9 39-20l18-13 16-9 20-11 1-1c78-27 99-24 152-16l5 1c17 2 47 8 73 13l35 7a169 169 0 0 0 75 0c26-5 47-15 61-28 10-9 16-20 19-32 2-11 0-23-6-35-8-14-22-28-44-41-13-7-31-13-50-17a640 640 0 0 0-267 15c-58 17-111 43-157 79-2 1-5 1-6-1s-1-4 1-6a407 407 0 0 1 135-93c52-22 105-37 156-44 50-7 98-6 145 2 52 8 99 26 131 58 27 27 44 66 42 117 0 18-4 35-12 52a256 256 0 0 1-84 96c-19 13-40 26-64 39-37 19-71 50-108 83l-5 4c0 11 3 23 8 35 5 11 12 20 21 27 9 6 20 9 32 13 11 3 23 6 35 12l19 13c6 5 10 10 13 15l8 12 8 13 8 16c7 12 13 24 22 26l18 1c6 0 9 0 12 5 2 2 4 5 5 9l2 13-1 13c-1 11-2 24 1 37l7 17c4 8 8 16 9 25a54 54 0 0 1-11 34c-8 11-19 18-32 21-12 2-26 2-41-2-6-1-10 0-14 2-5 1-9 2-16 1l-7-1-9 2h-11c-4-1-7-3-9-9h-4l-7-2-9-2-4 1h-7l-7-2-3-4c-1-2-1-4 1-6 1-2 3-5 7-7l7-4 8-4 12-3 8-2h1c18-1 34 1 47 2l15 1 5-1-1-3c-3-5-8-11-13-13-7-3-6-11-6-19l-1-8v-1c-1-2-3-4-16 4-15 10-11-9-11-9l1-1c4-7 10-14 18-18 6-3 13-4 21-1l1 1c12 8 12 16 13 30v3l4 15 1 2c2 5 12 4 16 3h1c2-1 3-4 4-7l-1-17-1-5c-9-33-32-63-64-88s-75-46-123-59c-2 0-3 2-5 3l-2 2c-18 14-31 28-39 42-7 11-10 22-10 32s4 20 11 29c5 6 13 13 22 18l2 3 4 12c1 3 3 5 6 7 21 14-6 13-6 13l-10-1c1 2 1 5-2 7l-2 1v2l1 3 8 6c2 1 3 4 1 6-1 2-2 2-4 2h-5c-8-1-17-2-23-7-8-7-14-16-21-26-5-7-10-15-16-21l-1-4-2-1c-5-3-9-4-13-4s-8 2-11 6l-2 1c-14 3-21-2-21-14-4 2-6 3-7 5-2 3-2 6-1 9l1 4c5 16-11 11-11 10h-1c-7-6-10-13-10-21l2-11 6-10c7-8 17-13 28-13h1l13 5c10 4 13 5 17 3-7-27-2-33 7-43 14-18 24-32 30-43 5-9 7-15 6-18-24-12-47-19-67-26l-16-6-79-26-35-12v2c-5 20-13 29-22 38-4 5-9 10-13 17-10 17-3 29 0 36l2 3 1 3c-2 9-3 17-2 25 1 6 2 11 5 16h8c-8-8 7-12 7-12 7-1 12 0 16 4s6 10 6 18v2l-9 16-6 6v3l-4 7c-3 3-6 4-10 4-3 0-7-1-10-3l1 8 3 1c5-3 10-4 13-2 4 2 6 6 7 11l3 1 9-4 4-1c3-1 4 0 5 2v1l1 3-1 4c-3 8-7 13-14 16-5 2-13 2-21 1l-10-2c-3-2-5-4-7-8v-1c0-3-2-7-5-10-3-4-8-8-14-11l-2-3c-1-8-3-15-6-21-2-6-6-12-10-17l-1-3c2-41 0-60-1-71-2-11-2-14 3-22l9-17 4-6c3-9 6-18 10-25 6-15 11-27 6-32a137 137 0 0 0-42-16v2l-2 7v2c-1 11-3 23-15 22a465 465 0 0 1-124-19v1c0 6 0 13-3 19s-7 11-12 16c-6 6-12 13-16 22l-1 1-12 15-2 8c3-1 7-3 10-7 3-2 4-10 6-14l2-7c2-2 4-2 6 0l2 3 4 18c0 6 0 11-2 15-3 7-9 11-14 14l1 4v5c0 2 0 4 2 6 1 2 3 3 6 4h9c4 0 7-1 9 2v3l-1 3-8 5c-7 4-15 4-22 1s-14-8-20-16l-1-2c-1-3 0-7 1-10l1-3h-2l-11-4 7 5 2 3c1 5 0 9-2 12-1 2-3 4-6 5 1 5 3 8 5 11 2 4 5 7 9 8 18 9-3 14-3 14h-3c-9 1-16-1-22-8-5-5-9-14-11-26l-1-9c-1-5 1-8 2-12 1-3 2-5 1-8-2-9 0-16 2-22s6-10 9-13c2-9 4-17 9-26 6-9 14-19 27-30 5-4 10-10 15-17s10-15 17-21c1-1 3-2 4-1l27 2c36 4 63 7 79-3a53 53 0 0 0-27-36l-21-5c-41-11-71-31-89-58-19-26-25-58-19-94l-7 7-27 28-6 7c-23 25-44 49-59 39l-2-1-4-3c-3-2-5-5-3-9l-2-2c-3-2-4-5-3-7l1-3c3-2 6-3 10-2v-4l1-1c0-2 2-3 4-2l7 1-1-1c-2-3-2-6 1-9l3-1 6 1-4-6c-2-3-2-7 0-9h1c1-2 3-2 5-1l2 1c-4-4-4-8-2-11 1-2 4-2 5-2l10 6c-2-3-3-6-3-10 0-2 2-4 4-4l7 1-3-4c-2-2-2-4 0-7l4-2 3 1v-7c1-2 2-2 4-2h5c-2-2-2-4-2-6s2-4 3-4l8-1-1-2-9 3c-12 6-24 11-34 21-9 8-15 19-22 30l-8 15c-2 2-4 3-6 1-2-1-3-3-2-4 14-68 49-86 74-99l6-3 8-4 11-6-5-5-6-8-4-1-8 1 2 5c1 2-1 5-3 5-3 1-6 1-9-1l-6-7-1-1c0-1 0 0 0 0v1l4 9c1 2 0 4-2 5l-2 1c-3 0-6-1-9-4l-2-3 2 10c1 2 0 4-3 5h-2l-7-4 2 4c1 2 1 4-2 5l-3 1-8-5c1 2 1 4-1 6l-3 1c-4 0-8-2-12-5l1 2c2 2 2 5 0 6-1 1-3 2-4 1-4-1-7-3-11-6l1 2c0 2-1 4-3 5h-3l-5-2c1 2 1 4-1 6l-3 1-6-2c0 2 0 3-2 4l-2 1-7-1c0 2-1 5-4 5h-1c-4 0-7-1-10-3 0 2-2 3-3 3-3 1-6 0-8-1l-4-4h-3l-4-2c-9-16-11-28-6-39 6-10 18-17 38-21l17-10 19-11 15-7 15-8c37-22 71-32 101-35 35-3 64 5 84 20h1zm169 590l-5-1 3 1h2zM209 576l-5-1c1 3 2 6 5 9s2 8 0 12l-1 6c5 6 10 10 16 12l6 1c-4-1-7-3-9-5-3-4-4-7-4-12v-4l-3-2c-2-2-3-4-1-6 1-2 3-2 5-3 4-2 11-6 14-11v-14l-5 8c-4 5-10 8-14 9l-4 1zm35 39c0-1 0-1 0 0 0 0 1 0 0 0zm-51-36l-1-4v2l1 2zm-52-301v-1 1z"/>
      </g>
      <path fill="#91b762" d="M18 209h-2c-16-29-8-46 31-54l36-21 31-15c77-47 144-41 180-16 29 21 35 58 23 112l-1 4c-18 10-35 16-52 18 15 5 32 2 50-6-1 7-2 14-5 22-17 8-32 11-45 9 10 5 25 5 44 1v-1l1 17c-13 5-28 6-45 3 14 7 30 9 48 6 2 5 5 10 10 13l-2-1c-11 7-25 11-41 10 20 6 37 4 50-5l-2-1c4 2 8 3 13 3-6 10-15 18-26 25 19-2 30-11 35-26l7-2h1c4 9 2 21-4 35 13-16 18-30 14-42l13-10c5 5 5 13 0 24 9-14 12-25 8-31 5-4 11-6 17-8 8 17 8 37 0 57 18-19 24-39 17-61l8-2 13-4h-1c9 16 7 47-7 91 25-39 32-72 19-98l18-12c7 8 9 20 6 37 8-21 8-35 2-42l9-6 14-8c6 17 8 35 6 56 14-15 17-36 6-63 3-1 7-3 10-6l26-8c8 14 10 36 7 65 12-20 16-43 13-71 16-4 29-6 41-7 4 24 1 50-12 78 33-25 46-51 41-77l39 5 19 3 6 27c-14 0-29 3-44 9 16-4 31-6 44-5 3 32-5 63-25 93 33-32 53-61 59-86 17 6 33 16 51 31-15-18-32-30-50-37 2-8 2-16 1-24l47 10 11 1c5 17 4 34-3 50 22-14 31-30 26-48 16 0 31-1 43-3l4-1c2 14 0 32-6 52 18-9 26-28 25-57 11-4 20-7 29-12 15 10 15 37 1 81 30-44 38-75 25-95l18-13c13 9 19 31 18 65 10-33 9-59-3-79 13-15 19-32 15-54-1-10-8-21-12-32 41 31 42 74 41 114-1 21-6 41-17 62-55 61-127 97-194 113-19 4-34 13-52 15 11-16 14-37 10-62-1 41-15 67-40 84-48 35-88 52-119 50-41 8-67 15-79 22 46-12 76-8 90 12 7 9 14 14 20 13 30-2 59-12 87-31l83-72c27-19 59-37 97-57 29-15 53-33 72-52l-5 6c-27 30-64 55-111 80-39 21-75 54-115 89-1 21 8 51 31 67 17 12 41 14 67 26 10 5 24 15 31 26l15 26c10 15 18 41 33 43 21 3 24-1 28 4 3 5 6 11 6 20 0 14-5 32 0 51 4 15 14 28 15 41 1 14-4 23-10 31-15 21-39 24-68 18-12-2-18 4-27 3 7-8 9-17 1-24l-4-2c-9 1-29 11-33 20l-4-2 2-1c6-7 8-15 3-23l-4-2 2-1c26-1 47 3 62 3 20 1 4-19-7-25-5-2-4-11-4-19l3 4c3 2 6 2 9 1s5-3 6-5v4c0 5 4 14 5 18 3 9 18 7 22 6 9-1 8-24 5-35-19-67-95-123-190-149-5-1-8 3-11 5-62 50-67 98-15 129l2 10c-6-5-13-9-21-9h-1c-11 2-9 12-4 19l2 1c4 3 8 4 13 6 1 2 4 5 3 6l-4 4c-6-8-12-17-24-13l-2 2-2 4v2c-8-11-15-23-24-32 6-33-10-34-3-5-12-8-22-7-30 2-11 2-17-2-16-12l3 1c2 1 5 0 6-1 6-7 6-14 1-18 17 7 22 10 29 2-8-27-3-32 5-41 29-37 41-59 36-67-31-16-59-24-85-33-74-25-103-33-116-39-18-7-27-16-28-28-2 16 6 27 25 34-7 30-23 34-35 54-13 22-1 37 2 43-3 19-2 35 5 46 7-1 13 0 17 3l1-1 2 3c3 5 8 6 14 5-8 20-21 24-36 11l-9-6c8 13 19 18 32 16-5 15-18 11-35-11 0 7 3 13 11 19-1 11 2 16 10 15 7-5 12-3 14 6h-5l-2 4c-1 4-1 9 1 13v1l-4-1c-7 1-11-1-13-6-1-9-8-17-21-25-2-16-8-29-16-39 3-79-9-78 0-92 9-13 11-20 14-23 10-31 24-51 15-62-7-8-28-14-48-18 0 4-3 7-3 13-1 10-2 22-11 21-45 0-88-7-128-21-1 6 1 17-3 24-6 12-20 21-28 38-11 11-17 21-16 30h3c0 9 3 11 9 16-1 1-2 1-1 2l5 3v11h-1c-5 1-8 4-9 9l-8-9c-1-5 5-13 1-17-13-15-2-31 3-43-14 15-16 30-7 44-15-4-18-10-9-19l-1-15c-1 13-3 20-6 22-5 8-2 15 9 21 0 6-2 11-7 13l-2-3-12-5-4 1-1 1v-1c-1-8 5-14 4-21-4-16 4-26 9-32 4-17 10-34 36-54 11-9 18-27 32-39 54 5 91 13 112-3-2-14-11-30-30-42-102-18-145-86-124-167-6 8-26 26-44 46-24 26-47 54-60 45-4-2-9-3-7-7 5 4 10 7 18 5 15-9 42-39 82-89-17-20 45-83 68-92-16 5-34 18-42 18-22-1-42-8-60-20-20-8-61 20-74 19-36 1-61 8-75 19l5 21zm304 92l5 3-5-3zm392 466l3 2h-4l1-1v-1zm-219-54zM243 612c5 0 8 0 1 4v-3l-1-1zm463-45l-13-9c16 0 23 5 20 14-2 6-5 12-10 17 4-10 5-18 3-22zm28 14c3-2 5-3 7-1 2-7 1-16-4-29-7-5-20-9-42-12-19-9-37-21-54-35 20 25 39 38 57 41 15 2 25 5 33 9 6 12 7 21 3 27zm261-321c-4 8-10 15-17 23l17-23zM433 422c7-21 7-34 0-41 2 26-9 53-33 79 15 9 35 13 57 10-3-5-1-11 6-18 1-21 8-41 21-60 26-33 57-64 93-93 23-15 44-26 62-31 6-4 14-2 24 7-5-12-15-16-32-11-35 13-68 35-100 66-23 19-42 41-57 67l-13 32c-18 0-27-2-28-7zm-70-28c-3-17 7-38 32-63-21 10-39 40-42 76-83-23-185-111-111-201-63 80-10 161 70 194 21 1 32 9 37 19 5 9 8 13 10 13 0-20 1-33 4-38zM126 234c19-22 47-36 67-39v6c-20 5-36 11-46 20l46-18-1 11c-21 1-43 8-66 20zm32-120c2 6-2 12-13 18 3 3 6 4 12 1 5 24 56 15 43-22 2-3 7-3 16-1-6-8-15-10-27-7-14 8-25 12-31 11zm-52 42c-21-1-22-12-5-23-13 1-19 7-18 16 1 8 15 10 23 7zm-65 15c-7-1-15 3-24 11 5-10 11-18 19-23 3 2 5 6 5 12zM917 36c88 40 85 118-5 160 54-24 47-87-16-124a534 534 0 0 0-479 78c37-38 81-69 134-93C653 15 755-2 850 16c38 5 57 16 67 20z"/>
      <g id="_2099611515584">
        <path d="M221 583c14-5 16-21 11-37-1 15-7 25-18 25-1 8 4 10 7 12zM610 697c7-6 4-14-7-12-19 4-31 25-16 42-8-19 5-38 23-30zM697 721c9 1 19 7 29 19-12 0-23-2-30-7-5-7-4-10 1-12zM709 766c-18-3-31-15-25-21 12-4 18 13 25 21zM856 731c28-38 49 2 36 7s3-30-36-7zM836 812c8-11 18-18 29-19 6 5 5 11-1 18-11-2-20-2-28 1zM795 800c10-11 22-16 34-15 3 5 2 10-3 17-13-4-23-4-31-2zM476 656c3-5 0-9-5-11 10-1 15 4 15 14-4 1-7 0-10-3zM472 730c11-1 17-6 20-13-7 5-14 5-20 1v12zM172 606c3 23 12 34 28 32-11-4-17-14-18-28l-10-4zM217 613c7 5 15 5 22 2-7 1-13-1-17-7-3 0-4 2-5 5z" class="fil3"/>
      </g>
      <path d="M178 112c-19 14-23 18-27 19 2 1 4 0 8-2 3 10 17 13 28 7 7-5 11-20-1-25 5-4 10-5 16-5-5-2-16 2-24 6z" class="fil3"/>
      <path d="M172 118c-12 9-4 18 12 19-10-6-12-13-12-19z"/>
      <path d="M193 201v-6c-20 3-56 15-80 51 23-19 58-31 79-32l1-11-44 17c10-9 24-14 44-19z" class="fil5"/>
      <path d="M18 191c-1 6 1 11 4 18 3 4 6 6 9 5-4-6-2-9-2-9 2 4 8 8 17 9-8-12-5-15-5-15 4 7 7 10 16 10-7-11-7-14-6-14 1-1 7 10 16 11-7-10-6-16-6-16 6 9 11 10 17 12-8-10-6-15-6-15 9 9 14 12 21 14-11-12-7-17-7-17 9 10 15 13 21 12-9-13-5-17-5-17 4 8 13 14 18 16-6-12-7-18-4-20 6 8 11 13 14 14-4-14 0-19 0-19 3 8 9 11 13 11-5-12 0-17 0-17s1 5 13 11c-5-9-2-11-2-11l8-1-2-11c-30 0-48 18-69 21-43 2-61 6-73 18z" class="fil3"/>
      <path d="M218 183c2-4 7-8 14-12-8 4-14 5-20 5l6 7z" class="fil5"/>
      <path d="M110 331c22-14 48-45 76-90l-27-7c-1 7 9 12 9 12s-10 2-17-3c-2 5 9 11 9 11s-9 2-15-3c-2 7 8 15 8 15s-6 3-16-1c-1 6 8 14 8 14s-9 1-20-7c-2 4 0 12 10 18 0 0-8 1-16-7-3 3 1 12 9 19 1 0-9 1-17-3 0 0 0 7 5 13-9-1-14-5-14-5s-4 7 9 11c-5 2-12 0-19-4-6 11 13 15 18 17z" class="fil3"/>
    </g>
  </g>
</svg>
