<svg xmlns="http://www.w3.org/2000/svg" fill-rule="evenodd" clip-rule="evenodd" image-rendering="optimizeQuality" shape-rendering="geometricPrecision" text-rendering="geometricPrecision" viewBox="0 0 11304 9771">
  <defs>
    <style>
      .fil0,.fil1{fill:#1a1a1a}.fil1{fill-rule:nonzero}
    </style>
  </defs>
  <g id="Layer_x0020_1">
    <g id="_2524867354560">
      <path d="M10336 2823c453 0 821 367 821 821 0 453-368 821-821 821-454 0-821-368-821-821 0-454 367-821 821-821zm-108 656v-374c0-33-26-58-55-58-209 0-453 117-453 409 0 152 67 246 116 280 40 29 91-21 91-79 0-9-2-22-9-22s-8 7-16 7c-18 0-73-74-73-190 0-184 122-301 292-301v444h-127c-14 0-21 13-21 28 0 29 21 69 50 69h98v324c0 116-37 83-37 103s33 73 73 73c38 0 71-49 71-147v-353h215v490c0 33 26 58 55 58 210 0 453-117 453-409 0-152-67-245-115-280-40-29-91 21-91 79 0 10 1 22 8 22s8-7 17-7c17 0 73 74 73 190 0 185-123 302-292 302v-445h126c14 0 21-13 21-28 0-29-21-69-50-69h-97v-324c0-115 37-82 37-103 0-19-33-73-73-73-39 0-72 50-72 147v353h-215v-116zM7046 4218l313-291 2-870 257-255 4 1235-438 449-1204-9V3264l445-460 793-2-5 1032-266 254 6-313-293-3 1 62-270 268-2-657 271-268 3 324 282-3 2-434h-400l-302 296 7 856z" class="fil0"/>
      <path d="M119 3013h3970v1155l-109 107H0V3119l109-106h10zm3326 1113h-34v-225h-75v-148h55v-265h-55v-101h69v-141l87-85h422v874l-93 91h-109v-317h-174v226l-93 91zm267-500v-282h-174v282h174zm-671-465h321v183h-268v186h255v181h-252v232h272v92l-93 91h-322v-434l-60-45v-156h54v-239l93-91zm-223 965h-437v-202h63v-99h139v118h126v-153l-265-200v-338l93-91h369v287h-184v-102h-132v126l321 241v322l-93 91zm-868 0h-32l-77-212v-98h56v-571l90-84h415v721h-359v153l-93 91zm249-429v-353h-156v353h156zm-529 429l-120-350h-54v259l-93 91h-50v-884l88-81h413v613h-109l103 285-68 67h-110zm-18-530v-252h-156v252h156zm-810 530h-47v-874l93-91h423v874l-93 91h-110v-317H935v226l-93 91zm266-500v-282H935v282h173zm-731-68h173v-306l93-91h110v874l-93 91H550v-385H377v294l-93 91H174v-874l93-91h110v397zm3659-493H130l-77 76v1081h3906l77-76V3065z" class="fil1"/>
      <path d="M10336 21c453 0 821 368 821 821 0 454-368 821-821 821-454 0-821-367-821-821 0-453 367-821 821-821zm389 1269l118-244-252-652h-214l348 896zm-293-596l-18-47h-213l113 291 118-244zm-256 596l118-244-252-652h-214l348 896zM6663 700l-3-325-271 268 3 1027 792 14 438-448-4-1235-257 254-2 871-313 290h-378l-8-445 293 2-6 314 266-254 5-1033-793 3-445 460 1 926-1 286 272-261-7-855 302-297h400l-2 435z" class="fil0"/>
      <path d="M494 419c-12 0-23 11-23 23v409H320c-12 0-22 10-22 22v346h-62V442c0-12-10-23-24-23-12 0-22 11-22 23v801c0 12 10 22 22 22h108c14 0 24-10 24-22V895h150c14 0 24-10 24-22V464h62v779c0 12 10 22 22 22 14 0 24-10 24-22V442c0-12-10-23-24-23H494zm256 846h6c10 0 20-7 22-17l46-212h183c6 0 13-3 17-8 5-5 7-12 5-19l-14-93c-2-10-12-19-22-19H852l77-431h66l140 780c2 12 14 21 26 19s21-14 19-28l-144-799c-2-10-11-19-23-19H910c-10 0-20 9-22 19l-86 478c-2 7 0 14 5 19s10 8 17 8h148l7 47H807c-12 0-20 7-22 17l-52 230c-1 12 5 25 17 28zm757-354c114 0 207-96 207-213v-66c0-117-93-213-207-213h-208c-12 0-22 11-22 23v801c0 12 10 22 22 22 14 0 24-10 24-22V464h184c90 0 160 76 160 168v66c0 93-70 168-160 168h-98c-13 0-24 10-24 22v93c0 12 11 23 24 23h157c57 0 101 48 101 108v131c0 12 11 22 23 22 13 0 24-10 24-22v-131c0-84-67-153-148-153h-134v-48h75zm750-279c0-117-92-213-206-213h-208c-12 0-22 11-22 23v801c0 12 10 22 22 22 14 0 24-10 24-22V464h184c89 0 160 76 160 168v97c0 92-71 168-160 168h-77c-12 0-23 10-23 24 0 12 11 22 23 22h77c114 0 206-96 206-214v-97zm132 371c-12 0-23 11-24 23v17c-2 34 5 69 18 100 33 72 102 120 179 122 66 3 122-9 170-52 42-39 66-94 69-153v-17c4-119-84-219-198-222-128-12-180-104-178-195 1-47 20-90 55-121 29-27 68-43 135-39 57 1 109 36 136 87 5 13 19 16 31 11 11-6 16-19 9-31-33-67-100-110-174-114-79-3-129 16-170 54-41 39-65 93-67 151 2 141 88 241 222 241 87 4 156 83 153 176v17c-2 47-21 90-54 121-31 29-70 43-137 41-60-3-114-39-138-96-12-24-17-52-15-79v-18c0-13-9-24-22-24zm542-178h223v51h-222c-12 0-22 11-22 25v342c0 12 10 22 22 22h389c14 0 24-10 24-22 0-14-10-24-24-24h-365V923h222c12 0 22-10 22-22V801c0-12-10-23-22-23h-223V464h366c14 0 24-10 24-22s-10-23-24-23h-390c-12 0-23 11-23 23v359c0 14 11 24 23 24zm538 440h5c11 0 21-7 23-17l46-212h182c7 0 14-3 18-8 5-5 6-12 5-19l-14-93c-2-10-12-19-22-19h-141l77-431h65l141 780c2 12 14 21 26 19s21-14 19-28l-144-799c-2-10-11-19-23-19h-103c-10 0-21 9-22 19l-86 478c-2 7 0 14 5 19s10 8 17 8h148l7 47h-172c-12 0-21 7-22 17l-52 230c-2 12 5 25 17 28zM26 262h4036c10 0 18 7 18 17v1126c0 10-8 18-18 18H26c-9 0-17-8-17-18V279c0-10 8-17 17-17zm4019 35H44v1091h4001V297z" class="fil1"/>
      <path d="M9703 6749h170l-3-932-171 95 4 837zm-335-389l28 7v-73l-29 7 1 59zm1935-2l-28 7v-73l29 6-1 60zm-1870 84l48 26v-275l-49 25 1 224zm1805-2l-48 26 1-276 48 26-1 224zm-1708 130l78 54-1-588-79 55 2 479zm1612-2l-79 54 1-588 79 55-1 479zm-799-201c-60 2-117 4-159 3-181-4-121-4-143 27l2 352h173l3-172h248l3 172h173l2-352c-21-31 38-31-142-27-43 1-100-1-160-3zm0-137c-60-2-117-4-159-3-181 4-121 4-143-27l2-490 168-107 8 417h248l9-417 167 107 2 490c-21 31 38 31-142 27-43-1-100 1-160 3zm626 516l-5 3h-165l3-935 170 96-3 836z" class="fil0"/>
      <path d="M9367 7183v-312h74v115h120v-115h73v312h-73v-131h-120v131h-74zm407-99h82l-41-98-41 98zm-117 99l159-321h5l155 321h-77l-20-45h-127l-20 45h-75zm427-255h-12v86h16c18 0 33-3 43-11s15-18 15-33-5-25-15-32c-9-7-25-10-47-10zm-84 255v-312h80c26 0 45 2 60 5 14 4 26 9 37 17 12 9 21 19 27 31 7 12 10 25 10 39 0 19-5 37-15 51-10 15-25 27-43 35l95 134h-85l-83-122h-11v122h-72zm365-254h-10v83h13c19 0 33-4 43-11s15-18 15-31c0-15-5-25-15-32-9-6-25-9-46-9zm-85 254v-312h81c24 0 44 2 58 6 15 3 28 9 39 18 11 8 20 19 27 31 6 13 9 27 9 41 0 31-11 56-33 75-23 18-53 27-92 27h-14v114h-75zm246-88c20 12 36 20 49 25 14 4 27 7 39 7 13 0 24-3 32-9 7-5 11-13 11-22 0-12-14-27-42-43-4-2-7-4-10-6l-21-11c-20-12-36-25-45-40-10-14-15-31-15-49 0-26 9-46 28-62s43-24 73-24c11 0 23 1 36 4 13 2 28 6 43 12v73c-15-10-29-17-42-22-14-5-25-8-35-8s-19 2-25 7c-6 4-9 11-9 18 0 6 2 11 6 15 3 5 9 10 16 13l36 21c31 17 52 32 62 46 11 15 16 32 16 51 0 31-10 55-31 74s-48 28-83 28c-11 0-24-1-37-3-14-3-29-7-45-12l-7-83zm257 88v-312h192v65h-120v56h103v64h-103v61h122v66h-194zm318-99h82l-40-98-42 98zm-116 99l159-321h4l156 321h-78l-20-45h-126l-20 45h-75z" class="fil1"/>
      <path fill="#4d4d4d" d="M7545 6007h261v783h-261v-783zm-1749 0h260v783h-260v-783z"/>
      <path d="M6161 5750h357v1296h-357V5750zm922 0h357v1296h-357V5750zm-518 433h472v431h-472v-431z" class="fil0"/>
      <path fill="gray" d="M7887 6240h161v316h-161v-316zm-2333 0h161v316h-161v-316z"/>
      <path d="M9329 8371l166-9 80-107 275-19-28 109 153-8-5 19 136-183 20 75 31-37 252 829-414 21-26-83-74 89-1552 80-179 624-93-306-27 105-106-402-432 23-25-83-75 88-868 45 21-75-111 7 187-718 244-17-16 61 127-7 17-63 243-16-17 67 184-10 90-120 36 139 125-148 49 162 33-124 614-42-22 85h5l22-85 986-67-26 101zm-2832 762l168-643 165-11-63 241 206-14 63-241 165-12-167 643-165 12 62-242-206 14-63 242-165 11zm496-34l497-665 163 620-207 14-60-233-187 250-206 14zm1095-469l21-80-207 14-21 80 207-14zm-45 793l-183-699-83 322-165 11 167-643 536-36-104 401-124 9 61 233-105 402zm581-830l62-83-165 12-21 80 124-9zm-393 422l167-643 537-36-42 160-187 250-247 16-63 242-165 11zm371-25l124-167 290-19-21-78-206 14 104-402 413-28-42 161-248 17-20 80 165-11 101 388-660 45zm495-34l498-665 206-14-42 160-82 6-63 83 124-8-41 160-207 14-62 84 289-20 41 155-661 45zm495-34l498-665 163 621-207 14-61-233-186 249-207 14z" class="fil0"/>
      <path d="M417 8750v-148H268v148h149zm3460-353H64v1150h3961V8397h-148zM212 8545h3665v854H212v-854zm3312 798v-297h148v297h148v-741h-444v148h296v148h-148v-148l-75 75-73 73v445h148zm-222 0v-149h-296v-148h148v-148h-148v-148l-75 75-73 73v445h444zm0-593v-148h-444v148h444zm-518 593v-445h-296v-148l-75 75-73 73v148h296v148h-296v149h444zm0-593v-148h-444v148h444zm-814 593v-297h297v-444h-445v148h296v148h-148v-148l-74 75-74 73v445h148zm-221 0v-370h-148v370h148zm-297 0v-593l-74 75-74 73v445h148zm149-370l73-75 75-73v-223h-445v148h297v75l-75 73-74 75h149zm-667 370v-297h149v297h148v-741H786v148h297v148H934v-148l-74 75-74 73v445h148zm-517 0v-297h148v297h148v-741H565v296H417v-148l-75 75-74 73v445h149z" class="fil1"/>
      <path d="M3969 5775l-28 91 84-5-284 918-3562 242 32-103-147 10c91-301 182-601 273-902 1211-85 2421-168 3632-251zM507 6548l-57 190-116 8 213-690c1130-78 2261-156 3391-234l-257 846-108 9 229-759-3173 219-76 259 166-11 58-191 110-7-161 532-110 8 57-190-166 11zm2992 133L108 6915c86-282 172-564 257-846l109-8-230 758 3173-219 55-183-165 11-35 114-110 8 161-532 387-27-211 690zm-111-519l-35 114 166-11 34-114-165 11zm-540 261l276-19-46 152-387 27 162-533 386-26-46 152-276 19-12 38 277-19-46 152-277 19-11 38zm-627 192l46-152 276-19 12-38-277 19 104-342 387-27-46 152-276 20-12 38 276-20-103 343-387 26zm-309-499l387-27-127 418-276 19-35 114-110 8 161-532zm64 144l-34 114 165-11 35-114-166 11zm-470 33l-35 114 166-12 35-114-166 12zm-65 215l-50 165-111 8 162-533 386-26-127 418-82 5 48 109-156 11-70-157zm-470-327l387-27-162 532-110 8 34-114-165 12-35 114-110 7 161-532zm65 144l-35 115 165-12 35-114-165 11z" class="fil0"/>
    </g>
  </g>
</svg>
