<svg xmlns="http://www.w3.org/2000/svg" fill-rule="evenodd" clip-rule="evenodd" image-rendering="optimizeQuality" shape-rendering="geometricPrecision" text-rendering="geometricPrecision" viewBox="0 0 12969 8169">
  <defs>
    <style>
      .fil1,.fil2,.fil3{fill:#1a1a1a}.fil1,.fil3{fill-rule:nonzero}.fil3{fill:#fff}
    </style>
  </defs>
  <g id="Layer_x0020_1">
    <path fill-rule="nonzero" d="M44 7286h731l-30 27H57v617l-27 24v-668h14zm636 85l-503 452v-452h151v227h66c6 0 12-3 19-7 8-4 15-9 22-15s14-13 22-20c7-7 13-15 20-22 6-7 11-14 16-20 4-6 8-12 10-16l12-33 9-33c3-11 5-22 6-32s2-19 2-27v-2h148zm3 32v1l101-91h-1l30-27h1l11-10-10 10h480l11-7c8-5 13-8 16-10l-19 17-31 27-378 340c6-5 12-11 18-18l15-21c5-7 9-14 13-20s7-11 8-14l78-205h1v-1h54c23 0 46-3 69-8 23-6 43-14 60-26 12-7 24-15 37-22l6-5H790c-11 12-21 25-30 37-12 16-21 29-28 41s-14 25-21 39c-6 14-12 29-17 44-6 16-9 32-11 48v431H532v-240H357c-4 2-7 4-10 7s-6 7-9 10c-2 3-5 7-6 11-2 3-3 6-4 9v203H210c-28 0-54 4-78 10s-46 13-65 20c-3 2-6 3-10 4v28h1006l-30 27H30v-43c-3 2-6 3-8 5-12 6-19 10-22 12l30-27 27-25 408-366h67v-60l151-135zm614 316l6 12c2 4 4 7 7 10s6 5 10 7c3 2 7 3 12 3 6 0 13-2 21-5s18-9 29-16l-224 200c6-6 12-14 16-23s8-18 10-27 4-17 6-23c1-7 1-12 2-15h-190l-34 106H808l53-139c5-15 7-26 6-34s-5-12-12-12c-5 0-11 3-21 7-9 4-19 9-29 14-11 6-20 11-29 16-9 6-16 10-20 12l158-143 271-243 111 289 1 2v2zm-258 11h116l-59-181-57 181zm293 79l39-35c-4 5-7 11-11 18l-9 21c-2 7-3 15-3 23-1 8 1 16 4 24 0 1 1 3 1 5l32 83h-139c-4 1-11 2-22 5-10 2-24 8-41 16-16 8-36 19-59 34l-18 12h343l-30 27h-347c-7 6-15 13-22 19l164-147 118-106v1zm550-394c41 31 62 75 62 132 0 40-9 74-26 100s-43 48-77 64l80 149v-1l49 91h-166l-105-202h-72l-1 72c1 2 2 4 4 5 1 2 4 3 8 3 3 0 8-1 13-3 5-1 11-4 19-8l-6 6c-5 3-10 9-17 15s-15 13-24 21-18 16-28 25c-21 19-46 41-74 66h-46v-275c-1-2-3-5-6-8-3-4-8-6-14-6-4 0-7 1-11 2-5 1-10 3-15 5-11 6-20 11-30 16-9 5-17 9-24 13-8 4-15 9-22 13l122-109 258-232c12 0 25 1 38 3 13 1 25 4 38 8 13 3 25 8 38 13 12 6 24 13 35 22zm-90 142c0-23-6-42-19-55s-32-20-58-20h-88v151h86c25 0 45-6 59-19 13-13 20-32 20-57zm11-285l-16 14-30 27-282 253v-198h124c7-1 14-2 23-3 8-2 17-4 26-6 10-3 19-6 29-10 9-3 18-8 27-13 9-6 19-12 28-19l6-4h-427l30-27h440l2-1c8-5 14-9 20-13zm-376 798l31-28h-1l30-27h1l139-125 1 60c-17 4-36 11-57 21-19 9-41 21-65 37-3 2-7 5-11 7h483l-31 27h-488c-10 9-21 18-32 28zm1106-607c20 31 30 66 30 104 0 33-7 61-20 84-13 24-30 44-52 59s-47 26-76 34c-28 7-58 11-89 11h-37c-4 0-8 0-13 1-4 1-9 2-13 4l-178 159v-255c-1-3-3-6-6-10-3-3-8-5-15-5-3 0-7 0-11 2-4 1-8 3-14 5-10 6-20 11-29 16-10 5-18 9-25 13-8 4-15 8-22 12l366-329c18 0 37 2 56 5s37 8 56 16c18 7 35 17 51 29 15 12 29 27 41 45zm-124 103c0-25-7-45-22-61-13-15-33-22-58-23h-93l1 158h89c25 0 46-6 61-18 14-12 22-31 22-56zm4-307l-328 294v-185h107c6-1 14-2 23-3l27-6c10-3 20-6 30-10s19-9 28-15c11-7 22-14 32-21h-537l30-27h548l4-3c13-8 25-17 36-24zm-452 805l275-246v132h-84c-7 1-15 4-24 7-9 4-18 9-29 14-10 6-20 12-31 18-11 7-21 14-32 21l-7 5h435l-31 27h-442c-10 7-20 15-30 22zm852-356l-154 138c-13-26-20-54-20-86v-3h44c15 0 30-2 44-6 14-3 29-8 44-14 14-7 29-16 42-29zm-37-28c-79-37-119-89-119-155 0-29 7-54 21-75 14-20 32-37 55-50 22-14 47-23 75-30 27-6 55-9 82-9 17 0 35 2 53 4 18 3 36 8 54 14 18 7 34 16 50 27s30 25 41 42c2 2 3 3 3 4 1 2 2 3 3 5l-144 129c6-6 10-13 12-20 3-6 4-13 4-19v-5c0-22-6-39-20-51-15-12-34-18-58-18-9 0-18 1-28 3-9 2-18 5-26 10-7 4-14 10-19 17-4 7-7 15-7 25 0 14 7 26 22 36 17 12 45 24 85 37 3 0 5 1 7 2 2 0 5 1 7 2l-106 95c-9-4-17-7-25-10s-15-7-22-10zm255-133l144-129c-1 2-4 6-8 12s-8 13-13 20c-4 8-9 16-14 24-4 8-8 15-10 20-3 6-5 12-7 19-1 6-2 11-3 17-1 5-1 11-1 17h-88zm-13 95c66 37 100 88 99 152 0 30-6 56-19 77-12 21-29 38-50 51s-45 22-72 28-54 9-83 9c-13 0-28-1-44-3-15-1-31-4-46-8-16-4-32-10-47-16-15-7-29-15-42-24-4-2-8-3-13-3-6 0-14 2-23 4-9 3-18 7-28 12-9 4-19 9-29 15-11 6-20 12-30 18-22 15-45 31-69 49l269-240c0 29 8 51 23 65 16 14 42 21 78 21 9 0 19-1 27-3 9-2 17-6 24-10s13-9 17-16 6-16 6-26c0-19-7-33-21-44s-40-23-77-35c-6-1-12-3-18-5l106-96c12 5 23 9 34 14 10 5 19 9 28 14zm383-85l-151 135v-319h355l-126 113h-78v71zm-5 509l293-262c-3 4-6 10-8 16-3 6-5 13-7 20s-4 14-5 21-2 14-2 20v71h-96c-5 1-11 3-19 6s-17 8-26 13c-9 6-19 12-29 18-10 7-19 14-29 21l-7 5h535l-31 27h-539l-30 24zm-262-235l599-539c-4 6-8 12-12 19l27-25h480l11-7c7-5 12-8 15-10l-428 384c7-5 12-11 18-18s11-14 16-21 9-14 13-20c3-6 6-11 8-14l78-205v-1h55c22 0 45-3 68-8 23-6 44-14 61-26 12-7 24-15 36-22l7-5h-467c-5 9-10 18-15 28-6 10-10 19-13 27-4 7-7 16-10 25s-6 19-8 29-4 20-5 31v33h-109c-1 1-2 1-3 1-4 0-8 0-14 1-6 2-12 5-18 12-5 4-12 10-21 19-8 8-18 16-27 25s-18 17-25 25c-8 7-14 12-16 15-2 1-3 3-4 4-2 1-3 3-4 4 0 2-1 3 0 5 0 1 1 2 3 2h196v110h-225v129h212l-198 177-30 27h-896l30-27h894c4-5 7-9 11-14 4-6 8-11 12-16 3-6 6-11 8-16 2-4 3-8 2-11 0-4-2-5-7-6h-189v-77-32-23-16-7c0-4-1-7-4-9-2-2-5-2-9-2s-8 0-13 2c-5 1-10 3-16 5-5 2-11 4-17 7-6 2-11 5-17 8-13 7-26 14-40 23zm1096-112c1 4 3 8 5 12s5 7 8 10c2 3 6 5 9 7 4 2 8 3 13 3 6 0 13-2 21-5s17-9 28-16l-224 200c7-6 12-14 17-23 4-9 7-18 10-27 2-9 4-17 5-23 1-7 2-12 2-15h-189l-34 106h-161l54-139c4-15 6-26 6-34-1-8-5-12-12-12-5 0-12 3-21 7-10 4-20 9-30 14-10 6-20 11-29 16-9 6-16 10-20 12l159-143 270-243 112 289v2c1 1 1 2 1 2zm-259 11h116l-58-181-58 181zm293 79l39-35c-3 5-7 11-10 18-4 7-7 14-9 21s-4 15-4 23 1 16 4 24c1 1 1 3 2 5l32 83h-140c-3 1-10 2-21 5-11 2-24 8-41 16s-37 19-59 34l-18 12h300v-274l28-24v325h-363c-7 6-14 13-21 19l164-147 117-106v1zm-1835-523h1265l-30 27H2398l31-27zm1837 0h101v397l-28 24v-394h-103l30-27z"/>
    <path d="M2630 4536c-12-3-19-16-16-28 3-13 16-20 28-17l489 133c10 3 17 12 17 22 9 89-20 162-68 214-32 36-74 61-119 76-45 14-93 17-140 8-71-15-137-58-182-134-4-9-3-19 2-26 9-13 21-24 35-31s30-10 47-10c6 1 11 3 15 6l9 8c50 43 94 65 134 67 38 2 74-15 106-51l4-4c8-10 23-11 32-2 10 8 11 23 2 32l-4 5c-42 46-89 68-142 66-50-3-104-29-162-78l-2-3c-7 1-13 3-19 5l-9 6c37 56 89 88 143 99 39 8 80 5 117-7 38-12 73-33 100-63 37-40 60-96 57-165l-474-128zm503 10c12 3 19 16 16 28s-16 20-28 16l-489-132c-10-3-17-12-17-22-9-89 19-162 67-214 33-36 74-62 119-76s94-18 141-8c71 14 137 57 181 134 5 8 4 18-1 25-10 14-21 24-35 31s-30 11-48 10c-5 0-11-2-15-6-57-52-109-77-154-74-44 2-84 30-121 85-7 11-21 14-31 7-11-7-14-22-7-32 45-68 97-103 157-106 56-3 116 24 180 80 7 0 13-2 19-5 3-1 6-3 8-6-36-55-88-87-142-98-39-8-80-5-118 7-37 12-72 33-99 63-37 40-60 96-57 165l474 128zm536 251c19 0 34 15 34 34 0 18-15 33-34 33-18 0-33-15-33-33 0-19 15-34 33-34zm-323-118c0-13 10-23 23-23s23 10 23 23v125h193c13 0 23 11 23 23 0 13-10 23-23 23h-216c-13 0-23-10-23-23v-148zm238-112c13 0 23 10 23 23s-10 23-23 23h-290v290h394c12 0 23 11 23 23 0 13-11 23-23 23h-417c-12 0-23-10-23-23v-336c0-13 11-23 23-23h313zm-337-410c0-13 10-23 23-23s23 10 23 23v310h291c13 0 23 11 23 23 0 13-10 23-23 23h-314c-13 0-23-10-23-23v-333zm441 76c12 0 23 10 23 23s-11 23-23 23h-295v120c0 13-11 23-23 23-13 0-23-10-23-23v-143c0-13 10-23 23-23h318zm-325-53c-13 0-23-11-23-23 0-13 10-23 23-23h325c12 0 23 10 23 23 0 12-11 23-23 23h-325zm-321 514c15 0 28 13 28 29 0 15-13 28-28 28-16 0-29-13-29-28 0-16 13-29 29-29zm-879 165c19 0 34 15 34 34 0 18-15 33-34 33s-34-15-34-33c0-19 15-34 34-34zm363-692c4-12 18-17 30-13 11 5 17 18 12 30l-168 420c-4 10-13 15-23 15l-193-1-1 186c0 12-11 22-23 22-13 0-23-10-23-23l1-208c0-12 10-23 23-23l202 1 163-406zm-428 734c0 13-11 23-23 23-13 0-23-10-23-23l2-745c0-12 10-22 23-22h362c13 0 23 10 23 22 0 5-1 9-3 12l-163 354c-5 11-18 16-30 11-11-5-16-19-11-30l148-324h-303l-2 722zm1870-745c17 0 30 14 30 31 0 16-13 30-30 30-16 0-30-14-30-30 0-17 14-31 30-31zm86 386c1 2 1 3 2 4l177 357h73l-316-630c-6-11-1-25 10-30 11-6 25-1 31 10l333 663c6 11 1 25-10 31-3 2-7 2-10 2h-125c-10 0-18-6-22-14l-177-358h-147v349c0 13-10 23-23 23s-23-10-23-23v-744c0-8 5-16 13-20 11-6 25-1 31 10l183 370zm-181-11h124l-124-251v251zM942 4156c17 0 30 14 30 31 0 16-13 30-30 30s-30-14-30-30c0-17 13-31 30-31zm86 387c0 1 1 2 1 3l177 357h74l-317-630c-5-11-1-25 11-30 11-6 25-1 30 10l334 663c6 11 1 25-10 31-4 2-7 2-11 2h-125c-9 0-18-6-21-14l-177-358H847v349c0 13-11 23-23 23-13 0-23-10-23-23v-744c0-8 4-16 13-20 11-6 25-1 30 10l184 371zm-181-12h124l-124-251v251zm-719-175c18 0 32 13 32 31 0 17-14 31-32 31-17 0-31-14-31-31 0-18 14-31 31-31zm25-49c0 13-10 23-23 23-12 0-23-10-23-23v-128H46v264h404v-287c0-12 10-23 23-23h116c12 0 23 11 23 23v770c0 13-11 23-23 23H479c-13 0-23-10-23-23v-325H46v302h65v-228c0-13 11-23 23-23 13 0 23 10 23 23v251c0 13-10 23-23 23H23c-13 0-23-10-23-23v-348c0-13 10-23 23-23h456c13 0 23 10 23 23v325h64v-724h-70v287c0 13-10 23-23 23H23c-13 0-23-10-23-23v-310c0-12 10-23 23-23h107c13 0 23 11 23 23v151zm1294-151c17 0 31 14 31 31s-14 31-31 31-31-14-31-31 14-31 31-31zm84 54c-12 0-23-10-23-23 0-12 11-23 23-23h150c76 0 138 16 181 53 44 37 68 95 66 179-2 86-28 143-72 181-35 30-81 48-134 57l176 250c7 11 5 25-5 32-11 8-25 5-32-5l-197-280c-2-3-4-7-4-11-2-13 7-24 20-26 60-7 111-21 146-52 34-29 54-75 56-147 2-68-16-115-50-143-34-29-86-42-151-42h-150zm-24 338c-7-11-4-25 6-32 11-7 25-4 32 7l196 294c7 10 4 24-7 31-10 7-25 5-32-6l-195-294zm49 350c0 12-10 23-23 23s-23-11-23-23v-188c0-13 10-23 23-23s23 10 23 23v188zm-97 0c0 12-10 23-23 23s-23-11-23-23v-627c0-13 10-23 23-23h172c148 5 215 7 224 152 1 11 0 21-1 31-3 39-20 71-48 93-27 21-63 34-108 37-18 1-37 0-58-2-13-1-22-12-21-25 1-12 13-22 25-20 18 1 35 2 51 1 35-2 63-12 82-27 18-14 29-35 32-61 0-8 1-15 0-24-7-104-60-105-179-109-49-2-99 0-148 0v604zm309-33c17 0 31 13 31 31 0 17-14 30-31 30s-30-13-30-30c0-18 13-31 30-31z" class="fil1"/>
    <path d="M9592 0h3377v2444H9592V0zm437 200h2555v1489H9977V200h52zm2451 97h-2398v1295h2398V297zm-2275 1767h-185v132h13v-121h43v164h-99v-217h271v174h14v-339h-14v154h-271v-197h99v144h-43v-101h-13v111h185v-154h100v425h-100v-175zm404 74h-179l-21 58h12l18-48h45l-33 91h-104l52-144h240l37 101h12l-123-339h-12l82 227h-232l99-270h93l155 425h-105l-36-101zm-64-281h-13l-67 184h109l-25-70-22 60h-46l64-174zm291 0v339h13v-196h39l144 196h15l-146-196h43c33 0 54-13 54-47 0-32-24-42-52-42h-54v78h-43v-121h97c52 0 95 29 95 85 0 41-21 72-58 84l149 202h-121l-119-161v161h-99v-425h149c85 0 155 49 155 139 0 49-20 94-64 119l-8 4-25-34 10-6c31-19 44-47 44-83 0-66-51-96-112-96h-106zm379 0v339h13v-190h97c35 0 51-15 51-49 0-31-16-46-47-46h-58v85h-43v-128h101c54 0 90 34 90 89 0 58-36 92-94 92h-54v190h-99v-425h150c90 0 153 51 153 143 0 86-56 146-143 146h-47v-43h47c63 0 100-41 100-103 0-68-44-100-110-100h-107zm533 19l4-12c-27-11-48-13-80-13-55 0-107 27-107 89 0 49 25 82 69 102l8 4-14 41-10-5c-61-27-96-75-96-142 0-86 70-132 150-132 53 0 80 7 126 30l8 4-34 93-10-5c-28-15-57-25-89-25-25 0-51 6-51 35 0 35 22 46 50 62 50 26 86 49 86 113 0 58-51 76-101 76-32 0-65-10-95-23l-5 12c33 15 64 21 100 21 57 0 115-20 115-86 0-62-32-96-88-119l-9-4 15-40 9 4c73 29 116 79 116 159 0 91-76 129-158 129-54 0-99-13-146-39l-7-4 34-92 10 6c33 17 72 33 109 33 23 0 58-3 58-33 0-46-29-57-64-76-43-23-72-46-72-99 0-55 45-78 94-78 26 0 51 5 75 14zm234 266h170v97h-270v-425h267v97h-167v47h-43v-90h167v-11h-181v339h185v-11h-171v-217h204v96h-148v-42h105v-11h-118v131zm462-4h-180l-21 58h13l17-48h46l-33 91h-104l52-144h240l36 101h13l-123-339h-13l83 227h-232l98-270h94l154 425h-104l-36-101zm-65-281h-12l-68 184h110l-26-70-22 60h-45l63-174zm-948-824h-433v307h32v-282h100v382h-232V933h633v407h32V549h-32v359h-633V449h232v335h-100V549h-32v259h433V449h232v991h-232v-407z" class="fil2"/>
    <g id="_2853937994384">
      <path d="M5872 200h2555v1489H5820V200h52zm1402 833h-433v307h32v-282h100v382h-232V933h633v407h32V549h-32v359h-633V449h232v335h-100V549h-32v259h433V449h232v991h-232v-407zm1048-736H5924v1295h2398V297z" class="fil1"/>
      <path d="M6048 2064h-186v132h14v-121h43v164h-100v-217h272v174h14v-339h-14v154h-272v-197h100v144h-43v-101h-14v111h186v-154h99v425h-99v-175zm404 74h-180l-21 58h13l17-48h46l-33 91h-104l52-144h240l36 101h13l-123-339h-13l83 227h-232l99-270h93l155 425h-105l-36-101zm-65-281h-12l-68 184h110l-26-70-22 60h-45l63-174zm291 0v339h14v-196h39l144 196h15l-146-196h42c34 0 55-13 55-47 0-32-24-42-52-42h-54v78h-43v-121h97c52 0 94 29 94 85 0 41-20 72-58 84l150 202h-122l-118-161v161h-100v-425h150c85 0 155 49 155 139 0 49-20 94-64 119l-8 4-25-34 9-6c32-19 45-47 45-83 0-66-51-96-112-96h-107zm379 0v339h14v-190h97c35 0 50-15 50-49 0-31-16-46-46-46h-58v85h-43v-128h101c54 0 89 34 89 89 0 58-35 92-93 92h-54v190h-100v-425h150c90 0 154 51 154 143 0 86-56 146-144 146h-46v-43h46c64 0 101-41 101-103 0-68-45-100-111-100h-107zm534 19l4-12c-27-11-48-13-80-13-56 0-107 27-107 89 0 49 25 82 69 102l8 4-15 41-10-5c-60-27-95-75-95-142 0-86 70-132 150-132 53 0 80 7 126 30l8 4-34 93-10-5c-29-15-57-25-90-25-24 0-50 6-50 35 0 35 22 46 50 62 49 26 86 49 86 113 0 58-51 76-101 76-33 0-66-10-95-23l-5 12c33 15 64 21 100 21 57 0 114-20 114-86 0-62-31-96-87-119l-9-4 14-40 10 4c73 29 115 79 115 159 0 91-75 129-157 129-54 0-99-13-146-39l-8-4 35-92 10 6c32 17 72 33 109 33 23 0 58-3 58-33 0-46-29-57-64-76-43-23-72-46-72-99 0-55 45-78 93-78 27 0 51 5 76 14zm233 266h171v97h-270v-425h266v97h-167v47h-43v-90h168v-11h-181v339h184v-11h-171v-217h204v96h-147v-42h104v-11h-118v131zm462-4h-179l-21 58h13l17-48h46l-33 91h-104l52-144h239l37 101h13l-123-339h-13l83 227h-232l98-270h94l154 425h-104l-37-101zm-64-281h-13l-67 184h109l-25-70-22 60h-45l63-174z" class="fil2"/>
    </g>
    <path d="M0 0h4367v1283H0V0zm4088 1003l-283-728c-3-8-16-8-19 0l-232 600h-375V708h292c5 0 10-5 10-9V581c0-4-5-8-10-8h-292V404h211V269h-614c-117 3-226 80-226 217 0 88 43 160 121 197 53 25 105 25 110 25 47 0 93 28 93 82 0 59-42 90-93 90-48 0-89-25-91-78 0-3-5-8-10-8h-117c-6 0-11 5-10 8 2 126 100 212 228 212 119 0 232-85 232-224 0-87-44-153-121-188-54-25-104-25-111-25-42-2-93-36-93-91 0-49 44-83 93-83h255v603c0 3 5 8 10 8h595c4 0 9-2 9-6l146-415 147 415c1 4 5 6 8 6h129c6 0 11-6 8-11zM2274 269h-241c-5 0-10 5-10 9v128h251c16 0 110 5 110 87s-92 84-110 84h-251v298h-85c-29-61-58-122-85-184 74-27 137-87 137-200 0-220-210-222-252-222h-241c-4 0-9 5-9 9v126h250c23 0 110 5 110 87s-79 86-110 86h-250v298h-79l-234-600c-3-8-16-8-18 0L924 875h-79V278c0-4-4-9-10-9H713c-6 0-11 5-11 9v458H420v-1H278v271c0 3 4 8 10 8h122c7 0 10-5 10-8V874h282v132c0 3 5 8 11 8h298c4 0 9-2 10-6l145-415 147 415c1 4 6 6 8 6h298c6 0 10-5 10-8V713h81l135 295c1 3 7 6 10 6h299c6 0 9-5 9-8V714h111c17 0 251-2 251-221s-222-224-251-224zM420 592V278c0-4-3-9-10-9H288c-6 0-10 5-10 9v314h142zm1763-450H142v999h4082V142H2183zM538 2886H254v201h21v-185h66v251H189v-333h415v267h21v-518h-21v235H189v-301h152v220h-66v-154h-21v170h284v-236h152v650H538v-267zM48 2331h4319v994H0v-994h48zm4222 96H97v801h4173v-801zm-3114 571H881l-32 89h20l26-72h70l-50 138H756l79-220h367l56 154h20l-189-518h-19l126 348H841l151-414h143l236 650h-159l-56-155zm-99-429h-19l-103 282h167l-39-107-33 91h-70l97-266zm446 0v518h21v-300h59l221 300h22l-223-300h65c51 0 83-19 83-72 0-48-36-64-79-64h-83v120h-65v-186h148c80 0 144 46 144 130 0 63-32 111-88 129l229 309h-187l-181-247v247h-152v-650h229c130 0 237 75 237 212 0 75-31 144-98 182l-12 7-39-53 15-8c48-29 68-73 68-128 0-100-78-146-171-146h-163zm579 0v518h21v-290h149c53 0 77-24 77-75 0-47-25-71-71-71h-89v130h-66v-196h155c83 0 137 53 137 137 0 89-54 141-143 141h-83v290h-152v-650h229c138 0 235 78 235 219 0 131-86 223-220 223h-71v-66h71c97 0 155-62 155-157 0-105-69-153-170-153h-164zm816 29l7-18c-42-17-73-20-122-20-85 0-164 41-164 135 0 76 38 127 105 157l13 6-23 62-15-7c-93-42-146-115-146-218 0-131 107-201 230-201 81 0 122 11 192 46l13 6-53 142-15-8c-44-22-88-38-137-38-37 0-78 9-78 53 0 55 34 72 77 95 76 41 132 75 132 173 0 89-78 116-155 116-49 0-100-14-145-34l-7 18c49 22 97 33 152 33 88 0 176-31 176-133 0-94-49-146-134-181l-14-6 22-62 15 6c111 45 176 120 176 243 0 140-115 198-241 198-82 0-151-20-223-59l-11-7 53-140 15 8c49 26 110 51 166 51 36 0 89-4 89-51 0-69-44-87-98-116-65-35-110-70-110-152 0-83 68-119 143-119 41 0 78 8 115 22zm358 407h261v148h-413v-650h408v148h-256v72h-66v-138h256v-16h-277v518h283v-16h-262v-332h312v147h-225v-66h159v-16h-180v201zm707-7h-275l-32 89h20l26-72h70l-50 138h-160l80-220h367l55 154h20l-188-518h-20l127 348h-355l151-414h143l236 650h-160l-55-155zm-99-429h-19l-103 282h167l-39-107-33 91h-70l97-266zM1438 5914v470h-205l62 169h-175l-32-91-22-60-7-18H857l-61 169H621l106-292H549v292H382v-292H167v292H0v-711h167v258h310v-186h-23v168h-72v-240h167v329H95v-257H72v567h23v-292h359v292h23v-292h353l-107 292h22l61-169h303l62 169h21l-61-169h235v-470h251c142 0 260 82 260 232 0 49-13 96-38 135h234v272h23v-317h162c58 0 85-27 85-83 0-52-27-78-78-78h-97v143h-72v-215h169c91 0 150 59 150 150 0 97-60 155-157 155h-90v317h-167v-272h-245l-42-58 16-10c53-31 75-79 75-139 0-110-87-160-188-160h-179zm-329 398l62 169-62-169zm2534 241h224l55-151h-76l-29 79h-555v-319h-71v391h452zm-649-408h268v-231h303v17h-280v151h72v-79h280v-161h-446v231h-323l-23 67 14 7c94 38 147 95 147 198 0 111-97 145-192 145-61 0-113-11-167-35l7-20c50 22 105 37 160 37 84 0 169-30 169-127 0-107-61-145-144-189-47-26-84-44-84-104 0-49 44-59 85-59 54 0 102 18 149 42l17 9 58-155-14-7c-77-39-122-50-210-50-135 0-252 76-252 220 0 71 23 129 66 174h-185c26-39 40-89 40-145 0-154-106-239-257-239h-251v349h72v-277h179c111 0 186 52 186 167 0 65-25 116-69 145v72h395l25-68-14-6c-73-34-115-89-115-172 0-104 86-148 180-148 53 0 88 3 133 22l-7 20c-41-15-82-24-126-24-82 0-157 39-157 130 0 90 49 128 121 166 58 32 107 51 107 127 0 51-58 56-97 56-62 0-128-28-182-56l-17-9-58 154 13 7c78 43 154 65 244 65 138 0 264-64 264-217 0-87-30-152-84-200zm-2158 26l94-257h21l-139 380h389l-165-452H879l-119 329h76zm129-257h21l112 308H915l43-117 36 100h77l-106-291zm473 487v80h23v-329h65l242 329h24l-244-329h71c56 0 91-20 91-78 0-53-40-71-86-71h-91v131h-72v-203h163c87 0 158 50 158 143 0 69-35 121-97 141l250 338h-204l-198-270v270h-167v-152h72zm1919-9h286v71h-358v-363h342v161h-247v-72h175v-18h-198v221zm774-8h-300l-29 79h-77l55-151h401l61 169h22l-207-567h-20l138 380h-388l164-452h157l259 711h-175l-61-169zm-108-470h-21l-113 308h183l-42-117-37 100h-76l106-291zM5378 2839h3377v2445H5378V2839zm689 1898h34v152h-34v-152zm254 0v152h-33v-152h33zm0 291v35h-34v-120h-185v120h-35v-154h254v119zm-178-162h103v-129h34v164h-171v-164h34v129zm137 197h-34v-109h34v109zm-171 0v-109h34v109h-34zm443-77h-138l-16 44h10l13-36h35l-25 69h-80l40-110h184l28 77h10l-95-260h-9l63 175h-178l76-208h71l119 326h-80l-28-77zm-50-216h-9l-52 142h84l-20-54-16 46h-35l48-134zm224 0v260h10v-150h30l111 150h11l-112-150h32c26 0 42-10 42-36 0-24-18-33-39-33h-42v60h-33v-93h75c39 0 72 23 72 66 0 31-16 55-45 64l115 155h-93l-91-124v124h-76v-326h114c66 0 119 38 119 107 0 37-15 72-49 91l-6 3-19-26 7-4c24-15 34-37 34-64 0-51-39-74-86-74h-81zm290 0v260h11v-145h74c27 0 39-12 39-38 0-24-12-36-36-36h-44v66h-33v-99h77c42 0 69 27 69 69 0 45-27 71-72 71h-41v145h-77v-326h115c69 0 118 39 118 110 0 66-43 112-110 112h-36v-33h36c49 0 77-31 77-79 0-53-34-77-85-77h-82zm409 15l4-9c-21-9-37-10-62-10-42 0-82 20-82 68 0 38 19 63 53 78l6 3-11 31-8-3c-46-21-73-58-73-109 0-66 54-101 115-101 41 0 62 5 97 23l6 3-26 71-8-4c-22-11-44-19-68-19-19 0-39 4-39 27 0 27 17 36 38 47 38 21 66 38 66 87 0 44-39 58-77 58-25 0-50-7-73-17l-4 9c25 11 49 16 77 16 43 0 88-15 88-66 0-47-25-73-67-91l-7-3 11-31 7 3c56 23 88 60 88 122 0 70-57 99-120 99-42 0-76-10-112-29l-6-4 27-70 7 4c25 13 55 25 84 25 17 0 44-2 44-25 0-35-22-44-49-58-33-18-55-35-55-76 0-42 34-60 72-60 20 0 39 4 57 11zm180 204h131v74h-208v-326h205v74h-128v36h-33v-69h128v-8h-139v260h142v-8h-131v-167h156v74h-113v-33h80v-8h-90v101zm354-3h-138l-16 44h10l13-36h35l-25 69h-80l40-110h184l28 77h10l-95-260h-9l63 175h-178l76-208h71l119 326h-80l-28-77zm-49-216h-10l-52 142h84l-19-54-17 46h-35l49-134zM6067 3056h2000v1523H6067V3056zm175 228h517v497h-114v-383h-517v-281h1878v1095h-114v-981H6242v53zm0 1120h1650v-53h-519v-392h-612v392h-114v-506h840v392h519v281H6128V3423h114v981zm1133-1120h114v497h-114v-497zm-478 423h339v-423h114v536h-567v-536h114v423zm453 644h-114v-359h114v359zm-567 0v-359h114v359h-114zM10281 3056h2000v1523h-2000V3056zm175 228h517v497h-114v-383h-517v-281h1877v1095h-114v-981h-1649v53zm0 1120h1649v-53h-518v-392h-613v392h-114v-506h841v392h518v281h-1877V3423h114v981zm1132-1120h114v497h-114v-497zm-477 423h339v-423h114v536h-567v-536h114v423zm453 644h-114v-359h114v359zm-567 0v-359h114v359h-114z" class="fil2"/>
    <g id="_2853937996816">
      <path d="M10280 4737h35v152h-35v-152zm255 0v152h-34v-152h34zm0 291v35h-34v-120h-186v120h-34v-154h254v119zm-178-162h102v-129h35v164h-172v-164h35v129zm137 197h-35v-109h35v109zm-172 0v-109h35v109h-35zM10765 4986h-137l-16 44h10l13-36h35l-25 69h-80l40-110h184l27 77h10l-94-260h-10l64 175h-178l75-208h72l118 326h-80l-28-77zm-49-216h-10l-51 142h84l-20-54-17 46h-35l49-134zm223 0v260h11v-150h29l111 150h11l-111-150h32c26 0 42-10 42-37 0-23-18-32-40-32h-41v60h-33v-93h74c40 0 73 23 73 65 0 32-16 56-45 65l115 155h-94l-90-124v124h-77v-326h115c65 0 119 38 119 106 0 38-16 73-49 92l-6 3-20-26 8-4c24-15 34-37 34-65 0-50-39-73-86-73h-82zm291 0v260h10v-145h75c26 0 38-12 38-38 0-24-12-36-35-36h-45v66h-33v-99h78c41 0 68 27 68 69 0 44-27 71-71 71h-42v145h-76v-326h115c69 0 118 39 118 110 0 66-43 112-110 112h-36v-33h36c48 0 77-31 77-79 0-53-34-77-85-77h-82zm409 15l3-9c-21-9-36-10-61-10-43 0-82 20-82 68 0 38 19 63 52 78l7 3-11 31-8-3c-46-21-73-58-73-109 0-66 54-101 115-101 41 0 61 5 97 23l6 3-27 71-7-4c-22-11-44-19-69-19-18 0-39 4-39 27 0 27 17 36 39 47 38 21 66 38 66 87 0 44-39 58-78 58-25 0-50-7-73-17l-3 9c25 11 49 16 76 16 44 0 88-15 88-66 0-47-24-73-67-91l-7-3 11-31 8 3c55 23 88 60 88 122 0 70-58 99-121 99-41 0-75-10-111-29l-6-4 26-70 8 4c25 13 55 25 83 25 18 0 45-2 45-25 0-35-22-44-49-58-33-18-56-35-56-76 0-42 35-60 72-60 21 0 39 4 58 11zm179 204h131v74h-207v-326h204v74h-128v36h-33v-69h129v-8h-139v260h141v-8h-131v-167h157v74h-113v-33h80v-8h-91v101zm355-3h-138l-16 44h10l13-36h35l-25 69h-80l40-110h184l28 77h10l-95-260h-10l64 175h-178l75-208h72l119 326h-81l-27-77zm-50-216h-10l-51 142h84l-20-54-17 46h-34l48-134z" class="fil2"/>
    </g>
    <path d="M5997 7704h110v144h96v-381h-96v144h-110v-144h-97v381h97v-144zm454-237h-88l-133 381h103l24-77h102l24 77h104l-136-381zm-72 219l27-111h3l27 111h-57zm435 162h120l-103-131c46-14 74-54 74-125-2-89-63-125-141-125h-152v381h97v-121h17l88 121zm-105-204v-87h57c60 0 60 87 0 87h-57zm250 204h96v-111h57c92 0 138-68 138-135 0-68-46-135-139-135h-152v381zm96-197v-94h56c58-1 58 95 0 94h-56zm218 133c35 46 84 69 130 69 69 0 147-40 150-114 4-93-63-117-131-129-30-7-50-18-51-36 2-44 70-45 110-3l63-48c-39-48-84-61-130-61-70 0-138 39-138 114 0 72 56 111 117 121 32 4 67 16 65 38-2 41-86 39-124-8l-61 57zm419-226h167v-91h-265v381h265v-91h-167v-57h154v-83h-154v-59zm406-91h-88l-133 381h103l24-77h102l24 77h104l-136-381zm-72 219l27-111h3l27 111h-57zM7067 6629l-342-2 28-73c16-42 42-81 75-112 19-18 40-34 63-48l-34-70c-58 30-106 73-142 123-44 63-69 138-69 216 0 64 16 126 46 180 31 55 76 104 132 140l-59 91c-71-47-128-108-167-179-39-70-60-150-60-232 0-101 32-197 89-278 57-80 138-144 236-183l46-18 128 266-56 21c-30 10-56 27-78 48l-1 1 165 1 165-1-1-1c-22-21-49-38-78-48l-56-21 128-266 46 18c98 39 179 103 236 183 57 81 89 177 89 278 0 82-21 162-60 232-39 71-96 132-167 179l-59-91c56-36 101-85 131-140 31-54 47-116 47-180 0-78-25-153-69-216-36-50-84-93-142-123l-34 70c23 14 44 30 63 48 33 31 58 70 75 112l28 73-342 2v-54 54zm0 68h339l-28 74c-17 43-42 82-74 114-19 18-39 33-61 47l112 232c91-45 167-111 221-189 64-90 100-198 100-312 0-113-36-221-100-312-63-91-155-165-267-210l40-100c132 53 240 140 316 249 76 108 119 238 119 373 0 136-43 265-119 374-76 108-184 195-316 248l-46 19-207-428 57-20c29-11 54-27 75-48l2-2h-326l2 2c21 21 46 37 75 48l56 20-206 428-47-19c-131-53-239-140-315-248-76-109-119-238-119-374 0-135 43-265 119-373 76-109 184-196 315-249l41 100c-112 45-204 119-268 210-63 91-99 199-99 312 0 114 36 222 99 312 55 78 131 144 222 189l112-232c-22-14-43-29-61-47-32-32-57-71-74-114l-28-74h339z" class="fil1"/>
    <g>
      <path d="M9592 5725h3377v2444H9592z" class="fil2"/>
      <g id="_2853938000304">
        <path d="M10211 7704h109v144h97v-381h-97v144h-109v-144h-97v381h97v-144zm453-237h-87l-133 381h103l24-77h101l25 77h103l-136-381zm-72 219l28-111h3l26 111h-57zm436 162h120l-104-131c47-14 75-54 75-125-2-89-63-125-141-125h-152v381h97v-121h17l88 121zm-105-204v-87h56c61 0 61 87 0 87h-56zm250 204h96v-111h56c92 0 139-68 139-135 0-68-46-135-139-135h-152v381zm96-197v-94h56c58-1 58 95 0 94h-56zm218 133c35 46 84 69 129 69 70 0 148-40 151-114 4-93-64-117-131-129-30-7-50-18-51-36 2-44 70-45 110-3l63-48c-40-48-84-61-130-61-70 0-138 39-138 114 0 72 56 111 117 121 31 4 66 16 65 38-3 41-86 39-125-8l-60 57zm418-226h168v-91h-265v381h265v-91h-168v-57h155v-83h-155v-59zm406-91h-87l-133 381h103l24-77h101l25 77h103l-136-381zm-72 219l28-111h3l26 111h-57zM11280 6629l-342-2 29-73c16-42 42-81 75-112 18-18 39-34 62-48l-34-70c-57 30-106 73-141 123-44 63-70 138-70 216 0 64 17 126 47 180 31 55 75 104 131 140l-59 91c-70-47-127-108-166-179-39-70-61-150-61-232 0-101 33-197 90-278 56-80 137-144 235-183l47-18 128 266-56 21c-30 10-57 27-79 48l-1 1 166 1 165-1-1-1c-22-21-49-38-79-48l-56-21 128-266 47 18c98 39 179 103 236 183 57 81 89 177 89 278 0 82-22 162-61 232-39 71-95 132-166 179l-59-91c56-36 101-85 131-140 30-54 47-116 47-180 0-78-25-153-70-216-35-50-83-93-141-123l-34 70c23 14 44 30 62 48 33 31 59 70 76 112l28 73-342 2v-54l-1 54zm1 68h339l-29 74c-16 43-41 82-74 114-18 18-38 33-60 47l112 232c91-45 166-111 221-189 63-90 99-198 99-312 0-113-36-221-99-312-64-91-155-165-267-210l40-100c131 53 240 140 315 249 76 108 119 238 119 373 0 136-43 265-119 374-75 108-184 195-315 248l-47 19-206-428 56-20c29-11 54-27 75-48l3-2h-327l3 2c21 21 46 37 75 48l56 20-206 428-47-19c-131-53-239-140-315-248-76-109-119-238-119-374 0-135 43-265 119-373 76-109 184-196 315-249l40 100c-111 45-203 119-267 210-63 91-99 199-99 312 0 114 36 222 99 312 55 78 130 144 221 189l113-232c-23-14-43-29-61-47-32-32-58-71-74-114l-29-74h340z" class="fil3"/>
      </g>
    </g>
  </g>
</svg>
