<svg xmlns="http://www.w3.org/2000/svg" viewBox="0 0 2415 1493">
    <path fill="#333" d="M1260 1486v-35l15-1c7 0 11-4 11-12v-199l-24-2v-36h77l121 197h1v-159l-28-2v-36h105v35l-16 1c-7 0-10 5-10 13v236h-50l-124-200h-1v162l28 2v36h-105zM85 1448c34 0 51-14 51-42 0-14-7-25-22-31-8-4-19-8-31-12-13-3-24-6-32-10-9-4-17-9-26-15-17-12-25-32-25-58s9-47 27-62 42-22 71-22c30 0 57 6 82 17v65l-44 3v-25c0-4 0-8-1-10-3-5-14-8-31-8s-29 3-37 9-13 16-13 28c0 9 4 17 11 24 4 5 11 8 20 11s19 7 29 10 19 6 27 10 16 9 25 15c17 13 26 33 26 60s-10 48-29 64c-19 15-45 23-77 23-31 0-60-6-85-18v-68l44-3v27c0 4 1 7 2 9s4 4 10 6 15 3 28 3zm1124-268v271l24 1v34h-102v-32l14-2c9-1 13-5 13-13v-212c0-6-4-10-11-10l-15-1v-36h77zm-205 275c31 0 47-25 47-76 0-25-3-44-10-58-7-13-19-19-36-19-16 0-28 6-36 19-8 12-11 29-11 51 0 40 7 66 22 76 6 5 15 7 24 7zm-98-77c0-21 3-39 9-55s15-28 25-36c21-15 43-23 68-23 17 0 31 3 43 8 12 6 21 12 28 20 7 7 13 17 17 31 5 14 7 31 7 49 0 40-9 70-28 90-20 20-44 31-74 31s-53-10-70-29c-17-20-25-48-25-86zm-128 77c31 0 47-25 47-76 0-25-4-44-11-58-7-13-19-19-35-19-17 0-29 6-36 19-8 12-12 29-12 51 0 40 7 66 22 76 7 5 15 7 25 7zm-99-77c0-21 3-39 10-55 6-16 14-28 25-36 20-15 43-23 67-23 17 0 32 3 44 8 12 6 21 12 28 20 6 7 12 17 17 31s7 31 7 49c0 40-10 70-29 90s-44 31-73 31c-30 0-54-10-71-29-16-20-25-48-25-86zm-231 60v-209c0-4-1-8-2-9-2-2-5-3-9-3l-15-1v-36h77v116c14-21 35-32 62-32 22 0 39 6 51 19 11 12 17 31 17 56v112l25 1v34H552v-32l14-2c4 0 7-2 9-3 2-2 3-6 3-11v-88c0-15-2-27-7-35s-14-12-27-12c-14 0-25 5-33 13-8 9-12 19-12 31v104l24 1v34H421v-32l14-2c5 0 8-2 10-3 2-2 3-6 3-11zm-176-62c0 24 4 43 13 57 9 13 23 20 40 20s34-6 51-19l19 33c-21 17-46 25-77 25-30 0-54-9-72-29-18-19-26-48-26-85 0-38 10-67 30-86s43-28 68-28 49 6 71 18v55l-40 3v-20c0-8-3-13-8-15-6-2-12-2-18-2-34 0-51 24-51 73zm2089-73c-7-3-15-4-25-4s-18 2-23 7c-6 4-9 10-9 16 0 7 1 12 3 15 2 4 5 7 10 9 7 4 16 7 26 10s17 5 22 6c5 2 11 5 18 8 8 4 13 8 17 12 10 11 15 25 15 41 0 22-8 38-24 51-15 12-35 18-59 18-35 0-61-5-79-14v-59l39-3v20c0 13 12 19 36 19s36-8 36-26c0-6-2-11-6-15-5-4-9-7-13-8-4-2-8-3-14-5-6-1-11-3-16-4-6-1-11-3-17-6-7-2-13-6-21-10-14-10-22-26-22-48s8-39 24-51 35-18 59-18 48 6 71 17v52l-38 3v-18c0-8-4-12-10-15zm-134 149v34h-70v-28c-16 23-39 34-69 34-45 0-67-25-67-74v-100c0-7-4-11-11-12h-13v-36h75v136c0 16 2 27 7 35 4 7 13 11 26 11 14 0 24-4 33-12 8-8 12-18 12-30v-91c0-4-1-8-3-9-1-2-4-3-8-4h-14v-36h76v169c0 4 1 7 2 9 1 1 4 2 9 3l15 1zm-334-11l-26-35-36 45 20 1v34h-89v-34l13-1c7-1 13-4 17-10l50-62-53-73-22-3v-33h100v34l-12 1c-4 0-6 2-7 4s-1 5 1 7l25 33 33-43-18-1v-35h87v34l-12 1c-6 0-12 4-18 10l-47 60 56 75 22 2v34h-102v-34l13-1c4 0 6-1 7-3s0-5-2-7zm-223-177c22 0 39 5 51 16 13 10 19 25 19 44 0 12-3 23-8 33-6 9-12 17-20 22-8 6-18 10-29 14-20 5-41 8-65 8 1 15 5 28 14 37s22 14 39 14c18 0 36-6 54-19l16 35c-6 5-15 10-29 16-14 5-29 8-47 8-35 0-60-10-76-29-17-20-25-46-25-80s9-62 28-85 45-34 78-34zm-19 98c10-2 20-6 29-12 8-7 13-15 13-23 0-18-9-27-26-27-16 0-28 7-37 20-8 12-13 27-14 45 13 0 24-1 35-3zM1138 733l9-13v-1l60-105 61 105v1l8 13 163 262c-4 5-7 10-10 16v1l-1 1s0 1-1 1v2l-1 1v2l-1 1v2h-1c0 2-1 3-1 4v1c-3 8-4 17-4 26H996c0-21-7-41-20-58l162-262zm113 0h-87l-129 207 29 48 48-78 48 78 47-78 48 78 48-78 47 78 30-48-129-207zm307-653l211 366c-18 11-32 27-40 47l-89-3-219-7h-137l60-105v-1l153-286 1 1h1l59-12zm-51 12h17l1-1h5v-1h4l1-1h2l1-1h3l1-1h2v-1h2l1-1h1l1-1h2l1-1 1-1h1l1-1h2l1-1-51 12zm-27 78l-116 215 44 76 244 8 27-49-92-3 44-80-91-2 43-81-91-2 44-80-56-2zm-116 498l116 214 56-1-44-80 91-2-43-81 91-2-44-80 92-3-27-49-244 8-44 76zm-357-76l-244-8-27 49 92 3-44 80 91 2-43 81 91 2-44 80 56 1 115-214-43-76zm28-479l129 207h87l129-207-30-48-47 78-48-78-48 78-47-78-48 78-48-78-29 48zM763 469l244-8 43-76-115-215-56 2 44 80-91 2 43 81-91 2 44 80-92 3 27 49zm658 101l308-10c1 1 1 2 1 3l1 1v1l1 1v1l1 1v1c8 15 20 27 34 36v1h1l1 1-211 366c-18-10-40-15-61-11l-42-79-111-207v-1l-60-105h137zm-351 106L959 883l-42 79c-20-4-42 1-60 11L646 607c18-11 32-27 40-47l308 10h137l-60 105v1h-1zm322-543l-116 187-8 13v1l-61 105-60-105v-1l-9-13-115-187-47-75c13-17 20-37 20-58h423v9l1 1v6l1 1v4l1 1v3c1 1 1 1 1 2v1l1 1v2l1 1v1l1 1v2l1 1v2l1 1 1 1v1l1 1v1l1 1v1l1 1v1l1 1 1 1v1h1v1l1 1v1l1 1 1 1 1 1v1l-47 75zM917 91l153 286h1v1l60 105H994l-219 7-89 3c-8-20-22-36-40-47L857 80l1 1h2l1 1h1v1h1l1 1h2l1 1h1l1 1h1l1 1h2l1 1h3l1 1h2l1 1h3l1 1h5l1 1h25l1-1zm246 461l44 25 44-25v-51l-44-25-44 25v51zm344-460z"/>
</svg>
