<svg xmlns="http://www.w3.org/2000/svg" width="115.263px" height="71.338px" viewBox="0 0 115.263 71.338">
<g>
	<path fill-rule="evenodd" clip-rule="evenodd" fill="#FFFFFF" d="M0,71.04v-4.866h2.251c0,1.137,0.21,1.959,0.634,2.455
		c0.419,0.502,1.093,0.756,2.015,0.756c0.485,0,0.943-0.177,1.374-0.529c0.431-0.348,0.646-0.801,0.646-1.357
		c0-0.967-0.265-1.617-0.794-1.948c-0.524-0.325-1.38-0.651-2.549-0.966c-1.175-0.32-2.058-0.75-2.654-1.302
		c-0.591-0.547-0.889-1.479-0.889-2.809c0-1.353,0.381-2.396,1.137-3.129s1.716-1.104,2.869-1.104c1.33,0,2.307,0.497,2.947,1.489
		h0.033v-1.158h2.186v4.535H6.953c-0.049-0.998-0.259-1.721-0.635-2.168c-0.375-0.453-0.965-0.679-1.782-0.679
		c-1.303,0-1.954,0.618-1.954,1.854c0,0.733,0.221,1.208,0.662,1.434c0.441,0.227,1.292,0.541,2.549,0.943
		c1.264,0.403,2.202,0.917,2.814,1.546c0.618,0.629,0.927,1.611,0.927,2.963c0,0.877-0.177,1.645-0.535,2.307
		c-0.354,0.656-0.839,1.164-1.446,1.512c-0.613,0.348-1.286,0.519-2.025,0.519c-0.789,0-1.452-0.1-1.976-0.293
		c-0.53-0.198-0.988-0.596-1.369-1.191H2.152v1.187H0z"/>
	<path fill-rule="evenodd" clip-rule="evenodd" fill="#FFFFFF" d="M19.396,60.678v4.006h-1.987c-0.033-1.545-0.64-2.317-1.821-2.317
		c-0.695,0-1.197,0.331-1.5,0.999c-0.304,0.662-0.453,1.479-0.453,2.443c0,2.273,0.673,3.41,2.02,3.41
		c0.447,0,0.822-0.16,1.131-0.475c0.303-0.319,0.48-0.756,0.524-1.313h2.213c-0.072,1.252-0.475,2.218-1.208,2.891
		c-0.729,0.68-1.628,1.016-2.693,1.016c-1.07,0-1.948-0.26-2.626-0.783c-0.679-0.524-1.169-1.187-1.462-1.986
		c-0.298-0.806-0.447-1.623-0.447-2.461c0-1.733,0.326-3.123,0.977-4.166c0.646-1.043,1.656-1.563,3.024-1.563
		c0.502,0,0.966,0.128,1.391,0.381c0.419,0.26,0.745,0.624,0.965,1.104h0.066v-1.186H19.396z"/>
	<path fill-rule="evenodd" clip-rule="evenodd" fill="#FFFFFF" d="M20.19,71.04v-2.02h1.291v-10.76H20.19v-2.02h3.774v5.926
		c0.546-1.191,1.484-1.788,2.814-1.788c2.075,0,3.112,1.259,3.112,3.775v4.866h1.22v2.02h-4.867v-2.02h1.131v-4.403
		c0-1.435-0.463-2.152-1.391-2.152c-0.65,0-1.153,0.287-1.5,0.867c-0.348,0.573-0.519,1.147-0.519,1.721v3.968h1.125v2.02H20.19z"/>
	<path fill-rule="evenodd" clip-rule="evenodd" fill="#FFFFFF" d="M34.553,65.875c0,0.922,0.171,1.711,0.507,2.361
		c0.342,0.657,0.867,0.982,1.578,0.982c0.762,0,1.308-0.319,1.645-0.965c0.336-0.646,0.507-1.435,0.507-2.379
		c0-0.965-0.171-1.776-0.507-2.428c-0.337-0.656-0.883-0.982-1.645-0.982c-0.711,0-1.236,0.337-1.578,1.005
		C34.724,64.137,34.553,64.938,34.553,65.875L34.553,65.875z M36.633,60.379c1.424,0,2.571,0.486,3.438,1.463
		c0.866,0.977,1.302,2.317,1.302,4.033c0,1.711-0.436,3.052-1.308,4.018c-0.866,0.966-2.014,1.445-3.432,1.445
		c-1.379,0-2.494-0.485-3.349-1.451c-0.855-0.966-1.28-2.307-1.28-4.012c0-1.71,0.425-3.051,1.274-4.027
		C34.134,60.87,35.248,60.379,36.633,60.379z"/>
	<path fill-rule="evenodd" clip-rule="evenodd" fill="#FFFFFF" d="M44.982,65.875c0,0.922,0.171,1.711,0.507,2.361
		c0.342,0.657,0.867,0.982,1.578,0.982c0.762,0,1.308-0.319,1.645-0.965c0.336-0.646,0.507-1.435,0.507-2.379
		c0-0.965-0.171-1.776-0.507-2.428c-0.337-0.656-0.883-0.982-1.645-0.982c-0.711,0-1.236,0.337-1.578,1.005
		C45.153,64.137,44.982,64.938,44.982,65.875L44.982,65.875z M47.062,60.379c1.424,0,2.571,0.486,3.438,1.463
		s1.302,2.317,1.302,4.033c0,1.711-0.436,3.052-1.308,4.018c-0.866,0.966-2.014,1.445-3.432,1.445c-1.379,0-2.494-0.485-3.349-1.451
		c-0.855-0.966-1.28-2.307-1.28-4.012c0-1.71,0.425-3.051,1.274-4.027C44.563,60.87,45.677,60.379,47.062,60.379z"/>
	<polygon fill-rule="evenodd" clip-rule="evenodd" fill="#FFFFFF" points="52.966,71.04 52.966,69.021 54.185,69.021 54.185,58.261 
		52.966,58.261 52.966,56.241 56.702,56.241 56.702,69.021 57.921,69.021 57.921,71.04 	"/>
	<polygon fill-rule="evenodd" clip-rule="evenodd" fill="#00BD6E" points="58.914,71.04 58.914,68.921 60.476,68.921 60.476,58.658 
		58.914,58.658 58.914,56.572 64.184,56.572 68.885,67.326 68.951,67.326 68.951,58.658 67.4,58.658 67.4,56.572 72.819,56.572 
		72.819,58.658 71.302,58.658 71.302,71.04 67.858,71.04 62.827,59.855 62.794,59.855 62.794,68.921 64.388,68.921 64.388,71.04 	
		"/>
	<path fill-rule="evenodd" clip-rule="evenodd" fill="#00BD6E" d="M76.544,64.849h3.9c0-1.655-0.65-2.482-1.953-2.482
		c-0.602,0-1.081,0.231-1.429,0.689S76.544,64.109,76.544,64.849L76.544,64.849z M82.962,66.703h-6.418
		c0,0.822,0.199,1.479,0.59,1.959c0.393,0.48,0.934,0.723,1.623,0.723c0.932,0,1.495-0.519,1.688-1.551h2.418
		c-0.199,1.181-0.68,2.059-1.436,2.638c-0.762,0.579-1.672,0.866-2.73,0.866c-1.529,0-2.693-0.496-3.499-1.49
		c-0.806-0.992-1.208-2.372-1.208-4.133c0-1.064,0.193-1.997,0.585-2.809c0.392-0.811,0.938-1.435,1.639-1.87
		s1.507-0.657,2.417-0.657c1.098,0,2.03,0.348,2.797,1.049c0.773,0.701,1.248,1.678,1.436,2.93
		C82.929,64.91,82.962,65.688,82.962,66.703z"/>
	<polygon fill-rule="evenodd" clip-rule="evenodd" fill="#00BD6E" points="84.22,71.04 84.22,69.021 85.014,69.021 87.789,65.671 
		85.312,62.697 84.445,62.697 84.445,60.678 89.02,60.678 89.02,62.697 88.187,62.697 89.577,64.451 91.001,62.697 90.146,62.697 
		90.146,60.678 94.444,60.678 94.444,62.697 93.589,62.697 91.034,65.639 93.782,69.021 94.614,69.021 94.614,71.04 89.781,71.04 
		89.781,69.021 90.935,69.021 89.213,66.902 87.524,69.021 88.649,69.021 88.649,71.04 	"/>
	<path fill-rule="evenodd" clip-rule="evenodd" fill="#00BD6E" d="M105.138,60.678v8.343h1.219v2.02h-3.477v-1.755h-0.065
		c-0.635,1.368-1.628,2.053-2.975,2.053c-0.772,0-1.385-0.154-1.837-0.458c-0.459-0.31-0.783-0.756-0.982-1.347
		c-0.193-0.59-0.293-1.335-0.293-2.234v-4.602h-1.291v-2.02h3.774v6.521c0,0.568,0.138,1.043,0.408,1.436
		c0.271,0.391,0.64,0.584,1.109,0.584c0.635,0,1.104-0.27,1.418-0.822c0.314-0.552,0.475-1.191,0.475-1.926v-3.773h-1.132v-2.02
		H105.138z"/>
	<path fill-rule="evenodd" clip-rule="evenodd" fill="#00BD6E" d="M107.587,71.04v-3.642h1.98c0,0.612,0.184,1.098,0.547,1.451
		c0.364,0.358,0.812,0.535,1.341,0.535c0.325,0,0.624-0.1,0.888-0.293c0.271-0.192,0.409-0.502,0.409-0.927
		c0-0.469-0.325-0.794-0.978-0.971c-0.645-0.177-1.279-0.337-1.902-0.48c-0.624-0.144-1.17-0.446-1.645-0.905
		c-0.475-0.463-0.712-1.213-0.712-2.251c0-1.021,0.309-1.804,0.933-2.356c0.623-0.546,1.374-0.822,2.251-0.822
		c1.065,0,1.859,0.464,2.384,1.391h0.033v-1.092h1.881v3.443h-1.986c0-0.591-0.148-1.032-0.441-1.319
		c-0.292-0.292-0.684-0.436-1.175-0.436c-0.927,0-1.391,0.375-1.391,1.126c0,0.436,0.315,0.738,0.938,0.91
		c0.623,0.165,1.264,0.325,1.914,0.479c0.656,0.149,1.22,0.452,1.694,0.905c0.475,0.452,0.712,1.187,0.712,2.207
		c0,0.96-0.293,1.755-0.877,2.39c-0.586,0.64-1.353,0.954-2.296,0.954c-1.197,0-2.059-0.463-2.588-1.391h-0.033v1.093H107.587z"/>
	<g>
		<path fill-rule="evenodd" clip-rule="evenodd" fill="#FFFFFF" d="M67.729,50.258h-2.748v-8.74l3.713,5.984
			C68.068,48.287,67.731,49.264,67.729,50.258L67.729,50.258z M64.981,33.771l6.494,12.126c0.993-0.15,2.008,0.046,2.869,0.542
			l10.098-17.489c-0.861-0.498-1.538-1.278-1.904-2.215l-15.461,0.493c-0.01,0-0.018,0-0.027,0h-2.068V33.771L64.981,33.771z
			 M64.981,23.03v-6.543l6.494-12.126c0.993,0.15,2.008-0.046,2.869-0.541l10.098,17.488c-0.861,0.498-1.538,1.278-1.904,2.215
			l-15.461-0.492c-0.01-0.001-0.018-0.001-0.027-0.001H64.981L64.981,23.03z M64.981,8.74l3.713-5.984
			C68.068,1.971,67.731,0.994,67.729,0h-2.748V8.74z M64.981,50.258H50.283v-8.74l4.443-7.16c0.005-0.008,0.009-0.015,0.014-0.023
			l2.892-5.008l2.892,5.008c0.005,0.009,0.009,0.016,0.015,0.023l4.443,7.16V50.258L64.981,50.258z M64.981,0v8.74l-4.443,7.16
			c-0.006,0.008-0.01,0.016-0.015,0.023l-2.892,5.008l-2.892-5.008c-0.005-0.008-0.009-0.016-0.014-0.023l-4.443-7.16V0H64.981
			L64.981,0z M64.981,16.487l-0.811,1.511c-0.004,0.009-0.008,0.016-0.014,0.024l-2.891,5.008h3.715V16.487L64.981,16.487z
			 M64.981,27.228h-3.715l2.891,5.008c0.006,0.009,0.01,0.016,0.014,0.024l0.811,1.511V27.228L64.981,27.228z M50.283,33.771
			l0.81-1.511c0.005-0.009,0.009-0.016,0.014-0.024l2.891-5.008h-3.714V33.771L50.283,33.771z M50.283,23.03h3.714l-2.891-5.008
			c-0.005-0.009-0.009-0.016-0.014-0.024l-0.81-1.511V23.03L50.283,23.03z M56.678,25.68l0.954,0.551l0.954-0.551v-1.102
			l-0.954-0.551l-0.954,0.551V25.68z M50.283,50.258h-2.749c-0.002-0.994-0.339-1.971-0.965-2.756l3.714-5.984V50.258L50.283,50.258
			z M50.283,0v8.74l-3.714-5.984C47.195,1.971,47.532,0.994,47.534,0H50.283L50.283,0z M50.283,16.487L43.788,4.361
			c-0.993,0.15-2.008-0.046-2.869-0.541L30.821,21.309c0.861,0.498,1.539,1.278,1.904,2.215l15.461-0.492
			c0.01-0.001,0.018-0.001,0.028-0.001h2.068V16.487L50.283,16.487z M50.283,27.228h-2.068c-0.01,0-0.018,0-0.028,0l-15.461-0.493
			c-0.366,0.937-1.043,1.717-1.904,2.215l10.098,17.489c0.861-0.496,1.876-0.692,2.869-0.542l6.495-12.126V27.228z"/>
		<path fill-rule="evenodd" clip-rule="evenodd" fill="#00BD6E" d="M54.336,34.986l0.39-0.629c0.005-0.008,0.009-0.015,0.014-0.023
			l2.892-5.008l2.892,5.008c0.005,0.009,0.009,0.016,0.015,0.023l0.389,0.629H54.336L54.336,34.986z M47.447,27.203l0.739,0.024
			c0.01,0,0.018,0,0.028,0h5.783l-2.891,5.008c-0.005,0.009-0.009,0.016-0.014,0.024l-0.349,0.652L47.447,27.203L47.447,27.203z
			 M50.743,17.346l0.349,0.652c0.005,0.009,0.009,0.016,0.014,0.024l2.891,5.008h-5.783c-0.01,0-0.018,0-0.028,0.001l-0.739,0.023
			L50.743,17.346L50.743,17.346z M60.927,15.271L60.538,15.9c-0.006,0.008-0.01,0.016-0.015,0.023l-2.892,5.008l-2.892-5.008
			c-0.005-0.008-0.009-0.016-0.014-0.023l-0.39-0.629H60.927L60.927,15.271z M67.816,23.055l-0.739-0.023
			c-0.01-0.001-0.018-0.001-0.027-0.001h-5.783l2.891-5.008c0.006-0.009,0.01-0.016,0.014-0.024l0.35-0.652L67.816,23.055
			L67.816,23.055z M64.521,32.912l-0.35-0.652c-0.004-0.009-0.008-0.016-0.014-0.024l-2.891-5.008h5.783c0.01,0,0.018,0,0.027,0
			l0.739-0.024L64.521,32.912z"/>
		<path fill-rule="evenodd" clip-rule="evenodd" fill="#00BD6E" d="M57.632,6.826l2.275-3.729l2.275,3.729l2.275-3.729l1.995,3.271
			l2.241-3.612C68.068,1.971,67.731,0.994,67.729,0H47.534c-0.002,0.994-0.339,1.971-0.965,2.756l2.242,3.612l1.996-3.271
			l2.275,3.729l2.275-3.729L57.632,6.826z"/>
		<path fill-rule="evenodd" clip-rule="evenodd" fill="#00BD6E" d="M57.631,43.433l2.275,3.729l2.275-3.729l2.275,3.729l1.995-3.271
			l2.242,3.613c-0.627,0.784-0.964,1.761-0.965,2.755H47.533c-0.001-0.994-0.339-1.971-0.965-2.755l2.242-3.613l1.996,3.271
			l2.275-3.729l2.275,3.729L57.631,43.433z"/>
		<path fill-rule="evenodd" clip-rule="evenodd" fill="#00BD6E" d="M41.781,15.978l-2.091-3.835l4.367-0.105l-2.092-3.835
			l3.831-0.093l-2.007-3.748c-0.993,0.15-2.008-0.046-2.87-0.541L30.821,21.31c0.86,0.499,1.537,1.279,1.903,2.214l4.25-0.135
			l-1.835-3.364l4.367-0.105l-2.092-3.835L41.781,15.978z"/>
		<path fill-rule="evenodd" clip-rule="evenodd" fill="#00BD6E" d="M41.781,34.281l-2.091,3.835l4.367,0.106l-2.092,3.834
			l3.831,0.094l-2.008,3.748c-0.993-0.15-2.007,0.046-2.869,0.541L30.82,28.949c0.86-0.498,1.537-1.278,1.904-2.214l4.25,0.136
			l-1.835,3.363l4.367,0.106l-2.092,3.835L41.781,34.281z"/>
		<path fill-rule="evenodd" clip-rule="evenodd" fill="#00BD6E" d="M73.481,15.978l2.092-3.835l-4.367-0.105l2.093-3.835
			l-3.831-0.093l2.008-3.748c0.993,0.15,2.008-0.046,2.869-0.541L84.442,21.31c-0.859,0.499-1.537,1.279-1.903,2.214l-4.249-0.135
			l1.834-3.364l-4.367-0.105l2.092-3.835L73.481,15.978z"/>
		<path fill-rule="evenodd" clip-rule="evenodd" fill="#00BD6E" d="M73.481,34.281l2.092,3.835l-4.367,0.106l2.092,3.834
			l-3.83,0.094l2.008,3.748c0.992-0.15,2.008,0.046,2.869,0.541l10.098-17.49c-0.86-0.498-1.537-1.278-1.904-2.214l-4.249,0.136
			l1.835,3.363l-4.367,0.106l2.092,3.835L73.481,34.281z"/>
		<path fill-rule="evenodd" clip-rule="evenodd" fill="#00BD6E" d="M55.533,26.341l2.099,1.211l2.098-1.211v-2.423l-2.098-1.212
			l-2.099,1.212V26.341z"/>
	</g>
</g>
</svg>
