<svg xmlns="http://www.w3.org/2000/svg" viewBox="0 0 1619 1335">
  <defs>
    <style>
      .fil0,.fil1{fill:#fff}.fil1{fill-rule:nonzero}
    </style>
  </defs>
  <g id="Layer_x0020_1">
    <g id="_1965597216656">
      <path d="M806 747l2 2 3-2h227l2 2-126 150H705L579 747zM903 912H716l93 111zM579 410v309l1-1v6h46l-1-314h-46zm836 101c-13 67-86 118-175 118-88 0-161-51-174-118 19 18 90 32 174 32 85 0 156-14 175-32zM833 217c31-95 156-88 267 0h111c-1 2-2 5-2 7 0 5 1 9 3 12l-98 273h1c4 1 8 1 11 2l96-264c11 10 27 10 38 0l95 264c5-1 9-1 13-2l-99-273c2-3 3-7 3-12 0-2 0-5-1-7h37v-36h-193c-81-74-230-97-281-39-1-14-2-26-3-35 35-20 35-38-1-52-7-16-13-34-21-55-7 21-13 39-20 55-36 14-36 32-1 52-1 9-2 21-3 35-51-58-200-35-281 39H311v36h37c-1 2-1 5-1 7 0 5 1 9 3 12l-99 273c4 1 8 1 12 2l96-264c11 10 27 10 38 0l96 264c3-1 7-1 11-2h1l-99-273c2-3 4-7 4-12 0-2-1-5-2-7h111c111-88 236-95 267 0l1 507h46V217zM204 511c13 67 86 118 175 118 88 0 161-51 174-118-19 18-90 32-174 32-85 0-156-14-175-32zm653 213h46V285h-47l1 439zm-94-439h-47l1 439h46V285zm277 125v314h-46V410h46zM925 724l-1-358v-13h47v371h-46zm-230 0V353h-47v13l1 358h46z" class="fil0"/>
      <g>
        <path d="M132 1246l-19-148H75l-19 148-17-148H0l37 237h38l18-147 18 147h38l37-237h-37l-17 148zm176 3c-2-15-8-25-18-31 15-6 22-19 22-40v-36c0-27-16-44-50-44h-57v235h38v-99h12c10 0 15 5 16 16l6 83h39l-8-84zm-47-119c8 0 13 4 13 13v46c0 8-5 12-13 12h-18v-71h18zm117 203v-235h-38v235h38zm22-235v32h30v203h38v-203h29v-32h-97zm210 0h-91v235h91v-32h-53v-70h44v-32h-44v-69h53v-32zm126 151c-1-15-7-25-17-31 14-6 21-19 21-40v-36c0-27-15-44-49-44h-58v235h38v-99h12c10 0 16 5 17 16l6 83h38l-8-84zm-47-119c9 0 13 4 13 13v46c0 8-4 12-13 12h-18v-71h18zm73-32v37l15 46h18v-83h-33zm162 191v-21c0-24-11-42-25-53-19-16-44-28-44-49v-25c0-8 5-12 15-12 9 0 16 5 16 14v39h37v-39c0-29-19-47-53-47-35 0-53 17-53 45v25c0 65 69 65 69 103v21c0 8-7 12-16 12-10 0-17-5-17-14v-39h-37v39c0 29 19 47 53 47 35 0 55-18 55-46zM1100 1249h-37v39c0 9-7 14-17 14s-15-5-15-14v-145c-3-19 33-18 32 0v39h37v-39c0-29-19-47-54-47s-54 19-54 47v145c0 28 19 47 54 47s54-18 54-47v-39zm23-106v145c0 28 19 47 54 47s54-18 54-47v-145c0-29-19-47-54-47s-54 19-54 47zm70 0v145c2 18-34 18-32 0v-145c-2-18 34-18 32 0zm135 145c0 9-5 14-15 14-11 0-16-5-16-14v-190h-38v190c0 29 19 47 54 47 34 0 54-19 54-47v-190h-39v190zm172-39c-2-15-8-25-18-31 15-6 22-19 22-40v-36c0-27-16-44-50-44h-57v235h38v-99h12c10 0 15 5 16 16l7 83h38l-8-84zm-47-119c8 0 13 4 13 13v46c0 8-5 12-13 12h-18v-71h18zm69-32v32h30v203h38v-203h29v-32h-97z" class="fil1"/>
      </g>
    </g>
  </g>
</svg>
