<svg xmlns="http://www.w3.org/2000/svg" viewBox="0 0 393 127">
  <path fill="#fc0" d="M0 103h244v9h5v15H0v-24zm19-7L5 98l14-1v-1zm344-31l9 26h18l-1-28-26 2zm-20 2v25h18l-1-27-17 2zm-56 10c1 3 2 6 4 9s5 5 9 6c3 2 7 2 11 2 5 0 9-1 12-2 4-2 6-4 8-7s3-6 4-9v-8l-21 2v9c-1 1-2 2-3 2s-2-1-3-2v-9l-21 2v5zm-27-2v18h20l-1-20-19 2zm-27 2v17l21-1V75l-21 2zm-30 3l1 14h21l-1-16-21 2zm-59 5c1 4 2 7 2 10h26l2-13-30 3zm-37 3l1 8 26-1c0-3 1-6 1-9l-28 2zm-28 3l1 5h21l-1-7-21 2zm-30 3l-1 3h22v-5l-21 2zm-23 2v1h19v-3l-19 2zm-4-5V64L1 65v27h6l15-1zm342-28v-9h-18v11l18-2zm0-9l3 9 26-2v-8l-29 1zm-47 1v12l21-2V55h-21zm-27 2v12l21-2V55l-21 1v1zm-28 0c1 1 1 3 1 6v8l19-1v-1-12-1l-20 1zm-26 1v15l21-1V57l-21 1zm-30 1v17l21-2V58l-21 1zm-48 1v7l-1-7-13 1c1 7 2 13 3 20l29-3 2-18h-20zm-51 2l3 22 28-3c1-8 2-15 3-20h-15v5l-1-5-18 1zm-53 1l-3 25 22-2v-9h8l1 9 21-2-4-22-19 1H54zm-7 26V70v-6H28v26l19-1zm296-46v10l18-1v-1 1h29v-8h-18l-29-1zM46 36l-19-1c0 2-1 3-1 3-1 1-3 1-5 1v-4H0v26h21v-9c3 0 4 0 5 1s1 4 1 8l19-1v-5c0-2-1-3-3-5-1-2-4-3-8-4 5 0 8-2 9-4 1-1 2-3 2-6zm11 0l-4 24 24-1h-5c1-5 2-13 3-23H57zm20 0c1 9 2 17 2 23h19l-3-22-18-1zm26 1l3 22 18-1-2-20-19-1zm24 1c-1 7-2 14-2 20h14c1-5 1-9 2-12 0 4 1 8 1 12l14-1-2-19h-27zm31 0c0 7-1 13-1 19h20l2-18-21-1zm46 2v16h21V40h-21zm29 0v16l21-1v-3c3 0 5 0 6 1v2l19-1c0-1-1-2-2-4-2-2-4-3-9-4 5 0 8-2 10-4v-1l-45-1zm54 2v12h21V42h-21zm28 0v12l20-1V43l-20-1zM41 6L8 3H3v27h21V17c2 0 4 0 5 1s1 2 1 5v8h19v-6c0-7-1-12-3-15-1-2-3-3-5-4zm334 28v9h17v-8l-17-1zm-29-3v11l29 1-3-9-26-3zm-29-2v12h21v-1-9l-21-2zm-27-2v13h21V28l-21-1zm-27 3c0 3 0 5-1 6s-3 1-5 1V24l-21-2v16l45 1c1-2 2-6 2-11v-2l-20-2v6zm-56-10v17h21V21l-21-1zm-43-4c-1 6-2 13-3 19l20 1 3-18-20-2zm-32-3c-1 8-2 15-3 21l28 1v-4c-1-6-1-12-1-16l-24-2zm-28-2l2 22 19 1v-2l-1-19-20-2zM63 8l-4 24h19c0-3 0-7 1-11 0 4 1 8 1 11l17 1-3-23-31-2zM3 0l34 3c-1-1-3-1-4-1-3-1-10-2-20-2H3zm371 5v27l18 2V5h-18zm-29 0v25l26 2-8-27h-18zm-52 6c-2 3-4 6-4 9 0 1 0 3-1 5l21 2v-2c0-4 1-7 1-8 1 0 2-1 3-1s2 1 2 2c1 1 1 3 1 7v2l21 2c0-4-1-7-1-8 0-4-1-7-3-10s-5-5-9-6c-3-2-7-2-11-3-5 0-9 1-12 3-4 1-6 3-8 6zm-59-8v17l21 2v-5c2 0 4 1 5 1 1 1 1 2 1 4l20 2c0-6-1-10-3-13-3-4-5-6-9-6-3-1-10-2-20-2h-15zm-29 0l-1 14 21 2 1-16h-21zm-43-1c-1 4-1 8-2 12l21 1 1-13h-20zm-32 0c-1 3-1 6-2 9l24 2c0-6 0-10-1-11h-21zM99 1l1 7 20 2V2L99 1zM59 1l-1 4 32 3-1-7H59z"/>
</svg>
