<svg xmlns="http://www.w3.org/2000/svg" viewBox="0 0 823 1030">
	<defs>
		<style>
			.fil1{fill:#037d9c}.fil2{fill:#0aa5cc}.fil3{fill:#12b7e0}.fil4{fill:#085370}
		</style>
	</defs>
	<g id="svg-logo-group">

		<path id="svg-connectors" class="fil4"  d="M204 0l223 153-44 27L125 0zM619 673L395 520l45-27 257 180z"/>

		<path id="svg-top-back" class="fil4" d="M204 0l447 306 36-243-92-63z"/>
		<g id="svg-top-fore">
			<path class="fil2" d="M399 0l189 129 71-85-64-44zM588 129l-71 85 134 92 18-122z"/>
			<path class="fil1" d="M517 214l71-85L399 0H204l223 153z"/>
			<path class="fil3" d="M588 129l81 55 18-121-28-19z"/>
		</g>

		<path id="svg-middle-back" class="fil4" d="M411 336L146 133l20 133 52 73 119 83 360 251-20-133-21-133-51-74-121-84L125 0l21 133z"/>
		<g id="svg-middle-fore">
			<path class="fil3" d="M484 249l-73 87 266 204-21-133-51-74z"/>
			<path class="fil2" d="M697 673l-20-133-266-204-74 86z"/>
			<path class="fil1" d="M337 422l74-86-265-203 20 133 52 73z"/>
			<path class="fil2" d="M484 249L125 0l21 133 265 203z"/>
		</g>

		<path id="svg-bottom-back" class="fil4" d="M619 673L171 367l-36 243 92 63z"/>
		<g id="svg-bottom-fore">
			<path class="fil2" d="M423 673L235 544l-72 85 64 44zM235 544l71-85-135-92-18 121z"/>
			<path class="fil1" d="M306 459l-71 85 188 129h196L395 520z"/>
			<path class="fil3" d="M235 544l-82-56-18 122 28 19z"/>
		</g>

		<path id="svg-text" d="M79 879H0v-45h30v18h19v-23L1 793v-58h78v43H51v-16H31v19l48 36v62zm44 0H93V758l23-23h63v144h-30v-47h-26v47zm26-75v-42h-26v42h26zm72 75h-31V758l24-23h63v144h-30v-47h-26v47zm26-75v-42h-26v42h26zm41-69h62l23 23v101l-20 20h-65V735zm55 117v-90h-25v90h25zm180-53v80h-30v-52h-31v52h-30V735h30v64h3l28-64h30l-28 64h28zm45-5h26v-59h30v144h-30v-57h-26v57h-31V735h31v59zm99 85h-30V758l23-23h63v144h-30v-47h-26v47zm26-75v-42h-26v42h26zm101 14v-83h29v144h-30l-30-83v83h-28V735h30l29 83z" fill="#079abf" fill-rule="nonzero"/>

		<path id="svg-tag" d="M71 937c-2-1-4-3-6-3-1 0-2 1-4 2-2-4-8-6-13-6-18 0-48 38-48 66 0 16 9 25 19 25 6 0 14-4 20-13-1 4-2 11-2 14 0 4 10 8 15 8 1 0 2-1 2-1 0-1-2-4-2-8 0-10 5-28 8-36h3c1 0 2-1 2-3 0-5-4-9-11-9-12 0-23 3-23 14 0 1 0 1 1 1h1c4-2 8-3 13-3-1 3-3 9-4 11-4 4-11 11-17 11-8 0-11-6-11-12 0-20 24-55 36-55 3 0 4 5 4 7-1 4-2 7-2 11 0 6 2 8 3 8 0 0 0 1 2 1l1-1c1-3 9-17 13-20 1-1 2-2 2-3 0-2-1-4-2-6zm-15 54c-4 13-6 23-6 30 0 2 0 4 1 6-1-1-2-3-2-7 0-6 2-16 7-29zm-28 26l7-7 5-5v1l-3 3c-4 4-9 8-9 8zm9-75c-6 0-18 19-20 24 3-8 11-22 20-24zm-19 17c4-9 12-18 22-25-9 8-17 16-22 25zm95 26c-5 4-7 9-11 12 3-5 4-11 4-17 0-9-5-19-16-19-9 0-16 8-16 18v2c-2-1-4-2-5-2-4 0-5 14-5 17 0 9 5 19 16 19 7 0 13-4 18-11 8-1 13-8 19-19 1-1 1-2 1-3-1 0-3 1-5 3zm-44 0c-1 2-2 7-2 11 0 3 0 6 1 8-1-3-2-6-2-9 0-6 2-12 3-12v2zm10 22c-3-2-4-5-4-8 0-2 0-4 1-6 3 5 7 9 11 11-2 2-4 3-6 3h-2zm12-8c-7-2-10-9-10-15 0-8 4-15 10-15 4 0 6 3 6 8 0 7-4 18-6 22zm4-34c5 1 8 7 8 10h-1c0-3-4-8-7-10zm42 20c-5 6-10 20-18 24v-3c0-16 13-46 18-59 1-1 1-2 1-4 0-4-3-9-6-9h-1c-3 1-22 44-22 67 0 9 3 15 10 15 9 0 17-21 22-30 1-1 2-3 2-3 0-1-1-1-1-1-1 0-3 1-5 3zm-24 6c1-11 5-25 12-40-6 16-10 29-12 40zm73-6c-6 6-11 20-20 24v-3c0-15 12-42 18-56l1-3v-4c0-5-3-9-6-9-2 0-9 13-16 34-2-3-5-4-9-4-10 0-23 20-23 38 0 0 0 13 9 13 6 0 12-6 17-12 0 8 4 13 9 13 8 0 17-17 23-27l1-3c1-1 1-3 1-3v-1c-1 0-3 1-5 3zm-46-5c4-8 8-12 13-13-5 3-9 7-13 13zm14 21l-5 5s6-8 9-13c-1 3-3 5-4 8zm2-13v1c0 1 1 2 1 2v1c-5 9-15 18-16 18v-1c0-7 12-36 16-36 1 0 1 0 1 2 0 3-1 10-2 13zm8 13c1-9 4-20 10-33-5 11-8 21-10 33zm178-68c-2-3-4-4-7-4-5 0-13 3-13 6 0 2 2 2 3 2 2 1 2 5 2 8 0 18-7 40-17 57 2-11 4-24 5-36 1-1 1-3 1-5 0-7-2-14-11-15h-2c-8 18-20 52-24 52l1-2c6-10 12-21 18-39-6 12-16 37-18 37 0-1 5-10 6-14v-1c2-8 5-19 5-28 0-11-4-21-14-21s-22 8-28 13c-8 7-20 18-20 27 0 5 7 12 13 12 1 0 2-1 2-2s-1-2-1-3c0-6 19-42 31-42 3 0 4 4 4 9 0 16-5 32-10 47l-1 2c-2 6-6 14-6 22 0 7 6 14 13 14 2 0 3-1 3-2s-1-2-1-2c6-19 16-36 25-54-2 11-5 22-5 33 0 2 0 3 1 5 2 5 5 9 11 9h2c11-17 22-34 29-53 3-6 5-14 5-22 0-3 0-7-2-10zm-110 41c-1-1-1-2-1-4 0-3 2-8 6-14-4 6-5 11-5 14v4zm42 1c4-13 5-23 5-31v-5c1 2 1 5 1 7 0 9-2 19-6 29zm55 3v-2c5-12 7-18 8-26l1-1c-2 10-4 18-9 27v2zm-2 9c7-15 13-28 16-44-1 12-6 27-16 44zm36-2c-5 6-10 19-18 24 0-9 5-23 12-35 1-1 1-2 1-3 0-4-5-7-9-7-1 0-2 0-2 1-6 14-12 28-12 38 0 7 3 13 9 13 10 0 25-30 25-33 0 0 0-1-1-1s-3 2-5 3zm-19 18v0c0-5 5-22 8-22-1-1-7 17-8 22zm16-42c4-6 6-9 9-13 0-2-7-6-9-6-3 0-7 12-7 14 0 3 4 5 6 5h1zm-5-8s4-8 5-8c0 1-3 7-4 7 0 0 0 2-1 2v-1zm39 8c1 0 1-3 1-3 0-4-1-5-5-5h-5v-1c1-2 1-3 1-4 0-5-3-10-6-10-2 0-4 5-9 16-4 0-8-1-9-3h-1c-1 0-2 1-2 2 0 4 5 6 9 7-4 13-9 29-9 40 0 10 5 15 9 15 6 0 12-8 15-12 5-8 11-19 11-21v-1c-7 0-13 22-25 27v-4c0-11 7-30 12-43h13zm-31 29c1-9 4-19 8-29-3 11-6 20-8 29zm67-5c-5 5-10 18-18 23 1-11 12-32 12-36s-4-7-8-7c-7 0-16 11-23 23 4-12 10-26 16-41v-1c0-4-3-10-6-10-4 0-22 42-22 66 0 7 1 12 5 13 1 1 2 2 3 2s1 0 1-2v-8c7-15 17-30 19-32v1c-2 4-8 18-8 28 0 2 1 4 1 5l1 1c1 3 3 5 8 5h2c6-1 22-29 22-32 0 0 0-1-1-1s-3 2-4 3zm-46 6c1-11 6-25 12-40-5 16-10 29-12 40zm24-5c-2 4-4 12-4 16v3s-1-3-1-4c0-3 3-16 5-16v1zm65-1c-5 4-7 9-11 12 2-5 4-11 4-17 0-9-5-19-16-19-9 0-17 8-17 18v2c-1-1-3-2-5-2-3 0-5 14-5 17 0 9 5 19 17 19 7 0 13-4 18-11 8-1 13-8 19-19 1-1 1-2 1-3h-1c-1 0-2 1-4 3zm-45 0c-1 2-1 7-1 11v8c-1-3-1-6-1-9 0-6 2-12 3-12 0 0 0 1-1 2zm11 22c-3-2-4-5-4-8 0-2 0-4 1-6 2 5 6 9 11 11-2 2-4 3-7 3h-1zm11-8c-7-2-10-9-10-15 0-8 4-15 10-15 5 0 6 3 6 8 0 7-3 18-6 22zm5-34c4 1 7 7 7 10 0-3-4-8-7-10zm67 20c-5 5-10 17-18 22 1-9 5-23 12-34v-1c0-3-5-7-9-7-1 0-2 0-2 1v1c-1 0-1 1-1 2-5 11-15 35-22 35-1 0-1 0-1-1 0-5 6-23 10-29v-1-1c-1-3-2-4-2-4s-2 0-2-1c-2 3-7 17-7 17 0-1 4-15 7-18 0 0-1 0-2-1 0 0-2-1-3-1l-2 2c-1 4-11 25-11 38 0 4 5 10 10 10s10-6 15-12c0 9 4 13 7 13 14 0 26-33 27-33h-1c-1 0-3 1-5 3zm-21 17v-2c0-7 6-20 6-23 1-1 1-2 2-2 0 0-8 19-8 27zm50-41c1 0 1-3 1-3 0-4-2-5-6-5h-5s0-1 1-1v-4c0-5-3-10-6-10-1 0-4 5-9 16-4 0-8-1-9-3h-1s-1 1-1 2c0 4 4 6 9 7-5 13-9 29-9 40 0 10 4 15 9 15s11-8 14-12c5-8 12-19 12-21l-1-1c-7 0-13 22-24 27-1-1-1-2-1-4 0-11 7-30 13-43h13zm-31 29c1-9 3-19 7-29h1c-4 11-7 20-8 29zm140-53c-1-1-3-3-6-3-1 0-2 1-3 2-2-4-8-6-14-6-18 0-48 38-48 66 0 16 9 25 19 25 6 0 14-4 21-13-2 4-3 11-3 14 0 4 10 8 15 8 2 0 2-1 2-1 0-1-2-4-2-8 0-10 5-28 8-36h3c1 0 2-1 2-3 0-5-3-9-11-9-12 0-23 3-23 14 0 1 0 1 1 1h1c4-2 9-3 13-3-1 3-2 9-4 11-4 4-11 11-17 11-8 0-10-6-10-12 0-20 24-55 35-55 4 0 4 5 4 7-1 4-2 7-2 11 0 6 3 8 3 8 1 0 1 1 2 1l1-1c1-3 9-17 13-20 2-1 2-2 2-3 0-2-1-4-2-6zm-15 54c-4 13-6 23-6 30 0 2 1 4 2 6-2-1-3-3-3-7 0-6 3-16 7-29zm-27 26c1-2 4-4 7-7l5-5-1 1-2 3c-4 4-10 8-10 8h1zm8-75c-5 0-17 19-20 24 4-8 11-22 20-24zm-19 17c4-9 12-18 23-25-10 8-18 16-23 25zm75 26c-5 6-10 20-18 24v-3c0-16 12-46 18-59 1-1 1-2 1-4 0-4-3-9-6-9h-1c-3 1-22 44-22 67 0 9 3 15 10 15 9 0 17-21 22-30 1-1 1-3 1-3v-1c-1 0-3 1-5 3zm-24 6c1-11 5-25 11-40-5 16-9 29-11 40zm46-6c-5 6-10 19-18 24 0-9 5-23 12-35 1-1 1-2 1-3 0-4-5-7-9-7-1 0-2 0-2 1-6 14-12 28-12 38 0 7 3 13 9 13 10 0 25-30 25-33 0 0 0-1-1-1s-3 2-5 3zm-19 18v2c-1 0-1-1-1-2 1-5 6-22 9-22-1-1-7 17-8 22zm16-42c4-6 6-9 9-13 0-2-7-6-9-6-3 0-7 12-7 14 0 3 4 5 6 5h1zm-5-8s4-8 5-8c0 1-3 7-4 7 0 0 0 2-1 2v-1zm55 32c-5 5-11 20-19 24-1-2-1-3-1-5 0-11 7-30 13-44 5 0 9 1 10 1s1-1 1-3c0-5 0-5-8-5 1-2 1-4 1-5 0-5-3-10-6-10-1 0-4 4-8 15l-6 1c1-3 1-4 1-6 0-5-3-10-6-10-2 0-4 5-9 16-4 0-8 0-9-3h-1c-1 0-2 1-2 3 1 4 5 6 10 7-5 14-10 33-10 46 0 9 2 15 9 15 6 0 8-4 12-12 2 3 5 5 8 5 2 0 3 0 4-1 6 0 22-30 22-32 0 0 0-1-1-1s-3 2-5 4zm-45 5c1-9 4-19 8-29h1c-4 11-7 20-9 29zm16 11c-4 5-6 13-10 15-1-1-1-3-1-5 0-13 8-35 13-49 2 0 4-1 6-1-4 13-8 29-8 40zm4-11c1-9 3-19 7-29h1c-4 11-7 20-8 29zm58-5c-4 4-12 22-22 22-5 0-7-3-7-7 0-1 1-3 1-4h2c9 0 22-13 22-23 0-5-4-9-10-9-13 0-27 23-27 38 0 7 7 14 17 14 12 0 20-14 26-25l2-4c1-2 1-3 1-4v-1c-1 0-2 1-5 3zm-22 7c5-3 8-7 10-13-2 6-5 11-10 13zm9-18v1c0 4-6 17-13 17h-1c1-2 9-19 13-19 0 0 1 0 1 1zm-20 9c-1 1-2 4-2 4 0-2 3-10 11-16 0 1-7 9-9 12zm4 0c0-3 9-12 9-12s-8 12-9 12zm66-17c-1-1-3-2-4-2-10 0-22 25-24 31 2-9 6-18 9-25v-1c0-3-5-6-8-6-1 0-2 0-3 1-1 2-10 25-10 39 0 8 2 13 8 13 1 0 2-1 2-2 3-11 9-23 16-34v3c0 9 2 14 6 14 2 0 3-1 3-2-1-1-1-3-1-4 0-12 7-18 7-22 0-1 0-2-1-3zm-34 20c0-6 2-13 7-19-4 6-6 13-7 19zm22-7c0 4 0 7 1 10-1-1-2-3-2-5s1-3 1-5z" fill="#044057" fill-rule="nonzero"/>
	
	</g>
</svg>
