<svg xmlns="http://www.w3.org/2000/svg" viewBox="0 0 3335 3565">
  <defs>
    <style>
      .fil2{fill:#000}.fil3{fill:#333}.fil4{fill:#4d4d4d}.fil1{fill:#999}
    </style>
  </defs>
  <g id="Layer_x0020_1">
    <g id="_1606012107296">
      <path fill="#1a1a1a" fill-rule="nonzero" d="M322 3565H0v-183h123v72h76v-94L4 3213v-234h314v174H207v-62h-80v77l195 146v251zm176 0H375v-493l95-93h256v586H603v-193H498v193zm105-304v-171H498v171h105zm291 304H771v-493l95-93h256v586h-122v-193H894v193zm106-304v-171H894v171h106zm168-282h252l94 93v412l-82 81h-264v-586zm223 475v-364h-100v364h100zm730-214v325h-122v-214h-124v214h-123v-586h123v261h8l116-261h121l-112 261h113zm180-20h106v-241h122v586h-122v-234h-106v234h-122v-586h122v241zm403 345h-122v-493l94-93h256v586h-122v-193h-106v193zm106-304v-171h-106v171h106zm409 54v-336h116v586h-122l-120-336v336h-115v-586h122l119 336z"/>
      <path d="M1665 1361L591 539l82 539 209 297 484 337 1461 1015-83-539-83-539-208-297-491-341L508 0l83 539zM2508 2727L695 1488l-147 984 374 255z" class="fil1"/>
      <path d="M826 0l907 620-181 108L508 0zM2508 2727l-906-619 181-108 1044 727z" class="fil1"/>
      <path d="M1962 1011l-297 350 1079 827-83-539-208-297z" class="fil2"/>
      <path d="M2827 2727l-83-539-1079-827-299 351z" class="fil3"/>
      <path d="M1366 1712l299-351L591 539l82 539 209 297z" class="fil4"/>
      <path d="M1962 1011L508 0l83 539 1074 822z" class="fil3"/>
      <g>
        <path d="M1715 2727l-764-522-289 345 260 177zM951 2205l289-345-545-372-73 492z" class="fil3"/>
        <path d="M1240 1860l-289 345 764 522h793l-906-619z" class="fil4"/>
        <path d="M951 2205l-329-225-74 492 114 78z"/>
      </g>
      <path d="M826 0l1813 1240 148-984L2412 0z" class="fil1"/>
      <g>
        <path d="M1619 0l765 523 289-345L2412 0zM2384 523l-289 344 544 373 74-492z" class="fil3"/>
        <path d="M2095 867l289-344L1619 0H826l907 620z" class="fil4"/>
        <path d="M2384 523l329 225 74-492-114-78z" class="fil2"/>
      </g>
    </g>
  </g>
</svg>
