<svg xmlns="http://www.w3.org/2000/svg" width="55.926px" height="69.689px" viewBox="0 0 55.926 69.689">
<g>
	<path fill-rule="evenodd" clip-rule="evenodd" fill="#FFFFFF" d="M30.542,12.213v7.978l0.02-0.038v0.026h3.363v-3.053v-1.23
		c-0.441,0.386-0.857,0.796-1.248,1.23h1.248h3.361h3.361v-3.053h-3.361h-0.773c0.254-0.141,0.512-0.273,0.773-0.399v0.399v3.053
		v3.053h3.361v-3.053h3.361v3.053h3.361v-3.053h-3.361v-3.053v-1.856c-0.098-0.002-0.197-0.003-0.295-0.003
		c-1.051,0-2.078,0.109-3.066,0.317v1.542h3.361h3.361V12.67c1.596,0.405,3.113,1.073,4.488,1.974h-1.721v3.053h3.361V15.89
		c0.572,0.5,1.107,1.046,1.604,1.637l-6.486,5.442c-1.215-1.451-3.01-2.289-4.902-2.289c-3.529,0-6.393,2.861-6.393,6.392
		c0,3.53,2.863,6.392,6.393,6.392c1.879,0,3.662-0.826,4.877-2.259l6.486,5.442c-2.824,3.351-6.982,5.284-11.363,5.284
		c-6.473,0-11.977-4.14-14.016-9.915c-2.037,5.775-7.542,9.915-14.015,9.915c-8.206,0-14.859-6.652-14.859-14.859
		c0-8.207,6.653-14.859,14.859-14.859h0.054h4.721v3.053h3.361v-3.053h3.362H30.542v3.053h-3.361v-3.053V9.16h3.361V3.054h-3.361V0
		l0,0h3.361V12.213L30.542,12.213z M30.561,23.231v3.053h3.363v-3.053H30.561L30.561,23.231z M23.818,18.319v3.053h3.362v-3.053
		H23.818L23.818,18.319z M20.457,12.213h3.361V9.16V6.107V3.054h-3.361v3.053h3.361h3.362V9.16h-3.362h-3.361V12.213L20.457,12.213z
		 M15.683,20.68c-3.53,0-6.392,2.861-6.392,6.392c0,3.53,2.861,6.392,6.392,6.392s6.393-2.862,6.393-6.392
		C22.075,23.542,19.213,20.68,15.683,20.68z"/>
	<g>
		<path fill-rule="evenodd" clip-rule="evenodd" fill="#FFFFFF" d="M4.348,48.176c0.769,0,1.634,0.221,2.594,0.664
			s1.738,1.106,2.331,1.988c0.595,0.881,0.892,1.908,0.892,3.08c0,1.598-0.493,2.911-1.477,3.941
			c-0.983,1.031-2.261,1.545-3.828,1.545l-4.358-0.031c-0.118,0-0.218-0.031-0.299-0.092c-0.082-0.061-0.123-0.143-0.123-0.247
			c0-0.089,0.028-0.162,0.084-0.22c0.057-0.059,0.212-0.1,0.464-0.129s0.411-0.081,0.479-0.16c0.071-0.081,0.104-0.178,0.104-0.296
			v-8.709c0-0.23-0.036-0.396-0.109-0.498c-0.076-0.103-0.155-0.163-0.239-0.181c-0.084-0.019-0.246-0.026-0.487-0.026
			c-0.147,0-0.246-0.026-0.299-0.076C0.026,48.68,0,48.604,0,48.498c0-0.215,0.168-0.322,0.506-0.322H4.348L4.348,48.176z
			 M2.501,57.797c0,0.297,0.137,0.525,0.41,0.682c0.272,0.161,0.775,0.239,1.508,0.239c0.792,0,1.392-0.103,1.799-0.307
			c0.689-0.352,1.25-0.91,1.681-1.679c0.43-0.766,0.646-1.541,0.646-2.326c0-0.678-0.059-1.318-0.174-1.919
			s-0.325-1.141-0.627-1.623c-0.301-0.482-0.755-0.938-1.363-1.368c-0.608-0.428-1.416-0.644-2.426-0.644
			c-0.968,0-1.453,0.21-1.453,0.63V57.797L2.501,57.797z M12.31,51.418c0.232,0,0.435,0.084,0.605,0.254
			c0.17,0.17,0.254,0.373,0.254,0.605c0,0.207-0.084,0.383-0.252,0.527s-0.364,0.217-0.592,0.217c-0.231,0-0.428-0.078-0.593-0.238
			s-0.247-0.352-0.247-0.574c0-0.215,0.082-0.398,0.247-0.556S12.089,51.418,12.31,51.418L12.31,51.418z M12.949,58.072
			c0,0.252,0.047,0.415,0.139,0.494c0.092,0.076,0.215,0.125,0.367,0.148c0.154,0.023,0.262,0.056,0.325,0.098
			c0.065,0.041,0.097,0.129,0.097,0.26c0,0.173-0.149,0.26-0.448,0.26c-0.129,0-0.32-0.014-0.577-0.04s-0.448-0.039-0.571-0.039
			s-0.302,0.019-0.537,0.055c-0.239,0.037-0.415,0.056-0.533,0.056s-0.22-0.035-0.304-0.1c-0.087-0.068-0.129-0.158-0.129-0.266
			c0-0.068,0.023-0.125,0.068-0.176c0.047-0.049,0.165-0.089,0.354-0.12c0.189-0.028,0.32-0.092,0.396-0.184
			c0.073-0.092,0.11-0.314,0.11-0.669v-2.602c0-0.22-0.048-0.367-0.139-0.438c-0.092-0.07-0.229-0.126-0.407-0.16
			c-0.178-0.037-0.291-0.084-0.333-0.141c-0.044-0.056-0.065-0.127-0.065-0.211c0-0.092,0.037-0.168,0.112-0.228
			c0.074-0.061,0.163-0.089,0.266-0.089c0.089,0,0.212,0.021,0.375,0.063c0.162,0.042,0.283,0.063,0.359,0.063
			c0.089,0,0.223-0.016,0.403-0.047c0.179-0.031,0.312-0.047,0.401-0.047c0.191,0,0.285,0.16,0.285,0.477
			c0,0.051-0.002,0.119-0.007,0.203c-0.006,0.086-0.008,0.144-0.008,0.172V58.072L12.949,58.072z M19.782,57.174l0.023,0.031
			c0.51,0.244,0.918,0.592,1.23,1.043c0.312,0.451,0.469,0.937,0.469,1.453c0,0.789-0.354,1.438-1.059,1.94
			c-0.709,0.507-1.54,0.758-2.497,0.758c-0.983,0-1.819-0.259-2.507-0.778c-0.689-0.521-1.033-1.201-1.033-2.043
			c0-0.49,0.163-0.952,0.485-1.383c0.325-0.43,0.75-0.754,1.274-0.975l0.047-0.055l-0.063-0.076c-0.26-0.16-0.462-0.367-0.611-0.625
			c-0.146-0.26-0.22-0.543-0.22-0.847c0-0.495,0.218-0.907,0.65-1.231c0.435-0.323,0.985-0.527,1.654-0.609
			c0.081-0.01,0.139-0.049,0.176-0.123c0.107-0.244,0.285-0.512,0.54-0.805c0.252-0.291,0.48-0.467,0.685-0.527
			c0.204-0.058,0.556-0.086,1.052-0.086c0.291,0,0.436,0.148,0.436,0.447c0,0.176-0.071,0.317-0.216,0.428
			c-0.144,0.107-0.328,0.162-0.553,0.162c-0.05,0-0.113-0.008-0.191-0.023c-0.076-0.016-0.14-0.023-0.192-0.023
			c-0.248,0-0.459,0.071-0.629,0.21c-0.168,0.14-0.252,0.233-0.252,0.278c0,0.053,0.032,0.078,0.1,0.078
			c0.614,0.076,1.102,0.289,1.467,0.638c0.364,0.346,0.545,0.784,0.545,1.308c0,0.559-0.252,1.013-0.755,1.367L19.782,57.174
			L19.782,57.174z M18.015,57.026c0.398,0,0.734-0.134,1.013-0.406s0.417-0.601,0.417-0.983c0-0.207-0.065-0.414-0.199-0.613
			c-0.131-0.202-0.305-0.352-0.514-0.451c-0.213-0.1-0.354-0.15-0.426-0.15c-0.036,0-0.058,0.021-0.067,0.063
			c-0.063,0.236-0.191,0.352-0.392,0.352c-0.178,0-0.267-0.1-0.267-0.299c0-0.056-0.023-0.084-0.068-0.084
			c-0.071,0-0.191,0.045-0.362,0.134c-0.17,0.09-0.317,0.238-0.438,0.445c-0.118,0.205-0.179,0.436-0.179,0.693
			c0,0.361,0.149,0.668,0.451,0.922C17.283,56.9,17.63,57.026,18.015,57.026L18.015,57.026z M17.934,61.738
			c0.663,0,1.22-0.191,1.668-0.574c0.451-0.383,0.677-0.883,0.677-1.502c0-0.621-0.221-1.117-0.661-1.484
			c-0.44-0.369-0.997-0.553-1.668-0.553c-0.731,0-1.301,0.186-1.707,0.555c-0.403,0.371-0.605,0.877-0.605,1.514
			c0,0.613,0.238,1.106,0.719,1.481C16.832,61.55,17.359,61.738,17.934,61.738L17.934,61.738z M23.87,51.418
			c0.234,0,0.436,0.084,0.606,0.254c0.17,0.17,0.254,0.373,0.254,0.605c0,0.207-0.084,0.383-0.251,0.527
			c-0.168,0.145-0.365,0.217-0.594,0.217c-0.23,0-0.427-0.078-0.592-0.238c-0.166-0.16-0.247-0.352-0.247-0.574
			c0-0.215,0.081-0.398,0.247-0.556C23.459,51.496,23.65,51.418,23.87,51.418L23.87,51.418z M24.511,58.072
			c0,0.252,0.047,0.415,0.139,0.494c0.092,0.076,0.215,0.125,0.367,0.148c0.154,0.023,0.263,0.056,0.325,0.098
			c0.065,0.041,0.097,0.129,0.097,0.26c0,0.173-0.149,0.26-0.448,0.26c-0.129,0-0.32-0.014-0.577-0.04s-0.448-0.039-0.571-0.039
			s-0.302,0.019-0.538,0.055c-0.238,0.037-0.414,0.056-0.532,0.056s-0.22-0.035-0.304-0.1c-0.087-0.068-0.129-0.158-0.129-0.266
			c0-0.068,0.023-0.125,0.068-0.176c0.047-0.049,0.165-0.089,0.354-0.12c0.189-0.028,0.32-0.092,0.396-0.184
			c0.073-0.092,0.11-0.314,0.11-0.669v-2.602c0-0.22-0.048-0.367-0.14-0.438c-0.091-0.07-0.228-0.126-0.406-0.16
			c-0.178-0.037-0.291-0.084-0.333-0.141c-0.044-0.056-0.065-0.127-0.065-0.211c0-0.092,0.037-0.168,0.113-0.228
			c0.073-0.061,0.162-0.089,0.265-0.089c0.089,0,0.212,0.021,0.375,0.063c0.162,0.042,0.283,0.063,0.359,0.063
			c0.089,0,0.223-0.016,0.403-0.047c0.179-0.031,0.313-0.047,0.401-0.047c0.191,0,0.286,0.16,0.286,0.477
			c0,0.051-0.003,0.119-0.008,0.203c-0.006,0.086-0.008,0.144-0.008,0.172V58.072L24.511,58.072z M28.488,57.585
			c0,0.431,0.021,0.706,0.061,0.826c0.039,0.12,0.111,0.181,0.217,0.181c0.162,0,0.367-0.092,0.605-0.275s0.402-0.275,0.488-0.275
			c0.07,0,0.131,0.031,0.184,0.092c0.055,0.063,0.082,0.139,0.082,0.227c0,0.144-0.203,0.379-0.604,0.705
			c-0.402,0.324-0.756,0.487-1.062,0.487c-0.811,0-1.215-0.593-1.215-1.775v-2.95c0-0.098-0.013-0.148-0.039-0.156
			c-0.023-0.009-0.168-0.012-0.43-0.012c-0.205,0-0.344-0.031-0.415-0.092c-0.07-0.061-0.106-0.146-0.106-0.262
			c0-0.1,0.025-0.171,0.081-0.213c0.052-0.041,0.157-0.084,0.314-0.129c0.155-0.041,0.275-0.094,0.359-0.151
			c0.084-0.06,0.201-0.184,0.354-0.37c0.149-0.186,0.257-0.451,0.32-0.786c0.065-0.339,0.097-0.826,0.097-1.461
			c0-0.302,0.084-0.454,0.252-0.454c0.188,0,0.307,0.043,0.354,0.127c0.048,0.086,0.071,0.228,0.071,0.428v2.564
			c0,0.102,0.065,0.154,0.2,0.154h1.09c0.221,0,0.33,0.097,0.33,0.291c0,0.225-0.156,0.338-0.475,0.338h-0.959
			c-0.074,0-0.115,0.011-0.13,0.035c-0.017,0.023-0.024,0.08-0.024,0.172V57.585L28.488,57.585z M40.721,56.939
			c0.078,0,0.146,0.029,0.201,0.09c0.059,0.058,0.088,0.109,0.088,0.157c0,0.179-0.207,0.467-0.619,0.857
			c-0.412,0.394-0.951,0.729-1.619,1.01c-0.664,0.28-1.367,0.419-2.109,0.419c-1.199,0-2.24-0.262-3.123-0.783
			c-0.885-0.522-1.564-1.248-2.033-2.182c-0.473-0.932-0.707-1.901-0.707-2.903c0-1.005,0.23-1.946,0.691-2.824
			s1.117-1.563,1.967-2.056c0.85-0.49,1.836-0.736,2.959-0.736c0.715,0,1.379,0.094,1.984,0.279c0.607,0.187,1.086,0.415,1.438,0.68
			c0.352,0.268,0.525,0.469,0.525,0.608c0,0.215-0.004,0.409-0.016,0.585c-0.01,0.173-0.016,0.277-0.016,0.314
			c0,0.061,0.02,0.154,0.057,0.28c0.035,0.126,0.055,0.241,0.055,0.349c0,0.171-0.105,0.255-0.314,0.255
			c-0.066,0-0.133-0.032-0.197-0.092c-0.068-0.063-0.162-0.235-0.291-0.519c-0.273-0.604-0.566-1.042-0.879-1.314
			c-0.551-0.48-1.318-0.719-2.305-0.719c-1.27,0-2.256,0.462-2.963,1.383c-0.705,0.922-1.061,2.113-1.061,3.57
			c0,1.59,0.385,2.844,1.146,3.766c0.764,0.921,1.793,1.383,3.092,1.383c0.334,0,0.857-0.113,1.574-0.339
			c0.715-0.226,1.42-0.661,2.117-1.308C40.52,57.011,40.639,56.939,40.721,56.939L40.721,56.939z M47.004,57.98
			c0,0.37,0.246,0.625,0.74,0.77c0.123,0.036,0.215,0.078,0.271,0.125c0.061,0.047,0.09,0.137,0.09,0.268
			c0,0.068-0.039,0.126-0.119,0.176s-0.164,0.076-0.258,0.076c-0.098,0-0.229-0.023-0.396-0.07
			c-0.166-0.048-0.299-0.071-0.402-0.071c-0.117,0-0.268,0.023-0.447,0.071c-0.178,0.047-0.299,0.07-0.359,0.07
			c-0.074,0-0.145-0.026-0.213-0.082c-0.068-0.055-0.105-0.109-0.105-0.164c0-0.087-0.023-0.132-0.074-0.132
			c-0.037,0-0.082,0.019-0.141,0.056c-0.576,0.361-1.203,0.543-1.875,0.543c-0.316,0-0.674-0.082-1.064-0.247
			c-0.393-0.163-0.705-0.414-0.941-0.755c-0.236-0.342-0.354-0.764-0.354-1.264c0-0.535,0.254-1.005,0.764-1.416
			c0.508-0.41,1.16-0.614,1.963-0.614c0.271,0,0.57,0.076,0.893,0.228c0.324,0.15,0.486,0.305,0.486,0.465
			c0,0.076-0.033,0.139-0.098,0.184c-0.068,0.047-0.15,0.07-0.248,0.07c-0.064,0-0.195-0.047-0.393-0.137
			c-0.193-0.088-0.393-0.133-0.602-0.133c-0.418,0-0.768,0.123-1.045,0.369c-0.275,0.246-0.414,0.577-0.414,0.988
			c0,0.48,0.158,0.848,0.477,1.104c0.316,0.257,0.684,0.386,1.1,0.386c0.375,0,0.717-0.123,1.035-0.369
			c0.314-0.244,0.471-0.572,0.471-0.981v-2.082c0-0.312-0.102-0.566-0.309-0.761c-0.207-0.193-0.482-0.291-0.828-0.291
			c-0.443,0-0.873,0.14-1.291,0.42c-0.145,0.097-0.24,0.146-0.291,0.146c-0.123,0-0.225-0.031-0.313-0.097
			c-0.086-0.063-0.131-0.147-0.131-0.249c0-0.25,0.229-0.462,0.688-0.638c0.459-0.173,0.957-0.259,1.5-0.259
			c0.672,0,1.211,0.167,1.621,0.506c0.408,0.338,0.613,0.742,0.613,1.209V57.98L47.004,57.98z M49.709,60.478
			c0.033-0.292,0.049-1.099,0.049-2.423c0-0.637-0.016-1.571-0.049-2.799c-0.006-0.125-0.063-0.238-0.156-0.332
			c-0.094-0.095-0.293-0.168-0.596-0.219c-0.23-0.035-0.379-0.08-0.447-0.131c-0.072-0.052-0.105-0.117-0.105-0.193
			c0-0.202,0.16-0.305,0.48-0.305c0.059,0,0.211,0.023,0.453,0.071c0.244,0.047,0.396,0.071,0.457,0.071
			c0.066,0,0.207-0.029,0.416-0.088c0.213-0.057,0.344-0.086,0.393-0.086c0.139,0,0.229,0.031,0.264,0.092
			c0.035,0.063,0.055,0.157,0.055,0.285v2.713c0,0.553,0.172,0.99,0.521,1.315s0.758,0.487,1.225,0.487
			c0.225,0,0.512-0.096,0.863-0.293s0.627-0.482,0.822-0.855c0.197-0.371,0.297-0.794,0.297-1.264c0-0.556-0.17-1.049-0.512-1.484
			c-0.34-0.432-0.736-0.65-1.189-0.65c-0.271,0-0.523,0.051-0.75,0.15c-0.229,0.1-0.379,0.148-0.449,0.148
			c-0.074,0-0.137-0.023-0.193-0.068c-0.055-0.047-0.084-0.102-0.084-0.167c0-0.152,0.188-0.31,0.563-0.47s0.699-0.238,0.971-0.238
			c0.826,0,1.521,0.265,2.08,0.792c0.559,0.53,0.84,1.248,0.84,2.158c0,0.702-0.289,1.348-0.867,1.938
			c-0.576,0.591-1.271,0.887-2.084,0.887c-0.313,0-0.605-0.042-0.883-0.124c-0.279-0.08-0.643-0.27-1.094-0.568
			c-0.039,0-0.061,0.131-0.061,0.393c0,0.648-0.045,1.141-0.131,1.482c-0.09,0.338-0.236,0.632-0.449,0.881
			c-0.213,0.252-0.42,0.428-0.621,0.532c-0.205,0.104-0.4,0.157-0.592,0.157c-0.283,0-0.426-0.068-0.426-0.205
			c0-0.057,0.063-0.119,0.191-0.188c0.309-0.168,0.52-0.389,0.633-0.656C49.655,60.957,49.709,60.708,49.709,60.478z"/>
		<g>
			<path fill-rule="evenodd" clip-rule="evenodd" fill="#FFFFFF" d="M1.947,63.32c0.344,0,0.731,0.098,1.161,0.297
				c0.43,0.198,0.778,0.495,1.044,0.891c0.267,0.394,0.399,0.854,0.399,1.379c0,0.715-0.221,1.303-0.662,1.765
				c-0.439,0.462-1.012,0.692-1.714,0.692l-1.951-0.015c-0.054,0-0.098-0.015-0.135-0.041c-0.036-0.026-0.055-0.063-0.055-0.11
				c0-0.04,0.013-0.072,0.038-0.099s0.095-0.044,0.207-0.058c0.113-0.013,0.185-0.036,0.215-0.071
				c0.032-0.036,0.047-0.08,0.047-0.134v-3.898c0-0.104-0.016-0.178-0.049-0.224c-0.034-0.046-0.069-0.073-0.107-0.081
				c-0.037-0.008-0.109-0.012-0.218-0.012c-0.065,0-0.11-0.012-0.134-0.033C0.012,63.545,0,63.512,0,63.465
				c0-0.097,0.075-0.145,0.227-0.145H1.947L1.947,63.32z M1.12,67.628c0,0.134,0.062,0.235,0.184,0.306
				c0.122,0.071,0.348,0.106,0.675,0.106c0.354,0,0.624-0.046,0.806-0.138c0.309-0.156,0.56-0.406,0.752-0.751
				c0.193-0.343,0.29-0.69,0.29-1.042c0-0.304-0.026-0.59-0.078-0.859c-0.052-0.269-0.146-0.511-0.28-0.727
				c-0.136-0.216-0.338-0.42-0.611-0.613c-0.271-0.191-0.634-0.287-1.086-0.287c-0.433,0-0.65,0.094-0.65,0.281V67.628L1.12,67.628z
				 M5.512,64.771c0.104,0,0.195,0.037,0.271,0.113s0.114,0.167,0.114,0.271c0,0.093-0.038,0.172-0.113,0.236
				S5.621,65.49,5.519,65.49c-0.104,0-0.191-0.035-0.265-0.107c-0.074-0.071-0.11-0.157-0.11-0.257c0-0.097,0.036-0.179,0.11-0.249
				C5.327,64.807,5.413,64.771,5.512,64.771L5.512,64.771z M5.799,67.752c0,0.112,0.021,0.186,0.062,0.221
				c0.041,0.033,0.097,0.057,0.164,0.066c0.07,0.011,0.118,0.024,0.146,0.043c0.029,0.02,0.043,0.059,0.043,0.117
				c0,0.077-0.066,0.115-0.2,0.115c-0.058,0-0.144-0.006-0.259-0.017c-0.115-0.013-0.201-0.019-0.256-0.019
				c-0.056,0-0.135,0.009-0.241,0.025s-0.185,0.024-0.238,0.024c-0.053,0-0.099-0.015-0.136-0.044
				c-0.039-0.031-0.058-0.07-0.058-0.119c0-0.031,0.011-0.057,0.03-0.078c0.021-0.023,0.074-0.041,0.158-0.055
				c0.085-0.013,0.144-0.041,0.178-0.082c0.033-0.041,0.049-0.141,0.049-0.3v-1.165c0-0.098-0.021-0.164-0.062-0.195
				c-0.041-0.032-0.103-0.057-0.182-0.072c-0.08-0.016-0.131-0.037-0.149-0.063c-0.021-0.025-0.029-0.057-0.029-0.095
				c0-0.041,0.016-0.075,0.05-0.103c0.033-0.026,0.073-0.039,0.119-0.039c0.04,0,0.095,0.009,0.168,0.027
				c0.073,0.02,0.126,0.029,0.161,0.029c0.039,0,0.1-0.008,0.181-0.021c0.079-0.014,0.14-0.021,0.18-0.021
				c0.086,0,0.128,0.072,0.128,0.214c0,0.022-0.001,0.053-0.004,0.091c-0.002,0.038-0.003,0.064-0.003,0.077V67.752L5.799,67.752z
				 M8.858,67.349l0.011,0.015c0.228,0.108,0.411,0.265,0.551,0.467s0.21,0.42,0.21,0.65c0,0.354-0.158,0.644-0.475,0.869
				c-0.316,0.227-0.689,0.34-1.117,0.34c-0.44,0-0.815-0.117-1.123-0.35c-0.309-0.233-0.463-0.537-0.463-0.914
				c0-0.22,0.073-0.426,0.217-0.619c0.146-0.192,0.336-0.338,0.571-0.438l0.021-0.023l-0.028-0.035
				c-0.116-0.071-0.207-0.164-0.273-0.279s-0.099-0.242-0.099-0.379c0-0.223,0.098-0.406,0.291-0.552
				c0.195-0.145,0.441-0.236,0.741-0.272c0.036-0.004,0.063-0.022,0.078-0.056c0.048-0.108,0.128-0.229,0.242-0.36
				c0.113-0.13,0.215-0.209,0.307-0.236c0.091-0.025,0.249-0.038,0.471-0.038c0.13,0,0.195,0.067,0.195,0.2
				c0,0.079-0.032,0.143-0.097,0.191s-0.146,0.073-0.248,0.073c-0.022,0-0.05-0.003-0.085-0.011c-0.034-0.007-0.063-0.01-0.086-0.01
				c-0.111,0-0.206,0.031-0.282,0.094c-0.075,0.063-0.112,0.104-0.112,0.124c0,0.024,0.014,0.035,0.044,0.035
				c0.275,0.034,0.493,0.13,0.657,0.286c0.162,0.154,0.244,0.351,0.244,0.586c0,0.25-0.113,0.453-0.339,0.611L8.858,67.349
				L8.858,67.349z M8.067,67.283c0.178,0,0.328-0.061,0.453-0.183c0.124-0.122,0.187-0.269,0.187-0.44
				c0-0.092-0.029-0.186-0.089-0.274c-0.059-0.091-0.137-0.157-0.23-0.202c-0.096-0.045-0.158-0.066-0.19-0.066
				c-0.017,0-0.025,0.009-0.03,0.027c-0.028,0.105-0.086,0.158-0.175,0.158c-0.08,0-0.12-0.045-0.12-0.135
				c0-0.023-0.011-0.037-0.03-0.037c-0.032,0-0.086,0.02-0.162,0.061c-0.076,0.039-0.143,0.106-0.196,0.199
				c-0.053,0.092-0.08,0.195-0.08,0.311c0,0.162,0.067,0.299,0.202,0.412C7.739,67.227,7.895,67.283,8.067,67.283L8.067,67.283z
				 M8.03,69.393c0.298,0,0.547-0.086,0.747-0.257c0.202-0.171,0.303-0.396,0.303-0.673c0-0.278-0.099-0.5-0.296-0.664
				c-0.197-0.166-0.446-0.248-0.746-0.248c-0.328,0-0.583,0.083-0.765,0.248c-0.181,0.166-0.271,0.393-0.271,0.679
				c0,0.274,0.106,0.495,0.321,0.663C7.537,69.309,7.773,69.393,8.03,69.393L8.03,69.393z M10.689,64.771
				c0.104,0,0.194,0.037,0.271,0.113c0.077,0.076,0.114,0.167,0.114,0.271c0,0.093-0.037,0.172-0.112,0.236
				s-0.163,0.098-0.266,0.098c-0.104,0-0.191-0.035-0.266-0.107c-0.074-0.071-0.11-0.157-0.11-0.257c0-0.097,0.036-0.179,0.11-0.249
				S10.591,64.771,10.689,64.771L10.689,64.771z M10.976,67.752c0,0.112,0.021,0.186,0.063,0.221
				c0.041,0.033,0.097,0.057,0.164,0.066c0.069,0.011,0.117,0.024,0.146,0.043c0.029,0.02,0.044,0.059,0.044,0.117
				c0,0.077-0.067,0.115-0.201,0.115c-0.058,0-0.143-0.006-0.258-0.017c-0.115-0.013-0.201-0.019-0.256-0.019
				c-0.056,0-0.136,0.009-0.241,0.025c-0.106,0.017-0.186,0.024-0.238,0.024s-0.099-0.015-0.137-0.044
				c-0.038-0.031-0.058-0.07-0.058-0.119c0-0.031,0.011-0.057,0.031-0.078c0.021-0.023,0.074-0.041,0.158-0.055
				c0.084-0.013,0.144-0.041,0.178-0.082c0.032-0.041,0.049-0.141,0.049-0.3v-1.165c0-0.098-0.021-0.164-0.063-0.195
				c-0.041-0.032-0.102-0.057-0.182-0.072s-0.131-0.037-0.149-0.063c-0.02-0.025-0.029-0.057-0.029-0.095
				c0-0.041,0.017-0.075,0.051-0.103c0.033-0.026,0.072-0.039,0.118-0.039c0.04,0,0.096,0.009,0.168,0.027
				c0.073,0.02,0.127,0.029,0.161,0.029c0.04,0,0.1-0.008,0.181-0.021c0.08-0.014,0.14-0.021,0.18-0.021
				c0.086,0,0.128,0.072,0.128,0.214c0,0.022-0.001,0.053-0.003,0.091c-0.003,0.038-0.004,0.064-0.004,0.077V67.752L10.976,67.752z
				 M12.757,67.533c0,0.192,0.01,0.315,0.027,0.369c0.018,0.055,0.05,0.082,0.098,0.082c0.072,0,0.164-0.041,0.271-0.123
				c0.107-0.083,0.18-0.124,0.219-0.124c0.031,0,0.059,0.015,0.082,0.041c0.024,0.028,0.036,0.063,0.036,0.101
				c0,0.065-0.09,0.171-0.27,0.316s-0.338,0.219-0.476,0.219c-0.362,0-0.544-0.266-0.544-0.795v-1.321
				c0-0.044-0.006-0.067-0.018-0.071c-0.011-0.003-0.075-0.004-0.192-0.004c-0.092,0-0.154-0.014-0.186-0.041
				c-0.032-0.027-0.048-0.066-0.048-0.117c0-0.045,0.012-0.076,0.036-0.096c0.023-0.019,0.07-0.037,0.141-0.057
				c0.069-0.02,0.123-0.043,0.161-0.068c0.038-0.027,0.091-0.082,0.158-0.166s0.115-0.202,0.144-0.353
				c0.029-0.151,0.044-0.37,0.044-0.653c0-0.136,0.037-0.203,0.112-0.203c0.084,0,0.138,0.018,0.158,0.056
				c0.021,0.039,0.032,0.103,0.032,0.191v1.148c0,0.046,0.029,0.069,0.089,0.069h0.488c0.099,0,0.148,0.043,0.148,0.131
				c0,0.101-0.07,0.15-0.213,0.15h-0.43c-0.033,0-0.052,0.006-0.059,0.016c-0.007,0.011-0.011,0.037-0.011,0.078V67.533
				L12.757,67.533z M16.335,67.71c0,0.166,0.11,0.28,0.331,0.345c0.056,0.016,0.097,0.035,0.122,0.057
				c0.027,0.021,0.04,0.061,0.04,0.119c0,0.031-0.018,0.057-0.053,0.078c-0.036,0.023-0.074,0.035-0.116,0.035
				c-0.044,0-0.103-0.012-0.178-0.032c-0.074-0.021-0.134-0.032-0.18-0.032c-0.053,0-0.119,0.012-0.2,0.032
				c-0.08,0.021-0.134,0.032-0.161,0.032c-0.033,0-0.064-0.012-0.096-0.037c-0.03-0.024-0.047-0.049-0.047-0.074
				c0-0.038-0.01-0.059-0.033-0.059c-0.017,0-0.037,0.009-0.063,0.025c-0.259,0.162-0.539,0.242-0.84,0.242
				c-0.143,0-0.302-0.035-0.477-0.109c-0.177-0.073-0.316-0.186-0.422-0.339c-0.105-0.152-0.158-0.342-0.158-0.565
				c0-0.24,0.113-0.449,0.342-0.635c0.228-0.183,0.52-0.274,0.879-0.274c0.121,0,0.255,0.034,0.399,0.103
				c0.146,0.066,0.219,0.136,0.219,0.207c0,0.035-0.016,0.063-0.045,0.082c-0.03,0.021-0.066,0.032-0.11,0.032
				c-0.029,0-0.088-0.021-0.176-0.062c-0.087-0.039-0.176-0.059-0.27-0.059c-0.188,0-0.344,0.055-0.468,0.165
				s-0.186,0.258-0.186,0.442c0,0.215,0.071,0.379,0.214,0.494c0.142,0.115,0.306,0.173,0.491,0.173
				c0.168,0,0.322-0.056,0.464-0.165c0.141-0.109,0.212-0.256,0.212-0.439V66.56c0-0.14-0.046-0.254-0.139-0.341
				c-0.093-0.086-0.216-0.13-0.371-0.13c-0.198,0-0.392,0.062-0.578,0.188c-0.064,0.044-0.107,0.065-0.13,0.065
				c-0.056,0-0.102-0.014-0.14-0.043c-0.039-0.027-0.059-0.066-0.059-0.111c0-0.111,0.102-0.207,0.308-0.285
				c0.205-0.078,0.428-0.117,0.672-0.117c0.3,0,0.542,0.076,0.726,0.227c0.183,0.152,0.274,0.333,0.274,0.542V67.71L16.335,67.71z
				 M18.097,67.818c0,0.061,0.016,0.113,0.048,0.157c0.033,0.045,0.104,0.075,0.214,0.095c0.11,0.018,0.179,0.041,0.201,0.068
				c0.025,0.028,0.037,0.063,0.037,0.105c0,0.076-0.057,0.113-0.169,0.113c-0.069,0-0.173-0.01-0.31-0.028
				c-0.136-0.019-0.238-0.028-0.307-0.028c-0.065,0-0.16,0.01-0.285,0.028c-0.124,0.019-0.218,0.028-0.282,0.028
				c-0.093,0-0.153-0.011-0.179-0.031c-0.027-0.021-0.04-0.051-0.04-0.089c0-0.037,0.011-0.069,0.032-0.095
				c0.023-0.025,0.091-0.047,0.207-0.064s0.193-0.056,0.229-0.114c0.036-0.058,0.054-0.126,0.054-0.204v-3.709
				c0-0.08-0.019-0.15-0.056-0.212c-0.036-0.062-0.112-0.104-0.228-0.133c-0.115-0.026-0.183-0.056-0.206-0.083
				c-0.021-0.028-0.032-0.061-0.032-0.096s0.019-0.063,0.058-0.084c0.037-0.021,0.077-0.031,0.12-0.031
				c0.036,0,0.091,0.006,0.164,0.021s0.126,0.021,0.161,0.021c0.038,0,0.099-0.006,0.176-0.021c0.078-0.015,0.139-0.021,0.178-0.021
				c0.073,0,0.128,0.02,0.163,0.059c0.034,0.038,0.052,0.108,0.052,0.21V67.818L18.097,67.818z M22.896,63.306
				c0.077,0,0.141,0.081,0.188,0.244c0.049,0.163,0.072,0.315,0.072,0.454c0,0.141-0.046,0.211-0.138,0.211
				c-0.033,0-0.063-0.011-0.089-0.031c-0.027-0.02-0.064-0.092-0.111-0.216c-0.046-0.123-0.116-0.206-0.208-0.251
				c-0.093-0.043-0.193-0.066-0.304-0.066c-0.154,0-0.266,0.037-0.335,0.108c-0.069,0.073-0.104,0.19-0.104,0.353v3.648
				c0,0.054,0.017,0.104,0.05,0.146s0.103,0.079,0.208,0.11c0.105,0.03,0.171,0.058,0.194,0.081c0.021,0.022,0.033,0.05,0.033,0.079
				c0,0.122-0.063,0.182-0.188,0.182c-0.068,0-0.169-0.011-0.302-0.031c-0.133-0.021-0.23-0.032-0.295-0.032
				c-0.06,0-0.146,0.009-0.261,0.028c-0.114,0.019-0.201,0.027-0.261,0.027c-0.07,0-0.132-0.016-0.182-0.049
				c-0.051-0.033-0.075-0.078-0.075-0.137c0-0.029,0.009-0.055,0.026-0.076c0.02-0.023,0.08-0.049,0.184-0.08
				s0.173-0.079,0.209-0.143c0.035-0.064,0.053-0.137,0.053-0.217v-3.691c0-0.223-0.149-0.334-0.448-0.334
				c-0.195,0-0.333,0.045-0.415,0.133c-0.05,0.051-0.087,0.129-0.11,0.234c-0.021,0.105-0.046,0.168-0.07,0.188
				c-0.024,0.021-0.054,0.029-0.089,0.029c-0.037,0-0.072-0.009-0.105-0.029c-0.034-0.02-0.051-0.045-0.051-0.073
				c0-0.251,0.022-0.446,0.065-0.587c0.044-0.141,0.106-0.212,0.188-0.212H22.896L22.896,63.306z M24.04,64.771
				c0.104,0,0.195,0.037,0.271,0.113s0.114,0.167,0.114,0.271c0,0.093-0.038,0.172-0.113,0.236s-0.163,0.098-0.266,0.098
				s-0.19-0.035-0.265-0.107c-0.074-0.071-0.11-0.157-0.11-0.257c0-0.097,0.036-0.179,0.11-0.249S23.941,64.771,24.04,64.771
				L24.04,64.771z M24.327,67.752c0,0.112,0.021,0.186,0.063,0.221c0.04,0.033,0.096,0.057,0.164,0.066
				c0.069,0.011,0.117,0.024,0.146,0.043c0.029,0.02,0.043,0.059,0.043,0.117c0,0.077-0.066,0.115-0.2,0.115
				c-0.058,0-0.144-0.006-0.259-0.017c-0.115-0.013-0.201-0.019-0.256-0.019c-0.056,0-0.135,0.009-0.241,0.025
				s-0.185,0.024-0.238,0.024c-0.053,0-0.098-0.015-0.136-0.044c-0.039-0.031-0.058-0.07-0.058-0.119
				c0-0.031,0.011-0.057,0.03-0.078c0.021-0.023,0.074-0.041,0.159-0.055c0.084-0.013,0.143-0.041,0.177-0.082
				c0.033-0.041,0.05-0.141,0.05-0.3v-1.165c0-0.098-0.021-0.164-0.063-0.195c-0.041-0.032-0.103-0.057-0.182-0.072
				c-0.08-0.016-0.131-0.037-0.149-0.063c-0.021-0.025-0.029-0.057-0.029-0.095c0-0.041,0.017-0.075,0.05-0.103
				c0.033-0.026,0.073-0.039,0.119-0.039c0.04,0,0.095,0.009,0.168,0.027c0.072,0.02,0.127,0.029,0.16,0.029
				c0.04,0,0.101-0.008,0.182-0.021c0.08-0.014,0.14-0.021,0.18-0.021c0.086,0,0.128,0.072,0.128,0.214
				c0,0.022-0.001,0.053-0.004,0.091c-0.002,0.038-0.003,0.064-0.003,0.077V67.752L24.327,67.752z M27.137,66.49
				c0-0.051-0.022-0.094-0.067-0.129c-0.044-0.037-0.093-0.055-0.145-0.055c-0.113,0-0.248,0.064-0.403,0.193
				c-0.091,0.078-0.156,0.117-0.197,0.117c-0.06,0-0.09-0.025-0.09-0.078c0-0.117,0.107-0.253,0.322-0.408
				c0.214-0.154,0.407-0.232,0.579-0.232c0.146,0,0.275,0.053,0.385,0.157c0.11,0.106,0.166,0.229,0.166,0.372l-0.007,1.398
				c0,0.072,0.024,0.131,0.072,0.179s0.105,0.071,0.174,0.071c0.117,0,0.176,0.045,0.176,0.139c0,0.08-0.061,0.121-0.183,0.121
				c-0.015,0-0.082-0.008-0.207-0.024c-0.123-0.017-0.227-0.024-0.309-0.024c-0.139,0-0.256,0.009-0.35,0.027
				c-0.096,0.02-0.156,0.029-0.184,0.029c-0.042,0-0.078-0.014-0.109-0.041c-0.031-0.026-0.047-0.061-0.047-0.102
				c0-0.064,0.04-0.098,0.12-0.098c0.073,0,0.142-0.023,0.206-0.07c0.065-0.048,0.097-0.119,0.097-0.213V66.49L27.137,66.49z
				 M28.715,66.49v1.326c0,0.07-0.018,0.128-0.053,0.174c-0.033,0.045-0.104,0.073-0.21,0.084c-0.107,0.011-0.16,0.052-0.16,0.125
				c0,0.042,0.016,0.076,0.047,0.104c0.031,0.026,0.067,0.041,0.108,0.041c0.067,0,0.149-0.01,0.249-0.029
				c0.102-0.019,0.193-0.027,0.279-0.027c0.084,0,0.188,0.008,0.309,0.024s0.191,0.024,0.207,0.024c0.111,0,0.168-0.045,0.168-0.133
				c0-0.029-0.008-0.057-0.025-0.079s-0.066-0.042-0.146-0.06c-0.078-0.015-0.139-0.042-0.178-0.078
				c-0.039-0.037-0.059-0.093-0.059-0.166l0.006-0.586c0-0.619-0.016-0.96-0.047-1.021c-0.09-0.205-0.256-0.308-0.5-0.308
				c-0.208,0-0.413,0.079-0.615,0.236c-0.201,0.157-0.303,0.288-0.303,0.391c0,0.022,0.011,0.042,0.033,0.06
				c0.021,0.018,0.045,0.025,0.073,0.025c0.044,0,0.132-0.052,0.266-0.155c0.134-0.103,0.247-0.155,0.339-0.155
				c0.052,0,0.101,0.018,0.144,0.055C28.692,66.396,28.715,66.439,28.715,66.49L28.715,66.49z M25.572,66.498v1.129
				c0,0.144-0.005,0.237-0.015,0.283c-0.011,0.045-0.035,0.083-0.076,0.112c-0.04,0.028-0.092,0.048-0.156,0.056
				c-0.063,0.008-0.108,0.02-0.132,0.037c-0.024,0.018-0.036,0.055-0.036,0.109c0,0.074,0.064,0.111,0.193,0.111
				c0.051,0,0.126-0.01,0.226-0.027c0.1-0.02,0.185-0.029,0.254-0.029c0.086,0,0.171,0.01,0.259,0.029
				c0.087,0.018,0.174,0.027,0.259,0.027c0.117,0,0.176-0.041,0.176-0.121c0-0.049-0.013-0.08-0.04-0.096
				c-0.025-0.016-0.067-0.025-0.124-0.033c-0.058-0.007-0.108-0.023-0.15-0.048c-0.042-0.026-0.069-0.052-0.082-0.077
				c-0.013-0.027-0.019-0.094-0.019-0.199l0.007-0.602c0-0.294-0.005-0.551-0.015-0.773c-0.009-0.221-0.024-0.348-0.044-0.378
				c-0.021-0.032-0.063-0.047-0.125-0.047c-0.021,0-0.061,0.007-0.119,0.021c-0.06,0.015-0.116,0.021-0.172,0.021
				c-0.041,0-0.103-0.008-0.181-0.024c-0.08-0.017-0.134-0.024-0.161-0.024c-0.1,0-0.149,0.051-0.149,0.151
				c0,0.087,0.069,0.13,0.207,0.13c0.046,0,0.093,0.023,0.143,0.069C25.548,66.352,25.572,66.416,25.572,66.498L25.572,66.498z
				 M32.081,66.941c0.053,0,0.088-0.01,0.107-0.027c0.018-0.018,0.027-0.051,0.027-0.099c0-0.173-0.068-0.336-0.205-0.485
				c-0.137-0.152-0.342-0.228-0.619-0.228c-0.189,0-0.387,0.091-0.59,0.271c-0.203,0.181-0.305,0.437-0.305,0.768
				c0,0.242,0.105,0.459,0.32,0.653c0.213,0.192,0.453,0.288,0.721,0.288c0.199,0,0.416-0.063,0.65-0.188
				c0.09-0.048,0.148-0.071,0.176-0.071c0.041,0,0.074,0.012,0.098,0.035c0.023,0.021,0.035,0.051,0.035,0.086
				c0,0.083-0.127,0.186-0.381,0.305c-0.252,0.119-0.514,0.18-0.783,0.18c-0.396,0-0.73-0.135-1-0.406
				c-0.271-0.27-0.406-0.592-0.406-0.967c0-0.342,0.148-0.634,0.445-0.877c0.297-0.242,0.631-0.363,1-0.363
				c0.48,0,0.84,0.121,1.078,0.367c0.238,0.245,0.357,0.539,0.357,0.879c0,0.074-0.02,0.119-0.055,0.137
				c-0.037,0.018-0.104,0.025-0.203,0.025h-1.572c-0.129,0-0.191-0.048-0.191-0.145c0-0.091,0.066-0.137,0.199-0.137H32.081
				L32.081,66.941z M38.569,67.244c0.035,0,0.066,0.013,0.09,0.04c0.027,0.026,0.039,0.05,0.039,0.07
				c0,0.08-0.092,0.209-0.277,0.384c-0.184,0.176-0.426,0.326-0.725,0.453c-0.297,0.125-0.611,0.188-0.945,0.188
				c-0.535,0-1.002-0.117-1.398-0.352c-0.395-0.233-0.699-0.559-0.91-0.977c-0.211-0.417-0.316-0.852-0.316-1.301
				s0.104-0.871,0.311-1.264c0.207-0.395,0.5-0.7,0.881-0.922c0.381-0.219,0.822-0.329,1.324-0.329c0.32,0,0.617,0.042,0.889,0.126
				c0.273,0.083,0.486,0.186,0.645,0.304c0.156,0.12,0.234,0.21,0.234,0.272c0,0.096-0.002,0.184-0.006,0.262
				c-0.006,0.078-0.008,0.125-0.008,0.141c0,0.027,0.008,0.07,0.025,0.126c0.016,0.057,0.023,0.108,0.023,0.156
				c0,0.076-0.047,0.114-0.141,0.114c-0.029,0-0.059-0.015-0.088-0.041c-0.031-0.029-0.072-0.105-0.131-0.232
				c-0.121-0.271-0.252-0.467-0.393-0.589c-0.246-0.215-0.59-0.321-1.031-0.321c-0.568,0-1.012,0.206-1.328,0.619
				c-0.316,0.412-0.475,0.945-0.475,1.599c0,0.712,0.172,1.272,0.514,1.687c0.342,0.412,0.803,0.619,1.385,0.619
				c0.148,0,0.383-0.051,0.705-0.152c0.32-0.101,0.637-0.296,0.947-0.586C38.479,67.275,38.532,67.244,38.569,67.244L38.569,67.244z
				 M41.383,67.71c0,0.166,0.109,0.28,0.33,0.345c0.055,0.016,0.096,0.035,0.123,0.057c0.025,0.021,0.039,0.061,0.039,0.119
				c0,0.031-0.018,0.057-0.053,0.078c-0.037,0.023-0.074,0.035-0.117,0.035s-0.102-0.012-0.176-0.032s-0.135-0.032-0.18-0.032
				c-0.053,0-0.119,0.012-0.201,0.032c-0.08,0.021-0.135,0.032-0.16,0.032c-0.033,0-0.066-0.012-0.096-0.037
				c-0.031-0.024-0.047-0.049-0.047-0.074c0-0.038-0.012-0.059-0.035-0.059c-0.016,0-0.035,0.009-0.063,0.025
				c-0.258,0.162-0.537,0.242-0.838,0.242c-0.143,0-0.303-0.035-0.477-0.109c-0.178-0.073-0.316-0.186-0.422-0.339
				c-0.105-0.152-0.158-0.342-0.158-0.565c0-0.24,0.113-0.449,0.342-0.635c0.227-0.183,0.52-0.274,0.879-0.274
				c0.121,0,0.254,0.034,0.398,0.103c0.146,0.066,0.219,0.136,0.219,0.207c0,0.035-0.016,0.063-0.045,0.082
				c-0.029,0.021-0.066,0.032-0.109,0.032c-0.029,0-0.088-0.021-0.176-0.062c-0.088-0.039-0.178-0.059-0.27-0.059
				c-0.188,0-0.344,0.055-0.469,0.165c-0.123,0.11-0.186,0.258-0.186,0.442c0,0.215,0.072,0.379,0.213,0.494
				c0.143,0.115,0.307,0.173,0.492,0.173c0.168,0,0.322-0.056,0.465-0.165c0.141-0.109,0.211-0.256,0.211-0.439V66.56
				c0-0.14-0.045-0.254-0.139-0.341c-0.092-0.086-0.215-0.13-0.371-0.13c-0.197,0-0.391,0.062-0.578,0.188
				c-0.064,0.044-0.107,0.065-0.129,0.065c-0.057,0-0.102-0.014-0.141-0.043c-0.039-0.027-0.059-0.066-0.059-0.111
				c0-0.111,0.102-0.207,0.307-0.285c0.207-0.078,0.43-0.117,0.672-0.117c0.301,0,0.543,0.076,0.727,0.227
				c0.184,0.152,0.275,0.333,0.275,0.542V67.71z"/>
			<path fill-rule="evenodd" clip-rule="evenodd" fill="#FFFFFF" d="M42.594,68.828c0.014-0.131,0.021-0.492,0.021-1.085
				c0-0.285-0.008-0.703-0.021-1.253c-0.004-0.057-0.027-0.107-0.07-0.148c-0.043-0.043-0.131-0.076-0.268-0.098
				c-0.102-0.018-0.17-0.037-0.199-0.059c-0.033-0.023-0.047-0.053-0.047-0.088c0-0.09,0.07-0.136,0.215-0.136
				c0.027,0,0.094,0.011,0.203,0.032c0.109,0.021,0.176,0.031,0.203,0.031c0.031,0,0.094-0.014,0.188-0.039
				c0.096-0.025,0.154-0.039,0.176-0.039c0.063,0,0.102,0.015,0.117,0.041c0.018,0.029,0.025,0.07,0.025,0.129v1.214
				c0,0.247,0.076,0.444,0.232,0.589c0.156,0.146,0.34,0.219,0.549,0.219c0.102,0,0.229-0.043,0.387-0.131s0.281-0.217,0.369-0.383
				c0.088-0.167,0.133-0.355,0.133-0.566c0-0.249-0.076-0.47-0.229-0.664c-0.154-0.194-0.33-0.292-0.533-0.292
				c-0.121,0-0.234,0.022-0.336,0.067c-0.104,0.045-0.17,0.066-0.201,0.066c-0.033,0-0.061-0.01-0.088-0.03
				c-0.023-0.021-0.037-0.046-0.037-0.075c0-0.068,0.084-0.139,0.252-0.21s0.313-0.106,0.436-0.106c0.369,0,0.682,0.118,0.932,0.354
				c0.25,0.238,0.375,0.56,0.375,0.967c0,0.314-0.129,0.604-0.387,0.868c-0.26,0.265-0.57,0.396-0.934,0.396
				c-0.141,0-0.271-0.019-0.396-0.056c-0.125-0.035-0.287-0.12-0.49-0.254c-0.018,0-0.027,0.059-0.027,0.176
				c0,0.29-0.02,0.511-0.059,0.664c-0.039,0.15-0.105,0.283-0.199,0.395c-0.096,0.112-0.189,0.191-0.279,0.238
				c-0.092,0.047-0.18,0.07-0.266,0.07c-0.127,0-0.189-0.031-0.189-0.092c0-0.025,0.027-0.055,0.086-0.084
				c0.139-0.076,0.232-0.174,0.283-0.294C42.569,69.043,42.594,68.932,42.594,68.828L42.594,68.828z M46.223,66.35
				c0,0.053,0.025,0.105,0.074,0.16c0.049,0.056,0.207,0.152,0.475,0.291c0.266,0.141,0.445,0.277,0.537,0.412
				c0.094,0.133,0.141,0.275,0.141,0.425c0,0.232-0.098,0.417-0.291,0.556c-0.193,0.137-0.443,0.206-0.752,0.206
				c-0.17,0-0.34-0.037-0.508-0.112c-0.168-0.074-0.252-0.149-0.252-0.226c0-0.062-0.006-0.14-0.016-0.229
				c-0.008-0.092-0.014-0.165-0.014-0.221c0-0.113,0.053-0.17,0.158-0.17c0.031,0,0.059,0.013,0.086,0.037
				c0.025,0.026,0.064,0.109,0.121,0.253c0.053,0.144,0.119,0.241,0.199,0.294c0.078,0.053,0.166,0.078,0.264,0.078
				c0.121,0,0.223-0.04,0.307-0.119c0.084-0.08,0.127-0.184,0.127-0.309c0-0.083-0.029-0.159-0.086-0.232
				c-0.059-0.071-0.215-0.168-0.471-0.289s-0.42-0.238-0.498-0.355c-0.076-0.115-0.115-0.24-0.115-0.375
				c0-0.178,0.084-0.328,0.248-0.449c0.168-0.121,0.361-0.182,0.58-0.182c0.184,0,0.363,0.031,0.537,0.096
				c0.176,0.064,0.262,0.135,0.262,0.207c0,0.043,0.006,0.098,0.016,0.162c0.008,0.064,0.014,0.116,0.014,0.154
				c0,0.049-0.012,0.092-0.037,0.129c-0.025,0.036-0.055,0.055-0.092,0.055c-0.053,0-0.092-0.013-0.113-0.039
				c-0.021-0.027-0.043-0.074-0.061-0.143s-0.047-0.121-0.09-0.16c-0.041-0.041-0.096-0.076-0.164-0.109s-0.145-0.049-0.23-0.049
				c-0.084,0-0.164,0.027-0.24,0.081C46.262,66.229,46.223,66.287,46.223,66.35L46.223,66.35z M49.868,66.537
				c0-0.166-0.09-0.262-0.27-0.287c-0.107-0.016-0.176-0.035-0.203-0.061c-0.027-0.024-0.041-0.055-0.041-0.092
				c0-0.086,0.064-0.129,0.197-0.129c0.035,0,0.104,0.012,0.209,0.034s0.217,0.034,0.338,0.034c0.033,0,0.072-0.005,0.121-0.013
				c0.049-0.009,0.078-0.013,0.09-0.013c0.063,0,0.094,0.07,0.094,0.21c0,1.059,0.01,1.622,0.027,1.69
				c0.02,0.066,0.111,0.123,0.279,0.164c0.088,0.023,0.143,0.044,0.164,0.063c0.02,0.02,0.029,0.041,0.029,0.067
				c0,0.03-0.018,0.059-0.057,0.085c-0.039,0.025-0.088,0.038-0.146,0.038c-0.027,0-0.09-0.008-0.188-0.024
				c-0.1-0.017-0.17-0.025-0.211-0.025c-0.045,0-0.098,0.009-0.16,0.025s-0.104,0.024-0.125,0.024c-0.051,0-0.086-0.015-0.104-0.041
				c-0.018-0.028-0.031-0.095-0.037-0.203s-0.008-0.317-0.008-0.625V66.537L49.868,66.537z M48.741,67.707v-1.228
				c0-0.312-0.037-0.468-0.113-0.468c-0.016,0-0.051,0.009-0.111,0.027c-0.059,0.02-0.102,0.028-0.133,0.028
				c-0.084,0-0.186-0.009-0.307-0.028c-0.121-0.019-0.189-0.027-0.201-0.027c-0.047,0-0.086,0.01-0.117,0.031
				c-0.031,0.02-0.047,0.049-0.047,0.086c0,0.057,0.049,0.094,0.148,0.115c0.225,0.051,0.338,0.13,0.338,0.24
				c0,0.818,0.01,1.291,0.029,1.416c0.02,0.127,0.092,0.241,0.217,0.344c0.123,0.104,0.27,0.155,0.436,0.155
				c0.215,0,0.408-0.05,0.578-0.147c0.17-0.1,0.254-0.182,0.254-0.247c0-0.056-0.021-0.085-0.066-0.085s-0.117,0.03-0.217,0.089
				c-0.098,0.059-0.184,0.088-0.256,0.088c-0.119,0-0.219-0.036-0.305-0.11S48.741,67.82,48.741,67.707L48.741,67.707z
				 M52.206,67.818c0,0.061,0.016,0.113,0.049,0.157c0.031,0.045,0.102,0.075,0.213,0.095c0.111,0.018,0.178,0.041,0.201,0.068
				c0.025,0.028,0.037,0.063,0.037,0.105c0,0.076-0.057,0.113-0.17,0.113c-0.068,0-0.172-0.01-0.309-0.028
				c-0.135-0.019-0.238-0.028-0.307-0.028c-0.064,0-0.16,0.01-0.285,0.028c-0.123,0.019-0.219,0.028-0.283,0.028
				c-0.092,0-0.152-0.011-0.178-0.031c-0.027-0.021-0.039-0.051-0.039-0.089c0-0.037,0.01-0.069,0.031-0.095
				c0.023-0.025,0.092-0.047,0.207-0.064c0.117-0.018,0.193-0.056,0.229-0.114c0.037-0.058,0.055-0.126,0.055-0.204v-3.709
				c0-0.08-0.02-0.15-0.057-0.212c-0.035-0.062-0.111-0.104-0.227-0.133c-0.115-0.026-0.184-0.056-0.207-0.083
				c-0.021-0.028-0.031-0.061-0.031-0.096s0.018-0.063,0.057-0.084c0.037-0.021,0.078-0.031,0.119-0.031
				c0.037,0,0.092,0.006,0.166,0.021c0.072,0.015,0.125,0.021,0.16,0.021c0.039,0,0.098-0.006,0.176-0.021s0.139-0.021,0.178-0.021
				c0.074,0,0.127,0.02,0.164,0.059c0.033,0.038,0.051,0.108,0.051,0.21V67.818L52.206,67.818z M55.2,66.941
				c0.053,0,0.088-0.01,0.107-0.027c0.018-0.018,0.025-0.051,0.025-0.099c0-0.173-0.066-0.336-0.205-0.485
				c-0.135-0.152-0.342-0.228-0.617-0.228c-0.191,0-0.387,0.091-0.59,0.271c-0.203,0.181-0.307,0.437-0.307,0.768
				c0,0.242,0.107,0.459,0.322,0.653c0.213,0.192,0.453,0.288,0.719,0.288c0.201,0,0.418-0.063,0.652-0.188
				c0.088-0.048,0.146-0.071,0.174-0.071c0.041,0,0.074,0.012,0.098,0.035c0.025,0.021,0.037,0.051,0.037,0.086
				c0,0.083-0.127,0.186-0.381,0.305s-0.514,0.18-0.783,0.18c-0.396,0-0.73-0.135-1.002-0.406c-0.271-0.27-0.406-0.592-0.406-0.967
				c0-0.342,0.15-0.634,0.447-0.877c0.297-0.242,0.629-0.363,0.998-0.363c0.48,0,0.84,0.121,1.078,0.367
				c0.238,0.245,0.359,0.539,0.359,0.879c0,0.074-0.02,0.119-0.057,0.137c-0.035,0.018-0.104,0.025-0.201,0.025h-1.574
				c-0.127,0-0.191-0.048-0.191-0.145c0-0.091,0.068-0.137,0.199-0.137H55.2z"/>
		</g>
	</g>
</g>
</svg>
