<svg xmlns="http://www.w3.org/2000/svg" viewBox="0 0 491 146">
  <path fill="#fc0" d="M297 112H4l-4 28h299v-1l2-16h-6l1-9 1-2zM69 39v-2l-2-1 3-2v-6c2-8 1-14-1-18-2-3-5-6-9-7-5 0-13-1-24-1H18l-4 31 1 2-1 3-2 12 1 3-1 3-6 42 25 1 5-44c4 0 6 1 7 2v5l2 1-3 3-4 33h24l3-26c1-8 1-12 1-14v-3c-1-1-1-2-2-3s-2-2-4-2c-1-1-3-2-6-3 6 0 10-2 12-4 2-3 3-4 3-5zM48 26l-1 5c0 3-1 4-1 5-1 2-1 2-2 3 0 1-1 1-2 1h-4l3-21c3 0 5 0 6 1s1 2 1 2v1l1 2-1 1zm-2 59l2 2-3 2h-1v-1l2-3zm10 9l-2 1-2-2 2-2 2 1h-2l2 2zm-8 3l-4-1-1-1 2-3 3 2v3zm12 0l-2 1-2-2 2-2 2 1h-1l1 2zm68-95v49l1 12v6l-2 2 2 4 1 12v12h-26l1-18h-9l-4 18H66l12-49 3-9 1-5 8-34h24l4 2 5-2h5zm-35 8l-3 4 1 5 6 1 3-4-2-4-5-2zm13 54c0-11 1-24 1-40-5 18-7 29-8 31 0 2-1 3-1 4-1 0-1 1-1 1 1 0 1 2 1 4h8zm11 23l-1 2v1h3l1-1v-1l-3-1zm-7 4l-2 3v3h5l2-2-1-3-4-1zm-23 3l-1 1v2h3l1-1v-1l-3-1zM241 2l-24 97h-23l-4-3-2 3h-2c-1-15-2-32-1-51-2 8-7 25-14 51h-7l-5-3-3 3h-16l1-97h6l2 3 4-3h12l-1 34-2 32c3-16 8-39 15-66h20l2 4 3-4h2c0 3-1 13-2 32l-1 37c4-24 9-47 15-69h25zm-22 4l-2 8 1 8 6-9-5-7zm-68 77l4 1 1-5-5 1v3zm8 6v4l6-2v-4l-6 2zM292 2l-12 97h-25l6-49 3-24 2-3-1-2v-2l2-17h25zm-21 3l-3 2 2 3 3-1-2-3h3l-3-1zm2 81l-3 3 2 3 3-2-2-2 2-1-2-1zm4 7l-3 2 2 2 2-1-1-2h1l-1-1zm77-54v-2l-3-1 3-2 1-6c1-8 1-14-1-18-3-3-6-6-10-7-4 0-12-1-24-1h-18l-3 31 1 2-2 3-1 12v3l-1 3-5 42 25 1 5-44c3 0 5 1 6 2s1 2 1 3v2l1 1-2 3-4 33h24l3-26c1-8 1-12 1-14 0-1 0-2-1-3 0-1-1-2-2-3s-2-2-3-2l-6-3c6 0 9-2 12-4 2-3 3-4 3-5zm-22-13v5c-1 3-1 4-2 5 0 2 0 2-1 3s-2 1-3 1h-3l2-21c3 0 5 0 6 1l2 2v1l1 2-2 1zm-2 59l3 2-4 2-1-1 2-3zm10 9l-2 1-2-2 3-2 1 1h-1l1 2zm-8 3l-3-1-2-1 3-3 3 2-1 3zm12 0l-2 1-2-2 3-2 2 1h-2l1 2zM491 2l-12 97h-22l-7-44-6 44-21-1 1-6v-3l20-1h-20l1-8 10-78h21l9 44 5-44h21zm-52 2l-2 3 1 3 4-1V6l-3-2zm38 61l4-2-1-8 2-5-1-7 3-7 1-7-1-5 3-11c-1-3-2-5-3-5l-7 57zM411 3c4 1 7 4 9 7 2 4 3 7 3 11s-1 11-2 21l-2 17c-1 9-2 16-3 20s-3 8-6 11c-1 2-3 3-4 5l-4-35 18-22-21-1-5-37h3c5 0 10 1 14 3zm-6 92l-6 3c-4 2-9 3-14 3s-10-1-14-3c-4-1-7-4-9-7-2-4-3-7-3-11s1-11 2-21l2-17 1-5 15 23-9 35 19-21 16 21zm-42-58c1 0 1-1 1-1h2c2-1 3-1 5-1h5c2 0 3-1 3-1h-8c-1-1-3-1-5-1h-2c0-1 0-1 1-1 0 0 0-1-1-1v-1h1c0-4 1-7 1-9 1-4 3-7 6-11 3-3 6-6 11-7 3-2 7-3 11-3l-9 37h-22z"/>
  <path fill="#fff" fill-rule="nonzero" d="M326 108l-1 7h-6l-3 26-1 1h1v3h-10l4-30h-6l1-7h8l1 1 1-1h8l1 1 1-1h1zm-10 8l-1 2 1 1 1-2v-1h-1zm-9 27l2-1-1-2 1-3v-2l1-3v-5l1-4c0-1-1-2-1-2l-3 22zm41-21v-1h-1l1-1 1-2c0-3 0-5-1-7-1-1-2-2-4-3h-16l-1 12v2l-1 4v2l-2 17h9l2-17c2 0 3 1 3 1v2h1l-1 2-2 12h9l2-10v-5-1c0-1-1-1-1-1 0-1-1-1-1-2h-3c3-1 4-1 5-2s1-2 1-2zm-8-5v2c-1 1-1 2-1 2v1h-3l1-8c1 0 2 0 3 1v2zm-1 23l1 1h-2l1-1zm4 3l-1 1-1-1 1-1h1-1l1 1zm-3 1h-2v-1h2v1zm4 1l-1-1 1-1 1 1h-1v1zm27-37v37h-9v-7h-4l-1 7h-10l5-19 1-3v-2l3-13h15zm-14 3l-1 1 1 2 2 1 1-2-1-1-2-1zm5 21c0-4 1-10 1-16-2 7-3 11-3 12s-1 1-1 2v2h3zm5 9h-1v1h1l1-1h-1zm-3 1l-1 1v1h3l-1-1-1-1zm-9 1v1h1l-1-1zm32-35l-4 37h-10l2-19 1-9 1-1v-2l1-6h9zm-8 1l-1 1 1 1 1-1-1-1h1-1zm1 31l-1 1 1 1h1l-1-1h1l-1-1zm1 3l-1 1h2l-1-1h1-1zm32-35l-5 37h-8l-3-17-2 17h-9l1-2v-2h8-8v-3l4-30h8l4 17 2-17h8zm-20 1l-1 1v1h2v-2h-1zm14 23l2-1-1-3 1-2v-2l1-3v-5l1-4c0-1-1-2-1-2l-3 22zm19-24l-4 37h-10l3-19 1-9v-3l1-6h9zm-8 1l-1 1 1 1 1-1-1-1h1-1zm1 31l-1 1 1 1h1l-1-1h1l-1-1zm1 3l-1 1h2v-1h-1zm32-35l-5 37h-8l-3-17-2 17h-8v-4h8-8l1-3 3-30h8l4 17 2-17h8zm-20 1l-1 1v1h2v-2h-1zm15 23l1-1v-7l1-3v-5l1-4c0-1 0-2-1-2l-2 22zm29-10h-9v-4-4s0-1-1-1l-1 1s-1 2-1 4l-2 17v4s0 1 1 1 1-1 2-1v-4l1-4h-2l1-6h11l-3 20h-6v-3c-2 3-4 4-7 4-1 0-3-1-4-1l-3-3c0-1 0-1-1-2v-2-2c0-1 0-2 1-4v-6h2-2l1-5c0-2 0-3 1-4v-4c1 0 1-1 2-2l2-2c2-1 5-2 8-2 1 0 2 0 3 1 2 0 3 0 3 1 1 0 2 1 3 2 0 0 0 1 1 2 0 2 0 4-1 8h-3 3v1zm-5-3v1h2l-1-1h-1zm-5 8l-1 1v1h2v-2h-1zm4 3l-1 1 1 1 1-1v-1h-1zm-3 0v1h-1 2v-1h-1zm3 3v2h1v-1l-1-1zm-3 1h-1l1 2h1v-2h-1z"/>
</svg>
