<svg xmlns="http://www.w3.org/2000/svg" viewBox="0 0 377 129">
  <path fill="#fff" fill-rule="nonzero" d="M257 99v6h-5v20l-1 1h1v2h-7v-23h-5v-6h17zm-7 6l-1 2 1 1 1-2-1-1zm-5 22l1-1v-15c0-1 0-1-1-1v17zm31-17l-1-1 1-1-1-1c1-3 0-4-1-6 0-1-1-1-3-2h-13v9l1 1v19h7v-13c1 0 2 0 2 1v1l1 1h-1v10h8v-7c0-3 0-4-1-5v-1l-1-1h-1c0-1-1-1-2-1 2 0 3-1 4-2l1-1zm-8-4v4h-1-1v-6h2v1l1 1h-1zm2 18l1 1h-1v-1zm3 3l-1-1h1v1zm-2 1h-1v-2l1 1v1zm4 0h-1v-1h1-1l1 1zm17-29l2 15 1 3v2l-1 1 1 1 1 4v3h-8v-5h-3v5h-8l2-14v-5l2-10h11zm-10 2l-1 1v2h2l1-1-1-1-1-1zm6 17c-1-4-1-8-1-13-1 6-2 9-2 10v3h3zm4 7v1h1v-1h-1zm-2 1l-1 1 1 1h1l1-1-1-1h-1zm-7 1v1h1v-1h-1zm22-28v29h-7v-14l-1-8 1-1h-1v-6h8zm-6 1h-1l1 1h1l-1-1h1-1zm3 24v2h1v-1l-1-1zm2 3h-1l1 1v-1zm21-28v29h-6l-4-13v13h-7v-3h6-6V99h7l4 13V99h6zm-16 1v1h1v-1h-1zm14 18l1-1v-15c0-1 0-1-1-1v17zm13-19v29h-8v-22l1-1h-1v-6h8zm-6 1h-1l1 1v-1zm3 24v2h1l-1-1h1l-1-1zm2 3h-1l1 1v-1zm21-28v29h-7l-4-13v13h-6v-3h6-6V99h6l5 13V99h6zm-16 1v1h1v-1h-1zm14 18l1-1v-15c0-1-1-1-1-1v17zm23-8h-8v-3-3c0-1-1-1-1-1-1 0-1 0-1 1v19c0 1 0 1 1 1s1 0 1-1v-6h-1v-5h9v16h-5l-1-2c-1 2-2 3-5 3-1 0-2 0-3-1s-2-1-3-2v-2c-1 0-1-1-1-1v-2-7l1-1h-1v-4-3-3c1 0 1-1 1-2 1 0 1-1 2-1 2-1 3-2 6-2 1 0 2 0 3 1 1 0 1 0 2 1 1 0 2 1 2 1 1 1 1 1 1 2 1 1 1 3 1 6h-3 3v1zm-5-3v2h1l1-1h-1l-1-1zm-3 7v1l1 1v-2h-1zm3 2v1l1 1 1-1h-1l-1-1zm-2 1h1-1zm3 2v1h1v-1h-1zm-3 0v1l1 1h1l-1-1-1-1z"/>
  <path fill="#fc0" d="M275 41v11l19 1V40l-19 1zM0 102h234v9h5v14H0v-23zm216-45v-4l-19-4v4l20 16v-7l-2-2 2 1v-4l-5-2 4 2zm133 25l2 7h17v-2l-19-5zm-24-5v11h16v-7l-16-4zm-51-11v6c0 2 1 4 2 6l26 10c2 0 3-1 4-1 3-1 6-3 8-6l3-6-18-4c-1 2-1 3-1 3 0 1-1 2-2 2-2 0-2-1-3-2v-4l-19-4zm-25-5v8l17 6 1-8v-3l-18-4v1zm-25-6v5l19 7v-8l-19-4zM28 82L9 86v3l19-1v-6zm144-32l-19 5v4l7-2-7 3c-1 1-1 3-1 4v-4l-12 5c1 2 1 4 1 6l9-4-10 5c1 4 2 7 2 11l29-23v-5h1v-5zm-19 10l-1-5-12 2c0 3 1 5 1 7l12-4zm-17 6c1-3 1-6 1-8l-13 3v1l-1-1-16 4 2 11 27-10zM84 84l18-6-2-12-44 10-1 12 20-1 1-13 7-1 1 11zm-32 4V77l-18 4v7h18zm295-29l6 21 20 4V61l-26-2zm-130-7v-3l-20-2v1l20 4zm52 11c0-5 0-8-1-9v-2l-43-3v5l20 4v-7c2 0 4 0 5 1 0 1 1 3 1 7l18 4zm27 2V55l-20-2v11l20 4v-3zm25 6V57l-19-2v9c0 2 0 4-1 5l19 4c1 0 1-1 1-2zm24-13l-16-1v18l16 3V58zM24 80V59L4 61v23l20-4zm129-31v5l19-4v-2l-19 1zm-15 1c0 2 0 4 1 6l12-2v-5l-13 1zm-16 1v9l14-3c0-2 0-5 1-7l-15 1zm-18 2l1 10 17-3-1-8-17 1zm-49 4l-2 17 45-9-2-11-17 1v4h-7c0-1 1-2 1-4l-18 2zM30 79l18-4v-9-9l-18 2v20zm238 9V77l-18-7v9l18 9zm9-8c1 1 1 2 1 2 2 3 5 5 8 6 3 2 7 3 11 3 3 0 5 0 7-1l-27-10zm-33-4v-8l-19-8-1 5 20 11zM102 88l-2-8-18 7v2l20-1zm32-13c1-3 1-6 1-8l-28 10 2 11 25-13zm78 11l1-16-17-15v6l-4 25 17 3-12-25 13 22h2zm23 3l-15-13-1 11 16 2zm-62-28l-24 22 1 5 17-2 6-10V61zm52 5l-1 10 17 13 3 1 1-12-20-12zm26 15l-1 9 19 2-18-11zm-119 8c0-5 0-9 1-13l-27 15 26-2zm42-2l-1-10-6 11 7-1zM44 35c1-2 1-5 1-9s0-7-1-10L0 7v24l20 2V18c3 0 4 0 5 1s1 2 1 5v9l18 2zm109 4v5l13 1-12-1c0 2 0 3-1 5l19-2 1-2h-1v-2l-19-4zm-30-6c-1 3-1 6-1 8l28 3-1-5-26-6zm-24-5l1 12 19 1-1-7v-2l-19-4zm-42-9l-3 17 18 1c0-4 1-9 2-14 0 5 1 10 1 14l17 2-1-13-34-7zm303-8v22l17-2-1-23-16 3zM218 44v-3l-20 4v1h-1v1l20 1v-3h-4l5-1zm50-4c2-2 2-5 2-10l-18 4c-1 1-1 2-1 2-1 1-3 1-5 1v-2l-20 4v5l42-4zm30-2V26v-2l-20 4v11l20-1zm26-2c0-7 0-12-1-15v-2l-19 4v14l20-1zm8-19v18l26-2-7-20-19 4zM155 34c0 1 0 3-1 4l19 4v-4l1-3-17-15c-1 2-1 5-2 8l17 9-17-9v5l13 5-13-4zM48 9c-2-3-4-5-8-6-3-1-9-1-18-2H8v2l42 10c-1-2-1-3-2-4zm47 15l-2-14-17-6-12-1-2 13 33 8zm26 6V20l-19-7 1 13 18 4zm30 7v-5l-24-9c-1 3-1 5-2 8l26 6zm65-1l-6 2 7-2v-4l-10 5 10-6-1-7-19 16v4l20-4-1-4zM353 4v5l16-3V3l-16 1zm-27 0v11l19-4-3-7h-16zm-51 17c0 2 0 3-1 6l20-4v-5c1-1 2-1 3-1s2 0 2 1 0 2 1 3l18-4-3-6c-2-2-5-4-8-5-1-1-3-1-4-2l-26 10c-1 2-2 5-2 7zm-26 8v3l18-4v-1c0-4 0-7-1-9l-17 6v5zm-25 4v5l20-4-1-8-19 7zM92 7l-1-6-16-1 17 7zm28 12V8l-11-5-9-1 1 9 19 8zm30 12v-6l-22-12c-1 3-2 5-2 8l24 10zM286 4c-3 1-5 3-7 6 0 1-1 1-1 2l27-11h-7c-5 0-8 1-12 3zm-62 23l1 6 19-8v-7c2 0 4 1 5 1 0 1 1 2 1 4l17-7c0-2-1-4-2-5-1-2-2-3-4-3l-37 19zM119 6V1l-10-1 10 6zm31 19V14L137 3l-8-1c-1 3-1 6-2 9l23 14zm74-8l1 9 37-21c-1-1-3-2-5-2-3 0-9 0-17 1l-16 13zm-71-4V4l-12-2 12 11zm6 6l16 15 2-9-10-19-4-1c-2 5-3 9-4 14zm51-13l-14 26 1 7 17-16-2-17h-2zm10-1l1 11 16-13h-3l-14 2zm-50 1l9 18 4-16-13-2zm21 2l4 23 12-25-16 2zM49 53c0-1-1-3-2-4-1-2-4-3-8-4 4-1 7-2 9-4 0-1 1-2 1-3l-18-1c-1 1-3 1-5 1v-2L7 35v23l19-1v-7c3 0 4 0 5 1 0 1 1 3 1 5l18-1c0-1-1-2-1-2zm25 1c1-4 1-9 2-15l-17-1-2 17 17-1zm23-2l-1-11-17-1c0 5 1 9 1 13l17-1zm25-1l-1-9-17-1 1 11 17-1zm15-1c1-2 1-4 1-6 0 2 0 4 1 6l12-1v-5l-27-2c0 3 0 6-1 9l14-1zm128-1c-1-2-4-3-8-4 4-1 7-2 8-3l-41 2v5l43 2-2-2zm62-11v17l16 1v-6l2 6 25 2V35l-16 1v7l-2-7-25 2zm-27 1v14l20 2V40v-2l-20 1z"/>
</svg>
