<svg xmlns="http://www.w3.org/2000/svg" viewBox="0 0 8345 5158">
  <defs>
    <style>
      .fil4{fill:#28a95e}
    </style>
  </defs>
  <g id="Layer_x0020_1">
    <g id="_2148328076016">
      <path fill="#28a95e" fill-rule="nonzero" d="M294 5002c118 0 177-47 177-142 0-50-26-86-78-110-28-14-64-27-108-38-44-12-80-24-109-37-29-12-59-29-89-51-58-43-87-110-87-201 0-90 31-161 94-213s145-78 246-78c102 0 196 20 283 61v222l-152 10v-85c0-15-2-26-6-33-10-19-45-28-104-28s-102 10-130 31c-29 21-43 53-43 96 0 32 12 60 36 83 16 16 39 29 70 40l100 31a508 508 0 0 1 178 89c61 45 91 114 91 206 0 93-34 166-100 220-67 53-155 80-264 80s-208-20-295-61v-234l152-11v91c0 15 2 26 6 33 4 6 16 13 36 20 20 6 52 9 96 9zm3884-923v934l84 4v119h-353v-113l49-5c29-2 43-18 43-47v-731c0-22-12-33-37-35l-52-3v-123h266zm-708 948c108 0 162-87 162-261 0-87-12-154-36-200-25-45-65-68-122-68s-98 22-125 65c-27 44-40 103-40 178 0 140 26 227 77 263 23 15 51 23 84 23zm-341-265c0-73 11-137 33-190 22-54 51-96 88-124 70-54 147-80 232-80a342 342 0 0 1 247 95c23 26 43 62 59 110 17 48 25 105 25 170 0 136-33 239-99 310a336 336 0 0 1-255 105c-103 0-184-34-242-100-58-67-88-166-88-296zm-441 265c107 0 161-87 161-261 0-87-12-154-36-200-24-45-65-68-122-68-56 0-98 22-125 65-27 44-40 103-40 178 0 140 26 227 77 263 23 15 51 23 85 23zm-341-265c0-73 11-137 32-190 22-54 51-96 88-124 70-54 148-80 233-80a340 340 0 0 1 246 95c24 26 43 62 60 110 16 48 24 105 24 170 0 136-33 239-99 310a334 334 0 0 1-254 105c-104 0-184-34-243-100-58-67-87-166-87-296zm-799 208v-722c0-16-3-27-8-33-6-6-16-9-29-10l-52-3v-123h264v398c51-73 123-109 216-109 75 0 133 21 174 64s62 108 62 194v387l84 4v119h-353v-113l49-5c15-1 26-6 33-12 7-7 10-19 10-36v-306c0-51-8-91-24-118-16-28-48-42-95-42s-84 15-113 44c-28 29-42 64-42 106v359l85 4v119h-353v-113l49-5c15-1 25-6 32-12 7-7 11-19 11-36zm-610-215c0 84 16 149 48 195 31 47 77 70 137 70s119-21 177-64l64 114c-70 58-158 86-264 86s-189-33-250-100c-61-66-91-165-91-295 0-131 35-229 105-295 69-65 148-98 235-98 88 0 169 20 244 60v193l-136 11v-72c0-26-10-43-29-49-19-7-39-10-60-10-120 0-180 85-180 254z"/>
      <path fill="#076138" fill-rule="nonzero" d="M4352 5136v-120l54-5c26-2 38-16 38-41v-690l-84-4v-126h267l419 680h3v-550l-98-4v-126h362v120l-53 4c-24 2-36 18-36 46v816h-173l-429-691h-3v560l97 5v126h-364zm3806-633c-24-9-52-14-86-14s-61 8-81 23c-20 16-30 34-30 57 0 22 4 39 11 51 7 13 19 23 35 32 24 13 54 24 89 34 34 9 60 16 77 22 17 5 38 14 63 27a192 192 0 0 1 109 183c0 74-27 132-81 174s-122 63-205 63c-121 0-212-15-273-46v-206l133-11v72c0 43 42 65 125 65s124-30 124-91c0-21-7-39-21-53s-29-23-42-28l-50-15-56-15a468 468 0 0 1-130-56c-51-33-76-87-76-164 0-76 27-136 82-177 54-42 123-62 205-62 83 0 164 19 245 59v178l-133 10v-62c0-25-11-42-34-50zm-464 515v118h-240v-97a277 277 0 0 1-240 116c-154 0-230-86-230-257v-342c0-27-13-41-37-42l-48-3v-121h261v470c0 52 8 92 23 118 14 27 45 40 91 40a148 148 0 0 0 155-146v-313c0-16-3-27-9-33-5-7-15-11-28-12l-48-3v-121h261v581c0 16 2 26 7 32 5 5 15 9 30 11l52 4zm-1153-40l-91-118-123 153 70 4v119h-309v-118l46-4c23-3 43-15 60-36l170-213-182-252-76-9v-114h346v117l-43 3c-12 1-20 5-23 13-4 8-2 17 5 26l84 112 115-148-61-4v-119h301v116l-45 3c-21 1-40 13-59 37l-163 206 194 258 76 8v118h-353v-118l46-2c13-1 20-6 23-13 2-7 0-16-8-25zm-770-610c74 0 133 18 177 54 43 36 65 87 65 152 0 43-10 82-28 115-19 33-42 59-70 77-28 19-61 35-101 46-66 20-141 30-224 30 3 52 20 95 49 127 30 32 75 48 137 48 61 0 122-22 183-65l57 120c-20 18-53 36-100 55-47 18-101 28-161 28-121 0-209-33-265-100-57-67-85-159-85-275 0-117 32-215 96-294 65-79 155-118 270-118zm-67 338c36-6 69-20 100-43 30-22 46-48 46-79 0-60-30-90-89-90-56 0-98 22-128 66-29 44-46 96-49 158 44-1 84-5 120-12z"/>
      <path fill="#a4d7bb" d="M4903 3639H3441c0-72-24-143-70-200l591-952 1-1 209-363 210 363 1 1 590 952c-45 57-69 128-70 200zm-1941-277l-731-1266c63-36 112-93 138-161l1120 36h420l-209 363-1 2-529 987c-72-11-145 3-208 39zm-731-1819l731-1266c63 35 136 50 208 39l529 987 1 2 209 362h-420l-1120 36c-26-68-75-124-138-160zM3441 0h1462c1 72 25 143 70 200l-590 951-1 2-210 362-209-362-1-2-591-951c46-57 70-128 70-200zm1941 277l731 1266c-62 36-111 92-137 160l-1120-36h-420l209-362 1-2 529-987c72 11 145-4 207-39zm731 1819l-731 1266c-62-36-135-50-207-39l-529-987-1-2-209-363h420l1120-36c26 68 75 125 137 161zm-2010-237l69 40 69-40v-80l-69-39-69 39v80z"/>
      <path fill="#076138" d="M3934 2533l28-46 1-1 209-363 210 363 1 1 28 46h-477zm-499-564l54 2h420l-209 363-1 2-25 47-239-414zm239-713l25 47 1 2 209 362h-420l-54 2 239-413zm737-150l-28 45-1 2-210 362-209-362-1-2-28-45h477zm499 563l-54-2h-420l209-362 1-2 25-47 239 413zm-239 714l-25-47-1-2-209-363h420l54-2-239 414z"/>
      <path d="M4172 3144l165 270 165-270 165 270 144-236 162 261c-45 57-69 128-70 200H3441c0-72-24-143-70-200l163-261 144 236 165-270 165 270 164-270zm1148-662l151 278-316 7 152 278-278 7 146 271c72-11 145 3 207 39l731-1266c-62-36-111-93-137-160l-308 9 133 244-316 8 151 277-316 8zm0-1325l151-278-316-8 152-277-278-7 146-271c72 11 145-4 207-39l731 1266c-62 36-111 92-137 160l-308-10 133-243-316-8 151-278-316-7zM4172 494l165-270 165 270 165-270 144 237 162-261c-45-57-69-128-70-200H3441c0 72-24 143-70 200l163 261 144-237 165 270 165-270 164 270zm-1147 663l-152-278 317-8-152-277 277-7-145-271c-72 11-145-4-208-39l-731 1266c63 36 112 92 138 160l308-10-133-243 316-8-151-278 316-7zm0 1325l-152 278 317 7-152 278 277 7-145 271c-72-11-145 3-208 39l-731-1266c63-36 112-93 138-160l308 9-133 244 316 8-151 277 316 8zM4020 1907l152 88 152-88v-175l-152-88-152 88z" class="fil4"/>
    </g>
  </g>
</svg>
