<svg xmlns="http://www.w3.org/2000/svg" viewBox="0 0 12909 7979">
  <defs>
    <style>
      .fil0{fill:#fefefe}.fil1{fill:#00bd6e}
    </style>
  </defs>
  <path d="M454 7738c184 0 275-73 275-220 0-76-40-133-121-170-43-21-98-41-167-59-68-18-124-37-169-56s-91-46-137-79C45 7086 0 6983 0 6843s49-250 146-330c97-81 224-121 380-121 157 0 303 32 437 94v344l-234 16v-133c0-23-3-40-9-50-17-29-71-44-162-44s-158 16-201 48c-44 32-66 82-66 149 0 49 19 92 55 129 25 24 61 45 109 61l154 49c54 17 102 35 144 55s86 47 132 83c94 68 140 175 140 318 0 144-51 257-155 340a636 636 0 0 1-408 124c-169 0-321-32-455-94v-363l234-16v140c0 23 3 40 9 50 6 11 25 22 56 31 32 10 81 15 148 15zm6009-1428v1444l130 7v184h-545v-175l75-6c45-5 67-29 67-74V6560c0-34-19-52-58-55l-80-5v-190h411zM5369 7777c166 0 250-134 250-403 0-136-19-240-56-310-38-70-101-105-189-105-87 0-152 33-193 101-42 67-62 159-62 275 0 215 40 351 119 406 35 24 79 36 131 36zm-528-410c0-113 17-212 51-295 33-83 78-147 135-191a580 580 0 0 1 360-124c92 0 169 15 233 45 63 29 113 64 149 103s66 95 92 169c25 75 38 162 38 263 0 211-52 371-154 479a517 517 0 0 1-393 163c-160 0-285-51-375-155-91-103-136-255-136-457zm-683 410c167 0 250-134 250-403 0-136-19-240-56-310-38-70-101-105-188-105-88 0-153 33-194 101-41 67-62 159-62 275 0 215 40 351 119 406 35 24 79 36 131 36zm-528-410c0-113 17-212 51-295 33-83 79-147 135-191a580 580 0 0 1 360-124c92 0 170 15 233 45 63 29 113 64 149 103s67 95 92 169c25 75 38 162 38 263 0 211-52 371-154 479a515 515 0 0 1-393 163c-160 0-285-51-375-155-91-103-136-255-136-457zm-1236 321V6571c0-24-4-41-12-50-9-10-24-15-45-16l-80-5v-190h408v617a383 383 0 0 1 335-170c116 0 206 33 269 100 64 66 95 166 95 299v598l131 7v184h-546v-175l76-6c23-3 40-10 50-20 11-10 16-29 16-56v-473c0-79-12-140-37-183-26-43-75-64-147-64a229 229 0 0 0-240 231v555l131 7v184h-546v-175l76-6c23-3 40-10 50-20 11-10 16-29 16-56zm-942-333c0 130 24 231 73 303s120 108 212 108c93 0 184-33 274-99l99 177a624 624 0 0 1-408 133c-164 0-293-52-387-155s-141-256-141-457c0-202 54-354 162-456a520 520 0 0 1 365-152c135 0 261 31 377 94v298l-211 16v-110c0-41-15-67-45-77s-61-15-93-15c-185 0-277 131-277 392z" class="fil0"/>
  <path d="M6733 7945v-186l83-7c40-3 59-24 59-64V6621l-130-6v-195h413l649 1052h4v-851l-151-6v-195h559v185l-82 7c-37 3-55 27-55 71v1262h-269l-662-1069h-5v867l149 7v195h-562zm5887-980c-36-13-81-20-133-20s-93 12-125 35c-31 24-47 53-47 88 0 34 6 61 18 80 11 19 29 35 53 49 39 20 85 37 138 52a778 778 0 0 1 217 77 301 301 0 0 1 168 282c0 114-41 204-125 269-83 65-189 98-317 98-187 0-327-24-422-72v-318l206-16v110c0 67 64 101 193 101 128 0 192-47 192-140 0-34-11-61-33-83-22-21-44-36-65-43-22-8-47-16-77-23l-87-23a758 758 0 0 1-201-87c-78-51-117-135-117-254 0-118 42-210 126-274s190-96 318-96 254 30 380 92v275l-207 16v-97c0-38-17-64-53-78zm-717 799v181h-372v-149a426 426 0 0 1-372 179c-236 0-355-133-355-397v-530c0-41-19-63-57-64l-74-5v-188h404v727c0 81 11 142 34 184 23 41 71 62 143 62 71 0 129-23 173-67 43-44 65-98 65-160v-484c0-25-4-42-13-52-8-10-23-16-44-17l-74-5v-188h404v899c0 25 4 41 11 50 8 8 23 14 46 17l81 7zm-1785-62l-140-184-190 236 108 7v184h-477v-181l71-7c35-5 66-23 92-55l263-331-282-389-117-14v-177h535v181l-67 5c-18 1-30 8-35 21-6 12-3 25 8 39l130 174 177-229-94-7v-184h466v179l-69 5c-32 1-63 20-92 57l-252 319 300 399 117 14v181h-546v-181l71-5c20-2 32-8 36-19 4-12 0-25-13-38zm-1190-945c115 0 206 28 273 83 67 56 101 135 101 236a352 352 0 0 1-152 298c-42 29-94 52-155 71-103 30-218 46-347 46 5 81 30 146 76 196 46 49 116 74 211 74s190-33 284-101l87 186a670 670 0 0 1-403 129c-187 0-324-52-411-155s-130-245-130-426c0-180 49-331 149-454a507 507 0 0 1 417-183zm-104 524c56-10 107-32 155-67 47-34 71-75 71-122 0-94-46-140-138-140-86 0-151 34-197 102s-71 149-76 244c67-2 129-7 185-17z" class="fil1"/>
  <path d="M7586 5629H5324c0-112-38-221-108-309l913-1472 2-3 324-561 324 561 1 3 914 1472a497 497 0 0 0-108 309zm-3003-428L3452 3242c96-55 172-143 213-248l1732 55h651l-324 561-2 3-818 1527c-111-16-225 6-321 61zM3452 2387L4583 428c96 55 210 77 321 60l818 1528 2 2 324 561h-651l-1732 56a493 493 0 0 0-213-248zM5324 0h2262c0 111 38 221 108 309l-914 1472-1 2-324 561-324-561-2-2-913-1472c70-88 108-198 108-309zm3003 428l1130 1959a493 493 0 0 0-213 248l-1731-56h-651l324-561 1-2 818-1528c111 17 225-5 322-60zm1130 2814L8327 5201c-97-55-211-77-322-61l-818-1527-1-3-324-561h651l1731-55a493 493 0 0 0 213 248zm-3109-366l107 62 107-62v-123l-107-62-107 62v123z" class="fil0"/>
  <path d="M6086 3918l43-70 2-3 324-561 324 561 1 3 44 70h-738zm-772-871l83 2h651l-324 561-2 3-39 73-369-639zm369-1104l39 73 2 2 324 561h-651l-83 3 369-639zm1141-233l-44 71-1 2-324 561-324-561-2-2-43-71h738zm771 872l-82-3h-651l324-561 1-2 39-73 369 639zm-369 1104l-39-73-1-3-324-561h651l82-2-369 639zM6455 4864l254 418 255-418 255 418 224-366 251 404a499 499 0 0 0-108 309H5324c-1-111-38-221-108-309l251-404 223 366 255-418 255 418 255-418zm1775-1025l234 430-489 12 234 429-429 11 225 420c111-17 225 5 321 60l1131-1959a498 498 0 0 1-213-248l-476 16 206 376-489 12 234 430-489 11zm0-2050l234-429-489-12 234-429-429-11 225-420c111 17 225-5 322-60l1130 1959a493 493 0 0 0-213 248l-476-16 206-376-489-12 234-430-489-12zM6455 765l255-418 254 418 255-418 224 366 251-404A499 499 0 0 1 7586 0H5324c0 111-38 221-108 309l251 404 223-366 255 418 255-418 255 418zM4679 1789l-234-429 489-12-234-429 429-11-225-420c-111 17-225-5-321-60L3452 2387c96 55 172 143 213 248l476-16-205-376 489-12-235-430 489-12zm0 2050l-234 430 489 12-234 429 429 11-225 420c-111-17-225 5-321 60L3452 3242c96-56 172-143 213-248l476 16-206 376 490 12-235 430 489 11zM6220 2950l235 136 235-136v-271l-235-136-235 136z" class="fil1"/>
</svg>
