<svg xmlns="http://www.w3.org/2000/svg" viewBox="0 0 3042 2661">
  <defs>
    <style>
      .fil0{fill:#085370;fill-rule:nonzero}
    </style>
  </defs>
  <path d="M75 2540v-168H46c-5 0-8 4-8 12v17l-38-3v-63h194v63l-38 3v-17c0-5-1-8-2-9-1-2-4-3-9-3h-25v177l29 1v32H45v-30l19-1c8-1 11-5 11-11zm159 0v-180c0-4 0-7-2-8-1-2-4-3-7-3l-13-1v-30h66v99c13-18 31-27 54-27 19 0 33 5 44 16 10 11 15 27 15 48v97l21 1v30h-88v-28l12-1c4-1 7-2 8-4 2-1 3-4 3-9v-76c0-13-2-23-6-30s-12-10-24-10-21 4-28 11-11 16-11 26v90l21 1v30h-88v-28l12-1c4-1 7-2 9-4 1-1 2-4 2-9zm267-145v156l21 1v30h-88v-28l12-1c7-1 11-5 11-12v-103c0-5-1-7-2-9-1-1-4-2-7-2l-13-1v-31h66zm-47-32c-5-5-7-11-7-19s2-15 7-20c6-5 12-8 21-8 8 0 15 3 20 8 6 5 8 12 8 20s-2 14-8 19c-5 5-12 8-20 8-9 0-15-3-21-8zm88 62v-30h62v24c7-9 15-16 26-21 10-6 22-8 34-8 19 0 33 5 44 16 10 11 15 27 15 48v97l21 1v30h-88v-28l12-1c4-1 7-2 8-4 2-1 3-4 3-9v-76c0-14-2-24-6-30-4-7-12-10-24-10s-21 4-28 11-11 16-11 26v90l22 1v30h-89v-28l13-1c3-1 6-2 8-4 1-1 2-4 2-9v-102c0-8-3-12-9-12l-15-1zm247 115v-180c0-4-1-7-2-8-1-2-4-3-7-3l-13-1v-30h66v160c13-1 25-5 35-13 11-7 17-16 21-28 1-2 1-4 1-6 0-4-2-6-7-6l-14-1v-29h77v30l-18 1c-3 25-14 45-33 60l37 65 22 1v30h-54l-42-77c-8 2-17 4-25 5v41l21 1v30h-88v-28l12-1c4-1 7-2 8-4 2-1 3-4 3-9zm250-145v156l21 1v30h-88v-28l12-1c8-1 11-5 11-12v-103c0-5-1-7-2-9-1-1-4-2-7-2l-13-1v-31h66zm-46-32c-6-5-8-11-8-19s2-15 8-20c5-5 12-8 20-8s15 3 21 8c5 5 8 12 8 20s-3 14-8 19c-6 5-13 8-21 8s-15-3-20-8zm87 62v-30h62v24c7-9 15-16 26-21 11-6 22-8 34-8 19 0 34 5 44 16s15 27 15 48v97l21 1v30h-88v-28l12-1c4-1 7-2 9-4 1-1 2-4 2-9v-76c0-14-2-24-6-30-4-7-12-10-24-10s-21 4-28 11-10 16-10 26v90l21 1v30h-88v-28l12-1c3-1 6-2 8-4 2-1 3-4 3-9v-102c0-8-4-12-10-12l-15-1zm389 156c-2 28-10 48-23 61-14 13-35 19-64 19s-52-4-68-12v-52l35-3v18c0 7 3 11 9 14 7 2 15 3 26 3 16 0 27-5 33-14 7-10 10-23 10-40v-21c-12 14-28 21-49 21-13 0-24-2-34-7s-18-12-23-20c-11-17-16-37-16-60 0-32 9-56 26-73 18-17 41-25 70-25 25 0 47 4 69 14v137c0 21 0 35-1 40zm-42-75v-80c-9-2-19-4-30-4-15 0-26 6-34 17s-12 26-12 45c0 39 12 59 38 59 11 0 20-4 27-10 7-7 11-16 11-27zm269-175c29 0 54 10 73 31 20 21 30 52 30 95s-10 75-29 97c-20 22-47 33-80 33-34 0-60-11-79-33s-28-53-28-95c0-23 3-43 10-60 6-17 15-30 26-40 22-19 48-28 77-28zm-67 126c0 62 21 92 64 92 22 0 38-9 48-28 8-17 12-37 12-61 0-21-4-41-11-59-4-10-11-18-19-23-9-6-20-9-33-9-14 0-25 4-35 13s-17 20-20 33c-4 12-6 26-6 42zm390 96v29h-60v-24c-14 19-34 29-60 29-38 0-58-22-58-65v-85c0-7-3-10-9-11h-12v-31h65v118c0 13 2 23 6 30 4 6 11 10 23 10s21-4 28-11 11-16 11-26v-78c0-4-1-7-2-9-2-1-4-2-8-3h-12v-31h66v146c0 4 0 6 2 8 1 1 3 2 7 2l13 2zm53-197h24v39h49l-4 31h-45v98c0 11 2 18 6 23 4 4 10 6 18 6s17-2 25-8l11 29c-12 9-28 13-47 13-11 0-21-1-28-4-8-3-14-6-17-10-4-3-7-8-9-15s-3-12-3-16v-116h-27l4-27c12-1 20-5 26-12s12-18 17-31zm348 226h-176v-30l12-1c7-1 11-5 11-11v-172l-21-1v-32h89v30l-12 1c-7 1-11 5-11 12v166h62c3 0 5-1 6-3 2-2 2-5 2-9v-26l38 2v74zm109-27c26 0 40-22 40-65 0-22-3-39-9-51-6-11-16-17-31-17-14 0-24 6-31 17s-10 25-10 44c0 35 7 57 19 66 6 4 13 6 22 6zm-86-67c0-18 3-34 8-47 6-14 13-24 22-31 18-14 37-20 59-20 14 0 27 2 37 7s18 10 24 17c6 6 11 15 15 27s6 26 6 43c0 34-8 59-25 77-16 18-37 26-63 26s-46-8-61-25c-14-16-22-41-22-74zm387 65v29h-60v-24c-14 19-34 29-60 29-39 0-58-22-58-65v-85c0-7-3-10-9-11h-12v-31h65v118c0 13 2 23 6 30 4 6 11 10 23 10s21-4 28-11 11-16 11-26v-78c0-4-1-7-3-9-1-1-3-2-7-3h-12v-31h66v146c0 4 0 6 1 8 2 1 4 2 8 2l13 2zm116-163c10 0 20 1 30 4v-37c0-6-3-9-10-9l-16-1v-29h69v225c1 6 4 8 10 8l13 1v30h-61v-22h-1c-11 18-28 27-50 27-28 0-48-10-59-29-11-17-16-37-16-62 0-32 8-58 24-77 16-20 38-29 67-29zm30 134v-96c-9-4-18-6-28-6-17 0-28 7-36 20s-11 29-11 50c0 41 13 62 40 62 10 0 18-3 25-9s10-13 10-21z" class="fil0"/>
  <path fill="#12b7e0" d="M2441 1313c12 25 11 53-3 87 22 48 14 86-24 113l20-195 7-5zm-1048 378c-3 2-6 3-8 6l-117-93c3-5 4-10 4-16 0-8-2-14-6-20l50-50c6 4 13 7 20 7 2 0 3 0 5-1l52 167zm-317-69c-3-8-5-17-6-26-51 40-108 61-163 68l167-341c3 1 6 2 10 2 3 0 7-1 10-2l126 238c-8 6-14 16-14 27v1l-131 28 1 5zm-458-95c-14-26-23-54-27-85l135 98-107-18-1 5zm469-714h1l271 133c-1 4-2 7-2 10 0 10 4 18 10 24l-31 42c-4-2-9-3-15-3-7 0-14 2-19 6l-215-212zm24-106c14-3 29-5 46-6 58-42 111-63 159-65l-2 24c-18 1-31 15-31 33v8l-194 77c-2-4-4-7-8-10l34-58-4-3zm218 16c3-1 5-3 7-4l64 57c-2 4-3 9-3 14 0 10 6 20 16 23l-22 111-1-1c-1 0-3 1-4 1l-57-201zm-8-87c19 0 36 4 53 10 20-11 39-19 57-24l-90 51c-4-6-10-10-17-12l2-24-5-1zm101 179c8 0 14-3 19-8l30 18c-2 4-3 8-3 13 0 8 3 15 7 20l-66 71c-3-1-5-3-8-4l21-110zm176-196c40-7 77-1 109 18 4-2 8-3 12-4l-4 3 132 143c-4 6-7 12-7 19l-307 32c-2-8-7-15-14-20l83-189-4-2zm346 192c1 9 6 16 13 20l-32 100h-10l-29-101c9-4 16-12 19-22l39 3zm161 28c0 3 0 6 1 9l-161 95c-3-4-7-7-11-9l32-100h3c11 0 20-6 24-16l112 21zm-379 139c6 5 14 8 22 8h2l52 284c-3 1-5 3-8 4l-171-188c3-4 5-10 5-16 0-4-1-8-3-11l101-81zm-244-113c6 4 12 6 19 6 3 0 6-1 9-1l78 179c-2 2-4 3-6 5l-161-86c1-4 2-8 2-12 0-7-3-14-7-20l66-71zm117 231h3c5 0 10-1 13-4l172 189c-1 1-2 2-3 4l-199-82c1-3 1-6 1-9 0-10-4-19-11-25l24-73zm-76 85c-2 4-2 8-2 13 0 9 3 17 9 23l-179 246c-3-2-7-3-11-4l-13-375c8-2 15-6 19-11l177 108zm258 113c-1 2-1 5-1 8 0 2 0 5 1 7l-417 166c-1-2-3-5-5-7l179-245c5 2 10 4 15 4 12 0 22-6 28-15l200 82zm603-112c10 10 17 21 21 34l-3-4-55 57-192-74v-3l229-5v-5zm-222 244l-86-167c4-3 6-7 6-12 0-3-1-6-2-9l23-24c6 4 13 6 20 6h1l38 206zm-822 383l-36 54 4 3c-10-2-19-5-28-8l4-3-46-83c0-1 1-1 1-2l101 39zm-168-19c-11-10-21-21-30-33l66 6v1l-39 22 3 4zm744-155c-10 5-18 16-18 29l-60 9c-3-6-7-10-13-11l-7-328 98 301zm31 58c6-3 12-9 15-16l67 17c1 8 6 14 13 16l4 266-99-283zm-146-8c2 5 5 10 9 12l-54 201c-1-2-2-5-3-7-9-2-19-5-28-8h5l21-171c16-1 29-12 31-28l19 1z"/>
  <path fill="#12b7e0" fill-rule="nonzero" d="M471 1505c11-2 21 5 24 16 2 11-5 22-16 24l-251 52c-11 2-22-5-24-16s5-22 16-24l251-52zm2064 26c-11-2-19-13-17-24 1-11 12-19 23-17l253 37c12 2 19 12 18 23-2 12-12 19-24 18l-253-37zm-180-625c-9 5-22 3-28-7s-3-22 7-28l218-135c9-6 22-3 28 7s3 22-7 28l-218 135zm-486-331c-3 10-15 16-26 13-10-4-16-15-13-26l81-243c3-11 15-17 26-13 10 3 16 15 13 26l-81 243zm-555-11c4 11-1 22-11 27-11 4-23-1-27-12l-94-238c-5-10 1-22 11-26 11-5 22 1 27 11l94 238zM732 824c10 5 13 18 8 28s-18 13-28 8L487 739c-10-6-14-18-8-28 5-10 17-14 27-9l226 122z"/>
  <path d="M2452 1873c-9-5-13-18-8-28s18-13 28-8l451 243c10 5 13 18 8 28s-18 14-28 8l-451-243zM1608 532c0 11-9 20-20 21-11 0-21-9-21-20l-15-512c0-11 9-21 20-21 12 0 21 9 21 20l15 512zm-594 104c8 9 7 22-1 29-9 8-22 7-29-1L643 281c-7-8-7-21 2-29 8-7 21-6 29 2l340 382zm-484 491c11 2 19 12 17 23-1 12-12 19-23 18l-506-74c-12-2-19-13-18-24 2-11 12-19 24-17l506 74zm1607-435c-7 8-20 10-29 3s-11-20-4-29l318-401c7-9 20-11 29-4s10 20 3 29l-317 402zm387 496c-11 2-22-5-24-16-3-11 4-22 16-24l501-103c11-3 22 4 24 16 2 11-5 21-16 24l-501 103z" class="fil0"/>
  <path fill="#037d9c" d="M2428 1310l-229 128 151-158 78 30zm-24 303c10 31 14 59 13 85l-24-51 11-34zm-293-757c4 4 8 7 14 8l-6 291c-6 1-10 2-14 5l-160-175c5-6 7-13 7-21 0-5 0-9-2-13l161-95zm-224 111c1 11 8 21 18 26l-87 276h-6l-53-284c11-4 19-13 22-25l106 7zm176-190c4 8 8 16 11 24 90 10 133 39 129 87 51 30 81 73 90 131 36 28 59 63 69 105l-212-268c3-4 6-10 6-17 0-14-12-25-26-25-11 0-20 6-24 16l-111-21v-4l70-24-2-4zm-339-146c29-7 59-2 92 15 24 1 46 5 65 10h-5l-6 111c-6 1-11 3-16 6l-130-142zm-186-7c5 2 10 4 14 7 14-5 27-9 40-11l-82 186c-3-1-6-1-9-1-10 0-19 5-25 12l-30-18c1-3 2-6 2-9 0-7-3-14-7-18l101-146-4-2zm-490 200c3 2 6 2 10 3l19 433c-14 3-25 14-26 29l-276 14c-1-7-5-14-11-19l284-460zm-154 841c-69 6-136-12-189-46l42-64 147 110zm328 77c-6 2-11 6-13 11l-71-6v5c-15-20-29-42-40-67l3 4 114-79c5 5 10 8 17 10l-10 122zm125 57v-1l-1 2-103-39 134-29c2 5 4 9 8 13l-38 54zm137 56c-24 9-48 15-73 18l4-3-61-64 39-56c4 2 9 4 15 4 4 0 8-1 12-3l64 104zm128-88c-37 40-79 69-123 86l4-2-64-105c7-6 11-15 11-24l278-34c3 11 12 20 23 23l-21 170c-51-21-87-59-108-114zm-244-266c0-3 1-6 1-9s-1-5-1-8l416-166c4 7 11 12 19 15l-53 313c-12 0-22 6-28 15l-354-160zm532 173c4 13 16 23 31 23h6l98 278-200-282c2-3 4-7 4-10l61-9zm432 147c-9 5-19 10-30 14-1 61-20 106-56 134l-57-301c11-4 19-13 22-25l170 8-53 168 4 2zm-170-332c2 1 4 2 7 2l3 113c-15 3-27 16-27 33 0 2 1 5 2 8l-87 37s-1 0-1-1l103-192zm-9-58c-3 3-6 6-8 10l-300-131c0-3 1-5 1-8v-3l203-44c3 5 9 9 15 9h4l85 167z"/>
  <path fill="#0aa5cc" d="M2097 1167c-4 5-7 13-7 21 0 7 2 14 6 19l-23 24c-3-1-6-2-9-2-1 0-2 0-3 1l-121-236 157 173zm-795-89c4 3 10 6 15 6l13 375c-6 2-12 5-17 9l-201-160c3-4 4-10 4-16 0-7-2-14-6-20l192-194zm-542 259c9-5 15-14 16-24l275-14c2 8 7 15 14 20l-163 334-142-316zm-126-84c4-6 7-13 12-19 5-106 46-180 122-223 14-56 37-102 70-137l2 5 192-69c2 3 5 7 8 9l-284 460c-4-1-9-2-13-2-12 0-22 6-28 14l-81-38zm943-179c1 8 6 15 13 19l-24 70c-4-1-8-2-13-2-10 0-19 5-25 12l-176-109c0-2 1-3 1-5l224 15zm264-266c1 5 4 10 7 14l-83 103c-5-3-11-4-17-4-11 0-21 5-27 14l-188-88c0-2 1-5 1-8l307-31zm-749-4c1-3 2-6 2-10 0-3 0-5-1-7l194-77c6 9 16 16 28 16h5l56 200c-5 3-10 7-13 12l-271-134zm1248 472l-148 155c-6-4-12-6-19-6h-2l-38-206c8-3 15-8 18-15l189 72zm-140 200c4-5 5-11 5-18 0-4 0-8-2-12l221-123-20 194h5c-11 7-24 13-38 19 13 24 23 47 31 69l-5-2-12 35-185-162zm-22 14c6-1 12-3 16-7l180 158-163-8c-1-15-13-27-29-29l-4-114zm-126 221l173 273c-41 22-98 29-170 22h1l-4-295zm99-228l2 2-103 192c-1-1-2-1-3-1-7 0-12 4-15 9l-68-17v-4c0-6-2-12-5-17l192-164zm-331 217c1 0 3 0 4-1l157 310c-115 14-189-20-222-103l4 1 57-207zM590 1435c-3-30 0-63 9-98l1 5 112-21c4 11 14 20 26 21l3 196-148-107-3 4zm1296-777c30 10 53 25 70 46 3 1 6 2 10 2l-5 1 2 77c-9 2-16 9-18 18l-39-4c-1-15-12-27-27-30l7-110zm-447 1054c-4-14-16-24-31-24h-6l-52-167c6-2 10-6 14-11l354 160c-1 3-1 5-1 8l-278 34zm-742-99c-31-21-57-48-76-80l117 19-41 61z"/>
  <path fill="#085370" d="M846 866c40-39 93-64 159-74 12-43 45-71 99-83l-31 54c-4-1-8-2-12-2-18 0-33 15-33 33 0 2 0 4 1 6l-183 66zm1206 368c-3 3-5 7-5 12l-204 44c-2-8-8-14-16-18l87-276c2 0 4 1 6 1 3 0 7-1 10-2l122 239zm312-99c2 10 3 21 4 32 4 3 8 7 12 10l-225 5c-2-14-13-25-27-27l6-290c3-1 6-2 8-3l219 276 3-3zm-458-201c-9 4-17 13-19 23l-106-6c-1-8-4-15-8-20l83-103c5 3 11 5 17 5h4l29 101zm-189 10c-1 3-2 6-2 9 0 7 2 12 5 17l-101 81c-5-4-11-6-17-6h-5l-78-179c4-3 7-6 10-10l188 88zm254-236c41 12 71 34 90 65l-70 23c-3-7-10-11-18-13l-2-75zm-522-91c31-6 59-5 84 5l-100 144c-4-1-7-2-11-2-6 0-11 2-15 5l-64-58c3-5 5-11 5-18 0-4 0-8-2-12l105-59-2-5zm-382 209c5-1 10-3 14-6l214 212c-4 5-7 12-7 19 0 8 3 15 7 20l-192 195c-5-4-10-6-16-7l-20-433zm308 160c4 2 10 3 15 3 11 0 20-5 26-13l162 87-1 1-223-15c-1-8-4-16-10-21l31-42zm434 368l6 308c-7 2-12 7-13 13h-20c-1-13-10-23-22-27l49-294zm332 96c-1 2-1 5-1 8 0 7 1 13 5 18l-192 163c-6-5-14-8-22-8-2 0-3 1-5 1l-99-301c6-3 10-7 14-12l300 131zm101 523c-4 3-8 6-13 8l4-2-173-274c3-3 4-7 4-11v-3l86-37c6 9 17 15 28 15h2l57 305 5-1zm174-266c-6 46-32 83-77 110l49-157 23 49 5-2zm-372 298l-21-3c-13 3-25 5-37 6l5-2-137-269 190 268zm-639-132c-31 3-62 1-92-6l35-53 57 59zm-132-18c-35-14-68-34-98-61l38-22c4 3 8 5 12 5 2 0 3 0 4-1l44 79zm-32-104c-2-4-5-6-9-8l10-123c7 0 14-3 20-8l117 92c-3 5-4 11-4 17v2l-134 28zm-145-71c-7-16-14-34-19-53l131-28c1 1 1 2 2 3l-114 78zm211-205c-2 5-4 11-4 17 0 7 2 14 6 19l-50 50c-5-4-12-6-20-6-3 0-7 0-11 1l-125-237 3-3 201 159zm1100-254c5 17 5 35 2 56 11 7 19 16 26 25l-78-30 50-51zM751 1546l-3-204c1 0 2 0 4-1l137 309-138-104zm-150-214c7-24 17-49 30-74l-1 4 81 38c-1 3-1 6-1 10v1l-109 21z"/>
</svg>
