<svg xmlns="http://www.w3.org/2000/svg" fill-rule="evenodd" clip-rule="evenodd" image-rendering="optimizeQuality" shape-rendering="geometricPrecision" text-rendering="geometricPrecision" viewBox="0 0 2204 1557">
  <path fill="#333" d="M69 1486l8-3 2-1 5-2 6-2 2-1 8-3 1-1 7-2 3-2 5-2 6-2 2-1 9-3 8-3 3-1 5-2 6-2 2-1 8-3h1l8-3 3-1 5-2 6-3h2l9-3 1-1 7-3 4-1 4-2 7-2 2-1 8-3h1l8-3 4-2 4-1 7-3h2l8-3 2-1 7-3 4-1 4-2 7-2 2-1 8-3h2l11-5 4-1 8-3h1l9-3 2-1 6-2 5-2 4-2 8-2v-1l9-3 2-1 12-4 3-1 8-3h1l8-3 3-1 6-2 5-2 4-1 8-3 23-8 3-1 8-3h1l8-4 3-1 6-2 5-2 3-1 9-3 8-3 3-1 6-2 5-2 3-1 8-2 1-1 8-2 3-2 5-1 6-3h3l8-3h1l7-3 4-1 4-2 7-2 2-1 8-3h1l7-3h1l3-1 2-1 3-1 3-1 3-1 2-1 3-1 3-1h3v-1h3l2-1 3-1 2-1h1l3-1 2-1 3-1 2-1h1l2-1 3-1 3-1 2-1h1l2-1 3-1 3-1h1l1-1 3-1h3l2-1 2-1h1l3-1 2-1 3-1 1-1h2l2-1 3-1 3-1h1l1-1 3-1h3l2-1 1-1h2l2-1 3-1 3-1 2-1 3-1 2-1h3l1-1h1l3-1 3-1 2-1h1l2-1 2-1 3-1h2v-1h3l2-1 3-1 2-1 3-1 2-1h3l2-1c-8-9-16-17-24-26l-1-1v-1h-1v-1h-1v-1l1 1 1 1h2v1h2v1h1l1 1h1l1 1h1l2 1 1 1 2 1h1l1 1h1l1 1h1l1 1 4 2 2 1h1l1 1 5 2c3 2 7 3 11 5l4-1 4-1 3-2 4-1 4-1 3-1 4-2 4-1 3-1 4-1 3-1 4-2 3-1 4-1 3-1 4-1 7-3 7-2 3-1 7-2 3-2 3-1 4-1 3-1 3-1 3-1 3-1 4-1 3-1 3-1 3-1 3-1 3-1 3-1 3-1 3-1 6-2 3-1 3-1 3-1 2-1 14-5 5-2 6-1 24-9v-4h-1v-5l-1-1v-3l-1-1v-3l-1-2v-3l-1-1v-3l-1-1v-3l-1-2v-2l-1-1v-3l-1-1v-1h1l1 1h2v1h1l1 1h1l1 1h1v1h2l1 1 1 1h1v1h2l1 1 1 1h1v1h2v1h1l1 1 2 1 1 1c6 4 12 9 18 14l8-3 7-2 5-2h2c19-6 29-10 29-10s24-8 68-24c34-12 80-28 134-47l12-4 4-1 17-6 3-1 13-5h1l11-4 7-3 6-2 13-4h1l13-5 4-2 10-3 10-3 4-2 14-5h1l14-5 6-2 8-3 13-4 2-1 15-5 4-1 11-4 10-4 5-1 16-6 15-5 7-3 9-3 13-4 3-1 16-6 4-1 13-4 16-6 16-5 1-1 16-5 17-6 13-4 4-2 34-11 9-4 8-2 16-6h2l53-18 6-2 6-2 6-2 7-3 6-2 6-2 6-2 6-2 6-2 6-2 6-2 6-2 6-2 6-2 6-2h1l5-2 6-2 6-2 13-4 6-2 6-2 6-2 2-1 4-1 6-2 6-2 6-2 3-1 4-1 6-3 6-2 6-2 3-1 3-1 6-2 6-2 6-2 4-1 3-1 6-2 6-2 6-2 3-1 3-1 6-2 6-2 6-2 4-1 2-1 7-2 6-2 6-2 4-1 2-1 6-2 6-2 6-2 5-2h1l6-2 6-2 6-2 6-2h1l6-2 12-4 5-2h1l24-8c-134 50-263 97-390 143-22 628-732 909-1194 416-178 59-360 119-551 181zm197-173l-15 5-56-162 15-5 56 162zm196-248l43 126c5 12 5 23 1 32-3 8-11 14-21 18-11 4-20 5-28 5l-4-22 11-3c11-4 15-11 12-21l-43-125 29-10zm162 74l-60 21 2 50-30 10-4-171c0-5 3-9 8-11l29-10c5-2 10 0 13 4l101 138-30 10-29-41zm-15-22l-35-50c-5-8-8-12-9-13l-6 2 1 16 3 61 46-16zm234-183l25 164c0 3 0 5-2 7-1 2-3 4-6 5l-31 10c-6 2-11 1-14-4l-59-106-9-18-5 1c2 10 3 16 4 20l18 120c0 3 0 5-2 8-1 2-3 3-6 4l-31 11c-2 1-5 1-8 0-2-1-4-2-5-5l-81-144 31-10 59 111c3 5 6 12 10 21l5-1c-1-10-3-18-3-24l-18-115c-1-7 2-11 8-13l29-10c2-1 5-1 8 0 2 1 4 3 5 6l58 102c4 7 8 14 10 21l6-2c-1-3-2-6-3-11s-2-9-2-12l-21-125 30-11zm117 70l-36 1c-13 0-23-3-31-9s-13-15-18-27c-6-18-6-31 1-39 6-9 19-16 40-24 20-6 38-10 53-12l5 22c-18 5-34 11-48 16-11 3-18 7-21 10s-3 9 0 17c2 7 5 11 9 13 3 2 9 3 17 3l34-1c14-1 24 2 32 8s13 15 18 28c6 17 6 31-1 40-6 9-20 17-41 25-18 6-36 10-55 12l-5-22c27-9 45-14 51-16 11-4 18-8 21-12 3-3 2-9 0-17-3-7-5-12-9-14-3-1-8-2-16-2zm519-258l-50 17 47 137-30 10-47-137-49 17-9-25 129-45 9 26zm191 87l-31 11-30-46c-7-9-15-11-24-8l-29 10 22 65-29 10-56-162c14-7 33-14 59-23 20-7 36-8 47-4 11 3 19 14 25 32 5 13 5 23 3 32-2 8-9 15-19 20v1c5-1 11 0 16 3 5 2 10 7 14 13l32 46zm-123-57l30-10c10-4 17-8 19-13 3-5 2-13-1-22-3-10-7-16-13-18-5-3-12-2-23 2l-29 10 17 51zm217-156l34 99c8 24 9 43 4 56-6 13-20 23-42 31-24 8-42 9-54 2-13-7-24-23-32-47l-34-99 29-10 34 99c5 16 11 26 18 30s17 4 29 0 19-10 22-17c3-8 1-20-4-35l-34-99 30-10zm127 66l-36 1c-13 0-24-3-31-8-8-6-14-15-18-28-6-18-6-31 0-39 7-9 20-16 41-23 20-7 37-11 53-12l5 21c-18 6-34 11-49 16-10 3-17 7-20 10-3 4-3 9 0 18 2 6 5 11 8 12 4 2 10 3 17 3l35-1c13 0 24 2 32 8 7 6 13 15 17 28 6 18 6 31 0 40s-20 17-42 25c-18 6-36 10-54 13l-6-23c28-8 45-14 52-16 11-4 18-8 20-11 3-4 3-10 0-18-2-7-5-12-8-13-4-2-9-3-16-3zm167-138l-51 17 47 137-29 10-47-137-50 17-8-25 129-44 9 25zM375 1095l53 155c1 4 0 7-4 9l-17 5c-3 2-6 1-9-2l-104-102c-10-10-15-16-16-17l-4 2c2 4 4 11 7 19l44 129-15 5-54-156c-1-4 0-7 5-8l16-6c3-1 6 0 9 3l101 99c8 8 15 14 19 19l4-2c-3-8-5-15-8-23l-43-124 16-5zm823-282l17 170c0 4-1 6-5 7l-18 7c-4 1-7 0-8-3l-72-118-11-16-5 1c1 9 2 16 2 20l15 137c1 3-1 6-4 7l-19 6c-4 2-6 1-8-2l-90-145 16-6 74 122c3 4 7 10 11 17l5-2c-1-7-2-14-2-20l-15-136c0-4 1-6 5-7l18-6c3-2 6 0 8 3l71 116c2 3 6 9 11 18l6-3c0-1-1-3-1-6-1-2-1-5-1-7-1-2-1-4-1-6l-15-142 16-6zm176 107l5 11c-15 6-38 15-69 26-9 2-17 2-23-1-7-3-12-8-15-16l-37-110c-3-8-3-15 1-22 4-6 10-11 18-14 32-11 55-18 70-22l3 12-66 22c-10 4-13 11-10 23l14 39 72-24 5 12-73 25 17 50c4 11 11 15 22 11l66-22zM805 660c-91 144-162 219-214 225 29-206 110-349 246-430 6-147 109-279 309-397-56 93-77 181-63 264-62-1-118 26-166 79 243-111 436-49 580 184-28 13-42 19-42 19-20-18-52-31-97-40-8-40-30-71-67-94 28 69 39 115 30 137-17-70-55-125-115-166 52 72 75 133 70 182-41-93-91-152-152-178 60 62 96 124 107 186-30-45-60-80-92-103-67 25-123 69-168 132-5-70 13-126 54-170-74-1-148 56-220 170zm168 634c-62 7-113-1-164-50 50 23 105 39 164 50zm90-72c-18 14-33 35-43 65 0-47-4-90-10-127 19 12 37 33 53 62zm387-189c-20 121-167 276-330 287 128-38 227-129 264-263l66-24zM730 863c54 3 246-88 272-126-87 46-191 98-272 126zm174-238c19 42-17 79-79 93 9-30 38-59 79-93zM0 1068c123-44 261-90 396-134-22-400 233-679 535-765 69-63 165-119 287-169-27 43-44 90-51 142 219 11 433 127 562 372 139-43 285-87 425-129l-7 2-7 3-4 1-2 1-7 2-7 3h-2l-4 2-7 2-7 2-6 3-7 2-5 2h-2l-6 2-7 3-3 1-4 1-6 2-7 2-1 1-6 2-6 2-5 2h-2l-6 2-7 3-3 1-4 1-6 2-7 2-1 1-5 1-7 3-5 2h-1l-7 2-7 2-3 1-3 2-7 2-6 2h-1l-6 2-6 2-6 2-1 1-6 2-7 2-3 1-3 1-7 2-6 2-2 1-5 2-6 2-6 2h-1l-6 2-7 2-3 2-3 1-6 2-7 2h-2l-4 2-7 2-6 2-7 2-6 3-4 1-2 1-7 2-6 2-2 1-5 1-6 2-6 2h-1l-6 3-6 2-5 1-2 1-6 2-6 2-2 1h-1l-10 3-7 3-3 1-11 3-3 1-8 3-9 3h-1l-11 4-5 1-6 2-10 4h-1l-10 3-7 3-3 1-11 3-3 1-7 3-10 3h-1l-11 4-4 1-6 2-11 4-10 3-7 2-4 2-10 3-3 1-8 3-9 2-1 1-11 3-4 2-6 2-11 3-10 4-7 2-3 1-11 4h-2l-8 3-9 3h-2l-10 4-5 1-6 2-10 3v1l-10 3-7 2-4 1-10 4h-3l-8 3-8 3h-2l-10 4-5 1-6 2-10 3v1l-11 3-6 2-4 1-10 3-3 1-8 3-8 3h-2l-10 3-5 2-6 2-10 3-10 3-7 2-4 2-10 3-2 1-8 2-21 7-4 1-6 2-93 30v5l1 1v2h1v1h1v2h1v1h1v1l1 1 1 1 1 1h1v1h1v1l1 1h1v1h1l1 1 1 1h1v1h1l1 1 1 1 1 1h1l1 1 1 1h1l1 1h1l1 1h1c-31 23-73 29-125 19-11 22-1 35 29 41-34 21-73 27-119 19-9 16-4 29 17 38-36 12-70 16-102 12-40 32-122 57-244 76v-10l1-1v-11l1-1v-11l1-1v-10l1-1v-9l1-1c0-7 1-14 2-21-47 14-95 29-143 43h-1l-6 2-11 4h-2l-6 2h-1l-6 2-2 1-4 1-5 1-8 3h-1l-6 2-2 1-4 1-5 1-2 1-6 2-7 2h-2l-5 2-4 1-2 1-6 1-1 1-6 1-2 1-5 1-4 2h-2l-6 2h-1l-7 2-1 1-5 1-4 1-3 1-5 2h-1l-7 2-1 1-6 1-3 1-3 1-6 2h-1l-7 2-6 2-3 1-4 1-5 2h-2l-6 2h-1l-6 2-2 1-5 1-4 1-2 1-7 2-7 2-2 1-5 1-4 1-2 1-7 2-7 2-2 1-4 1-4 1-3 1-6 2h-1l-7 2h-1l-6 2-3 1-3 1-6 2h-1l-7 2h-1l-6 2-3 1-4 1-5 2h-1l-7 2h-1l-6 2-3 1-4 1-5 2h-2l-7 2-6 2-3 1-4 1-5 1-2 1-7 2zm456-153c35-12 70-23 103-33 31-240 110-388 236-445 2-66 23-128 62-186-231 115-402 364-401 664zm1111-350c51-16 104-33 159-50-165-226-367-325-562-332-1 44 5 90 18 139 158 14 286 95 385 243zm193 344c-46 16-92 33-137 49-54 406-569 519-830 289l-171 57c492 453 1111 160 1138-395zm-408 146c-103 36-206 71-308 107 34 35 59 84 75 147 128-50 206-135 233-254zm-355 123c-58 20-116 39-174 59 58 24 119 41 181 50 0-39-2-76-7-109z"/>
</svg>
