<svg xmlns="http://www.w3.org/2000/svg" viewBox="0 0 14734 5113">
  <defs>
    <style>
      .fil0,.fil6{fill:#0476bf}.fil1{fill:#11a6de}.fil7{fill:#8c8c8c}.fil2,.fil3{fill:#0476bf;fill-rule:nonzero}.fil3{fill:#11a6e0}
    </style>
    <radialGradient id="id0" cx="418.16" cy="1663.44" r="2268.99" fx="418.16" fy="1663.44" gradientTransform="matrix(.21824 -1.43892 1.73165 .18135 -2554 1963)" gradientUnits="userSpaceOnUse">
      <stop offset="0" stop-color="#fefefe"/>
      <stop offset=".671" stop-color="#7fcbec"/>
      <stop offset="1" stop-color="#0098da"/>
    </radialGradient>
  </defs>
  <g id="Layer_x0020_1">
    <g id="_2525354140368">
      <path d="M7459 760c264 112 465 124 640 22-220 496-628 545-740 401l5-1-13-33c-2-7-4-15-6-22-14-66 20-133 58-184 1 37 6 76 21 108 13 29 36 52 66 53 15 1 30-3 43-11l2-2 2-2c24-24 43-55 50-91 6-34 1-65-11-93-17-48-52-98-117-145zm122-106v-17c0-92-23-131-84-153 66-27 103-98 103-182 0-130-85-227-213-227h-352v723c45-45 91-85 141-115V552h155c70 0 98 21 106 72 48 5 96 17 144 30zm-218-443c72 0 101 44 101 105 0 60-29 104-106 104h-182V211h187z" class="fil0"/>
      <path d="M8167 721c-554 153-726-296-1121 114 452-332 603 173 1121-114zm-199-3V212h210V75h-564v137h208v499c50 6 98 9 146 7zm-584 42c-40-11-43-16-139 9 181 154 10 407-87 145-108 206 28 268 171 246-3-8-5-17-8-27-20-93 41-183 86-235l21-24-1 40c-4 148 51 181 94 155 74-77 73-191-137-309z" class="fil1"/>
      <path d="M6193 1434c47 0 66 25 66 61 0 34-19 60-70 60h-118v-121h122zm142 375v-129c0-53-15-76-55-88 44-16 68-57 68-106 0-75-56-131-139-131h-230v454h92v-178h101c54 0 71 17 71 61v117h92zm121-201c3-47 32-74 68-74 35 0 67 24 69 74h-137zm228 56c0-133-54-200-157-200-104 0-163 67-163 171 0 121 56 182 168 182 72 0 127-38 147-107h-91c-6 23-31 37-60 37-44 0-72-33-75-83h231zm203 145l121-336h-93l-71 222-70-222h-99l120 336h92zm205-201c3-47 32-74 68-74 35 0 67 24 69 74h-137zm228 56c0-133-54-200-158-200-103 0-162 67-162 171 0 121 56 182 168 182 72 0 127-38 147-107h-91c-6 23-31 37-60 37-44 0-72-33-75-83h231zm116 145v-175c0-54 27-81 81-81 9 0 17 0 25 2v-91h-12c-36 0-70 4-99 49v-40h-84v336h89zm405-235c-4-68-46-110-142-110-105 0-144 44-144 95 0 56 24 90 154 119 36 8 54 16 54 40 0 22-28 33-61 33-40 0-68-19-68-50h-91c1 71 63 116 159 116 98 0 149-44 149-104 0-78-38-85-156-117-35-9-54-19-54-37 0-21 19-29 55-29 38 0 56 14 60 44h85zm116 34c3-47 33-74 68-74s68 24 69 74h-137zm228 56c0-133-54-200-157-200s-163 67-163 171c0 121 56 182 168 182 72 0 127-38 148-107h-92c-6 23-31 37-60 37-44 0-72-33-75-83h231z" class="fil2"/>
      <path d="M8392 1810v-331h121v-70h-325v70h120v331h84zm220 0v-297h-78v297h78zm0-333v-73h-78v73h78zm174 276c-39 0-67-36-67-89 0-61 22-92 67-92 44 0 66 32 66 96 0 50-29 85-66 85zm140 57v-406h-77v147c-22-31-51-46-88-46-76 0-122 63-122 153 0 100 54 159 129 159 36 0 64-13 82-44l1 37h75zm106-178c3-41 29-65 60-65s60 21 61 65h-121zm202 50c0-118-48-177-139-177s-144 59-144 151c0 107 50 161 149 161 63 0 112-34 130-95h-81c-5 21-28 33-53 33-39 0-64-29-66-73h204z" class="fil3"/>
      <g fill="#0badde">
        <path d="M1260 3492c23 3 52 10 75 15l148 32c12 2 9 1 15 8l77 80c13 11 36 26 57 33 4 1 8 2 13 3 6-26 15-52 26-78-12-12-23-27-35-37-13-11-20-25-33-36l-18-19c-13-14-20-28-39-30-53-5-103-11-156-20-39-6-84-17-121-21-9-5-44-10-58-13l-60-15c-21-5-99-23-112-31-6 4-3-6-6 7-2 14-2 17 2 31 6 32 66 49 100 59 20 6 41 11 61 16s46 9 64 16zm1023-31c-5-1-4-2-8-5 4 1 4 2 8 5zm-11 4c9 2 14 12 25 11-4-9-8-9-14-15 7 2 9 7 17 6-3-6-8-9-13-13 5 2 7 5 13 4l-8-9-3-5c-4-1-29-20-44-25 3 5 10 5 11 9 3 4-2 0 4 4 3 2 5 3 7 5l-8-2 13 10-12-3c1 4 10 10 14 13-7-2-11-6-18-6 4 8 11 10 16 16-7-2-16-11-23-9 2 9 29 31 39 27-3-10-10-11-16-18zm-59-46c3 0 2 0 5 1 4 2 3 1 1 2-3 0-4 0-6-3zm18 8c2 0 4 0 5 1 7 0 4-2 6 2l-4 2c-2-4 0-1-3-3-4-2-1 1-4-2zm11 3l8 2c-2-4-3-5-7-6l3-2-8-5c-5 0-3-2-4-3 0 0-2-1-2-2-9-6-33-15-44-16l-11-4c0 3-1-3 1 1v2c-12-3-1-2-7-4-4-2-4 1-10-2-5-2-14-3-21-4-4-1-40-6-43-5-8 2 6-5-3 1 0 1-1 1-1 1 5 2 7 0 11 1 7 2 29 3 39 9l6 3c4 3 0 2 5 4-2 2-4 4-3 6v1c1 0 1 1 3 1h-8l-3 2 2 3-6-1v3c3 0 1-1 6 4l-8-3-6-2 5 7c-5-3-7-5-13-5l3 5 6 6-6-6-10-2c1 5 1 3 3 8-4-3-8-9-13-9-2 7 8 27 17 22 2-5-2-8-4-13 6 4 11 14 20 12-1-6-2-6-5-10 8 3 8 9 19 8l-6-9c6 2 12 8 19 7l-6-8c6 2 9 5 16 4l-8-8 16 6c-2-6-4-5-8-8 6 1 8 4 15 3l-8-6 12 2-6-5 8 1-8-5h8l-7-4 4-1-6-3c-10-10-14-6 1-6 3 4 0 2 5 4l2 1c7 5 2 2 11 6 0 0-2 0-3 1l9 4h-7l7 5h-7c4 4 7 5 11 8l-13-3c3 5 9 7 14 10-8-2-10-5-19-5 3 5 6 5 10 9-7-2-10-6-18-5 4 6 10 8 14 13-8-3-13-10-24-8 5 9 29 27 39 24-3-9-5-7-10-13 8 3 12 10 22 7-3-6-5-5-9-10 8 1 8 5 18 5-1-6-9-9-14-13 6 3 15 7 21 7-3-4-6-7-10-8-9-4-10-7-20-8l-1-3 3-1 20 11c5 1 5 3 11 2-6-7-6-2-9-8zm-42 140c-16 17 12 51 28 36 15-15-14-50-28-36zm95 36c-14 10 9 53 26 40 14-11-10-52-26-40zm31-9c-11 10 11 51 26 40 12-10-12-52-26-40zm-29-48c-10 11 20 50 30 36 8-11-21-46-30-36zm54 39c-8 13 18 51 27 36 7-11-19-50-27-36zm-33-47c-6 8 23 46 31 35 7-10-23-46-31-35zm53 33c-6 15 17 47 25 41 7-6-10-43-25-41zm-36-92c-2-1 0 3-7-6l1-1h1c-3-6-23-21-29-22 4 5 10 9 14 13-4-3-3-3-8-3 4 6 10 10 15 15-5-2-9-6-14-5 4 8 27 30 37 29-4-8-8-10-14-17 6 3 6 5 13 7l-9-10zm-55 17c1 14 30 41 35 31 4-7-23-38-35-31zm54 31c1 11 6 16 12 24 4 4 15 17 20 12 5-6-17-40-32-36zm17-31l11 14c-5-2-5-4-10-5l13 21c3 4 12 14 17 15 2-7-7-14-10-20l9 8c2-8-26-33-29-37 0 3 0 0-1 4zm58 103c2-9-16-43-26-39-2 8 4 18 9 24 4 7 10 17 17 15zm-79-80c1-12-25-35-36-32 2 10 27 38 36 32zm48 33c-2-11-21-38-32-35 1 9 7 16 13 23 4 5 12 15 19 12zm-38-43c-3-11-25-32-37-30 4 9 27 34 37 30zm67 57c-4-6-11-19-18-19 1 8 17 40 26 39 0-7-5-14-8-20l7 7c-1-6-19-36-26-38 4 11 14 22 19 31zm-58 260c-24 14-16 59 6 46s15-58-6-46zm31-68c-17 16-4 59 14 43 16-14 4-59-14-43zm6 58c-19 16-12 59 7 44 18-14 12-60-7-44zm13 71c1-31-28-11-29 17-2 29 28 10 29-17zm13-143c-14 14-4 59 11 45 12-11 3-58-11-45zm6 59c-16 16-11 59 5 45 12-12 10-61-5-45zm-30 131c0-22-32 6-31 27 1 23 31-5 31-27zm18-28c17 0 27-42 17-47-11-4-27 33-17 47zm-7-285c-6 13 10 49 20 44 8-5-4-48-20-44zm41 157c15-4 9-49-1-49-11-1-10 41 1 49zm0 59c11-1 16-41 7-51-13 2-15 42-7 51zm-49 120c15-1 30-39 21-43-8-4-28 30-21 43zm40-65c10 0 20-38 13-47-7 2-10 13-12 21-2 7-5 20-1 26zm33-111l-3-10c-6 4-6 16-7 24 0 8-2 21 3 27 6-5 7-26 7-33l1 17c1-12 5-40 2-50l-3 25zm-31-130c5-9-8-42-19-44-7 9 9 38 13 42 4 3 3 2 6 2zm16 55c8-7-2-43-11-47-1 1-3-1-3 10 0 4 1 8 2 12 2 8 5 23 12 25zm-80 297c10 1 31-30 25-39-9 2-32 32-25 39zm64-87c0-7 3-9 1-16-10 4-23 33-20 44 9-1 14-21 19-28-1 4-4 11-3 15 5-7 21-37 17-45-7 9-9 20-14 30zm14-38c4-3 18-38 12-46-1-2-1-1-2-2-5 9-12 38-10 48zm-19-275c-3-4-3-7-8-9-2 8 8 26 13 35 2 3 3 7 7 8 1-7-3-15-6-22l4 7c-1-8-15-38-20-42l10 23zm29 87c2-10-6-40-13-45-3 7 4 27 7 36 3 7 2 8 6 9zm-43 270l1-9c-9 3-26 33-24 41 4-2 11-10 12-14 0 0 2-1 3-1 5-6 22-33 22-40-6 6-11 16-14 23zm-26 44l4-4c-2-2 0-2-3-2-3-1-1 0-1 1-8 4-13 13-19 19 1-5 2-3 1-9-10 4-30 25-30 36 10-3 15-12 23-18-2 4-3 2-3 7 10-6 20-20 28-30zm-657-404c-3 5-9 19-6 25 8-4 23-34 21-43-6 1-8 5-11 10 3-8 11-16 10-25-5 5-21 36-22 43l8-10zm302 23c-24 15-7 54 18 38 21-13 6-54-18-38zm-46-3c-22 17-7 54 18 37 20-14 6-55-18-37zm52-48c-19 14-8 50 16 36 20-13 6-52-16-36zm-40-2c-21 17-7 49 15 34 19-14 7-52-15-34zm-34-7c-24 13-18 49 5 38 22-11 18-51-5-38zm-129 27c-24 20-15 51 7 34 20-17 15-52-7-34zm-25-12c-23 17-22 51 1 34 18-13 21-51-1-34zm203-55c-19 15-11 45 9 32 18-12 12-48-9-32zm-31-3c-23 17-13 43 6 30 18-13 15-47-6-30zm-138 12c-23 14-28 47-5 32 18-11 30-47 5-32zm-53 32c-20 14-28 51-6 36 16-12 26-49 6-36zm113-64c-23 11-32 42-8 30 17-9 33-43 8-30zm-10-11c-15-2-42 27-33 33s40-21 33-33zm-135 100c11 1 31-29 26-40-13 2-33 30-26 40zm85-77c12 1 41-25 34-31-4-4-20 7-23 11-6 5-16 13-11 20zm75-21c11 2 41-21 33-30-11 0-38 18-33 30zm-127 53c11-4 36-26 31-37-11 2-22 14-28 24-4 5-5 6-3 13zm108-61c8 2 17-5 23-9 6-5 16-12 14-20-11 2-40 16-37 29zm-13-8c9 0 37-17 38-27-10-3-44 17-38 27zm68-38c5-5 17-8 19-15-8-1-17 5-25 8 5-5 15-6 20-12-5-3-14 2-20 3l17-8-6-2 5-3h-9l12-5c-4-2-3-1-8 0 13-5 21-11 36-15l-1-2c-9 4-22 7-32 9l-15 5c-8 3-7 5-14 7h-4c-13 5-39 17-47 24-5 6-6 3-8 9l11-4c-4 1-13 7-16 11h4c1 0 5-1 6-2 3-1 5-2 9-3-6 2-17 8-19 14h1c2 3 21-7 23-9 5-3 16-8 18-14l-14 3c5-4 10-5 14-9-1-1-1-1-4-1l-11 3c4 0 15-6 17-9 2-4-3 0 6-6 5-3 3-3 11-6v3l-7 6 10-2-14 7c4 2 15-1 18-3-5 2-16 5-16 11l20-5c-5 1-16 6-17 11 7 2 16-3 23-6-4 5-14 6-15 13 7 2 15-4 22-6-3 4-12 5-11 13 8 2 39-15 40-23-11 0-20 7-29 10zm-186 93c-5 7-19 24-19 32l9-9c-3 7-10 14-8 23 10-5 18-19 24-29 1-2 3-5 3-8 0-5 1 4 0-1l-1-2c-5 1-9 7-13 10 4-7 12-15 14-22-3 0-3 0-6 2l-1 1c-2 2-1 1-2 3zm141 251c-25 16-4 59 21 43 25-14 4-59-21-43zm-55 50c-21 14-1 58 23 44 22-13 0-60-23-44zm5-58c-22 18-1 59 22 42 21-15 1-60-22-42zm11-58c-22 15-9 58 17 42 22-13 8-58-17-42zm57-46c-23 17-6 54 18 38 23-15 8-58-18-38zm-114 95c-18 18 1 59 23 40 18-16-2-61-23-40zm-3 56c-20 16 1 60 21 44 19-14-2-59-21-44zm76-161c-24 14-13 57 12 41 22-13 13-55-12-41zm-57 45c-23 14-11 59 13 43 20-13 10-57-13-43zm-20 174c-18 14 8 56 26 42 16-12-8-56-26-42zm36-227c-24 20-10 55 12 38 21-16 9-56-12-38zm-68 98c-18 15-5 59 15 44 18-13 5-60-15-44zm-7 58c-17 13 0 58 18 46 17-12 0-60-18-46zm19-112c-20 20-5 56 14 39 20-18 5-59-14-39zm115-88c-24 17-14 52 9 38 22-13 15-54-9-38zm-95 34c-22 19-10 54 10 37s11-56-10-37zm-18 269c17-14-4-53-19-46-15 6-3 51 19 46zm-45-176c-18 11-9 58 8 47 16-10 10-58-8-47zm14-55c-17 14-14 57 6 43 18-13 13-57-6-43zm-24 115c-12 14 2 60 17 44 12-13-2-61-17-44zm131 199c-12 14 20 45 33 31 12-13-20-45-33-31zm-84-367c-21 12-21 55 1 40 17-11 20-53-1-40zm-46 225c-11 11 8 56 20 44 11-11-8-57-20-44zm90 131c-12 11 19 47 31 34 10-11-20-45-31-34zm-90-318c-16 12-16 56 0 44 15-11 16-56 0-44zm-17 55c-12 13-9 57 5 46 14-9 9-59-5-46zm39-106c-16 14-21 54-2 39 17-13 20-56 2-39zm123 436c10 20 44 25 31 2-11-20-43-25-31-2zm-166-275c-15 5-8 51 3 51 12 1 11-42-3-51zm29 133c-8 12 17 53 25 39 7-11-17-53-25-39zm45 62c-6 17 20 45 29 37 9-6-12-42-29-37zm-100-177l2-16c1 9-1 27 7 33 9-5 7-44-1-50-6 2-3 8-6 14-1-10 0-20-2-31-5 6-5 47 0 50zm156 248c11 18 42 28 28 3-12-21-43-28-28-3zm-134-205c-7 8 5 55 16 45 8-7-6-57-16-45zm76 159c2-11-15-41-27-39-6 11 15 46 27 39zm22 22c-5 10 27 39 32 31 5-9-26-42-32-31zm-78-376c11-3 27-35 20-44-12 0-29 35-20 44zm167 434c0 15 28 30 33 22 4-8-20-32-33-22zm-33-10c-2 11 23 32 33 26-1-12-23-32-33-26zm27 45l7 1-4-6c8 4 20 16 29 12-3-8-25-24-33-20 1 5 2 4 4 8-8-5-21-18-30-17 2 5 3 5 6 8-4-3-22-17-27-17-7 0 4 1-3 0 9 9 24 18 35 24 4-2-1-4 15 6l-10-3c3 4 6 6 10 8 3-3 5 3 1-4zm-24-27c-3-11-23-31-34-28 3 10 24 31 34 28zm52 21c3 10 24 24 32 19 0-10-21-22-32-19zm-105-50c7 5 20 21 27 19-4-9-23-30-33-29l6 10c-6-5-19-22-26-23 4 8 24 29 32 31l-6-8zm133 78l-25-11s-4 1 1 4l-19-10c-7-3-4 0-5 0 1 3 26 14 28 15 5 1 7 0 11 3 1 3 1 3 6 3 2 3-2 2 4 3 1 0 5 1 6 1 2 0 5 1 8 2 2 3-2 2 4 3 3 1 3 1 7 0 6 3 55 12 63 11-2-2-15-10-22-4-5-3-12-3-17-5l1-4c-5-7-18-13-27-10 3 10 18 11 26 14-10 4-20-7-24-2-2-4 0-3-2-3l4-1c-5-7-22-16-31-13l3 4zm-246-476c-1 1-3-2-1 3v1c5 7-6-4 2 2-2 4-3 12-2 17 9-4 18-37 16-47l-5 5 3-16c2-2 3 3 2-3l-2 3c-5 5-10 27-13 35zm421-236l6 6-6-6zm-55 436c-26 18 0 59 28 40 25-18 0-60-28-40zm58-59c-25 19 1 60 28 39 25-18-1-60-28-39zm0 59c-26 19-1 59 28 39 25-18-1-59-28-39zm-57-59c-26 19 1 59 28 40 24-18-1-60-28-40zm-58 56c-25 18 0 59 27 42 25-17 0-61-27-42zm173 0c-24 17-6 59 24 40 28-16 5-60-24-40zm-173-58c-23 20 4 59 30 39 24-18-4-60-30-39zm174-2c-27 17-5 59 24 42 25-16 4-60-24-42zm-152-395l11 6 1 3 78 1c2 0 1 1 3 0 6-4 1-1 4-4l2 1h1v-1l1-2c0-2-1-1 2-4l-3-4c-3-2-2-2-7-3l-43-8-39 5h-1l-1 1-3 2c-2-3-6 2-8 4 0 1 2 2 2 3zm-78 450c-24 18 2 60 28 42 23-16-3-60-28-42zm3-58c-25 18 2 60 28 40 21-18-2-59-28-40zm167-51c-23 17 1 58 28 38 23-17-2-59-28-38zm-55 0c-24 19 3 57 27 39 25-18-1-59-27-39zm174 107c-29 18-11 60 18 43 26-15 11-60-18-43zm-4-58c-24 17-4 60 23 41 25-16 5-60-23-41zm-59-53c-24 18 0 59 26 40 24-16-1-59-26-40zm-163 0c-25 17-3 59 23 42 25-16 3-60-23-42zm48 180c-25 19 3 54 29 35 25-18-5-55-29-35zm58 0c-26 19 1 54 28 35 24-19-2-55-28-35zm-158-184c-27 19-4 57 21 42 26-16 3-60-21-42zm-64 111c-23 17 3 59 27 41 21-16-3-59-27-41zm108 69c-24 15-1 53 27 39 26-14-1-56-27-39zm208 15c-2-31-49-22-48 8 2 30 49 19 48-8zm16-196c-22 16-1 58 24 41 24-15 2-59-24-41zm-162-48c-23 18 2 57 27 37 21-17-3-57-27-37zm-118 225c-22 16 3 53 28 38 24-14-4-56-28-38zm169-226c-22 20 4 56 27 39s-4-59-27-39zm52-3c-22 17 2 58 27 39 21-16-4-57-27-39zm-258 46c-26 15-9 57 17 43 24-13 9-59-17-43zm106-45c-25 17-4 56 22 39 23-15 3-57-22-39zm249 239c-2-30-49-15-45 14 4 28 46 14 45-14zm22-139c-25 18-7 59 17 44 24-16 6-59-17-44zm-319-106c-25 16-9 56 17 42 25-13 8-57-17-42zm322 165c-25 16-13 58 13 44 25-14 13-60-13-44zm-71-165c-23 16 2 56 25 40 21-14-2-57-25-40zm-325 227c-21 18 9 54 29 38 21-15-9-55-29-38zm384-178c-22 17 0 58 22 42 21-16-1-59-22-42zm-290-331l-14 6c1 3-2-2 1 1 4 3 2-3 1 0l-9 7c3 3 2 0 2 3 0 2-3 0-1 3l11-2c-4 1-8 3-10 6l8-1 7-1-5 3-5 3c6 3 12-1 19-3-8 5-10 3-11 8 5 1 16-3 21-6-5 4-9 4-12 10 8 2 15-6 24-8-5 2-11 6-12 11 6 2 11-3 17-6-3 6-5 3-4 10 9-2 11-4 17-9-3 6-5 5-3 12 10-3 10-7 17-12-2 6-5 6-2 14 10-3 17-14 15-24-8 3-7 5-13 10 2-5 4-6 4-11-8 2-9 5-15 9 2-3 6-5 7-10-4-1-7 2-13 4 3-3 5-2 6-6-9 1-13 4-19 7l12-8c-2-2-8 0-13 2l7-5-10 1 5-3c0-1-1-2-2-2-3-2-1-2-7-1 6-5 7-3 2-3h-8l5-2h-5c4-3 2-3 7-1 8-3 18-14 44-14 6 0 3-1 7-1 11 0 7 0 8-2-6-2-31 0-39 1-12 1-33 7-40 6-1 2 4 0-2 2l3 2h-3zm15 27c1 0 2-1 3-1-2 1-2 1-3 1zm49 577c13 22 56 3 39-22-14-21-55-4-39 22zm54 0c13 21 54 2 42-22-12-23-56-3-42 22zm-110-8c10 26 53 16 42-11-10-26-53-15-42 11zm209-10c0-27-48-18-46 8 2 29 45 17 46-8zm-90-352c-22 17-1 54 22 40 23-15-1-56-22-40zm-45 0c-23 14-8 53 18 40 23-12 4-54-18-40zm-223 264c-21 13 2 55 25 43 20-11-4-55-25-43zm100 73c-18 15 12 49 33 32 19-16-12-51-33-32zm215-339c-21 14 0 54 23 39 21-13-2-54-23-39zm151 287c0-29-41-16-41 13 1 29 41 17 41-13zm-49-243c-18 17 5 55 26 39 18-14-6-57-26-39zm-7 301c-3-27-45-8-44 14 1 28 46 12 44-14zm-52-348c-17 17 9 54 29 37 17-15-10-55-29-37zm129 148c-22 12-11 59 11 47 21-12 11-58-11-47zm-437 186c-19 14 12 49 31 35s-11-51-31-35zm425-242c-20 16 0 59 20 43 17-14-1-58-20-43zm-388-96c-24 18-7 53 16 36 20-15 9-55-16-36zm117 423c14 19 52 4 38-19-12-19-53-3-38 19zm196-426c-14 15 10 53 28 38 16-14-12-55-28-38zm-398 332c-16 13 14 51 32 36 15-13-14-51-32-36zm295 80c-2-23-46-15-44 7 3 25 46 17 44-7zm160-367c-14 14 8 57 26 39 14-14-8-56-26-39zm-304 377c12 21 50 9 38-14-12-21-52-11-38 14zm304-75c-2-27-40-6-40 16 0 29 41 8 40-16zm-109 64c3-25-44-17-43 7 1 23 41 15 43-7zm159-127c-2-30-37-4-35 20 4 29 38 6 35-20zm-244-322c-18 16 3 50 23 35 17-14-5-52-23-35zm-42 1c-18 17 1 49 21 34 19-14-1-53-21-34zm82-3c-16 17 8 50 26 35 17-15-10-52-26-35zm-201 454c10 23 50 18 38-8-11-22-49-17-38 8zm-88-428c-24 13-21 53 5 38 21-12 19-52-5-38zm384 417c-1-24-42-8-42 12 0 25 43 8 42-12zm114-315c-16 16 1 57 18 44 14-12-2-59-18-44zm-455 322c14 22 47 15 33-10-14-23-49-16-33 10zm-96-90c-16 11 11 51 27 39 15-10-12-50-27-39zm420-371c-15 14 13 51 27 37 14-13-14-49-27-37zm112 86c-13 14 9 55 24 39 11-11-10-56-24-39zm-423-88c-23 17-15 48 7 34 21-14 17-52-7-34zm427 391c2-26-34-7-35 18s32 7 35-18zm-55 55c1-22-41-1-39 19 3 20 38 2 39-19zm-190 72c11 16 48-1 35-19-10-14-49 1-35 19zm-48-2c10 17 47 6 35-14-9-17-48-6-35 14zm-165-524c-25 18-20 48 3 33 21-13 21-49-3-33zm117 519c9 18 46 14 36-8-8-19-47-13-36 8zm-235-150c-11 12 16 53 28 39 10-11-15-52-28-39zm416 142c2-21-40-11-41 7 0 23 39 10 41-7zm-113-536c-15 12-4 47 16 33 16-11 2-47-16-33zm36-2c-17 12-2 46 16 36 18-9-1-46-16-36zm32 1c-13 12 7 45 23 33 15-11-9-48-23-33zm121 30c-12 12 16 50 28 36 12-13-17-48-28-36zm-222-30c-19 13-8 46 12 33 16-11 7-47-12-33zm-80 541c11 18 45 15 35-6-10-20-48-17-35 6zm214-545c-11 14 12 45 27 33 13-11-15-47-27-33zm218 166c-14 11 0 56 14 45 13-9-1-55-14-45zm-532-145c-24 17-23 47 0 33 21-13 24-48 0-33zm371 515c6-21-37-9-39 9-3 20 34 10 39-9zm139-423c-11 13 9 54 22 42 11-11-10-54-22-42zm-453 426c12 18 45 18 32-5-12-20-46-19-32 5zm289-545c-11 10 12 45 27 35 14-9-15-45-27-35zm-259-2c-23 13-23 45 0 32 18-11 22-44 0-32zm383 483c2-23-34 1-35 20-3 22 32-1 35-20zm-411-488c-25 16-24 43-1 29 18-12 25-45 1-29zm-97-39l6-1c-5 3-10 7-11 13l13-7c-4 5-13 10-12 17 9-1 35-20 37-29-5-2-10 2-15 4 5-3 12-8 15-14-5-1-6 2-11 4 4-2 9-6 13-10s0-1 4-5c2-2 6-4 7-6-8 3-41 27-46 34zm409 42c-7 8 21 45 32 32 8-10-22-44-32-32zm42 536c2-20-37 0-38 17 0 18 36-2 38-17zm-177 62c9 11 42-2 31-16-8-12-44 0-31 16zm317-434c-8 7 3 54 15 44 9-7-3-56-15-44zm-360 432c8 13 42 5 32-12-8-13-43-5-32 12zm-276-588l12-9c-3 6-14 14-11 20 9 0 33-25 32-35-8 3-9 5-15 10 4-7 13-13 15-20l-6 1 12-12c-8 4-21 18-29 26l-3 3c-3 5-1 3-1 3-1 6-5 5-6 13zm234 584c8 14 41 11 32-7-8-15-42-11-32 7zm119-622c-14 8 3 41 18 32 14-8-7-39-18-32zm-29 3c-11 12 4 41 18 29 12-10-6-42-18-29zm35 622c5 13 40 0 35-14s-41 0-35 14zm-54-625c-21 6-14 36-1 35 8 0 13-8 13-16-1-11-4-14-12-19zm-35 3c-14 13-7 40 10 28 14-9 7-43-10-28zm107-5c-10 9 14 41 26 31 10-9-16-40-26-31zm-185 617c7 16 42 18 33-1-8-15-40-16-33 1zm364-81c16-2 37-34 27-39-9-4-36 26-27 39zm-312-533c-17 15-11 40 7 27 15-11 11-42-7-27zm232 22c1 14 25 42 34 32 6-7-20-41-34-32zm-453 52c13-1 36-26 30-38-13-1-40 26-30 38zm413 532c0-15-37 0-37 13 0 16 37 1 37-13zm95-50c5-19-33 3-35 19-2 20 33-9 35-19zm-311-559c-18 13-19 38 1 27 16-9 19-42-1-27zm323 587c6-4 25-21 28-27l-17 13c-1-2 0-1-1-2-11 6-16 14-25 20 3-5 6-5 4-10-9 1-32 18-33 27h1s0 1 1 1l2-1c5-1 16-10 21-14l-3 6c8-1 11-6 17-10 3 1 4 1 5-3zm-390 22c7 16 39 23 33 6-6-16-40-23-33-6zm247-611c-4 10 24 42 31 27 5-11-25-39-31-27zm-203-2c-20 12-24 39-3 26 17-10 25-40 3-26zm235-36l6 3c-4 0-3 1-6-3l-4-2 4 2zm0 0l-4-2 4 2zm-257 31c-7 4-13 10-18 17-6 11 3 14 13 8 17-10 30-40 5-25zm-214 497l-4-11c6 7 11 25 22 26 0-9-15-43-26-41l3 13c-5-7-10-24-18-28 1 7 17 39 23 41zm-32-273c13-2 20-37 14-47-13 1-20 37-14 47zm526-193c0-14-22-35-34-30 2 14 19 35 34 30zm-16 601c11 3 38-12 33-25-11-5-40 13-33 25zm145-83l-4 4 4-4zm-666-268c13-4 12-40 8-50-8 2-10 13-11 21-1 10-2 20 3 29zm39 183c6-9-8-45-19-45-6 9 9 45 19 45zm-45-86c2-5 1-6 0-11 4 9 3 22 10 29 6-4 3-17 2-24-2-7-4-21-10-25-4 4-2 13-1 18-4-9-3-23-7-34-2 8 4 38 6 47zm618 207c11-1 35-23 31-34-11-2-38 24-31 34zm-91-589c1 10 30 38 35 28 4-7-24-33-35-28zm-163 664c6 10 35 6 29-7-6-11-37-6-29 7zm36 1c4 10 35 2 29-10-5-9-35-1-29 10zm360-367c9-8 3-42-3-51-6 4-5 16-4 24 0 8 1 20 7 27zm-431 364c6 10 35 9 27-5-6-10-37-10-27 5zm231-32c10-1 35-16 33-27-10-4-39 16-33 27zm-18-636c-1 4 2 7 5 10 4 3 6 6 10 9 5 4 16 13 22 8 0-9-30-32-37-27zm-407 42c10 0 38-21 36-31-9-1-41 22-36 31zm308-59c-7 8 17 37 24 27 6-9-19-32-24-27zm-28 32c18-5 2-30-5-30-6 0-7 10-6 15 2 9 4 12 11 15zm9-30c-3 13 10 36 20 27 7-5-6-30-20-27zm-32 0c-15 4-10 30-1 30 13 1 13-22 1-30zm-99 677c5 10 34 16 29 2-5-12-36-17-29-2zm172-6c-10-3-33 4-30 14 3 11 27 0 32-8l-2-6zm-90-672c-17 5-18 30-8 30 13 1 16-20 8-30zm-257 593c-2-11-26-44-31-34-2 4 9 17 12 21 5 6 11 14 19 13zm240-594c-13 1-25 24-16 29 9 4 24-17 16-29zm111 686c7 8 34-5 33-15-8-7-33 4-33 15zm-149-660c12 1 27-18 21-28-11 2-30 17-21 28zm168-2c2-10-21-30-30-25 2 10 19 31 30 25zm-189-1c10 0 30-17 26-28-10 2-33 17-26 28zm-41 644c1 13 27 24 31 16 3-7-19-23-31-16zm23-649c9 0 32-16 30-26-8 1-39 16-30 26zm145 689c-4 1-7 1-10 2-6 2-7 4-7 3l-1 1c10 1 55-6 65-11-4-1-12 3-19 4h-1-1c6-6 24-4 26-14-7-3-23 4-27 7-5 5-2 1-2 4l1 2c-5 1-8 2-13 3-7 2-6 1-11-1 7-2 22-3 23-12-7-4-23 2-27 8 2 4-1 2 4 4zm-246-684c9 0 39-17 40-25-8-2-42 15-40 25zm326-3c1-10-24-28-33-25 2 9 24 29 33 25zm-244-7c9 0 15-4 22-9 5-3 16-10 13-16-9 1-36 14-35 25zm241 678c3-3 4 0 1-5-9 1-25 7-30 14 7 1 12-3 19-4 3-1 4 0 10-2 10-3 39-12 46-18-6-2-11 5-19 6-17 2-11 3-27 9zm-1-7c9 1 34-10 32-21-9 0-35 9-32 21zm-426-119c3 4 13 16 18 17-2-10-18-34-28-37v6l-14-20c1 6 8 15 12 20l11 14c3 3-1 1 1 0zm-50-89c4-8-9-39-15-46-4 6 0 15 3 23 2 7 6 19 12 23zm-30-184c7-6 11-43 9-48-4-6-3 5-4-5-2 14-9 37-5 53zm364 412c0-11-18-12-25-6 1 7 9 9 16 9h-2c0 1-1 1-2 1l-1 1-1 1v1c4 3 13 4 18 2-5-5-6-4-11-6l8-3zm217-42l30-20c-2-1 2-2-4 0l-19 12c2-2 3-2 3-5-9 2-32 16-35 23 9-2 12-6 19-9 4 2 4 2 6-1zm-48 17c9-2 31-12 34-21-2-1-1-1-3-1-6 0-31 13-31 22zm-164 21c-1 11 19 10 24 2-3-9-17-8-24-2zm28 3c4 5 5 5 12 4 6 0 10-2 14-6-2-11-22-5-26 2zm-61 0c-3-10-17-14-26-9 3 8 18 14 26 9zm57-729c-5 4-6 26 4 23 8-3 2-28-4-23zm10-1c-4 7 2 26 10 24 5-2 2-10 0-14-2-5-5-9-10-10zm-25 23c11 0 12-15 8-24-7 4-14 16-8 24zm395 308c2-7-1-43-6-48-1 1-1 0-1 2-1 5 2 42 7 46zm-403 408c4 3 14 4 18 0-4-5-13-4-18 0zm21 1c1 0-1 1 5 1 4 0 12 0 15-3-5-5-15-2-20 2zm263-668l-3-5 3 5zm-572 35l4-4-4 4zm576-32l-3-4 3 4zm14 532l4-4-4 4zm-66 114l19 95c24 101-87 147-209 402 3 31-5 47-26 48 3 0 4-2 4-4v-397c16-3 28-14 28-28 0-16-16-29-37-29s-37 13-37 29c0 14 12 25 28 28v397c0 2 1 4 4 4-21-1-29-17-26-48-122-255-232-301-209-402l19-95c38 42 164 71 221 73 57-2 184-31 221-73zm-221 546h-1 2-1zm-3 0h2-2zm6 0h-2 2zm-761-1004l31 36c15 22 90 44 127 52 49 10 105 20 156 24v-6c-1-21-1-41 1-62-56-3-108-9-162-18-58-10-103-23-152-31-1 2-1 0-1 5zm321 166l-2-10h1c-1-2-1-4-1-6-2-9-3-19-4-29-25-2-48-4-63-6-58-6-95-17-148-32l5 19c15 21 17 28 38 41 18 12 32 17 54 25 32 12 93 29 128 33-3-12-6-24-8-35zm-372-339c-7-4-11-2-20-4-32-8-112-30-130-33 1 33 35 56 59 69 21 12 70 30 96 35 37 16 234 50 281 55l-28-23c-15-15-40-52-48-54l-210-45zm18 87l-9-2c-3-1-5-1-9-1-16-4-37-11-54-13 11 34 51 57 88 72 22 6 48 17 74 23 52 13 113 22 167 29 24 4 69 11 91 10l4-18c1-8 2-15 4-22-15-5-27-6-42-12-10-5-28-16-39-17-75-9-111-12-188-29-27-6-62-11-87-20zm1609-136c-23 3-51 11-75 16l-148 32c-12 2-9 0-15 8l-77 80c-13 11-36 26-57 33-4 1-8 2-13 3-6-26-15-52-26-78 12-12 23-27 35-37 13-11 21-25 33-37l18-18c13-14 21-29 39-31 53-5 104-10 157-19 38-7 83-17 120-22 9-4 44-9 58-13 20-4 40-9 60-14 21-5 99-23 112-32 6 5 3-6 6 7 2 14 2 18-2 32-5 31-66 49-99 59-20 6-41 11-62 16-20 5-45 9-64 15zm-60 190l-30 37c-16 21-90 44-128 51-49 10-105 21-156 25v-6c1-21 1-42-1-62 56-3 108-9 163-19 57-9 102-22 151-31 1 3 1 1 1 5zm-321 166l2-9v-6c2-10 3-19 4-29 25-2 48-4 63-6 58-7 95-17 148-32l-5 19c-15 21-17 28-38 41-18 11-32 17-54 25-31 11-93 28-127 33 3-12 5-24 7-36zm373-338c6-4 10-3 19-5 33-7 112-30 130-32-1 33-34 56-58 69-22 12-70 30-97 35-37 16-234 50-281 55l28-24c15-14 40-51 48-54l211-44zm-19 87l10-3c2 0 4 0 8-1 16-3 37-10 54-12-11 34-51 57-88 72-22 6-48 16-74 23-52 13-113 22-167 29-24 3-68 10-91 10l-3-19c-2-7-3-14-4-21 14-5 26-7 41-13 10-4 29-16 39-17 76-8 111-11 188-28 27-6 62-12 87-20zm-519-130l145-84h1l30-16c-21-13-439-171-448-170-8-1-427 157-448 170l30 16h1l145 84c77-61 171-97 272-97s195 36 272 97z"/>
        <path fill-rule="nonzero" d="M732 4747c44 0 63 24 63 58 0 33-19 57-67 57H615v-115h117zm2095 358v-315h115v-66h-310v66h115v315h80zm209 0v-282h-74v282h74zm0-316v-70h-74v70h74zm166 263c-38 0-64-35-64-86 0-58 21-87 64-87 42 0 63 30 63 92 0 47-28 81-63 81zm134 53v-386h-74v140c-21-30-49-44-84-44-73 0-116 60-116 146 0 95 51 152 123 152 34 0 60-14 78-42l1 34h72zm100-169c3-39 28-62 58-62 29 0 57 20 58 62h-116zm193 47c0-112-46-168-133-168s-137 56-137 144c0 102 47 154 142 154 60 0 106-33 124-91h-77c-5 19-27 32-51 32-37 0-61-28-63-71h195zM867 5104v-122c0-51-14-72-52-84 41-15 64-54 64-101 0-71-53-124-133-124H527v431h88v-169h96c52 0 68 16 68 58v111h88zm115-191c3-44 31-70 65-70 33 0 64 23 65 70H982zm218 53c0-126-52-190-151-190-98 0-154 64-154 162 0 116 53 175 160 175 68 0 121-37 140-103h-87c-6 22-30 36-57 36-42 0-69-31-72-80h221zm193 138l115-320h-89l-67 212-67-212h-95l115 320h88zm195-191c3-44 31-70 65-70 33 0 64 23 65 70h-130zm217 53c0-126-52-190-150-190s-154 64-154 162c0 116 53 175 159 175 69 0 121-37 141-103h-87c-6 22-30 36-57 36-42 0-69-31-72-80h220zm111 138v-166c0-52 25-78 77-78 8 0 16 1 24 2v-86h-11c-35 0-67 4-95 47v-39h-80v320h85zm386-223c-4-65-44-105-136-105-100 0-137 42-137 90 0 54 23 86 147 113 34 8 51 16 51 39 0 21-26 31-58 31-38 0-65-18-65-47h-87c2 67 61 111 152 111 93 0 142-43 142-100 0-75-36-80-148-111-34-9-52-18-52-36 0-20 18-27 53-27 36 0 53 13 57 42h81zm110 32c3-44 31-70 65-70 33 0 64 23 66 70h-131zm218 53c0-126-52-190-150-190-99 0-155 64-155 162 0 116 53 175 160 175 68 0 121-37 140-103h-87c-6 22-30 36-57 36-42 0-69-31-72-80h221z"/>
      </g>
      <path d="M7709 4222c42 0 58 22 58 54 0 31-16 53-61 53h-105v-107h108zm126 332v-114c0-47-13-67-49-78 39-14 60-50 60-93 0-67-49-116-123-116h-204v401h82v-157h89c48 0 63 15 63 53v104h82zm106-178c3-41 29-65 61-65 31 0 60 21 61 65h-122zm203 50c0-118-49-177-140-177s-144 59-144 151c0 107 50 162 149 162 63 0 112-35 130-96h-80c-6 21-28 33-54 33-38 0-64-29-66-73h205zm180 128l107-297h-83l-63 196-62-196h-88l107 297h82zm180-178c3-41 29-65 61-65 30 0 59 21 61 65h-122zm203 50c0-118-49-177-140-177s-144 59-144 151c0 107 50 162 149 162 63 0 112-35 130-96h-81c-5 21-27 33-53 33-38 0-64-29-66-73h205zm102 128v-155c0-48 24-72 72-72 7 0 15 1 22 2v-80h-10c-33 0-63 3-89 43v-35h-73v297h78zm359-207c-4-61-41-98-126-98-93 0-128 39-128 84 0 50 21 79 137 105 32 7 47 14 47 36 0 19-24 28-54 28-35 0-60-16-60-44h-81c2 63 57 104 142 104 86 0 131-40 131-93 0-69-33-75-137-103-32-9-49-17-49-33 0-19 17-26 49-26 34 0 50 12 53 40h76zm102 29c3-41 29-65 60-65s60 21 61 65h-121zm202 50c0-118-48-177-139-177s-144 59-144 151c0 107 50 162 149 162 63 0 112-35 130-96h-81c-5 21-28 33-53 33-39 0-64-29-66-73h204z" class="fil2"/>
      <path d="M7722 5037v-327h120v-69h-323v69h120v327h83zm217 0v-293h-77v293h77zm0-329v-72h-77v72h77zm172 274c-38 0-66-37-66-89 0-61 22-91 67-91 43 0 65 32 65 95 0 50-29 85-66 85zm139 55v-401h-76v146c-22-31-51-46-87-46-76 0-121 62-121 151 0 99 53 158 127 158 36 0 64-14 82-44l1 36h74zm105-175c3-41 28-65 60-65 30 0 59 21 60 65h-120zm200 49c0-117-48-175-138-175s-142 58-142 149c0 106 49 160 147 160 62 0 111-34 129-94h-80c-6 20-28 32-53 32-38 0-63-28-66-72h203z" class="fil3"/>
      <path d="M6013 3622c27 4 61 13 88 19l178 38c14 2 10 0 17 9l92 96c15 13 43 30 68 39 4 1 9 3 15 4 7-32 18-63 31-93-14-14-27-33-41-45-16-13-25-29-40-43l-22-22c-15-17-24-34-45-36-64-6-124-13-187-24-46-7-100-20-143-25-12-5-53-12-70-16-24-5-48-11-71-17-26-6-118-28-134-38-8 6-4-7-7 9s-2 20 2 37c7 38 79 59 119 71 24 7 49 13 73 19s54 11 77 18zm71 227l36 43c18 26 107 53 152 62 58 11 125 24 186 29v-7c-1-25-1-50 1-74-66-4-129-11-193-22-69-12-123-27-181-37-1 2-2 0-1 6zm382 197l-2-11h1c-1-2-1-4-1-7-2-11-3-23-4-35-30-2-58-4-75-7-70-7-114-20-177-38l6 22c18 26 20 34 45 50 21 13 39 20 65 30 37 13 110 33 151 39-3-15-6-29-9-43zm-443-403c-8-5-13-3-23-6-39-8-135-35-156-38 2 39 41 67 70 82 26 15 83 36 115 42 44 19 279 60 335 66l-34-29c-17-17-48-61-57-64l-250-53zm21 104l-11-3c-3-1-6-1-10-1-19-4-44-13-64-16 13 41 60 68 104 87 26 6 58 19 88 27 63 16 135 26 200 35 29 3 81 12 109 11l3-22c2-8 3-17 5-26-17-5-32-7-49-14-13-6-34-19-46-21-91-9-133-13-224-33-33-8-74-14-105-24zm1918-162c-28 4-61 13-89 19l-177 37c-14 3-10 1-17 10l-92 95c-16 13-44 31-68 39-5 2-10 3-16 4-7-31-17-62-30-92 14-15 26-33 41-45 16-13 24-30 39-43l22-22c15-17 24-34 46-37 63-6 124-13 187-23 45-8 99-21 143-26 11-5 53-11 70-15 23-5 47-11 70-17 26-6 119-28 135-38 7 5 3-7 7 9 2 16 2 20-3 37-6 37-78 59-118 71-24 7-49 12-74 19-24 6-54 10-76 18zm-72 226l-36 44c-18 26-107 52-151 61-59 12-126 24-187 29v-7c1-25 1-49-1-74 66-4 129-11 194-22 68-11 122-26 180-37 2 3 2 1 1 6zm-382 198l3-11h-1c0-2 0-5 1-7 1-12 3-23 4-35 29-2 57-5 75-7 69-8 114-21 176-38l-5 22c-18 26-20 34-45 49-22 14-39 21-65 30-38 14-111 34-152 39 4-14 6-28 9-42zm444-404c8-4 12-2 23-5 39-8 134-35 155-38-1 39-41 66-70 82-25 14-83 36-115 42-43 18-279 59-334 65l33-28c18-17 48-61 57-64l251-54zm-22 105l11-3c3-1 6-1 10-2 20-4 44-12 64-15-13 41-60 68-104 86-26 7-58 20-88 27-63 16-135 27-199 35-29 4-82 13-109 12l-4-22c-1-9-3-17-5-26 17-6 32-8 49-15 13-5 35-19 47-20 90-10 133-13 224-34 32-7 74-14 104-23zm-943-217c128 0 243 52 327 135 83 84 135 199 135 327 0 127-52 243-135 326-84 84-199 136-327 136-127 0-243-52-326-136-84-83-136-199-136-326 0-128 52-243 136-327 83-83 199-135 326-135zm307 155c-79-79-187-127-307-127s-228 48-307 127c-78 78-127 187-127 307s49 228 127 307c79 78 187 127 307 127s228-49 307-127c78-79 127-187 127-307s-49-229-127-307z" class="fil6"/>
      <path d="M7250 4395l23 113c28 121-104 175-249 479 4 37-6 56-31 58 3-1 5-3 5-5v-474c19-3 34-17 34-33 0-19-20-34-45-34-24 0-44 15-44 34 0 16 14 30 33 33v474c0 2 2 4 5 5-25-2-35-21-30-58-146-304-278-358-250-479l23-113c44 50 196 84 263 86 68-2 219-36 263-86zm61-841l174-99v-1l36-18c-25-16-524-204-534-204s-508 188-534 204l36 18v1h1l173 99c92-72 204-114 324-114 121 0 232 42 324 114zm-206 40c112 13 136 59 196 148h-101c-22-53-54-102-95-148 0 0 23 3 0 0zm229 206c17 39 28 81 31 124h-121c-3-41-10-83-22-124h112zm32 183c-4 45-15 87-32 126h-110c11-41 18-83 20-126h122zm-65 185c-23 34-94 79-157 115 33-43 41-66 60-115h97zm-344 151c-60-37-102-90-130-151h130v151zm-151-210c-12-40-18-83-19-126h170v126h-151zm-18-185c4-42 12-84 24-124h145v124h-169zm46-182c29-65 71-118 123-151v151h-123zm181-151c52 33 94 86 123 151h-123v-151zm145 209c13 40 20 82 24 124h-169v-124h145zm25 183c-1 43-7 86-19 126h-151v-126h170zm-40 185c-28 61-70 114-130 151v-151h130zm-300 139c-70-28-130-77-172-139h95c19 49 45 96 77 139zm-204-198c-18-39-29-81-32-126h119c2 43 9 85 20 126h-107zm-32-185c3-43 14-85 32-124h109c-12 41-19 83-22 124h-119zm64-182c46-68 114-120 194-147-41 45-73 95-95 147h-99zm314 1303h-1 3-2zm-3 0h2-2zm6 0h-1 1z" class="fil1"/>
      <g>
        <path d="M13076 937l-12-12c-9-13-59-52-76-63-105-69-213-13-313 45-49 29-258 176-310 218l-17 21c81-17 116-34 210-32 106 2 100 27 173 63 167 83 213-25 347-59 236-60 269 151 572 27 39-16 123-67 135-91-73-30-103-11-178-64-183-128-241 2-360 18-65 8-136-45-171-71zm-75-525h37l21-412h-78l20 412zm-384-285c13 26 181 311 204 336 17-2 13-3 30-11-10-33-99-215-126-276l-46-91c-7 9-18 15-29 21l-33 21zm-269 275l163 102c27 19 145 96 172 102l13-24-311-241c-16 19-26 39-37 61zm-121 364c49 6 353 30 385 25l1-31-385-69-1 75zm1507 23l-91-45 25-31c-114-205-131-269-346-412-50-34-26-22-64-8l-98-293c32 11 535 295 542 303 8 8 227 548 234 580l-39-19h-2l-1-1h-1l-1-1h-1l-1-1h-1l-1-1h-2l-152-71zm-126-84l-121 108c-3-11-7-21-11-32-11-51-35-108-46-129-54-97-102-135-183-188-21-14-45-26-70-34l110-96c72 44 133 85 193 154 46 51 120 158 128 217z" class="fil6"/>
        <path d="M12394 1300c81-3 135-15 218 5 73 18 113 44 173 61 184 52 219-62 354-82 68-10 129 28 178 53 89 43 195 52 293 17 37-13 38-25 59-55 24-33 75-97 90-134-20 1-117 65-150 79-93 39-191 40-279-13-210-125-327-1-439 32-85 25-113 1-184-27-59-22-98-52-170-58-59-6-149 13-185 42 12 28 32 54 42 80zm166-948c24 17 68 65 92 89l91 88 20-18c-8-22-59-81-77-104l-78-103c-15 12-38 31-48 48zm269-174l74 247 37-3c0-27-25-126-32-159-31-141 6-91-79-85zm-435 449c60 4 205 67 248 63l5-29-231-95c-3 4-3 3-6 11l-16 50zm742-134c102 12 124 53 179 134h-92c-20-48-49-93-87-134 0 0 21 3 0 0zm-477 351c15-6 14-8 29-14 11-5 17-7 29-12 22-10 36-17 59-25h1-91c3-40 13-78 29-113h99c-10 35-17 71-19 107 17-5 36-9 56-12 3-33 10-65 19-95h132v109c26 14 45 35 66 57h141c0 30-4 60-10 89 18 6 34 7 50 5 8-31 12-62 14-94h110c-1 15-3 29-6 43 10-6 46-28 49-32 27-35-21-157-39-189-48-87-90-121-163-169-131-86-366-53-472 99l-42 62c-6 8-3 3-7 14-17 47-35 116-34 170zm685-164c16 35 26 73 29 113h-111c-2-38-8-76-19-113h101zm-454-53c27-59 65-108 112-137v137h-112zm165-137c47 29 85 78 112 137h-112V490zm132 190c11 36 18 74 21 113h-153V680h132zm-443-53c42-62 104-109 176-134-37 42-66 87-86 134h-90z" class="fil1"/>
        <path d="M13076 956l-12-13z" class="fil7"/>
        <g>
          <path d="M11646 1503c47 0 67 26 67 62 0 35-20 61-71 61h-120v-123h124zm145 380v-130c0-54-16-77-57-90 45-16 69-57 69-107 0-76-56-133-141-133h-234v460h94v-180h102c56 0 72 18 72 62v118h95zm121-203c4-47 34-75 70-75 35 0 68 24 70 75h-140zm233 57c0-136-56-203-160-203-105 0-165 67-165 173 0 123 56 185 170 185 73 0 129-39 150-109h-93c-6 24-32 38-61 38-44 0-74-33-76-84h235zm206 146l123-340h-95l-72 225-72-225h-100l122 340h94zm207-203c4-47 34-75 70-75 35 0 68 24 70 75h-140zm232 57c0-136-55-203-160-203-104 0-165 67-165 173 0 123 57 185 171 185 73 0 129-39 150-109h-93c-7 24-32 38-61 38-45 0-74-33-76-84h234zm118 146v-177c0-55 27-82 83-82 8 0 16 0 25 2v-92h-12c-37 0-72 4-101 49v-40h-85v340h90zm412-237c-4-70-47-112-145-112-107 0-146 45-146 96 0 57 24 91 156 120 37 9 55 17 55 42 0 22-28 33-62 33-40 0-69-19-69-51h-93c2 72 65 118 162 118 100 0 152-45 152-106 0-79-39-85-158-118-36-10-56-19-56-38 0-22 20-29 56-29 39 0 57 14 61 45h87zm117 34c3-47 33-75 69-75s69 24 70 75h-139zm232 57c0-136-55-203-160-203s-165 67-165 173c0 123 57 185 171 185 72 0 128-39 149-109h-93c-6 24-31 38-61 38-44 0-73-33-76-84h235z" class="fil2"/>
          <path d="M13879 1885v-336h123v-71h-331v71h123v336h85zm223 0v-302h-79v302h79zm0-338v-74h-79v74h79zm177 281c-40 0-68-38-68-92 0-62 22-93 69-93 44 0 66 33 66 98 0 51-29 87-67 87zm143 57v-412h-79v149c-22-32-52-47-89-47-78 0-124 64-124 156 0 101 55 161 131 161 36 0 64-14 83-44l1 37h77zm107-181c3-41 29-66 61-66 31 0 61 22 62 66h-123zm205 51c0-120-49-180-141-180-93 0-146 60-146 153 0 109 50 164 150 164 65 0 114-34 133-96h-82c-6 21-29 33-54 33-39 0-65-29-68-74h208z" class="fil3"/>
        </g>
      </g>
      <g>
        <path d="M13115 4131l-12-13c-9-12-58-51-74-61-104-68-210-13-309 44-49 28-255 174-306 215l-16 20c79-16 114-33 206-31 105 3 99 26 171 62 165 82 210-25 342-58 232-59 265 149 563 27 38-16 122-67 134-90-72-30-102-11-176-63-180-126-238 2-355 18-64 8-133-45-168-70zm348-660l-91 41-8-38c-228-40-287-67-530 9-58 18-33 7-46 44l-285-106c28-18 557-226 568-227s560 166 589 181l-39 19h-1l-1 1h-1l-1 1h-1l-1 1h-1l-1 1h-1l-149 73zm-143 44l8 160c-10-4-21-8-32-12-45-23-103-40-127-44-108-19-166-6-258 23-23 7-47 19-69 33l-5-144c79-28 147-49 238-53 68-3 195 7 245 37z" class="fil6"/>
        <path d="M13115 4138l-12-12z" class="fil7"/>
        <path d="M13913 3551c-26 8-58 22-84 33l-167 66c-14 6-10 3-15 13l-75 108c-13 16-37 38-60 50-4 2-9 5-14 7-13-30-28-59-46-86 11-16 21-37 33-51 13-15 19-33 31-49l18-25c12-19 18-37 39-43 61-17 119-33 179-54 44-15 94-37 136-49 11-7 50-20 66-27 22-9 45-19 67-28 23-11 111-48 125-60 8 4 2-8 8 7 5 16 5 20 4 37 0 38-67 71-105 89-22 11-45 21-68 31s-52 20-72 31zm-739 131c101 12 122 53 176 132h-90c-20-47-49-91-86-132 0 0 21 3 0 0zm-470 347c15-7 14-9 29-15 11-5 16-6 29-12 21-10 35-16 57-24h1-90c4-40 13-77 29-111h98c-10 34-17 69-19 105 17-5 35-9 55-12 3-32 10-64 19-93h130v107c26 14 45 34 65 56h139c-1 30-4 59-10 88 17 6 34 7 50 5 7-30 11-62 13-93h109c-1 14-3 29-6 43 10-6 45-28 48-32 27-34-21-155-38-186-48-86-89-119-161-166-129-85-361-53-465 97l-42 61c-5 8-3 3-7 14-16 46-34 114-33 168zm675-162c16 34 25 71 29 111h-109c-3-38-9-75-20-111h100zm-447-53c26-58 63-106 110-135v135h-110zm162-135c47 29 84 77 110 135h-110v-135zm130 188c11 35 18 73 21 111h-151v-111h130zm-436-53c41-61 102-107 173-131-37 40-65 85-85 131h-88zm-346 690c81-3 134-15 216 5 71 17 111 44 170 60 182 51 216-61 349-81 66-9 127 28 176 52 87 43 191 51 288 17 37-13 37-25 58-54 24-33 74-96 89-133-20 1-115 65-148 79-91 38-188 39-275-13-207-123-322-1-432 31-84 25-112 1-182-26-57-22-96-51-167-58-58-5-147 13-183 42 13 27 32 53 41 79zm-193-953c27 8 58 22 84 33l168 66c13 6 9 3 15 13l74 108c13 16 37 38 60 50 4 2 9 5 14 7 13-30 28-59 46-86-11-16-20-37-33-51-13-15-19-33-31-49l-18-25c-12-19-18-37-39-43-61-17-119-33-179-54-43-15-94-37-136-49-11-7-50-20-66-27-22-9-44-19-66-28-24-11-112-48-126-60-8 4-2-8-8 7-5 16-5 20-4 37 1 38 67 71 105 89 22 11 46 21 69 31 22 10 51 20 71 31zm33 234l28 48c13 29 96 70 138 86 55 21 119 45 178 59l1-6c3-25 7-49 13-73-64-15-124-32-186-54-65-22-115-46-170-66-2 2-2 0-2 6zm341 257v-11-7c1-12 1-23 2-35-28-7-55-14-72-19-67-19-108-39-166-67l1 23c14 28 14 36 36 56 19 16 35 26 59 40 34 19 102 51 142 63-1-14-2-29-2-43zm-367-470c-7-5-12-4-22-8-37-15-125-58-146-64-5 38 29 72 55 92 23 19 76 49 105 60 40 26 264 106 318 121l-28-34c-15-20-37-68-46-72l-236-95zm1624 213l-28 48c-13 29-96 70-138 86-55 21-119 45-178 59l-1-6c-3-25-7-49-13-73 64-15 124-32 186-54 65-22 115-46 170-66 2 2 2 0 2 6zm-341 257l1-11h-1v-7c-1-12-1-23-2-35 28-7 55-14 72-19 67-19 108-39 166-67l-1 23c-13 28-14 36-36 56-19 16-35 26-59 40-34 19-102 51-142 63 1-14 2-29 2-43zm367-470c7-5 12-4 22-8 37-15 126-58 146-64 5 38-29 72-55 92-23 19-75 49-105 60-40 26-264 106-318 121l29-34c14-20 36-68 45-72l236-95zm-4 106l11-5c3-1 6-1 10-3 18-7 40-19 60-25-6 42-48 77-88 102-24 11-53 29-82 41-58 26-127 49-189 68-28 8-78 25-105 29l-7-21-9-24c15-9 29-13 45-23 12-7 31-24 42-28 87-24 129-35 214-70 31-13 70-26 98-41zm-1642 0l-11-5c-3-1-5-1-9-3-19-7-41-19-61-25 6 42 48 77 88 102 25 11 53 29 82 41 58 26 127 49 189 68 28 8 78 25 105 29l8-21c2-8 5-16 9-24-16-9-30-13-46-23-12-7-31-24-42-28-87-24-128-35-214-70-31-13-70-26-98-41z" class="fil1"/>
        <g>
          <path d="M11701 4709c46 0 65 25 65 59s-19 59-68 59h-116v-118h119zm140 366v-125c0-52-15-74-54-87 42-15 66-55 66-103 0-73-54-127-136-127h-225v442h90v-173h99c53 0 69 16 69 59v114h91zm117-196c3-45 32-72 66-72s66 23 68 72h-134zm223 55c0-130-53-196-154-196-100 0-158 66-158 167 0 119 54 178 163 178 70 0 124-37 144-105h-89c-6 23-31 37-59 37-42 0-70-32-73-81h226zm198 141l118-328h-91l-69 217-69-217h-96l117 328h90zm200-196c3-45 32-72 66-72s66 23 67 72h-133zm223 55c0-130-54-196-154-196-101 0-159 66-159 167 0 119 55 178 164 178 70 0 124-37 144-105h-89c-6 23-31 37-59 37-42 0-70-32-73-81h226zm113 141v-171c0-52 26-79 79-79 8 0 16 1 24 2v-89h-11c-35 0-69 4-97 48v-39h-82v328h87zm396-229c-4-67-46-108-140-108-102 0-140 44-140 93 0 55 23 88 150 116 36 8 53 16 53 40 0 21-27 31-60 31-39 0-66-18-66-48h-89c1 69 62 113 156 113 95 0 145-43 145-101 0-77-37-83-152-114-35-10-53-19-53-37 0-21 18-28 54-28 37 0 54 13 58 43h84zm112 33c3-45 32-72 67-72 34 0 66 23 67 72h-134zm223 55c0-130-53-196-154-196-100 0-158 66-158 167 0 119 54 178 164 178 70 0 124-37 144-105h-90c-6 23-30 37-58 37-43 0-71-32-74-81h226z" class="fil2"/>
          <path d="M13848 5076v-323h118v-68h-318v68h118v323h82zm215 0v-290h-77v290h77zm0-325v-71h-77v71h77zm169 270c-38 0-65-36-65-88 0-59 21-89 66-89 42 0 64 31 64 94 0 49-28 83-65 83zm138 55v-396h-76v144c-22-31-50-45-86-45-75 0-119 61-119 149 0 98 53 155 126 155 35 0 62-13 80-43l1 36h74zm103-173c2-40 28-64 58-64s59 21 60 64h-118zm197 48c0-115-47-172-136-172s-140 57-140 147c0 104 48 157 144 157 62 0 110-33 128-93h-79c-6 20-27 33-52 33-38 0-62-28-65-72h200z" class="fil3"/>
        </g>
      </g>
      <g>
        <path d="M846 908c45 0 63 24 63 59 0 33-18 57-67 57H728V908h118zm137 361v-123c0-52-14-73-53-86 42-15 65-55 65-101 0-73-53-127-134-127H639v437h89v-171h97c53 0 69 17 69 59v112h89zm116-193c3-45 32-71 66-71 33 0 65 23 66 71h-132zm220 54c0-129-52-193-152-193-99 0-156 64-156 164 0 118 54 177 162 177 69 0 122-38 142-104h-88c-6 22-31 36-58 36-42 0-70-32-73-80h223zm196 139l117-323h-90l-69 213-67-213h-96l116 323h89zm197-193c4-45 32-71 66-71s65 23 67 71h-133zm221 54c0-129-53-193-152-193-100 0-157 64-157 164 0 118 54 177 162 177 69 0 122-38 142-104h-88c-6 22-30 36-58 36-42 0-70-32-72-80h223zm112 139v-168c0-52 25-78 78-78 8 0 16 0 24 1v-87h-12c-34 0-67 4-96 47v-38h-80v323h86zm390-225c-3-67-44-107-137-107-101 0-139 43-139 91 0 55 23 87 149 115 35 8 52 16 52 39 0 21-27 31-59 31-39 0-66-17-66-48h-88c2 69 61 113 154 113 94 0 144-43 144-101 0-76-37-81-150-112-35-10-53-19-53-37 0-20 18-27 53-27 37 0 54 13 58 43h82zm112 32c3-45 31-71 66-71 33 0 65 23 66 71h-132zm220 54c0-129-53-193-152-193s-156 64-156 164c0 118 53 177 161 177 69 0 123-38 143-104h-89c-6 22-30 36-58 36-42 0-69-32-72-80h223z" class="fil2"/>
        <path d="M3110 1270V951h117v-67h-314v67h116v319h81zm212 0V984h-75v286h75zm0-320v-71h-75v71h75zm168 266c-38 0-65-35-65-87 0-58 21-88 66-88 41 0 63 31 63 93 0 48-28 82-64 82zm136 54V879h-75v142c-21-30-49-44-85-44-74 0-117 61-117 147 0 97 51 154 124 154 34 0 61-14 79-43l1 35h73zm101-171c3-39 28-63 58-63s58 21 59 63h-117zm195 48c0-113-46-170-134-170s-139 57-139 145c0 103 48 156 143 156 62 0 109-33 126-92h-78c-5 20-27 32-51 32-37 0-62-28-64-71h197z" class="fil3"/>
        <path d="M18 1001c89-496 490-565 777-508 208 41 671 337 1130 268l-3 2h-1l-3 1v1c-15 6-29 11-43 15l-3 1c-58 15-118 12-232 4-41-3-83-8-125-15-9-2-19-3-28-5h-1l-11-2-4-1-9-2h-3l-10-2-2-1h-1l-10-2h-2l-12-3-3-1-8-1-4-1-24-6h-3l-10-3h-2l-9-2-3-1h-2l-10-3h-1l-9-2-4-1-6-2-7-2h-1l-12-3h-1l-12-3-8-2-2-1-6-2h-2l-8-2-2-1-10-2h-1l-9-3-4-1h-1l-21-6-3-1h-1l-10-3h-2l-8-3-5-1-5-1-7-2-3-1-10-3-10-3h-3l-7-2-5-2-4-1-9-2-1-1-10-2-1-1-8-2-4-1-6-2-7-1-3-1-9-3-10-2-2-1-7-2-5-1-10-3h-2l-2-1-9-2-1-1-9-2-3-1h-1l-8-2-4-1-10-3h-1l-11-3h-1l-8-2-5-1c-6-2-13-3-20-5l-9-2h-1l-4-1-7-2h-2l-10-2h-1l-1-1-8-1-1-1h-3l-7-2h-3l-6-1-4-1c-3-1-6-1-10-2h-1c-2-1-5-1-8-2h-2c-3 0-6-1-9-1v-1c-329-53-788 36-779 648-36-88-45-167-53-256zm1934-244h1c-3 1-6 2-7 2h-3 4v-1h3v-1h2z" class="fil0"/>
        <path fill="url(#id0)" d="M285 1473c-104-58-175-129-213-214-37-88-46-169-54-258-154 750 737 958 1075 382 31-56-47-71-90 18-18 36-60 81-101 55-42-34-19-104-70-124-57-8-66 80-103 80-19 0-54-105-82-104-22-4-41 30-63 122-36 82-72 121-110 116-24 0-12-70-27-90-28-18-67 28-162 17z"/>
        <path fill="#11a6de" d="M584 1430c-293-50-355-287-325-390 108-363 380-348 759-296 215 29 607 144 930 33 24 0 75-24 82-27 17-7 35-4 52-9 18-5 27-10 48-12 43-3 63-11 94-44 25-26 63-41 95-56 12-6 23-12 35-17 6 12-2 21-17 40-28 36-64 64-60 112 7-25 24-43 42-60 20-19 35-47 56-63 4 18 1 33-8 49 9-9 15-22 25-31 4 52 11 80 59 111-12-20-27-37-34-63-5-18-4-38-10-56 26 3 29 25 37 44 11 23 29 28 49 42-44-19-28-75-68-100 29 11 49 40 76 55 27 16 64 26 96 29-47-9-87-55-123-86 67 57 176 70 260 91-27 1-51-34-70-51-22-19-48-32-68-52 37 2 68 31 95 52 28 21 62 37 94 48 38 12 77 17 117 24 22 4 41 14 61 12 21-2 41-8 60-15 94-32 181-126 287-113 94 11 186 13 274 48-11-37-30-70-59-95 30 26 56 70 90 95 39 28 90 22 136 24 47 1 97 12 145 7 100-10 264-95 265-208-21 31-45 53-73 64-28 10-63-2-94-5-24-1-53-24-75-21-29 5-42 41-75 40 25-13 45-31 70-46-31 4-56-9-86-10-31-2-54 0-82-15-14-7-26-12-38-23-19-16-12-18-35-7-28 15-51 29-85 35 41-15 63-33 98-56-68 27-145-40-199-71-81-46-155-120-249-144-61-15-130-13-189 5s-110 56-171 69c43-32 79-59 132-77 54-19 111-22 163-44-80 25-169-21-252 1-69 18-140 50-202 77 32-43 80-65 121-97-59 25-131 47-183 84-54 37-96 88-138 139 5-38 37-60 59-89-49 25-72 78-103 120 7-20 32-52 25-80-6-25-32-34-57-24 49-15 42 51 32 76-14 38-45 65-79 87-32-29 40-63 12-87 6 29-29 44-29 72-25-20-50-58-35-91 19-43 73-20 28 10 76-6 41-115-19-56-28 27-75 131-29 160-77-17-57-101-10-136-30 7-84 46-87 83-3 48 40 67 67 95-45-4-75-48-107-76 30 36 53 88 109 88l6 1c-63 24-123 58-182 90-32 17-65 42-95 63-149 92-182 93-385 79-268-19-571-140-790-176-329-53-788 36-779 648l1 2c38 85 109 156 213 214 95 11 134-35 162-17 15 20 3 90 27 90 38 5 74-34 110-116zm1359-671h3c1 0 4-1 7-2 5-3 13-7 22-13 10-5 20-12 32-18 6-4 12-7 18-10 4-2 7-3 10-4 2-1 4-1 6-2h5l21-3c7-2 14-3 21-4 6-1 13-2 19-1 6 0 12 1 17 2 6 1 10 2 15 2h11c2 0 3-1 4-1s2 0 3-1h3s-1 0-3 1h-3c-1 1-2 1-4 1-3 1-7 1-11 1-5-1-10-1-15-2s-11-1-17-2c-6 0-13 0-19 1-7 1-14 3-21 4-6 2-14 3-21 3s-14 3-20 6-12 7-18 10c-12 6-23 13-32 18-10 5-18 9-23 12-3 1-6 2-7 2h-3zm374-218s576-329 1487 69c0 0-267-125-633-168-644 27-960 218-960 218-92 28-73 4-73 4 333-242 1013-223 1033-222-255-30-559-21-854 99z"/>
      </g>
    </g>
  </g>
</svg>
