<svg xmlns="http://www.w3.org/2000/svg" viewBox="0 0 550 297">
  <g fill="#1a1a1a">
    <path d="M384 131l-15-7 4-5c-19-35-22-45-58-69-8-6-4-4-11-1L288 0c6 2 89 49 90 50 2 2 38 92 39 97l-6-3h-1v-1h-1l-25-12zM223 94c12-12 28-19 45-19 18 0 34 7 46 19 11 12 18 28 18 45 0 18-7 34-18 46-12 11-28 18-46 18-17 0-33-7-45-18-11-12-19-28-19-46 0-17 8-33 19-45zm-9 49c0 6 1 13 2 19h21c-2-6-2-12-3-19h-20zm25 26h-21c2 5 4 8 7 12 8 7 21 13 34 15-6-3-11-9-15-16-2-3-4-7-5-11zm8 0c1 3 2 5 3 8 4 7 9 12 15 14v-22h-18zm25 0v22c6-2 11-7 15-14 1-3 2-5 3-8h-18zm21 11c-4 7-9 13-15 16 13-2 26-8 34-15 3-4 5-7 7-12h-21c-1 4-3 8-5 11zm7-18h21c1-6 2-13 2-19h-20c-1 7-1 13-3 19zm-7 0c1-6 2-12 2-19h-23v19h21zm-28 0v-19h-23c0 7 1 13 2 19h21zm-23-26h23v-19h-21c-1 5-2 12-2 19zm30-19v19h23c0-7-1-14-2-19h-21zm28 0c2 5 2 12 3 19h20c0-7-1-13-2-19h-21zm-2-8h21c-2-4-4-8-7-11-8-8-21-13-34-15 6 3 11 8 15 16 2 3 4 6 5 10zm-8 0c-1-2-2-5-3-7-4-7-9-12-15-14v21h18zm-25 0V88c-6 2-11 7-15 14-1 2-2 5-3 7h18zm-26 0c1-4 3-7 5-10 4-8 9-13 15-16-13 2-26 7-34 15-3 3-5 7-7 11h21zm-2 8h-21c-1 6-2 12-2 19h20c1-7 1-14 3-19zm25-48h6l3-69h-13l4 69zm-64-48c2 4 30 52 34 56 3 0 2-1 5-2-2-5-17-35-21-46l-8-15c-1 2-3 3-5 4l-5 3zm-65 106c8 1 59 5 64 5v-6l-64-11v12zm20-60l27 17c5 3 24 16 29 17l2-4-52-40c-3 3-4 6-6 10zm80-37l12 41 7-1c0-4-5-21-6-26-5-24 1-15-13-14zm-45 29c4 2 12 10 16 14l15 15 3-3c-1-4-10-14-13-17l-13-17c-2 2-6 5-8 8zm175 58l-20 18c-1-1-2-3-2-5-2-9-6-18-8-21-9-17-17-23-30-32-4-2-8-4-12-5l18-16c12 7 22 14 32 25 8 9 20 26 22 36zm-202-13c10 1 34 11 41 11l1-5-39-16c0 1 0 1-1 2l-2 8z"/>
    <path fill-rule="nonzero" d="M36 232c8 0 11 5 11 11 0 5-3 10-11 10H16v-21h20zm372 64v-56h20v-12h-55v12h21v56h14zm37 0v-50h-13v50h13zm0-56v-13h-13v13h13zm29 46c-6 0-11-6-11-15 0-10 4-15 11-15 8 0 12 5 12 16 0 8-5 14-12 14zm24 10v-69h-13v25c-4-5-9-8-15-8-13 0-20 11-20 26 0 17 9 27 21 27 6 0 11-2 14-7v6h13zm18-30c0-7 5-11 10-11s10 3 10 11h-20zm34 8c0-20-8-30-24-30-15 0-24 10-24 26 0 18 9 27 25 27 11 0 19-6 22-16h-13c-1 3-5 6-9 6-7 0-11-5-12-13h35zM60 296v-22c0-9-2-13-9-15 7-3 11-10 11-18 0-12-9-22-23-22H0v77h16v-30h17c9 0 12 3 12 10v20h15zm21-34c0-8 5-13 11-13s12 4 12 13H81zm38 9c0-22-9-34-26-34-18 0-28 12-28 29 0 21 10 31 28 31 13 0 22-6 25-18h-15c-1 4-5 6-10 6-8 0-12-5-13-14h39zm35 25l20-57h-16l-12 37-12-37h-16l20 57h16zm34-34c1-8 6-13 12-13 5 0 11 4 11 13h-23zm39 9c0-22-10-34-27-34s-27 12-27 29c0 21 9 31 28 31 12 0 21-6 25-18h-16c-1 4-5 6-10 6-7 0-12-5-12-14h39zm19 25v-30c0-9 5-14 14-14 1 0 3 0 4 1v-16h-2c-6 0-12 1-17 9v-7h-14v57h15zm69-40c-1-12-8-19-24-19-18 0-25 8-25 16 0 10 4 16 26 20 6 2 9 3 9 7s-4 6-10 6c-7 0-11-3-11-9h-16c0 12 11 20 27 20 17 0 25-7 25-18 0-13-6-14-26-19-6-2-9-3-9-7 0-3 3-4 9-4 7 0 10 2 10 7h15zm19 6c1-8 6-13 12-13s11 4 11 13h-23zm39 9c0-22-9-34-27-34-17 0-27 12-27 29 0 21 9 31 28 31 12 0 22-6 25-18h-15c-1 4-6 6-11 6-7 0-12-5-12-14h39z"/>
  </g>
</svg>
