<svg xmlns="http://www.w3.org/2000/svg" fill-rule="evenodd" clip-rule="evenodd" image-rendering="optimizeQuality" shape-rendering="geometricPrecision" text-rendering="geometricPrecision" version="1" viewBox="0 0 1321 768">
  <path fill="#fff" d="M422 445c35 8 71 6 111-4 287-41 397-208 251-247-13 11-29 20-48 28 104 29 25 185-205 195 0-19-7-18-17-20l-45-1c-46-1-58 0-58 21 0 17 1 26 11 28zm899 201c0-8-2-15-8-20-5-6-12-8-20-8s-14 2-20 8c-5 5-8 12-8 20s3 15 8 21c6 5 12 8 20 8s15-3 20-8c6-6 8-13 8-21zm-2 0a26 26 0 0 1-26 26c-7 0-13-2-18-7a29 29 0 0 1 0-38c5-4 11-7 18-7s13 3 18 7c5 5 8 11 8 19zm-18-10c0-4-2-6-7-6h-8v33h6v-14h1c2 0 3 1 3 2l1 12h5l-1-12c0-2-1-3-3-4 2-1 3-3 3-6v-5zm-7-2l2 2v6c0 2-1 2-2 2h-2v-10h2zM388 362c-99 102-45 171 51 180 91 9 216-24 255-37 10-4 139-54 221-125 86-75 117-175-39-194 123 35 81 115 7 174a796 796 0 0 1-345 143c-120 16-239-11-150-141zm338-168c-38-2-99 12-180 40-27 10-45 54 17 40 181-42 308-127 281-203-18-75-260-39-345 24 7 4 5 12 7 17 142-83 253-63 271-22 8 18 4 43-10 66-8 12-23 25-41 38zM510 339c-31-1-56-1-80 1-12 3-13 13-12 44 37-4 71-4 108 0 2-31-1-44-16-45zm0-63c-28-6-56-6-76-1-13 4-13 19-12 51 34-3 67-3 100 1 0-35 2-47-12-51zm-1-50c9 3 7 15 7 34-32-6-61-5-88 2-1-20 2-32 8-35 17-7 53-7 73-1zm3-34c-8-18-65-20-74-6-8 8-12 28 5 24 10-2 20-2 29-2 11 0 34 4 34 4 8 2 10-10 6-20zm-10-48c-7-14-50-13-59-1-7 7-7 22 5 19 7-2 16-2 24-2 9-1 28 1 28 1 7 1 6-9 2-17zm-5-42c-5-11-44-11-51-1-5 6-3 18 7 15l19-2 23 2c6 1 5-7 2-14zm-46-23c13-7 29-5 43 1 0-19-2-27-9-28 0-17-3-24-10-25V2c-2-3-3-3-5 0v24c-7 3-10 10-10 25-7 2-11 9-9 28zM74 630c0-20-12-30-35-30H0v166h41c24 0 36-10 36-31v-31c0-11-5-18-16-22 9-4 13-11 13-20v-32zm-36-7c6 0 9 3 9 8v32c0 6-3 9-9 9H27v-49h11zm12 112c0 5-3 9-9 9H27v-50h14c6 0 9 3 9 9v32zm105-58c0-20-11-31-33-31s-33 11-33 32v56c0 23 12 34 35 34 11 0 22-2 32-4l-3-23c-7 2-15 3-24 3-11 0-14-4-14-13v-16h40v-38zm-40 18v-18c0-6 2-9 7-9s8 3 8 9v18h-15zm62-17c8-5 15-8 21-8s9 3 9 9v14c-19 0-30 3-36 10-5 8-6 13-6 24v12c0 19 8 29 23 29 10 0 17-4 21-12l3 10h21v-88c0-21-11-32-32-32-12 0-23 4-34 12l10 20zm30 50c0 11-3 16-9 16-4 0-7-2-7-8v-14c0-7 4-10 16-10v16zm40-47v52c0 23 11 35 35 35 7 0 16-2 27-4l-3-23-19 3c-11 0-14-5-14-14v-46c0-9 3-14 14-14l19 3 3-23c-11-2-20-4-27-4-24 0-35 12-35 35zm138-3c0-21-12-32-34-32-23 0-34 11-34 32v58c0 21 11 32 34 32 22 0 34-11 34-32v-58zm-42-1c0-6 3-9 8-9s8 3 8 9v60c0 6-3 8-8 8s-8-2-8-8v-60zm97 89h27v-91c0-19-8-29-23-29-9 0-16 3-21 10l-3-8h-21v118h26v-80c0-11 3-16 9-16 4 0 6 3 6 8v88zm105 0V600h-27v166h27zm58 0h27v-91c0-19-8-29-24-29-8 0-15 3-20 10l-3-8h-21v118h26v-80c0-11 3-16 9-16 4 0 6 3 6 8v88zm73-38l-13-80h-26l26 120h26l25-120h-25l-13 80zm111-51c0-20-11-31-33-31-23 0-34 11-34 32v56c0 23 12 34 36 34 10 0 21-2 32-4l-3-23-24 3c-11 0-15-4-15-13v-16h41v-38zm-41 18v-18c0-6 3-9 8-9s7 3 7 9v18h-15zm90 38v3c0 6-3 9-10 9-8 0-16-1-25-5l-5 23c9 3 19 5 30 5 24 0 38-12 38-32v-4c0-13-7-23-14-29-11-8-25-13-25-23v-4c0-5 3-8 9-8 7 0 14 2 22 5l4-23c-10-2-19-4-27-4-24 0-36 12-36 30v5c0 35 39 35 39 52zm82-64v-21h-14v-24h-27v24h-8v21h8v73c0 18 9 26 27 26l16-2-2-22-6 1c-6 0-8-2-8-7v-69h14zm11-21v118h26v-80c0-11 3-16 9-16 4 0 7 3 7 8v88h26v-80c0-11 3-16 8-16s7 3 7 8v88h27v-91c0-19-8-29-24-29-9 0-16 4-21 12-4-8-10-12-20-12-9 0-16 3-21 10l-3-8h-21zm190 29c0-20-11-31-33-31-23 0-34 11-34 32v56c0 23 12 34 36 34 11 0 21-2 32-4l-3-23c-7 2-16 3-24 3-11 0-15-4-15-13v-16h41v-38zm-41 18v-18c0-6 3-9 8-9s8 3 8 9v18h-16zm96 71h27v-91c0-19-8-29-24-29-8 0-15 3-20 10l-3-8h-21v118h26v-80c0-11 3-16 9-16 4 0 6 3 6 8v88zm86-97v-21h-15v-24h-26v24h-8v21h8v73c0 18 8 26 26 26l16-2-1-22-7 1c-5 0-8-2-8-7v-69h15zM555 252c-6-8 111-40 122-30-46 22-96 36-122 30z"/>
</svg>
