<svg xmlns="http://www.w3.org/2000/svg" fill-rule="evenodd" clip-rule="evenodd" image-rendering="optimizeQuality" shape-rendering="geometricPrecision" text-rendering="geometricPrecision" version="1" viewBox="0 0 13972 9703">
  <path fill="#00bd6e" d="M6587 4130l47-76v-1h1v-2h1l350-607 351 607v1l1 1v1l48 76 941 1517c-22 28-42 59-58 90l-3 5v1l-2 4v1l-5 10-4 10-3 5-2 5-2 5v1l-2 5-2 5-2 5-2 5-7 22-1 5c-14 49-22 99-22 150H5762c0-120-41-239-117-334l942-1517zM0 8045v-172l70-7c41-4 62-24 62-59v-988l-121-6v-181h582c208 0 370 56 487 166s175 274 175 491c0 134-17 251-53 351a573 573 0 0 1-144 235 643 643 0 0 1-455 170H0zm7188 1633v-134l59-5c29-3 43-18 43-47v-771l-94-5v-141h298l470 761h3v-615l-110-5v-141h405v135l-60 5c-26 2-40 19-40 51v912h-193l-480-773h-3v627l108 5v141h-406zm4256-708c-27-10-59-15-97-15-37 0-67 9-90 26a75 75 0 0 0-34 63c0 25 4 44 12 58 9 14 22 26 39 35 28 15 61 27 100 38 39 10 67 19 86 25s42 16 71 30a218 218 0 0 1 121 204c0 83-30 148-90 195s-137 71-230 71c-134 0-236-18-305-52v-230l150-12v80c0 48 46 73 139 73s139-34 139-102c0-24-8-44-24-59-16-16-32-26-47-32-16-5-34-11-56-16l-63-17a549 549 0 0 1-145-63c-56-36-84-97-84-183s30-152 91-198c61-47 137-70 229-70 93 0 184 22 275 66v199l-149 12v-70c0-27-13-46-38-56zm-519 577v131h-269v-108a309 309 0 0 1-269 130c-171 0-257-96-257-287v-383c0-30-13-46-41-47l-53-3v-136h292v526c0 58 8 102 25 132 16 30 50 45 102 45s94-16 126-48c31-32 47-71 47-116v-350c0-18-3-30-9-37s-17-12-33-13l-53-3v-136h292v650c0 18 3 29 8 36 6 6 17 10 34 12l58 5zm-1290-45l-101-132-138 170 78 5v133h-345v-131l51-5c26-3 48-17 67-40l190-239-203-281-85-10v-128h386v131l-48 3c-13 1-22 6-26 15-3 9-1 18 6 28l95 126 127-165-68-5v-133h337v129l-50 4c-23 1-45 15-66 41l-182 231 217 288 84 10v131h-394v-131l51-3c15-1 23-6 26-14 3-9 0-18-9-28zm-861-683c83 0 149 20 198 61 48 40 73 97 73 170a256 256 0 0 1-110 215c-31 21-68 38-113 52-74 22-157 33-250 33 3 58 22 106 55 141 33 36 84 54 152 54 69 0 137-24 206-73l63 135a485 485 0 0 1-292 93c-135 0-234-38-297-112-63-75-94-178-94-308s36-240 108-328c71-89 172-133 301-133zm-75 379c40-7 77-23 112-48 34-25 51-55 51-89 0-67-33-101-99-101-62 0-110 25-143 74s-51 108-55 176c49-1 93-5 134-12zm-6051 331c133 0 199-53 199-159 0-56-29-97-88-123-31-16-71-30-120-43s-90-27-123-41c-32-14-65-33-98-57-65-49-98-124-98-225s35-180 105-238 162-87 275-87c114 0 219 22 316 68v248l-169 12v-96c0-17-2-29-6-37-13-21-52-31-117-31-66 0-115 11-146 35-32 23-47 59-47 107 0 36 13 67 39 93 18 18 44 32 79 44l111 36c39 12 74 25 105 39 30 15 62 35 95 60 67 50 101 127 101 231s-37 185-112 245c-74 60-173 90-295 90s-232-23-329-68v-262l169-12v101c0 17 2 29 7 37 4 7 18 15 40 22 23 7 59 11 107 11zm4344-1033v1044l95 5v133h-395v-126l55-5c32-3 48-21 48-53v-817c0-25-14-38-42-40l-58-4v-137h297zm-791 1061c121 0 181-97 181-292 0-98-14-173-41-224s-72-76-136-76c-63 0-110 24-140 73s-45 115-45 199c0 156 29 254 87 293 25 18 57 27 94 27zm-381-297c0-82 12-153 36-213 25-60 57-106 98-138 79-60 165-90 260-90 67 0 123 11 169 32 46 22 82 47 107 75 26 28 49 69 67 123 18 53 27 117 27 190 0 152-37 268-111 346a372 372 0 0 1-284 118c-116 0-206-37-271-112-66-75-98-185-98-331zm-494 297c120 0 181-97 181-292 0-98-14-173-41-224s-72-76-136-76-110 24-140 73-45 115-45 199c0 156 29 254 86 293 26 18 57 27 95 27zm-382-297c0-82 13-153 37-213s57-106 98-138c78-60 165-90 260-90 66 0 122 11 168 32 46 22 82 47 108 75s48 69 66 123c19 53 28 117 28 190 0 152-37 268-111 346a373 373 0 0 1-285 118c-115 0-205-37-271-112-65-75-98-185-98-331zm-893 232v-807c0-18-3-30-9-37-6-6-17-10-33-11l-58-4v-137h296v446c57-82 138-123 242-123 84 0 148 24 194 72s69 120 69 217v432l95 5v133h-395v-126l55-5c16-2 29-7 36-14 8-7 12-21 12-41v-341c0-58-9-102-27-133-19-31-54-46-107-46-52 0-94 16-126 49-31 32-47 72-47 118v401l95 5v133h-395v-126l55-5c16-2 29-7 36-14 8-7 12-21 12-41zm-682-240c0 94 18 167 54 219 35 52 86 78 153 78s133-24 198-72l71 128c-78 64-177 96-295 96s-211-37-279-112c-68-74-102-185-102-330 0-146 39-256 117-330 78-73 166-110 263-110 98 0 189 23 273 68v216l-152 11v-79c0-30-11-49-33-56-21-7-44-11-67-11-134 0-201 95-201 284zm2064-2395c-15-26-73-40-174-40-131 0-231 45-299 134s-102 218-102 386c0 350 131 525 393 525h56c33 0 65-4 95-14 29-9 47-18 53-28 5-10 8-26 8-47v-170l217 15v367a903 903 0 0 1-421 87c-216 0-382-60-496-182s-171-303-171-544c0-133 19-249 58-348 38-100 90-177 155-232a687 687 0 0 1 454-159c142 0 275 29 400 87v361l-217 15v-166c0-21-3-37-9-47zm7378 289v-170h358v138c37-52 86-93 147-124 61-30 127-45 198-45 107 0 190 30 249 92s88 154 88 277v555l121 6v170h-505v-162l70-6c21-3 37-9 47-18s15-27 15-52v-438c0-78-12-135-37-173-24-37-69-56-137-56a209 209 0 0 0-219 214v515l121 6v170h-506v-162l70-6c21-3 37-9 47-18s15-27 15-52v-588c0-43-18-65-53-66l-89-7zm-621 744c155 0 232-125 232-374 0-126-18-222-52-287-35-65-93-98-174-98-82 0-142 32-180 94s-57 147-57 255c0 199 37 325 110 376 33 22 73 34 121 34zm-488-380c0-105 15-196 46-273 32-78 73-137 126-178a537 537 0 0 1 333-114c85 0 157 13 216 41s105 59 138 96c33 36 62 88 85 157 23 68 35 149 35 243 0 195-47 343-142 444a483 483 0 0 1-365 151c-148 0-263-48-347-144-84-95-125-237-125-423zm-245-534v893l122 6v170h-506v-162l70-6c41-4 62-27 62-68v-590c0-25-4-41-12-49-8-9-22-13-41-13l-75-4v-177h380zm-267-183c-30-29-45-67-45-112s15-83 45-114c30-30 69-45 117-45s87 15 118 45c30 31 45 69 45 114s-15 83-45 112c-31 29-70 43-118 43s-87-14-117-43zm-682-42h138v225h283l-22 179h-261v558c0 63 11 106 34 131s58 37 105 37c48 0 95-15 144-44l63 163c-71 50-160 75-269 75-64 0-118-9-162-25s-76-34-98-54c-21-20-37-49-48-87a442 442 0 0 1-22-187v-567h-151l22-155c66-6 117-30 151-71 34-42 65-101 93-178zm-979 748c0 120 22 214 68 280 45 67 111 100 196 100 86 0 171-30 254-91l91 163a577 577 0 0 1-378 124c-151 0-271-48-358-144-87-95-130-237-130-424s50-327 149-421a482 482 0 0 1 338-141c126 0 242 29 350 87v276l-196 15v-102c0-39-14-62-41-72-28-9-56-13-86-13-172 0-257 121-257 363zm-752-554c106 0 190 25 253 77 62 52 93 124 93 218a324 324 0 0 1-140 276c-40 27-88 49-145 66-94 28-201 42-320 42 4 75 27 136 70 182 42 46 107 69 195 69s176-31 264-94l80 172a615 615 0 0 1-374 119c-172 0-299-47-380-143a597 597 0 0 1-121-394c0-167 46-307 138-421a471 471 0 0 1 387-169zm-97 485c52-9 100-30 144-62 43-32 65-69 65-113 0-87-42-130-127-130-79 0-140 32-183 95-42 63-66 138-70 226 63-2 119-7 171-16zm-689-900v1339l121 6v170h-506v-162l71-6c41-4 61-27 61-68V6762c0-31-18-48-53-51l-74-4v-177h380zm-633 0v1339l121 6v170h-506v-162l71-6c41-4 61-27 61-68V6762c0-31-18-48-53-51l-74-4v-177h380zM6345 7890c154 0 231-125 231-374 0-126-17-222-52-287-34-65-93-98-174-98s-141 32-179 94c-39 62-58 147-58 255 0 199 37 325 111 376 32 22 73 34 121 34zm-489-380c0-105 16-196 47-273 31-78 73-137 125-178a542 542 0 0 1 334-114c85 0 157 13 215 41 59 28 105 59 138 96 34 36 62 88 85 157 24 68 35 149 35 243 0 195-47 343-142 444a480 480 0 0 1-364 151c-148 0-264-48-348-144-83-95-125-237-125-423zm-1529-491v790c0 23 4 38 12 47 7 8 21 13 41 15l68 4v170h-338v-123l-6-3a336 336 0 0 1-291 153c-145 0-252-46-321-138a617 617 0 0 1-104-378c0-192 47-342 140-450 94-108 234-161 421-161 120 0 246 24 378 74zm-247 688v-550c-39-18-94-28-163-28-95 0-164 39-206 115-43 76-64 178-64 304 0 229 74 344 221 344 62 0 113-19 153-56 40-38 59-81 59-129zm-1272-956h138v225h283l-22 179h-261v558c0 63 11 106 34 131s58 37 105 37c48 0 96-15 144-44l63 163c-70 50-160 75-269 75-64 0-118-9-162-25s-76-34-98-54c-21-20-37-49-48-87-12-38-18-68-19-90-2-22-3-55-3-97v-567h-150l21-155c66-6 117-30 151-71 34-42 65-101 93-178zm-444 268v790c0 23 4 38 12 47 8 8 21 13 41 15l68 4v170h-338v-123l-6-3a336 336 0 0 1-291 153c-144 0-251-46-321-138a617 617 0 0 1-104-378c0-192 47-342 140-450 94-108 234-161 421-161 120 0 246 24 378 74zm-246 688v-550c-40-18-94-28-164-28-95 0-163 39-206 115-42 76-64 178-64 304 0 229 74 344 221 344 63 0 114-19 153-56 40-38 60-81 60-129zM391 6838v1003h217c121 0 216-44 284-132s102-215 102-382c0-326-138-489-414-489H391zm5736-3420l135-55 19-145-115-89-134 55-20 144 115 90zm-372 145l127-52 19-135-108-84-127 52-18 135 107 84zm-344 127l111-45 16-119-94-73-111 45-17 119 95 73zm-355 128l91-38 13-98-78-60-91 37-13 98 78 61zm3049-595l-135-57-116 88 19 145 134 56 116-88-18-144zm365 159l-126-53-109 83 17 135 126 53 109-82-17-136zm333 154l-110-46-96 72 15 119 111 46 95-72-15-119zm342 161l-91-38-79 60 12 98 91 38 79-60-12-98zm-2699-479l177 48 48 178-130 130-178-48-47-177 130-131zm-311 326l166 44 45 167-122 121-166-44-45-167 122-121zm-309 333l148 39 39 147-108 108-147-39-39-148 107-107zm-282 302l131 35 35 132-96 96-131-35-36-132 97-96zm-305 327l114 31 30 114-83 84-114-31-31-114 84-84zm-304 340l86 23 23 86-63 63-86-23-23-86 63-63zm2335-1370l47-178 178-48 130 130-47 178-178 48-130-130zm325 310l44-166 167-45 122 122-45 167-166 44-122-122zm333 309l39-147 147-40 108 108-39 147-148 40-107-108zm302 283l36-132 131-35 96 96-35 132-131 35-97-96zm327 305l31-115 114-30 84 83-31 115-114 30-84-83zm340 303l23-86 86-23 63 63-23 86-86 23-63-63zM6046 2598l134 57 116-88-18-145-134-56-116 88 18 144zm-365-159l126 53 108-83-17-135-126-53-108 82 17 136zm-334-154l111 46 95-72-15-119-110-46-96 72 15 119zm-341-161l91 38 78-60-12-98-91-38-79 60 13 98zm1562-162l55 135 144 20 90-115-55-135-145-20-89 115zm-145-371l51 126 136 19 83-108-51-127-135-18-84 108zm-127-345l45 111 119 16 73-94-45-111-119-16-73 94zm-128-355l37 91 98 14 61-78-37-92-98-13-61 78zm1219 990l-56 134 88 116 144-18 57-134-88-116-145 18zm160-365l-53 126 83 109 135-17 53-126-82-109-136 17zm154-334l-47 111 73 95 119-15 46-110-72-95-119 14zm161-341l-38 91 59 79 98-13 39-91-60-78-98 12zM6404 2753l92 160-92 159h-184l-92-159 92-160h184zm-450 10l86 150-86 149h-172l-87-149 87-150h172zm-454 18l76 132-76 132h-152l-76-132 76-132h152zm-414 14l68 118-68 118h-136l-68-118 68-118h136zm-446 15l59 103-59 102h-119l-59-102 59-103h119zm-455 26l44 77-44 77h-89l-45-77 45-77h89zm2518-441l-48 177-178 48-130-130 48-178 178-48 130 131zm-325-311l-45 166-166 45-122-122 44-166 167-45 122 122zm-333-309l-40 147-147 40-108-108 40-147 147-40 108 108zm-303-283l-35 132-132 35-96-96 35-132 132-35 96 96zm-327-305l-30 115-115 30-83-83 30-115 115-30 83 83zm-339-303l-23 86-86 23-63-63 23-86 86-23 63 63zm2092 1468l-159 92-160-92v-184l160-92 159 92v184zm-10-449l-149 86-150-86v-173l150-86 149 86v173zm-17-454l-132 76-132-76v-152l132-76 132 76v152zm-15-414l-117 68-118-68V899l118-68 117 68v136zm-15-447l-102 60-103-60V470l103-59 102 59v118zm-25-454l-77 44-77-44V45l77-45 77 45v89zm441 2518l-178-48-48-178 130-130 178 48 48 177-130 131zm310-325l-166-45-45-167 122-121 167 44 44 167-122 122zm309-334l-147-39-40-147 108-108 147 40 40 147-108 107zm283-302l-132-35-35-132 96-96 132 35 35 132-96 96zm305-327l-114-31-31-114 84-83 114 30 30 114-83 84zm304-340l-86-23-23-86 62-63 86 23 23 86-62 63zM8024 2403l-135 55-20 145 115 89 135-55 20-144-115-90zm371-145l-126 52-19 135 108 84 126-52 19-135-108-84zm345-127l-111 45-17 119 95 73 111-45 16-119-94-73zm355-128l-92 38-13 98 78 60 92-37 13-98-78-61zM7569 3117l-92-160 92-159h184l92 159-92 160h-184zm449-10l-86-150 86-149h173l86 149-86 150h-173zm454-18l-76-132 76-132h152l77 132-77 132h-152zm414-14l-68-118 68-117h136l68 117-68 118h-136zm447-15l-59-103 59-102h118l59 102-59 103h-118zm455-25l-45-78 45-77h89l44 77-44 78h-89zm-2655 154l147-254-147-254h-294l-147 254 147 254h294zm106 941h-505l-744 1199 169 277 276-452 275 452 276-452 276 452 276-452 276 452 169-277-744-1199z"/>
</svg>
