<svg xmlns="http://www.w3.org/2000/svg" viewBox="0 0 18805 4772">
  <g fill="#20d45c">
    <path fill-rule="nonzero" d="M6816 1891c16-62 22-141 22-286 0-424-93-569-484-569-375 0-493 142-493 635 0 475 22 555 124 658 118 121 350 210 459 331 62 69 68 96 68 286 0 328-37 359-161 359-118 0-152-49-152-335 0-65 0-114 6-151h-319c-13 62-22 158-22 268 0 538 136 648 481 648 394 0 521-137 521-782 0-469-37-538-186-652-100-75-310-172-407-265-62-62-65-83-65-303 0-248 31-283 146-283 133 0 152 79 152 279 0 83-3 124-6 162h316zm884 800c3 34 3 59 3 100 0 196-6 303-24 396-13 62-50 97-121 97-94 0-125-24-140-86-25-93-34-204-34-838 0-624 9-727 34-817 15-62 46-86 127-86 78 0 102 24 121 69 22 52 34 172 34 327 0 93 0 135-3 183h363c6-62 6-100 6-210 0-304-34-514-108-631-65-110-177-159-413-159-260 0-369 56-440 211-59 127-100 251-100 1117 0 806 28 1006 97 1158 68 158 192 213 456 213 428 0 514-262 514-810 0-113 0-172-9-234h-363zm1657 1000V1081h-388v1072h-329V1081h-391v2610h391V2563h329v1128h388zm1150-169c69-159 97-317 97-1138 0-820-28-972-97-1134-68-158-189-214-440-214-258 0-375 56-444 214-68 162-96 314-96 1134 0 821 28 979 96 1138 69 162 186 213 444 213 251 0 372-51 440-213zm-313-324c-15 62-50 86-127 86-81 0-112-24-127-86-25-90-34-183-34-824 0-652 9-741 34-831 15-62 46-86 127-86 77 0 112 24 127 90 22 86 31 175 31 827 0 641-6 731-31 824zm1532 324c69-159 97-317 97-1138 0-820-28-972-97-1134-68-158-189-214-440-214-258 0-375 56-444 214-68 162-96 314-96 1134 0 821 28 979 96 1138 69 162 186 213 444 213 251 0 372-51 440-213zm-313-324c-15 62-50 86-127 86-81 0-112-24-127-86-25-90-34-183-34-824 0-652 9-741 34-831 15-62 46-86 127-86 77 0 112 24 127 90 22 86 31 175 31 827 0 641-6 731-31 824zm1424 493v-452h-459V1081h-382v2610h841zm602 0V1512h328v-431h-1042v431h332v2179h382zm1386 0l-226-2610h-642l-242 2610h381l47-655h242l46 655h394zm-456-1069h-211l93-1113h28l90 1113zm1492-731c16-62 22-141 22-286 0-424-93-569-484-569-375 0-493 142-493 635 0 475 21 555 124 658 118 121 350 210 459 331 62 69 68 96 68 286 0 328-37 359-161 359-118 0-152-49-152-335 0-65 0-114 6-151h-319c-13 62-22 158-22 268 0 538 136 648 481 648 394 0 521-137 521-782 0-469-38-538-186-652-100-75-311-172-407-265-62-62-65-83-65-303 0-248 31-283 146-283 133 0 152 79 152 279 0 83-3 124-6 162h316zm831 1800V1512h329v-431h-1042v431h332v2179h381zm866 0V1081h-391v2610h391zm874-1000c4 34 4 59 4 100 0 196-7 303-25 396-13 62-50 97-121 97-93 0-124-24-140-86-25-93-34-204-34-838 0-624 9-727 34-817 16-62 47-86 127-86 78 0 103 24 121 69 22 52 34 172 34 327 0 93 0 135-3 183h363c6-62 6-100 6-210 0-304-34-514-108-631-65-110-177-159-413-159-260 0-369 56-440 211-59 127-99 251-99 1117 0 806 28 1006 96 1158 68 158 192 213 456 213 428 0 515-262 515-810 0-113 0-172-10-234h-363z"/>
    <path d="M1769 1370L0 0l1811 2231c-166 69-282 233-282 424 0 253 205 459 459 459 157 0 295-79 378-199l154 190c-42 90-101 169-174 235-133 120-311 194-505 194-207 0-395-85-531-220-136-136-220-324-220-531 0-104 20-203 59-294 38-91 95-175 169-246l-359-369c-123 118-219 260-285 415-66 156-101 324-101 494 0 350 142 667 372 896 229 229 546 371 896 371 84 0 167-8 247-24l557 655c92 108 255 122 363 30 13-10 23-21 33-33l555-652c80 16 163 24 247 24 350 0 667-142 896-371 230-229 372-546 372-896 0-170-35-338-101-494-66-155-162-297-285-415l-359 369c74 71 131 155 169 246 39 91 59 190 59 294 0 207-84 395-220 531-136 135-324 220-531 220-194 0-372-74-505-194-73-66-132-145-174-235l154-190c83 120 221 199 378 199 254 0 459-206 459-459 0-191-116-355-282-424L5684 0 3915 1370l217-511-1290 1104L1552 859l217 511zm813 2440c38-28 75-57 110-89 54-50 105-104 150-162 45 58 96 112 150 162 35 32 72 61 110 89l-260 306-260-306z"/>
  </g>
</svg>
