<svg xmlns="http://www.w3.org/2000/svg" viewBox="0 0 706 624">
  <g fill="#20d45c">
    <path fill-rule="nonzero" d="M52 524c1-4 1-8 1-16 0-23-5-31-26-31s-27 8-27 35c0 26 1 30 7 36s19 11 25 18c3 3 4 5 4 15 0 18-3 20-9 20-7 0-9-3-9-19 0-3 0-6 1-8H1c0 4-1 9-1 15 0 29 8 35 26 35 22 0 29-7 29-42 0-26-2-30-10-36-6-4-17-9-23-14-3-4-3-5-3-17 0-14 2-15 8-15 7 0 8 4 8 15v9h17zm48 43v6c0 10 0 16-1 21-1 4-3 6-6 6-6 0-7-2-8-5-1-5-2-11-2-46 0-34 1-39 2-44 1-4 2-5 7-5 4 0 5 1 6 4 2 3 2 9 2 18v10h20v-12c0-16-2-28-6-34-3-6-9-9-22-9-14 0-20 3-24 11-3 7-6 14-6 61 0 44 2 55 6 64 3 8 10 11 25 11 23 0 28-14 28-44 0-6 0-9-1-13h-20zm91 55V479h-22v59h-17v-59h-22v143h22v-62h17v62h22zm62-9c4-9 6-18 6-62 0-45-2-53-6-62-3-9-10-12-24-12s-20 3-24 12-5 17-5 62c0 44 1 53 5 62 4 8 10 11 24 11s21-3 24-11zm-17-18c-1 3-2 5-7 5-4 0-6-2-7-5-1-5-1-10-1-45 0-36 0-40 1-45 1-4 3-5 7-5 5 0 6 1 7 5 1 5 2 9 2 45 0 35 0 40-2 45zm84 18c4-9 5-18 5-62 0-45-1-53-5-62s-10-12-24-12-21 3-24 12c-4 9-6 17-6 62 0 44 2 53 6 62 3 8 10 11 24 11s20-3 24-11zm-17-18c-1 3-3 5-7 5-5 0-6-2-7-5-1-5-2-10-2-45 0-36 1-40 2-45 1-4 2-5 7-5 4 0 6 1 7 5 1 5 1 9 1 45 0 35 0 40-1 45zm77 27v-25h-25V479h-20v143h45zm33 0V503h18v-24h-57v24h18v119h21zm76 0l-12-143h-36l-13 143h21l3-36h13l2 36h22zm-25-59h-12l6-60h1l5 60zm81-39c1-4 2-8 2-16 0-23-6-31-27-31-20 0-27 8-27 35 0 26 1 30 7 36s19 11 25 18c3 3 4 5 4 15 0 18-2 20-9 20-6 0-8-3-8-19v-8h-17c-1 4-2 9-2 15 0 29 8 35 27 35 21 0 28-7 28-42 0-26-2-30-10-36-6-4-17-9-22-14-4-4-4-5-4-17 0-14 2-15 8-15 7 0 8 4 8 15v9h17zm46 98V503h18v-24h-57v24h18v119h21zm47 0V479h-21v143h21zm48-55v6c0 10-1 16-2 21 0 4-2 6-6 6-5 0-7-2-8-5-1-5-2-11-2-46 0-34 1-39 2-44 1-4 3-5 7-5s6 1 7 4 2 9 2 18c0 5 0 7-1 10h20c1-4 1-6 1-12 0-16-2-28-6-34s-10-9-23-9c-14 0-20 3-24 11-3 7-5 14-5 61 0 44 1 55 5 64 4 8 10 11 25 11 23 0 28-14 28-44 0-6 0-9-1-13h-19z"/>
    <path d="M254 126L91 0l167 205c-15 7-26 22-26 40 0 23 19 42 42 42 15 0 27-7 35-19l14 18c-4 8-9 16-16 22-12 11-28 17-46 17-19 0-37-7-49-20-13-12-20-30-20-49 0-9 1-18 5-27 4-8 9-16 16-22l-34-34c-11 11-20 24-26 38s-9 30-9 45c0 33 13 62 34 83s51 34 83 34c8 0 15-1 23-2l51 60c8 10 23 11 33 3l3-3 51-60c8 1 15 2 23 2 32 0 62-13 83-34s34-50 34-83c0-15-3-31-9-45s-15-27-27-38l-33 34c7 6 12 14 16 22 3 9 5 18 5 27 0 19-7 37-20 49-12 13-30 20-49 20-18 0-34-6-46-17-7-6-13-14-16-22l14-18c7 12 20 19 35 19 23 0 42-19 42-42 0-18-11-33-26-40L615 0 452 126l20-47-119 102L234 79l20 47zm75 225c3-3 7-5 10-8 5-5 10-10 14-15 4 5 9 10 14 15 3 3 6 5 10 8l-24 28-24-28z"/>
  </g>
</svg>
