<svg xmlns="http://www.w3.org/2000/svg" viewBox="0 0 6890 2025">
  <path fill="#1a1a1a" d="M0 0h6890v2025H0V0zm5349 1381h258l367-947c5-12 25-12 30 0l446 1148c5 9-3 18-13 18h-203c-4 0-11-3-13-9l-232-655-229 655c-2 6-9 9-15 9h-938c-9 0-16-7-16-13V637h-403c-78 0-147 52-147 130 0 87 81 140 147 143 10 0 90 0 175 39 122 56 191 160 191 297 0 220-178 354-366 354-201 0-357-135-360-335-1-4 6-12 16-12h184c9 0 16 8 16 12 3 84 68 124 144 124 81 0 147-49 147-143 0-85-72-129-147-129-7 0-90 0-173-40-124-57-191-172-191-310 0-217 171-338 356-342h969v213h-334v266h461c9 0 17 6 17 13v187c0 5-8 13-17 13h-461v264h334zm-2291 0h134V910h396c29 0 173-3 173-132 0-130-147-137-173-137h-396V438c0-6 8-13 15-13h381c47 0 396 7 396 353 0 345-369 349-396 349h-175v460c0 6-5 13-15 13h-471c-5 0-14-4-15-9l-215-465h-126v461c0 6-7 13-16 13h-470c-5 0-12-3-13-9l-232-655-230 655c-1 6-8 9-14 9h-472c-9 0-16-7-16-13v-207H663v207c0 6-6 13-16 13H454c-8 0-16-7-16-13V438c0-6 8-13 16-13h193c10 0 16 7 16 13v723h445V438c0-6 7-13 16-13h193c10 0 16 7 16 13v943h125l367-947c4-12 25-12 29 0l369 947h125V910h395c48 0 173-6 173-135 0-130-138-137-173-137h-395V438c0-6 7-13 14-13h381c66 0 397 3 397 350 0 179-99 273-216 315 43 98 88 195 134 291zm387-1156H225v1575h6440V225H3445z"/>
</svg>
