<svg xmlns="http://www.w3.org/2000/svg" viewBox="0 0 2697 4523">
  <defs>
    <style>
      .fil1{fill:#2b3638}.fil2{fill:#e62929}.fil0{fill:#f9b89a}.fil3,.fil4,.fil5{fill:#2b3638;fill-rule:nonzero}.fil4,.fil5{fill:#e62929}.fil5{fill:#f22e2e}
    </style>
  </defs>
  <g id="Layer_x0020_1">
    <g id="_1965761916768">
      <path d="M394 266l1 1 1-1h133l1 1-68 81H330l-69-82z" class="fil0"/>
      <path d="M450 362H341l55 65z" class="fil1"/>
      <path d="M261 59v-8L396 6 261 59zm269 0v-8L396 6l134 53zm0 0H261L396 6l134 53zm-56 40h56v153h-56V99zm-71 0h56v153h-56V99zm-71 0h56v153h-56V99zm-71 0h57v153h-57V99zm0-26h269v13H261V73z" class="fil2"/>
      <path d="M79 580l-21-96h-7v-10h28v10h-8l13 70 14-70H88v-10h28v10h-9l13 70 15-70h-9v-10h27v10h-7l-21 96h-9l-14-74-15 74h-8zm110-70h4v13h-1c-8 0-13 2-17 6-3 4-5 10-5 18v22h10v9h-30v-9h8v-48h-7v-9h18v13c3-5 5-8 8-11 4-2 7-4 12-4zm12-11v-13h16v13h-16zm-2 79v-9h7v-48h-7v-9h18v57h7v9h-25zm59 1c-1 0-3 0-4 1h-4c-4 0-7-1-9-3s-2-6-2-12v-44h-7v-9h7v-25h11v25h8v9h-8v42c0 3 1 5 1 6 1 0 3 1 5 1h2v9zm21-40h19v-5c0-4-1-8-3-10-1-3-3-4-6-4-4 0-6 1-8 4s-2 7-2 12v3zm30 19c-1 7-3 12-6 16-4 4-9 6-15 6-7 0-12-3-16-7-4-5-5-11-5-20v-14c0-9 1-16 5-21s9-8 16-8 12 3 16 7c4 5 5 12 5 21v9h-30v5c0 6 0 11 2 13 2 3 4 5 8 5 2 0 5-1 6-3 2-2 3-5 3-9h11zm47-48h4v13h-1c-7 0-13 2-16 6-4 4-6 10-6 18v22h10v9h-30v-9h8v-48h-7v-9h19v13c2-5 5-8 8-11 3-2 7-4 11-4zm27-36h10l-9 31h-10l9-31zm21 104v-23h9c1 4 2 8 4 11 2 2 5 4 8 4 2 0 4-1 5-2 2-2 2-3 2-6 0-1 0-3-1-4 0-1-2-3-5-5l-13-11c-3-2-5-4-6-7-2-3-2-5-2-8 0-5 1-9 4-12s7-5 11-5c2 0 4 1 7 2 2 1 4 2 6 4v-4h8v20h-8c-1-4-3-7-5-9-1-2-4-3-6-3s-3 1-5 2c-1 1-1 3-1 5 0 1 0 2 1 3s2 3 4 4l13 10c3 3 5 6 7 9s3 6 3 9c0 5-2 10-5 13s-7 5-12 5c-3 0-5-1-7-2s-5-3-7-5v5h-9z" class="fil3"/>
      <path d="M539 546v2c0 11-3 19-7 24-5 6-12 9-22 9-9 0-16-3-21-9-4-5-7-13-7-24v-42c0-11 2-19 7-25s11-9 20-9c3 0 7 1 10 2 3 2 6 4 8 6v-6h9v31h-10v-3c-1-7-2-12-5-15-2-3-5-4-10-4s-9 2-12 5c-2 3-4 8-4 15v47c0 7 2 12 4 15 3 3 7 5 12 5s9-2 12-5c3-4 4-9 4-16v-3h12zm40-8c0-6-1-11-2-13-2-3-4-5-8-5s-6 2-8 5c-1 2-2 7-2 13v14c0 6 1 11 2 13 2 3 4 5 8 5s6-2 8-5c1-2 2-7 2-13v-14zm12-1v16c0 9-2 15-6 20-3 4-9 7-16 7s-13-3-16-7c-4-5-6-11-6-20v-16c0-9 2-15 6-20 3-4 9-7 16-7s13 3 16 7c4 5 6 11 6 20zm9-25h18v46c0 5 1 8 2 9 1 2 3 3 6 3s5-1 7-2 4-3 6-5v-42h-7v-9h19v57h7v9h-18v-8c-2 3-5 6-8 7-3 2-6 3-9 3-6 0-10-2-12-5-3-3-4-7-4-14v-40h-7v-9zm104-2h4v13h-1c-7 0-13 2-16 6-4 4-6 10-6 18v22h10v9h-30v-9h8v-48h-7v-9h19v13c2-5 5-8 8-11 3-2 7-4 11-4zm36 69c-2 0-3 0-4 1h-4c-5 0-8-1-9-3-2-2-3-6-3-12v-44h-7v-9h7v-25h12v25h8v9h-8v42c0 3 0 5 1 6 1 0 2 1 5 1h2v9z" class="fil4"/>
      <g id="_1965761903392">
        <path d="M2230 2646v145l22-18v-127h-22zm108 144l11-9v-226c15-44 74-41 125 0h52v4c0 2 0 3 1 5l-46 128h1c1 0 3 1 5 1l45-124c5 5 12 5 17 0l45 124c2 0 4-1 6-1l-46-128c1-2 1-3 1-5v-4h17v-17h-90c-38-35-108-45-132-18-1-7-1-12-2-17 17-9 17-17 0-24-3-7-6-16-10-26-3 10-6 19-9 26-17 7-17 15-1 24 0 5-1 10-1 17-24-27-94-17-132 18h-90v17h17c-1 1-1 2-1 4s1 3 2 5l-47 128c2 0 4 1 6 1l45-124c5 5 13 5 18 0l45 124c1 0 3-1 5-1l-46-128c1-2 2-3 2-5s0-3-1-4h52c52-41 111-44 125 0v226l11 9zm284-97c-6 31-40 55-82 55-41 0-75-24-81-55 8 9 42 15 81 15 40 0 73-6 82-15zm-568 0c7 31 41 55 82 55 42 0 76-24 82-55-9 9-42 15-82 15s-73-6-82-15zm306-68v148l22-18v-168h-22v38zm-44 148v-186h-21v168l21 18zm76-26v-128h22v145l-22-17zm55-101v145l-22-18v-127h22zm-163 101v-128h-21v145l21-17z" class="fil2"/>
        <path d="M2230 2804l53-43 55 43 54-43 55 43-55 66h-107z" class="fil0"/>
        <path d="M2382 2881h-88l44 52z" class="fil1"/>
        <g>
          <path d="M2050 3041l-11-44h-1l-11 44h-24l-17-74h19l11 52h1l12-52h19l13 52 11-52h18l-17 74h-23zm46-54h16l1 9h1c1-4 3-7 6-8 2-2 6-2 11-2v16c-5 0-9 1-11 2-3 1-4 3-5 5-1 3-2 7-2 12v20h-17v-54zm43-11v-14h18v14h-18zm1 65v-54h17v54h-17zm36 0v-41h-10v-13h10v-16h17v16h12v13h-12v41h-17zm85-23h-32v7c1 2 2 3 4 3 2 1 5 1 10 1s10-1 16-1v12c-2 1-5 1-9 2h-11c-9 0-15-1-19-3-4-1-6-4-7-8s-2-9-2-17c0-7 1-13 2-17s3-7 7-8c4-2 9-3 17-3s13 1 17 2c3 2 5 5 6 9 1 3 1 9 1 17v4zm-24-20c-3 0-5 1-6 1-1 1-2 1-2 3v7h16c0-3 0-6-1-7 0-2-1-3-2-3-1-1-3-1-5-1zm36-11h16l1 9h1c1-4 3-7 6-8 2-2 6-2 11-2v16c-5 0-9 1-11 2s-4 3-5 5c-1 3-2 7-2 12v20h-17v-54zm43 4c2 0 4 0 5-1 1 0 1-1 2-2v-6h-6v-15h17v12c0 5 0 9-1 12-1 2-2 4-5 5-2 1-6 2-12 2v-7zm50 51h-11c-4-1-8-1-11-1v-13c6 1 12 1 17 1h7c2 0 3-1 3-1 1-1 1-2 1-3s0-2-1-2c0-1 0-1-1-1-1-1-2-1-4-1l-13-2c-4 0-7-2-8-5-2-2-2-6-2-12 0-4 0-8 2-10 2-3 5-4 8-5s7-1 12-1h11c4 0 7 1 9 1v13c-6-1-11-1-16-1h-7c-1 0-2 0-3 1v5l1 1c1 0 2 0 4 1l12 1c3 0 5 1 7 2 1 1 3 2 4 5 0 2 1 5 1 9 0 6-1 9-3 12s-4 4-7 5-7 1-12 1z" class="fil3"/>
          <path d="M2476 3040c-2 1-5 1-9 2h-10c-10 0-17-1-21-3-5-3-7-6-9-11-1-6-2-13-2-24 0-10 1-17 2-23 2-5 5-9 9-11s11-3 21-3h10c3 1 6 1 9 2v14c-8-1-13-1-15-1-6 0-10 0-12 1s-4 3-4 6c-1 2-1 8-1 15 0 8 0 13 1 16 0 3 2 5 4 6s6 1 12 1c5 0 10 0 15-1v14zm35 2c-8 0-14-1-17-2-4-2-6-4-7-8s-2-10-2-18 1-14 2-18 3-6 7-8c3-2 9-2 17-2s14 0 18 2c3 2 6 4 7 8s1 10 1 18 0 14-1 18-4 6-7 8c-4 1-10 2-18 2zm0-13c3 0 5-1 6-1 2-1 2-2 2-4 1-2 1-5 1-10s0-9-1-10c0-2 0-3-2-4-1-1-3-1-6-1s-5 0-6 1-2 2-2 4v20c0 2 1 3 2 4 1 0 3 1 6 1zm71 6h-1c-3 5-8 7-16 7-5 0-8-1-11-2-2-2-4-4-4-7-1-3-2-7-2-12v-34h18v37c1 1 1 2 2 3h5c3 0 4 0 6-1 1 0 1-1 2-3v-36h18v54h-17v-6zm30-48h16l1 9c2-4 4-7 7-8 2-2 6-2 11-2v16c-5 0-9 1-11 2-3 1-4 3-5 5-2 3-2 7-2 12v20h-17v-54zm49 54v-41h-10v-13h10v-16h17v16h12v13h-12v41h-17z" class="fil4"/>
        </g>
      </g>
      <g id="_1965761889120">
        <path d="M1343 274l1 1 2-1h132l1 1-68 81h-132l-68-82z" class="fil0"/>
        <path d="M1399 370h-108l54 65z" class="fil1"/>
        <g>
          <path d="M1211 67v-8l134-45-134 53zm268 0v-8l-134-45 134 53zm0 0h-268l134-53 134 53zm-43 40h30l13 153h-56l13-153zm-71 0h31l13 153h-57l13-153zm-71 0h31l13 153h-56l12-153zm-70 0h30l13 153h-56l13-153zm-13-26h268v13h-268V81z" class="fil2"/>
        </g>
        <g id="_1965761888672">
          <path d="M1102 479v-1c0-2-3-4-5-4s-3 1-4 3l-23 81-13-49c-1-2-2-3-5-3-2 0-4 1-4 3l-14 49-23-81c0-2-1-3-3-3s-5 2-5 4v1l26 90c1 3 3 4 6 4 2 0 4-2 5-4l12-47 13 47c1 3 3 4 5 4 3 0 5-2 6-4l26-90zm37 37c2 0 3-2 3-4s-1-4-3-4h-5c-8 0-15 5-18 10v-6c0-2-2-3-4-3s-4 1-4 3v56c0 2 2 4 4 4 3 0 5-2 5-4v-33c0-12 8-19 17-19h5zm17-7c-2 0-4 1-4 3v56c0 2 2 4 4 4 3 0 5-2 5-4v-56c0-2-2-3-5-3zm0-30c-3 0-6 3-6 6 0 2 3 5 6 5s6-3 6-5c0-3-3-6-6-6zm30 37h17c2 0 3-2 3-4 0-1-1-3-3-3h-17v-27c0-2-2-3-5-3-2 0-4 1-4 3v70c0 14 7 20 21 20h4c2 0 4-2 4-4s-2-4-4-4h-4c-9 0-12-3-12-12v-36zm53-8c-14 0-26 11-26 24v15c0 16 12 26 29 26 12 0 20-6 20-9 0-2-2-4-4-4-3 0-5 5-16 5s-20-7-20-17v-5h30c6 0 12-1 12-11 0-14-12-24-25-24zm-17 28v-5c0-9 7-16 17-16s16 8 16 17c0 4-1 4-6 4h-27zm86-20c1 0 3-2 3-4s-2-4-3-4h-5c-9 0-15 5-18 10v-6c0-2-2-3-4-3s-4 1-4 3v56c0 2 2 4 4 4 3 0 4-2 4-4v-33c0-12 9-19 18-19h5zm14-43c-3 0-6 3-6 6s2 5 4 6l-2 7c-1 0-1 1-1 1 0 2 2 3 4 3 0 0 2-1 2-2 4-8 5-13 5-15 0-3-2-6-6-6zm33 92c-12 0-14-6-17-6-2 0-3 2-3 4 0 4 8 10 21 10s21-7 21-17c0-25-33-15-33-30 0-5 3-11 13-11 8 0 12 4 14 4 3 0 4-3 4-4 0-4-9-7-18-7-15 0-21 10-21 18 0 22 33 12 33 30 0 5-4 9-14 9z" class="fil3"/>
          <path d="M1464 499c0 2 1 3 4 3s5-1 5-5c0-12-10-23-28-23-15 0-28 8-28 29v41c0 21 13 29 28 29 17 0 28-11 28-23 0-4-2-5-5-5s-4 1-4 3c-1 6-2 16-18 16-13 0-20-6-20-20v-41c0-14 7-20 19-20 16 0 19 10 19 16zm45 9c-14 0-25 12-25 25v14c0 14 11 26 25 26 13 0 25-12 25-26v-14c0-14-12-25-25-25zm17 39c0 9-8 18-17 18s-17-9-17-18v-14c0-9 7-17 17-17 9 0 17 8 17 17v14zm47 26c14 0 25-12 25-25v-36c0-2-2-3-4-3s-4 1-4 3v36c0 8-8 17-17 17s-17-9-17-17v-36c0-1-2-3-4-3s-4 2-4 3v36c0 13 11 25 25 25zm72-57c2 0 4-2 4-4s-2-4-4-4h-4c-9 0-15 5-18 10v-6c0-2-2-3-4-3-3 0-5 1-5 3v56c0 2 2 4 5 4 2 0 4-2 4-4v-33c0-12 9-19 18-19h4zm22 0h17c2 0 3-2 3-4 0-1-1-3-3-3h-17v-27c0-2-2-3-4-3s-5 1-5 3v70c0 14 8 20 21 20h4c2 0 4-2 4-4s-2-4-4-4h-4c-9 0-12-3-12-12v-36z" class="fil4"/>
        </g>
      </g>
      <g id="_1965761888768">
        <path d="M2210 856v-8l128-43-128 51zm256 0v-8l-128-43 128 51zm-191 182V894h-26v165l26-21zm38 30V894h-26v154l26 20zm13-174v185l13 10 12-10V894h-25zm38 0v174l26-20V894h-26zm102-38h-256l128-51 128 51zm-256 13h256v12h-256v-12zm192 169V894h26v165l-26-21zm39-144h25v196l-25-21V894zm-204 0h-26v196l26-21V894z" class="fil2"/>
        <g id="_1965761890592">
          <path d="M2211 1105l63-51 64 52 64-52 64 52-64 77h-127z" class="fil0"/>
          <path d="M2390 1196h-103l52 62z" class="fil1"/>
        </g>
      </g>
      <path d="M2095 1304v-1c0-3-3-4-5-4s-3 1-3 2l-23 82-14-50c0-2-2-3-4-3s-4 1-5 3l-13 50-23-82c-1-1-2-2-4-2s-5 1-5 4v1l27 90c0 2 2 3 5 3 2 0 5-1 5-3l13-47 12 47c1 2 3 3 6 3 2 0 4-1 5-3l26-90zm37 37c2 0 4-2 4-4 0-3-2-4-4-4h-5c-8 0-14 5-17 10v-6c0-2-2-4-5-4-2 0-4 2-4 4v56c0 2 2 3 4 3 3 0 5-1 5-3v-33c0-12 9-19 17-19h5zm18-8c-3 0-5 2-5 4v56c0 2 2 3 5 3 2 0 4-1 4-3v-56c0-2-2-4-4-4zm0-29c-4 0-6 2-6 5s2 6 6 6c3 0 5-3 5-6s-2-5-5-5zm29 37h17c2 0 3-2 3-4s-1-4-3-4h-17v-26c0-2-2-4-4-4s-5 2-5 4v70c0 13 8 19 21 19h4c3 0 4-2 4-4s-1-4-4-4h-4c-9 0-12-3-12-11v-36zm53-8c-14 0-25 11-25 24v15c0 15 11 25 28 25 13 0 20-5 20-9 0-1-1-4-4-4-2 0-5 6-15 6-12 0-21-7-21-18v-5h30c6 0 12 0 12-10 0-14-12-24-25-24zm-17 28v-5c0-9 8-16 17-16 10 0 17 8 17 17 0 3-2 4-7 4h-27zm86-20c2 0 3-2 3-4 0-3-1-4-3-4h-5c-8 0-15 5-18 10v-6c0-2-1-4-4-4-2 0-4 2-4 4v56c0 2 2 3 4 3 3 0 5-1 5-3v-33c0-12 8-19 17-19h5zm15-43c-4 0-7 2-7 6 0 2 2 5 5 6l-3 6v2c0 1 1 2 3 2 1 0 2 0 2-1 4-8 6-13 6-15 0-4-3-6-6-6zm33 92c-12 0-15-6-18-6-2 0-3 2-3 4 0 4 8 9 21 9s21-6 21-17c0-24-33-15-33-30 0-4 4-10 14-10 7 0 11 4 14 4 2 0 3-3 3-5 0-3-9-6-18-6-15 0-21 9-21 18 0 22 33 12 33 30 0 5-3 9-13 9z" class="fil3"/>
      <path d="M2457 1323c0 2 1 4 4 4s5-1 5-6c0-12-10-22-28-22-15 0-28 8-28 28v42c0 20 13 28 28 28 18 0 28-10 28-22 0-5-2-6-5-6-2 0-4 2-4 4-1 6-2 16-18 16-13 0-20-6-20-20v-42c0-13 7-20 19-20 16 0 19 11 19 16zm45 10c-14 0-25 11-25 24v15c0 13 12 25 25 25 14 0 25-12 25-25v-15c0-13-11-24-25-24zm17 39c0 9-8 17-17 17s-17-8-17-17v-15c0-8 8-16 17-16s17 8 17 16v15zm47 25c14 0 26-11 26-25v-35c0-2-2-4-5-4-2 0-4 2-4 4v35c0 9-8 17-17 17s-16-8-16-17v-35c0-2-2-4-5-4-2 0-4 2-4 4v35c0 13 11 25 25 25zm73-56c1 0 3-2 3-4 0-3-2-4-3-4h-5c-9 0-15 5-18 10v-6c0-2-2-4-4-4s-4 2-4 4v56c0 2 2 3 4 3s4-1 4-3v-33c0-12 9-19 18-19h5zm21 0h17c2 0 3-2 3-4s-1-4-3-4h-17v-26c0-2-2-4-4-4s-5 2-5 4v70c0 13 8 19 22 19h3c3 0 4-2 4-4s-1-4-4-4h-3c-10 0-13-3-13-11v-36z" class="fil4"/>
      <path d="M2193 51v-8l128-43-128 51zm256 0v-8L2321 0l128 51zm0 0h-256l128-51 128 51zm-256 38h54v152l-54 44V89zm67 0h54v189l-54-43V89zm68 0h53v147l-53 44V89zm-135-25h256v12h-256V64zm202 25h54v194l-54-43V89z" class="fil2"/>
      <path d="M2193 300l63-51 64 52 64-52 65 52-65 77h-126z" class="fil0"/>
      <path d="M2373 391h-104l52 62z" class="fil1"/>
      <path d="M2119 585l8-100h-11c-5 72-5 78-6 83h-1c0-5-1-11-8-83h-12c-7 72-8 78-8 83h-1c-1-5-1-11-6-83h-12l8 100h17c7-63 7-69 7-75h1c0 6 1 12 7 75h17zm53 0v-1c-1-2-1-5-2-9 0-10-1-20-2-29-1-5-3-7-4-8v-1c2-1 3-2 4-5 2-4 3-8 3-20 0-13-1-19-5-23-2-3-5-4-11-4h-21v100h11v-43h6c3 0 5 2 5 7 1 7 2 14 2 20 1 12 1 14 2 16h12zm-27-53v-36h8c2 0 3 1 4 3 2 2 2 4 2 13 0 11 0 13-2 16-1 3-3 4-6 4h-6zm46 53V485h-12v100h12zm30 0v-89h13v-11h-37v11h13v89h11zm50 0v-13h-20v-33h19v-11h-19v-32h20v-11h-31v100h31zm46 0v-1c-1-2-1-5-2-9 0-10-1-20-2-29-1-5-3-7-4-8v-1c2-1 3-2 4-5 2-4 3-8 3-20 0-13-1-19-5-23-2-3-5-4-11-4h-21v100h11v-43h6c3 0 5 2 5 7 1 7 2 14 2 20 1 12 1 14 2 16h12zm-27-53v-36h8c2 0 3 1 4 3 2 2 2 4 2 13 0 11 0 13-2 16-1 3-3 4-6 4h-6zm39-16l6-19v-17h-12v16h4v1l-4 18v1h6zm14 35c-1 3-1 6-1 11 0 11 1 15 3 19 3 4 7 6 14 6 8 0 12-3 15-7 2-4 3-9 3-22 0-14 0-16-2-19-1-3-2-4-5-6-5-3-9-6-13-8-2-2-3-3-4-5-1-3-1-4-1-12 0-7 1-10 2-12 1-1 2-2 5-2s4 1 5 2c1 2 2 5 2 11 0 5 0 7-1 9h10c1-3 1-6 1-12 0-9-1-13-3-16s-6-5-14-5c-7 0-10 1-13 4s-4 8-4 19c0 17 1 21 4 25 4 3 11 7 15 10 3 2 4 3 4 5 1 3 1 5 1 11 0 9 0 12-1 15-2 2-3 3-6 3s-4-1-5-3c-2-2-2-5-2-13 0-3 0-6 1-8h-10z" class="fil3"/>
      <path d="M2429 546v8c0 6 0 11-1 15-1 3-2 5-6 5s-5-1-6-4c-1-4-1-10-1-36 0-27 0-31 1-35 1-3 2-5 6-5 3 0 4 1 5 3 1 3 2 8 2 16v8h11v-9c0-13-2-22-5-25s-7-4-13-4c-10 0-13 2-15 8-2 3-4 7-4 43 0 31 1 39 3 44 3 6 7 9 16 9 14 0 18-11 18-32v-9h-11zm22 32c2 7 6 9 15 9s13-2 16-9c2-6 3-12 3-43 0-32-1-38-3-44-3-6-7-8-16-8s-13 2-15 8c-3 6-4 12-4 44 0 31 1 37 4 43zm21-8c-1 3-2 4-6 4-3 0-5-1-6-4-1-4-1-8-1-36s0-31 1-35c1-3 3-5 6-5 4 0 5 2 6 5 1 4 1 7 1 35s0 32-1 36zm46-13c0 11 0 12-1 15-2 2-3 2-6 2s-4 0-5-2c-2-3-2-4-2-15v-72h-12v72c0 13 0 18 3 23 2 5 7 7 16 7s14-2 16-7c3-5 3-10 3-23v-72h-12v72zm58 28v-1c0-2-1-5-1-9-1-10-2-20-3-29 0-5-2-7-4-8v-1c2-1 4-2 5-5 1-4 2-8 2-20 0-13-1-19-4-23-3-3-6-4-12-4h-21v100h12v-43h5c4 0 5 2 6 7 1 7 1 14 1 20 1 12 1 14 2 16h12zm-26-53v-36h7c2 0 3 1 5 3 1 2 1 4 1 13 0 11 0 13-2 16-1 3-3 4-6 4h-5zm52 53v-89h12v-11h-36v11h12v89h12z" class="fil4"/>
      <path d="M1217 1666v-9l128-42-128 51zm256 0v-9l-128-42 128 51zm-235 38h-15l-5 195 25-21-5-174zm138 0l-5 174 26-21-5-153h-16zm-38 0l-6 184 13 11 13-11-5-184h-15zm-18 174l-6-174h-15l-5 153 26 21zm153-212h-256l128-51 128 51zm-256 13h256v12h-256v-12zm192 168l5-143h15l6 164-26-21zm44-143h15l5 195-26-21 6-174zm-171 143l-5-143h-16l-5 164 26-21z" class="fil2"/>
      <path d="M1218 1914l63-50 64 51 64-51 64 51-64 77h-127z" class="fil0"/>
      <path d="M1397 2006h-103l51 61z" class="fil1"/>
      <g>
        <path d="M1126 2211l8-100h-12c-4 73-5 78-5 84h-1c0-6-1-11-8-84h-12c-8 73-8 78-9 84h-1c0-6 0-11-5-84h-12l8 100h17c6-63 7-69 7-75h1c0 6 1 12 7 75h17zm53 0c-1-3-2-6-2-10 0-10-1-19-2-28-1-6-3-8-5-9 2-1 4-3 5-6 2-3 2-8 2-20 0-13-1-18-4-23-2-3-5-4-11-4h-22v100h12v-42h6c3 0 4 1 5 6 1 7 1 14 2 20 0 12 1 14 2 16h12zm-27-53v-36h7c3 0 4 1 5 3s2 4 2 13c0 11-1 14-2 16-1 3-3 4-7 4h-5zm46 53v-100h-12v100h12zm30 0v-88h12v-12h-36v12h12v88h12zm49 0v-12h-19v-33h19v-12h-19v-31h19v-12h-31v100h31zm47 0c-1-3-1-6-2-10 0-10-1-19-2-28-1-6-3-8-5-9 2-1 4-3 5-6 2-3 3-8 3-20 0-13-2-18-5-23-2-3-5-4-11-4h-22v100h12v-42h6c3 0 4 1 5 6 1 7 1 14 2 20 0 12 1 14 2 16h12zm-27-53v-36h7c3 0 4 1 5 3s2 4 2 13c0 11-1 14-2 16-1 3-3 4-7 4h-5zm38-16l6-19v-16h-12v15h4l1 1-4 19h5zm14 36v10c0 11 1 15 3 19s6 6 13 6c9 0 13-2 15-6 3-5 4-9 4-23 0-13-1-16-2-19s-2-4-6-6c-4-3-9-5-12-8-3-2-3-3-4-5s-1-4-1-12c0-7 1-9 2-11s2-2 5-2 4 0 5 1c1 2 2 5 2 12 0 4-1 6-1 8h10c1-2 1-6 1-12 0-8-1-13-3-16s-6-5-14-5c-7 0-10 1-13 4-3 4-5 8-5 19 0 17 2 21 5 25 4 4 10 7 15 10 2 2 3 3 4 6 1 2 1 4 1 11 0 9 0 11-2 14-1 2-2 3-5 3s-5-1-6-3-1-5-1-12v-8h-10z" class="fil3"/>
        <path d="M1436 2173v8c0 6 0 10-1 14-1 3-3 5-6 5-4 0-5-1-6-4-1-4-2-9-2-36 0-26 1-31 2-35 1-3 2-4 6-4 2 0 4 0 5 2 1 3 2 8 2 16v8h11v-8c0-13-2-23-5-26s-7-4-13-4c-10 0-13 2-16 8-1 4-3 7-3 43 0 31 1 39 3 45 3 6 7 8 16 8 14 0 18-11 18-31v-9h-11zm21 32c3 6 7 8 16 8s13-2 15-8c3-6 4-13 4-44 0-32-1-38-4-44-2-6-6-8-15-8s-13 2-16 8c-2 6-3 12-3 44 0 31 1 38 3 44zm22-9c-1 3-3 4-6 4s-5-1-6-4c-1-4-1-8-1-35 0-28 0-32 1-36 1-3 3-4 6-4s5 1 6 4c1 4 1 8 1 36 0 27 0 31-1 35zm46-13c0 11 0 13-2 15-1 2-2 2-5 2s-5 0-6-2-1-4-1-15v-72h-12v72c0 14 0 18 2 23 3 5 7 7 17 7 9 0 13-2 16-7s3-9 3-23v-72h-12v72zm58 28c-1-3-1-6-1-10-1-10-2-19-3-28-1-6-3-8-4-9 2-1 3-3 5-6 1-3 2-8 2-20 0-13-1-18-5-23-2-3-5-4-11-4h-21v100h11v-42h6c3 0 5 1 5 6 1 7 2 14 2 20 1 12 1 14 2 16h12zm-27-53v-36h8c2 0 3 1 4 3 2 2 2 4 2 13 0 11 0 14-2 16-1 3-3 4-6 4h-6zm53 53v-88h12v-12h-37v12h13v88h12z" class="fil4"/>
      </g>
      <g>
        <path d="M268 1920l63-51 64 52 64-52 65 52-65 77H333z" class="fil0"/>
        <path d="M448 2011H344l52 62z" class="fil1"/>
        <g>
          <path d="M268 1671v-9l128-42-128 51zm256 0l-1-9-127-42 128 51zm0 0H268l128-51 128 51zm-42 38h30l12 194-54-43 12-151zm-68 0h30l12 147-54 43 12-190zm-67 0h30l12 189-54-43 12-146zm-68 0h31l11 152-53 44 11-196zm-11-25h256v12H268v-12z" class="fil2"/>
        </g>
        <g>
          <path d="M190 2190l-13-89h-8l-13 89-14-89h-8l18 106h7l14-87 13 87h8l17-106h-7l-14 89zm49-51v-8c-6 0-12 3-14 10l-1-9h-6v75h8v-53c0-10 4-15 13-15zm16-18v-19h-7v19h7zm0 86v-75h-7v75h7zm36-69v-6h-13v-15h-8v15h-6v6h6v56c0 10 5 14 13 14 3 0 6-1 9-1l-1-7c-2 1-4 1-6 1-5 0-7-3-7-8v-55h13zm42 10c0-11-7-17-18-17s-17 6-17 17v41c0 13 7 19 19 19 5 0 11-1 16-3l-1-6c-4 1-9 2-14 2-9 0-13-4-13-12v-19h28v-22zm-28 16v-16c0-6 4-11 10-11 7 0 10 4 10 11v16h-20zm60-25v-8c-6 0-12 3-14 10l-1-9h-6v75h8v-53c0-10 4-15 13-15zm9-38v14l2 19h4v-33h-6zm44 86v3c0 7-5 11-12 11-5 0-10-1-15-3l-2 6c6 3 11 4 17 4 12 0 19-7 19-18v-3c0-9-4-15-9-18-8-5-18-8-18-19v-3c0-6 4-10 11-10 4 0 8 1 13 3l1-7c-5-2-10-2-15-2-11 0-18 6-18 16v4c0 8 4 14 10 17 7 5 18 9 18 19z" class="fil3"/>
          <path d="M497 2169h-7v20c0 7-6 12-13 12-8 0-13-5-13-12v-70c0-7 5-12 13-12 7 0 13 5 13 12v20h7v-20c0-12-8-18-20-18s-21 6-21 18v70c0 12 9 19 21 19s20-7 20-19v-20zm46-21c0-11-7-17-17-17-11 0-18 6-18 17v42c0 12 7 18 18 18 10 0 17-6 17-18v-42zm-28 0c0-6 4-11 11-11 6 0 10 5 10 11v42c0 7-4 11-10 11-7 0-11-4-11-11v-42zm48-16h-8v58c0 10 4 18 15 18 6 0 11-3 14-9v8h7v-75h-8v53c0 9-3 16-11 16-6 0-9-5-9-11v-58zm62 7v-8c-6 0-12 3-15 10v-9h-6v75h7v-53c0-10 5-15 14-15zm31-1v-6h-13v-15h-7v15h-7v6h7v56c0 10 4 14 12 14 3 0 6-1 9-1l-1-7c-2 1-3 1-6 1-5 0-7-3-7-8v-55h13z" class="fil4"/>
        </g>
      </g>
      <g>
        <path d="M702 2712c-7 34-44 60-88 60-45 0-82-26-88-60 9 9 45 17 88 17s79-8 88-17zm-191 26v-157h-57v111l57 46zm-231 0v-157h57v111l-57 46zm116-285c-4 11-7 20-11 28-18 8-18 16 0 26-1 5-1 11-2 18-26-29-101-18-142 20h-98v18h19c-1 1-1 3-1 4 0 2 1 4 2 6l-50 138c2 1 4 1 6 1l49-134c5 6 14 6 19 0 16 45 32 89 48 134 2 0 4-1 6-1l-50-138c1-2 2-4 2-6 0-1 0-3-1-4h57c56-44 84-48 100 0v139l46 37h1l46-37v-139c16-48 45-44 101 0h56c-1 1-1 3-1 4 0 2 1 4 2 6l-50 138c2 0 4 1 6 1 16-45 32-89 48-134 5 6 14 6 20 0l48 134c2 0 4 0 6-1l-50-138c1-2 2-4 2-6 0-1 0-3-1-4h19v-18h-98c-41-38-116-49-142-20 0-7-1-13-2-18 18-10 18-18 0-26-3-8-7-17-10-28zM89 2712c7 34 44 60 88 60 45 0 82-26 89-60-10 9-46 17-89 17s-78-8-88-17z" class="fil2"/>
        <path d="M280 2753l57-46 58 47 58-47 58 47-59 70H339z" class="fil0"/>
        <path d="M442 2835h-93l47 56z" class="fil1"/>
        <g>
          <path d="M129 3025l-13-85h-7l-13 85-13-85h-7l16 102h7l14-84 12 84h8l16-102h-7l-13 85zm68-19c0-8-4-13-9-15 7-2 11-7 11-16v-18c0-11-7-17-18-17h-21v101h8v-47h10c7 0 11 3 12 12l3 35h8l-4-35zm-17-60c8 0 12 5 12 11v20c0 6-4 11-12 11h-12v-42h12zm42 95v-101h-8v101h8zm11-101v6h15v95h7v-95h15v-6h-37zm83 0h-34v101h34v-6h-27v-42h23v-6h-23v-41h27v-6zm49 66c0-8-4-13-9-15 7-2 11-7 11-16v-18c0-11-7-17-18-17h-21v101h8v-47h9c8 0 12 3 13 12l3 35h7l-3-35zm-17-60c8 0 12 5 12 11v20c0 6-4 11-12 11h-12v-42h12zm32-6v13l2 19h4v-32h-6zm57 85v-11c0-10-5-17-11-22-9-6-21-12-21-24v-12c0-6 5-10 12-10s12 4 12 11v19h7v-19c0-11-8-18-19-18s-19 6-19 17v12c0 9 5 17 11 21 9 7 20 13 20 25v11c0 6-5 11-12 11s-12-5-12-12v-19h-8v19c0 11 8 18 20 18 11 0 20-6 20-17z" class="fil3"/>
          <path d="M508 3005h-7v19c0 7-5 12-12 12-8 0-12-5-12-12v-67c0-7 4-11 12-11 7 0 12 4 12 11v19h7v-19c0-11-8-18-19-18-12 0-20 7-20 18v67c0 11 8 18 20 18 11 0 19-7 19-18v-19zm14-48v67c0 11 8 18 19 18 12 0 20-7 20-18v-67c0-11-8-18-20-18-11 0-19 7-19 18zm32 0v67c0 7-5 12-13 12-7 0-12-5-12-12v-67c0-7 5-11 12-11 8 0 13 4 13 11zm54 67c0 7-5 12-12 12-8 0-12-5-12-12v-84h-8v84c0 11 8 18 20 18 11 0 19-7 19-18v-84h-7v84zm60-18c0-8-3-13-9-15 8-2 11-7 11-16v-18c0-11-7-17-18-17h-21v101h8v-47h10c7 0 11 3 12 12l3 35h8l-4-35zm-16-60c7 0 11 5 11 11v20c0 6-4 11-11 11h-13v-42h13zm26-6v6h15v95h8v-95h15v-6h-38z" class="fil4"/>
        </g>
      </g>
      <g>
        <path d="M1039 2727c6 34 43 60 88 60 44 0 81-26 88-60-9 10-45 17-88 17s-79-7-88-17zm421-25v-112h-57v150h57v-38zm-69 0v38h-92v-168c-16-47-45-43-101 1h-56c0 1 1 2 1 4s-1 4-2 6l50 138h-1c-2 0-3 0-5 1-16-45-33-89-49-134-5 5-13 6-19 0l-48 134c-3 0-5-1-7-1l50-138c-1-2-1-4-1-6v-4h-18v-18h97c41-38 117-50 143-20 0-7 1-13 1-18-18-10-17-19 1-26 3-8 6-18 10-28 4 10 7 20 10 28 19 7 19 16 1 26 1 5 1 11 1 18 26-30 102-18 143 20h97v18h-18v4c0 2 0 4-1 6l50 138c-2 0-4 1-6 1l-49-134c-6 6-14 5-19 0-16 45-32 89-49 134-1-1-3-1-5-1h-1l50-138c-1-2-1-4-1-6v-4h-56c-56-44-85-48-101-1v130zm-104 0v38h-57v-150h57v112zm365 25c-7 34-44 60-89 60-44 0-81-26-88-60 10 10 45 17 88 17s79-7 89-17z" class="fil2"/>
        <path d="M1343 2752h117l-58 70h-113l-59-70z" class="fil0"/>
        <path d="M1392 2834h-94l47 55z" class="fil1"/>
        <g>
          <path d="M1046 2959c-2 0-3 1-3 3v37l-5-12c-1-3-2-3-4-3h-4c-2 0-3 0-4 3l-5 12v-37c0-2-1-3-3-3h-13c-3 0-3 1-3 3v39c0 4 0 8 1 13l4 13c1 2 2 4 4 4h11c2 0 3-1 4-3l4-16c0-2 1-2 1-2h1c1 0 1 0 2 2l3 16c1 2 3 3 4 3h12c1 0 2-2 3-4l4-13c2-5 2-8 2-13v-39c0-2-1-3-3-3h-13zm40 18h7c3 0 3 2 3 5v3c0 3 0 5-3 5h-7v-13zm-3 54c2 0 3-1 3-4v-19h12c2 0 3 1 3 4v15c0 3 1 4 3 4h13c3 0 4-1 4-4v-21c0-8-5-14-11-14 4-2 5-6 5-12v-4c0-10-4-17-17-17h-28c-2 0-3 1-3 3v65c0 3 1 4 3 4h13zm43 0h36c2 0 3-1 3-4v-12c0-2-1-3-3-3h-8v-34h8c2 0 3-1 3-3v-13c0-2-1-3-3-3h-36c-2 0-3 1-3 3v13c0 2 1 3 3 3h8v34h-8c-2 0-3 1-3 3v12c0 3 1 4 3 4zm73 0c2 0 3-1 3-4v-49h12c2 0 3-1 3-3v-13c0-2-1-3-3-3h-45c-2 0-3 1-3 3v13c0 2 1 3 3 3h13v49c0 3 1 4 3 4h14zm63 0c2 0 3-1 3-4v-11c0-3-1-4-3-4h-23v-9h16c2 0 3-1 3-3v-11c0-2-1-4-3-4h-16v-7h23c2 0 3-1 3-4v-12c0-2-1-3-3-3h-39c-2 0-3 1-3 3v65c0 3 1 4 3 4h39zm27-54h6c3 0 4 2 4 5v3c0 3-1 5-4 5h-6v-13zm-3 54c2 0 3-1 3-4v-19h11c3 0 4 1 4 4v15c0 3 1 4 3 4h13c2 0 3-1 3-4v-21c0-8-4-14-10-14 3-2 4-6 4-12v-4c0-10-4-17-16-17h-29c-2 0-3 1-3 3v65c0 3 1 4 3 4h14zm48-35c8 0 13-5 13-15v-19c0-2-1-3-3-3h-17c-2 0-3 1-3 3v15c0 3 1 4 3 4h9v1c0 2-1 3-2 3h-6c-2 0-3 1-3 4v4c0 2 1 3 3 3h6zm45 35c11 0 18-6 18-18v-10c0-11-5-15-13-17l-13-2c-1 0-2-1-2-3s1-3 2-3h20c2 0 3-1 3-4v-12c0-2-1-3-3-3h-24c-11 0-18 6-18 17v11c0 11 6 15 14 17l12 2c2 0 2 1 2 3s0 3-2 3h-23c-2 0-3 1-3 4v11c0 3 1 4 3 4h27z" class="fil3"/>
          <path d="M1466 3031c2 0 3-1 3-4v-12c0-2-1-3-3-3h-17c-4 0-6-2-6-5v-24c0-3 2-5 6-5h17c2 0 3-1 3-3v-13c0-2-1-3-3-3h-21c-14 0-21 6-21 20v32c0 13 7 20 21 20h21zm58-19v-34c0-12-5-21-26-21-22 0-27 9-27 21v34c0 12 5 20 27 20 21 0 26-8 26-20zm-34-4v-27c0-2 2-4 8-4s7 2 7 4v27c0 3-1 5-7 5s-8-2-8-5zm91 4v-50c0-2-1-3-3-3h-13c-2 0-3 1-3 3v46c0 3-1 5-7 5s-7-2-7-5v-46c0-2-1-3-3-3h-13c-3 0-3 1-3 3v50c0 12 5 20 26 20s26-8 26-20zm25-35h6c3 0 4 2 4 5v3c0 3-1 5-4 5h-6v-13zm-3 54c2 0 3-1 3-4v-19h11c3 0 4 1 4 4v15c0 3 1 4 3 4h13c2 0 3-1 3-4v-21c0-8-4-14-10-14 3-2 4-6 4-12v-4c0-10-4-17-16-17h-29c-2 0-3 1-3 3v65c0 3 1 4 3 4h14zm67 0c2 0 3-1 3-4v-49h12c3 0 4-1 4-3v-13c0-2-1-3-4-3h-44c-2 0-3 1-3 3v13c0 2 1 3 3 3h12v49c0 3 1 4 3 4h14z" class="fil5"/>
        </g>
      </g>
      <g>
        <path d="M60 3344l83-48 38 65-84 48-37-65zm217 116l-53-91-35 20 37 63 51 8zm-138-42l46 80-21-4-39-68 14-8zm-3-21l14-9 60 104-3 9-11-2-60-102zm46-4l40 69-8 19-46-80 14-8zm-28 100l-36-63-36 21 53 91 19-49zm26-219l-13 8 38 65 13-7-38-66zm-157 91l12-7 38 65-13 8-37-66zm130-80c-2 1-3 5-2 8l36 62c2 3 6 4 8 2 3-1 4-5 2-7l-36-63c-1-3-5-4-8-2zm-108 62c3-1 6 0 8 2l36 63c2 3 1 6-2 8-3 1-6 1-8-2l-36-63c-2-2-1-6 2-8z" class="fil2"/>
        <path d="M140 3551l19-49 52 9 19-50 53 8-14 75 2-10-68 40 9 3h-1z" class="fil0"/>
        <path d="M269 3544l-57 33 48 18z" class="fil1"/>
        <g>
          <path d="M323 3331c-3 0-4 1-4 4v47l-6-16c-1-3-3-4-6-4h-4c-3 0-5 1-6 4l-6 16v-47c0-3-1-4-4-4h-17c-2 0-4 1-4 4v49c0 6 0 10 2 16l6 18c0 2 2 4 4 4h15c2 0 4-1 4-3l5-21c1-2 1-2 2-2h1c1 0 2 0 2 2l5 21c1 2 3 3 5 3h14c3 0 4-2 5-4l5-18c2-6 2-10 2-15v-50c0-3-1-4-4-4h-16zm51 23h8c4 0 5 2 5 6v4c0 3-1 6-5 6h-8v-16zm-4 68c3 0 4-1 4-4v-25h15c3 0 4 1 4 5v20c0 3 1 4 4 4h17c2 0 4-1 4-4v-27c0-11-6-18-14-19 5-2 7-7 7-14v-6c0-13-6-21-22-21h-36c-2 0-3 1-3 4v83c0 3 1 4 3 4h17zm54 0h46c3 0 4-1 4-4v-15c0-4-1-5-4-5h-10v-43h10c3 0 4-1 4-4v-16c0-3-1-4-4-4h-46c-2 0-3 1-3 4v16c0 3 1 4 3 4h11v43h-11c-2 0-3 1-3 5v15c0 3 1 4 3 4zm93 0c3 0 4-1 4-4v-63h16c2 0 3-1 3-4v-16c0-3-1-4-3-4h-57c-3 0-4 1-4 4v16c0 3 1 4 4 4h15v63c0 3 2 4 4 4h18zm80 0c3 0 4-1 4-4v-15c0-3-1-5-4-5h-29v-11h21c2 0 4-1 4-4v-14c0-3-2-4-4-4h-21v-10h29c3 0 4-2 4-5v-15c0-3-1-4-4-4h-50c-2 0-3 1-3 4v83c0 3 1 4 3 4h50zm34-68h8c4 0 5 2 5 6v4c0 3-1 6-5 6h-8v-16zm-4 68c3 0 4-1 4-4v-25h15c3 0 4 1 4 5v20c0 3 1 4 4 4h17c3 0 4-1 4-4v-27c0-11-5-18-13-19 4-2 6-7 6-14v-6c0-13-5-21-22-21h-35c-3 0-4 1-4 4v83c0 3 1 4 4 4h16zm62-44c10 0 16-6 16-19v-24c0-3-1-4-4-4h-21c-3 0-4 1-4 4v19c0 3 1 5 4 5h11v2c0 2-1 3-2 3h-8c-3 0-4 2-4 5v5c0 3 1 4 4 4h8zm57 44c14 0 23-8 23-22v-13c0-15-7-20-17-22l-16-2c-2 0-3-2-3-4s1-4 3-4h25c3 0 4-1 4-5v-15c0-3-1-4-4-4h-30c-14 0-23 8-23 22v13c0 15 7 20 17 22l16 2c2 1 3 2 3 5 0 2-1 3-3 3h-29c-2 0-4 2-4 5v15c0 3 2 4 4 4h34z" class="fil3"/>
          <path d="M379 3537c3 0 4-2 4-5v-15c0-3-1-5-4-5h-22c-4 0-6-2-6-6v-30c0-5 2-7 6-7h22c3 0 4-1 4-4v-16c0-3-1-4-4-4h-26c-18 0-27 8-27 26v40c0 17 9 26 27 26h26zm74-24v-44c0-15-6-26-33-26s-34 11-34 26v44c0 15 7 26 34 26s33-11 33-26zm-42-5v-34c0-4 1-6 9-6 7 0 9 2 9 6v34c0 3-2 6-9 6-8 0-9-3-9-6zm114 5v-64c0-3-1-4-3-4h-17c-3 0-4 1-4 4v59c0 3-1 6-9 6-7 0-8-3-8-6v-59c0-3-2-4-4-4h-17c-3 0-4 1-4 4v64c0 15 6 26 33 26s33-11 33-26zm32-45h8c4 0 5 2 5 6v4c0 4-1 6-5 6h-8v-16zm-4 69c3 0 4-2 4-5v-25h15c3 0 4 2 4 6v19c0 3 1 5 4 5h17c2 0 3-2 3-5v-27c0-11-5-17-13-18 5-3 6-8 6-15v-6c0-12-5-21-21-21h-36c-2 0-4 1-4 4v83c0 3 2 5 4 5h17zm86 0c2 0 3-2 3-5v-63h16c3 0 4-1 4-4v-16c0-3-1-4-4-4h-57c-2 0-3 1-3 4v16c0 3 1 4 3 4h16v63c0 3 1 5 4 5h18z" class="fil5"/>
        </g>
      </g>
      <g>
        <path d="M1156 3541c52 27 89 56 110 87l-94-164c-6 2-13-2-17-9-4-6-4-14 1-19l-12-21s-10 6-29 17c18 45 31 81 41 109zm-46-178l13-7 6 10-13 7-6-10zm-77-52l83-48 38 65-83 48-38-65zm-14 3c3-1 6 0 8 2l36 62c1 3 0 7-2 8-3 2-7 1-8-2l-36-62c-2-3-1-6 2-8zm107-62c-2 2-3 5-2 8l36 62c2 3 5 4 8 2 3-1 4-5 2-8l-36-62c-1-3-5-3-8-2zm-129 80l12-7 38 64-13 8-37-65zm258 152c-3 59 4 105 19 139l-94-164c4-4 5-12 1-19s-11-10-17-8l-12-21s9-6 29-17c29 38 54 68 74 90zm-151-70l66-38 6 10-66 38-6-10zm4-26l38-22 6 10-38 22-6-10zm45-146l-13 7 38 65 13-8-38-64z" class="fil2"/>
        <path d="M1323 3329h-19l-8 71-8-71h-21l-9 71-6-71h-20l12 88h25l8-65 8 65h26l12-88zm47 88h22l-19-37c10-5 14-12 14-24 0-18-11-27-31-27h-26v88h20v-32h5l15 32zm-20-72h5c8 0 12 4 12 11 0 9-4 13-11 13h-6v-24zm67-16h-20v88h20v-88zm66 0h-58v18h18v70h20v-70h18l2-18zm53 0h-47v88h47v-17h-27v-20h22v-16h-22v-18h25l2-17zm50 88h22l-18-37c9-5 13-12 13-24 0-18-10-27-31-27h-26v88h20v-32h5l15 32zm-20-72h6c7 0 11 4 11 11 0 9-4 13-10 13h-7v-24zm54-25c-5 0-10 4-10 10 0 5 2 8 5 10l-5 20h10l6-16c3-6 4-10 4-13 0-7-4-11-10-11zm45 7c-16 0-28 10-28 26 0 13 6 21 23 28 10 4 13 6 13 12s-4 9-11 9-13-3-18-8l-10 13c6 6 16 12 29 12 19 0 31-11 31-28 0-16-8-23-22-29-12-4-14-6-14-11s3-7 9-7c5 0 11 2 16 7l9-13c-7-7-15-11-27-11z" class="fil3"/>
        <path d="M1329 3440c-20 0-35 17-35 46 0 31 14 47 35 47 11 0 19-6 24-12l-9-13c-4 4-8 7-14 7-9 0-15-9-15-29s6-29 15-29c5 0 9 3 13 6l9-13c-6-6-13-10-23-10zm60 0c-21 0-34 18-34 46 0 30 13 47 34 47 22 0 34-18 34-47s-12-46-34-46zm0 17c10 0 14 8 14 29 0 22-4 30-14 30-9 0-13-8-13-30 0-21 4-29 13-29zm103-15h-20v58c0 11-3 16-10 16s-10-5-10-16v-58h-20v59c0 19 10 32 30 32s30-14 30-32v-59zm51 88h22l-18-36c9-6 13-13 13-24 0-19-10-28-31-28h-26v88h20v-32h6l14 32zm-20-71h6c7 0 11 3 11 11s-4 12-10 12h-7v-23zm98-17h-58v18h19v70h20v-70h17l2-18z" class="fil5"/>
      </g>
      <g>
        <path d="M2073 3474l56 98 8-21-49-85-15 8zm-53-155l91-52 41 71-91 52-41-71zm-16 4c3-1 7 0 9 3l39 67c2 3 1 7-2 9s-7 1-9-2l-39-68c-2-3-1-7 2-9zm118-68c-3 2-4 6-3 9l40 68c1 3 5 4 8 2s4-5 2-8l-39-68c-1-3-5-4-8-3zm-142 88l14-8 40 71-13 8-41-71zm171-99l-14 8 41 71 14-8-41-71zm24 256l16 28 11 1 3-10-16-28-71-124-15 9 72 124zm-23-90l57 99 8-20-50-87-15-26-14 9h-1l15 25zm28 116l-52-90-5-9-15-25-14 8 14 25 18 31 33 57 21 3zm41-47l-47-81-3-4 15-9 2 4 54 94-21-4zm-3-88l56 97-21-4-49-85 14-8zm-69 130l-48-82-2-4-14 9 2 4 54 93 8-20z" class="fil2"/>
        <path d="M2134 3580l19-49 54 8 19-50 54 8-11 62-76 43z" class="fil0"/>
        <path d="M2207 3607l50 18 9-52z" class="fil1"/>
        <g>
          <path d="M2252 3292h15l7 74 1 18h1l2-20 11-72h13l10 72 1 20h2l1-18 6-74h15l-14 123h-16l-9-59-3-26h-1l-2 26-9 59h-16l-15-123zm97 0h23c3 0 5 1 7 1 3 1 5 2 7 4 2 1 4 3 6 6 2 2 3 6 4 10s1 8 1 14v3c0 9-1 17-3 23s-6 10-10 13l17 49h-17l-14-46h-6v46h-15v-123zm18 63c2 0 5 0 7-1 2 0 3-2 4-3 1-2 2-4 3-7 0-3 1-6 1-11v-9c0-4-1-6-1-9-1-2-1-4-3-5-1-2-2-3-4-4-2 0-5-1-7-1h-3v50h3zm46-63h16v123h-16v-123zm43 14h-17v-14h50v14h-17v109h-16v-109zm43-14h39v14h-23v37h18v15h-18v42h24v15h-40v-123zm51 0h24c2 0 4 1 7 1 2 1 4 2 6 4 3 1 4 3 6 6 2 2 3 6 4 10s2 8 2 14v3c0 9-1 17-4 23-2 6-5 10-10 13l17 49h-17l-14-46h-6v46h-15v-123zm18 63c3 0 5 0 7-1 2 0 3-2 5-3 1-2 2-4 2-7 1-3 1-6 1-11v-9c0-4 0-6-1-9 0-2-1-4-2-5-2-2-3-3-5-4-2 0-4-1-7-1h-3v50h3zm64-59l-9 34h-12l5-29v-22h16v17zm16 94v-7c0-3 1-5 1-8h13v15c1 3 1 5 2 7s2 3 3 4 3 1 5 1c3 0 5-1 7-3 1-2 2-5 2-8v-6c0-1-1-3-1-5-1-1-2-3-3-5 0-1-2-3-3-5l-17-24c-3-4-5-9-6-13-2-5-3-9-3-14s1-8 2-12c1-3 2-6 5-9 2-2 4-4 7-5 3-2 6-2 10-2 5 0 9 0 12 2 3 1 5 3 7 6 2 2 3 5 4 8s1 7 1 10v7c-1 2-1 5-2 7h-12v-5c0-7-1-12-2-15-2-4-4-6-8-6-3 0-5 1-7 3-1 2-2 5-2 8 0 2 0 3 1 5 0 1 0 2 1 4 0 1 0 2 1 3s1 2 2 4l19 26c3 5 5 10 7 15 2 4 3 9 3 15 0 4-1 8-2 12-1 3-3 6-5 9-2 2-5 4-8 5-3 2-6 2-10 2-5 0-9-1-12-2-3-2-5-3-7-6-2-2-3-5-4-8s-1-7-1-10z" class="fil3"/>
          <path d="M2351 3549c-2 0-4 0-6-1-2 0-3-1-5-2s-4-2-6-4c-1-2-3-4-4-7-2-3-3-7-3-11-1-5-2-10-2-16v-44c0-6 1-12 2-16 0-5 1-8 3-11 1-3 3-6 4-7 2-2 4-4 6-5 2 0 4-1 5-1 2-1 4-1 6-1 4 0 7 1 10 2 3 2 5 4 7 6 1 2 3 5 3 8 1 3 1 7 1 10v8c0 2 0 4-1 7h-13v-6c0-7 0-12-2-15-1-4-3-5-5-5s-3 0-4 1c-1 0-2 1-3 3s-1 4-1 6c-1 3-1 6-1 10v66c1 3 1 5 2 6 1 2 1 3 3 4 1 0 2 1 4 1 1 0 2-1 3-1 1-1 1-2 2-3s1-2 2-4v-19h15v12c0 10-2 17-6 22-4 4-9 7-16 7zm57 0c-1 0-3 0-5-1-2 0-4-1-6-2s-4-2-5-4c-2-2-4-4-5-7s-2-7-3-11c-1-5-2-10-2-16v-44c0-6 1-12 2-16 1-5 2-8 3-11s3-6 5-7c2-2 3-4 5-5 2 0 4-1 6-1 2-1 4-1 5-1 2 0 4 0 6 1 2 0 3 0 5 1s4 3 6 4c2 2 3 4 5 7 1 3 2 7 3 12 1 4 1 10 1 16v44c0 6 0 11-1 15-1 5-2 8-3 12-2 3-3 5-5 7s-4 3-6 4-4 2-5 2c-2 1-4 1-6 1zm0-14c2 0 3-1 5-1 1-1 2-2 2-3 1-2 2-4 2-7 0-2 1-5 1-9v-56c0-4-1-8-1-10 0-3-1-5-2-7 0-1-1-2-2-3-2-1-3-1-5-1-1 0-3 0-4 1l-3 3c0 2-1 4-1 7-1 2-1 6-1 10v56c0 4 0 7 1 9 0 3 1 5 1 7l3 3c1 0 3 1 4 1zm41-111h16v100c1 3 1 5 2 7 0 1 1 2 3 3 1 0 2 1 4 1 1 0 2-1 4-1 1-1 2-2 2-3 1-2 2-4 2-7 1-2 1-5 1-9v-91h16v86c0 6-1 11-2 15-1 5-2 8-3 11s-3 5-5 7c-1 2-3 3-5 4s-4 1-5 1c-2 1-4 1-5 1-2 0-4 0-5-1-2 0-4 0-6-1s-4-2-5-4c-2-2-3-4-5-7-1-3-2-6-3-11-1-4-1-9-1-15v-86zm67 0h17c2 0 4 0 7 1 2 0 4 0 7 1l6 3c3 2 4 4 6 6 2 3 3 6 4 10s2 9 2 15v3c0 9-1 17-4 23-2 6-5 10-10 12l17 50h-17l-14-46h-6v46h-15v-124zm18 64c3 0 5 0 7-1s3-2 5-4c1-1 2-4 2-6 1-3 1-7 1-11v-10c0-3 0-6-1-8 0-2-1-4-2-6-1-1-3-2-5-3s-4-1-7-1h-3v50h3zm56-49h-17v-15h49v15h-17v109h-15v-109z" class="fil5"/>
        </g>
      </g>
      <g>
        <path d="M1343 1078l1 1 2-1h132l1 1-68 81h-132l-68-82z" class="fil0"/>
        <path d="M1399 1174h-108l54 65z" class="fil1"/>
        <g>
          <path d="M1211 874v-9l134-44-134 53zm268 0v-9l-134-44 134 53zm0 0h-268l134-53 134 53zm-246 40h-16l-4 151h24l-4-151zm46 151l-6-151h-16l-5 151h27zm179-151h16l4 151h-25l5-151zm-46 151l5-151h17l4 151h-26zm-95 0l-4-151h-16l-5 151h25zm20-151l-4 151h25l-5-151h-16zm-126-26h268v12h-268v-12zm167 26l-5 151h26l-5-151h-16z" class="fil2"/>
        </g>
        <g>
          <path d="M1028 1381l-20-95h-7v-10h28v10h-9l13 70 14-70h-10v-10h29v10h-9l13 70 14-70h-9v-10h28v10h-7l-22 95h-8l-14-73-15 73h-9zm110-69h4v12h-1c-7 0-13 2-16 6-4 4-6 10-6 19v22h10v9h-30v-9h8v-49h-7v-9h19v14c2-5 5-9 8-11 3-3 7-4 11-4zm13-12v-13h16v13h-16zm-3 80v-9h7v-49h-7v-9h19v58h7v9h-26zm60 1h-8c-5 0-8-1-9-3-2-2-3-6-3-12v-44h-7v-9h7v-24h12v24h8v9h-8v42c0 4 0 6 1 6 1 1 2 1 5 1h2v10zm20-41h19v-4c0-4 0-8-2-10-2-3-4-4-7-4s-6 1-8 4c-1 2-2 6-2 12v2zm30 20c0 7-2 12-6 16-3 3-8 5-15 5s-12-2-15-6c-4-5-6-12-6-20v-14c0-9 2-17 6-22 3-5 8-7 15-7s13 2 16 7c4 5 6 12 6 21v9h-31v4c0 7 1 11 2 14 2 3 5 4 8 4s5-1 7-3c1-2 2-4 3-8h10zm47-48h5v12h-1c-8 0-13 2-17 6s-5 10-5 19v22h10v9h-30v-9h8v-49h-7v-9h18v14c2-5 5-9 8-11 4-3 7-4 11-4zm27-36h10l-8 30h-10l8-30zm21 104v-24h9c1 5 2 9 5 11 2 3 4 4 8 4 2 0 4 0 5-2 1-1 2-3 2-5s0-3-1-4l-5-5-14-11c-2-2-4-5-6-7-1-3-2-6-2-9 0-5 2-8 4-12 3-3 7-4 12-4 2 0 4 0 6 1s4 3 6 5v-5h9v20h-9c-1-3-2-6-4-8s-4-3-7-3c-2 0-3 1-4 2s-2 2-2 4c0 1 0 3 1 4s3 2 5 4l12 10c3 3 6 5 8 8 1 3 2 6 2 10 0 5-2 9-5 12-3 4-7 5-11 5-3 0-5 0-8-1-2-1-4-3-6-5v5h-10z" class="fil3"/>
          <path d="M1488 1347v3c0 10-2 18-7 24-5 5-12 8-21 8s-16-3-21-8c-5-6-7-14-7-24v-43c0-10 2-19 7-24 4-6 11-9 19-9 4 0 7 1 10 2 4 1 6 3 8 6v-6h10v30h-11v-2c0-7-2-12-4-15-3-3-6-5-10-5-6 0-10 2-12 5-3 4-4 9-4 16v46c0 7 1 12 4 16 2 3 6 5 12 5 5 0 9-2 11-6 3-3 4-8 4-15v-4h12zm41-7c0-6-1-11-3-14-1-3-4-4-8-4-3 0-6 1-7 4-2 3-3 8-3 14v13c0 7 1 11 3 14 1 3 4 4 7 4 4 0 7-1 8-4 2-3 3-7 3-14v-13zm11-2v17c0 8-1 15-5 20-4 4-9 6-17 6-7 0-12-2-16-6-4-5-6-12-6-20v-17c0-8 2-15 6-19 4-5 9-7 16-7 8 0 13 2 17 7 4 4 5 11 5 19zm9-25h19v47c0 4 1 7 2 9s3 3 6 3c2 0 4-1 7-2 2-2 4-3 6-6v-42h-7v-9h19v58h7v9h-18v-8c-3 3-5 5-8 7s-6 2-10 2c-6 0-10-1-12-4s-4-8-4-14v-41h-7v-9zm104-1h5v12h-1c-8 0-13 2-17 6s-5 10-5 19v22h10v9h-30v-9h8v-49h-7v-9h18v14c2-5 5-9 8-11 4-3 7-4 11-4zm36 69h-8c-4 0-7-1-9-3s-2-6-2-12v-44h-8v-9h8v-24h11v24h8v9h-8v42c0 4 1 6 1 6 1 1 3 1 5 1h2v10z" class="fil4"/>
        </g>
      </g>
      <g>
        <path d="M2337 1960l1 1 1-1h106l2 1-55 65h-107l-55-66z" class="fil0"/>
        <path d="M2382 2037h-88l44 53z" class="fil1"/>
        <path d="M2230 1802v145h1v2h21v-147h-22zm392 47c-6 32-40 56-82 56-41 0-75-24-81-56 8 9 42 16 81 16 40 0 73-7 82-16zm-273-137c15-45 74-41 125 0h52v3c0 2 0 4 1 6l-46 127 1 1h5l45-123c5 4 12 4 17 0l45 124c2-1 4-1 6-1l-46-128c1-2 1-4 1-6v-3h17v-17h-91c-37-35-107-46-131-19-1-6-1-12-2-16 17-9 17-18 0-25-3-7-6-15-10-25-3 10-6 18-9 25-17 7-17 16-1 25 0 4-1 10-1 16-24-27-94-16-132 19h-90v17h17c-1 1-1 2-1 3 0 2 1 4 2 6l-47 128c2 0 4 0 6 1l45-124c5 4 13 4 18 0l45 123h5v-1l-46-127c1-2 2-4 2-6 0-1-1-2-1-3h52c52-41 111-45 125 0l1 237h21v-237zm-295 137c7 32 41 56 82 56 42 0 76-24 82-56-9 9-42 16-82 16s-73-7-82-16zm306 100h22v-206h-22v206zm-44-206h-21v206h22l-1-206zm131 59v147h-22v-147h22zm-55 147v-174h22v174h-22zm-107 0l-1-167v-7h-21v174h22z" class="fil2"/>
        <g>
          <path d="M2113 2216l8-103h-12c-5 75-5 80-5 86h-1c-1-6-1-11-9-86h-12c-8 75-9 80-9 86h-1c0-6-1-11-5-86h-13l9 103h17c7-65 7-71 7-77h1c0 6 1 12 7 77h18zm54 0v-1c-1-2-1-5-1-9-1-11-2-20-3-30-1-5-3-8-4-8v-1c2-1 3-3 5-6 1-3 2-8 2-21 0-12-1-18-5-23-2-3-5-4-11-4h-22v103h12v-44h5c4 0 5 1 6 7 1 7 1 14 2 21 0 12 1 14 2 16h12zm-27-55v-36h7c3 0 4 0 5 2s2 4 2 13c0 12-1 15-2 18s-4 3-7 3h-5zm47 55v-103h-13v103h13zm31 0v-91h13v-12h-38v12h13v91h12zm51 0v-13h-20v-34h19v-12h-19v-32h20v-12h-32v103h32zm47 0v-1c0-2-1-5-1-9-1-11-2-20-3-30 0-5-2-8-4-8v-1c2-1 4-3 5-6s2-8 2-21c0-12-1-18-4-23-3-3-6-4-12-4h-22v103h12v-44h6c3 0 5 1 5 7 1 7 2 14 2 21 1 12 1 14 2 16h12zm-27-55v-36h8c2 0 3 0 4 2 2 2 2 4 2 13 0 12 0 15-2 18-1 3-3 3-7 3h-5zm39-16l6-20v-17h-12v16h4l1 1-4 19v1h5zm15 36c-1 3-1 6-1 11 0 12 1 16 3 20 3 4 7 6 14 6 9 0 13-3 16-7 2-4 3-9 3-23s0-16-2-19c-1-3-2-4-6-7s-9-5-12-8c-3-2-3-3-4-5-1-3-1-4-1-12s0-10 2-12c1-2 2-2 5-2 2 0 4 0 5 2s2 4 2 11c0 4 0 7-1 9h10c1-3 1-6 1-12 0-9-1-14-3-17s-6-5-14-5-11 1-14 4c-3 4-4 9-4 20 0 17 1 22 5 25 3 4 10 8 15 11 2 2 3 3 4 5 1 3 1 5 1 12 0 9 0 12-2 14-1 3-2 3-6 3-3 0-4 0-5-2-1-3-1-5-1-13v-9h-10z" class="fil3"/>
          <path d="M2432 2176v9c0 6-1 11-1 14-1 4-3 6-6 6-4 0-6-1-7-5s-1-9-1-37c0-27 0-32 1-36 1-3 3-4 6-4s5 0 6 3c1 2 2 7 2 16v8h11v-9c0-13-2-23-5-26s-7-4-14-4c-9 0-13 2-15 8-2 4-4 8-4 44 0 32 1 40 3 46 3 6 7 9 17 9 14 0 18-11 18-32v-10h-11zm22 33c2 7 7 9 16 9s13-2 16-9c2-6 3-12 3-45 0-32-1-38-3-45-3-6-7-8-16-8s-14 2-16 8c-3 7-4 13-4 45 0 33 1 39 4 45zm22-9c-1 4-3 5-6 5-4 0-5-1-6-5s-2-7-2-36 1-32 2-37c1-3 2-4 6-4 3 0 5 1 6 4 1 5 1 8 1 37s0 32-1 36zm47-13c0 11 0 13-1 16-1 1-3 2-6 2s-5-1-6-2c-1-3-1-5-1-16v-74h-13v74c0 14 0 18 3 23 3 6 7 8 17 8s14-2 17-8c2-5 2-9 2-23v-74h-12v74zm60 29v-1c-1-2-1-5-1-9-1-11-2-20-3-30-1-5-3-8-5-8v-1c3-1 4-3 6-6 1-3 2-8 2-21 0-12-1-18-5-23-2-3-5-4-12-4h-21v103h12v-44h5c4 0 5 1 6 7 1 7 1 14 2 21 0 12 1 14 2 16h12zm-27-55v-36h7c2 0 4 0 5 2s2 4 2 13c0 12-1 15-2 18s-4 3-7 3h-5zm53 55v-91h13v-12h-38v12h13v91h12z" class="fil5"/>
        </g>
      </g>
      <g>
        <path d="M394 1088l1 1 1-1h133l1 1-68 81H330l-69-82z" class="fil0"/>
        <path d="M450 1184H341l55 65z" class="fil1"/>
        <g>
          <path d="M261 884v-9l135-45-135 54zm269 0v-9l-134-45 134 54zm-201 190V924h-27v150h27zm40 0V924h-27v150h27zm13-150v150h27V924h-27zm41 0v150h27V924h-27zm107-40H261l135-54 134 54zm-269 14h269v12H261v-12zm202 176V924h26v150h-26zm40-150h27v150h-27V924zm-214 0h-27v150h27V924z" class="fil2"/>
        </g>
        <g>
          <path d="M71 1371l-12-49h-1l-12 49H19l-19-83h21l12 59h1l14-59h21l15 59 12-59h21l-19 83H71zm52-61h18l1 10h1c2-4 4-7 7-9 3-1 7-2 12-2v18c-5 0-9 1-12 2s-5 4-6 7-2 7-2 13v22h-19v-61zm49-12v-16h20v16h-20zm0 73v-61h20v61h-20zm41 0v-46h-11v-15h11v-18h19v18h14v15h-14v46h-19zm96-26h-37c0 4 1 7 1 9 1 1 2 2 4 3h11c6 0 12 0 19-1v14c-3 1-6 1-11 2h-12c-10 0-17-1-21-3s-7-5-8-9-2-11-2-19c0-9 1-15 2-19 1-5 4-8 8-10s10-3 19-3c8 0 15 1 19 3 3 2 6 5 7 9s1 11 1 20v4zm-27-22c-3 0-5 0-7 1-1 0-2 2-2 3-1 2-1 5-1 8h19c0-3 0-6-1-8 0-2-1-3-2-3-2-1-4-1-6-1zm40-13h18l1 10h1c1-4 4-7 7-9 3-1 7-2 12-2v18c-5 0-9 1-12 2s-5 4-6 7-2 7-2 13v22h-19v-61zm49 5c2 0 4 0 5-1 1 0 2-1 2-2 1-1 1-3 1-5v-2h-7v-17h19v13c0 6 0 10-1 13s-3 5-6 6c-3 2-7 2-13 2v-7zm56 57h-13c-4 0-8-1-12-1v-14c7 0 13 1 19 1 4 0 7 0 8-1 2 0 3 0 4-1v-3-3c-1 0-1-1-2-1s-2 0-4-1l-14-1c-5-1-9-3-10-6-2-3-3-7-3-13s1-10 4-13c2-2 4-4 8-5s8-1 14-1h12c4 1 7 1 10 2v14c-7-1-13-1-18-1h-7c-2 0-3 0-4 1 0 1-1 2-1 3s1 2 1 2c0 1 0 1 1 2h4l14 2c3 0 6 1 8 2 1 1 3 3 4 5 1 3 1 7 1 11 0 6-1 10-3 13s-4 5-8 6c-3 1-7 1-13 1z" class="fil3"/>
          <path d="M550 1370c-2 1-6 1-10 2h-12c-10 0-18-1-23-3-5-3-8-7-10-13-1-6-2-15-2-26 0-12 1-20 2-26 2-6 5-10 10-13 5-2 13-4 23-4 4 0 8 1 12 1 4 1 7 1 10 2v16c-8-1-14-2-16-2-7 0-12 1-14 2-3 1-4 3-5 6 0 3-1 9-1 18 0 8 1 14 1 18 1 3 2 5 5 6 2 1 7 1 14 1 6 0 11 0 16-1v16zm40 2c-9 0-16-1-20-2-4-2-6-5-8-9-1-4-1-11-1-20 0-10 0-16 1-21 2-4 4-7 8-8 4-2 11-3 20-3s16 1 20 3c4 1 6 4 7 8 1 5 2 11 2 21 0 9-1 16-2 20s-3 7-7 9c-4 1-11 2-20 2zm0-15c3 0 6 0 7-1 1 0 2-2 2-4s1-6 1-11c0-6-1-10-1-12s-1-3-2-4-4-1-7-1-6 0-7 1-2 2-2 4c-1 2-1 6-1 12 0 5 0 9 1 11 0 2 1 4 2 4 1 1 4 1 7 1zm79 7h-1c-3 6-9 8-18 8-5 0-9-1-12-2-2-2-4-5-5-8s-1-8-1-14v-38h19v32c0 5 0 8 1 10 0 2 1 3 2 3 1 1 3 1 6 1 2 0 4-1 6-1 1-1 2-2 2-4s1-5 1-9v-32h19v61h-18l-1-7zm34-54h18l1 10h1c1-4 4-7 7-9 3-1 7-2 12-2v18c-5 0-9 1-12 2s-5 4-6 7-2 7-2 13v22h-19v-61zm55 61v-46h-11v-15h11v-18h20v18h13v15h-13v46h-20z" class="fil4"/>
        </g>
      </g>
      <g>
        <path d="M195 4471l-1-1h1v-52l-1-1-41 27v53l42 26z" class="fil0"/>
        <path d="M145 4449v43l-33-22z" class="fil1"/>
        <path d="M1427 4523v-6h-48v6h48zm5-93c0 2-2 4-4 4h-51c-2 0-3-2-3-4s1-3 3-3h51c2 0 4 1 4 3zm0 80c0-2-2-4-4-4h-51c-2 0-3 2-3 4s1 4 3 4h51c2 0 4-2 4-4zm-5-7v-66h-48v28h-28v10h28v28h48zm0-86v6h-48v-6h48z" class="fil2"/>
        <path d="M286 4419c-3 0-5 2-5 5v52l-8-17c-2-4-4-5-8-5h-6c-3 0-5 1-7 5l-8 17v-52c0-3-2-5-5-5h-22c-4 0-5 2-5 5v55c0 6 0 11 2 17l7 20c1 3 4 5 7 5h18c3 0 5-1 6-4l7-23c0-2 1-3 2-3h2c1 0 2 1 2 3l7 23c1 3 3 4 6 4h19c3 0 5-2 6-5l7-19c2-7 2-12 2-18v-55c0-3-1-5-5-5h-21zm67 26h11c5 0 6 3 6 6v5c0 4-1 7-6 7h-11v-18zm-5 76c4 0 5-1 5-5v-28h20c4 0 5 2 5 6v22c0 4 2 5 5 5h22c4 0 5-1 5-5v-30c0-12-6-19-17-21 6-2 8-8 8-16v-6c0-14-6-24-28-24h-47c-3 0-5 2-5 5v92c0 4 2 5 5 5h22zm71 0h61c3 0 5-1 5-5v-17c0-3-2-5-5-5h-14v-47h14c3 0 5-2 5-6v-17c0-3-2-5-5-5h-61c-3 0-5 2-5 5v17c0 4 2 6 5 6h15v47h-15c-3 0-5 2-5 5v17c0 4 2 5 5 5zm122 0c3 0 5-1 5-5v-69h21c3 0 5-2 5-6v-17c0-3-2-5-5-5h-75c-4 0-5 2-5 5v17c0 4 1 6 5 6h21v69c0 4 1 5 5 5h23zm106 0c3 0 5-1 5-5v-17c0-3-2-5-5-5h-39v-12h27c4 0 5-1 5-5v-15c0-4-1-5-5-5h-27v-11h39c3 0 5-2 5-5v-17c0-3-2-5-5-5h-66c-3 0-5 2-5 5v92c0 4 2 5 5 5h66zm44-76h11c4 0 6 3 6 6v5c0 4-2 7-6 7h-11v-18zm-5 76c3 0 5-1 5-5v-28h20c4 0 5 2 5 6v22c0 4 2 5 5 5h22c4 0 5-1 5-5v-30c0-12-7-19-17-21 6-2 8-8 8-16v-6c0-14-7-24-28-24h-47c-3 0-5 2-5 5v92c0 4 2 5 5 5h22zm82-49c12 0 20-7 20-21v-27c0-3-1-5-5-5h-28c-4 0-5 2-5 5v21c0 4 1 5 5 5h15v2c0 3-1 4-4 4h-9c-4 0-5 2-5 6v5c0 4 1 5 5 5h11zm74 49c19 0 30-9 30-25v-15c0-16-9-21-22-23l-22-3c-2 0-3-2-3-5 0-2 1-4 3-4h33c4 0 5-1 5-5v-17c0-3-1-5-5-5h-39c-19 0-29 9-29 25v15c0 16 8 21 21 23l22 3c2 1 3 2 3 5s-1 4-3 4h-38c-4 0-5 2-5 5v17c0 4 1 5 5 5h44z" class="fil3"/>
        <path d="M987 4521c3 0 5-1 5-5v-17c0-3-2-5-5-5h-29c-6 0-8-2-8-7v-33c0-5 2-7 8-7h29c3 0 5-2 5-6v-17c0-3-2-5-5-5h-35c-24 0-35 9-35 29v44c0 20 11 29 35 29h35zm97-27v-48c0-17-9-29-44-29s-44 12-44 29v48c0 18 9 29 44 29s44-11 44-29zm-56-5v-38c0-3 2-6 12-6s12 3 12 6v38c0 4-2 7-12 7s-12-3-12-7zm151 5v-70c0-3-2-5-5-5h-22c-3 0-5 2-5 5v65c0 4-2 6-12 6-9 0-11-2-11-6v-65c0-3-2-5-5-5h-22c-4 0-6 2-6 5v70c0 18 9 29 44 29s44-11 44-29zm41-49h11c5 0 6 3 6 6v5c0 4-1 7-6 7h-11v-18zm-5 76c4 0 5-1 5-5v-28h20c4 0 5 2 5 6v22c0 4 2 5 5 5h22c4 0 5-1 5-5v-30c0-12-6-19-17-21 6-2 8-8 8-16v-6c0-14-6-24-28-24h-47c-3 0-5 2-5 5v92c0 4 2 5 5 5h22zm113 0c3 0 5-1 5-5v-69h20c4 0 6-2 6-6v-17c0-3-2-5-6-5h-74c-4 0-5 2-5 5v17c0 4 1 6 5 6h21v69c0 4 1 5 5 5h23z" class="fil5"/>
        <g>
          <path d="M1802 4521l8-100h-19l-5 68h-1l-10-68h-21l-9 68h-1l-5-68h-21l9 100h30l7-61h1l7 61h30zm75 0c-1-3-1-5-3-22-2-11-3-17-4-20s-3-4-4-5c6-4 9-5 9-26 0-19-5-27-23-27h-30v100h21v-39h3c3 0 4 2 5 11 2 23 3 25 4 28h22zm-34-57v-22h5c4 0 6 2 6 10 0 9-2 12-5 12h-6zm67 57v-100h-21v100h21zm48 0v-79h16v-21h-52v21h16v79h20zm72 0v-22h-24v-19h24v-20h-24v-18h24v-21h-44v100h44zm69 0c-1-3-2-5-4-22-1-11-2-17-4-20-1-3-2-4-3-5 6-4 9-5 9-26 0-19-5-27-23-27h-30v100h20v-39h4c2 0 3 2 4 11 3 23 3 25 4 28h23zm-35-57v-22h6c4 0 5 2 5 10 0 9-1 12-5 12h-6zm55-8l10-19v-20h-21v19h7l1 1-7 18v1h10zm70-4c1-2 1-5 1-10 0-17-6-23-24-23-20 0-25 7-25 26 0 13 1 21 6 26s14 7 20 11c4 3 5 5 5 10 0 8-1 10-6 10s-6-3-6-10v-4h-18c0 3-1 9-1 14 0 16 8 21 24 21 21 0 27-7 27-31 0-17-3-21-9-25-5-4-10-5-18-10-4-2-5-3-5-9s1-8 6-8 6 2 6 8v4h17z" class="fil3"/>
          <path d="M2284 4482c0 8 0 12-2 15 0 2-2 3-4 3-4 0-6-1-6-3-1-3-1-6-1-28s0-25 1-28c0-1 2-2 5-2s5 1 6 2c0 2 1 5 1 16h19v-9c0-21-3-30-26-30-13 0-19 2-22 8-4 6-5 12-5 43s1 39 5 45c3 6 9 8 23 8 22 0 26-10 26-31 0-3-1-6-1-9h-19zm80 32c4-6 5-12 5-44 0-31-1-37-5-43-3-7-9-9-22-9s-19 2-22 9c-4 6-5 12-5 43 0 32 1 38 5 44 3 6 9 8 22 8s19-2 22-8zm-17-17c0 2-2 3-5 3s-4-1-5-3-1-6-1-27c0-23 0-26 1-29 1-1 2-2 5-2s5 1 5 2c1 3 2 6 2 29 0 21-1 25-2 27zm67-8c0 10 0 11-6 11-5 0-6-1-6-11v-69h-21v69c0 17 2 21 5 26s9 7 22 7 19-2 22-7 5-9 5-26v-69h-21v69zm89 31c-1-3-1-6-3-22-1-11-3-17-4-21-1-2-2-3-3-4v-1c5-3 8-4 8-25 0-19-4-27-22-27h-31v100h21v-39h3c3 0 4 2 5 11 3 23 3 25 4 28h22zm-34-57v-22h5c5 0 6 2 6 10 0 9-1 12-5 12h-6zm77 57v-79h16v-21h-52v21h15v79h21z" class="fil5"/>
          <path d="M1698 4471v-54l-41 27v53l41 26z" class="fil0"/>
          <path d="M1649 4449v43l-34-22z" class="fil1"/>
          <path d="M2629 4523v-6h-49v6h49zm5-93c0 2-2 4-4 4h-51c-2 0-3-2-3-4s1-3 3-3h51c2 0 4 1 4 3zm0 80c0-2-2-4-4-4h-51c-2 0-3 2-3 4s1 4 3 4h51c2 0 4-2 4-4zm-5-7v-66h-49v28h-27v10h27v28h49zm0-86v6h-49v-6h49z" class="fil2"/>
        </g>
      </g>
      <g>
        <path d="M289 4177l-11-43-11 43h-22l-16-71h17l11 50h1l11-50h18l12 50h1l10-50h17l-16 71h-22zm44-52h15l1 8h1c1-3 3-6 6-7 2-2 6-2 10-2v15c-5 0-8 1-10 2-3 1-4 3-5 5-1 3-2 7-2 11v20h-16v-52zm41-11v-13h17v13h-17zm0 63v-52h17v52h-17zm35 0v-40h-10v-12h10v-16h16v16h12v12h-12v40h-16zm81-22h-31c0 3 0 5 1 6 0 2 1 3 3 3s5 1 9 1c5 0 10-1 16-1v12c-2 0-5 1-9 1h-10c-8 0-14 0-18-2-3-2-6-5-7-8-1-4-1-9-1-16 0-8 0-13 1-16 1-4 3-7 7-9 3-1 9-2 16-2s13 1 16 2c3 2 5 5 6 8s1 9 1 17v4zm-23-19h-5c-1 1-2 2-2 3-1 2-1 4-1 7h16c0-3 0-5-1-7 0-1-1-2-2-3h-5zm34-11h16v8h1c1-3 3-6 6-7 2-2 6-2 10-2v15c-4 0-8 1-10 2s-4 3-5 5c-1 3-2 7-2 11v20h-16v-52zm41 4c2 0 4-1 5-1s1-1 2-2v-5h-6v-15h17v11c0 5-1 9-2 11 0 3-2 4-4 5-3 1-7 2-12 2v-6zm48 48h-11c-4 0-7-1-10-1v-12c6 1 11 1 16 1h7c1-1 2-1 3-1v-3-2c0-1-1-1-2-1 0 0-1-1-3-1l-12-1c-4-1-7-2-9-5-1-3-2-6-2-11s1-8 3-11c2-2 4-4 7-4 3-1 7-1 12-1h10c4 0 6 1 9 1v12c-6-1-11-1-15-1h-7c-1 0-2 1-3 1v5l1 1h3l12 2c3 0 5 1 7 2 1 1 2 2 3 4s1 5 1 10c0 4 0 8-2 10-2 3-4 4-7 5s-6 1-11 1z" class="fil3"/>
        <path d="M694 4176c-2 0-5 1-8 1h-10c-9 0-16-1-20-3s-7-6-8-11c-2-4-2-12-2-22 0-9 0-16 2-21 1-5 4-9 8-11s11-3 20-3h9c4 0 7 1 9 1v14c-7-1-12-1-14-1-6 0-9 0-11 1-3 1-4 3-5 5v30c1 3 2 5 5 6 2 1 5 1 11 1 5 0 10 0 14-1v14zm34 1c-8 0-14 0-17-2-3-1-6-4-7-7 0-4-1-10-1-17 0-8 1-14 1-18 1-3 4-5 7-7s9-2 17-2c7 0 13 0 16 2 4 2 6 4 7 7 1 4 1 10 1 18 0 7 0 13-1 17-1 3-3 6-7 7-3 2-9 2-16 2zm0-12c3 0 5-1 6-1 1-1 1-2 2-4v-9-10c-1-2-1-3-2-4-1 0-3-1-6-1s-5 1-6 1c-1 1-2 2-2 4v19c0 2 1 3 2 4 1 0 3 1 6 1zm67 5h-1c-3 5-8 7-15 7-5 0-8 0-10-2-3-1-4-4-5-6-1-3-1-7-1-12v-32h16v27c0 4 1 6 1 8 0 1 1 2 2 3h5c2 0 4 0 5-1 1 0 1-1 2-3v-34h17v52h-16v-7zm28-45h16v8h1c1-3 3-6 6-7 2-2 6-2 10-2v15c-4 0-8 1-10 2s-4 3-5 5c-1 3-1 7-1 11v20h-17v-52zm47 52v-40h-9v-12h9v-16h17v16h11v12h-11v40h-17z" class="fil4"/>
        <g>
          <path d="M510 3972c29 46 46 87 49 122v-177c-6-1-10-7-10-15 0-7 4-13 10-14v-23h-31c-7 44-13 80-18 107zM617 3972c-30 46-46 87-50 122v-177c6-1 11-7 11-15 0-7-5-13-11-14v-23h32c6 44 12 80 18 107zM528 3845h71v11h-71zM542 3826h42v11h-42z" class="fil2"/>
          <path d="M752 3909c-5 21-27 37-55 37-27 0-50-16-54-37 6 6 28 10 54 10 27 0 49-4 55-10zm-181-91c9-30 48-27 83 0h34v2c0 1 0 3 1 4l-31 84v1h4l30-82c3 3 8 3 11 0l30 82h4l-31-85c1-1 1-3 1-4v-2h11v-11h-60c-25-24-71-31-87-13 0-4-1-8-1-11 11-6 11-11 0-16-2-5-5-10-7-17-2 7-4 12-6 17-11 5-11 10 0 16-1 3-1 7-1 11-16-18-63-11-88 13h-60v11h12s-1 1-1 2 1 3 1 4l-30 85h3l30-82c4 3 9 3 12 0l30 82h3l1-1-31-84c1-1 1-3 1-4v-2h34c34-27 73-30 83 0h15zm-196 91c4 21 27 37 54 37 28 0 50-16 54-37-5 6-27 10-54 10-26 0-48-4-54-10z" class="fil2"/>
        </g>
      </g>
      <g>
        <path d="M1812 3902c-7 0-12 6-12 13 0 5 3 9 7 11l-4 10c-1 1-1 2-1 2 0 4 4 7 8 7 2 0 4-1 5-3 9-22 10-25 10-27 0-7-6-13-13-13zm-516 14c1-1 1-2 1-2 0-6-9-10-15-10-4 0-7 1-8 5l-30 100-15-64c-1-5-7-7-12-7s-11 2-12 7l-15 64-30-100c0-4-4-5-8-5-6 0-15 4-15 10 0 0 0 1 1 2l36 116c2 5 9 8 16 8s14-3 15-8l12-50 12 50c1 5 8 8 15 8s14-3 16-8l36-116zm21 115c0 5 6 8 12 8s12-3 12-8v-48h16l26 51c2 4 5 6 8 6 7 0 15-7 15-13 0 0 0-2-1-3l-24-44c14-5 24-16 24-37 0-30-20-39-44-39h-36c-5 0-8 4-8 7v120zm44-106c12 0 20 5 20 20 0 14-8 19-20 19h-20v-39h20zm69 106c0 5 6 8 12 8s12-3 12-8v-117h-24v117zm52-127c-5 0-8 6-8 11 0 6 3 11 8 11h27v105c0 5 6 8 12 8s12-3 12-8v-105h27c5 0 8-6 8-11s-3-11-8-11h-78zm130 21h52c5 0 8-5 8-11 0-5-3-10-8-10h-65c-6 0-11 3-11 8v119c0 5 5 8 11 8h65c5 0 8-5 8-10 0-6-3-11-8-11h-52v-37h28c5 0 8-5 8-9 0-5-3-10-8-10h-28v-37zm81 106c0 5 6 8 12 8s12-3 12-8v-48h16l26 51c2 4 5 6 8 6 7 0 15-7 15-13 0 0 0-2-1-3l-24-44c14-5 24-16 24-37 0-30-19-39-43-39h-37c-5 0-8 4-8 7v120zm45-106c12 0 19 5 19 20 0 14-7 19-19 19h-21v-39h21zm144 94c-19 0-24-14-31-14-6 0-11 8-11 13 0 10 19 23 43 23 26 0 44-14 44-40 0-48-59-40-59-63 0-9 7-14 21-14 15 0 19 7 25 7 7 0 10-9 10-13 0-12-25-15-35-15-22 0-45 10-45 37 0 44 59 35 59 63 0 11-10 16-21 16z" class="fil3"/>
        <path d="M2042 3943c0 6 5 8 12 8 8 0 12-2 12-12 0-21-19-35-44-35-24 0-43 11-43 42v52c0 31 19 42 43 42 25 0 44-14 44-36 0-10-4-12-13-12-6 0-11 2-11 7-1 8-2 20-19 20-13 0-20-7-20-21v-52c0-14 7-21 19-21 18 0 19 13 20 18zM2131 4040c24 0 43-11 43-42v-52c0-31-19-42-43-42s-43 11-43 42v52c0 31 19 42 43 42zm19-42c0 14-7 21-19 21s-19-7-19-21v-52c0-14 7-21 19-21s19 7 19 21v52zM2266 3998c0 14-7 21-20 21s-20-7-20-21v-87c0-5-6-7-12-7s-12 2-12 7v87c0 31 19 42 44 42s44-11 44-42v-87c0-5-6-7-12-7s-12 2-12 7v87zM2319 4031c0 5 6 8 12 8s12-3 12-8v-48h16l26 51c2 4 5 6 8 6 7 0 15-7 15-13 0 0 0-2-1-3l-24-44c14-5 24-16 24-37 0-30-19-39-43-39h-37c-5 0-8 4-8 7v120zm45-106c12 0 19 5 19 20 0 14-7 19-19 19h-21v-39h21z" class="fil4"/>
        <path fill="none" d="M1442 3890l5 9h-10l5-9zm6 11l6 10h-24l6-10h12z"/>
        <path d="M1441 3911h13l-6-10h-12l-6 10z" class="fil0"/>
        <path d="M1447 3899h-10l5-9z" class="fil1"/>
        <path d="M2517 3891h-6v45h6v-45zm-61 45v95c0 5 6 8 12 8s12-3 12-8v-95h18v-45h-60v45h18zm-24-49c2 0 3 2 3 3v47c0 2-1 3-3 3s-4-1-4-3v-47c0-1 2-3 4-3zm73 0c-2 0-4 2-4 3v47c0 2 2 3 4 3s3-1 3-3v-47c0-1-1-3-3-3zm-85 4h5v45h-5v-45z" class="fil2"/>
      </g>
    </g>
  </g>
</svg>
