<svg xmlns="http://www.w3.org/2000/svg" viewBox="0 0 2433 2007">
  <path fill="#f9b89a" d="M1212 1123l3 2 3-2h342l4 2-190 227h-314l-190-229z"/>
  <path fill="#2b3638" d="M1357 1370h-281l141 168z"/>
  <path fill="#e62929" d="M870 616v465l1-1v8h70l-1-472h-70zm1256 151c-19 101-129 178-262 178-132 0-242-77-262-178 29 29 135 50 262 50 128 0 234-21 262-50zm-874-441c46-142 235-131 401 0h167c-2 3-2 7-2 11 0 7 1 13 4 18l-148 410h2c6 1 11 2 17 3l143-397c17 15 41 15 57 0l144 397c7-1 13-2 19-3l-149-410c3-5 5-11 5-18 0-4-1-8-2-11h56v-54h-290c-122-112-346-146-422-59-2-21-3-38-5-52 53-30 52-57-1-79-10-24-21-51-31-82-11 31-21 58-31 82-54 22-54 49-1 79-2 14-4 31-5 52-77-87-301-53-422 59H468v54h55c-1 3-2 7-2 11 0 7 2 13 5 18L378 765l18 3 144-397c16 15 40 15 57 0l144 397c5-1 10-2 16-3h2L611 355c3-5 5-11 5-18 0-4-1-8-2-11h166c166-131 355-142 402 0l1 762h69V326zM307 767c20 101 129 178 262 178s242-77 262-178c-28 29-135 50-262 50s-234-21-262-50zm980 321h70V428h-70v660zm-140-660h-70l1 660h69V428zm417 188v472h-70V616h70zm-174 472l-1-538v-19h70v557h-69zm-345 0l-1-538v-19h-70v19l2 538h69z"/>
  <g fill-rule="nonzero">
    <path fill="#2b3638" d="M199 1872l-29-222h-57l-29 222-25-222H0l56 356h57l27-221 27 221h57l56-356h-56l-25 222zm264 5c-3-22-12-37-27-46 22-9 33-29 33-60v-54c0-41-24-67-75-67h-86v354h57v-150h18c15 0 23 8 25 25l9 125h57l-11-127zm-71-179c13 0 20 7 20 20v68c0 13-7 20-20 20h-27v-108h27zm176 306v-354h-57v354h57zm34-354v48h44v306h57v-306h44v-48H602zm315 0H781v354h136v-49h-79v-104h65v-49h-65v-104h79v-48zm190 227c-3-22-11-37-27-46 22-9 33-29 33-60v-54c0-41-24-67-75-67h-86v354h57v-150h18c15 0 24 8 25 25l9 125h57l-11-127zm-71-179c13 0 20 7 20 20v68c0 13-7 20-20 20h-27v-108h27zm109-48v57l23 68h27v-125h-50zm243 287v-32c0-35-16-62-36-79-30-24-67-42-67-74v-37c0-12 7-18 22-18s24 8 24 21v58h56v-58c0-43-29-71-80-71-52 0-79 26-79 68v38c0 97 103 98 103 154v32c0 11-9 18-24 18-14 0-25-7-25-21v-59h-55v59c0 43 27 71 79 71 53 0 82-27 82-70z"/>
    <path fill="#e62929" d="M1653 1877h-55v59c0 14-11 21-26 21s-23-7-23-21v-218c-4-28 50-27 49 0v58h55v-58c0-43-29-71-81-71s-81 28-81 71v218c0 43 29 71 81 71s81-28 81-71v-59zm35-159v218c0 43 29 71 81 71s81-28 81-71v-218c0-43-29-71-81-71s-81 28-81 71zm105 0v218c3 27-51 27-47 0v-218c-4-28 50-28 47 0zm204 218c0 14-8 21-24 21-15 0-24-7-24-21v-286h-57v286c0 43 29 71 81 71s81-28 81-71v-286h-57v286zm257-59c-2-22-11-37-26-46 22-9 32-29 32-60v-54c0-41-23-67-74-67h-86v354h57v-150h18c15 0 23 8 25 25l9 125h57l-12-127zm-70-179c13 0 19 7 19 20v68c0 13-6 20-19 20h-27v-108h27zm104-48v48h44v306h57v-306h44v-48h-145z"/>
  </g>
</svg>
