<svg xmlns="http://www.w3.org/2000/svg" viewBox="0 0 4722 16433">
  <defs>
    <style>
      .fil15{fill:none}.fil0{fill:#07c1be}.fil13{fill:#1a7f91}.fil12{fill:#6c8716}.fil11{fill:#991386}.fil1{fill:#ee7800}.fil20{fill:#fefefe;fill-rule:nonzero}.fil10,.fil14,.fil17,.fil4{fill:#07c1be;fill-rule:nonzero}.fil10,.fil17{fill:#1a7f91}.fil17{fill:#3b5379}.fil5,.fil6,.fil9{fill:#627ead;fill-rule:nonzero}.fil9{fill:#6c8716}.fil3,.fil7,.fil8{fill:#991386;fill-rule:nonzero}.fil3,.fil7{fill:#ee7800}.fil3{fill:#fff}
    </style>
  </defs>
  <g id="Layer_x0020_1">
    <path d="M3396 15615H2361c-852 0-1542-691-1542-1543s690-1542 1542-1542v-819C1057 11711 0 12768 0 14072s1057 2361 2361 2361h1035v-818z" class="fil0"/>
    <path d="M2361 3904v818c1304 0 2361-1057 2361-2361S3665 0 2361 0H1327v819h1034c852 0 1543 690 1543 1542s-691 1543-1543 1543z" class="fil1"/>
    <path fill="#ffefde" d="M2361 819c852 0 1543 690 1543 1542s-691 1543-1543 1543S819 3213 819 2361 1509 819 2361 819z"/>
    <path d="M3699 1246l243-209-45-51-242 208 44 52zm122 161l259-186-35-50-90 65-2-2 64-101-38-53-260 187 36 49 139-100 2 2-96 161 21 28zm49 84l276-161-34-59-276 161 34 59zm64 121l226-113 22 45 61-30-75-149-61 30 23 45-226 113 30 59zm54 128l298-118-25-63-298 118 25 63zm61 189l299-118-30-107-317 53 18 65 72-15 9 30-70 26 19 66zm112-112l-7-25 113-21 2 5-108 41zm-78 262l69-16-15-67 243-56-15-64-312 72 30 131zm141 197c-26 2-38 3-50-1-5-1-8-6-8-14-1-13 1-17 6-19 9-4 19-6 89-12 69-5 80-4 89-2 5 1 8 5 9 16s-1 16-7 18c-5 2-15 4-48 7l4 62c11-1 21-1 29-2 68-5 93-19 87-90-3-40-11-60-30-69-21-10-40-13-138-5-99 7-123 14-141 26-18 13-24 33-20 75 5 71 37 80 105 75 9-1 18-2 28-4l-4-61zm-109 250c19 13 38 19 138 27 101 7 120 4 140-5 20-10 29-28 32-69s-3-60-21-73c-19-12-37-18-138-26-100-7-120-4-140 5-20 10-28 28-31 69-3 40 1 60 20 72zm57-50c-5-2-7-6-6-17 1-10 3-14 9-15 8-3 20-3 88 2 70 5 82 8 90 11 5 2 7 7 6 17 0 11-3 14-9 16-8 2-20 2-90-3-68-5-80-7-88-11zm-109 258l315 59 11-60-110-21 1-2 117-24 12-64-314-58-11 59 168 32v2l-183 43-6 34zm85 160c-26-7-37-10-47-17-4-3-5-8-3-17 4-12 7-16 13-16 9 0 19 1 87 20 67 19 77 23 84 28 5 3 7 8 4 18s-7 15-13 15-15-1-48-11l-16 60c10 4 19 7 27 9 65 18 94 14 113-56 11-38 10-59-6-75-15-16-32-25-128-52-95-26-120-28-141-23-21 6-33 23-44 64-20 69 8 88 73 106 9 2 18 4 28 6l17-59zm-197 182l66 26 28-69 56 22-28 69 60 24 28-68 52 20-28 70 63 25 52-131-297-119-52 131zm-42 84l86 43-13 26c-26 51-6 79 69 116 73 37 105 36 130-15l44-85-286-145-30 60zm145 73l81 41-7 14c-6 12-15 13-46-2-34-17-42-26-36-37l8-16zm-263 125l212 136-27 43 57 36 90-140-57-37-27 43-213-136-35 55zm33 311c5 7 11 13 24 25 41 35 67 30 104-13 41-47 36-73-9-112-32-28-52-44-75-40-23 2-45 18-69 25-14 3-22 2-34-8-21-18-22-25-11-37 11-13 19-10 38 6 3 3 6 5 8 8l36-42c-6-8-19-21-31-32-38-33-67-26-102 14-42 49-37 79 20 128 41 35 57 39 79 33 19-5 33-15 61-25 12-4 19-4 33 8 15 13 18 20 7 32-10 12-17 11-32-3-6-4-8-6-11-9l-36 42z" class="fil3"/>
    <g id="_1673389285520">
      <path d="M2169 1438c-6 0-11-10-11-22s5-22 11-22h385c6 0 11 10 11 22s-5 22-11 22h-385zM2169 1967c-6 0-11-10-11-22s5-22 11-22h385c6 0 11 10 11 22s-5 22-11 22h-385z" class="fil4"/>
      <path d="M2243 1430c7 139 69 187 131 234 69 54 138 107 146 265l-41 2c-6-139-68-187-130-235-69-53-139-106-146-265l40-1z" class="fil4"/>
      <path d="M2520 1431c-3 69-18 118-40 156s-43 59-72 83l-34-26c27-21 52-44 71-77 18-33 31-76 34-137l41 1zm-173 286c-25 21-54 50-72 82-17 32-29 74-32 132l-40-2c3-64 17-112 37-149 20-38 46-65 74-88l33 25z" class="fil4"/>
      <path d="M2283 1463h172c6 0 10 5 10 10 0 6-4 10-10 10h-172c2-3 3-6 3-10 0-3-1-7-3-10zm-13 7c-1 0-2-1-3-1s-2 1-3 1c-1 1-1 2-1 3s0 2 1 3 2 1 3 1 2 0 3-1c0-1 1-2 1-3s-1-2-1-3zM2296 1502h147c6 0 10 5 10 10 0 6-4 10-10 10h-147c2-3 3-6 3-10 0-3-1-7-3-10zm-14 7c-1 0-2-1-3-1s-2 1-2 1c-1 1-2 2-2 3s1 2 1 3h1c0 1 1 1 2 1s2 0 3-1 1-2 1-3 0-2-1-3zM2317 1541h105c6 0 10 5 10 10 0 6-4 10-10 10h-105c2-3 3-6 3-10s-1-7-3-10zm-14 7s-1-1-2-1-2 1-3 1c-1 1-1 2-1 3s0 2 1 3 2 1 3 1 2 0 2-1h1c0-1 1-2 1-3s-1-2-2-3zM2338 1579h63c6 0 10 4 10 10s-4 10-10 10h-63c2-3 3-6 3-10s-1-7-3-10zm-14 7c0-1-1-1-3-1-1 0-2 0-2 1-1 1-1 2-1 3s0 2 1 3c0 0 1 1 2 1 2 0 3-1 3-1 1-1 1-2 1-3s0-2-1-3z" class="fil4"/>
      <circle cx="2267" cy="1473" r="10" class="fil0"/>
      <circle cx="2279" cy="1512" r="10" class="fil0"/>
      <circle cx="2301" cy="1551" r="10" class="fil0"/>
      <circle cx="2321" cy="1589" r="10" class="fil0"/>
      <g>
        <path d="M2283 1898h172c6 0 10-5 10-10 0-6-4-11-10-11h-172c2 3 3 7 3 11 0 3-1 7-3 10zm-13-8c-1 1-2 1-3 1s-2 0-3-1c-1 0-1-1-1-2 0-2 0-3 1-3 1-1 2-1 3-1s2 0 3 1c0 0 1 1 1 3 0 1-1 2-1 2zM2296 1859h147c6 0 10-5 10-10 0-6-4-11-10-11h-147c2 3 3 7 3 11 0 3-1 7-3 10zm-14-8c-1 1-2 2-3 2s-2-1-2-2c-1 0-2-1-2-2 0-2 1-3 1-3h1c0-1 1-1 2-1s2 0 3 1c1 0 1 1 1 3 0 1 0 2-1 2zM2317 1820h105c6 0 10-5 10-10 0-6-4-11-10-11h-105c2 3 3 7 3 11 0 3-1 7-3 10zm-14-8c0 1-1 2-2 2s-2-1-3-2c-1 0-1-1-1-2s0-2 1-3 2-1 3-1 2 0 2 1h1c0 1 1 2 1 3s-1 2-2 2zM2338 1782h63c6 0 10-5 10-10 0-6-4-10-10-10h-63c2 3 3 6 3 10s-1 7-3 10zm-14-7s-1 1-3 1c-1 0-2-1-2-1-1-1-1-2-1-3s0-2 1-3c0-1 1-1 2-1 2 0 3 0 3 1 1 1 1 2 1 3s0 2-1 3z" class="fil4"/>
        <circle cx="2267" cy="1888" r="10" class="fil0"/>
        <circle cx="2279" cy="1849" r="10" class="fil0"/>
        <circle cx="2301" cy="1810" r="10" class="fil0"/>
        <circle cx="2321" cy="1772" r="10" class="fil0"/>
      </g>
      <g>
        <path d="M2879 1438c-6 0-11-10-11-22s5-22 11-22h385c6 0 11 10 11 22s-5 22-11 22h-385zM2879 1967c-6 0-11-10-11-22s5-22 11-22h385c6 0 11 10 11 22s-5 22-11 22h-385z" class="fil5"/>
        <path d="M2953 1430c7 139 69 187 131 234 69 54 138 107 146 265l-41 2c-6-139-68-187-130-235-70-53-139-106-146-265l40-1z" class="fil5"/>
        <path d="M3230 1431c-3 69-19 118-40 156-22 38-43 59-73 83l-33-26c27-21 52-44 70-77 19-33 32-76 35-137l41 1zm-173 286c-25 21-54 50-72 82-17 32-29 74-32 132l-40-2c3-64 17-112 37-149 20-38 46-65 74-88l33 25z" class="fil5"/>
      </g>
      <g>
        <path d="M1460 1438c-6 0-11-10-11-22s5-22 11-22h385c6 0 11 10 11 22s-5 22-11 22h-385zM1460 1967c-6 0-11-10-11-22s5-22 11-22h385c6 0 11 10 11 22s-5 22-11 22h-385z" class="fil4"/>
        <path d="M1535 1430c6 139 68 187 130 234 70 54 139 107 146 265l-40 2c-7-139-69-187-131-235-69-53-138-106-146-265l41-1z" class="fil4"/>
        <path d="M1811 1431c-3 69-18 118-40 156s-42 59-72 83l-33-26c26-21 51-44 70-77s32-76 35-137l40 1zm-173 286c-25 21-54 50-71 82-18 32-30 74-32 132l-41-2c3-64 17-112 37-149 20-38 47-65 75-88l32 25z" class="fil4"/>
        <g>
          <path d="M1575 1463h172c5 0 10 5 10 10 0 6-5 10-10 10h-172c2-3 3-6 3-10 0-3-1-7-3-10zm-14 7s-1-1-3-1c-1 0-2 1-2 1-1 1-2 2-2 3s1 2 2 3c0 1 1 1 2 1 2 0 3 0 3-1 1-1 1-2 1-3s0-2-1-3zM1587 1502h148c5 0 10 5 10 10 0 6-5 10-10 10h-148c2-3 3-6 3-10 0-3-1-7-3-10zm-13 7c-1 0-2-1-3-1s-2 1-3 1c-1 1-1 2-1 3s0 2 1 3 2 1 3 1 2 0 3-1c0-1 1-2 1-3s-1-2-1-3zM1609 1541h104c6 0 11 5 11 10 0 6-5 10-11 10h-104c2-3 3-6 3-10s-1-7-3-10zm-14 7c-1 0-2-1-3-1s-2 1-3 1c0 1-1 2-1 3s1 2 1 3c1 1 2 1 3 1s2 0 3-1 1-2 1-3 0-2-1-3zM1630 1579h63c5 0 10 4 10 10s-5 10-10 10h-63c1-3 3-6 3-10s-2-7-3-10zm-14 7c-1-1-2-1-3-1s-2 0-3 1c0 1-1 2-1 3s1 2 1 3c1 0 2 1 3 1s2-1 3-1c1-1 1-2 1-3s0-2-1-3z" class="fil4"/>
          <circle cx="1558" cy="1473" r="10" class="fil0"/>
          <circle cx="1571" cy="1512" r="10" class="fil0"/>
          <circle cx="1592" cy="1551" r="10" class="fil0"/>
          <circle cx="1613" cy="1589" r="10" class="fil0"/>
        </g>
        <g>
          <path d="M1730 1898h-172c-5 0-10-5-10-10 0-6 5-11 10-11h172c-2 3-3 7-3 11 0 3 1 7 3 10zm14-8c1 1 2 1 3 1s2 0 3-1c0 0 1-1 1-2 0-2-1-3-1-3-1-1-2-1-3-1s-2 0-3 1c-1 0-1 1-1 3 0 1 0 2 1 2zM1718 1859h-148c-5 0-10-5-10-10 0-6 5-11 10-11h148c-2 3-3 7-3 11 0 3 1 7 3 10zm13-8c1 1 2 2 3 2s2-1 3-2c1 0 1-1 1-2 0-2 0-3-1-3-1-1-2-1-3-1s-2 0-3 1c0 0-1 1-1 3 0 1 1 2 1 2zM1696 1820h-104c-6 0-11-5-11-10 0-6 5-11 11-11h104c-2 3-3 7-3 11 0 3 1 7 3 10zm14-8c1 1 2 2 3 2s2-1 3-2c0 0 1-1 1-2s-1-2-1-3c-1-1-2-1-3-1s-2 0-3 1-1 2-1 3 0 2 1 2zM1675 1782h-63c-5 0-10-5-10-10 0-6 5-10 10-10h64c-2 3-3 6-3 10s1 7 2 10zm14-7c1 0 2 1 3 1s2-1 3-1c1-1 1-2 1-3s0-2-1-3-2-1-3-1-2 0-3 1c0 1-1 2-1 3s1 2 1 3z" class="fil4"/>
          <circle cx="1747" cy="1888" r="10" class="fil0"/>
          <circle cx="1734" cy="1849" r="10" class="fil0"/>
          <circle cx="1713" cy="1810" r="10" class="fil0"/>
          <circle cx="1692" cy="1772" r="10" class="fil0"/>
        </g>
      </g>
      <g>
        <path d="M2169 2144c-6 0-11-10-11-22s5-22 11-22h385c6 0 11 10 11 22s-5 22-11 22h-385zM2169 2673c-6 0-11-9-11-21s5-22 11-22h385c6 0 11 10 11 22s-5 21-11 21h-385z" class="fil4"/>
        <path d="M2243 2136c7 139 69 187 131 235 69 53 138 107 146 265l-41 2c-6-140-68-187-130-235-69-53-139-107-146-265l40-2z" class="fil4"/>
        <path d="M2479 2136c-6 139-68 187-130 235-69 53-139 107-146 265l40 2c7-140 69-187 131-235 69-53 138-107 146-265l-41-2z" class="fil4"/>
        <g>
          <path d="M2284 2170h171c6 0 11 4 11 10 0 5-5 10-11 10h-171c2-3 3-6 3-10s-1-7-3-10zm-14 7c-1-1-2-1-3-1s-2 0-3 1c0 1-1 2-1 3s1 2 1 3c1 0 2 1 3 1s2-1 3-1c1-1 1-2 1-3s0-2-1-3zM2296 2209h148c5 0 10 4 10 10 0 5-5 10-10 10h-148c2-3 3-6 3-10s-1-7-3-10zm-14 7c0-1-1-1-2-1-2 0-3 0-3 1-1 1-1 2-1 3s0 2 1 3c0 0 1 1 3 1 1 0 2-1 2-1 1-1 2-2 2-3s-1-2-2-3zM2318 2248h104c6 0 10 4 10 10 0 5-4 10-10 10h-105c2-3 3-7 3-10 0-4-1-7-2-10zm-14 7c-1-1-2-1-3-1s-2 0-3 1-1 2-1 3 0 2 1 3c1 0 2 1 3 1s2-1 3-1c0-1 1-2 1-3s-1-2-1-3zM2338 2285h63c6 0 11 5 11 10 0 6-5 11-11 11h-63c2-3 3-7 3-11 0-3-1-7-3-10zm-13 8c-1-1-2-2-3-2s-2 1-3 2c-1 0-1 1-1 2 0 2 0 3 1 3 1 1 2 1 3 1s2 0 3-1c0 0 1-1 1-3 0-1-1-2-1-2z" class="fil4"/>
          <circle cx="2267" cy="2180" r="10" class="fil0"/>
          <circle cx="2280" cy="2219" r="10" class="fil0"/>
          <circle cx="2301" cy="2258" r="10" class="fil0"/>
          <circle cx="2322" cy="2295" r="10" class="fil0"/>
        </g>
        <g>
          <path d="M2284 2604h171c6 0 11-4 11-10s-5-10-11-10h-171c2 3 3 6 3 10s-1 7-3 10zm-14-7c-1 1-2 1-3 1s-2 0-3-1c0-1-1-2-1-3s1-2 1-3c1 0 2-1 3-1s2 1 3 1c1 1 1 2 1 3s0 2-1 3zM2296 2565h148c5 0 10-4 10-10s-5-10-10-10h-148c2 3 3 6 3 10s-1 7-3 10zm-14-7c0 1-1 1-2 1-2 0-3 0-3-1-1-1-1-2-1-3s0-2 1-3c0 0 1-1 3-1 1 0 2 1 2 1 1 1 2 2 2 3s-1 2-2 3zM2318 2526h104c6 0 10-4 10-10 0-5-4-10-10-10h-105c2 3 3 6 3 10s-1 7-2 10zm-14-7c-1 1-2 1-3 1s-2 0-3-1-1-2-1-3 0-2 1-3c1 0 2-1 3-1s2 1 3 1c0 1 1 2 1 3s-1 2-1 3zM2338 2489h63c6 0 11-5 11-11 0-5-5-10-11-10h-63c2 3 3 7 3 11 0 3-1 7-3 10zm-13-8c-1 1-2 1-3 1s-2 0-3-1c-1 0-1-1-1-2 0-2 0-3 1-3 1-1 2-1 3-1s2 0 3 1c0 0 1 1 1 3 0 1-1 2-1 2z" class="fil4"/>
          <circle cx="2267" cy="2594" r="10" class="fil0"/>
          <circle cx="2280" cy="2555" r="10" class="fil0"/>
          <circle cx="2301" cy="2516" r="10" class="fil0"/>
          <circle cx="2322" cy="2479" r="10" class="fil0"/>
        </g>
      </g>
      <g>
        <path d="M2879 2140c-6 0-11-9-11-21s5-22 11-22h385c6 0 11 10 11 22s-5 21-11 21h-385zM2879 2670c-6 0-11-10-11-22s5-22 11-22h385c6 0 11 10 11 22s-5 22-11 22h-385z" class="fil6"/>
        <path d="M2953 2133c7 139 69 186 131 234 69 54 138 107 146 265l-41 2c-6-139-68-187-130-235-70-53-139-107-146-265l40-1z" class="fil6"/>
        <path d="M3189 2133c-6 139-68 186-130 234-70 54-139 107-146 265l40 2c7-139 69-187 131-235 69-53 138-107 146-265l-41-1z" class="fil6"/>
        <g>
          <path d="M2994 2166h171c6 0 11 4 11 10s-5 10-11 10h-171c2-3 3-6 3-10s-1-7-3-10zm-14 7c-1 0-2-1-3-1s-2 1-3 1c0 1-1 2-1 3s1 2 1 3c1 1 2 1 3 1s2 0 3-1 1-2 1-3 0-2-1-3z" class="fil7"/>
          <path d="M3006 2205h148c5 0 10 4 10 10s-5 10-10 10h-148c2-3 3-6 3-10s-1-7-3-10zm-14 7s-1-1-2-1c-2 0-3 1-3 1-1 1-1 2-1 3s0 2 1 3c0 1 1 1 3 1 1 0 2 0 2-1 1-1 1-2 1-3s0-2-1-3z" class="fil8"/>
          <path d="M3028 2244h104c6 0 10 4 10 10s-4 10-10 10h-105c2-3 3-6 3-10s-1-7-2-10zm-14 7c-1-1-2-1-3-1s-2 0-3 1-1 2-1 3 0 2 1 3c1 0 2 1 3 1s2 0 3-1c0-1 1-2 1-3s-1-2-1-3z" class="fil9"/>
          <path d="M3048 2282h63c6 0 10 4 10 10 0 5-4 10-10 10h-63c2-3 3-7 3-10 0-4-1-7-3-10zm-13 7c-1-1-2-1-3-1s-2 0-3 1-1 2-1 3 0 2 1 2c1 1 2 2 3 2s2-1 3-2c0 0 1-1 1-2s-1-2-1-3z" class="fil10"/>
          <circle cx="2977" cy="2176" r="10" class="fil1"/>
          <circle cx="2990" cy="2215" r="10" class="fil11"/>
          <circle cx="3011" cy="2254" r="10" class="fil12"/>
          <circle cx="3032" cy="2292" r="10" class="fil13"/>
          <g>
            <path d="M3149 2600h-172c-6 0-10-4-10-10 0-5 4-10 10-10h172c-2 3-3 7-3 10 0 4 1 8 3 10zm14-7c0 1 1 1 2 1s2 0 3-1 1-2 1-3 0-2-1-3c-1 0-2-1-3-1s-2 1-2 1c-1 1-2 2-2 3s1 2 2 3z" class="fil10"/>
            <path d="M3136 2561h-147c-6 0-10-4-10-10 0-5 4-10 10-10h147c-2 3-3 7-3 10 0 4 1 8 3 10zm14-7c1 1 2 1 3 1s2 0 3-1c0-1 1-2 1-3s-1-2-1-2c-1-1-2-2-3-2s-2 1-3 2c-1 0-1 1-1 2s0 2 1 3z" class="fil9"/>
            <path d="M3115 2523h-105c-5 0-10-5-10-11 0-5 5-10 10-10h105c-2 3-3 7-3 10 0 4 1 8 3 11zm14-8c0 1 1 1 3 1 1 0 2 0 2-1 1 0 2-1 2-3 0-1-1-2-2-2 0-1-1-2-2-2-2 0-3 1-3 2-1 0-1 1-1 2 0 2 0 3 1 3z" class="fil8"/>
            <path d="M3094 2485h-63c-5 0-10-5-10-10 0-6 5-10 10-10h63c-2 2-3 6-3 10 0 3 1 7 3 10zm14-7c1 0 2 1 3 1s2-1 3-1c0-1 1-2 1-3s-1-2-1-3c-1-1-2-1-3-1s-2 0-3 1-1 2-1 3 0 2 1 3z" class="fil7"/>
            <circle cx="3165" cy="2590" r="10" class="fil13"/>
            <circle cx="3153" cy="2551" r="10" class="fil12"/>
            <circle cx="3132" cy="2512" r="10" class="fil11"/>
            <circle cx="3111" cy="2475" r="10" class="fil1"/>
          </g>
        </g>
      </g>
      <g>
        <path d="M2994 1463h171c6 0 11 5 11 10 0 6-5 10-11 10h-171c2-3 3-6 3-10 0-3-1-7-3-10zm-14 7c-1 0-2-1-3-1s-2 1-3 1c0 1-1 2-1 3s1 2 1 3c1 1 2 1 3 1s2 0 3-1 1-2 1-3 0-2-1-3z" class="fil7"/>
        <path d="M3006 1502h148c5 0 10 5 10 10 0 6-5 10-10 10h-148c2-3 3-6 3-10 0-3-1-7-3-10zm-14 7s-1-1-2-1c-2 0-3 1-3 1-1 1-1 2-1 3s0 2 1 3c0 1 1 1 3 1 1 0 2 0 2-1 1-1 1-2 1-3s0-2-1-3z" class="fil8"/>
        <path d="M3028 1541h104c6 0 10 5 10 10 0 6-4 10-10 10h-105c2-3 3-6 3-10s-1-7-2-10zm-14 7c-1 0-2-1-3-1s-2 1-3 1c-1 1-1 2-1 3s0 2 1 3 2 1 3 1 2 0 3-1c0-1 1-2 1-3s-1-2-1-3z" class="fil9"/>
        <path d="M3048 1579h63c6 0 10 4 10 10s-4 10-10 10h-63c2-3 3-6 3-10s-1-7-3-10zm-13 7c-1-1-2-1-3-1s-2 0-3 1-1 2-1 3 0 2 1 3c1 0 2 1 3 1s2-1 3-1c0-1 1-2 1-3s-1-2-1-3z" class="fil10"/>
        <circle cx="2977" cy="1473" r="10" class="fil1"/>
        <circle cx="2990" cy="1512" r="10" class="fil11"/>
        <circle cx="3011" cy="1551" r="10" class="fil12"/>
        <circle cx="3032" cy="1589" r="10" class="fil13"/>
        <g>
          <path d="M2994 1898h171c6 0 11-5 11-10 0-6-5-11-11-11h-171c2 3 3 7 3 11 0 3-1 7-3 10zm-14-8c-1 1-2 1-3 1s-2 0-3-1c0 0-1-1-1-2 0-2 1-3 1-3 1-1 2-1 3-1s2 0 3 1c1 0 1 1 1 3 0 1 0 2-1 2z" class="fil10"/>
          <path d="M3006 1859h148c5 0 10-5 10-10 0-6-5-11-10-11h-148c2 3 3 7 3 11 0 3-1 7-3 10zm-14-8c0 1-1 2-2 2-2 0-3-1-3-2-1 0-1-1-1-2 0-2 0-3 1-3 0-1 1-1 3-1 1 0 2 0 2 1 1 0 1 1 1 3 0 1 0 2-1 2z" class="fil9"/>
          <path d="M3028 1820h104c6 0 10-5 10-10 0-6-4-11-10-11h-105c2 3 3 7 3 11 0 3-1 7-2 10zm-14-8c-1 1-2 2-3 2s-2-1-3-2c-1 0-1-1-1-2s0-2 1-3 2-1 3-1 2 0 3 1c0 1 1 2 1 3s-1 2-1 2z" class="fil8"/>
          <path d="M3048 1782h63c6 0 10-5 10-10 0-6-4-10-10-10h-63c2 3 3 6 3 10s-1 7-3 10zm-13-7c-1 0-2 1-3 1s-2-1-3-1c-1-1-1-2-1-3s0-2 1-3 2-1 3-1 2 0 3 1c0 1 1 2 1 3s-1 2-1 3z" class="fil7"/>
          <circle cx="2977" cy="1888" r="10" class="fil13"/>
          <circle cx="2990" cy="1849" r="10" class="fil12"/>
          <circle cx="3011" cy="1810" r="10" class="fil11"/>
          <circle cx="3032" cy="1772" r="10" class="fil1"/>
        </g>
      </g>
      <g>
        <path d="M1460 2144c-6 0-11-10-11-22s5-22 11-22h385c6 0 11 10 11 22s-5 22-11 22h-385zM1460 2673c-6 0-11-9-11-21s5-22 11-22h385c6 0 11 10 11 22s-5 21-11 21h-385z" class="fil4"/>
        <path d="M1535 2136c6 139 68 187 130 235 70 53 139 107 146 265l-40 2c-7-140-69-187-131-235-69-53-138-107-146-265l41-2z" class="fil4"/>
        <path d="M1771 2136c-7 139-69 187-131 235-69 53-138 107-146 265l41 2c6-140 68-187 130-235 70-53 139-107 146-265l-40-2z" class="fil4"/>
        <path d="M1575 2170h172c6 0 10 4 10 10 0 5-4 10-10 10h-172c2-3 3-6 3-10s-1-7-3-10zm-14 7c0-1-1-1-2-1s-2 0-3 1-1 2-1 3 0 2 1 3c1 0 2 1 3 1s2-1 2-1h1c0-1 1-2 1-3s-1-2-2-3zM1588 2209h147c6 0 10 4 10 10 0 5-4 10-10 10h-147c2-3 3-6 3-10s-1-7-3-10zm-14 7c-1-1-2-1-3-1s-2 0-3 1c0 1-1 2-1 3s1 2 1 3c1 0 2 1 3 1s2-1 3-1c1-1 1-2 1-3s0-2-1-3zM1609 2248h105c5 0 10 4 10 10 0 5-5 10-10 10h-105c2-3 3-7 3-10 0-4-1-7-3-10zm-14 7c0-1-1-1-3-1-1 0-2 0-2 1-1 1-2 2-2 3s1 2 2 3c0 0 1 1 2 1 2 0 3-1 3-1 1-1 1-2 1-3s0-2-1-3zM1630 2285h63c6 0 10 5 10 10 0 6-4 11-10 11h-63c2-3 3-7 3-11 0-3-1-7-3-10zm-14 8c-1-1-2-2-3-2s-2 1-3 2c0 0-1 1-1 2 0 2 1 3 1 3 1 1 2 1 3 1s2 0 3-1c1 0 1-1 1-3 0-1 0-2-1-2z" class="fil4"/>
        <circle cx="1559" cy="2180" r="10" class="fil0"/>
        <circle cx="1571" cy="2219" r="10" class="fil0"/>
        <circle cx="1592" cy="2258" r="10" class="fil0"/>
        <circle cx="1613" cy="2295" r="10" class="fil0"/>
        <g>
          <path d="M1730 2604h-171c-6 0-11-4-11-10s5-10 11-10h171c-1 3-3 6-3 10s2 7 3 10zm14-7c1 1 2 1 3 1s2 0 3-1c0-1 1-2 1-3s-1-2-1-3c-1 0-2-1-3-1s-2 1-3 1c-1 1-1 2-1 3s0 2 1 3zM1718 2565h-147c-6 0-11-4-11-10s5-10 11-10h147c-2 3-3 6-3 10s1 7 3 10zm14-7c0 1 1 1 3 1 1 0 2 0 2-1 1-1 1-2 1-3s0-2-1-3c0 0-1-1-2-1-2 0-3 1-3 1-1 1-1 2-1 3s0 2 1 3zM1696 2526h-104c-6 0-10-4-10-10 0-5 4-10 10-10h105c-2 3-3 6-3 10s1 7 2 10zm14-7c1 1 2 1 3 1s2 0 3-1 1-2 1-3 0-2-1-3c-1 0-2-1-3-1s-2 1-3 1c0 1-1 2-1 3s1 2 1 3zM1676 2489h-63c-6 0-10-5-10-11 0-5 4-10 10-10h63c-2 3-3 7-3 11 0 3 1 7 3 10zm14-8c0 1 1 1 2 1s2 0 3-1c1 0 1-1 1-2 0-2 0-3-1-3-1-1-2-1-3-1s-2 0-2 1h-1s-1 1-1 3c0 1 1 2 2 2z" class="fil4"/>
          <circle cx="1747" cy="2594" r="10" class="fil0"/>
          <circle cx="1735" cy="2555" r="10" class="fil0"/>
          <circle cx="1713" cy="2516" r="10" class="fil0"/>
          <circle cx="1692" cy="2479" r="10" class="fil0"/>
        </g>
      </g>
      <g>
        <path d="M1549 2977l-36 41 119 110 286-283-39-37-249 244z" class="fil0"/>
        <path d="M1633 2845c46 0 88 12 125 34l-40 40c-26-13-55-20-85-20-53 0-101 21-135 56-35 34-56 82-56 135 0 52 21 100 56 135 34 34 82 56 135 56 52 0 100-22 135-56 34-35 56-83 56-135 0-30-7-59-20-84l40-40c21 36 34 79 34 124 0 67-28 129-72 173s-106 72-173 72c-68 0-129-28-173-72-45-44-72-106-72-173 0-68 27-129 72-173 44-45 105-72 173-72z" class="fil14"/>
        <path d="M1633 2908c28 0 54 6 78 17l-8 8c-21-10-45-15-70-15-48 0-91 19-122 50s-50 74-50 122c0 47 19 90 50 121s74 51 122 51c47 0 90-20 121-51s51-74 51-121c0-25-6-49-15-70l7-8c11 24 18 50 18 78 0 50-21 95-54 128s-78 54-128 54-96-21-129-54-53-78-53-128 20-96 53-129 79-53 129-53z" class="fil14"/>
        <g>
          <path d="M1636 2937c0 2-1 4-3 4s-4-2-4-4v-24c0-2 2-4 4-4s3 2 3 4v24zM1629 3243c0-2 2-4 4-4s3 2 3 4v24c0 2-1 3-3 3s-4-1-4-3v-24z" class="fil14"/>
          <g>
            <path d="M1480 3086c2 0 4 2 4 4s-2 3-4 3h-24c-2 0-4-1-4-3s2-4 4-4h24zM1786 3093c-2 0-4-1-4-3s2-4 4-4h24c2 0 3 2 3 4s-1 3-3 3h-24z" class="fil14"/>
          </g>
          <g>
            <path d="M1527 2979c2 2 2 4 0 5-1 2-3 2-5 0l-17-17c-1-1-1-3 0-5 2-1 4-1 5 0l17 17zM1738 3200c-1-1-1-3 0-5 2-1 4-1 5 0l17 17c2 2 2 4 0 5-1 2-3 2-5 0l-17-17z" class="fil14"/>
            <g>
              <path d="M1522 3195c2-1 4-1 5 0 2 2 2 4 0 5l-17 17c-1 2-3 2-5 0-1-1-1-3 0-5l17-17zM1743 2984c-1 2-3 2-5 0-1-1-1-3 0-5l17-17c2-1 4-1 5 0 2 2 2 4 0 5l-17 17z" class="fil14"/>
            </g>
          </g>
        </g>
      </g>
      <g>
        <path d="M2341 2889c47 0 90 18 122 47l-9 6c-30-26-69-42-113-42-95 0-171 76-171 171s76 172 171 172 172-77 172-172c0-35-11-67-29-94l8-8c20 29 31 64 31 102 0 101-81 182-182 182-100 0-182-81-182-182 0-100 82-182 182-182zm132 57c4 4 7 8 11 12l-8 8c-3-5-7-10-12-14l9-6z" class="fil0"/>
        <path d="M2341 2826c68 0 130 28 174 73l-44 32c-34-32-80-51-130-51-105 0-191 86-191 191 0 106 86 191 191 191 106 0 191-85 191-191 0-40-12-78-33-108l38-39c31 41 49 92 49 147 0 135-110 245-245 245s-245-110-245-245 110-245 245-245zm183 83c2 1 3 3 5 5l-39 38c-3-4-6-8-10-12l44-31z" class="fil0"/>
        <path d="M2222 2999l118 110 286-282-297 215z" class="fil0"/>
        <path d="M2341 2929v-22M2341 3213v22" class="fil15"/>
        <g>
          <path d="M2345 2929c0 2-2 3-4 3s-3-1-3-3v-22c0-2 1-3 3-3s4 1 4 3v22zM2338 3213c0-2 1-3 3-3s4 1 4 3v22c0 2-2 4-4 4s-3-2-3-4v-22z" class="fil14"/>
          <g>
            <path d="M2199 3068c2 0 4 1 4 3s-2 4-4 4h-22c-2 0-3-2-3-4s1-3 3-3h22zM2483 3075c-2 0-3-2-3-4s1-3 3-3h23c1 0 3 1 3 3s-2 4-3 4h-23z" class="fil14"/>
          </g>
          <g>
            <path d="M2243 2968c1 2 1 4 0 5s-3 1-5 0l-15-16c-2-1-2-3 0-4 1-2 3-2 4 0l16 15zM2439 3174c-1-1-1-3 0-5 2-1 4-1 5 0l16 16c1 1 1 3 0 5-2 1-4 1-5 0l-16-16z" class="fil14"/>
            <g>
              <path d="M2238 3169c2-1 4-1 5 0 1 2 1 4 0 5l-16 16c-1 1-3 1-4 0-2-2-2-4 0-5l15-16zM2444 2973c-1 1-3 1-5 0-1-1-1-3 0-5l16-15c1-2 4-2 5 0 1 1 1 3 0 4l-16 16z" class="fil14"/>
            </g>
          </g>
        </g>
      </g>
      <g>
        <path d="M3051 2889c45 0 85 16 117 43l-9 6c-29-24-67-38-108-38-95 0-171 76-171 171s76 172 171 172 172-77 172-172c0-32-9-63-25-88l8-8c17 28 27 61 27 96 0 101-81 182-182 182-100 0-182-81-182-182 0-100 82-182 182-182zm136 62c1 0 2 1 2 2l-7 7-3-3 8-6z" class="fil0"/>
        <path d="M3051 2826c66 0 125 26 169 68l-44 32c-34-29-77-46-125-46-105 0-191 86-191 191 0 106 86 191 191 191 106 0 191-85 191-191 0-38-11-73-30-103l39-38c28 40 45 89 45 141 0 135-110 245-245 245s-245-110-245-245 110-245 245-245zm144 119l1 1 7-6-8 5z" class="fil0"/>
        <path d="M2932 2999l118 110 286-282-297 215z" class="fil0"/>
        <path d="M3051 2929v-22M3051 3213v22" class="fil15"/>
        <g>
          <path d="M3055 2929c0 2-2 3-4 3s-3-1-3-3v-22c0-2 1-3 3-3s4 1 4 3v22zM3048 3213c0-2 1-3 3-3s4 1 4 3v22c0 2-2 4-4 4s-3-2-3-4v-22z" class="fil14"/>
          <g>
            <path d="M2909 3068c2 0 3 1 3 3s-1 4-3 4h-22c-2 0-3-2-3-4s1-3 3-3h22zM3193 3075c-2 0-3-2-3-4s1-3 3-3h22c2 0 4 1 4 3s-2 4-4 4h-22z" class="fil14"/>
          </g>
          <g>
            <path d="M2953 2968c1 2 1 4 0 5s-3 1-5 0l-15-16c-2-1-2-3 0-4 1-2 3-2 4 0l16 15zM3149 3174c-1-1-1-3 0-5 2-1 4-1 5 0l16 16c1 1 1 3 0 5-2 1-4 1-5 0l-16-16z" class="fil14"/>
            <g>
              <path d="M2948 3169c2-1 4-1 5 0 1 2 1 4 0 5l-16 16c-1 1-3 1-4 0-2-2-2-4 0-5l15-16zM3154 2973c-1 1-3 1-5 0-1-1-1-3 0-5l16-15c1-2 3-2 5 0 1 1 1 3 0 4l-16 16z" class="fil14"/>
            </g>
          </g>
        </g>
      </g>
    </g>
    <path d="M2361 7807v819C1057 8626 0 7569 0 6265s1057-2361 2361-2361v818c-852 0-1542 691-1542 1543s690 1542 1542 1542z" class="fil11"/>
    <path fill="#ffdbfa" d="M2361 4722c-852 0-1542 691-1542 1543s690 1542 1542 1542 1543-690 1543-1542-691-1543-1543-1543z"/>
    <path d="M1074 7613c18-19 26-27 37-33 5-2 10 0 16 6 9 9 11 13 8 18-4 9-10 17-59 68-48 50-56 57-64 61-5 3-10 2-18-6-8-7-10-13-7-18s9-13 32-37l-45-43c-8 7-15 14-20 20-47 49-57 76-5 126 29 27 48 36 69 30s38-17 106-88c69-71 82-92 87-113 6-22-4-41-34-70-52-49-82-34-129 15-6 6-12 14-19 21l45 43zm-94-283l-243 208 44 51 95-80 26 31-94 81 45 52 243-208-45-52-99 85-27-31 99-86-44-51zm-121-135c-22 2-41 10-122 69-82 59-94 73-104 94-9 20-4 40 20 72 24 34 41 45 63 43 22-3 40-10 122-69 81-59 94-74 104-94 9-21 4-40-20-73s-40-45-63-42zm-11 75c5-2 9 0 16 9 6 8 7 13 3 18-5 7-14 15-69 55-57 41-67 47-76 49-5 2-10 0-16-9-6-8-6-13-3-18 5-7 14-14 71-56 55-40 65-45 74-48zm-79-248c-23 0-42 4-131 50-90 47-104 59-117 78-12 19-9 39 9 75 19 36 34 50 56 51 23 1 41-4 131-50 89-46 104-59 117-78 12-19 9-38-10-75-18-36-33-50-55-51zm-23 73c6-1 10 1 15 11 5 9 5 14 1 18-7 7-16 13-77 44-63 33-73 37-82 38-6 1-10-2-15-11-4-10-4-14 0-19 6-5 16-12 78-44 61-32 72-36 80-37zm-235-171c-9 0-17 3-33 9-50 21-58 46-37 98 24 59 49 66 104 44 40-16 63-27 70-48 8-22 4-49 10-74 3-13 7-20 22-26 25-10 32-9 38 7s0 22-22 31c-5 2-8 3-12 4l21 51c10-1 28-8 43-14 46-18 53-47 34-96-24-60-53-69-123-41-50 20-60 33-66 56-4 19-1 36-5 65-2 12-5 18-23 25-18 8-25 7-31-8-6-14-1-20 17-27 7-3 9-4 13-5l-20-51zm176-178l-307 88 18 65 308-88-19-65zm-48-197l-312 73 14 59 108-25 1 2-98 69 15 63 311-72-14-59-167 39v-3l150-112-8-34zm-121-126c25-2 29-1 35 2s9 8 10 19-1 18-8 21-16 4-89 10c-69 5-79 5-88 3-6-2-9-6-9-18-1-12 1-18 6-20 4-1 10-3 24-4h5l-4-62c-6 0-9 1-17 1-19 2-34 4-46 9-28 12-37 34-34 81 3 40 11 59 31 69 20 9 39 12 138 5 103-8 122-14 140-27 19-12 24-32 21-72-3-41-11-59-31-69-18-8-36-12-105-7-30 3-52 5-63 6l7 90 64-5-3-30 16-2zm110-343l-321 8-8 111 316 59 5-67-73-11 2-32h74l5-68zm-144 66l-2 26-113-19v-4l115-3zm180-274l-246-56 11-49-66-16-37 163 66 15 11-49 246 57 15-65zm53-183l-111-39-170-119-2-1-22 63c69 44 78 50 90 56l-2 4c-13-2-24-3-105-12l-23 64 2 1 210 12 110 38 23-67zm51-129l-88-40 12-26c24-52 3-79-74-113-74-34-106-32-129 20l-40 88 291 132 28-61zm-148-67l-83-37 7-15c5-12 14-14 45 0 35 16 43 25 38 36l-7 16zm271-167l-61-36-38 65-52-30 37-64-55-33-38 64-48-28 38-65-59-34-71 122 276 161 71-122zm54-76l-100-72 42-59-53-38-42 59-52-37 43-60-55-39-81 113 259 187 39-54zm162-197l-262-186-73 84 218 236 44-51-52-52 21-24 59 44 45-51zm-155-33l-17 19-80-83 3-3 94 67zm158-138c18 18 25 27 30 38 3 5 1 10-6 16-9 9-13 10-18 8-9-5-17-12-66-63-48-50-54-58-58-66-2-5-1-10 7-17 8-8 13-10 18-7s13 9 36 33l45-43c-7-7-13-15-19-21-47-49-74-59-126-10-29 28-39 46-33 68 5 21 15 38 83 110 69 71 89 86 110 91 21 7 40-2 71-31 51-50 38-80-9-129-7-6-14-13-21-20l-44 43zm262-56l-44-55-58 46-38-48 58-45-40-51-58 46-35-45 60-46-42-53-112 87 198 252 111-88z" class="fil3"/>
    <g id="_1709337259760">
      <path d="M1706 6610h-202c-3 0-6-1-8-3-3-2-4-5-4-9v-19c0-4 1-6 4-8 2-2 5-3 8-3h22v-203h-22c-3 0-6-1-8-3-3-2-4-5-4-8v-20c0-3 1-6 4-8 2-2 5-3 8-3h202c3 0 6 1 8 3s4 5 4 8v61c0 4-1 7-4 9-2 2-5 3-8 3h-21c-7 0-11-4-11-12v-30h-101v81h89c4 0 6 1 8 3 3 2 4 5 4 8v20c0 7-4 11-12 11h-89v80h101v-31c0-7 4-11 11-11h21c3 0 6 1 8 3s4 5 4 8v61c0 4-2 7-4 9s-5 3-8 3zm304 0h-92c-3 0-6-2-8-4s-3-4-3-8v-19c0-3 1-6 3-8s5-3 8-3h13l-51-71-52 71h13c3 0 6 1 8 3s3 4 3 8v19c0 8-4 12-11 12h-92c-3 0-6-1-8-3s-3-5-3-9v-19c0-4 1-6 3-8s5-3 8-3h26l78-103-78-100h-26c-3 0-6-1-8-3s-3-5-3-8v-20c0-3 1-6 3-8s5-3 8-3h92c3 0 6 1 8 3s3 5 3 8v20c0 7-4 11-11 11h-13l52 68 51-68h-10c-3 0-6-1-8-3s-3-5-3-8v-20c0-3 1-6 3-8s5-3 8-3h92c3 0 6 1 8 3s3 5 3 8v20c0 3-1 6-3 8s-5 3-8 3h-29l-77 100 76 103h27c3 0 6 1 8 3s3 5 3 8v19c0 4-1 6-3 8s-5 4-8 4zm141 0h-100c-3 0-6-1-8-3s-3-5-3-9v-19c0-4 1-6 3-8s5-3 8-3h22v-203h-22c-3 0-6-1-8-3s-3-5-3-8v-20c0-3 1-6 3-8s5-3 8-3h117c15 0 28 2 39 6 12 4 23 11 32 19 9 9 16 19 21 30 4 11 7 24 7 38 0 29-9 51-28 67-9 8-20 14-32 18-13 3-27 5-43 5h-44v62h31c3 0 6 1 8 3s3 5 3 8v19c0 4-1 6-3 8s-5 4-8 4zm-31-144h43c19 0 34-4 43-12s14-21 14-38c0-9-1-16-4-23-3-6-6-11-12-15-5-5-11-8-18-10s-14-3-23-3h-43v101zm391 144h-33c-6 0-11-3-16-7-5-3-9-9-13-15l-35-73c-2-3-3-6-5-8-1-2-2-3-4-4-1-1-2-2-3-2-2-1-4-1-6-1h-42v68h28c3 0 6 1 8 3s3 5 3 8v19c0 4-1 6-3 8s-5 4-8 4h-97c-3 0-6-1-8-3s-3-5-3-9v-19c0-4 1-6 3-8s5-3 8-3h23v-203h-23c-3 0-6-1-8-3s-3-5-3-8v-20c0-3 1-6 3-8s5-3 8-3h117c29 0 53 8 71 23 9 8 16 17 21 28s7 24 7 38c0 21-5 39-16 52-8 12-20 20-35 26l2 2c3 4 6 10 10 17l30 59h19c4 0 6 1 8 3s4 5 4 8v19c0 4-2 6-4 8s-4 4-8 4zm-157-151h42c39 0 58-15 58-46 0-16-5-28-14-36s-24-12-44-12h-42v94zm399 151h-202c-3 0-6-1-8-3s-3-5-3-9v-19c0-4 1-6 3-8s5-3 8-3h23v-203h-23c-3 0-6-1-8-3s-3-5-3-8v-20c0-3 1-6 3-8s5-3 8-3h202c4 0 6 1 9 3 2 2 3 5 3 8v61c0 4-1 7-3 9s-5 3-9 3h-20c-8 0-11-4-11-12v-30h-102v81h90c3 0 6 1 8 3s3 5 3 8v20c0 7-4 11-11 11h-90v80h101v-31c0-7 4-11 12-11h20c4 0 6 1 9 3 2 2 3 5 3 8v61c0 4-1 7-3 9-3 2-5 3-9 3zm68 0h-21c-4 0-6-1-8-3-3-2-4-5-4-9v-89c0-3 1-6 3-8s5-3 9-3h24c7 0 11 4 11 11v8c0 4 2 9 7 16 6 7 11 13 17 18 2 2 6 4 9 6l12 6c5 2 9 3 14 4s10 1 16 1c9 0 17-1 24-3s13-4 18-8c4-3 8-7 10-12s4-10 4-16c0-4-1-7-2-9-1-3-3-6-6-8-2-3-6-5-9-7-4-2-8-4-13-6-4-2-9-3-15-5-5-2-11-3-17-5-6-1-12-3-18-5-6-1-13-3-18-5-7-2-13-4-18-7-6-2-11-5-16-8-11-6-20-14-27-25-4-5-6-11-8-18-2-6-2-13-2-20 0-23 8-42 26-58 9-7 19-13 31-17 11-3 24-5 38-5 18 0 34 2 47 8 8 3 15 7 21 12v-7c0-8 4-11 12-11h21c3 0 6 1 8 3s3 4 3 8v83c0 3-1 6-3 8s-5 3-8 3h-24c-7 0-11-4-11-11v-11c0-8-5-17-15-27-6-4-12-8-20-10-7-3-17-4-27-4-8 0-15 1-21 3s-11 4-16 8c-4 3-7 7-9 11-3 4-4 9-4 14 0 4 1 7 2 10s3 6 6 8c3 3 6 6 10 8 3 2 8 4 12 6 5 2 10 4 16 5 6 2 11 4 17 5 7 2 13 4 19 5l18 6 18 6c6 3 11 5 17 8 5 3 10 6 15 10 4 4 8 9 12 14 3 5 6 11 8 17 1 6 2 13 2 20 0 24-8 44-26 60-17 15-42 23-76 23-24 0-45-5-61-15-8-5-15-10-21-15l-2-2v18c0 4-1 6-3 8s-5 4-8 4zm254 0h-22c-3 0-6-1-8-3s-3-5-3-9v-89c0-3 1-6 3-8s5-3 8-3h24c8 0 11 4 11 11v8c0 4 3 9 8 16s11 13 16 18c3 2 6 4 10 6 3 2 7 4 12 6 4 2 9 3 14 4s10 1 15 1c9 0 18-1 25-3 6-2 12-4 17-8 5-3 8-7 11-12 2-5 3-10 3-16 0-4-1-7-2-9-1-3-3-6-5-8-3-3-6-5-10-7-3-2-8-4-12-6-5-2-10-3-15-5-6-2-12-3-17-5-6-1-12-3-19-5-6-1-12-3-18-5s-12-4-18-7c-6-2-11-5-16-8-11-6-20-14-27-25-3-5-6-11-7-18-2-6-3-13-3-20 0-23 9-42 26-58 9-7 19-13 31-17 12-3 24-5 39-5 18 0 33 2 47 8 8 3 15 7 21 12v-7c0-8 4-11 11-11h22c3 0 6 1 8 3s3 4 3 8v83c0 3-1 6-3 8s-5 3-8 3h-24c-8 0-12-4-12-11v-11c0-8-5-17-15-27-5-4-11-8-19-10-8-3-17-4-28-4-8 0-15 1-21 3s-11 4-15 8c-5 3-8 7-10 11s-3 9-3 14c0 4 0 7 2 10 1 3 3 6 5 8 3 3 6 6 10 8s8 4 13 6 10 4 15 5c6 2 12 4 18 5 6 2 12 4 18 5l18 6c7 2 13 4 18 6 6 3 12 5 17 8 6 3 11 6 15 10 5 4 9 9 12 14 4 5 6 11 8 17s3 13 3 20c0 24-9 44-26 60-18 15-43 23-76 23-25 0-45-5-62-15-8-5-15-10-20-15l-2-2v18c0 4-1 6-3 8s-5 4-8 4z" class="fil14"/>
      <path d="M1223 6200h-21c-4 0-6-1-8-3-3-2-4-5-4-9v-89c0-3 1-6 3-8s5-3 9-3h24c7 0 11 4 11 11v8c0 4 2 9 7 16 6 7 11 13 17 18 2 2 5 5 9 6 4 3 8 4 12 6 5 2 9 3 14 4s10 1 16 1c9 0 17-1 24-3 7-1 13-4 18-8 4-3 8-7 10-12s4-10 4-16c0-4-1-7-2-9-1-3-3-6-6-8-2-3-6-5-9-7-4-2-8-4-13-6-4-1-9-3-15-5-5-1-11-3-17-4-6-2-12-4-18-5-6-2-13-4-18-6-7-2-13-4-18-7-6-2-11-5-17-8-10-6-19-14-26-25-4-5-6-11-8-17-2-7-2-14-2-21 0-23 8-42 26-58 9-7 19-13 31-17 11-3 24-5 38-5 18 0 34 2 47 8 8 3 15 7 21 12v-7c0-8 4-11 12-11h21c3 0 6 1 8 3s3 5 3 8v83c0 3-1 6-3 8s-5 3-8 3h-24c-7 0-11-4-11-11v-11c0-8-5-17-15-26-6-5-12-9-20-11-7-2-17-4-27-4-8 0-15 1-21 3s-11 4-16 8c-4 3-7 7-10 11-2 4-3 9-3 14 0 4 1 7 2 10s3 6 6 8c3 3 6 6 10 8 3 2 8 4 12 6 5 2 10 4 16 5 6 2 11 4 17 5 7 2 13 4 19 5l18 6 18 6c6 3 11 5 17 8 5 3 10 6 15 11 4 4 8 8 12 13 3 5 6 11 8 17 1 6 2 13 2 20 0 24-8 44-26 60-17 15-42 23-76 23-24 0-45-5-61-15-8-5-15-10-21-15l-2-2v18c0 4-1 7-3 9s-5 3-8 3zm474-81c1 1 2 2 3 4 1 1 1 3 1 5v4c-1 1-1 3-2 4-1 2-2 3-3 5l-3 6c-2 2-4 4-6 7-3 3-6 6-9 10-8 7-15 13-24 18-5 3-10 6-15 8-6 2-12 4-19 6s-14 4-22 5c-7 1-15 1-23 1-19 0-37-3-53-10s-31-17-44-31c-13-13-23-29-29-47-7-17-10-37-10-59s3-41 10-59c6-17 16-33 30-46 13-13 27-23 43-29 16-7 33-10 52-10 20 0 38 3 53 11 10 4 18 10 25 17v-14-2c0-2 1-5 3-7 1-1 3-2 6-3h24c3 0 6 1 8 3s3 5 3 8v83c0 8-4 12-11 12h-24c-8 0-11-4-11-12v-3c0-10-8-20-22-31-14-12-33-18-55-18-11 0-21 2-31 7-10 4-19 11-28 19-9 9-15 19-20 32-4 12-6 26-6 43 0 16 2 31 6 43 5 12 11 23 20 32 9 8 19 15 29 20 11 4 22 6 34 6 13 0 25-1 35-4s19-8 26-13c6-5 11-9 15-14 5-4 8-9 11-14 4-8 10-9 17-4l16 11zm298 81h-92c-3 0-6-1-8-3s-3-5-3-9v-19c0-3 1-6 3-8s5-3 8-3h23v-80h-128v80h22c4 0 6 1 8 3 3 2 4 5 4 8v19c0 8-4 12-12 12h-91c-4 0-6-1-8-3-3-2-4-5-4-9v-19c0-3 1-6 4-8 2-2 4-3 8-3h22v-203h-22c-4 0-6-1-8-3-3-2-4-5-4-8v-20c0-3 1-6 4-8 2-2 4-3 8-3h91c4 0 6 1 8 3 3 2 4 5 4 8v20c0 7-4 11-12 11h-22v82h128v-82h-23c-3 0-6-1-8-3s-3-5-3-8v-20c0-3 1-6 3-8s5-3 8-3h92c3 0 6 1 8 3s3 5 3 8v20c0 3-1 6-3 8s-5 3-8 3h-23v203h23c3 0 6 1 8 3s3 5 3 8v19c0 4-1 7-3 9s-5 3-8 3zm246 0h-202c-3 0-6-1-8-3s-4-5-4-9v-19c0-3 2-6 4-8s5-3 8-3h22v-203h-22c-3 0-6-1-8-3s-4-5-4-8v-20c0-3 2-6 4-8s5-3 8-3h202c3 0 6 1 8 3 3 2 4 5 4 8v62c0 3-1 6-4 8-2 2-4 3-8 3h-20c-8 0-12-4-12-11v-31h-101v81h89c4 0 6 1 9 3 2 2 3 5 3 8v20c0 7-4 11-12 11h-89v80h101v-31c0-7 4-11 12-11h20c3 0 6 1 8 3 3 2 4 5 4 8v61c0 4-1 7-4 9-2 2-5 3-8 3zm153 0h-109c-3 0-6-1-8-3s-3-5-3-9v-19c0-3 1-6 3-8s5-3 8-3h23v-203h-23c-3 0-6-1-8-3s-3-5-3-8v-20c0-3 1-6 3-8s5-3 8-3h103c44 0 79 13 105 38 13 13 23 28 30 46 6 17 9 37 9 59s-3 42-9 59c-6 18-15 33-28 46-12 13-27 23-44 29s-36 10-57 10zm-40-42h31c34 0 59-9 75-25 16-17 24-42 24-76 0-17-2-31-6-44-4-12-10-23-19-32-8-8-19-15-31-19-12-5-27-7-44-7h-30v203zm390-64v-139h-23c-3 0-6-1-8-3s-3-5-3-8v-20c0-3 1-6 3-8s5-3 8-3h92c3 0 6 1 8 3s3 5 3 8v20c0 3-1 6-3 8s-5 3-8 3h-23v136c0 17-2 33-7 47s-12 26-22 36c-19 19-46 28-80 28-17 0-32-2-46-7-13-5-25-12-35-21-9-10-17-22-22-36-4-14-7-30-7-47v-136h-22c-3 0-6-1-8-3s-4-5-4-8v-20c0-3 2-6 4-8s5-3 8-3h91c4 0 6 1 9 3 2 2 3 5 3 8v20c0 7-4 11-12 11h-22v137c0 22 5 39 15 50 11 11 27 16 48 16 22 0 38-5 48-16 5-6 8-13 11-20 2-8 4-18 4-28zm312 106h-208c-3 0-6-1-8-3s-3-5-3-9v-19c0-3 1-6 3-8s5-3 8-3h22v-203h-22c-3 0-6-1-8-3s-3-5-3-8v-20c0-3 1-6 3-8s5-3 8-3h91c8 0 12 4 12 12v18c0 8-4 12-12 12h-22v203h108v-31c0-7 3-11 11-11h21c3 0 6 1 8 3s3 5 3 8v61c0 8-4 12-12 12zm234 0h-202c-3 0-6-1-8-3s-3-5-3-9v-19c0-3 1-6 3-8s5-3 8-3h23v-203h-23c-3 0-6-1-8-3s-3-5-3-8v-20c0-3 1-6 3-8s5-3 8-3h202c4 0 6 1 9 3 2 2 3 5 3 8v62c0 3-1 6-3 8s-5 3-9 3h-20c-8 0-11-4-11-11v-31h-102v81h90c3 0 6 1 8 3s3 5 3 8v20c0 7-4 11-11 11h-90v80h101v-31c0-7 4-11 12-11h20c4 0 6 1 9 3 2 2 3 5 3 8v61c0 4-1 7-3 9-3 2-5 3-9 3zm273 0h-33c-6 0-12-2-17-6s-9-9-12-16l-36-73c-1-3-3-5-4-7s-3-4-4-5-2-2-4-2c-2-1-4-1-6-1h-42v68h28c3 0 6 1 8 3s3 5 3 8v19c0 4-1 7-3 9s-5 3-8 3h-96c-4 0-6-1-8-3-3-2-4-5-4-9v-19c0-3 1-6 4-8 2-2 4-3 8-3h22v-203h-22c-4 0-6-1-8-3-3-2-4-5-4-8v-20c0-3 1-6 4-8 2-2 4-3 8-3h117c29 0 52 8 70 23 10 8 17 18 21 29 5 11 7 23 7 37 0 21-5 39-15 52-8 12-20 20-35 26l1 2c3 5 7 10 10 17l31 59h19c3 0 6 1 8 3s3 5 3 8v19c0 4-1 7-3 9s-5 3-8 3zm-158-151h42c39 0 59-15 59-46 0-16-5-28-14-36-10-8-25-12-45-12h-42v94z" class="fil17"/>
    </g>
    <path fill="#0098da" d="M2361 11711v819c1304 0 2361-1057 2361-2361 0-1305-1057-2362-2361-2362v819c852 0 1543 691 1543 1543 0 851-691 1542-1543 1542z"/>
    <path fill="#e0f5ff" d="M2361 8626c852 0 1543 691 1543 1543 0 851-691 1542-1543 1542s-1542-691-1542-1542c0-852 690-1543 1542-1543z"/>
    <path d="M3353 8737l57-79 24 18c46 33 76 18 125-50 48-67 52-98 6-132l-78-56-187 260 53 39zm95-132l53-74 13 10c11 7 11 17-9 44-22 31-32 38-42 30l-15-10zm120 304l183-264-84-73-234 221 50 44 52-53 25 21-44 59 52 45zm31-155l-19-18 82-80 4 3-67 95zm29 219l231-221-47-49-231 221 47 49zm135 155l2-2c5-8 10-13 45-52 25-27 37-43 41-53 4-8 4-12 4-17l2-1c20 7 29 11 79-32 47-40 56-68 19-111l-63-74-243 209 43 50 95-81 6 8c6 6 5 12-16 33-50 55-54 60-60 69l46 54zm69-203l53-45 11 12c8 10 7 19-12 35-23 19-32 21-40 12l-12-14zm-20 277l260-186-40-56-260 187 40 55zm104 174l276-161-31-52-96 55-1-2 73-94-32-57-277 161 31 53 148-87 1 2-110 152 18 30zm153 78c-23 11-28 12-35 11-6-1-10-4-15-14-4-10-5-17 0-22 6-6 14-10 80-40 63-29 74-32 82-33 6-1 10 3 15 13 5 11 5 18 1 21s-8 6-21 12c-2 1-4 2-5 2l25 56c5-2 8-3 15-6 18-8 31-16 41-24 22-21 23-45 4-88-17-36-31-52-52-54-23-2-42 2-132 42-94 43-110 55-123 73s-11 38 6 76c16 37 30 51 52 53 20 2 38 0 102-29 27-12 47-22 57-27l-38-82-58 26 13 28-14 6zm19 452l318-45-14-62-216 36-1-5 206-77-15-65-219 20-1-4 209-63-15-66-306 100 21 91 197-21 1 5-186 65 21 91zm10 117l317-38-8-68-317 39 8 67zm5 137l252-8 2 51 67-2-5-167-67 2 1 50-252 8 2 66zm-14 247l319 24 5-68-123-9 3-42 123 10 6-68-319-24-6 68 131 10-3 41-131-10-5 68zm-46 214l246 58-11 49 66 15 37-163-65-15-12 49-245-57-16 64zm-60 182l109 44 165 126 2 1 25-62c-67-47-76-53-87-60l1-4c14 2 24 4 105 17l25-63-2-1-208-21-108-43-27 66zm-55 127l86 43-13 26c-26 51-6 79 68 116s105 36 131-15l43-85-285-145-30 60zm145 73l81 41-7 14c-6 12-16 13-46-2-34-17-42-26-36-37l8-16zm-278 155l59 39 41-63 51 33-40 62 54 35 40-62 47 31-41 63 57 37 77-119-269-174-76 118zm-56 75l97 76-44 57 52 39 44-56 50 39-45 58 54 41 85-110-252-196-41 52zm-169 191l253 198 77-80-207-246-46 48 49 55-22 23-57-47-47 49zm153 40l18-19 75 87-3 4-90-72zm-163 132c-17-20-25-29-29-41-2-5 0-9 7-15 9-8 14-10 19-7 8 5 16 12 62 65 45 53 51 62 55 70 2 5 0 10-8 17s-14 9-18 5c-5-3-12-9-35-35l-46 41c6 8 12 16 18 22 44 51 70 63 124 16 31-26 42-44 37-66-4-21-13-39-78-113-65-75-84-90-105-97-21-8-40 0-72 28-54 47-42 78 3 129 6 7 12 14 20 21l46-40zm-263 44l41 58 61-43 35 49-61 43 38 53 60-43 33 46-62 43 39 55 116-82-185-260-115 81z" class="fil20"/>
    <path fill="#d6fffe" d="M2361 12530c-852 0-1542 690-1542 1542s690 1543 1542 1543 1543-691 1543-1543-691-1542-1543-1542z"/>
    <path d="M837 14916l-108 61-35-63-57 33 36 62-56 31-36-63-59 33 69 122 278-158-32-58zm-73-147l-292 131 28 62 292-131-28-62zm-70-190l-304 99 19 58 106-34v2l-92 77 21 62 304-99-19-57-163 53-1-3 140-125-11-33zm-48-190l-304 104 25 108 320-39-16-65-73 12-7-31 71-23-16-66zm-117 106l6 26-114 15-1-4 109-37zm97-259l-70 8 8 68-247 30 8 66 317-38-16-134zm-7-193c2-40-4-60-23-71-18-12-37-17-134-20s-116 1-135 11-26 30-27 70l-3 89 319 10 3-89zm-71 21l-182-6 1-21c0-11 2-14 7-16 8-3 19-3 85-1 65 2 75 3 83 6 5 2 7 6 7 17l-1 21zm92-271l-70-8-9 74-60-7 9-74-65-7-8 73-56-7 9-74-67-9-17 141 317 38 17-140zm-178-219c-7-4-16-7-33-11-52-12-73 4-86 60-14 61 3 81 61 95 41 9 66 14 85 0 19-13 31-37 50-54 10-10 17-13 33-9 27 6 31 11 27 27-4 17-12 18-36 13-5-1-8-2-11-4l-13 54c9 5 27 10 43 14 49 11 71-9 83-60 15-63-4-87-78-104-52-12-68-7-85 8-14 14-22 29-42 51-8 9-14 12-33 8-19-5-24-9-21-25 4-15 11-17 30-13 8 2 10 3 14 4l12-54zm243-46l-309-87-18 66 308 86 19-65zm-53-167c24 10 28 12 32 18 4 5 4 10 0 20s-8 16-16 16c-8-1-16-3-84-29-65-25-74-30-81-36-4-4-5-9-1-20 5-11 9-16 15-15 4 1 10 2 23 7 2 0 4 1 5 2l22-58c-5-2-8-3-15-6-18-7-33-11-46-12-30-1-48 15-65 58-14 38-16 59-2 76s30 28 123 64c96 37 116 40 138 37s35-19 50-57c14-38 15-58 1-75-12-16-27-27-92-52-28-11-49-18-59-22l-33 85 60 23 11-29 14 5zm213-191l-286-143-28 54 100 50-1 2-120-9-29 58 286 143 27-54-153-77 1-2 187 9 16-31z" class="fil20"/>
    <g id="_1709337262032">
      <path d="M1296 10623c-3 0-6-5-6-11s3-10 6-10h188c3 0 5 4 5 10s-2 11-5 11h-17c-4 67-31 95-61 119 30 23 57 51 61 118h17c3 0 5 5 5 11s-2 11-5 11h-188c-3 0-6-5-6-11s3-11 6-11h16c4-67 32-95 62-118-30-24-58-52-62-119h-16zm151 0h-115c4 61 30 85 58 106 27-21 53-45 57-106zm-115 237h115c-4-60-30-84-57-106-28 22-54 46-58 106z" class="fil6"/>
      <path d="M1352 10636h84c3 0 5 2 5 5 0 2-2 4-5 4h-84c1-1 1-3 1-4 0-2 0-4-1-5zm-8 0c2 0 5 2 5 5 0 2-3 5-5 5-3 0-5-3-5-5 0-3 2-5 5-5z" class="fil7"/>
      <path d="M1358 10655h72c3 0 5 2 5 5 0 2-2 5-5 5h-72c1-2 1-4 1-5 0-2 0-4-1-5zm-8 0c3 0 5 2 5 5 0 2-2 5-5 5s-5-3-5-5c0-3 2-5 5-5z" class="fil8"/>
      <path d="M1368 10674h52c2 0 4 2 4 5 0 2-2 5-4 5h-52c1-2 2-4 2-5 0-2-1-4-2-5zm-8 0c3 0 5 2 5 5 0 2-2 5-5 5s-5-3-5-5c0-3 2-5 5-5z" class="fil9"/>
      <path d="M1379 10692h30c3 0 5 2 5 5s-2 5-5 5h-30c0-1 1-3 1-5s-1-3-1-5zm-9 0c3 0 5 2 5 5s-2 5-5 5c-2 0-5-2-5-5s3-5 5-5zM1428 10848h-84c-3 0-5-2-5-5s2-5 5-5h84c-1 1-2 3-2 5s1 3 2 5zm8 0c-3 0-5-2-5-5s2-5 5-5 5 2 5 5-2 5-5 5z" class="fil10"/>
      <path d="M1422 10829h-72c-3 0-5-2-5-5s2-5 5-5h72c-1 1-2 3-2 5s1 3 2 5zm8 0c-3 0-5-2-5-5s2-5 5-5c2 0 5 2 5 5s-3 5-5 5z" class="fil9"/>
      <path d="M1411 10810h-51c-3 0-5-2-5-5s2-5 5-5h51c-1 1-1 3-1 5s0 3 1 5zm8 0c-3 0-5-2-5-5s2-5 5-5 5 2 5 5-2 5-5 5z" class="fil8"/>
      <path d="M1401 10791h-31c-3 0-5-2-5-5 0-2 2-5 5-5h31c-1 2-1 4-1 5 0 2 0 4 1 5zm8 0c-3 0-5-2-5-5 0-2 2-5 5-5s5 3 5 5c0 3-2 5-5 5z" class="fil7"/>
      <g>
        <path d="M1842 10881h-53c-1 0-1 0-2-1 0 0-1-1-1-2v-5c0-1 1-2 1-2 1-1 1-1 2-1h6v-52h-6c-1 0-1-1-2-1 0-1-1-1-1-2v-5c0-1 1-2 1-3h57c0 1 1 2 1 3v16s-1 1-1 2c-1 0-1 1-2 1h-6c-2 0-2-1-2-3v-8h-27v21h26v8c0 1-1 2-3 2h-23v21h26v-8c0-2 1-3 3-3h6c1 0 1 1 2 1 0 1 1 1 1 2v16c0 1-1 2-1 2-1 1-1 1-2 1zm79 0h-24c-1 0-2 0-2-1-1 0-1-1-1-2v-5c0-1 0-1 1-2 0-1 1-1 2-1h3l-13-18-14 18h4c1 0 1 0 2 1 0 0 1 1 1 2v5c0 2-1 3-3 3h-24c-1 0-2 0-2-1-1 0-1-1-1-2v-5c0-1 0-2 1-2 0-1 1-1 2-1h7l20-26-20-26h-7c-1 0-2-1-2-1-1-1-1-1-1-2v-5c0-1 0-2 1-3h28c0 1 1 2 1 3v5c0 2-1 3-3 3h-4l14 17 13-17h-2c-1 0-2-1-3-1v-7-2c1-1 2-1 3-1h23c1 0 2 0 2 1 1 0 1 1 1 2v5c0 1 0 1-1 2 0 0-1 1-2 1h-7l-20 26 20 26h7s1 0 2 1c0 1 1 1 1 2v5c0 1-1 2-1 2-1 1-2 1-2 1zm36 0h-26c-1 0-1 0-2-1 0 0-1-1-1-2v-5c0-1 1-2 1-2 1-1 1-1 2-1h6v-52h-6c-1 0-1-1-2-1 0-1-1-1-1-2v-5c0-1 1-2 1-3h33c3 0 7 0 10 1s6 3 8 5 4 5 5 8c2 3 2 6 2 10 0 7-2 13-7 17-2 2-5 4-8 5-4 1-7 1-11 1h-12v16h8c1 0 2 0 2 1 1 1 1 1 1 2v5c0 1 0 2-1 2 0 1-1 1-2 1zm-8-37h11c5 0 9-1 12-3 2-2 3-6 3-10 0-2 0-4-1-6s-2-3-3-4-3-2-5-3h-17v26zm102 37h-9c-2 0-3 0-4-2-1 0-3-2-3-4l-10-19s0-1-1-1c0-1 0-1-1-2h-1-12v17h7c1 0 2 0 2 1 1 1 1 1 1 2v5c0 1 0 2-1 2 0 1-1 1-2 1h-25c-1 0-2 0-2-1-1 0-1-1-1-2v-5c0-1 0-2 1-2 0-1 1-1 2-1h6v-52h-6c-1 0-2-1-2-1-1-1-1-1-1-2v-5c0-1 0-2 1-3h32c8 0 14 2 19 6 2 2 4 4 5 7s2 6 2 10c0 5-1 10-4 13-2 3-5 5-9 7v1c1 1 2 2 3 4l8 15h5s1 0 2 1c0 1 1 1 1 2v5c0 1-1 2-1 2-1 1-2 1-2 1zm-41-39h11c10 0 15-4 15-12 0-4-1-7-4-9-2-2-6-3-11-3h-11v24zm103 39h-52c-1 0-2 0-2-1-1 0-1-1-1-2v-5c0-1 0-2 1-2 0-1 1-1 2-1h6v-52h-6c-1 0-2-1-2-1-1-1-1-1-1-2v-5c0-1 0-2 1-3h57v21c-1 0-2 1-3 1h-5c-2 0-3-1-3-3v-8h-26v21h25c1 1 1 2 1 3v5c0 1-1 2-3 2h-23v21h26v-8c0-2 1-3 3-3h5c1 0 2 1 3 1v20c-1 1-2 1-3 1zm18 0h-6s-1 0-2-1c0 0-1-1-1-2v-23c0-1 1-2 1-2 1-1 2-1 2-1h7c2 0 3 1 3 3v2c0 1 0 2 2 4 1 2 2 4 4 5l2 2c1 0 2 1 3 1s3 1 4 1h10c2-1 4-2 5-3 1 0 2-1 3-3v-4-2c0-1-1-2-1-2-1-1-2-2-3-2-1-1-2-1-3-2-1 0-3 0-4-1-1 0-3-1-4-1-2 0-4-1-5-1-2-1-3-1-5-2-2 0-3-1-5-2-1 0-2-1-4-2-3-1-5-3-7-6-1-2-1-3-2-5v-5c0-6 2-11 6-15 3-2 5-3 8-4s7-2 10-2c5 0 9 1 13 2 2 1 3 2 5 3v-1c0-2 1-3 3-3h8v26c-1 1-2 1-2 1h-7c-2 0-3-1-3-3v-3c0-2-1-4-4-7-1-1-2-2-4-2-3-1-5-1-8-1h-5c-2 1-3 2-4 2l-3 3v7s1 1 1 2c1 0 2 1 3 2 1 0 2 1 3 1 2 1 3 1 4 2 2 0 3 1 5 1s3 1 5 1c1 1 3 1 4 2 2 0 4 1 5 1 2 1 3 2 4 2 2 1 3 2 4 3s2 2 3 4c1 1 2 2 2 4 1 2 1 3 1 5 0 6-2 12-7 16-4 4-11 6-19 6-7 0-12-2-16-4-2-1-4-3-6-4v-1 5c0 1 0 2-1 2 0 1-1 1-2 1zm66 0h-6c-1 0-1 0-2-1-1 0-1-1-1-2v-23c0-1 0-2 1-2 1-1 1-1 2-1h6c2 0 3 1 3 3v2c0 1 1 2 2 4 2 2 3 4 5 5l2 2c1 0 2 1 3 1s2 1 4 1h10c2-1 3-2 5-3 1 0 2-1 2-3 1-1 1-2 1-4v-2c-1-1-1-2-2-2 0-1-1-2-2-2-1-1-2-1-3-2-2 0-3 0-4-1-2 0-3-1-5-1-1 0-3-1-4-1-2-1-4-1-5-2-2 0-3-1-5-2-1 0-3-1-4-2-3-1-5-3-7-6-1-2-2-3-2-5 0-1-1-3-1-5 0-6 3-11 7-15 2-2 5-3 8-4s6-2 10-2c5 0 9 1 12 2l6 3v-1c0-2 1-3 3-3h7c1 1 1 2 1 3v21c0 1 0 2-1 2 0 1-1 1-2 1h-6c-2 0-3-1-3-3v-3c0-2-1-4-4-7-1-1-3-2-5-2-2-1-4-1-7-1h-5c-2 1-3 2-4 2-2 1-2 2-3 3 0 1-1 3-1 4s0 2 1 3c0 0 1 1 1 2 1 0 2 1 3 2 1 0 2 1 3 1 1 1 3 1 4 2 2 0 3 1 5 1 1 0 3 1 4 1 2 1 3 1 5 2 2 0 3 1 5 1 1 1 3 2 4 2 2 1 3 2 4 3s2 2 3 4c1 1 2 2 2 4 1 2 1 3 1 5 0 6-2 12-7 16-4 4-11 6-20 6-6 0-11-2-16-4-2-1-3-3-5-4v-1 5c0 1-1 2-1 2-1 1-1 1-2 1z" class="fil14"/>
        <path d="M1530 10785h-9c-1-1-1-2-1-3v-27c0-1 0-2 1-3 1 0 1-1 2-1h8c2 0 3 1 3 4v2c0 1 1 3 2 5l6 6s1 1 2 1c1 1 3 2 4 2 1 1 3 1 4 1 2 1 3 1 5 1 3 0 5-1 8-1 2-1 3-1 5-3l3-3c1-2 1-3 1-5v-3c-1-1-1-2-2-2l-3-3c-1 0-2-1-4-1-1-1-3-1-4-2-2 0-4-1-6-1-1-1-3-1-5-2-2 0-4-1-6-1-2-1-4-2-5-3-2 0-4-1-5-2-4-2-6-4-8-8-1-1-2-3-3-5 0-2-1-4-1-6 0-7 3-13 9-18 2-2 5-4 9-5 3-1 7-2 12-2s10 1 14 3c2 1 5 2 7 3l-1-2c0-2 2-3 4-3h6c2 0 2 0 3 1 1 0 1 1 1 2v26c0 1 0 1-1 2s-1 1-3 1h-7c-2 0-3-1-3-3v-4c0-2-2-5-5-8-1-1-3-2-6-3-2-1-5-1-8-1s-5 0-7 1c-1 0-3 1-4 2-2 1-3 2-3 4-1 1-1 2-1 4v3c1 1 1 2 2 2l3 3c1 0 2 1 4 2 1 0 3 1 5 1 1 1 3 1 5 2 2 0 4 1 5 1 2 1 4 1 6 2 2 0 4 1 6 2 1 1 3 1 5 2 1 1 3 2 4 3 2 2 3 3 4 5 1 1 2 3 2 5 1 2 1 4 1 6 0 7-2 13-8 18-5 5-13 7-23 7-7 0-14-1-19-4-2-2-4-3-6-5l-1-1v6c0 1 0 2-1 2 0 1-1 1-2 1zm145-24l1 1v3l-1 1s0 1-1 2c0 0 0 1-1 1 0 1-1 2-1 3-1 0-2 1-3 2-2 3-5 5-7 6s-3 2-5 2c-2 1-4 2-6 2-2 1-4 1-6 2h-7c-6 0-12-1-17-3s-9-5-13-9-7-9-9-15c-2-5-3-11-3-18 0-6 1-12 3-18 2-5 5-10 9-14s8-7 13-9 10-3 16-3 12 1 16 4c3 1 6 3 8 5v-4-1c0-1 0-1 1-2 0-1 1-1 2-1h7c1 0 2 0 2 1 1 0 1 1 1 2v26c0 2-1 3-3 3h-7c-3 0-4-1-4-3v-1c0-3-2-6-6-10-5-3-10-5-17-5-3 0-7 0-10 2-3 1-5 3-8 6-3 2-5 6-6 9-2 4-2 8-2 13s0 10 2 14c1 3 3 7 6 9 3 3 6 5 9 6 3 2 6 2 10 2s8 0 11-1 5-2 8-4l4-4c2-1 3-3 4-4 1-3 3-3 5-2l5 4zm91 24h-28c-1 0-2 0-3-1 0 0-1-1-1-2v-6c0-1 1-2 1-2 1-1 2-1 3-1h7v-25h-40v25h7c1 0 2 0 3 1 0 0 1 1 1 2v6c0 2-1 3-4 3h-30c-1-1-1-2-1-3v-6c0-1 0-2 1-2 1-1 1-1 2-1h7v-62h-7c-1 0-1-1-2-1-1-1-1-2-1-3v-6c0-1 0-2 1-2 1-1 1-1 2-1h28c1 0 2 0 3 1 0 0 1 1 1 2v6c0 3-1 4-4 4h-7v25h40v-25h-7c-1 0-2-1-3-1 0-1-1-2-1-3v-6c0-1 1-2 1-2 1-1 2-1 3-1h28c1 0 2 0 2 1 1 0 1 1 1 2v6c0 1 0 2-1 3 0 0-1 1-2 1h-7v62h7c1 0 2 0 2 1 1 0 1 1 1 2v6c0 1 0 2-1 2 0 1-1 1-2 1zm75 0h-64c-1-1-1-2-1-3v-6c0-1 0-2 1-2 0-1 1-1 2-1h7v-62h-7c-1 0-2-1-2-1-1-1-1-2-1-3v-6c0-1 0-2 1-2 0-1 1-1 2-1h62c1 0 2 0 2 1 1 0 1 1 1 2v19c0 1 0 2-1 3 0 0-1 1-2 1h-6c-3 0-4-2-4-4v-9h-31v24h27c2 0 2 1 3 1 1 1 1 2 1 3v6c0 2-1 3-4 3h-27v25h31v-10c0-2 1-3 4-3h6c1 0 2 0 2 1 1 0 1 1 1 2v19c0 1 0 2-1 3h-2zm47 0h-34c-1 0-2 0-2-1-1 0-1-1-1-2v-6c0-1 0-2 1-2 0-1 1-1 2-1h7v-62h-7c-1 0-2-1-2-1-1-1-1-2-1-3v-6c0-1 0-2 1-2 0-1 1-1 2-1h32c13 0 24 4 32 12 4 3 7 8 9 14 2 5 3 11 3 18 0 6-1 12-3 18-2 5-5 10-9 14-3 4-8 6-13 8s-11 3-17 3zm-13-12h10c10 0 18-3 23-8s7-13 7-23c0-5 0-10-2-14-1-3-3-7-6-9-2-3-5-5-9-6-4-2-8-2-13-2h-10v62zm119-20v-42h-7c-1 0-1-1-2-1-1-1-1-2-1-3v-6c0-1 0-2 1-2 1-1 1-1 2-1h28c1 0 2 0 3 1 1 0 1 1 1 2v6c0 1 0 2-1 3-1 0-2 1-3 1h-7v41c0 6 0 10-2 15-1 4-3 7-6 10-6 6-14 9-25 9-5 0-10 0-14-2-4-1-8-4-10-7-3-3-6-6-7-10-2-5-2-9-2-15v-41h-7c-1 0-2-1-3-1 0-1-1-2-1-3v-6c0-1 1-2 1-2 1-1 2-1 3-1h28c1 0 2 0 2 1 1 0 1 1 1 2v6c0 3-1 4-3 4h-7v41c0 7 1 12 5 16 3 3 8 5 14 5 7 0 12-2 15-5l3-6c1-3 1-6 1-9zm96 32h-66c-1-1-1-2-1-3v-6c0-1 0-2 1-2 0-1 1-1 2-1h7v-62h-7c-1 0-2-1-2-1-1-1-1-2-1-3v-6c0-1 0-2 1-2 0-1 1-1 2-1h28c2 0 4 1 4 3v6c0 3-2 4-4 4h-7v62h33v-10c0-2 1-3 4-3h6c1 0 2 0 2 1 1 0 1 1 1 2v19c0 2-1 3-3 3zm71 0h-64c-1-1-1-2-1-3v-6c0-1 0-2 1-2 1-1 2-1 3-1h6v-62h-6c-1 0-2-1-3-1-1-1-1-2-1-3v-6c0-1 0-2 1-2 1-1 2-1 3-1h61c1 0 2 0 3 1 0 0 1 1 1 2v19c0 1-1 2-1 3-1 0-2 1-3 1h-6c-2 0-3-2-3-4v-9h-31v24h27c1 0 2 1 2 1 1 1 1 2 1 3v6c0 2-1 3-3 3h-27v25h30v-10c0-2 2-3 4-3h6c1 0 2 0 3 1 0 0 1 1 1 2v19c0 1-1 2-1 3h-3zm83 0h-10c-2 0-3 0-5-1-1-2-2-3-3-5l-11-23c-1 0-1-1-2-2 0 0 0-1-1-1l-1-1h-15v21h9c1 0 2 0 2 1 1 0 1 1 1 2v6c0 1 0 2-1 2 0 1-1 1-2 1h-32c-1-1-1-2-1-3v-6c0-1 0-2 1-2 1-1 1-1 2-1h7v-62h-7c-1 0-1-1-2-1-1-1-1-2-1-3v-6c0-1 0-2 1-2 1-1 1-1 2-1h36c9 0 16 2 22 7 3 2 5 5 6 9 2 3 2 7 2 11 0 7-1 12-4 16s-7 6-11 8l3 6 10 18h5c1 0 2 0 3 1 1 0 1 1 1 2v6c0 1 0 2-1 2-1 1-2 1-3 1zm-48-45h13c12 0 18-5 18-15 0-5-1-8-4-11-3-2-8-3-14-3h-13v29z" class="fil17"/>
      </g>
      <g>
        <path d="M2658 10698c23 0 45 9 61 23l-4 4c-15-14-35-22-57-22-48 0-87 39-87 86 0 48 39 87 87 87 47 0 86-39 86-87 0-17-5-34-14-47l4-4c10 15 15 32 15 51 0 51-41 92-91 92-51 0-92-41-92-92 0-50 41-91 92-91zm1 20c0 1 0 1-1 1s-2 0-2-1v-11c0-1 1-2 2-2s1 1 1 2v11zm-3 143c0-1 1-2 2-2s1 1 1 2v11c0 1 0 2-1 2s-2-1-2-2v-11zm-70-73c1 0 2 1 2 1 0 1-1 2-2 2h-11c-1 0-2-1-2-2 0 0 1-1 2-1h11zm143 3c-1 0-1-1-1-2 0 0 0-1 1-1h12c1 0 1 1 1 1 0 1 0 2-1 2h-12zm-121-53c1 0 1 1 0 2 0 1-2 1-2 0l-8-8c-1-1-1-2 0-2 1-1 2-1 2 0l8 8zm99 103v-2c1-1 2-1 3 0l7 8c1 1 1 2 0 2 0 1-1 1-2 0l-8-8zm-101-2c0-1 2-1 2 0 1 1 1 2 0 2l-8 8c0 1-1 1-2 0-1 0-1-1 0-2l8-8zm52-173c34 0 65 14 87 37l-22 16c-17-16-40-26-65-26-54 0-97 43-97 96 0 54 43 97 97 97 53 0 96-43 96-97 0-20-6-39-17-54l19-20c16 21 25 47 25 74 0 69-55 124-123 124-69 0-124-55-124-124 0-68 55-123 124-123zm-61 87l60 56 144-143-150 109-54-22z" class="fil0"/>
        <path d="M3145 10881h-53c-1 0-1 0-2-1 0 0-1-1-1-2v-5c0-1 1-2 1-2 1-1 1-1 2-1h6v-52h-6c-1 0-1-1-2-1 0-1-1-1-1-2v-5c0-1 1-2 1-3h57c0 1 1 2 1 3v16s-1 1-1 2c-1 0-1 1-2 1h-6c-2 0-3-1-3-3v-8h-26v21h25c1 1 1 2 1 3v5c0 1-1 2-3 2h-23v21h26v-8c0-2 1-3 3-3h6c1 0 1 1 2 1 0 1 1 1 1 2v16c0 1-1 2-1 2-1 1-1 1-2 1zm79 0h-24c-1 0-2 0-2-1-1 0-1-1-1-2v-5c0-1 0-1 1-2 0-1 1-1 2-1h3l-13-18-14 18h4s1 0 2 1c0 0 1 1 1 2v5c0 2-1 3-3 3h-24c-1 0-2 0-2-1-1 0-1-1-1-2v-5c0-1 0-2 1-2 0-1 1-1 2-1h7l20-26-20-26h-7c-1 0-2-1-2-1-1-1-1-1-1-2v-5c0-1 0-2 1-3h28c0 1 1 2 1 3v5c0 2-1 3-3 3h-4l14 17 13-17h-3s-1-1-2-1v-7-2c1-1 2-1 2-1h24c1 0 2 0 2 1 1 0 1 1 1 2v5c0 1 0 1-1 2 0 0-1 1-2 1h-7l-20 26 19 26h8s1 0 2 1v9c-1 1-2 1-2 1zm36 0h-26c-1 0-1 0-2-1-1 0-1-1-1-2v-5c0-1 0-2 1-2 1-1 1-1 2-1h6v-52h-6c-1 0-1-1-2-1-1-1-1-1-1-2v-5c0-1 0-2 1-3h33c3 0 7 0 10 1s5 3 8 5c2 2 4 5 5 8s2 6 2 10c0 7-2 13-7 17-2 2-5 4-8 5-4 1-7 1-12 1h-11v16h8c1 0 2 0 2 1 1 1 1 1 1 2v5c0 1 0 2-1 2 0 1-1 1-2 1zm-8-37h11c5 0 9-1 11-3 3-2 4-6 4-10 0-2 0-4-1-6s-2-3-3-4-3-2-5-3h-17v26zm102 37h-9c-2 0-3 0-4-2-2 0-3-2-4-4l-9-19-1-1c0-1-1-1-1-2h-1-12v17h7c1 0 1 0 2 1 0 1 1 1 1 2v5c0 1-1 2-1 2-1 1-1 1-2 1h-25c-1 0-2 0-2-1-1 0-1-1-1-2v-5c0-1 0-2 1-2 0-1 1-1 2-1h6v-52h-6c-1 0-2-1-2-1-1-1-1-1-1-2v-5c0-1 0-2 1-3h32c8 0 14 2 19 6 2 2 4 4 5 7s2 6 2 10c0 5-2 10-4 13s-5 5-9 7v1c1 1 2 2 3 4l8 15h5s1 0 2 1v9c-1 1-2 1-2 1zm-41-39h11c10 0 15-4 15-12 0-4-2-7-4-9s-6-3-11-3h-11v24zm103 39h-52c-1 0-2 0-2-1-1 0-1-1-1-2v-5c0-1 0-2 1-2 0-1 1-1 2-1h6v-52h-6c-1 0-2-1-2-1-1-1-1-1-1-2v-5c0-1 0-2 1-3h56c1 1 1 2 1 3v16s0 1-1 2c0 0-1 1-2 1h-5c-2 0-3-1-3-3v-8h-26v21h25c1 1 1 2 1 3v5c0 1-1 2-3 2h-23v21h26v-8c0-2 1-3 3-3h5c1 0 2 1 2 1 1 1 1 1 1 2v16c0 1 0 2-1 2 0 1-1 1-2 1zm18 0h-6c-1 0-1 0-2-1 0 0-1-1-1-2v-23c0-1 1-2 1-2 1-1 1-1 2-1h7c1 0 2 1 2 3v2c0 1 1 2 2 4 2 2 3 4 5 5l2 2c1 0 2 1 3 1s3 1 4 1h10c2-1 3-2 5-3 1 0 2-1 2-3 1-1 1-2 1-4v-2c0-1-1-2-2-2 0-1-1-2-2-2-1-1-2-1-3-2-1 0-3 0-4-1-2 0-3-1-5-1-1 0-3-1-4-1-2-1-4-1-5-2-2 0-3-1-5-2-1 0-3-1-4-2-3-1-5-3-7-6-1-2-1-3-2-5 0-1-1-3-1-5 0-6 3-11 7-15 3-2 5-3 8-4s7-2 10-2c5 0 9 1 12 2s4 2 6 3v-1c0-2 1-3 3-3h8v26c-1 1-2 1-3 1h-6c-2 0-3-1-3-3v-3c0-2-1-4-4-7-1-1-3-2-5-2-2-1-4-1-7-1h-5c-2 1-3 2-4 2l-3 3c0 1-1 3-1 4s1 2 1 3c0 0 1 1 1 2 1 0 2 1 3 2 1 0 2 1 3 1 1 1 3 1 4 2 2 0 3 1 5 1 1 0 3 1 4 1 2 1 4 1 5 2 2 0 3 1 5 1 1 1 3 2 4 2 2 1 3 2 4 3s2 2 3 4c1 1 2 2 2 4 1 2 1 3 1 5 0 6-2 12-7 16-4 4-11 6-19 6-7 0-12-2-16-4-2-1-4-3-6-4v-1 5c0 1-1 2-1 2-1 1-1 1-2 1zm66 0h-6c-1 0-2 0-2-1-1 0-1-1-1-2v-23c0-1 0-2 1-2 0-1 1-1 2-1h6c2 0 3 1 3 3v2c0 1 1 2 2 4 2 2 3 4 4 5 1 0 2 1 3 2 1 0 2 1 3 1s2 1 4 1h10c2-1 3-2 4-3 2 0 3-1 3-3 1-1 1-2 1-4v-2c-1-1-1-2-2-2-1-1-1-2-2-2-1-1-2-1-3-2-2 0-3 0-4-1-2 0-3-1-5-1-1 0-3-1-5-1-1-1-3-1-4-2-2 0-3-1-5-2-1 0-3-1-4-2-3-1-5-3-7-6-1-2-2-3-2-5-1-1-1-3-1-5 0-6 3-11 7-15 2-2 5-3 8-4s6-2 10-2c5 0 9 1 12 2l6 3v-1c0-2 1-3 3-3h7c1 1 1 2 1 3v21c0 1 0 2-1 2 0 1-1 1-2 1h-6c-2 0-3-1-3-3v-3c0-2-1-4-4-7-1-1-3-2-5-2-2-1-4-1-7-1h-5c-2 1-3 2-5 2-1 1-1 2-2 3s-1 3-1 4 0 2 1 3c0 0 0 1 1 2 1 0 2 1 3 2 1 0 2 1 3 1 1 1 3 1 4 2 1 0 3 1 4 1 2 0 4 1 5 1 2 1 3 1 5 2 2 0 3 1 5 1 1 1 3 2 4 2 1 1 3 2 4 3s2 2 3 4c1 1 2 2 2 4 1 2 1 3 1 5 0 6-2 12-7 16-4 4-11 6-20 6-6 0-11-2-16-4-2-1-3-3-5-4l-1-1 1 5c0 1-1 2-1 2-1 1-2 1-2 1z" class="fil14"/>
        <path d="M2833 10785h-9c-1-1-1-2-1-3v-27c0-1 0-2 1-3 0 0 1-1 2-1h8c2 0 3 1 3 4v2c0 1 1 3 2 5 2 2 4 4 5 6 1 0 2 1 3 1 1 1 3 2 4 2 1 1 3 1 4 1 2 1 3 1 5 1 3 0 5-1 7-1 2-1 4-1 6-3l3-3c1-2 1-3 1-5 0-1 0-2-1-3 0-1-1-2-1-2l-3-3c-1 0-3-1-4-1-1-1-3-1-5-2-1 0-3-1-5-1-2-1-3-1-5-2-2 0-4-1-6-1-2-1-4-2-5-3-2 0-4-1-5-2-4-2-6-4-8-8-2-1-2-3-3-5 0-2-1-4-1-6 0-7 3-13 8-18 3-2 6-4 10-5 3-1 7-2 12-2s10 1 14 3c2 1 5 2 6 3v-2c0-2 2-3 4-3h6c1 0 2 0 3 1 0 0 1 1 1 2v26c0 1-1 1-1 2-1 1-2 1-3 1h-7c-2 0-3-1-3-3v-4c0-2-2-5-5-8l-6-3c-2-1-5-1-8-1s-5 0-7 1c-2 0-3 1-5 2-1 1-2 2-2 4-1 1-1 2-1 4v3c1 1 1 2 2 2l3 3c1 0 2 1 4 2 1 0 3 1 4 1 2 1 4 1 6 2 2 0 4 1 5 1 2 1 4 1 6 2 2 0 4 1 5 2 2 1 4 1 6 2 1 1 3 2 4 3 2 2 3 3 4 5 1 1 2 3 2 5 1 2 1 4 1 6 0 7-3 13-8 18s-13 7-23 7c-8 0-14-1-19-4-2-2-4-3-6-5l-1-1v6c0 1 0 2-1 2 0 1-1 1-2 1zm145-24v1c1 0 1 1 1 1v2l-1 1s0 1-1 2c0 0 0 1-1 1 0 1-1 2-2 3l-2 2c-3 3-5 5-8 6-1 1-2 2-4 2-2 1-4 2-6 2-2 1-4 1-7 2h-7c-5 0-11-1-16-3s-9-5-13-9-7-9-9-15c-2-5-3-11-3-18 0-6 1-12 3-18 2-5 5-10 9-14s8-7 13-9 10-3 16-3 12 1 16 4c3 1 6 3 8 5v-4-1c0-1 0-1 1-2 0-1 1-1 1-1h8c1 0 2 0 2 1 1 0 1 1 1 2v26c0 2-1 3-3 3h-8c-2 0-3-1-3-3v-1c0-3-2-6-6-10-5-3-10-5-17-5-4 0-7 0-10 2-3 1-6 3-8 6-3 2-5 6-6 9-2 4-2 8-2 13s0 10 2 14c1 3 3 7 6 9 3 3 5 5 9 6 3 2 6 2 10 2s7 0 11-1c3-1 5-2 8-4l4-4c2-1 3-3 3-4 2-3 4-3 6-2l5 4zm91 24h-28c-1 0-2 0-3-1-1 0-1-1-1-2v-6c0-1 0-2 1-2 1-1 2-1 3-1h6v-25h-39v25h7c1 0 2 0 3 1 0 0 1 1 1 2v6c0 2-1 3-4 3h-30c-1-1-1-2-1-3v-6c0-1 0-2 1-2 0-1 1-1 2-1h7v-62h-7c-1 0-2-1-2-1-1-1-1-2-1-3v-6c0-1 0-2 1-2 0-1 1-1 2-1h28c1 0 2 0 3 1 0 0 1 1 1 2v6c0 3-1 4-4 4h-7v25h39v-25h-6c-1 0-2-1-3-1-1-1-1-2-1-3v-6c0-1 0-2 1-2 1-1 2-1 3-1h28c1 0 1 0 2 1 1 0 1 1 1 2v6c0 1 0 2-1 3-1 0-1 1-2 1h-7v62h7c1 0 1 0 2 1 1 0 1 1 1 2v6c0 1 0 2-1 2-1 1-1 1-2 1zm75 0h-64c-1-1-2-2-2-3v-6c0-1 1-2 2-2 0-1 1-1 2-1h7v-62h-7c-1 0-2-1-2-1-1-1-2-2-2-3v-6c0-1 1-2 2-2 0-1 1-1 2-1h62c1 0 2 0 2 1 1 0 1 1 1 2v19c0 1 0 2-1 3 0 0-1 1-2 1h-7c-2 0-3-2-3-4v-9h-31v24h27c1 0 2 1 3 1 1 1 1 2 1 3v6c0 2-1 3-4 3h-27v25h31v-10c0-2 1-3 3-3h7c1 0 2 0 2 1 1 0 1 1 1 2v19c0 1 0 2-1 3h-2zm47 0h-34c-1 0-2 0-2-1-1 0-1-1-1-2v-6c0-1 0-2 1-2 0-1 1-1 2-1h7v-62h-7c-1 0-2-1-2-1-1-1-1-2-1-3v-6c0-1 0-2 1-2 0-1 1-1 2-1h32c13 0 24 4 32 12 4 3 7 8 9 14 2 5 3 11 3 18 0 6-1 12-3 18-2 5-5 10-9 14s-8 6-13 8-11 3-17 3zm-13-12h10c10 0 18-3 23-8s7-13 7-23c0-5-1-10-2-14-1-3-3-7-6-9-2-3-5-5-9-6-4-2-8-2-14-2h-9v62zm119-20v-42h-7c-1 0-2-1-2-1-1-1-1-2-1-3v-6c0-1 0-2 1-2 0-1 1-1 2-1h28c1 0 2 0 3 1 0 0 1 1 1 2v6c0 1-1 2-1 3-1 0-2 1-3 1h-7v41c0 6 0 10-2 15-1 4-3 7-6 10-6 6-14 9-25 9-5 0-10 0-14-2-4-1-8-4-11-7s-5-6-6-10c-2-5-2-9-2-15v-41h-7c-1 0-2-1-3-1 0-1-1-2-1-3v-6c0-1 1-2 1-2 1-1 2-1 3-1h28c1 0 2 0 2 1 1 0 1 1 1 2v6c0 3-1 4-3 4h-7v41c0 7 1 12 4 16 4 3 9 5 15 5 7 0 12-2 15-5l3-6c1-3 1-6 1-9zm96 32h-66c-1-1-1-2-1-3v-6c0-1 0-2 1-2 0-1 1-1 2-1h7v-62h-7c-1 0-2-1-2-1-1-1-1-2-1-3v-6c0-1 0-2 1-2 0-1 1-1 2-1h28c2 0 3 1 3 3v6c0 3-1 4-3 4h-7v62h33v-10c0-2 1-3 4-3h6c1 0 2 0 2 1 1 0 1 1 1 2v19c0 2-1 3-3 3zm71 0h-64c-1-1-1-2-1-3v-6c0-1 0-2 1-2 1-1 1-1 2-1h7v-62h-7c-1 0-1-1-2-1-1-1-1-2-1-3v-6c0-1 0-2 1-2 1-1 1-1 2-1h62c1 0 2 0 3 1 0 0 1 1 1 2v19c0 1-1 2-1 3-1 0-2 1-3 1h-6c-2 0-4-2-4-4v-9h-31v24h28c1 0 2 1 2 1 1 1 1 2 1 3v6c0 2-1 3-3 3h-28v25h31v-10c0-2 2-3 4-3h6c1 0 2 0 3 1 0 0 1 1 1 2v19c0 1-1 2-1 3h-3zm83 0h-10c-2 0-3 0-5-1-1-2-2-3-4-5l-10-23c-1 0-1-1-2-2l-1-1-1-1h-15v21h9c1 0 2 0 2 1 1 0 1 1 1 2v6c0 1 0 2-1 2 0 1-1 1-2 1h-32c-1-1-1-2-1-3v-6c0-1 0-2 1-2 0-1 1-1 2-1h7v-62h-7c-1 0-2-1-2-1-1-1-1-2-1-3v-6c0-1 0-2 1-2 0-1 1-1 2-1h36c9 0 16 2 22 7 2 2 5 5 6 9 1 3 2 7 2 11 0 7-1 12-5 16-2 4-6 6-10 8l3 6 9 18h6c1 0 2 0 3 1 0 0 1 1 1 2v6c0 1-1 2-1 2-1 1-2 1-3 1zm-48-45h13c12 0 18-5 18-15 0-5-2-8-4-11-3-2-8-3-14-3h-13v29z" class="fil17"/>
      </g>
      <g>
        <path d="M2630 10059c23 0 44 8 59 22l-4 4c-15-13-34-21-55-21-47 0-84 37-84 83 0 47 37 84 84 84 46 0 83-37 83-84 0-17-5-33-13-46l3-3c10 14 16 31 16 49 0 50-40 89-89 89s-89-39-89-89c0-49 40-88 89-88zm1 19c0 1 0 2-1 2s-2-1-2-2v-11c0-1 1-2 2-2s1 1 1 2v11zm-3 139c0-1 1-2 2-2s1 1 1 2v11c0 1 0 1-1 1s-2 0-2-1v-11zm-68-71c1 0 2 1 2 1 0 1-1 2-2 2h-11s-1-1-1-2l1-1h11zm139 3c-1 0-1-1-1-2 0 0 0-1 1-1h11c1 0 2 1 2 1 0 1-1 2-2 2h-11zm-117-52v2c-1 1-2 1-3 0l-7-7c-1-1-1-2 0-2 0-1 1-1 2 0l8 7zm96 101c-1-1-1-2 0-3h2l8 8v2c-1 1-2 1-3 0l-7-7zm-99-3h3v3l-8 7c-1 1-2 1-2 0-1 0-1-1 0-2l7-8zm51-167c33 0 63 13 85 35l-22 16c-17-16-39-25-63-25-52 0-94 42-94 93 0 52 42 94 94 94 51 0 93-42 93-94 0-19-6-38-16-53l18-18c15 20 24 45 24 71 0 67-53 120-119 120s-120-53-120-120c0-66 54-119 120-119zm-59 84l58 54 140-138-145 105-53-21z" class="fil0"/>
        <path d="M2860 10262h-66c-2 0-2 0-3-1s-1-2-1-3v-6c0-1 0-2 1-3 1 0 1-1 3-1h7v-67h-10c-1-1-1-2-1-3v-7c0-1 0-2 1-2 1-1 1-1 3-1h66c1 0 2 0 3 1 1 0 1 1 1 2v21c0 1 0 2-1 2-1 1-2 1-3 1h-7c-2 0-3-1-3-3v-11h-34v27h30c1 0 2 0 2 1 1 1 2 2 2 3v6c0 3-2 4-4 4h-30v26h34v-10c0-2 1-4 3-4h7c1 0 2 1 3 1 1 1 1 2 1 3v20c0 1 0 2-1 3s-2 1-3 1zm100 0h-30c-1 0-2 0-3-1 0-1-1-2-1-3v-6c0-1 1-2 1-3 1 0 2-1 3-1h4l-16-23-18 23h5c1 0 2 1 2 1 1 1 1 2 1 3v6c0 3-1 4-3 4h-31c-1 0-2 0-2-1-1-1-1-2-1-3v-6c0-1 0-2 1-3 0 0 1-1 2-1h9l25-33-25-34h-11c-1-1-1-2-1-3v-7c0-1 0-2 1-2 0-1 1-1 2-1h31c1 0 2 0 2 1 1 0 1 1 1 2v7c0 2-1 3-3 3h-5l17 23 17-23h-3c-1 0-2 0-3-1 0 0-1-1-1-2v-7c0-1 1-2 1-2 1-1 2-1 3-1h30c1 0 2 0 3 1 1 0 1 1 1 2v7c0 1 0 2-1 2-1 1-2 1-3 1h-9l-26 34 25 33h9c1 0 2 1 3 1 1 1 1 2 1 3v6c0 1 0 2-1 3s-2 1-3 1zm47 0h-33c-1 0-2 0-3-1s-1-2-1-3v-6c0-1 0-2 1-3 1 0 2-1 3-1h7v-67h-10c-1-1-1-2-1-3v-7c0-1 0-2 1-2 1-1 2-1 3-1h38c5 0 9 0 13 2 4 1 8 3 11 6s5 6 7 10c1 4 2 8 2 12 0 10-3 17-9 22-3 3-7 5-11 6s-9 2-14 2h-15v20h11c1 0 2 1 2 1 1 1 1 2 1 3v6c0 1 0 2-1 3 0 1-1 1-2 1zm-11-47h15c6 0 11-2 14-4 3-3 4-7 4-13 0-2 0-5-1-7s-2-4-4-5c-1-2-3-3-6-3-2-1-5-2-7-2h-15v34zm129 47h-11c-2 0-3-1-5-2s-3-3-4-5l-12-24c0-1-1-2-1-3-1 0-1-1-2-1 0 0 0-1-1-1h-15v22h9c1 0 2 1 2 1 1 1 1 2 1 3v6c0 1 0 2-1 3 0 1-1 1-2 1h-32c-1 0-2 0-3-1s-1-2-1-3v-6c0-1 0-2 1-3 1 0 2-1 3-1h7v-67h-10c-1-1-1-2-1-3v-7c0-1 0-2 1-2 1-1 2-1 3-1h38c10 0 18 2 24 7 3 3 5 6 7 10 1 3 2 7 2 12 0 7-2 13-5 17s-7 7-12 9h1l3 6 10 19h6c1 0 2 1 3 1 1 1 1 2 1 3v6c0 1 0 2-1 3s-2 1-3 1zm-51-49h13c13 0 19-6 19-16 0-5-1-9-4-12-3-2-8-4-15-4h-13v32zm131 49h-66c-2 0-3 0-3-1-1-1-1-2-1-3v-6c0-1 0-2 1-3 0 0 1-1 3-1h7v-67h-10c-1-1-1-2-1-3v-7c0-1 0-2 1-2 0-1 1-1 3-1h66c1 0 2 0 3 1 1 0 1 1 1 2v21c0 1 0 2-1 2-1 1-2 1-3 1h-7c-2 0-3-1-3-3v-11h-34v27h30c1 0 2 0 2 1 1 1 1 2 1 3v6c0 3-1 4-3 4h-30v26h33v-10c0-2 2-4 4-4h7c1 0 2 1 3 1 1 1 1 2 1 3v20c0 1 0 2-1 3s-2 1-3 1zm22 0h-7c-1 0-2 0-2-1-1-1-1-2-1-3v-29c0-1 0-2 1-3 0 0 1-1 2-1h8c3 0 4 1 4 4v3c0 1 1 2 2 5l6 6c1 1 2 1 3 2s2 1 4 2c1 0 3 1 4 1h6c3 0 5 0 8-1 2 0 4-1 5-2 2-1 3-3 4-4 1-2 1-4 1-6 0-1 0-2-1-3 0 0-1-1-1-2-1-1-2-2-4-2-1-1-2-2-4-2-1-1-3-1-5-2-1 0-3-1-5-1-2-1-4-2-6-2-2-1-4-1-6-2s-4-1-6-2l-6-3c-3-2-6-5-8-8l-3-6c0-2-1-4-1-7 0-7 3-14 9-19 3-2 6-4 10-5s8-2 13-2c6 0 11 1 15 3 3 1 5 2 7 4v-3c0-2 1-3 4-3h7c1 0 2 0 3 1 0 0 1 1 1 2v28c0 1-1 2-1 2-1 1-2 1-3 1h-8c-2 0-4-1-4-3v-4c0-3-1-6-5-9-1-1-3-2-6-3s-6-1-9-1h-7c-2 1-4 2-5 3-2 1-3 2-3 4-1 1-1 3-1 4v4c1 1 1 2 2 2l3 3c2 1 3 1 5 2 1 1 3 1 5 2 2 0 3 1 5 1 3 1 5 1 6 2 2 1 4 1 6 2 3 0 4 1 6 2s4 2 6 2c2 1 3 3 5 4l4 4c1 2 2 4 2 6 1 2 1 4 1 6 0 8-3 15-8 20-6 5-14 8-25 8-8 0-15-2-21-5-2-2-4-3-6-5l-1-1v6c0 1 0 2-1 3s-2 1-3 1zm84 0h-7c-1 0-2 0-3-1s-1-2-1-3v-29c0-1 0-2 1-3 1 0 2-1 3-1h8c2 0 3 1 3 4v3c0 1 1 2 3 5 2 2 3 4 5 6 1 1 2 1 3 2 2 1 3 1 4 2 2 0 3 1 5 1h5c3 0 6 0 8-1 2 0 4-1 6-2 1-1 3-3 3-4 1-2 1-4 1-6v-3c-1 0-1-1-2-2s-2-2-3-2c-1-1-3-2-4-2-2-1-3-1-5-2-2 0-4-1-6-1-2-1-4-2-6-2-2-1-4-1-6-2s-4-1-6-2-3-2-5-3c-4-2-7-5-9-8-1-2-2-4-2-6-1-2-1-4-1-7 0-7 3-14 8-19 3-2 7-4 11-5 3-1 8-2 12-2 6 0 11 1 16 3 2 1 5 2 7 4v-3c0-2 1-3 3-3h7c2 0 2 0 3 1 1 0 1 1 1 2v28c0 1 0 2-1 2-1 1-1 1-3 1h-7c-3 0-4-1-4-3v-4c0-3-2-6-5-9l-6-3c-3-1-6-1-10-1h-6l-6 3c-1 1-2 2-3 4 0 1-1 3-1 4 0 2 0 3 1 4 0 1 1 2 2 2l3 3c1 1 3 1 4 2 2 1 3 1 5 2 2 0 4 1 6 1 2 1 4 1 6 2s4 1 6 2c2 0 4 1 6 2s4 2 5 2c2 1 4 3 5 4 2 1 3 3 4 4l3 6c1 2 1 4 1 6 0 8-3 15-9 20-5 5-14 8-25 8-8 0-15-2-20-5-3-2-5-3-7-5l-1-1 1 6c0 1-1 2-1 3-1 1-2 1-3 1z" class="fil14"/>
        <path d="M2801 10127h-7c-2 0-2 0-3-1s-1-1-1-3v-29c0-1 0-2 1-3 1 0 1-1 3-1h7c3 0 4 2 4 4v3c0 1 1 2 3 5 1 2 3 4 5 6 1 1 2 1 3 2s3 1 4 2c2 0 3 1 5 1h5c3 0 6 0 8-1 2 0 4-1 6-2 1-1 2-3 3-4 1-2 1-4 1-6v-3c-1 0-1-1-2-2s-2-2-3-2c-2-1-3-2-4-2-2-1-4-1-5-2-2 0-4-1-6-1-2-1-4-2-6-2-2-1-4-1-6-2s-4-1-6-2-4-2-5-3c-4-2-7-4-9-8l-3-6v-7c0-7 2-14 8-19 3-2 6-4 10-5s8-2 13-2c6 0 11 1 16 3 2 1 4 2 6 4v-3c0-2 2-3 4-3h7c1 0 2 0 3 1 1 0 1 1 1 2v28c0 1 0 2-1 2-1 1-2 1-3 1h-8c-2 0-3-1-3-3v-4c0-3-2-6-5-9-2-1-4-2-7-3-2-1-5-1-9-1h-7c-2 1-3 2-5 3-1 1-2 2-3 4-1 1-1 3-1 4 0 2 0 3 1 4 0 1 1 2 1 2 1 1 2 2 4 3 1 1 2 1 4 2 1 1 3 1 5 2 2 0 4 1 6 1 2 1 4 1 6 2s4 1 6 2c2 0 4 1 6 2s3 2 5 2c2 1 4 3 5 4 2 1 3 3 4 4l3 6c0 2 1 4 1 6 0 8-3 15-9 20s-14 8-25 8c-8 0-15-2-20-5-3-2-5-3-7-5l-1-1v6c0 1 0 2-1 3 0 1-1 1-2 1zm156-27c0 1 0 1 1 2v3s0 1-1 1c0 1 0 1-1 2 0 0 0 1-1 2l-2 2-3 3c-2 3-5 5-8 6-1 1-3 2-4 3-2 1-4 1-7 2-2 1-4 1-7 1-2 1-5 1-7 1-7 0-13-1-18-3-5-3-10-6-14-11-5-4-8-9-10-15s-3-12-3-20c0-7 1-13 3-19s5-11 10-15c4-4 9-8 14-10s11-3 17-3c7 0 13 1 18 4 3 1 6 3 8 5v-4-1c0-1 0-2 1-2 0-1 1-1 2-1h8c1 0 2 0 2 1 1 0 1 1 1 2v28c0 2-1 4-3 4h-8c-3 0-4-2-4-4v-1c0-4-2-7-7-11-5-3-11-5-18-5-4 0-7 0-10 2-4 1-7 3-10 6-2 3-5 6-6 10-1 5-2 9-2 15 0 5 1 10 2 14s4 7 7 10c2 3 6 5 9 7 3 1 7 2 11 2s8 0 12-1c3-1 6-3 8-5 2-1 4-3 5-4 2-2 3-3 4-5s3-3 5-1l6 3zm98 27h-30c-2 0-2 0-3-1s-1-2-1-3v-6c0-1 0-2 1-3 1 0 1-1 3-1h7v-26h-42v26h7c1 0 2 1 3 1 1 1 1 2 1 3v6c0 3-1 4-4 4h-30c-1 0-2 0-3-1 0-1-1-1-1-3v-6c0-1 1-2 1-3 1 0 2-1 3-1h8v-67h-11c0-1-1-2-1-3v-7c0-1 1-2 1-2 1-1 2-1 3-1h30c1 0 2 0 3 1 1 0 1 1 1 2v7c0 2-1 3-4 3h-7v27h42v-27h-7c-2 0-2 0-3-1-1 0-1-1-1-2v-7c0-1 0-2 1-2 1-1 1-1 3-1h30c1 0 2 0 2 1 1 0 1 1 1 2v7c0 1 0 2-1 2 0 1-1 1-2 1h-8v67h8c1 0 2 1 2 1 1 1 1 2 1 3v6c0 1 0 2-1 3 0 1-1 1-2 1zm81 0h-67c-1 0-2 0-2-1-1-1-1-1-1-3v-6c0-1 0-2 1-3 0 0 1-1 2-1h8v-67h-10c-1-1-1-2-1-3v-7c0-1 0-2 1-2 0-1 1-1 2-1h67c1 0 2 0 3 1 0 0 1 1 1 2v21c0 1-1 2-1 2-1 1-2 1-3 1h-7c-2 0-4-1-4-3v-11h-33v27h29c2 0 2 1 3 1 1 1 1 2 1 3v6c0 3-1 4-4 4h-29v26h33v-10c0-2 2-3 4-3h10c0 1 1 2 1 3v20c0 2-1 2-1 3-1 1-2 1-3 1zm50 0h-36c-1 0-2 0-2-1-1-1-1-2-1-3v-6c0-1 0-2 1-3 0 0 1-1 2-1h8v-67h-8c-1 0-2 0-2-1-1 0-1-1-1-2v-7c0-1 0-2 1-2 0-1 1-1 2-1h34c15 0 26 4 35 12 4 5 7 10 10 15 2 6 3 13 3 20s-1 13-3 19-5 11-9 15c-5 5-9 8-15 10s-12 3-19 3zm-13-14h10c11 0 20-3 25-8 5-6 8-14 8-25 0-5-1-10-2-14s-4-8-6-11c-3-3-6-5-11-6-4-2-8-3-14-3h-10v67zm128-21v-46h-7c-1 0-2 0-3-1 0 0-1-1-1-2v-7c0-1 1-2 1-2 1-1 2-1 3-1h30c1 0 2 0 3 1 0 0 1 1 1 2v7c0 1-1 2-1 2-1 1-2 1-3 1h-7v45c0 6-1 11-3 16-1 4-4 8-7 11-6 7-15 10-26 10-6 0-11-1-15-2-5-2-9-4-12-8-3-3-5-7-7-11-2-5-2-10-2-16v-45h-10c-1-1-2-2-2-3v-7c0-1 1-2 2-2 0-1 1-1 2-1h30c1 0 2 0 3 1 1 0 1 1 1 2v7c0 2-1 3-4 3h-7v46c0 7 2 12 5 16s9 5 16 5 12-1 15-5c2-2 3-4 4-7 1-2 1-5 1-9zm103 35h-68c-1 0-2 0-3-1s-1-1-1-3v-6c0-1 0-2 1-3 1 0 2-1 3-1h7v-67h-10c-1-1-1-2-1-3v-7c0-1 0-2 1-2 1-1 2-1 3-1h30c2 0 4 1 4 4v6c0 2-2 3-4 3h-8v67h36v-10c0-2 1-3 4-3h6c2 0 2 0 3 1 1 0 1 1 1 2v20c0 3-1 4-4 4zm77 0h-66c-1 0-2 0-3-1s-1-1-1-3v-6c0-1 0-2 1-3 1 0 2-1 3-1h7v-67h-10c-1-1-1-2-1-3v-7c0-1 0-2 1-2 1-1 2-1 3-1h66c2 0 2 0 3 1 1 0 1 1 1 2v21c0 1 0 2-1 2-1 1-1 1-3 1h-6c-3 0-4-1-4-3v-11h-34v27h30c1 0 2 1 3 1 0 1 1 2 1 3v6c0 3-1 4-4 4h-30v26h34v-10c0-2 1-3 4-3h9c1 1 1 2 1 3v20c0 2 0 2-1 3s-1 1-3 1zm90 0h-11c-2 0-4-1-5-2-2-1-3-3-4-5l-12-24c0-1-1-2-1-3-1 0-1-1-2-1 0 0 0-1-1-1h-16v22h9c2 0 2 1 3 1 1 1 1 2 1 3v6c0 1 0 2-1 3s-1 1-3 1h-31c-1 0-2 0-3-1s-1-1-1-3v-6c0-1 0-2 1-3 1 0 2-1 3-1h7v-67h-10c-1-1-1-2-1-3v-7c0-1 0-2 1-2 1-1 2-1 3-1h38c10 0 18 2 24 7 3 3 5 6 6 10 2 3 3 7 3 12 0 7-2 13-5 17s-7 7-12 9h1l3 6 10 19h6c1 0 2 1 3 1 1 1 1 2 1 3v6c0 1 0 2-1 3s-2 1-3 1zm-52-49h14c13 0 19-6 19-16 0-5-1-9-4-12-3-2-8-4-15-4h-14v32z" class="fil17"/>
      </g>
      <g>
        <path d="M1995 9571h-50v-8-2c1 0 1-1 2-1h6v-53h-6s-1 0-2-1v-7-2c1-1 1-1 2-1h48c1 0 2 0 2 1 1 1 1 1 1 2v16c0 1 0 2-1 2 0 1-1 1-2 1h-5c-1 0-2-1-2-3v-8h-24v21h21c1 0 1 1 2 1 0 1 1 1 1 2v5c0 2-1 3-3 3h-21v21h24v-8c0-2 1-3 2-3h5c1 0 2 1 2 1 1 1 1 1 1 2v16c0 1 0 2-1 3h-2zm72 0h-23c-1-1-1-2-1-3v-5c0-1 0-1 1-2 0 0 1-1 2-1h3l-12-18-13 18h3c1 0 2 1 2 1 1 1 1 1 1 2v5c0 2-1 3-3 3h-23c-1-1-1-2-1-3v-5c0-1 0-1 1-2 0 0 1-1 2-1h6l18-27-18-26h-6c-1 0-2 0-2-1-1 0-1-1-1-2v-5c0-1 0-1 1-2 0-1 1-1 2-1h21c1 0 2 0 2 1 1 1 1 1 1 2v5c0 2-1 3-3 3h-3l12 18 13-18h-3c-1 0-1 0-2-1v-7-2c1-1 1-1 2-1h22c1 0 1 0 2 1 0 1 1 1 1 2v5c0 1-1 2-1 2-1 1-1 1-2 1h-7l-18 27 18 26h6c1 0 2 1 2 1 1 1 1 1 1 2v5c0 1 0 2-1 3h-2zm34 0h-26c0-1-1-2-1-3v-5c0-1 1-1 1-2 1 0 1-1 2-1h5v-53h-5c-1 0-1 0-2-1 0 0-1-1-1-2v-5c0-1 1-1 1-2 1-1 1-1 2-1h28c3 0 6 1 9 2s6 3 8 5 4 5 5 8 1 6 1 10c0 7-2 13-6 17-2 2-5 4-8 5s-6 1-10 1h-11v16h8c1 0 1 1 2 1v10h-2zm-8-37h11c4 0 8-1 10-4 2-2 3-5 3-9 0-3 0-5-1-6 0-2-1-3-2-4-2-2-3-2-5-3-1-1-3-1-5-1h-11v27zm93 37h-7c-2 0-3 0-4-1-2-1-3-3-3-4l-9-19c0-1 0-2-1-2 0-1 0-1-1-2h-1-11v17h7l1 1c1 1 1 1 1 2v5c0 1 0 2-1 3h-26c-1-1-1-2-1-3v-5c0-1 0-1 1-2 0 0 1-1 2-1h5v-53h-5c-1 0-2 0-2-1-1 0-1-1-1-2v-5c0-1 0-1 1-2 0-1 1-1 2-1h28c6 0 12 2 16 6 2 2 4 5 5 8s2 6 2 10c0 5-1 10-4 13-2 3-5 5-8 7 1 2 2 3 3 5l7 15h4c1 0 2 1 2 1 1 1 1 1 1 2v5c0 1 0 2-1 3h-2zm-37-39h10c9 0 14-4 14-12 0-4-1-8-4-10-2-2-5-3-10-3h-10v25zm95 39h-50c-1-1-1-2-1-3v-5c0-1 0-1 1-2 0 0 1-1 2-1h5v-53h-5c-1 0-2 0-2-1-1 0-1-1-1-2v-5c0-1 0-1 1-2 0-1 1-1 2-1h48c1 0 1 0 2 1 0 1 1 1 1 2v16c0 1-1 2-1 2-1 1-1 1-2 1h-5c-2 0-3-1-3-3v-8h-24v21h21c1 0 2 1 2 1 1 1 1 1 1 2v5c0 2-1 3-3 3h-21v21h24v-8c0-2 1-3 3-3h5c1 0 1 1 2 1 0 1 1 1 1 2v16c0 1-1 2-1 3h-2zm16 0h-7c-1-1-1-2-1-3v-23c0-1 0-2 1-2 0-1 1-1 2-1h5c2 0 3 1 3 3v2c0 1 1 2 2 4s3 4 4 5c0 1 1 1 2 2 1 0 2 1 3 1 1 1 2 1 3 1h10c1-1 3-1 4-2s2-2 2-4c1-1 1-2 1-4v-2c-1-1-1-2-2-2 0-1-1-2-2-2-1-1-2-1-3-2-1 0-2 0-3-1-2 0-3-1-4-1-2-1-3-1-5-1-1-1-3-1-4-2-2 0-3-1-4-2-2 0-3-1-4-2-3-1-5-4-6-6s-2-3-2-5c-1-2-1-3-1-5 0-6 2-11 6-15 2-2 5-4 8-5 2-1 5-1 9-1s8 0 11 2c2 1 3 2 5 3v-2c0-2 1-3 3-3h5s1 0 2 1v26c-1 0-2 1-2 1h-6c-2 0-3-1-3-3v-3c0-2-1-5-3-7-2-1-3-2-5-3-2 0-4-1-6-1s-4 1-5 1c-2 0-3 1-4 2s-2 2-2 3c-1 1-1 2-1 4v2c1 1 1 2 2 2 0 1 1 2 2 2 1 1 2 2 3 2 1 1 2 1 4 1 1 1 2 1 4 2 1 0 3 1 4 1 2 1 3 1 5 2 1 0 2 1 4 1 1 1 2 2 4 2l3 3c1 1 2 2 3 4 1 1 2 2 2 4s1 3 1 5c0 7-2 12-7 16-4 4-10 6-18 6-5 0-10-1-14-4-2-1-4-3-5-4h-1l1 4c0 1-1 2-1 3h-2zm60 0h-7c-1-1-1-2-1-3v-23c0-1 0-2 1-2 0-1 1-1 2-1h6c1 0 2 1 2 3v2c0 1 1 2 2 4s3 4 4 5l2 2c1 0 2 1 3 1 1 1 2 1 3 1h10c1-1 3-1 4-2s2-2 2-4c1-1 1-2 1-4v-2c0-1-1-2-1-2-1-1-2-2-3-2-1-1-2-1-3-2-1 0-2 0-3-1-2 0-3-1-4-1-2-1-3-1-5-1-1-1-3-1-4-2-1 0-3-1-4-2-2 0-3-1-4-2-3-1-5-4-6-6s-2-3-2-5c-1-2-1-3-1-5 0-6 2-11 6-15 3-2 5-4 8-5 2-1 6-1 9-1 4 0 8 0 11 2 2 1 4 2 5 3v-2c0-2 1-3 3-3h5c1 0 1 0 2 1v26c-1 0-1 1-2 1h-6c-2 0-3-1-3-3v-3c0-2-1-5-3-7-1-1-3-2-5-3-2 0-4-1-6-1s-4 1-5 1c-2 0-3 1-4 2s-2 2-2 3c-1 1-1 2-1 4v2c1 1 1 2 2 2 0 1 1 2 2 2 1 1 2 2 3 2 1 1 2 1 4 1 1 1 3 1 4 2 1 0 3 1 4 1 2 1 3 1 5 2 1 0 3 1 4 1 1 1 3 2 4 2l3 3c2 1 2 2 3 4 1 1 2 2 2 4 1 2 1 3 1 5 0 7-2 12-6 16s-10 6-18 6c-6 0-11-1-15-4-2-1-3-3-5-4v4c0 1-1 2-1 3h-2z" class="fil14"/>
        <path d="M1378 9571h-7c0-1-1-2-1-3v-23c0-1 1-2 1-2 1-1 1-1 2-1h6c2 0 3 1 3 3v2c0 1 0 2 1 4 2 2 3 4 4 5s2 1 2 2c1 0 2 1 3 1 1 1 3 1 4 1h9c2-1 3-1 4-2 2-1 2-2 3-4 1-1 1-2 1-4 0-1 0-2-1-2 0-1 0-2-1-2-1-1-1-2-2-2-1-1-2-1-3-2-1 0-2 0-4-1-1 0-2-1-4-1-1-1-3-1-4-1-2-1-3-1-5-2-1 0-3-1-4-2-1 0-3-1-4-2-2-1-4-4-6-6-1-2-2-3-2-5s-1-3-1-5c0-6 3-11 7-15 2-2 4-4 7-5s6-1 9-1c5 0 8 0 12 2 1 1 3 2 5 3v-2c0-2 0-3 2-3h5c1 0 2 0 2 1 1 0 1 1 1 2v22c0 1 0 1-1 2 0 0-1 1-2 1h-5c-2 0-3-1-3-3v-3c0-2-1-5-4-7-1-1-2-2-4-3-2 0-4-1-7-1-2 0-3 1-5 1-1 0-3 1-4 2s-1 2-2 3c0 1-1 2-1 4 0 1 0 2 1 2 0 1 1 2 1 2l2 2c1 1 2 2 3 2 2 1 3 1 4 1 2 1 3 1 4 2 2 0 3 1 5 1 1 1 3 1 4 2 2 0 3 1 4 1 2 1 3 2 4 2 2 1 3 2 4 3s2 2 3 4c1 1 1 2 2 4v5c0 7-2 12-6 16s-10 6-18 6c-6 0-11-1-15-4-2-1-3-3-5-4v4c0 1 0 2-1 3h-2zm113-21c1 0 1 1 1 1 0 1 1 1 1 1 0 1-1 1-1 2v1s0 1-1 1c0 0 0 1-1 1 0 1 0 2-1 2-1 1-1 2-2 3-2 2-4 3-6 5-1 1-2 1-3 2-2 0-3 1-5 1-2 1-3 1-5 2h-6c-4 0-8-1-12-3-4-1-8-4-11-8-3-3-5-7-7-12-1-5-2-10-2-16 0-5 1-10 2-15 2-5 4-9 7-12 3-4 7-6 11-8s8-2 12-2c5 0 9 1 13 2 2 2 4 3 6 5v-4-2c1 0 1-1 2-1h6s1 0 2 1v24c0 2-1 3-2 3h-6c-2 0-3-1-3-3v-1c0-2-2-5-5-8s-8-5-13-5c-3 0-5 1-7 2-3 1-5 3-7 5s-4 5-5 8c-1 4-1 7-1 12 0 4 0 8 1 11s3 6 5 8c2 3 4 4 7 5 2 2 5 2 8 2s6 0 8-1c3-1 5-2 6-3l4-4c1-1 2-2 3-4s2-2 4-1l3 3zm72 21h-24c-1-1-1-2-1-3v-5c0-1 0-1 1-2 0 0 1-1 2-1h5v-21h-30v21h5c1 0 1 1 2 1 0 1 1 1 1 2v5c0 2-1 3-3 3h-24c0-1-1-2-1-3v-5c0-1 1-1 1-2 1 0 1-1 2-1h5v-53h-5c-1 0-1 0-2-1 0 0-1-1-1-2v-5c0-1 1-1 1-2 1-1 1-1 2-1h22c1 0 1 0 2 1 0 1 1 1 1 2v5c0 2-1 3-3 3h-5v22h30v-22h-5c-1 0-2 0-2-1-1 0-1-1-1-2v-5c0-1 0-1 1-2 0-1 1-1 2-1h22s1 0 2 1v9c-1 1-2 1-2 1h-6v53h6s1 1 2 1v10h-2zm59 0h-51c0-1-1-2-1-3v-5c0-1 1-1 1-2 1 0 1-1 2-1h6v-53h-6c-1 0-1 0-2-1 0 0-1-1-1-2v-5c0-1 1-1 1-2 1-1 1-1 2-1h49s1 0 1 1c1 1 1 1 1 2v18c-1 1-2 1-2 1h-5c-2 0-3-1-3-3v-8h-24v21h21c1 0 2 1 2 1 1 1 1 1 1 2v5c0 2-1 3-3 3h-21v21h24v-8c0-2 1-3 3-3h5l1 1c1 1 1 1 1 2v16c0 1 0 2-1 3h-1zm36 0h-28c0-1-1-2-1-3v-5c0-1 1-1 1-2 1 0 1-1 2-1h5v-53h-5c-1 0-1 0-2-1 0 0-1-1-1-2v-5c0-1 1-1 1-2 1-1 1-1 2-1h25c10 0 18 4 25 10 3 4 5 8 7 12 1 5 2 10 2 16 0 5-1 11-2 15-2 5-4 9-7 12-3 4-6 6-10 8s-9 2-14 2zm-9-11h7c8 0 14-2 18-6 4-5 6-11 6-20 0-4-1-8-2-12-1-3-2-6-4-8s-5-4-8-5-6-2-10-2h-7v53zm93-16v-37h-6c-1 0-1 0-2-1 0 0-1-1-1-2v-5c0-1 1-1 1-2 1-1 1-1 2-1h22c1 0 2 0 2 1 1 1 1 1 1 2v5c0 1 0 2-1 2 0 1-1 1-2 1h-5v36c0 4-1 9-2 12-1 4-3 7-5 10-5 5-11 7-19 7-4 0-8-1-11-2-4-1-6-3-9-5-2-3-4-6-5-10-1-3-2-8-2-12v-36h-5c-1 0-1 0-2-1 0 0-1-1-1-2v-5c0-1 1-1 1-2 1-1 1-1 2-1h22c1 0 1 0 2 1 0 1 1 1 1 2v5c0 2-1 3-3 3h-6v36c0 6 2 10 4 13 3 3 6 4 12 4 5 0 9-1 11-4 1-1 2-3 3-5 0-2 1-5 1-7zm74 27h-51c-1-1-1-2-1-3v-5c0-1 0-1 1-2 0 0 1-1 2-1h5v-53h-5c-1 0-2 0-2-1-1 0-1-1-1-2v-5c0-1 0-1 1-2 0-1 1-1 2-1h21c2 0 3 1 3 3v5c0 2-1 3-3 3h-5v53h26v-8c0-2 1-3 2-3h5c1 0 2 1 2 1 1 1 1 1 1 2v16c0 2-1 3-3 3zm56 0h-50c-1-1-1-2-1-3v-5c0-1 0-1 1-2 0 0 1-1 2-1h5v-53h-5c-1 0-2 0-2-1-1 0-1-1-1-2v-5c0-1 0-1 1-2 0-1 1-1 2-1h48c1 0 2 0 2 1 1 1 1 1 1 2v16c0 1 0 2-1 2 0 1-1 1-2 1h-5c-1 0-2-1-2-3v-8h-25v21h22c1 0 1 1 2 1 0 1 1 1 1 2v5c0 2-1 3-3 3h-22v21h25v-8c0-2 0-3 2-3h5c1 0 2 1 2 1 1 1 1 1 1 2v16c0 1 0 2-1 3h-2zm65 0h-8c-1 0-2 0-4-1-1-1-2-3-2-4l-9-19c0-1-1-2-1-2 0-1-1-1-1-2h-1-11v17h6c1 0 2 1 2 1 1 1 1 1 1 2v5c0 1 0 2-1 3h-27v-8-2c1 0 1-1 2-1h6v-53h-6c-1 0-1 0-2-1v-7-2c1-1 1-1 2-1h28c7 0 13 2 17 6 2 2 4 5 5 8s2 6 2 10c0 5-1 10-4 13-2 3-5 5-8 7 1 2 2 3 3 5l7 15h4c1 0 2 1 2 1 1 1 1 1 1 2v5c0 1 0 2-1 3h-2zm-37-39h10c9 0 14-4 14-12 0-4-1-8-4-10-2-2-5-3-10-3h-10v25z" class="fil17"/>
        <g>
          <path d="M1177 9415c-3 0-6-5-6-10 0-6 3-11 6-11h188c3 0 5 5 5 11 0 5-2 10-5 10h-17c-4 68-31 95-61 119 30 23 57 51 61 118h17c3 0 5 5 5 11s-2 11-5 11h-188c-3 0-6-5-6-11s3-11 6-11h16c4-67 32-95 62-118-30-24-58-51-62-119h-16zm151 0h-115c4 61 30 85 58 106 27-21 53-45 57-106zm-115 237h115c-4-60-30-84-57-106-28 22-54 46-58 106z" class="fil6"/>
          <path d="M1233 9428h84c3 0 5 2 5 5 0 2-2 5-5 5h-84c1-2 1-4 1-5 0-2 0-4-1-5zm-8 0c3 0 5 2 5 5 0 2-2 5-5 5s-5-3-5-5c0-3 2-5 5-5z" class="fil7"/>
          <path d="M1239 9447h72c3 0 5 2 5 5 0 2-2 5-5 5h-72c1-2 1-4 1-5 0-2 0-4-1-5zm-8 0c3 0 5 2 5 5 0 2-2 5-5 5s-5-3-5-5c0-3 2-5 5-5z" class="fil8"/>
          <path d="M1249 9466h52c2 0 5 2 5 5 0 2-3 5-5 5h-52c1-2 2-3 2-5s-1-4-2-5zm-8 0c3 0 5 2 5 5 0 2-2 5-5 5-2 0-5-3-5-5 0-3 3-5 5-5z" class="fil9"/>
          <path d="M1260 9484h30c3 0 5 2 5 5s-2 5-5 5h-30c0-1 1-3 1-5s0-3-1-5zm-9 0c3 0 5 2 5 5s-2 5-5 5c-2 0-5-2-5-5s3-5 5-5zM1309 9640h-84c-3 0-5-2-5-5s2-5 5-5h84c-1 2-2 3-2 5s1 4 2 5zm8 0c-3 0-5-2-5-5s2-5 5-5 5 2 5 5-2 5-5 5z" class="fil10"/>
          <path d="M1303 9621h-72c-3 0-5-2-5-5s2-5 5-5h72c-1 2-2 3-2 5s1 4 2 5zm8 0c-3 0-5-2-5-5s2-5 5-5c2 0 5 2 5 5s-3 5-5 5z" class="fil9"/>
          <path d="M1292 9602h-51c-3 0-5-2-5-5s2-5 5-5h51c-1 1-1 3-1 5s0 3 1 5zm8 0c-2 0-5-2-5-5s3-5 5-5c3 0 5 2 5 5s-2 5-5 5z" class="fil8"/>
          <path d="M1282 9584h-31c-3 0-5-3-5-5 0-3 2-5 5-5h31c-1 1-1 3-1 5 0 1 0 3 1 5zm8 0c-3 0-5-3-5-5 0-3 2-5 5-5s5 2 5 5c0 2-2 5-5 5z" class="fil7"/>
        </g>
      </g>
      <g>
        <path d="M2860 9648h-66c-2 0-2 0-3-1-1 0-1-1-1-2v-7c0-1 0-2 1-2 1-1 1-1 3-1h7v-67h-7c-2 0-2 0-3-1s-1-2-1-3v-6c0-1 0-2 1-3s1-1 3-1h66c1 0 2 0 3 1s1 2 1 3v20c0 1 0 2-1 3-1 0-2 1-3 1h-7c-2 0-3-1-3-4v-10h-34v27h30c1 0 2 0 2 1 1 0 2 1 2 2v7c0 2-2 3-4 3h-30v27h34v-10c0-3 1-4 3-4h7c1 0 2 0 3 1s1 1 1 3v20c0 1 0 2-1 2-1 1-2 1-3 1zm100 0h-30c-1 0-2 0-3-1 0 0-1-1-1-2v-7c0-1 1-2 1-2 1-1 2-1 3-1h4l-16-24-18 24h5c1 0 2 0 2 1 1 0 1 1 1 2v7c0 2-1 3-3 3h-31c-1 0-2 0-2-1-1 0-1-1-1-2v-7c0-1 0-2 1-2 0-1 1-1 2-1h9l25-34-25-33h-9c-1 0-2 0-2-1-1-1-1-2-1-3v-6c0-1 0-2 1-3 0-1 1-1 2-1h31c1 0 2 0 2 1 1 1 1 2 1 3v6c0 3-1 4-3 4h-5l17 22 17-22h-3c-1 0-2 0-3-1 0-1-1-2-1-3v-6c0-1 1-2 1-3 1-1 2-1 3-1h30c1 0 2 0 3 1s1 2 1 3v6c0 1 0 2-1 3s-2 1-3 1h-9l-26 33 25 34h9c1 0 2 0 3 1 1 0 1 1 1 2v7c0 1 0 2-1 2-1 1-2 1-3 1zm47 0h-33c-1 0-2 0-3-1-1 0-1-1-1-2v-7c0-1 0-2 1-2 1-1 2-1 3-1h7v-67h-7c-1 0-2 0-3-1s-1-2-1-3v-6c0-1 0-2 1-3s2-1 3-1h38c5 0 9 1 13 2 4 2 8 4 11 6 3 3 5 6 7 10 1 4 2 8 2 13 0 9-3 17-9 22-3 2-7 4-11 6-4 1-9 1-14 1h-15v21h11c1 0 2 0 2 1 1 0 1 1 1 2v7c0 1 0 2-1 2 0 1-1 1-2 1zm-11-47h15c6 0 11-1 14-4s4-7 4-12c0-3 0-6-1-8s-2-4-4-5c-1-1-3-2-6-3-2-1-5-1-7-1h-15v33zm129 47h-11c-2 0-3 0-5-2-2-1-3-3-4-5l-12-24c0-1-1-1-1-2l-2-2h-1c0-1-1-1-2-1h-13v23h9c1 0 2 0 2 1 1 0 1 1 1 2v7c0 1 0 2-1 2 0 1-1 1-2 1h-32c-1 0-2 0-3-1-1 0-1-1-1-2v-7c0-1 0-2 1-2 1-1 2-1 3-1h7v-67h-7c-1 0-2 0-3-1s-1-2-1-3v-6c0-1 0-2 1-3s2-1 3-1h38c10 0 18 3 24 8 3 2 5 5 7 9 1 4 2 8 2 12 0 7-2 13-5 18-3 3-7 6-12 8l1 1c1 1 2 3 3 5l10 20h6c1 0 2 0 3 1 1 0 1 1 1 2v7c0 1 0 2-1 2-1 1-2 1-3 1zm-51-49h13c13 0 19-5 19-15 0-6-1-10-4-12-3-3-8-4-15-4h-13v31zm131 49h-66c-2 0-3 0-3-1-1 0-1-1-1-2v-7c0-1 0-2 1-2 0-1 1-1 3-1h7v-67h-7c-2 0-3 0-3-1-1-1-1-2-1-3v-6c0-1 0-2 1-3 0-1 1-1 3-1h66c1 0 2 0 3 1s1 2 1 3v20c0 1 0 2-1 3-1 0-2 1-3 1h-7c-2 0-3-1-3-4v-10h-34v27h30c1 0 2 0 2 1 1 0 1 1 1 2v7c0 2-1 3-3 3h-30v27h33v-10c0-3 2-4 4-4h7c1 0 2 0 3 1s1 1 1 3v20c0 1 0 2-1 2-1 1-2 1-3 1zm22 0h-7c-1 0-2 0-2-1-1 0-1-1-1-2v-30c0-1 0-2 1-2 0-1 1-1 2-1h8c3 0 4 1 4 3v3c0 1 1 3 2 5 2 3 4 5 6 6 1 1 2 2 3 2 1 1 2 2 4 2 1 1 3 1 4 1 2 1 4 1 6 1 3 0 5-1 8-1 2-1 4-2 5-3 2-1 3-2 4-4 1-1 1-3 1-5 0-1 0-2-1-3 0-1-1-2-1-3-1-1-2-1-4-2-1-1-2-1-4-2-1 0-3-1-5-2-1 0-3-1-5-1-2-1-4-1-6-2-2 0-4-1-6-2-2 0-4-1-6-2s-4-1-6-2c-3-2-6-5-8-9-1-1-2-3-3-6 0-2-1-4-1-6 0-8 3-14 9-19 3-3 6-5 10-6s8-2 13-2c6 0 11 1 15 3 3 1 5 2 7 4v-2c0-3 1-4 4-4h7c1 0 2 0 3 1 0 1 1 2 1 3v27c0 1-1 2-1 3-1 0-2 1-3 1h-8c-2 0-4-2-4-4v-4c0-2-1-5-5-8-1-2-3-3-6-4s-6-1-9-1-5 0-7 1c-2 0-4 1-5 2-2 2-3 3-3 4-1 2-1 3-1 5v3c1 1 1 2 2 3s2 2 3 2c2 1 3 2 5 2 1 1 3 2 5 2 2 1 3 1 5 2 3 0 5 1 6 1 2 1 4 2 6 2 3 1 4 2 6 2l6 3c2 1 3 2 5 3 1 2 3 3 4 5 1 1 2 3 2 5 1 2 1 5 1 7 0 8-3 14-8 20-6 5-14 7-25 7-8 0-15-1-21-5-2-1-4-3-6-5h-1v6c0 1 0 2-1 2-1 1-2 1-3 1zm84 0h-7c-1 0-2 0-3-1-1 0-1-1-1-2v-30c0-1 0-2 1-2 1-1 2-1 3-1h8c2 0 3 1 3 3v3c0 1 1 3 3 5 2 3 3 5 5 6 1 1 2 2 3 2 2 1 3 2 4 2 2 1 3 1 5 1 2 1 3 1 5 1 3 0 6-1 8-1l6-3c1-1 3-2 3-4 1-1 1-3 1-5v-3c-1-1-1-2-2-3s-2-1-3-2-3-1-4-2c-2 0-3-1-5-2-2 0-4-1-6-1-2-1-4-1-6-2-2 0-4-1-6-2-2 0-4-1-6-2s-3-1-5-2c-4-2-7-5-9-9-1-1-2-3-2-6-1-2-1-4-1-6 0-8 3-14 8-19 3-3 7-5 11-6 3-1 8-2 12-2 6 0 11 1 16 3 2 1 5 2 7 4v-2c0-3 1-4 3-4h7c2 0 2 0 3 1s1 2 1 3v27c0 1 0 2-1 3-1 0-1 1-3 1h-7c-3 0-4-2-4-4v-4c0-2-2-5-5-8-2-2-4-3-6-4-3-1-6-1-10-1-2 0-4 0-6 1-2 0-4 1-6 2-1 2-2 3-3 4 0 2-1 3-1 5 0 1 0 2 1 3 0 1 1 2 2 3s2 2 3 2c1 1 3 2 4 2 2 1 3 2 5 2 2 1 4 1 6 2 2 0 4 1 6 1 2 1 4 2 6 2 2 1 4 2 6 2 2 1 4 2 5 3 2 1 4 2 5 3 2 2 3 3 4 5 1 1 2 3 3 5s1 5 1 7c0 8-3 14-9 20-5 5-14 7-25 7-8 0-15-1-20-5-3-1-5-3-7-5h-1l1 6c0 1-1 2-1 2-1 1-2 1-3 1z" class="fil14"/>
        <path d="M2801 9513h-10c-1-1-1-2-1-3v-30c0-1 0-2 1-2 1-1 1-1 3-1h7c3 0 4 1 4 3v3c0 1 1 3 3 5 1 3 3 5 5 6 1 1 2 2 3 2 1 1 3 2 4 2 2 1 3 1 5 1 1 1 3 1 5 1 3 0 6 0 8-1l6-3c1-1 2-2 3-4 1-1 1-3 1-5v-3c-1-1-1-2-2-3s-2-1-3-2c-2-1-3-1-4-2-2 0-4-1-5-2-2 0-4-1-6-1-2-1-4-1-6-2-2 0-4-1-6-2-2 0-4-1-6-2s-4-1-5-2c-4-2-7-5-9-9-1-1-2-3-3-5v-7c0-8 2-14 8-19 3-3 6-5 10-6s8-2 13-2c6 0 11 1 16 3 2 1 4 2 6 4v-2c0-3 2-4 4-4h7c1 0 2 0 3 1s1 2 1 3v27c0 1 0 2-1 3-1 0-2 1-3 1h-8c-2 0-3-2-3-4v-4c0-2-2-5-5-8-2-2-4-3-7-4-2-1-5-1-9-1-2 0-5 0-7 1-2 0-3 1-5 2-1 2-2 3-3 4-1 2-1 3-1 5 0 1 0 2 1 3 0 1 1 2 1 3 1 1 2 2 4 2 1 1 2 2 4 2 1 1 3 2 5 2 2 1 4 1 6 2 2 0 4 1 6 1 2 1 4 2 6 2 2 1 4 2 6 2 2 1 3 2 5 3s4 2 5 3c2 2 3 3 4 5 1 1 2 3 3 5 0 2 1 5 1 7 0 8-3 14-9 20-6 5-14 7-25 7-8 0-15-1-20-5-3-1-5-3-7-5h-1v6c0 1 0 2-1 2 0 1-1 1-2 1zm156-26s0 1 1 1v3c0 1 0 1-1 2 0 0 0 1-1 1 0 1 0 1-1 2 0 1-1 2-2 3l-3 3c-2 2-5 4-8 6-1 1-3 2-4 2-2 1-4 2-7 2-2 1-4 2-7 2h-7c-7 0-13-1-18-3s-10-6-14-10c-5-5-8-10-10-16-2-5-3-12-3-19s1-14 3-20c2-5 5-10 10-15 4-4 9-7 14-9 5-3 11-4 17-4 7 0 13 2 18 4 3 1 6 3 8 6v-5-1s0-1 1-2c0 0 1-1 2-1h8c1 0 2 0 2 1 1 1 1 2 1 3v27c0 3-1 4-3 4h-8c-3 0-4-1-4-4v-1c0-3-2-7-7-10-5-4-11-6-18-6-4 0-7 1-10 2-4 2-7 4-10 7-2 2-5 6-6 10s-2 9-2 14 1 10 2 14 4 8 7 11c2 3 6 5 9 6 3 2 7 2 11 2s8 0 12-1c3-1 6-2 8-4s4-3 5-5c2-1 3-3 4-4 1-3 3-3 5-2l6 4zm98 26h-30c-2 0-2 0-3-1-1 0-1-1-1-2v-7c0-1 0-2 1-2 1-1 1-1 3-1h7v-27h-42v27h7c1 0 2 0 3 1 1 0 1 1 1 2v7c0 2-1 3-4 3h-33c0-1-1-2-1-3v-7c0-1 1-2 1-2 1-1 2-1 3-1h8v-67h-8c-1 0-2 0-3-1 0-1-1-2-1-3v-6c0-1 1-2 1-3 1-1 2-1 3-1h30c1 0 2 0 3 1s1 2 1 3v6c0 3-1 4-4 4h-7v27h42v-27h-7c-2 0-2 0-3-1s-1-2-1-3v-6c0-1 0-2 1-3s1-1 3-1h30c1 0 2 0 2 1 1 1 1 2 1 3v6c0 1 0 2-1 3 0 1-1 1-2 1h-8v67h8c1 0 2 0 2 1 1 0 1 1 1 2v7c0 1 0 2-1 2 0 1-1 1-2 1zm81 0h-69c-1-1-1-2-1-3v-7c0-1 0-2 1-2 0-1 1-1 2-1h8v-67h-8c-1 0-2 0-2-1-1-1-1-2-1-3v-6c0-1 0-2 1-3 0-1 1-1 2-1h67c1 0 2 0 3 1 0 1 1 2 1 3v20c0 1-1 2-1 3-1 0-2 1-3 1h-7c-2 0-4-1-4-4v-10h-33v27h29c2 0 2 0 3 1 1 0 1 1 1 2v7c0 2-1 3-4 3h-29v27h33v-10c0-3 2-4 4-4h7c1 0 2 0 3 1 0 1 1 1 1 3v20c0 1-1 2-1 3h-3zm50 0h-36c-1 0-2 0-2-1-1 0-1-1-1-2v-7c0-1 0-2 1-2 0-1 1-1 2-1h8v-67h-8c-1 0-2 0-2-1-1-1-1-2-1-3v-6c0-1 0-2 1-3 0-1 1-1 2-1h34c15 0 26 4 35 13 4 4 7 9 10 15 2 5 3 12 3 19s-1 14-3 20c-2 5-5 10-9 15-5 4-9 7-15 9s-12 3-19 3zm-13-13h10c11 0 20-3 25-9 5-5 8-13 8-25 0-5-1-10-2-14s-4-8-6-10c-3-3-6-5-11-7-4-1-8-2-14-2h-10v67zm128-21v-46h-7c-1 0-2 0-3-1 0-1-1-2-1-3v-6c0-1 1-2 1-3 1-1 2-1 3-1h30c1 0 2 0 3 1 0 1 1 2 1 3v6c0 1-1 2-1 3-1 1-2 1-3 1h-7v45c0 5-1 11-3 15-1 5-4 9-7 12-6 6-15 9-26 9-6 0-11 0-15-2-5-2-9-4-12-7s-5-7-7-12c-2-4-2-10-2-15v-45h-8c-1 0-2 0-2-1-1-1-2-2-2-3v-6c0-1 1-2 2-3 0-1 1-1 2-1h30c1 0 2 0 3 1s1 2 1 3v6c0 3-1 4-4 4h-7v45c0 7 2 13 5 16 3 4 9 6 16 6s12-2 15-6c2-1 3-4 4-6 1-3 1-6 1-9zm103 34h-71c-1-1-1-2-1-3v-7c0-1 0-2 1-2 1-1 2-1 3-1h7v-67h-7c-1 0-2 0-3-1s-1-2-1-3v-6c0-1 0-2 1-3s2-1 3-1h30c2 0 4 1 4 4v6c0 3-2 4-4 4h-8v67h36v-10c0-3 1-4 4-4h6c2 0 2 0 3 1s1 1 1 3v20c0 2-1 3-4 3zm77 0h-69c-1-1-1-2-1-3v-7c0-1 0-2 1-2 1-1 2-1 3-1h7v-67h-7c-1 0-2 0-3-1s-1-2-1-3v-6c0-1 0-2 1-3s2-1 3-1h66c2 0 2 0 3 1s1 2 1 3v20c0 1 0 2-1 3-1 0-1 1-3 1h-6c-3 0-4-1-4-4v-10h-34v27h30c1 0 2 0 3 1 0 0 1 1 1 2v7c0 2-1 3-4 3h-30v27h34v-10c0-3 1-4 4-4h6c2 0 2 0 3 1s1 1 1 3v20c0 1 0 2-1 3h-3zm90 0h-11c-2 0-4 0-5-2-2-1-3-2-4-5l-12-24c0-1-1-1-1-2l-2-2h-1c-1-1-1-1-2-1h-14v23h9c2 0 2 0 3 1 1 0 1 1 1 2v7c0 1 0 2-1 2-1 1-1 1-3 1h-34c-1-1-1-2-1-3v-7c0-1 0-2 1-2 1-1 2-1 3-1h7v-67h-7c-1 0-2 0-3-1s-1-2-1-3v-6c0-1 0-2 1-3s2-1 3-1h38c10 0 18 3 24 8 3 2 5 5 6 9 2 4 3 8 3 12 0 7-2 13-5 18-3 3-7 6-12 8l1 1c1 1 2 3 3 5l10 20h6c1 0 2 0 3 1 1 0 1 1 1 2v7c0 1 0 2-1 2-1 1-2 1-3 1zm-52-49h14c13 0 19-5 19-15 0-6-1-10-4-12-3-3-8-4-15-4h-14v31z" class="fil17"/>
        <g>
          <path d="M2546 9415c-3 0-5-5-5-10 0-6 2-11 5-11h189c2 0 5 5 5 11 0 5-3 10-5 10h-17c-4 68-32 95-61 119 29 23 57 51 61 118h17c2 0 5 5 5 11s-3 11-5 11h-189c-3 0-5-5-5-11s2-11 5-11h17c4-67 31-95 61-118-30-24-57-51-61-119h-17zm152 0h-115c4 61 30 85 57 106 28-21 54-45 58-106zm-115 237h115c-4-60-30-84-58-106-27 22-53 46-57 106z" class="fil6"/>
          <path d="M2603 9428h83c3 0 5 2 5 5 0 2-2 5-5 5h-83c0-2 1-4 1-5 0-2-1-4-1-5zm-9 0c3 0 5 2 5 5 0 2-2 5-5 5-2 0-5-3-5-5 0-3 3-5 5-5z" class="fil7"/>
          <path d="M2609 9447h72c2 0 5 2 5 5 0 2-3 5-5 5h-72c1-2 1-4 1-5 0-2 0-4-1-5zm-8 0c2 0 5 2 5 5 0 2-3 5-5 5-3 0-5-3-5-5 0-3 2-5 5-5z" class="fil8"/>
          <path d="M2619 9466h51c3 0 5 2 5 5 0 2-2 5-5 5h-51c1-2 1-3 1-5s0-4-1-5zm-8 0c3 0 5 2 5 5 0 2-2 5-5 5s-5-3-5-5c0-3 2-5 5-5z" class="fil9"/>
          <path d="M2629 9484h31c3 0 5 2 5 5s-2 5-5 5h-31c1-1 2-3 2-5s-1-3-2-5zm-8 0c3 0 5 2 5 5s-2 5-5 5-5-2-5-5 2-5 5-5zM2678 9640h-84c-2 0-5-2-5-5s3-5 5-5h84c-1 2-1 3-1 5s0 4 1 5zm8 0c-2 0-5-2-5-5s3-5 5-5c3 0 5 2 5 5s-2 5-5 5z" class="fil10"/>
          <path d="M2672 9621h-72c-3 0-5-2-5-5s2-5 5-5h72c-1 2-1 3-1 5s0 4 1 5zm8 0c-2 0-5-2-5-5s3-5 5-5c3 0 5 2 5 5s-2 5-5 5z" class="fil9"/>
          <path d="M2662 9602h-51c-3 0-5-2-5-5s2-5 5-5h51c-1 1-2 3-2 5s1 3 2 5zm8 0c-3 0-5-2-5-5s2-5 5-5 5 2 5 5-2 5-5 5z" class="fil8"/>
          <path d="M2652 9584h-31c-3 0-5-3-5-5 0-3 2-5 5-5h31c-1 1-2 3-2 5 0 1 1 3 2 5zm8 0c-3 0-5-3-5-5 0-3 2-5 5-5s5 2 5 5c0 2-2 5-5 5z" class="fil7"/>
        </g>
      </g>
      <g>
        <path d="M1256 10060c23 0 43 9 59 23l-4 3c-15-13-34-21-55-21-45 0-82 37-82 82 0 46 37 83 82 83 46 0 82-37 82-83 0-16-5-32-13-45l3-3c10 13 15 30 15 48 0 49-39 88-87 88s-87-39-87-88c0-48 39-87 87-87zm2 19c0 1-1 2-2 2s-1-1-1-2v-10c0-1 0-2 1-2s2 1 2 2v10zm-3 137c0-1 0-2 1-2s2 1 2 2v10c0 1-1 2-2 2s-1-1-1-2v-10zm-67-70c1 0 2 1 2 1 0 1-1 2-2 2h-11s-1-1-1-2l1-1h11zm136 3c-1 0-1-1-1-2 0 0 0-1 1-1h11c1 0 2 1 2 1 0 1-1 2-2 2h-11zm-115-51c1 1 1 2 0 2 0 1-1 1-2 0l-8-7v-2c1-1 2-1 3 0l7 7zm94 99v-3h3l7 8c1 1 1 2 0 2-1 1-2 1-2 0l-8-7zm-96-3h2c1 1 1 2 0 3l-7 7c-1 1-2 1-3 0v-2l8-8zm49-164c33 0 62 13 84 35l-22 15c-16-15-38-24-62-24-50 0-91 41-91 91 0 51 41 92 91 92 51 0 92-41 92-92 0-19-6-37-16-52l18-18c15 20 24 44 24 70 0 65-53 118-118 118s-117-53-117-118c0-64 52-117 117-117zm-57 83l57 53 137-136-143 103-51-20z" class="fil0"/>
        <path d="M2028 10185h-48c-1 0-2 0-2-1-1 0-1-1-1-2v-5c0-1 0-2 1-2 0-1 1-1 2-1h5v-53h-5c-1 0-2 0-2-1-1-1-1-1-1-2v-5c0-1 0-2 1-2 0-1 1-1 2-1h48c1 0 1 0 2 1 0 0 1 1 1 2v16c0 1-1 1-1 2-1 1-1 1-2 1h-5c-2 0-3-1-3-3v-8h-24v21h21c1 0 2 0 2 1 1 0 1 1 1 2v5c0 2-1 3-3 3h-21v21h24v-8c0-2 1-3 3-3h5c1 0 1 0 2 1 0 0 1 1 1 2v16c0 1-1 2-1 2-1 1-1 1-2 1zm72 0h-22c-1 0-1 0-2-1v-7-2c1-1 1-1 2-1h3l-12-19-12 19h3c1 0 1 0 2 1 0 0 1 1 1 2v5c0 2-1 3-3 3h-22c-1 0-1 0-2-1 0 0-1-1-1-2v-5c0-1 1-2 1-2 1-1 1-1 2-1h6l19-27-19-26h-6c-1 0-1 0-2-1 0-1-1-1-1-2v-5c0-1 1-2 1-2 1-1 1-1 2-1h22c1 0 1 0 2 1 0 0 1 1 1 2v5c0 2-1 3-3 3h-3l12 18 12-18h-2c-1 0-2-1-2-1-1-1-1-1-1-2v-5c0-1 0-2 1-2 0-1 1-1 2-1h22s1 0 2 1v9c-1 0-2 1-2 1h-7l-18 26 18 27h6c1 0 1 0 2 1 0 0 1 1 1 2v5c0 1-1 2-1 2-1 1-1 1-2 1zm33 0h-23c-1 0-2 0-2-1-1 0-1-1-1-2v-5c0-1 0-2 1-2 0-1 1-1 2-1h5v-53h-5c-1 0-2 0-2-1-1-1-1-1-1-2v-5c0-1 0-2 1-2 0-1 1-1 2-1h28c3 0 6 0 9 1 3 2 5 3 7 5 2 3 4 5 5 8s2 7 2 10c0 8-2 14-7 18-2 2-4 3-7 4s-7 2-10 2h-11v16h7c1 0 2 0 2 1 1 0 1 1 1 2v5c0 1 0 2-1 2 0 1-1 1-2 1zm-7-38h10c5 0 8-1 11-3 2-2 3-5 3-10 0-2-1-4-1-6-1-1-2-3-3-4s-3-2-4-2c-2-1-4-1-6-1h-10v26zm93 38h-8c-1 0-3-1-4-2s-2-2-3-4l-8-19c-1-1-1-1-1-2-1 0-1-1-1-1s-1 0-1-1h-11v18h6c1 0 2 0 2 1 1 0 1 1 1 2v5c0 1 0 2-1 2 0 1-1 1-2 1h-23c-1 0-1 0-2-1v-7-2c1-1 1-1 2-1h6v-53h-6c-1 0-1 0-2-1v-7-2c1-1 1-1 2-1h28c7 0 12 2 17 6 2 2 4 4 5 7s1 6 1 10c0 6-1 10-3 14-2 3-5 5-9 7h1c1 1 1 3 2 5l7 15h5c1 0 1 0 2 1 0 0 1 1 1 2v5c0 1-1 2-1 2-1 1-1 1-2 1zm-37-39h10c9 0 13-5 13-13 0-4-1-7-3-9s-6-3-10-3h-10v25zm94 39h-48s-1 0-2-1v-7-2c1-1 2-1 2-1h6v-53h-6s-1 0-2-1v-7-2c1-1 2-1 2-1h48c1 0 2 0 2 1 1 0 1 1 1 2v16c0 1 0 1-1 2 0 1-1 1-2 1h-5c-1 0-2-1-2-3v-8h-24v21h21c1 0 1 0 2 1 0 0 1 1 1 2v5c0 2-1 3-3 3h-21v21h24v-8c0-2 1-3 2-3h5c1 0 2 0 2 1 1 0 1 1 1 2v16c0 1 0 2-1 2 0 1-1 1-2 1zm16 0h-5s-1 0-2-1v-25-3h8c2 0 3 1 3 3v2c0 1 0 2 1 4 2 2 3 3 4 5 1 0 2 1 3 1 0 1 1 1 2 2 2 0 3 1 4 1h3c3 0 5 0 6-1 2 0 3-1 4-2 2-1 2-2 3-3 0-1 1-3 1-4s0-2-1-3c0 0 0-1-1-2-1 0-1-1-2-1-1-1-2-2-3-2s-3-1-4-1c-1-1-2-1-4-2-1 0-3 0-4-1-2 0-3-1-5-1-1-1-2-1-4-2-1-1-2-1-4-2-2-2-4-4-6-7-1-1-1-3-2-4v-6c0-6 2-11 6-15 2-2 4-3 7-4s6-2 9-2c5 0 8 1 11 2 2 1 4 2 5 4v-2c0-2 1-3 3-3h5c1 0 2 0 2 1 1 0 1 1 1 2v21c0 1 0 2-1 3h-7c-2 0-3-1-3-3v-2c0-3-1-5-4-7-1-2-2-3-4-3-2-1-4-1-7-1-2 0-3 0-5 1-1 0-2 1-4 2-1 1-1 2-2 3 0 1-1 2-1 3s1 2 1 3 1 1 1 2c1 1 2 1 3 2 0 1 1 1 3 2 1 0 2 1 3 1 2 1 3 1 4 1 2 1 3 1 5 2 1 0 3 1 4 1 2 1 3 1 4 2 2 0 3 1 4 2 2 1 3 2 4 3l3 3c1 1 1 3 2 5v5c0 6-2 11-6 16-4 4-10 6-18 6-6 0-11-2-15-4-1-2-3-3-4-4l-1-1v5c0 1 0 2-1 2 0 1-1 1-2 1zm61 0h-5c-1 0-2 0-2-1-1 0-1-1-1-2v-23c0-1 0-2 1-3h7c2 0 3 1 3 3v2c0 1 0 2 2 4 1 2 2 3 4 5 0 0 1 1 2 1 1 1 2 1 3 2 1 0 2 1 3 1h4c2 0 4 0 5-1 2 0 3-1 5-2 1-1 1-2 2-3s1-3 1-4 0-2-1-3c0 0 0-1-1-2-1 0-1-1-2-1-1-1-2-2-3-2s-2-1-4-1c-1-1-2-1-4-2-1 0-3 0-4-1-2 0-3-1-4-1-2-1-3-1-5-2-1-1-2-1-3-2-3-2-5-4-7-7-1-1-1-3-2-4v-6c0-6 2-11 6-15 2-2 5-3 7-4 3-1 6-2 9-2 5 0 8 1 12 2 1 1 3 2 5 4v-2c0-2 0-3 2-3h5c1 0 2 0 2 1 1 0 1 1 1 2v21c0 1 0 2-1 3h-7c-2 0-3-1-3-3v-2c0-3-1-5-4-7-1-2-2-3-4-3-2-1-4-1-7-1-2 0-3 0-5 1-1 0-2 1-3 2l-3 3v6c0 1 1 1 1 2 1 1 2 1 3 2s2 1 3 2c1 0 2 1 3 1 2 1 3 1 4 1 2 1 3 1 5 2 1 0 3 1 4 1 2 1 3 1 4 2 2 0 3 1 4 2 2 1 3 2 4 3l3 3c1 1 1 3 2 5v5c0 6-2 11-6 16-4 4-10 6-18 6-6 0-11-2-14-4-2-2-4-3-5-4l-1-1v5c0 1 0 2-1 2 0 1-1 1-1 1z" class="fil14"/>
        <path d="M1411 10185h-5c-1 0-2 0-2-1-1 0-1-1-1-2v-23c0-1 0-2 1-3h7c2 0 3 1 3 3v2c0 1 1 2 2 4s3 3 4 5c0 0 1 1 2 1 1 1 2 1 3 2 1 0 2 1 3 1h4c2 0 4 0 6-1 1 0 3-1 4-2l3-3v-4-3s-1-1-1-2c-1 0-2-1-3-1-1-1-2-2-3-2s-2-1-3-1c-2-1-3-1-4-2-2 0-3 0-5-1-1 0-3-1-4-1-2-1-3-1-4-2-2-1-3-1-4-2-3-2-5-4-7-7 0-1-1-3-1-4-1-2-1-4-1-6 0-6 2-11 6-15 2-2 5-3 8-4 2-1 5-2 9-2s8 1 11 2c2 1 4 2 5 4v-2c0-2 1-3 3-3h5c1 0 1 0 2 1 0 0 1 1 1 2v21c0 1-1 2-1 3h-8c-2 0-2-1-2-3v-2c0-3-2-5-4-7-1-2-3-3-5-3-2-1-4-1-6-1s-4 0-5 1c-2 0-3 1-4 2s-2 2-2 3c-1 1-1 2-1 3v3l2 2c0 1 1 1 2 2s2 1 3 2c1 0 2 1 4 1 1 1 2 1 4 1 1 1 3 1 4 2 2 0 3 1 5 1 1 1 3 1 4 2 1 0 3 1 4 2s2 2 4 3c1 1 2 2 2 3 1 1 2 3 2 5 1 1 1 3 1 5 0 6-2 11-6 16-4 4-10 6-18 6-6 0-11-2-15-4-2-2-4-3-5-4l-1-1 1 5c0 1-1 2-1 2-1 1-1 1-2 1zm113-21s1 0 1 1v3c-1 1-1 1-1 2l-1 1c0 1-1 1-1 2l-3 3c-1 1-3 3-5 4-1 1-2 2-4 2-1 1-3 2-4 2-2 1-4 1-5 1-2 1-4 1-6 1-5 0-9-1-13-3s-7-4-10-8-6-8-7-12c-2-5-3-10-3-16s1-11 3-15c1-5 4-9 7-12 3-4 6-6 10-8s8-3 13-3c4 0 9 1 12 3 3 1 5 3 6 5v-4-1l1-1c0-1 1-1 1-1h6c1 0 2 0 2 1 1 0 1 1 1 2v22c0 2-1 3-3 3h-6c-1 0-2-1-2-3v-1c0-3-2-6-5-9-4-3-8-4-14-4-2 0-5 0-7 2-2 1-5 2-7 5-2 2-3 5-4 8s-2 7-2 11c0 5 1 8 2 12 1 3 2 6 4 8 3 2 5 4 7 5 3 1 5 2 8 2s6-1 9-1c2-1 4-2 6-4 1-1 3-2 4-3 1-2 1-3 2-4 1-2 3-2 4-1l4 3zm71 21h-22s-1 0-2-1v-7-2c1-1 2-1 2-1h6v-21h-31v21h5c1 0 2 0 2 1 1 0 1 1 1 2v5c0 2-1 3-3 3h-21c-1 0-2 0-2-1-1 0-1-1-1-2v-5c0-1 0-2 1-2 0-1 1-1 2-1h5v-53h-5c-1 0-2 0-2-1-1-1-1-1-1-2v-5c0-1 0-2 1-2 0-1 1-1 2-1h21c1 0 2 0 2 1 1 0 1 1 1 2v5c0 2-1 3-3 3h-5v21h31v-21h-6s-1-1-2-1v-7-2c1-1 2-1 2-1h22c1 0 2 0 2 1 1 0 1 1 1 2v5c0 1 0 1-1 2 0 0-1 1-2 1h-5v53h5c1 0 2 0 2 1 1 0 1 1 1 2v5c0 1 0 2-1 2 0 1-1 1-2 1zm59 0h-48c-1 0-2 0-2-1-1 0-1-1-1-2v-5c0-1 0-2 1-2 0-1 1-1 2-1h5v-53h-5c-1 0-2 0-2-1-1-1-1-1-1-2v-5c0-1 0-2 1-2 0-1 1-1 2-1h48c1 0 2 0 2 1 1 0 1 1 1 2v16c0 1 0 1-1 2 0 1-1 1-2 1h-5c-2 0-3-1-3-3v-8h-24v21h22s1 0 2 1v7c0 2-1 3-2 3h-22v21h24v-8c0-2 1-3 3-3h5c1 0 2 0 2 1 1 0 1 1 1 2v16c0 1 0 2-1 2 0 1-1 1-2 1zm37 0h-26c-1 0-2 0-2-1-1 0-1-1-1-2v-5c0-1 0-2 1-2 0-1 1-1 2-1h5v-53h-5c-1 0-2-1-2-1-1-1-1-1-1-2v-5c0-1 0-2 1-2 0-1 1-1 2-1h24c11 0 19 3 25 10 3 3 6 7 7 12 2 4 3 10 3 15 0 6-1 11-3 16-1 4-3 8-6 12-3 3-7 6-11 7-4 2-8 3-13 3zm-10-11h8c8 0 13-2 17-7 4-4 6-11 6-20 0-4 0-8-1-11s-3-6-5-8c-2-3-4-4-7-5-3-2-7-2-11-2h-7v53zm93-17v-36h-5c-1 0-2-1-2-1-1-1-1-1-1-2v-5c0-1 0-2 1-2 0-1 1-1 2-1h22s1 0 2 1v9c-1 0-2 1-2 1h-6v35c0 5 0 9-1 13-2 3-3 7-6 9-4 5-11 8-19 8-4 0-8-1-11-2s-6-3-8-6c-2-2-4-6-5-9-1-4-2-8-2-13v-35h-5c-1 0-2 0-2-1-1-1-1-1-1-2v-5c0-1 0-2 1-2 0-1 1-1 2-1h21c1 0 2 0 2 1 1 0 1 1 1 2v5c0 2-1 3-3 3h-5v36c0 6 1 10 4 13 2 3 6 4 11 4s9-1 12-4c1-2 2-3 2-6 1-2 1-4 1-7zm75 28h-50c-1 0-1 0-2-1 0 0-1-1-1-2v-5c0-1 1-2 1-2 1-1 1-1 2-1h5v-53h-5c-1 0-1 0-2-1 0-1-1-1-1-2v-5c0-1 1-2 1-2 1-1 1-1 2-1h22c2 0 3 1 3 3v5c0 2-1 3-3 3h-5v53h25v-8c0-2 1-3 3-3h5c1 0 1 0 2 1 0 0 1 1 1 2v16c0 2-1 3-3 3zm56 0h-49s-1 0-1-1c-1 0-1-1-1-2v-5c0-1 0-2 1-2 0-1 1-1 1-1h6v-53h-6s-1 0-1-1c-1-1-1-1-1-2v-5c0-1 0-2 1-2 0-1 1-1 1-1h49c1 0 1 0 2 1 0 0 1 1 1 2v16c0 1-1 1-1 2-1 1-1 1-2 1h-5c-2 0-3-1-3-3v-8h-24v21h21c1 0 2 0 2 1 1 0 1 1 1 2v5c0 2-1 3-3 3h-21v21h24v-8c0-2 1-3 3-3h5c1 0 1 0 2 1 0 0 1 1 1 2v16c0 1-1 2-1 2-1 1-1 1-2 1zm65 0h-8c-2 0-3-1-4-2s-2-2-3-4l-8-19c-1-1-1-1-1-2-1 0-1-1-1-1-1 0-1 0-1-1h-12v18h7c1 0 1 0 2 1 0 0 1 1 1 2v5c0 1-1 2-1 2-1 1-1 1-2 1h-23c-1 0-2 0-2-1-1 0-1-1-1-2v-5c0-1 0-2 1-2 0-1 1-1 2-1h5v-53h-5c-1 0-2 0-2-1-1-1-1-1-1-2v-5c0-1 0-2 1-2 0-1 1-1 2-1h28c7 0 12 2 17 6 2 2 4 4 5 7s1 6 1 10c0 6-1 10-3 14-2 3-5 5-9 7h1c0 1 1 3 2 5l7 15h5c1 0 1 0 2 1 0 0 1 1 1 2v5c0 1-1 2-1 2-1 1-1 1-2 1zm-38-39h10c10 0 14-5 14-13 0-4-1-7-3-9s-6-3-11-3h-10v25z" class="fil17"/>
      </g>
    </g>
    <g id="_1673386540720">
      <path d="M1411 13868c53 0 101 20 137 52l-9 7c-34-30-79-48-128-48-106 0-193 87-193 193 0 107 87 193 193 193 107 0 193-86 193-193 0-39-12-76-32-106l9-9c22 33 35 73 35 115 0 113-92 205-205 205s-204-92-204-205 91-204 204-204zm148 63c5 5 9 9 13 14l-9 8c-4-5-9-10-13-15l9-7z" class="fil0"/>
      <path d="M1411 13797c77 0 146 31 196 81l-50 36c-38-35-90-57-146-57-119 0-215 96-215 215s96 215 215 215 215-96 215-215c0-45-14-87-38-122l44-43c34 46 54 103 54 165 0 152-123 275-275 275s-275-123-275-275 123-275 275-275zm206 92c2 2 3 4 5 6l-43 43c-4-5-7-9-11-13l49-36z" class="fil0"/>
      <path d="M1277 13991l133 124 322-318-335 242z" class="fil0"/>
      <path d="M1411 13912v-25M1411 14232v25" class="fil15"/>
      <g>
        <path d="M1415 13912c0 2-2 4-4 4s-4-2-4-4v-25c0-2 2-3 4-3s4 1 4 3v25zM1407 14232c0-2 2-4 4-4s4 2 4 4v25c0 2-2 4-4 4s-4-2-4-4v-25z" class="fil14"/>
        <g>
          <path d="M1251 14068c2 0 4 2 4 4s-2 4-4 4h-25c-2 0-3-2-3-4s1-4 3-4h25zM1571 14076c-2 0-4-2-4-4s2-4 4-4h25c2 0 4 2 4 4s-2 4-4 4h-25z" class="fil14"/>
        </g>
        <g>
          <path d="M1301 13956c1 2 1 4 0 6-2 1-4 1-5 0l-18-18c-2-1-2-4 0-5 1-2 4-2 5 0l18 17zM1522 14188c-2-2-2-4 0-5 1-2 3-2 5 0l18 17c1 2 1 4 0 6-2 1-4 1-6 0l-17-18z" class="fil14"/>
          <g>
            <path d="M1296 14183c1-2 3-2 5 0 1 1 1 3 0 5l-18 18c-1 1-4 1-5 0-2-2-2-4 0-6l18-17zM1527 13962c-2 1-4 1-5 0-2-2-2-4 0-6l17-17c2-2 4-2 6 0 1 1 1 4 0 5l-18 18z" class="fil14"/>
          </g>
        </g>
      </g>
      <g>
        <path d="M1942 14336h-154c-2 0-4-1-6-2-2-2-2-4-2-6v-15c0-3 0-5 2-7 2-1 4-2 6-2h17v-153h-17c-2 0-4-1-6-3-2-1-2-3-2-6v-15c0-2 0-4 2-6 2-1 4-2 6-2h154c2 0 4 1 6 2 1 2 2 4 2 6v47c0 2-1 5-2 6-2 2-4 3-6 3h-16c-6 0-9-3-9-9v-23h-77v61h68c3 0 5 1 7 2 1 2 2 4 2 6v15c0 6-3 9-9 9h-68v60h77v-23c0-6 3-8 9-8h16c2 0 4 0 6 2 1 1 2 3 2 6v47c0 2-1 4-2 6-2 1-4 2-6 2zm230 0h-70c-2 0-4-1-6-2-1-2-2-4-2-6v-15c0-3 1-5 2-6 2-2 4-3 6-3h10l-38-53-40 53h10c2 0 4 1 6 2 2 2 2 4 2 7v15c0 5-3 8-8 8h-70c-2 0-4-1-6-2-2-2-2-4-2-6v-15c0-3 0-5 2-7 2-1 4-2 6-2h20l59-77-59-76h-20c-2 0-4-1-6-3-2-1-2-3-2-6v-15c0-2 0-4 2-6 2-1 4-2 6-2h70c2 0 4 1 6 2 2 2 2 4 2 6v15c0 6-3 9-8 9h-10l39 51 39-51h-7c-3 0-5-1-7-3-1-1-2-3-2-6v-15c0-2 1-4 2-6 2-1 4-2 7-2h69c3 0 5 1 6 2 2 2 3 4 3 6v15c0 3-1 5-3 6-1 2-3 3-6 3h-21l-59 76 57 77h21c3 0 5 1 6 3 2 1 3 3 3 6v15c0 2-1 4-3 6-1 1-3 2-6 2zm106 0h-75c-2 0-4-1-6-2-2-2-3-4-3-6v-15c0-3 1-5 3-7 2-1 4-2 6-2h17v-153h-17c-2 0-4-1-6-3-2-1-3-3-3-6v-15c0-2 1-4 3-6 2-1 4-2 6-2h89c11 0 21 1 30 5 8 3 16 7 23 14 8 6 13 14 16 23 4 8 6 18 6 28 0 22-7 39-21 51-7 6-15 10-25 13-9 3-20 5-32 5h-34v46h23c3 0 5 1 7 3 1 1 2 3 2 6v15c0 2-1 4-2 6-2 1-4 2-7 2zm-23-109h33c15 0 26-3 33-9s10-16 10-28c0-7-1-13-3-18s-5-9-9-12-8-5-14-7c-5-2-11-2-17-2h-33v76zm297 109h-25c-5 0-9-2-13-5-3-2-6-6-9-12l-27-55c-1-2-2-4-3-5-1-2-2-3-3-4s-2-1-3-2h-36v51h21c2 0 4 1 6 3 1 1 2 3 2 6v15c0 2-1 4-2 6-2 1-4 2-6 2h-73c-3 0-5-1-7-2-1-2-2-4-2-6v-15c0-3 1-5 2-7 2-1 4-2 7-2h16v-153h-16c-3 0-5-1-7-3-1-1-2-3-2-6v-15c0-2 1-4 2-6 2-1 4-2 7-2h88c22 0 40 6 54 17 7 6 12 13 16 22 3 8 5 18 5 28 0 16-4 30-12 40-6 8-15 15-26 19l1 2c2 3 5 8 8 13l22 44h15c2 0 5 1 6 3 2 1 2 3 2 6v15c0 2 0 4-2 6-1 1-4 2-6 2zm-119-114h32c29 0 44-12 44-35 0-12-4-21-11-27s-18-9-33-9h-32v71zm302 114h-153c-2 0-4-1-6-2-2-2-3-4-3-6v-15c0-3 1-5 3-7 2-1 4-2 6-2h17v-153h-17c-2 0-4-1-6-3-2-1-3-3-3-6v-15c0-2 1-4 3-6 2-1 4-2 6-2h153c3 0 5 1 7 2 1 2 2 4 2 6v47c0 2-1 5-2 6-2 2-4 3-7 3h-15c-6 0-9-3-9-9v-23h-77v61h68c3 0 5 1 6 2 2 2 3 4 3 6v15c0 6-3 9-9 9h-68v60h77v-23c0-6 3-8 9-8h15c3 0 5 0 7 2 1 1 2 3 2 6v47c0 2-1 4-2 6-2 1-4 2-7 2zm52 0h-16c-3 0-5-1-7-2-1-2-2-4-2-6v-68c0-3 1-5 2-6 2-2 4-3 7-3h18c5 0 8 3 8 9v6c0 3 2 6 6 12 4 5 8 10 12 14 2 1 5 3 7 4 3 2 6 3 10 5 3 1 7 2 10 3 4 0 8 1 12 1 7 0 13-1 19-3 5-1 9-3 13-6 3-2 6-5 8-9 1-3 2-8 2-12 0-3 0-5-1-7s-2-4-4-6-5-4-7-5c-3-2-6-3-10-5-3-1-7-2-11-3-5-2-9-3-13-4-5-1-9-2-14-4-5-1-10-3-14-4-5-2-9-3-13-5-5-2-9-4-13-6-8-5-15-11-20-19-3-4-5-9-6-14-1-4-2-10-2-15 0-18 7-32 20-44 7-6 15-10 23-13 9-3 19-4 30-4 13 0 25 2 35 6 6 3 12 6 16 9v-5c0-6 3-8 9-8h16c3 0 5 0 6 2 2 1 3 3 3 6v63c0 2-1 4-3 6-1 2-3 2-6 2h-18c-6 0-8-2-8-8v-8c0-7-4-13-12-20-4-4-9-7-15-8-6-2-13-3-21-3-6 0-11 0-15 2-5 1-9 3-12 6-4 2-6 5-8 8-1 4-2 7-2 11 0 3 0 5 1 8 1 2 3 4 5 6s4 4 7 6c3 1 6 3 10 4 3 2 7 3 11 4 5 2 9 3 14 4 4 1 9 3 13 4 5 1 10 2 14 4 5 1 10 3 14 5 5 2 9 4 13 6s8 5 11 8c4 3 7 6 9 10 3 4 5 8 6 13 2 5 2 9 2 15 0 18-6 33-20 45-13 12-32 18-57 18-19 0-34-4-47-11-6-4-11-8-15-12l-2-2v15c0 2-1 4-2 6-2 1-4 2-6 2zm192 0h-16c-3 0-5-1-6-2-2-2-3-4-3-6v-68c0-3 1-5 2-6 2-2 4-3 7-3h18c6 0 8 3 8 9v6c0 3 2 6 6 12 4 5 8 10 13 14 2 1 4 3 7 4 2 2 5 3 9 5 3 1 7 2 10 3 4 0 8 1 12 1 7 0 13-1 19-3 5-1 9-3 13-6 3-2 6-5 8-9 2-3 2-8 2-12 0-3 0-5-1-7s-2-4-4-6-5-4-7-5c-3-2-6-3-10-5-3-1-7-2-11-3-4-2-9-3-13-4-5-1-9-2-14-4-5-1-9-3-14-4-5-2-9-3-13-5-5-2-9-4-13-6-8-5-15-11-20-19-2-4-4-9-6-14-1-4-2-10-2-15 0-18 7-32 20-44 7-6 15-10 24-13 8-3 18-4 29-4 13 0 25 2 35 6 6 3 12 6 17 9l-1-5c0-6 3-8 9-8h16c3 0 5 0 6 2 2 1 3 3 3 6v63c0 2-1 4-3 6-1 2-3 2-6 2h-18c-6 0-8-2-8-8v-8c0-7-4-13-12-20-4-4-9-7-14-8-6-2-13-3-22-3-5 0-11 0-15 2-5 1-9 3-12 6-4 2-6 5-8 8-1 4-2 7-2 11 0 3 1 5 1 8 1 2 3 4 5 6s4 4 7 6c3 1 6 3 10 4 3 2 7 3 12 4 4 2 8 3 13 4s9 3 14 4c4 1 9 2 14 4 4 1 9 3 13 5 5 2 9 4 13 6s8 5 11 8c4 3 7 6 9 10 3 4 5 8 6 13 2 5 2 9 2 15 0 18-6 33-19 45s-33 18-58 18c-19 0-34-4-46-11-7-4-12-8-16-12l-2-2v15c0 2 0 4-2 6-1 1-4 2-6 2z" class="fil14"/>
        <path d="M1804 14025h-16c-2 0-4 0-6-2-2-1-2-4-2-6v-68c0-2 0-4 2-6s4-2 6-2h19c5 0 8 2 8 8v6c0 3 2 7 6 12 4 6 8 10 12 14 2 2 4 3 7 5 3 1 6 3 9 4 4 1 7 2 11 3s8 1 12 1c7 0 13-1 18-2 5-2 10-4 13-6 4-3 7-6 8-10 2-3 3-7 3-12 0-3 0-5-1-7s-3-4-5-6-4-3-7-5-6-3-9-4c-4-2-7-3-12-4-4-1-8-3-13-4-4-1-9-2-13-4-5-1-10-2-14-4-5-1-9-3-14-5l-12-6c-8-4-15-11-20-19-3-4-5-8-6-13s-2-10-2-16c0-17 7-32 20-44 7-5 14-10 23-12 9-3 19-5 29-5 14 0 26 2 36 6 6 3 11 6 16 10v-6c0-5 3-8 9-8h16c2 0 4 1 6 2 2 2 2 4 2 6v63c0 3 0 5-2 6-2 2-4 3-6 3h-18c-6 0-9-3-9-9v-8c0-6-4-13-11-20-4-4-9-6-15-8s-13-3-21-3c-6 0-11 1-16 2-4 1-8 3-12 6-3 3-5 6-7 9s-2 6-2 10c0 3 0 6 1 8s2 4 4 6c3 2 5 4 8 6s6 3 9 5c4 1 8 2 12 4 4 1 9 2 13 3 5 2 10 3 14 4 5 1 9 3 14 4 5 2 9 3 14 5l12 6c5 2 8 5 12 8 3 3 6 6 9 10s5 8 6 13 2 10 2 15c0 18-7 34-20 46-13 11-32 17-57 17-19 0-35-3-47-11-6-4-11-8-16-12l-1-1v14c0 2-1 4-2 6-2 2-4 2-7 2zm360-61c1 1 1 2 2 3s1 2 1 4c0 1 0 2-1 3 0 1 0 2-1 3 0 1-1 2-2 4-1 1-1 3-3 4-1 2-2 4-4 6s-4 5-7 7c-5 6-11 10-18 14-3 2-7 4-11 6-5 2-9 3-15 5-5 1-10 2-16 3s-11 1-17 1c-15 0-29-2-41-7-12-6-23-13-33-24-10-10-18-22-22-35-5-14-8-29-8-45 0-17 3-32 8-45s12-25 22-35 21-17 33-22 25-8 39-8c16 0 29 3 41 9 7 3 13 7 19 13v-11-1c0-2 0-4 2-5 1-2 2-2 4-3h18c3 0 5 1 7 2 1 2 2 4 2 7v62c0 6-3 9-9 9h-18c-5 0-8-3-8-9v-2c0-7-6-15-16-24-11-9-25-13-42-13-8 0-16 2-24 5-7 3-14 8-21 15-7 6-11 14-15 24-3 9-5 20-5 32 0 13 2 24 5 33 4 9 9 17 15 24 7 7 14 12 22 15s16 5 25 5c11 0 19-1 27-3s14-6 20-10c5-4 8-7 12-11 3-3 5-6 8-10 3-6 7-7 12-3l13 8zm226 61h-70c-3 0-5 0-6-2-2-2-2-4-2-6v-15c0-2 0-5 2-6 1-2 3-2 6-2h17v-61h-97v61h17c3 0 5 0 6 2 2 1 3 3 3 6v15c0 5-3 8-9 8h-69c-3 0-5 0-6-2-2-1-3-4-3-6v-15c0-3 1-5 3-6 1-2 3-2 6-2h17v-154h-17c-3 0-5-1-6-2-2-2-3-4-3-7v-14c0-3 1-5 3-7 1-1 3-2 6-2h69c3 0 5 1 6 2 2 2 3 4 3 7v14c0 6-3 9-9 9h-17v62h97v-62h-17c-3 0-5-1-6-3-2-1-2-3-2-6v-14c0-3 0-5 2-7 1-1 3-2 6-2h70c2 0 4 1 6 2 1 2 2 4 2 7v14c0 3-1 5-2 6-2 2-4 3-6 3h-18v154h18c2 0 4 0 6 2 1 1 2 4 2 6v15c0 2-1 4-2 6-2 2-4 2-6 2zm186 0h-153c-3 0-5 0-6-2-2-1-3-4-3-6v-15c0-3 1-5 3-6 1-2 3-2 6-2h17v-154h-17c-3 0-5-1-6-2-2-2-3-4-3-7v-14c0-3 1-5 3-7 1-1 3-2 6-2h153c3 0 5 1 6 2 2 2 3 4 3 7v46c0 3-1 5-2 6-2 2-4 3-7 3h-15c-6 0-9-3-9-9v-23h-77v61h68c3 0 5 1 6 2 2 2 3 4 3 7v14c0 6-3 9-9 9h-68v61h77v-24c0-5 3-8 9-8h15c3 0 5 1 6 2 2 2 3 4 3 6v47c0 2-1 5-3 6-1 2-3 2-6 2zm116 0h-82c-3 0-5 0-7-2-1-2-2-4-2-6v-15c0-2 1-5 2-6 2-2 4-2 7-2h17v-154h-17c-3 0-5-1-7-3-1-1-2-3-2-6v-14c0-3 1-5 2-7 2-1 4-2 7-2h78c33 0 59 10 79 29 10 10 18 21 23 35 5 13 7 28 7 44 0 17-2 32-7 45-5 14-12 25-21 35-10 10-21 17-34 22-12 5-27 7-43 7zm-30-31h24c25-1 44-7 56-20 12-12 19-31 19-57 0-12-2-23-5-33-3-9-8-17-15-24-6-7-14-12-23-15-10-3-21-5-33-5h-23v154zm295-49v-105h-17c-3 0-5-1-6-3-2-1-3-3-3-6v-14c0-3 1-5 3-7 1-1 3-2 6-2h69c3 0 5 1 7 2 1 2 2 4 2 7v14c0 3-1 5-2 6-2 2-4 3-7 3h-17v103c0 13-1 25-5 36-4 10-9 19-17 27-14 14-34 21-60 21-13 0-25-1-35-5s-19-9-27-16c-7-8-12-17-16-27-4-11-6-23-6-36v-103h-16c-3 0-5-1-7-2-1-2-2-4-2-7v-14c0-3 1-5 2-7 2-1 4-2 7-2h69c2 0 4 1 6 2 2 2 3 4 3 7v14c0 6-3 9-9 9h-17v104c0 17 4 29 11 38 8 8 20 12 37 12 16 0 28-4 36-13 3-4 6-9 8-15s3-13 3-21zm237 80h-158c-2 0-4 0-6-2-2-1-2-4-2-6v-15c0-3 0-5 2-6 2-2 4-2 6-2h17v-154h-17c-2 0-4-1-6-2-2-2-2-4-2-7v-14c0-3 0-5 2-7 2-1 4-2 6-2h69c6 0 9 3 9 9v14c0 6-3 9-9 9h-17v154h82v-24c0-5 3-8 9-8h15c3 0 5 1 7 2 1 2 2 4 2 6v47c0 5-3 8-9 8zm178 0h-154c-2 0-4 0-6-2-2-1-2-4-2-6v-15c0-3 0-5 2-6 2-2 4-2 6-2h17v-154h-17c-2 0-4-1-6-2-2-2-2-4-2-7v-14c0-3 0-5 2-7 2-1 4-2 6-2h154c2 0 4 1 6 2 1 2 2 4 2 7v46c0 3 0 5-2 6-2 2-4 3-6 3h-16c-6 0-9-3-9-9v-23h-77v61h68c3 0 5 1 7 2 1 2 2 4 2 7v14c0 6-3 9-9 9h-68v61h77v-24c0-5 3-8 9-8h16c2 0 4 1 6 2 1 2 2 4 2 6v47c0 2-1 5-2 6-2 2-4 2-6 2zm206 0h-25c-5 0-9-1-13-4-3-3-6-7-9-12l-27-56c-1-2-2-4-3-5-1-2-2-3-3-4-1 0-2-1-3-1-1-1-3-1-5-1h-31v52h21c2 0 4 0 6 2 1 1 2 4 2 6v15c0 2-1 4-2 6-2 2-4 2-6 2h-73c-3 0-5 0-6-2-2-1-3-4-3-6v-15c0-3 1-5 3-6 1-2 3-2 6-2h17v-154h-17c-3 0-5-1-6-2-2-2-3-4-3-7v-14c0-3 1-5 3-7 1-1 3-2 6-2h89c21 0 39 6 53 18 7 6 12 13 16 21 3 8 5 18 5 28 0 17-4 30-11 40-7 9-16 15-27 19l1 2c2 4 5 8 8 13l23 45h14c3 0 5 0 6 2 2 1 3 4 3 6v15c0 2-1 4-3 6-1 2-3 2-6 2zm-119-114h32c29 0 44-11 44-35 0-12-4-21-11-27s-18-9-33-9h-32v71z" class="fil17"/>
      </g>
    </g>
  </g>
</svg>
