<svg xmlns="http://www.w3.org/2000/svg" width="384.099" height="265.691">
  <path fill="#FFFFFF" d="M3.008 115.103c0-1.468 1.403-2.229 2.856-2.229h9.675c5.213 0 10.075 1.849 10.075 9.566 0 4.457-1.604 7.392-4.261 8.642 3.058 1.305 5.163 3.424 5.163 8.859v1.142c0 8.479-4.361 11.522-10.025 11.522H5.864c-1.754 0-2.856-1.032-2.856-2.174v-35.328zm6.466 13.208h5.614c2.706 0 4.01-1.902 4.01-4.675 0-2.826-1.504-4.565-4.061-4.565H9.474v9.24zm5.664 18.098c3.058 0 4.862-1.793 4.862-5.924v-.87c0-4.239-1.805-5.761-4.862-5.761H9.474v12.555h5.664zM31.178 115.049c0-1.522 1.604-2.175 3.258-2.175 1.604 0 3.258.652 3.258 2.175v35.328c0 1.468-1.653 2.229-3.258 2.229-1.654 0-3.258-.761-3.258-2.229v-35.328zM55.137 119.07c-3.357 0-5.263 2.011-5.263 6.251v15.164c0 4.239 1.905 6.25 5.363 6.25 4.562 0 4.963-3.533 5.113-5.815.1-1.685 1.503-2.229 3.208-2.229 2.255 0 3.308.707 3.308 3.479 0 6.576-4.962 10.762-11.979 10.762-6.315 0-11.529-3.37-11.529-12.446v-15.164c0-9.077 5.264-12.447 11.579-12.447 6.968 0 11.93 4.022 11.93 10.327 0 2.826-1.053 3.479-3.258 3.479-1.854 0-3.208-.598-3.258-2.229-.101-1.685-.452-5.382-5.214-5.382zM79.396 136.681c0-.272-.05-.544-.15-.707L68.87 116.516a2.25 2.25 0 0 1-.15-.706c0-1.739 2.557-2.936 4.311-2.936 1.053 0 1.554.436 2.005 1.413l7.619 15.708 7.669-15.708c.451-.924.902-1.413 1.955-1.413 1.755 0 4.311 1.196 4.311 2.936 0 .163 0 .435-.15.706l-10.325 19.458a1.434 1.434 0 0 0-.201.707v13.696c0 1.468-1.604 2.229-3.258 2.229-1.604 0-3.258-.761-3.258-2.229v-13.696zM110.824 119.07c-3.357 0-5.263 2.011-5.263 6.251v15.164c0 4.239 1.905 6.25 5.363 6.25 4.562 0 4.963-3.533 5.113-5.815.1-1.685 1.503-2.229 3.208-2.229 2.255 0 3.308.707 3.308 3.479 0 6.576-4.962 10.762-11.979 10.762-6.315 0-11.529-3.37-11.529-12.446v-15.164c0-9.077 5.264-12.447 11.579-12.447 6.968 0 11.93 4.022 11.93 10.327 0 2.826-1.053 3.479-3.258 3.479-1.854 0-3.208-.598-3.258-2.229-.1-1.685-.451-5.382-5.214-5.382zM129.82 152.605c-1.453 0-2.856-.761-2.856-2.229v-35.328c0-1.522 1.604-2.175 3.258-2.175 1.604 0 3.258.652 3.258 2.175v31.36h12.23c1.304 0 1.955 1.522 1.955 3.099 0 1.521-.651 3.098-1.955 3.098h-15.89zM157.74 129.94h7.619c1.304 0 2.056 1.359 2.056 2.826 0 1.251-.652 2.718-2.056 2.718h-7.619v10.925h14.186c1.304 0 2.056 1.468 2.056 3.152 0 1.468-.652 3.044-2.056 3.044h-17.845c-1.453 0-2.856-.761-2.856-2.229v-35.274c0-1.468 1.403-2.229 2.856-2.229h17.845c1.403 0 2.056 1.576 2.056 3.044 0 1.685-.752 3.152-2.056 3.152H157.74v10.871z"/>
  <path fill="#FFFFFF" d="M195.184 115.049c0-1.522 1.604-2.175 3.258-2.175 1.604 0 3.258.652 3.258 2.175v25.437c0 9.076-5.313 12.446-12.03 12.446-6.767 0-12.029-3.37-12.029-12.446v-25.437c0-1.522 1.604-2.175 3.258-2.175 1.604 0 3.258.652 3.258 2.175v25.437c0 4.239 2.056 6.25 5.514 6.25 3.459 0 5.515-2.011 5.515-6.25v-25.437zM224.856 150.377l-10.777-21.85v21.85c0 1.468-1.653 2.229-3.258 2.229-1.654 0-3.258-.761-3.258-2.229v-35.274c0-1.521 1.604-2.229 3.258-2.229 2.355 0 3.309.544 4.862 3.751l9.674 20.272v-21.849c0-1.522 1.604-2.175 3.258-2.175 1.604 0 3.259.652 3.259 2.175v35.328c0 1.468-1.654 2.229-3.259 2.229-1.553 0-2.907-.543-3.759-2.228zM237.889 115.049c0-1.522 1.604-2.175 3.258-2.175 1.604 0 3.258.652 3.258 2.175v35.328c0 1.468-1.653 2.229-3.258 2.229-1.654 0-3.258-.761-3.258-2.229v-35.328zM247.964 116.353c-.051-.217-.101-.435-.101-.543 0-1.739 2.355-2.936 4.11-2.936 1.103 0 1.955.381 2.205 1.413l7.669 29.459 7.619-29.459c.251-1.032 1.104-1.413 2.206-1.413 1.754 0 4.11 1.25 4.11 2.936 0 .163-.051.326-.101.543l-9.624 34.188c-.451 1.631-2.306 2.392-4.211 2.392-1.904 0-3.709-.761-4.21-2.392l-9.672-34.188zM285.757 129.94h7.619c1.304 0 2.056 1.359 2.056 2.826 0 1.251-.652 2.718-2.056 2.718h-7.619v10.925h14.186c1.304 0 2.056 1.468 2.056 3.152 0 1.468-.652 3.044-2.056 3.044h-17.845c-1.453 0-2.856-.761-2.856-2.229v-35.274c0-1.468 1.403-2.229 2.856-2.229h17.845c1.403 0 2.056 1.576 2.056 3.044 0 1.685-.752 3.152-2.056 3.152h-14.186v10.871zM305.807 115.049c0-1.142.852-2.175 2.104-2.175h9.925c6.566 0 11.88 2.718 11.88 11.359 0 6.251-2.807 9.621-6.566 10.871l6.566 13.207c.201.271.251.652.251.87 0 1.793-2.155 3.695-4.061 3.695-.902 0-1.754-.598-2.256-1.685l-7.117-15.001h-4.211v14.186c0 1.468-1.604 2.229-3.258 2.229-1.604 0-3.258-.761-3.258-2.229v-35.327zm6.515 4.021v11.577h5.514c3.259 0 5.364-1.468 5.364-5.762s-2.105-5.815-5.364-5.815h-5.514zM349.565 142.007c0-8.152-16.09-5.652-16.09-18.534 0-8.099 6.416-10.87 12.181-10.87 2.957 0 9.523.761 9.523 4.348 0 1.251-.802 3.751-2.606 3.751-1.554 0-2.707-2.065-6.917-2.065-3.609 0-5.665 1.576-5.665 4.185 0 6.74 16.091 4.403 16.091 18.479 0 7.772-5.013 11.795-11.93 11.795-6.566 0-11.579-3.587-11.579-6.739 0-1.522 1.303-3.805 2.857-3.805 2.055 0 3.408 4.185 8.521 4.185 3.008-.002 5.614-1.469 5.614-4.73zM367.058 129.94h7.619c1.304 0 2.056 1.359 2.056 2.826 0 1.251-.652 2.718-2.056 2.718h-7.619v10.925h14.186c1.304 0 2.056 1.468 2.056 3.152 0 1.468-.652 3.044-2.056 3.044h-17.845c-1.453 0-2.856-.761-2.856-2.229v-35.274c0-1.468 1.403-2.229 2.856-2.229h17.845c1.403 0 2.056 1.576 2.056 3.044 0 1.685-.752 3.152-2.056 3.152h-14.186v10.871z"/>
  <g fill-rule="evenodd" clip-rule="evenodd">
    <path fill="#FFFFFF" d="M222.404 47.849a91.368 91.368 0 0 1 33.271 21.047A90.645 90.645 0 0 1 274.14 95.21h-6.189a85.205 85.205 0 0 0-16.221-22.4 85.859 85.859 0 0 0-31.844-19.977c.379-.659.74-1.322 1.088-1.993.506-.972.965-1.982 1.43-2.991zm-59.92 4.98a85.776 85.776 0 0 0-31.854 19.98 85.288 85.288 0 0 0-16.227 22.4h-6.188a90.593 90.593 0 0 1 18.465-26.314 91.396 91.396 0 0 1 33.285-21.052c.469 1.007.93 2.024 1.434 2.996.092.181.186.358.277.54.265.486.531.973.808 1.45zm111.653 117.65a90.472 90.472 0 0 1-18.461 26.316 91.304 91.304 0 0 1-33.268 21.047c-.469-1.014-.928-2.035-1.434-3.006a54.151 54.151 0 0 0-1.08-1.982 85.756 85.756 0 0 0 31.836-19.973 85.072 85.072 0 0 0 16.225-22.402h6.182zm-114.178 47.373a91.432 91.432 0 0 1-33.277-21.057 90.657 90.657 0 0 1-18.463-26.316h6.186a84.967 84.967 0 0 0 16.227 22.402 85.738 85.738 0 0 0 31.85 19.98 59.159 59.159 0 0 0-1.084 1.975c-.511.975-.968 1.996-1.439 3.016z"/>
    <path fill="#FFFFFF" d="M70.52 95.21c-2.391-2.344-6.9-3.338-5.262-7.807 1.939-5.283 7.324-1.354 10.832-3.07a123.17 123.17 0 0 1 3.637-7.705c-.93-3.775-7.43-5.342-4.596-10.213 2.842-4.877 7.465-.061 11.229-1.162a121.505 121.505 0 0 1 4.91-6.939c-.23-3.883-6.393-6.552-2.74-10.866 3.656-4.318 7.371 1.237 11.273.786a126.376 126.376 0 0 1 6.039-5.991c.451-3.863-5.148-7.55-.791-11.17 4.346-3.616 7.029 2.464 10.934 2.714a126.223 126.223 0 0 1 7.035-4.896c1.074-3.724-3.738-8.293 1.164-11.097 4.893-2.803 6.48 3.586 10.252 4.546a126.25 126.25 0 0 1 7.842-3.636c1.668-3.481-2.229-8.782 3.076-10.699 5.301-1.908 5.75 4.634 9.285 6.238a125.582 125.582 0 0 1 8.375-2.221c2.254-3.139-.66-9.034 4.9-10.009 5.566-.972 4.85 5.583 8.074 7.757 2.832-.343 5.697-.586 8.59-.732 2.803-2.692.94-9.038 6.602-9.038 5.664 0 3.793 6.351 6.607 9.037 2.879.154 5.74.401 8.566.744 3.242-2.163 2.516-8.74 8.09-7.769 5.57.979 2.633 6.894 4.916 10.028 2.814.644 5.588 1.388 8.328 2.217 3.564-1.581 3.996-8.17 9.316-6.254 5.32 1.924 1.377 7.256 3.094 10.737a128.76 128.76 0 0 1 7.777 3.605c3.807-.913 5.387-7.368 10.303-4.554 4.924 2.819.043 7.415 1.172 11.147a120.392 120.392 0 0 1 6.963 4.851c3.941-.201 6.633-6.351 10.996-2.719 4.374 3.636-1.291 7.337-.789 11.22a124.056 124.056 0 0 1 5.985 5.934c3.916.514 7.648-5.12 11.322-.778 3.668 4.333-2.555 7.001-2.74 10.915a124.727 124.727 0 0 1 4.861 6.873c3.771 1.166 8.424-3.717 11.277 1.18 2.85 4.895-3.717 6.447-4.604 10.258a124.272 124.272 0 0 1 3.598 7.635c3.51 1.773 8.934-2.209 10.881 3.096 1.643 4.469-2.873 5.463-5.264 7.807h-25.182c-10.909-27.213-33.301-48.665-61.245-58.463-4.99 2.869-5.893 6.566-8.682 11.922-2.246 4.33-4.783 7.713-7.617 10.287h-35.85c-2.727-2.479-5.174-5.702-7.361-9.793-.088-.166-.17-.328-.254-.494-2.795-5.367-3.695-9.064-8.699-11.933-27.963 9.789-50.377 31.245-61.289 58.474H70.52zm241.316 75.269c2.391 2.348 6.902 3.344 5.264 7.807-1.955 5.324-7.408 1.297-10.92 3.111a120.214 120.214 0 0 1-3.57 7.576c.844 3.84 7.473 5.393 4.615 10.305-2.861 4.918-7.545-.023-11.32 1.191a123.138 123.138 0 0 1-4.818 6.809c.127 3.941 6.426 6.613 2.74 10.967-3.686 4.355-7.438-1.338-11.377-.771a123.02 123.02 0 0 1-5.924 5.877c-.559 3.9 5.176 7.611.783 11.27-4.383 3.646-7.078-2.572-11.041-2.719a127.004 127.004 0 0 1-6.898 4.805c-1.191 3.74 3.756 8.359-1.191 11.191-4.939 2.832-6.512-3.697-10.354-4.568a122.33 122.33 0 0 1-7.705 3.57c-1.777 3.482 2.232 8.852-3.115 10.787-5.34 1.926-5.756-4.73-9.363-6.271-2.711.82-5.459 1.549-8.242 2.186-2.348 3.123.646 9.096-4.955 10.078-5.602.977-4.838-5.668-8.135-7.799-2.799.336-5.625.574-8.48.729-2.875 2.66-.951 9.084-6.648 9.084-5.695 0-3.775-6.424-6.656-9.084-2.85-.154-5.672-.4-8.467-.732-3.305 2.129-2.537 8.779-8.143 7.803-5.6-.982-2.604-6.955-4.951-10.078a125.7 125.7 0 0 1-8.244-2.186c-3.609 1.535-4.025 8.201-9.369 6.271-5.34-1.93-1.342-7.297-3.107-10.779a123.815 123.815 0 0 1-7.723-3.57c-3.836.883-5.404 7.387-10.336 4.561-4.936-2.822-.023-7.43-1.184-11.168a124.554 124.554 0 0 1-6.945-4.828c-3.945.186-6.631 6.357-11.004 2.719-4.377-3.637 1.291-7.338.781-11.225a126.228 126.228 0 0 1-5.982-5.93c-3.918-.504-7.65 5.117-11.32.779-3.664-4.33 2.545-6.994 2.74-10.9a122.365 122.365 0 0 1-4.879-6.896c-3.768-1.139-8.41 3.719-11.26-1.17-2.842-4.885 3.686-6.441 4.596-10.232a123.97 123.97 0 0 1-3.617-7.678c-3.508-1.738-8.906 2.209-10.852-3.082-1.639-4.469 2.871-5.463 5.262-7.807H95.68c10.922 27.219 33.338 48.668 61.297 58.445 4.984-2.869 5.885-6.563 8.668-11.922.088-.162.174-.328.258-.484 2.184-4.088 4.627-7.303 7.35-9.779h35.881c2.826 2.572 5.355 5.949 7.598 10.264 2.781 5.348 3.688 9.039 8.645 11.906 27.947-9.785 50.34-31.223 61.264-58.43h25.195v-.003zM183.26 49.159c1.037 3.366 4.193 5.815 7.93 5.815 3.732 0 6.891-2.449 7.928-5.812l.135-.509a8.122 8.122 0 0 0 0-3.805c-.863-3.625-4.145-6.319-8.063-6.319-4.584 0-8.293 3.682-8.289 8.224a7.99 7.99 0 0 0 .359 2.406zm0 167.353a8.263 8.263 0 0 0-.363 2.41c0 4.543 3.709 8.225 8.293 8.221 3.918 0 7.195-2.691 8.066-6.314a8.12 8.12 0 0 0-.004-3.806l-.135-.504c-1.037-3.367-4.195-5.814-7.928-5.814-3.736-.002-6.892 2.445-7.929 5.807z"/>
    <g fill="#FFFFFF">
      <path d="M191.18 61.823c7.822 0 14.686 8.264 19.453 21.617 1.277 3.566 2.414 7.514 3.391 11.77h-4.492c-.887-3.719-1.9-7.178-3.027-10.324-4.129-11.559-9.566-18.713-15.324-18.713-5.762 0-11.197 7.154-15.328 18.713-1.125 3.146-2.135 6.605-3.021 10.324h-4.496c.979-4.256 2.113-8.203 3.389-11.77 4.767-13.353 11.634-21.617 19.455-21.617zm22.843 108.656c-.977 4.26-2.113 8.207-3.391 11.771-4.768 13.357-11.631 21.619-19.453 21.619-7.82 0-14.688-8.262-19.457-21.619-1.275-3.564-2.41-7.512-3.389-11.771h4.496c.887 3.725 1.896 7.18 3.021 10.324 4.131 11.566 9.566 18.719 15.328 18.719 5.758 0 11.195-7.152 15.324-18.719 1.127-3.145 2.141-6.6 3.027-10.324h4.494z"/>
      <path d="M191.18 61.823c15.102 0 28.73 8.039 38.561 21.043 2.822 3.729 5.328 7.869 7.469 12.344h-4.869a66.531 66.531 0 0 0-6.096-9.746c-9.01-11.918-21.412-19.291-35.064-19.291-13.654 0-26.057 7.373-35.068 19.291-2.256 2.98-4.297 6.246-6.096 9.746h-4.867c2.137-4.475 4.646-8.615 7.465-12.344 9.83-13.004 23.465-21.043 38.565-21.043zm46.025 108.656c-2.137 4.48-4.643 8.623-7.465 12.35-9.83 13-23.459 21.041-38.561 21.041-15.1 0-28.734-8.041-38.566-21.041-2.818-3.727-5.324-7.869-7.465-12.35h4.867c1.799 3.504 3.84 6.77 6.096 9.748 9.012 11.918 21.414 19.295 35.068 19.295 13.652 0 26.055-7.377 35.064-19.295a66.288 66.288 0 0 0 6.096-9.748h4.866z"/>
      <path d="M191.18 61.823c19.779 0 37.682 7.947 50.648 20.803a71.767 71.767 0 0 1 10.107 12.584h-5.246a67.28 67.28 0 0 0-7.965-9.506c-12.166-12.068-28.977-19.531-47.545-19.531-18.566 0-35.381 7.463-47.551 19.531a67.4 67.4 0 0 0-7.963 9.506h-5.24a71.346 71.346 0 0 1 10.105-12.584c12.962-12.855 30.87-20.803 50.65-20.803zm60.756 108.656a71.607 71.607 0 0 1-10.107 12.586c-12.967 12.855-30.869 20.805-50.648 20.805s-37.688-7.949-50.648-20.805a71.278 71.278 0 0 1-10.105-12.586h5.244a67.01 67.01 0 0 0 7.959 9.508c12.17 12.07 28.984 19.535 47.551 19.535 18.568 0 35.379-7.465 47.545-19.535a66.984 66.984 0 0 0 7.965-9.508h5.244z"/>
      <path d="M134.354 90.911l113.648-.064v4.334l-55.201.029h-58.447zM134.107 170.545l114.147-.066v4.334l-114.147.066z"/>
    </g>
  </g>
</svg>
