<svg xmlns="http://www.w3.org/2000/svg" version="1.0" viewBox="0 0 1333.8 863"><defs/><path fill="#333" d="M750.9 374.8c-19.3 0-33.7 9.5-33.7 32.3 0 17.2 9.5 29.2 32.7 29.2 19.7 0 33-11.6 33-29.9 0-20.7-12-31.6-32-31.6zm-38.7 161.4c-4.6 5.6-9.1 11.6-9.1 18.6 0 14 17.9 18.3 42.5 18.3 20.4 0 48.1-1.4 48.1-20.4 0-11.3-13.4-12-30.2-13l-51.3-3.5zm104.1-160.3c6.3 8.1 13 19.3 13 35.5 0 39-30.6 61.8-74.8 61.8-11.3 0-21.4-1.4-27.8-3.2L715 488.7l34.4 2.1c60.8 3.9 96.6 5.6 96.6 52.4 0 40.4-35.5 63.3-96.6 63.3-63.6 0-87.9-16.2-87.9-43.9 0-15.8 7-24.2 19.3-35.9-11.6-4.9-15.5-13.7-15.5-23.2 0-7.7 3.9-14.8 10.2-21.4 6.3-6.7 13.3-13.4 21.8-21.1-17.2-8.4-30.2-26.7-30.2-52.7 0-40.4 26.7-68.2 80.5-68.2 15.1 0 24.3 1.4 32.3 3.5h68.5v29.9l-32.1 2.4zm94.1-63.9c-20 0-31.6-11.6-31.6-31.6s11.6-30.9 31.6-30.9c20.4 0 32 10.9 32 30.9s-11.6 31.6-32 31.6zm-45.3 211.2v-27.8L883 493c4.9-.7 5.6-1.8 5.6-7V382.7c0-3.9-1.1-6.3-4.6-7.4l-19-6.7 3.9-28.5h72.8V486c0 5.6.3 6.3 5.6 7l17.9 2.5v27.7H865.1zm239.1-13.6c-15.1 7.4-37.3 14.1-57.3 14.1-41.8 0-57.6-16.9-57.6-56.6V375c0-2.1 0-3.5-2.8-3.5h-24.6v-31.3c30.9-3.5 43.2-19 47.1-57.3h33.4v49.9c0 2.5 0 3.5 2.8 3.5h49.5v35.1h-52.4v84c0 20.7 4.9 28.8 23.9 28.8 9.9 0 20-2.5 28.5-5.6l9.5 31"/><path fill="#de4c36" d="M583.5 417.4L422.8 256.7c-9.3-9.3-24.3-9.3-33.5 0l-33.4 33.4 42.3 42.3c10.2-3.5 21.4-.8 29 6.7 7.6 7.6 10.2 18.9 6.7 29.1l40.8 40.8c9.9-3.4 21.3-1.2 29.1 6.7 11 11 11 28.9 0 39.9s-28.9 11-39.9 0c-8.1-8.1-10.5-20.2-6.1-30.7l-38-38V487c2.8 1.4 5.3 3.2 7.5 5.3 11 11 11 28.9 0 39.9s-28.9 11-39.9 0-11-28.9 0-39.9c2.6-2.6 5.8-4.7 9.2-6.2v-101c-3.5-1.4-6.6-3.5-9.2-6.2-8.3-8.3-10.4-20.6-6.1-30.8l-41.7-41.7-110.3 110.2c-9.3 9.3-9.3 24.3 0 33.5L390 610.8c9.3 9.3 24.3 9.3 33.5 0l159.9-159.9c9.4-9.3 9.4-24.3.1-33.5"/></svg>