<svg xmlns="http://www.w3.org/2000/svg" viewBox="0 0 12706.44 3436.26"><defs/><path fill="#333" d="M2447.32 1470.74H1379.56c-27.55 0-49.89 22.37-49.89 49.92v522.04c0 27.54 22.34 49.97 49.89 49.97h416.54v648.59s-93.54 31.89-352.1 31.89c-305.07 0-731.22-111.47-731.22-1048.58 0-937.3 443.75-1060.63 860.36-1060.63 360.62 0 515.99 63.49 614.85 94.1 31.05 9.51 59.78-21.42 59.78-48.98l119.12-504.4c0-12.91-4.37-28.44-19.07-38.98C2307.67 137.04 2062.75 0 1444 0 731.18 0 0 303.26 0 1761.12c0 1457.89 837.14 1675.14 1542.57 1675.14 584.1 0 938.45-249.6 938.45-249.6 14.59-8.06 16.17-28.47 16.17-37.83V1520.66c0-27.55-22.32-49.92-49.87-49.92zM7950.03 174.67c0-27.77-22.01-50.19-49.55-50.19h-601.21c-27.46 0-49.79 22.42-49.79 50.19l.16 1161.86h-937.12V174.67c0-27.77-22.12-50.19-49.61-50.19h-601.18c-27.36 0-49.66 22.42-49.66 50.19v3145.99c0 27.75 22.3 50.33 49.66 50.33h601.18c27.49 0 49.61-22.58 49.61-50.33V1975h937.12l-1.63 1345.66c0 27.75 22.3 50.33 49.79 50.33h602.62c27.55 0 49.56-22.58 49.61-50.33V174.67zm-4368.2 412.82c0-216.47-173.56-391.41-387.7-391.41-213.92 0-387.6 174.94-387.6 391.41 0 216.27 173.68 391.68 387.6 391.68 214.14 0 387.7-175.41 387.7-391.68zm-43 2069.54v-1452.2c0-27.57-22.24-50.11-49.74-50.11h-599.31c-27.5 0-52.09 28.36-52.09 55.92V3291.2c0 61.13 38.11 79.32 87.41 79.32h539.97c59.24 0 73.76-29.09 73.76-80.3v-633.19zm6696.08-1497.58H9638.3c-27.36 0-49.63 22.55-49.63 50.3v1542.57s-151.57 110.9-366.7 110.9c-215.1 0-272.2-97.62-272.2-308.25V1209.75c0-27.75-22.22-50.3-49.61-50.3h-605.5c-27.33 0-49.71 22.55-49.71 50.3v1447.07c0 625.65 348.69 778.72 828.37 778.72 393.52 0 710.82-217.41 710.82-217.41s15.11 114.57 21.93 128.16c6.85 13.54 24.65 27.23 43.9 27.23l385.2-1.7c27.33 0 49.71-22.59 49.71-50.23l-.18-2111.84c0-27.75-22.3-50.3-49.79-50.3zm1630.6-70.67c-338.85 0-569.32 151.18-569.32 151.18V174.67c0-27.77-22.2-50.19-49.61-50.19h-602.91c-27.42 0-49.69 22.42-49.69 50.19v3145.99c0 27.75 22.27 50.33 49.77 50.33h418.29c18.84 0 33.1-9.72 43.64-26.72 10.39-16.9 25.4-145.05 25.4-145.05s246.52 233.63 713.24 233.63c547.9 0 862.12-277.92 862.12-1247.63 0-969.72-501.83-1096.44-840.93-1096.44zm-235.31 1772.53c-206.94-6.31-347.29-100.21-347.29-100.21v-996.27s138.46-84.86 308.35-100.04c214.84-19.24 421.86 45.66 421.86 558.16 0 540.43-93.43 647.09-382.92 638.36zM5266.73 1154.43h-450.98l-.67-595.79c0-22.56-11.63-33.82-37.7-33.82h-614.55c-23.9 0-36.72 10.52-36.72 33.48v615.67s-307.99 74.35-328.82 80.35c-20.72 6.02-35.99 25.14-35.99 47.96v386.89c0 27.82 22.22 50.27 49.71 50.27h315.1v930.77c0 691.32 484.92 759.23 812.14 759.23 149.52 0 328.37-48.01 357.91-58.92 17.85-6.56 28.24-25.06 28.24-45.11l.49-425.61c0-27.74-23.44-50.22-49.84-50.22-26.28 0-93.51 10.69-162.73 10.69-221.51 0-296.57-102.99-296.57-236.32 0-133.22-.03-884.51-.03-884.51h451.01c27.49 0 49.76-22.45 49.76-50.27v-484.61c0-27.76-22.27-50.13-49.76-50.13z" class="fil0"/></svg>