<svg xmlns="http://www.w3.org/2000/svg" viewBox="0 0 583 315">
  <g fill-rule="nonzero">
    <path fill="#0476bf" d="M38 246c9 0 12 5 12 11s-3 11-12 11H16v-22h22zm26 67v-23c0-9-3-13-10-16 8-3 12-10 12-19 0-13-10-23-25-23H0v81h16v-32h19c9 0 12 3 12 11v21h17zm21-36c1-8 6-13 13-13 6 0 12 4 12 13H85zm41 10c0-24-10-36-28-36s-29 12-29 31c0 22 10 33 30 33 13 0 23-7 26-20h-16c-1 5-6 7-11 7-8 0-13-6-13-15h41zm37 26l21-60h-16l-13 40-13-40h-17l21 60h17zm36-36c1-8 6-13 12-13 7 0 12 4 13 13h-25zm41 10c0-24-10-36-28-36-19 0-29 12-29 31 0 22 10 33 30 33 13 0 23-7 26-20h-16c-1 5-6 7-11 7-8 0-13-6-13-15h41zm21 26v-31c0-10 5-15 14-15 2 0 3 0 5 1v-17h-2c-7 0-13 1-18 9v-7h-15v60h16zm72-42c0-12-8-20-25-20-19 0-26 8-26 17 0 11 4 16 28 22 6 1 9 3 9 7s-5 6-11 6c-7 0-12-4-12-9h-16c0 12 11 21 28 21 18 0 27-8 27-19 0-14-7-15-28-21-6-2-10-3-10-7 0-3 4-5 10-5 7 0 10 3 11 8h15zm21 6c1-8 6-13 12-13s12 4 13 13h-25zm41 10c0-24-10-36-28-36-19 0-29 12-29 31 0 22 10 33 30 33 12 0 22-7 26-20h-16c-1 5-6 7-11 7-8 0-13-6-14-15h42z"/>
    <path fill="#11a6e0" d="M432 313v-59h22v-12h-59v12h22v59h15zm39 0v-53h-14v53h14zm0-59v-13h-14v13h14zm31 49c-7 0-12-6-12-16 0-11 4-16 12-16s12 5 12 17c0 9-5 15-12 15zm25 10v-72h-13v26c-4-6-10-8-16-8-14 0-22 11-22 27 0 18 10 29 23 29 7 0 12-3 15-8v6h13zm19-31c1-8 6-12 11-12 6 0 11 4 11 12h-22zm37 8c0-21-9-31-25-31-17 0-26 10-26 27 0 19 9 29 26 29 12 0 21-6 24-17h-15c-1 3-5 6-9 6-7 0-12-6-12-14h37z"/>
  </g>
  <path fill="#0476bf" d="M406 139l-16-8 5-5c-20-37-23-48-61-73-9-6-5-4-12-1L305 0c6 2 94 52 96 53 1 2 40 97 41 103l-7-4h-2v-1l-27-12zM277 73h7l3-73h-13l3 73zm-68-51c3 5 32 55 36 60l6-2c-2-6-18-38-23-49l-8-16c-1 2-3 3-5 4l-6 3zm-47 49l29 18c5 3 25 17 30 18l2-4-54-43c-3 4-5 7-7 11zm222 53l-21 19c-1-2-1-4-2-5-2-9-6-19-8-23-10-17-18-24-33-33-3-3-7-5-12-6l19-17c13 8 24 15 35 27 8 9 21 28 22 38zm-243 11c8 1 62 5 68 4v-5l-68-12v13z"/>
  <path fill="#11a6e0" d="M236 100c13-13 30-20 48-20 19 0 36 7 48 20 13 12 20 29 20 48 0 18-7 35-20 47-12 13-29 20-48 20-18 0-35-7-48-20-12-12-19-29-19-47 0-19 7-36 19-48zm11-69l13 44 6-1c0-4-4-22-5-28-6-25 1-16-14-15zm-48 31c5 3 12 11 17 16l16 15 3-3c-1-4-10-14-13-18l-14-18c-3 2-7 5-9 8zm-29 48c11 1 36 12 44 12l1-5-41-17-1 2-3 8zm57 41c0 7 0 14 2 21h22c-2-7-3-13-3-21h-21zm26 28h-22c2 5 4 9 8 12 8 9 22 14 35 16-6-3-12-9-16-17-2-3-4-7-5-11zm8 0c1 3 2 6 4 8 4 8 10 13 16 15v-23h-20zm27 0v23c6-2 12-7 16-15 1-2 2-5 4-8h-20zm23 11c-5 8-10 14-17 17 14-2 28-7 36-16 3-3 6-7 8-12h-22c-2 4-3 8-5 11zm7-18h22c1-7 2-14 2-21h-21c-1 8-2 14-3 21zm-8 0c2-7 3-13 3-21h-25v21h22zm-29 0v-21h-25c0 8 1 14 3 21h22zm-25-28h25v-21h-22c-2 7-3 13-3 21zm32-21v21h25c0-8-1-14-3-21h-22zm30 0l3 21h21c0-7-1-14-2-21h-22zm-2-7h22c-2-5-5-9-8-12-8-8-22-14-36-16 7 3 12 9 17 17 2 3 3 7 5 11zm-8 0c-2-3-3-6-4-8-4-8-10-13-16-15v23h20zm-27 0V93c-6 2-12 7-16 15-2 2-3 5-4 8h20zm-28 0c1-4 3-8 5-11 4-8 10-14 16-17-13 2-27 8-35 16-4 3-6 7-8 12h22zm-2 7h-22c-2 7-2 14-2 21h21c0-7 1-14 3-21z"/>
</svg>
